<svg xmlns="http://www.w3.org/2000/svg" xmlns:xlink="http://www.w3.org/1999/xlink" version="1.1" data-diagram-type="CLASS" style="width:78px;height:178px;background:#FFFFFF;" width="78px" height="178px" viewBox="0 0 78 178" zoomAndPan="magnify" preserveAspectRatio="none" contentStyleType="text/css"><?plantuml $version$?><defs/><g><!--class Foo--><g class="entity" data-qualified-name="Foo" id="ent0001" data-source-line="1"><rect x="7" y="115" width="56.15" height="48" fill="#F1F1F1" style="stroke:#181818;stroke-width:0.5;" rx="2.5" ry="2.5"/><ellipse cx="22" cy="131" rx="11" ry="11" fill="#ADD1B2" style="stroke:#181818;stroke-width:1;"/><path d="M24.4731,137.1431 Q23.8921,137.4419 23.2529,137.5913 Q22.6138,137.7407 21.9082,137.7407 Q19.4014,137.7407 18.0815,136.0889 Q16.7617,134.437 16.7617,131.3159 Q16.7617,128.1865 18.0815,126.5347 Q19.4014,124.8828 21.9082,124.8828 Q22.6138,124.8828 23.2612,125.0322 Q23.9087,125.1816 24.4731,125.4805 L24.4731,128.2031 Q23.8423,127.6221 23.2488,127.3523 Q22.6553,127.0825 22.0244,127.0825 Q20.6797,127.0825 19.9949,128.1492 Q19.3101,129.2158 19.3101,131.3159 Q19.3101,133.4077 19.9949,134.4744 Q20.6797,135.541 22.0244,135.541 Q22.6553,135.541 23.2488,135.2712 Q23.8423,135.0015 24.4731,134.4204 Z " fill="#000000"/><text x="36" y="134.8889" fill="#000000" font-size="14" lengthAdjust="spacing" textLength="24.15" font-family="sans-serif">Foo</text><line x1="8" y1="147" x2="62.15" y2="147" style="stroke:#181818;stroke-width:0.5;"/><line x1="8" y1="155" x2="62.15" y2="155" style="stroke:#181818;stroke-width:0.5;"/></g><!--class Bar--><g class="entity" data-qualified-name="Bar" id="ent0002" data-source-line="2"><rect x="8.18" y="7" width="53.7875" height="48" fill="#F1F1F1" style="stroke:#181818;stroke-width:0.5;" rx="2.5" ry="2.5"/><ellipse cx="23.18" cy="23" rx="11" ry="11" fill="#ADD1B2" style="stroke:#181818;stroke-width:1;"/><path d="M25.6531,29.1431 Q25.0721,29.4419 24.4329,29.5913 Q23.7938,29.7407 23.0882,29.7407 Q20.5814,29.7407 19.2615,28.0889 Q17.9417,26.437 17.9417,23.3159 Q17.9417,20.1865 19.2615,18.5347 Q20.5814,16.8828 23.0882,16.8828 Q23.7938,16.8828 24.4412,17.0322 Q25.0887,17.1816 25.6531,17.4805 L25.6531,20.2031 Q25.0223,19.6221 24.4288,19.3523 Q23.8353,19.0825 23.2044,19.0825 Q21.8597,19.0825 21.1749,20.1492 Q20.4901,21.2158 20.4901,23.3159 Q20.4901,25.4077 21.1749,26.4744 Q21.8597,27.541 23.2044,27.541 Q23.8353,27.541 24.4288,27.2712 Q25.0223,27.0015 25.6531,26.4204 Z " fill="#000000"/><text x="37.18" y="26.8889" fill="#000000" font-size="14" lengthAdjust="spacing" textLength="21.7875" font-family="sans-serif">Bar</text><line x1="9.18" y1="39" x2="60.9675" y2="39" style="stroke:#181818;stroke-width:0.5;"/><line x1="9.18" y1="47" x2="60.9675" y2="47" style="stroke:#181818;stroke-width:0.5;"/></g><!--reverse link Bar to Foo--><g class="link" data-entity-1="ent0002" data-entity-2="ent0001" id="lnk3" data-source-line="3" data-link-type="extension"><path d="M35.07,73.26 C35.07,90.94 35.07,97.13 35.07,114.79" style="stroke:#181818;stroke-width:1;" fill="none" id="Bar-backto-Foo" codeLine="3"/><polygon points="35.07,55.26,29.07,73.26,41.07,73.26,35.07,55.26" fill="none" style="stroke:#181818;stroke-width:1;stroke-linejoin:miter;stroke-miterlimit:10;"/></g><?plantuml-src Iyv9B2vMSClFvqe6ivmIYxY0MC6cHbSN90m0?></g></svg>