<svg xmlns="http://www.w3.org/2000/svg" xmlns:xlink="http://www.w3.org/1999/xlink" version="1.1" data-diagram-type="CLASS" style="width:293px;height:84px;background:#FFFFFF;" width="293px" height="84px" viewBox="0 0 293 84" zoomAndPan="magnify" preserveAspectRatio="none" contentStyleType="text/css"><?plantuml $version$?><defs/><g><!--class A--><g class="entity" data-qualified-name="A" id="ent0001" data-source-line="1"><rect x="7" y="7" width="76.4875" height="62" fill="#F1F1F1" style="stroke:#181818;stroke-width:0.5;" rx="2.5" ry="2.5"/><ellipse cx="37.8063" cy="23" rx="11" ry="11" fill="#ADD1B2" style="stroke:#181818;stroke-width:1;"/><path d="M40.2794,29.1431 Q39.6983,29.4419 39.0592,29.5913 Q38.42,29.7407 37.7145,29.7407 Q35.2076,29.7407 33.8878,28.0889 Q32.568,26.437 32.568,23.3159 Q32.568,20.1865 33.8878,18.5347 Q35.2076,16.8828 37.7145,16.8828 Q38.42,16.8828 39.0675,17.0322 Q39.7149,17.1816 40.2794,17.4805 L40.2794,20.2031 Q39.6485,19.6221 39.055,19.3523 Q38.4615,19.0825 37.8307,19.0825 Q36.4859,19.0825 35.8011,20.1492 Q35.1163,21.2158 35.1163,23.3159 Q35.1163,25.4077 35.8011,26.4744 Q36.4859,27.541 37.8307,27.541 Q38.4615,27.541 39.055,27.2712 Q39.6485,27.0015 40.2794,26.4204 Z " fill="#000000"/><text x="55.3188" y="26.8889" fill="#000000" font-size="14" lengthAdjust="spacing" textLength="9.3625" font-family="sans-serif">A</text><line x1="8" y1="39" x2="82.4875" y2="39" style="stroke:#181818;stroke-width:0.5;"/><g data-visibility-modifier="PUBLIC_FIELD"><ellipse cx="18" cy="51.5" rx="3" ry="3" fill="none" style="stroke:#038048;stroke-width:1;"/></g><text x="27" y="53.8889" fill="#000000" font-size="14" lengthAdjust="spacing" textLength="50.4875" font-family="sans-serif">attribute</text><line x1="8" y1="61" x2="82.4875" y2="61" style="stroke:#181818;stroke-width:0.5;"/></g><path d="M118.03,21.5 L118.03,29 L77.4875,50 L118.03,37 L118.03,44.5 A0,0 0 0 0 118.03,44.5 L278.455,44.5 A0,0 0 0 0 278.455,44.5 L278.455,31.5 L268.455,21.5 L118.03,21.5 A0,0 0 0 0 118.03,21.5" style="stroke:#181818;stroke-width:0.5;" fill="#FEFFDD"/><path d="M268.455,21.5 L268.455,31.5 L278.455,31.5 L268.455,21.5" style="stroke:#181818;stroke-width:0.5;" fill="#FEFFDD"/><text x="124.03" y="36.6111" fill="#000000" font-size="13" lengthAdjust="spacing" textLength="139.425" font-family="sans-serif">This member is annotated</text><?plantuml-src Iyv9B2vMS5Ievj9EB2afoamgBKdbgkNAooz9LIZAJCyeKSXFKt2qia98AYY4P6GMA-IcvYQb5Ya0MObvGDM99QafNAbvAGeWdG00?></g></svg>