<svg xmlns="http://www.w3.org/2000/svg" xmlns:xlink="http://www.w3.org/1999/xlink" version="1.1" data-diagram-type="CLASS" style="width:190px;height:70px;background:#FFFFFF;" width="190px" height="70px" viewBox="0 0 190 70" zoomAndPan="magnify" preserveAspectRatio="none" contentStyleType="text/css"><?plantuml $version$?><defs/><g><!--class Header--><g class="entity" data-qualified-name="Header" id="ent0001" data-source-line="1"><rect x="7" y="7" width="77.9375" height="48" fill="#F1F1F1" style="stroke:#181818;stroke-width:0.5;" rx="2.5" ry="2.5"/><ellipse cx="22" cy="23" rx="11" ry="11" fill="#ADD1B2" style="stroke:#181818;stroke-width:1;"/><path d="M24.4731,29.1431 Q23.8921,29.4419 23.2529,29.5913 Q22.6138,29.7407 21.9082,29.7407 Q19.4014,29.7407 18.0815,28.0889 Q16.7617,26.437 16.7617,23.3159 Q16.7617,20.1865 18.0815,18.5347 Q19.4014,16.8828 21.9082,16.8828 Q22.6138,16.8828 23.2612,17.0322 Q23.9087,17.1816 24.4731,17.4805 L24.4731,20.2031 Q23.8423,19.6221 23.2488,19.3523 Q22.6553,19.0825 22.0244,19.0825 Q20.6797,19.0825 19.9949,20.1492 Q19.3101,21.2158 19.3101,23.3159 Q19.3101,25.4077 19.9949,26.4744 Q20.6797,27.541 22.0244,27.541 Q22.6553,27.541 23.2488,27.2712 Q23.8423,27.0015 24.4731,26.4204 Z " fill="#000000"/><text x="36" y="26.8889" fill="#000000" font-size="14" lengthAdjust="spacing" textLength="45.9375" font-family="sans-serif">Header</text><line x1="8" y1="39" x2="83.9375" y2="39" style="stroke:#181818;stroke-width:0.5;"/><line x1="8" y1="47" x2="83.9375" y2="47" style="stroke:#181818;stroke-width:0.5;"/></g><!--class bbb--><g class="entity" data-qualified-name="bbb" id="ent0002" data-source-line="2"><rect x="120.29" y="7" width="55.3625" height="48" fill="#F1F1F1" style="stroke:#181818;stroke-width:0.5;" rx="2.5" ry="2.5"/><ellipse cx="135.29" cy="23" rx="11" ry="11" fill="#ADD1B2" style="stroke:#181818;stroke-width:1;"/><path d="M137.7631,29.1431 Q137.1821,29.4419 136.5429,29.5913 Q135.9038,29.7407 135.1982,29.7407 Q132.6914,29.7407 131.3715,28.0889 Q130.0517,26.437 130.0517,23.3159 Q130.0517,20.1865 131.3715,18.5347 Q132.6914,16.8828 135.1982,16.8828 Q135.9038,16.8828 136.5512,17.0322 Q137.1987,17.1816 137.7631,17.4805 L137.7631,20.2031 Q137.1323,19.6221 136.5388,19.3523 Q135.9453,19.0825 135.3144,19.0825 Q133.9697,19.0825 133.2849,20.1492 Q132.6001,21.2158 132.6001,23.3159 Q132.6001,25.4077 133.2849,26.4744 Q133.9697,27.541 135.3144,27.541 Q135.9453,27.541 136.5388,27.2712 Q137.1323,27.0015 137.7631,26.4204 Z " fill="#000000"/><text x="149.29" y="26.8889" fill="#000000" font-size="14" lengthAdjust="spacing" textLength="23.3625" font-family="sans-serif">bbb</text><line x1="121.29" y1="39" x2="174.6525" y2="39" style="stroke:#181818;stroke-width:0.5;"/><line x1="121.29" y1="47" x2="174.6525" y2="47" style="stroke:#181818;stroke-width:0.5;"/></g><!--reverse link Header to bbb--><g class="link" data-entity-1="ent0001" data-entity-2="ent0002" id="lnk3" data-source-line="3" data-link-type="extension"><path d="M103.41,31 C114.98,31 108.55,31 120.11,31" style="stroke:#181818;stroke-width:1;" fill="none" id="Header-backto-bbb" codeLine="3"/><polygon points="85.41,31,103.41,37,103.41,25,85.41,31" fill="none" style="stroke:#181818;stroke-width:1;stroke-linejoin:miter;stroke-miterlimit:10;"/></g><?plantuml-src Iyv9B2vMy4XDJ4ajuae6SvAIahWW0WesDReWBW00?></g></svg>