<svg xmlns="http://www.w3.org/2000/svg" xmlns:xlink="http://www.w3.org/1999/xlink" version="1.1" data-diagram-type="CLASS" style="width:80px;height:68px;background:#FFFFFF;" width="80px" height="68px" viewBox="0 0 80 68" zoomAndPan="magnify" preserveAspectRatio="none" contentStyleType="text/css"><?plantuml $version$?><defs/><g><!--class Toto--><g class="entity" data-qualified-name="Toto" id="ent0001" data-source-line="2"><rect x="7" y="7" width="60" height="48" fill="#F1F1F1" style="stroke:#181818;stroke-width:0.5;" rx="2.5" ry="2.5"/><ellipse cx="22" cy="23" rx="11" ry="11" fill="#ADD1B2" style="stroke:#181818;stroke-width:1;"/><path d="M23.9175,28.1851 Q23.4048,28.4487 22.8408,28.5806 Q22.2769,28.7124 21.6543,28.7124 Q19.4424,28.7124 18.2778,27.2549 Q17.1133,25.7974 17.1133,23.0435 Q17.1133,20.2822 18.2778,18.8247 Q19.4424,17.3672 21.6543,17.3672 Q22.2769,17.3672 22.8481,17.499 Q23.4194,17.6309 23.9175,17.8945 L23.9175,20.2969 Q23.3608,19.7842 22.8372,19.5461 Q22.3135,19.3081 21.7568,19.3081 Q20.5703,19.3081 19.9661,20.2493 Q19.3618,21.1904 19.3618,23.0435 Q19.3618,24.8892 19.9661,25.8303 Q20.5703,26.7715 21.7568,26.7715 Q22.3135,26.7715 22.8372,26.5334 Q23.3608,26.2954 23.9175,25.7827 Z " fill="#000000"/><text x="36" y="26.8889" fill="#000000" font-size="14" lengthAdjust="spacing" textLength="28" font-family="sans-serif">Toto</text><line x1="8" y1="39" x2="66" y2="39" style="stroke:#181818;stroke-width:0.5;"/><line x1="8" y1="47" x2="66" y2="47" style="stroke:#181818;stroke-width:0.5;"/></g><?plantuml-src AyxEp2j8B4hCLN3EB4hEIKrnpW3oaajIYzpoyqg2CwjI5GnDkP9p4ekB5KBoI_81?></g></svg>