<svg xmlns="http://www.w3.org/2000/svg" xmlns:xlink="http://www.w3.org/1999/xlink" version="1.1" data-diagram-type="CLASS" style="width:234px;height:73px;background:#FFFFFF;" width="234px" height="73px" viewBox="0 0 234 73" zoomAndPan="magnify" preserveAspectRatio="none" contentStyleType="text/css"><?plantuml $version$?><defs/><g><!--class Foo--><g class="entity" data-qualified-name="Foo" id="ent0001" data-source-line="1"><rect x="7" y="10" width="95.475" height="48" fill="#F1F1F1" style="stroke:#181818;stroke-width:0.5;" rx="2.5" ry="2.5"/><ellipse cx="22" cy="26" rx="11" ry="11" fill="#ADD1B2" style="stroke:#181818;stroke-width:1;"/><path d="M24.4731,32.1431 Q23.8921,32.4419 23.2529,32.5913 Q22.6138,32.7407 21.9082,32.7407 Q19.4014,32.7407 18.0815,31.0889 Q16.7617,29.437 16.7617,26.3159 Q16.7617,23.1865 18.0815,21.5347 Q19.4014,19.8828 21.9082,19.8828 Q22.6138,19.8828 23.2612,20.0322 Q23.9087,20.1816 24.4731,20.4805 L24.4731,23.2031 Q23.8423,22.6221 23.2488,22.3523 Q22.6553,22.0825 22.0244,22.0825 Q20.6797,22.0825 19.9949,23.1492 Q19.3101,24.2158 19.3101,26.3159 Q19.3101,28.4077 19.9949,29.4744 Q20.6797,30.541 22.0244,30.541 Q22.6553,30.541 23.2488,30.2712 Q23.8423,30.0015 24.4731,29.4204 Z " fill="#000000"/><text x="36" y="29.8889" fill="#000000" font-size="14" lengthAdjust="spacing" textLength="24.15" font-family="sans-serif">Foo</text><rect x="68.15" y="7" width="37.325" height="14" fill="#FFFFFF" style="stroke:#181818;stroke-width:1;stroke-dasharray:2,2;"/><text x="69.15" y="17.3333" fill="#000000" font-size="12" lengthAdjust="spacing" textLength="35.325" font-style="italic" font-family="sans-serif">Param</text><line x1="8" y1="42" x2="101.475" y2="42" style="stroke:#181818;stroke-width:0.5;"/><line x1="8" y1="50" x2="101.475" y2="50" style="stroke:#181818;stroke-width:0.5;"/></g><!--class Bar--><g class="entity" data-qualified-name="Bar" id="ent0002" data-source-line="2"><rect x="137.53" y="10" width="78.4125" height="48" fill="#F1F1F1" style="stroke:#181818;stroke-width:0.5;" rx="2.5" ry="2.5"/><ellipse cx="152.53" cy="26" rx="11" ry="11" fill="#ADD1B2" style="stroke:#181818;stroke-width:1;"/><path d="M155.0031,32.1431 Q154.4221,32.4419 153.7829,32.5913 Q153.1438,32.7407 152.4382,32.7407 Q149.9314,32.7407 148.6115,31.0889 Q147.2917,29.437 147.2917,26.3159 Q147.2917,23.1865 148.6115,21.5347 Q149.9314,19.8828 152.4382,19.8828 Q153.1438,19.8828 153.7912,20.0322 Q154.4387,20.1816 155.0031,20.4805 L155.0031,23.2031 Q154.3723,22.6221 153.7788,22.3523 Q153.1853,22.0825 152.5544,22.0825 Q151.2097,22.0825 150.5249,23.1492 Q149.8401,24.2158 149.8401,26.3159 Q149.8401,28.4077 150.5249,29.4744 Q151.2097,30.541 152.5544,30.541 Q153.1853,30.541 153.7788,30.2712 Q154.3723,30.0015 155.0031,29.4204 Z " fill="#000000"/><text x="166.53" y="29.8889" fill="#000000" font-size="14" lengthAdjust="spacing" textLength="21.7875" font-family="sans-serif">Bar</text><rect x="196.3175" y="7" width="22.625" height="14" fill="#FFFFFF" style="stroke:#181818;stroke-width:1;stroke-dasharray:2,2;"/><text x="197.3175" y="17.3333" fill="#000000" font-size="12" lengthAdjust="spacing" textLength="20.625" font-style="italic" font-family="sans-serif">P, Q</text><line x1="138.53" y1="42" x2="214.9425" y2="42" style="stroke:#181818;stroke-width:0.5;"/><line x1="138.53" y1="50" x2="214.9425" y2="50" style="stroke:#181818;stroke-width:0.5;"/></g><?plantuml-src Iyv9B2vMSClFjmb8B4hCjUDA1Wiu9HRP1EWe1De10000?></g></svg>