<svg xmlns="http://www.w3.org/2000/svg" xmlns:xlink="http://www.w3.org/1999/xlink" version="1.1" data-diagram-type="CLASS" style="width:218px;height:98px;background:#FFFFFF;" width="218px" height="98px" viewBox="0 0 218 98" zoomAndPan="magnify" preserveAspectRatio="none" contentStyleType="text/css"><?plantuml $version$?><defs/><g><!--class A--><g class="entity" data-qualified-name="A" id="ent0001" data-source-line="1"><rect x="7" y="7" width="78.7625" height="76" fill="#F1F1F1" style="stroke:#181818;stroke-width:0.5;" rx="2.5" ry="2.5"/><ellipse cx="38.83" cy="23" rx="11" ry="11" fill="#ADD1B2" style="stroke:#181818;stroke-width:1;"/><path d="M41.3031,29.1431 Q40.7221,29.4419 40.0829,29.5913 Q39.4438,29.7407 38.7382,29.7407 Q36.2314,29.7407 34.9115,28.0889 Q33.5917,26.437 33.5917,23.3159 Q33.5917,20.1865 34.9115,18.5347 Q36.2314,16.8828 38.7382,16.8828 Q39.4438,16.8828 40.0912,17.0322 Q40.7387,17.1816 41.3031,17.4805 L41.3031,20.2031 Q40.6723,19.6221 40.0788,19.3523 Q39.4853,19.0825 38.8544,19.0825 Q37.5097,19.0825 36.8249,20.1492 Q36.1401,21.2158 36.1401,23.3159 Q36.1401,25.4077 36.8249,26.4744 Q37.5097,27.541 38.8544,27.541 Q39.4853,27.541 40.0788,27.2712 Q40.6723,27.0015 41.3031,26.4204 Z " fill="#000000"/><text x="56.57" y="26.8889" fill="#000000" font-size="14" lengthAdjust="spacing" textLength="9.3625" font-family="sans-serif">A</text><line x1="8" y1="39" x2="84.7625" y2="39" style="stroke:#181818;stroke-width:0.5;"/><text x="13" y="53.8889" fill="#000000" font-size="14" lengthAdjust="spacing" textLength="66.7625" font-family="sans-serif">attr : integer</text><line x1="8" y1="61" x2="84.7625" y2="61" style="stroke:#181818;stroke-width:1;stroke-dasharray:1,2;"/><text x="13" y="75.8889" fill="#000000" font-size="14" lengthAdjust="spacing" textLength="58.1875" font-family="sans-serif">attr2 : float</text></g><path d="M121.21,28.5 L121.21,36 L79.7625,50 L121.21,44 L121.21,51.5 A0,0 0 0 0 121.21,51.5 L203.5537,51.5 A0,0 0 0 0 203.5537,51.5 L203.5537,38.5 L193.5537,28.5 L121.21,28.5 A0,0 0 0 0 121.21,28.5" style="stroke:#181818;stroke-width:0.5;" fill="#FEFFDD"/><path d="M193.5537,28.5 L193.5537,38.5 L203.5537,38.5 L193.5537,28.5" style="stroke:#181818;stroke-width:0.5;" fill="#FEFFDD"/><text x="127.21" y="43.6111" fill="#000000" font-size="13" lengthAdjust="spacing" textLength="61.3438" font-family="sans-serif">an attribute</text><?plantuml-src FSen3e0W44JHVayn9w2mfECegov8GfO4rifuTu72AUU_et3l27W8OspMu97L94bRbtD_sKQAfRBHIwJL12sdor0ZWlTJ4EkIURzDIFJ4P1y0?></g></svg>