<svg xmlns="http://www.w3.org/2000/svg" xmlns:xlink="http://www.w3.org/1999/xlink" version="1.1" data-diagram-type="CLASS" style="width:475px;height:178px;background:#FFFFFF;" width="475px" height="178px" viewBox="0 0 475 178" zoomAndPan="magnify" preserveAspectRatio="none" contentStyleType="text/css"><?plantuml $version$?><defs/><g><!--class Wwwwwwwwwwwwwwww--><g class="entity" data-qualified-name="Wwwwwwwwwwwwwwww" id="ent0001" data-source-line="1"><rect x="7" y="7" width="197.4625" height="48" fill="#F1F1F1" style="stroke:#181818;stroke-width:0.5;" rx="2.5" ry="2.5"/><ellipse cx="22" cy="23" rx="11" ry="11" fill="#ADD1B2" style="stroke:#181818;stroke-width:1;"/><path d="M24.4731,29.1431 Q23.8921,29.4419 23.2529,29.5913 Q22.6138,29.7407 21.9082,29.7407 Q19.4014,29.7407 18.0815,28.0889 Q16.7617,26.437 16.7617,23.3159 Q16.7617,20.1865 18.0815,18.5347 Q19.4014,16.8828 21.9082,16.8828 Q22.6138,16.8828 23.2612,17.0322 Q23.9087,17.1816 24.4731,17.4805 L24.4731,20.2031 Q23.8423,19.6221 23.2488,19.3523 Q22.6553,19.0825 22.0244,19.0825 Q20.6797,19.0825 19.9949,20.1492 Q19.3101,21.2158 19.3101,23.3159 Q19.3101,25.4077 19.9949,26.4744 Q20.6797,27.541 22.0244,27.541 Q22.6553,27.541 23.2488,27.2712 Q23.8423,27.0015 24.4731,26.4204 Z " fill="#000000"/><text x="36" y="26.8889" fill="#000000" font-size="14" lengthAdjust="spacing" textLength="165.4625" font-family="sans-serif">Wwwwwwwwwwwwwwww</text><line x1="8" y1="39" x2="203.4625" y2="39" style="stroke:#181818;stroke-width:0.5;"/><line x1="8" y1="47" x2="203.4625" y2="47" style="stroke:#181818;stroke-width:0.5;"/></g><!--class Uuuuuuuuuuuuuuuuuuuuuuuu--><g class="entity" data-qualified-name="Uuuuuuuuuuuuuuuuuuuuuuuu" id="ent0002" data-source-line="2"><rect x="239.1" y="7" width="221.2625" height="48" fill="#F1F1F1" style="stroke:#181818;stroke-width:0.5;" rx="2.5" ry="2.5"/><ellipse cx="254.1" cy="23" rx="11" ry="11" fill="#ADD1B2" style="stroke:#181818;stroke-width:1;"/><path d="M256.5731,29.1431 Q255.9921,29.4419 255.3529,29.5913 Q254.7138,29.7407 254.0082,29.7407 Q251.5014,29.7407 250.1815,28.0889 Q248.8617,26.437 248.8617,23.3159 Q248.8617,20.1865 250.1815,18.5347 Q251.5014,16.8828 254.0082,16.8828 Q254.7138,16.8828 255.3612,17.0322 Q256.0087,17.1816 256.5731,17.4805 L256.5731,20.2031 Q255.9423,19.6221 255.3488,19.3523 Q254.7553,19.0825 254.1244,19.0825 Q252.7797,19.0825 252.0949,20.1492 Q251.4101,21.2158 251.4101,23.3159 Q251.4101,25.4077 252.0949,26.4744 Q252.7797,27.541 254.1244,27.541 Q254.7553,27.541 255.3488,27.2712 Q255.9423,27.0015 256.5731,26.4204 Z " fill="#000000"/><text x="268.1" y="26.8889" fill="#000000" font-size="14" lengthAdjust="spacing" textLength="189.2625" font-family="sans-serif">Uuuuuuuuuuuuuuuuuuuuuuuu</text><line x1="240.1" y1="39" x2="459.3625" y2="39" style="stroke:#181818;stroke-width:0.5;"/><line x1="240.1" y1="47" x2="459.3625" y2="47" style="stroke:#181818;stroke-width:0.5;"/></g><!--class iiiiii--><g class="entity" data-qualified-name="iiiiii" id="ent0003" data-source-line="3"><rect x="80.28" y="115" width="50.9" height="48" fill="#F1F1F1" style="stroke:#181818;stroke-width:0.5;" rx="2.5" ry="2.5"/><ellipse cx="95.28" cy="131" rx="11" ry="11" fill="#ADD1B2" style="stroke:#181818;stroke-width:1;"/><path d="M97.7531,137.1431 Q97.1721,137.4419 96.5329,137.5913 Q95.8938,137.7407 95.1882,137.7407 Q92.6814,137.7407 91.3615,136.0889 Q90.0417,134.437 90.0417,131.3159 Q90.0417,128.1865 91.3615,126.5347 Q92.6814,124.8828 95.1882,124.8828 Q95.8938,124.8828 96.5412,125.0322 Q97.1887,125.1816 97.7531,125.4805 L97.7531,128.2031 Q97.1223,127.6221 96.5288,127.3523 Q95.9353,127.0825 95.3044,127.0825 Q93.9597,127.0825 93.2749,128.1492 Q92.5901,129.2158 92.5901,131.3159 Q92.5901,133.4077 93.2749,134.4744 Q93.9597,135.541 95.3044,135.541 Q95.9353,135.541 96.5288,135.2712 Q97.1223,135.0015 97.7531,134.4204 Z " fill="#000000"/><text x="109.28" y="134.8889" fill="#000000" font-size="14" lengthAdjust="spacing" textLength="18.9" font-family="sans-serif">iiiiii</text><line x1="81.28" y1="147" x2="130.18" y2="147" style="stroke:#181818;stroke-width:0.5;"/><line x1="81.28" y1="155" x2="130.18" y2="155" style="stroke:#181818;stroke-width:0.5;"/></g><!--class Licensing--><g class="entity" data-qualified-name="Licensing" id="ent0004" data-source-line="4"><rect x="166.11" y="115" width="91.2375" height="48" fill="#F1F1F1" style="stroke:#181818;stroke-width:0.5;" rx="2.5" ry="2.5"/><ellipse cx="181.11" cy="131" rx="11" ry="11" fill="#ADD1B2" style="stroke:#181818;stroke-width:1;"/><path d="M183.5831,137.1431 Q183.0021,137.4419 182.3629,137.5913 Q181.7238,137.7407 181.0182,137.7407 Q178.5114,137.7407 177.1915,136.0889 Q175.8717,134.437 175.8717,131.3159 Q175.8717,128.1865 177.1915,126.5347 Q178.5114,124.8828 181.0182,124.8828 Q181.7238,124.8828 182.3712,125.0322 Q183.0187,125.1816 183.5831,125.4805 L183.5831,128.2031 Q182.9523,127.6221 182.3588,127.3523 Q181.7653,127.0825 181.1344,127.0825 Q179.7897,127.0825 179.1049,128.1492 Q178.4201,129.2158 178.4201,131.3159 Q178.4201,133.4077 179.1049,134.4744 Q179.7897,135.541 181.1344,135.541 Q181.7653,135.541 182.3588,135.2712 Q182.9523,135.0015 183.5831,134.4204 Z " fill="#000000"/><text x="195.11" y="134.8889" fill="#000000" font-size="14" lengthAdjust="spacing" textLength="59.2375" font-family="sans-serif">Licensing</text><line x1="167.11" y1="147" x2="256.3475" y2="147" style="stroke:#181818;stroke-width:0.5;"/><line x1="167.11" y1="155" x2="256.3475" y2="155" style="stroke:#181818;stroke-width:0.5;"/></g><?plantuml-src Iyv9B2vM22z71Lp9OE7GKkm0Afq91b2EJsPoQbvnPbuw0000?></g></svg>