<svg xmlns="http://www.w3.org/2000/svg" xmlns:xlink="http://www.w3.org/1999/xlink" version="1.1" data-diagram-type="STATE" style="width:339px;height:301px;background:#FFFFFF;" width="339px" height="301px" viewBox="0 0 339 301" zoomAndPan="magnify" preserveAspectRatio="none" contentStyleType="text/css"><?plantuml $version$?><defs/><g><g class="entity" data-qualified-name="State1" id="ent0001" data-source-line="2"><path d="M19.5,7 L135.6025,7 A12.5,12.5 0 0 1 148.1025,19.5 L148.1025,31 L7,31 L7,19.5 A12.5,12.5 0 0 1 19.5,7" fill="#F1F1F1"/><rect x="7" y="7" width="141.1025" height="280" fill="none" style="stroke:#181818;stroke-width:0.5;" rx="12.5" ry="12.5"/><line x1="7" y1="31" x2="148.1025" y2="31" style="stroke:#181818;stroke-width:0.5;"/><text x="57.3388" y="22.8889" fill="#000000" font-size="14" lengthAdjust="spacing" textLength="40.425" font-family="sans-serif">State1</text><g class="start_entity" data-qualified-name="State1..start.State1" id="ent0005" data-source-line="3"><ellipse cx="28" cy="68" rx="10" ry="10" fill="#222222" style="stroke:#222222;stroke-width:1;"/></g><g class="entity" data-qualified-name="State1.State1a" id="ent0006" data-source-line="3"><rect x="55.89" y="43" width="68.2125" height="50" fill="#F1F1F1" style="stroke:#181818;stroke-width:0.5;" rx="12.5" ry="12.5"/><line x1="55.89" y1="67" x2="124.1025" y2="67" style="stroke:#181818;stroke-width:0.5;"/><text x="65.89" y="58.8889" fill="#000000" font-size="14" lengthAdjust="spacing" textLength="48.2125" font-family="sans-serif">State1a</text></g><g class="end_entity" data-qualified-name="State1..end.State1" id="ent0008" data-source-line="4"><ellipse cx="90" cy="140" rx="11" ry="11" fill="none" style="stroke:#222222;stroke-width:1;"/><ellipse cx="90" cy="140" rx="6" ry="6" fill="#222222" style="stroke:#222222;stroke-width:1;"/></g><!--link *start*State1 to State1a--><g class="link" data-entity-1="ent0005" data-entity-2="ent0006" id="lnk7" data-source-line="3" data-link-type="dependency"><path d="M38.17,68 C43.98,68 44.78,68 50.58,68" style="stroke:#181818;stroke-width:1;" fill="none" id="*start*State1-to-State1a"/><polygon points="55.58,68,46.58,64,50.58,68,46.58,72,55.58,68" fill="#181818" style="stroke:#181818;stroke-width:1;stroke-linejoin:miter;stroke-miterlimit:10;"/></g><!--link State1a to *end*State1--><g class="link" data-entity-1="ent0006" data-entity-2="ent0008" id="lnk9" data-source-line="4" data-link-type="dependency"><path d="M90,93.48 C90,105.47 90,114.27 90,123.5" style="stroke:#181818;stroke-width:1;" fill="none" id="State1a-to-*end*State1"/><polygon points="90,128.5,94,119.5,90,123.5,86,119.5,90,128.5" fill="#181818" style="stroke:#181818;stroke-width:1;stroke-linejoin:miter;stroke-miterlimit:10;"/></g><line x1="12" y1="159" x2="141.1025" y2="159" style="stroke:#181818;stroke-width:1.5;stroke-dasharray:8,10;"/><g class="start_entity" data-qualified-name="State1.CONC1..start.CONC1" id="ent0010" data-source-line="6"><ellipse cx="28" cy="191" rx="10" ry="10" fill="#222222" style="stroke:#222222;stroke-width:1;"/></g><g class="entity" data-qualified-name="State1.CONC1.State1b" id="ent0011" data-source-line="6"><rect x="55.89" y="166" width="68.2125" height="50" fill="#F1F1F1" style="stroke:#181818;stroke-width:0.5;" rx="12.5" ry="12.5"/><line x1="55.89" y1="190" x2="124.1025" y2="190" style="stroke:#181818;stroke-width:0.5;"/><text x="65.89" y="181.8889" fill="#000000" font-size="14" lengthAdjust="spacing" textLength="48.2125" font-family="sans-serif">State1b</text></g><g class="end_entity" data-qualified-name="State1.CONC1..end.CONC1" id="ent0013" data-source-line="7"><ellipse cx="90" cy="263" rx="11" ry="11" fill="none" style="stroke:#222222;stroke-width:1;"/><ellipse cx="90" cy="263" rx="6" ry="6" fill="#222222" style="stroke:#222222;stroke-width:1;"/></g><!--link *start*CONC1 to State1b--><g class="link" data-entity-1="ent0010" data-entity-2="ent0011" id="lnk12" data-source-line="6" data-link-type="dependency"><path d="M38.17,191 C43.98,191 44.78,191 50.58,191" style="stroke:#181818;stroke-width:1;" fill="none" id="*start*CONC1-to-State1b"/><polygon points="55.58,191,46.58,187,50.58,191,46.58,195,55.58,191" fill="#181818" style="stroke:#181818;stroke-width:1;stroke-linejoin:miter;stroke-miterlimit:10;"/></g><!--link State1b to *end*CONC1--><g class="link" data-entity-1="ent0011" data-entity-2="ent0013" id="lnk14" data-source-line="7" data-link-type="dependency"><path d="M90,216.48 C90,228.47 90,237.27 90,246.5" style="stroke:#181818;stroke-width:1;" fill="none" id="State1b-to-*end*CONC1"/><polygon points="90,251.5,94,242.5,90,246.5,86,242.5,90,251.5" fill="#181818" style="stroke:#181818;stroke-width:1;stroke-linejoin:miter;stroke-miterlimit:10;"/></g></g><g class="entity" data-qualified-name="State2" id="ent0003" data-source-line="10"><path d="M195.5,7 L311.6025,7 A12.5,12.5 0 0 1 324.1025,19.5 L324.1025,31 L183,31 L183,19.5 A12.5,12.5 0 0 1 195.5,7" fill="#F1F1F1"/><rect x="183" y="7" width="141.1025" height="280" fill="none" style="stroke:#181818;stroke-width:0.5;" rx="12.5" ry="12.5"/><line x1="183" y1="31" x2="324.1025" y2="31" style="stroke:#181818;stroke-width:0.5;"/><text x="233.3388" y="22.8889" fill="#000000" font-size="14" lengthAdjust="spacing" textLength="40.425" font-family="sans-serif">State2</text><g class="start_entity" data-qualified-name="State2..start.State2" id="ent0015" data-source-line="11"><ellipse cx="204" cy="68" rx="10" ry="10" fill="#222222" style="stroke:#222222;stroke-width:1;"/></g><g class="entity" data-qualified-name="State2.State2a" id="ent0016" data-source-line="11"><rect x="231.89" y="43" width="68.2125" height="50" fill="#F1F1F1" style="stroke:#181818;stroke-width:0.5;" rx="12.5" ry="12.5"/><line x1="231.89" y1="67" x2="300.1025" y2="67" style="stroke:#181818;stroke-width:0.5;"/><text x="241.89" y="58.8889" fill="#000000" font-size="14" lengthAdjust="spacing" textLength="48.2125" font-family="sans-serif">State2a</text></g><g class="end_entity" data-qualified-name="State2..end.State2" id="ent0018" data-source-line="12"><ellipse cx="266" cy="140" rx="11" ry="11" fill="none" style="stroke:#222222;stroke-width:1;"/><ellipse cx="266" cy="140" rx="6" ry="6" fill="#222222" style="stroke:#222222;stroke-width:1;"/></g><!--link *start*State2 to State2a--><g class="link" data-entity-1="ent0015" data-entity-2="ent0016" id="lnk17" data-source-line="11" data-link-type="dependency"><path d="M214.17,68 C219.98,68 220.78,68 226.58,68" style="stroke:#181818;stroke-width:1;" fill="none" id="*start*State2-to-State2a"/><polygon points="231.58,68,222.58,64,226.58,68,222.58,72,231.58,68" fill="#181818" style="stroke:#181818;stroke-width:1;stroke-linejoin:miter;stroke-miterlimit:10;"/></g><!--link State2a to *end*State2--><g class="link" data-entity-1="ent0016" data-entity-2="ent0018" id="lnk19" data-source-line="12" data-link-type="dependency"><path d="M266,93.48 C266,105.47 266,114.27 266,123.5" style="stroke:#181818;stroke-width:1;" fill="none" id="State2a-to-*end*State2"/><polygon points="266,128.5,270,119.5,266,123.5,262,119.5,266,128.5" fill="#181818" style="stroke:#181818;stroke-width:1;stroke-linejoin:miter;stroke-miterlimit:10;"/></g><line x1="188" y1="159" x2="317.1025" y2="159" style="stroke:#181818;stroke-width:1.5;stroke-dasharray:8,10;"/><g class="start_entity" data-qualified-name="State2.CONC2..start.CONC2" id="ent0020" data-source-line="14"><ellipse cx="204" cy="191" rx="10" ry="10" fill="#222222" style="stroke:#222222;stroke-width:1;"/></g><g class="entity" data-qualified-name="State2.CONC2.State2b" id="ent0021" data-source-line="14"><rect x="231.89" y="166" width="68.2125" height="50" fill="#F1F1F1" style="stroke:#181818;stroke-width:0.5;" rx="12.5" ry="12.5"/><line x1="231.89" y1="190" x2="300.1025" y2="190" style="stroke:#181818;stroke-width:0.5;"/><text x="241.89" y="181.8889" fill="#000000" font-size="14" lengthAdjust="spacing" textLength="48.2125" font-family="sans-serif">State2b</text></g><g class="end_entity" data-qualified-name="State2.CONC2..end.CONC2" id="ent0023" data-source-line="15"><ellipse cx="266" cy="263" rx="11" ry="11" fill="none" style="stroke:#222222;stroke-width:1;"/><ellipse cx="266" cy="263" rx="6" ry="6" fill="#222222" style="stroke:#222222;stroke-width:1;"/></g><!--link *start*CONC2 to State2b--><g class="link" data-entity-1="ent0020" data-entity-2="ent0021" id="lnk22" data-source-line="14" data-link-type="dependency"><path d="M214.17,191 C219.98,191 220.78,191 226.58,191" style="stroke:#181818;stroke-width:1;" fill="none" id="*start*CONC2-to-State2b"/><polygon points="231.58,191,222.58,187,226.58,191,222.58,195,231.58,191" fill="#181818" style="stroke:#181818;stroke-width:1;stroke-linejoin:miter;stroke-miterlimit:10;"/></g><!--link State2b to *end*CONC2--><g class="link" data-entity-1="ent0021" data-entity-2="ent0023" id="lnk24" data-source-line="15" data-link-type="dependency"><path d="M266,216.48 C266,228.47 266,237.27 266,246.5" style="stroke:#181818;stroke-width:1;" fill="none" id="State2b-to-*end*CONC2"/><polygon points="266,251.5,270,242.5,266,246.5,262,242.5,266,251.5" fill="#181818" style="stroke:#181818;stroke-width:1;stroke-linejoin:miter;stroke-miterlimit:10;"/></g></g><?plantuml-src Aov9B4bL20QHXWhLN0eA2j5QiGgwTb2XH908bAcW2nG6oOB4T7Knr2OXr2OXrDPoSHKZx332jCC8OOSH8JkC47OO8Ti10000?></g></svg>