<svg xmlns="http://www.w3.org/2000/svg" xmlns:xlink="http://www.w3.org/1999/xlink" version="1.1" data-diagram-type="CLASS" style="width:84px;height:72px;background:#FFFFFF;" width="84px" height="72px" viewBox="0 0 84 72" zoomAndPan="magnify" preserveAspectRatio="none" contentStyleType="text/css"><?plantuml $version$?><defs/><g><!--class Toto--><g class="entity" data-qualified-name="Toto" id="ent0001" data-source-line="2"><rect x="7" y="7" width="64" height="52" fill="#F1F1F1" style="stroke:#181818;stroke-width:0.5;" rx="2.5" ry="2.5"/><ellipse cx="24" cy="25" rx="13" ry="13" fill="#ADD1B2" style="stroke:#181818;stroke-width:1;"/><path d="M27.0845,32.3091 Q26.3667,32.6782 25.5771,32.8628 Q24.7876,33.0474 23.916,33.0474 Q20.8193,33.0474 19.189,31.0068 Q17.5586,28.9663 17.5586,25.1108 Q17.5586,21.2451 19.189,19.2046 Q20.8193,17.1641 23.916,17.1641 Q24.7876,17.1641 25.5874,17.3486 Q26.3872,17.5332 27.0845,17.9023 L27.0845,21.2656 Q26.3052,20.5479 25.572,20.2146 Q24.8389,19.8813 24.0596,19.8813 Q22.3984,19.8813 21.5525,21.199 Q20.7065,22.5166 20.7065,25.1108 Q20.7065,27.6948 21.5525,29.0125 Q22.3984,30.3301 24.0596,30.3301 Q24.8389,30.3301 25.572,29.9968 Q26.3052,29.6636 27.0845,28.9458 Z " fill="#000000"/><text x="40" y="28.8889" fill="#000000" font-size="14" lengthAdjust="spacing" textLength="28" font-family="sans-serif">Toto</text><line x1="8" y1="43" x2="70" y2="43" style="stroke:#181818;stroke-width:0.5;"/><line x1="8" y1="51" x2="70" y2="51" style="stroke:#181818;stroke-width:0.5;"/></g><?plantuml-src AyxEp2j8B4hCLN3EB4hEIKrnpW3oaajIYzpoyqg2CwjI5OmCkP9p4ekB5KBoI_81?></g></svg>