<svg xmlns="http://www.w3.org/2000/svg" xmlns:xlink="http://www.w3.org/1999/xlink" version="1.1" data-diagram-type="CLASS" style="width:155px;height:178px;background:#FFFFFF;" width="155px" height="178px" viewBox="0 0 155 178" zoomAndPan="magnify" preserveAspectRatio="none" contentStyleType="text/css"><?plantuml $version$?><defs/><g><!--class A0--><g class="entity" data-qualified-name="A0" id="ent0001" data-source-line="2"><rect x="7" y="7" width="49.15" height="48" fill="#F1F1F1" style="stroke:#181818;stroke-width:0.5;" rx="2.5" ry="2.5"/><ellipse cx="22" cy="23" rx="11" ry="11" fill="#ADD1B2" style="stroke:#181818;stroke-width:1;"/><path d="M24.4731,29.1431 Q23.8921,29.4419 23.2529,29.5913 Q22.6138,29.7407 21.9082,29.7407 Q19.4014,29.7407 18.0815,28.0889 Q16.7617,26.437 16.7617,23.3159 Q16.7617,20.1865 18.0815,18.5347 Q19.4014,16.8828 21.9082,16.8828 Q22.6138,16.8828 23.2612,17.0322 Q23.9087,17.1816 24.4731,17.4805 L24.4731,20.2031 Q23.8423,19.6221 23.2488,19.3523 Q22.6553,19.0825 22.0244,19.0825 Q20.6797,19.0825 19.9949,20.1492 Q19.3101,21.2158 19.3101,23.3159 Q19.3101,25.4077 19.9949,26.4744 Q20.6797,27.541 22.0244,27.541 Q22.6553,27.541 23.2488,27.2712 Q23.8423,27.0015 24.4731,26.4204 Z " fill="#000000"/><text x="36" y="26.8889" fill="#000000" font-size="14" lengthAdjust="spacing" textLength="17.15" font-family="sans-serif">A0</text><line x1="8" y1="39" x2="55.15" y2="39" style="stroke:#181818;stroke-width:0.5;"/><line x1="8" y1="47" x2="55.15" y2="47" style="stroke:#181818;stroke-width:0.5;"/></g><!--class B0--><g class="entity" data-qualified-name="B0" id="ent0002" data-source-line="2"><rect x="7" y="115" width="49.15" height="48" fill="#F1F1F1" style="stroke:#181818;stroke-width:0.5;" rx="2.5" ry="2.5"/><ellipse cx="22" cy="131" rx="11" ry="11" fill="#ADD1B2" style="stroke:#181818;stroke-width:1;"/><path d="M24.4731,137.1431 Q23.8921,137.4419 23.2529,137.5913 Q22.6138,137.7407 21.9082,137.7407 Q19.4014,137.7407 18.0815,136.0889 Q16.7617,134.437 16.7617,131.3159 Q16.7617,128.1865 18.0815,126.5347 Q19.4014,124.8828 21.9082,124.8828 Q22.6138,124.8828 23.2612,125.0322 Q23.9087,125.1816 24.4731,125.4805 L24.4731,128.2031 Q23.8423,127.6221 23.2488,127.3523 Q22.6553,127.0825 22.0244,127.0825 Q20.6797,127.0825 19.9949,128.1492 Q19.3101,129.2158 19.3101,131.3159 Q19.3101,133.4077 19.9949,134.4744 Q20.6797,135.541 22.0244,135.541 Q22.6553,135.541 23.2488,135.2712 Q23.8423,135.0015 24.4731,134.4204 Z " fill="#000000"/><text x="36" y="134.8889" fill="#000000" font-size="14" lengthAdjust="spacing" textLength="17.15" font-family="sans-serif">B0</text><line x1="8" y1="147" x2="55.15" y2="147" style="stroke:#181818;stroke-width:0.5;"/><line x1="8" y1="155" x2="55.15" y2="155" style="stroke:#181818;stroke-width:0.5;"/></g><!--class A1--><g class="entity" data-qualified-name="A1" id="ent0004" data-source-line="3"><rect x="91" y="7" width="49.15" height="48" fill="#F1F1F1" style="stroke:#181818;stroke-width:0.5;" rx="2.5" ry="2.5"/><ellipse cx="106" cy="23" rx="11" ry="11" fill="#ADD1B2" style="stroke:#181818;stroke-width:1;"/><path d="M108.4731,29.1431 Q107.8921,29.4419 107.2529,29.5913 Q106.6138,29.7407 105.9082,29.7407 Q103.4014,29.7407 102.0815,28.0889 Q100.7617,26.437 100.7617,23.3159 Q100.7617,20.1865 102.0815,18.5347 Q103.4014,16.8828 105.9082,16.8828 Q106.6138,16.8828 107.2612,17.0322 Q107.9087,17.1816 108.4731,17.4805 L108.4731,20.2031 Q107.8423,19.6221 107.2488,19.3523 Q106.6553,19.0825 106.0244,19.0825 Q104.6797,19.0825 103.9949,20.1492 Q103.3101,21.2158 103.3101,23.3159 Q103.3101,25.4077 103.9949,26.4744 Q104.6797,27.541 106.0244,27.541 Q106.6553,27.541 107.2488,27.2712 Q107.8423,27.0015 108.4731,26.4204 Z " fill="#000000"/><text x="120" y="26.8889" fill="#000000" font-size="14" lengthAdjust="spacing" textLength="17.15" font-family="sans-serif">A1</text><line x1="92" y1="39" x2="139.15" y2="39" style="stroke:#181818;stroke-width:0.5;"/><line x1="92" y1="47" x2="139.15" y2="47" style="stroke:#181818;stroke-width:0.5;"/></g><!--class B1--><g class="entity" data-qualified-name="B1" id="ent0005" data-source-line="3"><rect x="91" y="115" width="49.15" height="48" fill="#F1F1F1" style="stroke:#181818;stroke-width:0.5;" rx="2.5" ry="2.5"/><ellipse cx="106" cy="131" rx="11" ry="11" fill="#ADD1B2" style="stroke:#181818;stroke-width:1;"/><path d="M108.4731,137.1431 Q107.8921,137.4419 107.2529,137.5913 Q106.6138,137.7407 105.9082,137.7407 Q103.4014,137.7407 102.0815,136.0889 Q100.7617,134.437 100.7617,131.3159 Q100.7617,128.1865 102.0815,126.5347 Q103.4014,124.8828 105.9082,124.8828 Q106.6138,124.8828 107.2612,125.0322 Q107.9087,125.1816 108.4731,125.4805 L108.4731,128.2031 Q107.8423,127.6221 107.2488,127.3523 Q106.6553,127.0825 106.0244,127.0825 Q104.6797,127.0825 103.9949,128.1492 Q103.3101,129.2158 103.3101,131.3159 Q103.3101,133.4077 103.9949,134.4744 Q104.6797,135.541 106.0244,135.541 Q106.6553,135.541 107.2488,135.2712 Q107.8423,135.0015 108.4731,134.4204 Z " fill="#000000"/><text x="120" y="134.8889" fill="#000000" font-size="14" lengthAdjust="spacing" textLength="17.15" font-family="sans-serif">B1</text><line x1="92" y1="147" x2="139.15" y2="147" style="stroke:#181818;stroke-width:0.5;"/><line x1="92" y1="155" x2="139.15" y2="155" style="stroke:#181818;stroke-width:0.5;"/></g><!--reverse link A0 to B0--><g class="link" data-entity-1="ent0001" data-entity-2="ent0002" id="lnk3" data-source-line="2" data-link-type="extension"><path d="M31.58,73.26 C31.58,90.94 31.58,97.13 31.58,114.79" style="stroke:#181818;stroke-width:1;" fill="none" id="A0-backto-B0" codeLine="2"/><polygon points="31.58,55.26,25.58,73.26,37.58,73.26,31.58,55.26" fill="none" style="stroke:#181818;stroke-width:1;stroke-linejoin:miter;stroke-miterlimit:10;"/></g><!--reverse link A1 to B1--><g class="link" data-entity-1="ent0004" data-entity-2="ent0005" id="lnk6" data-source-line="3" data-link-type="extension"><path d="M115.58,73.26 C115.58,90.94 115.58,97.13 115.58,114.79" style="stroke:#181818;stroke-width:1;" fill="none" id="A1-backto-B1" codeLine="3"/><polygon points="115.58,55.26,109.58,73.26,121.58,73.26,115.58,55.26" fill="none" style="stroke:#181818;stroke-width:1;stroke-linejoin:miter;stroke-miterlimit:10;"/></g><!--reverse link A0 to B1--><g class="link" data-entity-1="ent0001" data-entity-2="ent0005" id="lnk7" data-source-line="4" data-link-type="extension"><path d="M61.1843,69.3715 C75.1843,87.0515 83.19,97.13 97.18,114.79" style="stroke:#181818;stroke-width:1;" fill="none" id="A0-backto-B1" codeLine="4"/><polygon points="50.01,55.26,56.4804,73.0963,65.8881,65.6468,50.01,55.26" fill="none" style="stroke:#181818;stroke-width:1;stroke-linejoin:miter;stroke-miterlimit:10;"/></g><!--reverse link A1 to B0--><g class="link" data-entity-1="ent0004" data-entity-2="ent0002" id="lnk8" data-source-line="5" data-link-type="extension"><path d="M85.9657,69.3715 C71.9657,87.0515 63.96,97.13 49.97,114.79" style="stroke:#181818;stroke-width:1;" fill="none" id="A1-backto-B0" codeLine="5"/><polygon points="97.14,55.26,81.2619,65.6468,90.6696,73.0963,97.14,55.26" fill="none" style="stroke:#181818;stroke-width:1;stroke-linejoin:miter;stroke-miterlimit:10;"/></g><?plantuml-src SpHGiAdHrLLmCk1oD8Go3RaS3H1CGxW20000?></g></svg>