<svg xmlns="http://www.w3.org/2000/svg" xmlns:xlink="http://www.w3.org/1999/xlink" version="1.1" data-diagram-type="CLASS" style="width:141px;height:286px;" width="141px" height="286px" viewBox="0 0 141 286" zoomAndPan="magnify" preserveAspectRatio="none" contentStyleType="text/css"><?plantuml $version$?><defs/><g><!--class A--><g class="entity" data-qualified-name="A" id="ent0001" data-source-line="2"><rect x="45.39" y="7" width="41.3625" height="48" fill="#F1F1F1" style="stroke:#181818;stroke-width:0.5;" rx="2.5" ry="2.5"/><ellipse cx="60.39" cy="23" rx="11" ry="11" fill="#ADD1B2" style="stroke:#181818;stroke-width:1;"/><path d="M62.8631,29.1431 Q62.2821,29.4419 61.6429,29.5913 Q61.0038,29.7407 60.2982,29.7407 Q57.7914,29.7407 56.4715,28.0889 Q55.1517,26.437 55.1517,23.3159 Q55.1517,20.1865 56.4715,18.5347 Q57.7914,16.8828 60.2982,16.8828 Q61.0038,16.8828 61.6512,17.0322 Q62.2987,17.1816 62.8631,17.4805 L62.8631,20.2031 Q62.2323,19.6221 61.6388,19.3523 Q61.0453,19.0825 60.4144,19.0825 Q59.0697,19.0825 58.3849,20.1492 Q57.7001,21.2158 57.7001,23.3159 Q57.7001,25.4077 58.3849,26.4744 Q59.0697,27.541 60.4144,27.541 Q61.0453,27.541 61.6388,27.2712 Q62.2323,27.0015 62.8631,26.4204 Z " fill="#000000"/><text x="74.39" y="26.8889" fill="#000000" font-size="14" lengthAdjust="spacing" textLength="9.3625" font-family="sans-serif">A</text><line x1="46.39" y1="39" x2="85.7525" y2="39" style="stroke:#181818;stroke-width:0.5;"/><line x1="46.39" y1="47" x2="85.7525" y2="47" style="stroke:#181818;stroke-width:0.5;"/></g><!--class B--><g class="entity" data-qualified-name="B" id="ent0002" data-source-line="2"><rect x="7.39" y="115" width="41.3625" height="48" fill="#F1F1F1" style="stroke:#181818;stroke-width:0.5;" rx="2.5" ry="2.5"/><ellipse cx="22.39" cy="131" rx="11" ry="11" fill="#ADD1B2" style="stroke:#181818;stroke-width:1;"/><path d="M24.8631,137.1431 Q24.2821,137.4419 23.6429,137.5913 Q23.0038,137.7407 22.2982,137.7407 Q19.7914,137.7407 18.4715,136.0889 Q17.1517,134.437 17.1517,131.3159 Q17.1517,128.1865 18.4715,126.5347 Q19.7914,124.8828 22.2982,124.8828 Q23.0038,124.8828 23.6512,125.0322 Q24.2987,125.1816 24.8631,125.4805 L24.8631,128.2031 Q24.2323,127.6221 23.6388,127.3523 Q23.0453,127.0825 22.4144,127.0825 Q21.0697,127.0825 20.3849,128.1492 Q19.7001,129.2158 19.7001,131.3159 Q19.7001,133.4077 20.3849,134.4744 Q21.0697,135.541 22.4144,135.541 Q23.0453,135.541 23.6388,135.2712 Q24.2323,135.0015 24.8631,134.4204 Z " fill="#000000"/><text x="36.39" y="134.8889" fill="#000000" font-size="14" lengthAdjust="spacing" textLength="9.3625" font-family="sans-serif">B</text><line x1="8.39" y1="147" x2="47.7525" y2="147" style="stroke:#181818;stroke-width:0.5;"/><line x1="8.39" y1="155" x2="47.7525" y2="155" style="stroke:#181818;stroke-width:0.5;"/></g><!--class C--><g class="entity" data-qualified-name="C" id="ent0004" data-source-line="3"><rect x="84" y="115" width="42.15" height="48" fill="#F1F1F1" style="stroke:#181818;stroke-width:0.5;" rx="2.5" ry="2.5"/><ellipse cx="99" cy="131" rx="11" ry="11" fill="#ADD1B2" style="stroke:#181818;stroke-width:1;"/><path d="M101.4731,137.1431 Q100.8921,137.4419 100.2529,137.5913 Q99.6138,137.7407 98.9082,137.7407 Q96.4014,137.7407 95.0815,136.0889 Q93.7617,134.437 93.7617,131.3159 Q93.7617,128.1865 95.0815,126.5347 Q96.4014,124.8828 98.9082,124.8828 Q99.6138,124.8828 100.2612,125.0322 Q100.9087,125.1816 101.4731,125.4805 L101.4731,128.2031 Q100.8423,127.6221 100.2488,127.3523 Q99.6553,127.0825 99.0244,127.0825 Q97.6797,127.0825 96.9949,128.1492 Q96.3101,129.2158 96.3101,131.3159 Q96.3101,133.4077 96.9949,134.4744 Q97.6797,135.541 99.0244,135.541 Q99.6553,135.541 100.2488,135.2712 Q100.8423,135.0015 101.4731,134.4204 Z " fill="#000000"/><text x="113" y="134.8889" fill="#000000" font-size="14" lengthAdjust="spacing" textLength="10.15" font-family="sans-serif">C</text><line x1="85" y1="147" x2="125.15" y2="147" style="stroke:#181818;stroke-width:0.5;"/><line x1="85" y1="155" x2="125.15" y2="155" style="stroke:#181818;stroke-width:0.5;"/></g><!--class D--><g class="entity" data-qualified-name="D" id="ent0006" data-source-line="5"><rect x="7" y="223" width="42.15" height="48" fill="#F1F1F1" style="stroke:#181818;stroke-width:0.5;" rx="2.5" ry="2.5"/><ellipse cx="22" cy="239" rx="11" ry="11" fill="#ADD1B2" style="stroke:#181818;stroke-width:1;"/><path d="M24.4731,245.1431 Q23.8921,245.4419 23.2529,245.5913 Q22.6138,245.7407 21.9082,245.7407 Q19.4014,245.7407 18.0815,244.0889 Q16.7617,242.437 16.7617,239.3159 Q16.7617,236.1865 18.0815,234.5347 Q19.4014,232.8828 21.9082,232.8828 Q22.6138,232.8828 23.2612,233.0322 Q23.9087,233.1816 24.4731,233.4805 L24.4731,236.2031 Q23.8423,235.6221 23.2488,235.3523 Q22.6553,235.0825 22.0244,235.0825 Q20.6797,235.0825 19.9949,236.1492 Q19.3101,237.2158 19.3101,239.3159 Q19.3101,241.4077 19.9949,242.4744 Q20.6797,243.541 22.0244,243.541 Q22.6553,243.541 23.2488,243.2712 Q23.8423,243.0015 24.4731,242.4204 Z " fill="#000000"/><text x="36" y="242.8889" fill="#000000" font-size="14" lengthAdjust="spacing" textLength="10.15" font-family="sans-serif">D</text><line x1="8" y1="255" x2="48.15" y2="255" style="stroke:#181818;stroke-width:0.5;"/><line x1="8" y1="263" x2="48.15" y2="263" style="stroke:#181818;stroke-width:0.5;"/></g><!--reverse link A to B--><g class="link" data-entity-1="ent0001" data-entity-2="ent0002" id="lnk3" data-source-line="2" data-link-type="extension"><path d="M51.6641,72.2035 C45.3241,89.8835 42.73,97.13 36.39,114.79" style="stroke:#181818;stroke-width:1;" fill="none" id="A-backto-B" codeLine="2"/><polygon points="57.74,55.26,46.0162,70.1782,57.3119,74.2288,57.74,55.26" fill="none" style="stroke:#181818;stroke-width:1;stroke-linejoin:miter;stroke-miterlimit:10;"/></g><!--reverse link A to C--><g class="link" data-entity-1="ent0001" data-entity-2="ent0004" id="lnk5" data-source-line="3" data-link-type="extension"><path d="M80.8496,72.1513 C87.3596,89.8313 90.04,97.13 96.54,114.79" style="stroke:#181818;stroke-width:1;" fill="none" id="A-backto-C" codeLine="3"/><polygon points="74.63,55.26,75.2192,74.2245,86.48,70.0781,74.63,55.26" fill="none" style="stroke:#181818;stroke-width:1;stroke-linejoin:miter;stroke-miterlimit:10;"/></g><!--reverse link B to D--><g class="link" data-entity-1="ent0002" data-entity-2="ent0006" id="lnk7" data-source-line="5" data-link-type="extension"><path d="M28.08,181.26 C28.08,198.94 28.08,205.13 28.08,222.79" style="stroke:#181818;stroke-width:1;" fill="none" id="B-backto-D" codeLine="5"/><polygon points="28.08,163.26,22.08,181.26,34.08,181.26,28.08,163.26" fill="none" style="stroke:#181818;stroke-width:1;stroke-linejoin:miter;stroke-miterlimit:10;"/></g><?plantuml-src AyxEp2j8B4hCLKXAJCvEByelpKj9pi_9Br8eAKhCAmPAfUQLS3agsDJewYeumHZEN5nE49OB0000?></g></svg>