<svg xmlns="http://www.w3.org/2000/svg" xmlns:xlink="http://www.w3.org/1999/xlink" version="1.1" data-diagram-type="CLASS" style="width:404px;height:245px;background:#FFFFFF;" width="404px" height="245px" viewBox="0 0 404 245" zoomAndPan="magnify" preserveAspectRatio="none" contentStyleType="text/css"><?plantuml $version$?><defs/><g><g class="header" data-source-line="13"><text x="0" y="7.7778" fill="#888888" font-size="10" lengthAdjust="spacing" textLength="47.3125" font-family="sans-serif">this is a long</text><text x="16.1875" y="17.7778" fill="#888888" font-size="10" lengthAdjust="spacing" textLength="31.125" font-weight="700" font-family="sans-serif">header</text></g><g class="title" data-source-line="2"><text x="171.1825" y="41.8889" fill="#000000" font-size="14" lengthAdjust="spacing" textLength="55.2125" font-weight="700" font-family="sans-serif">Mon Titre</text></g><!--class List--><g class="entity" data-qualified-name="List" id="ent0001" data-source-line="4"><rect x="32.64" y="63" width="53.7875" height="48" fill="#F1F1F1" style="stroke:#181818;stroke-width:0.5;" rx="2.5" ry="2.5"/><ellipse cx="47.64" cy="79" rx="11" ry="11" fill="#ADD1B2" style="stroke:#181818;stroke-width:1;"/><path d="M50.1131,85.1431 Q49.5321,85.4419 48.8929,85.5913 Q48.2538,85.7407 47.5482,85.7407 Q45.0414,85.7407 43.7215,84.0889 Q42.4017,82.437 42.4017,79.3159 Q42.4017,76.1865 43.7215,74.5347 Q45.0414,72.8828 47.5482,72.8828 Q48.2538,72.8828 48.9012,73.0322 Q49.5487,73.1816 50.1131,73.4805 L50.1131,76.2031 Q49.4823,75.6221 48.8888,75.3523 Q48.2953,75.0825 47.6644,75.0825 Q46.3197,75.0825 45.6349,76.1492 Q44.9501,77.2158 44.9501,79.3159 Q44.9501,81.4077 45.6349,82.4744 Q46.3197,83.541 47.6644,83.541 Q48.2953,83.541 48.8888,83.2712 Q49.4823,83.0015 50.1131,82.4204 Z " fill="#000000"/><text x="61.64" y="82.8889" fill="#000000" font-size="14" lengthAdjust="spacing" textLength="21.7875" font-family="sans-serif">List</text><line x1="33.64" y1="95" x2="85.4275" y2="95" style="stroke:#181818;stroke-width:0.5;"/><line x1="33.64" y1="103" x2="85.4275" y2="103" style="stroke:#181818;stroke-width:0.5;"/></g><!--class AbstractList--><g class="entity" data-qualified-name="AbstractList" id="ent0002" data-source-line="4"><rect x="7" y="171" width="105.0625" height="48" fill="#F1F1F1" style="stroke:#181818;stroke-width:0.5;" rx="2.5" ry="2.5"/><ellipse cx="22" cy="187" rx="11" ry="11" fill="#ADD1B2" style="stroke:#181818;stroke-width:1;"/><path d="M24.4731,193.1431 Q23.8921,193.4419 23.2529,193.5913 Q22.6138,193.7407 21.9082,193.7407 Q19.4014,193.7407 18.0815,192.0889 Q16.7617,190.437 16.7617,187.3159 Q16.7617,184.1865 18.0815,182.5347 Q19.4014,180.8828 21.9082,180.8828 Q22.6138,180.8828 23.2612,181.0322 Q23.9087,181.1816 24.4731,181.4805 L24.4731,184.2031 Q23.8423,183.6221 23.2488,183.3523 Q22.6553,183.0825 22.0244,183.0825 Q20.6797,183.0825 19.9949,184.1492 Q19.3101,185.2158 19.3101,187.3159 Q19.3101,189.4077 19.9949,190.4744 Q20.6797,191.541 22.0244,191.541 Q22.6553,191.541 23.2488,191.2712 Q23.8423,191.0015 24.4731,190.4204 Z " fill="#000000"/><text x="36" y="190.8889" fill="#000000" font-size="14" lengthAdjust="spacing" textLength="73.0625" font-family="sans-serif">AbstractList</text><line x1="8" y1="203" x2="111.0625" y2="203" style="stroke:#181818;stroke-width:0.5;"/><line x1="8" y1="211" x2="111.0625" y2="211" style="stroke:#181818;stroke-width:0.5;"/></g><!--class Collection--><g class="entity" data-qualified-name="Collection" id="ent0004" data-source-line="5"><rect x="172.73" y="63" width="93.6" height="48" fill="#F1F1F1" style="stroke:#181818;stroke-width:0.5;" rx="2.5" ry="2.5"/><ellipse cx="187.73" cy="79" rx="11" ry="11" fill="#ADD1B2" style="stroke:#181818;stroke-width:1;"/><path d="M190.2031,85.1431 Q189.6221,85.4419 188.9829,85.5913 Q188.3438,85.7407 187.6382,85.7407 Q185.1314,85.7407 183.8115,84.0889 Q182.4917,82.437 182.4917,79.3159 Q182.4917,76.1865 183.8115,74.5347 Q185.1314,72.8828 187.6382,72.8828 Q188.3438,72.8828 188.9912,73.0322 Q189.6387,73.1816 190.2031,73.4805 L190.2031,76.2031 Q189.5723,75.6221 188.9788,75.3523 Q188.3853,75.0825 187.7544,75.0825 Q186.4097,75.0825 185.7249,76.1492 Q185.0401,77.2158 185.0401,79.3159 Q185.0401,81.4077 185.7249,82.4744 Q186.4097,83.541 187.7544,83.541 Q188.3853,83.541 188.9788,83.2712 Q189.5723,83.0015 190.2031,82.4204 Z " fill="#000000"/><text x="201.73" y="82.8889" fill="#000000" font-size="14" lengthAdjust="spacing" textLength="61.6" font-family="sans-serif">Collection</text><line x1="173.73" y1="95" x2="265.33" y2="95" style="stroke:#181818;stroke-width:0.5;"/><line x1="173.73" y1="103" x2="265.33" y2="103" style="stroke:#181818;stroke-width:0.5;"/></g><!--class AbstractCollection--><g class="entity" data-qualified-name="AbstractCollection" id="ent0005" data-source-line="5"><rect x="147.09" y="171" width="144.875" height="48" fill="#F1F1F1" style="stroke:#181818;stroke-width:0.5;" rx="2.5" ry="2.5"/><ellipse cx="162.09" cy="187" rx="11" ry="11" fill="#ADD1B2" style="stroke:#181818;stroke-width:1;"/><path d="M164.5631,193.1431 Q163.9821,193.4419 163.3429,193.5913 Q162.7038,193.7407 161.9982,193.7407 Q159.4914,193.7407 158.1715,192.0889 Q156.8517,190.437 156.8517,187.3159 Q156.8517,184.1865 158.1715,182.5347 Q159.4914,180.8828 161.9982,180.8828 Q162.7038,180.8828 163.3512,181.0322 Q163.9987,181.1816 164.5631,181.4805 L164.5631,184.2031 Q163.9323,183.6221 163.3388,183.3523 Q162.7453,183.0825 162.1144,183.0825 Q160.7697,183.0825 160.0849,184.1492 Q159.4001,185.2158 159.4001,187.3159 Q159.4001,189.4077 160.0849,190.4744 Q160.7697,191.541 162.1144,191.541 Q162.7453,191.541 163.3388,191.2712 Q163.9323,191.0015 164.5631,190.4204 Z " fill="#000000"/><text x="176.09" y="190.8889" fill="#000000" font-size="14" lengthAdjust="spacing" textLength="112.875" font-family="sans-serif">AbstractCollection</text><line x1="148.09" y1="203" x2="290.965" y2="203" style="stroke:#181818;stroke-width:0.5;"/><line x1="148.09" y1="211" x2="290.965" y2="211" style="stroke:#181818;stroke-width:0.5;"/></g><!--class TimeUnit--><g class="entity" data-qualified-name="TimeUnit" id="ent0007" data-source-line="7"><rect x="301.49" y="63" width="88.0875" height="48" fill="#F1F1F1" style="stroke:#181818;stroke-width:0.5;" rx="2.5" ry="2.5"/><ellipse cx="316.49" cy="79" rx="11" ry="11" fill="#EB937F" style="stroke:#181818;stroke-width:1;"/><path d="M320.1043,85.5 L312.3845,85.5 L312.3845,73.1069 L320.1043,73.1069 L320.1043,75.2651 L314.8333,75.2651 L314.8333,77.938 L319.6062,77.938 L319.6062,80.0962 L314.8333,80.0962 L314.8333,83.3418 L320.1043,83.3418 Z " fill="#000000"/><text x="330.49" y="82.8889" fill="#000000" font-size="14" lengthAdjust="spacing" textLength="56.0875" font-family="sans-serif">TimeUnit</text><line x1="302.49" y1="95" x2="388.5775" y2="95" style="stroke:#181818;stroke-width:0.5;"/><line x1="302.49" y1="103" x2="388.5775" y2="103" style="stroke:#181818;stroke-width:0.5;"/></g><!--reverse link List to AbstractList--><g class="link" data-entity-1="ent0001" data-entity-2="ent0002" id="lnk3" data-source-line="4" data-link-type="extension"><path d="M59.53,129.26 C59.53,146.94 59.53,153.13 59.53,170.79" style="stroke:#181818;stroke-width:1;" fill="none" id="List-backto-AbstractList" codeLine="4"/><polygon points="59.53,111.26,53.53,129.26,65.53,129.26,59.53,111.26" fill="none" style="stroke:#181818;stroke-width:1;stroke-linejoin:miter;stroke-miterlimit:10;"/></g><!--reverse link Collection to AbstractCollection--><g class="link" data-entity-1="ent0004" data-entity-2="ent0005" id="lnk6" data-source-line="5" data-link-type="extension"><path d="M219.53,129.26 C219.53,146.94 219.53,153.13 219.53,170.79" style="stroke:#181818;stroke-width:1;" fill="none" id="Collection-backto-AbstractCollection" codeLine="5"/><polygon points="219.53,111.26,213.53,129.26,225.53,129.26,219.53,111.26" fill="none" style="stroke:#181818;stroke-width:1;stroke-linejoin:miter;stroke-miterlimit:10;"/></g><g class="footer" data-source-line="9"><text x="0" y="235.7778" fill="#888888" font-size="10" lengthAdjust="spacing" textLength="53.875" font-family="sans-serif">this is a footer</text></g><?plantuml-src LOn12iCm30JlUeK-4Fe14oYzjhVs0NQYD0970djxw-Fha8GIq66PdHKKMVZXnaz54QAxLd3uTXrVKqM90rP2DyzP1cWJJ-MV4ubzblPcaPSfYB9CuCaTKWYpLcuN3o0sxcdpPedZoSjkRmgftufmIVswERmV?></g></svg>