<svg xmlns="http://www.w3.org/2000/svg" xmlns:xlink="http://www.w3.org/1999/xlink" version="1.1" data-diagram-type="DESCRIPTION" style="width:139px;height:168px;background:#98FB98;" width="139px" height="168px" viewBox="0 0 139 168" zoomAndPan="magnify" preserveAspectRatio="none" contentStyleType="text/css"><?plantuml $version$?><defs/><g><rect x="0" y="0" width="139" height="168" fill="#98FB98" style="stroke:none;stroke-width:1;"/><!--entity r--><g class="entity" data-qualified-name="r" id="ent0001" data-source-line="7"><rect x="7" y="11" width="24.6375" height="34" fill="#F1F1F1" style="stroke:#181818;stroke-width:0.5;" rx="2.5" ry="2.5"/><text x="17" y="31.8889" fill="#000000" font-size="14" lengthAdjust="spacing" textLength="4.6375" font-family="sans-serif">r</text></g><!--entity n--><g class="entity" data-qualified-name="n" id="ent0002" data-source-line="8"><polygon points="66.43,16,76.43,6,114.2175,6,114.2175,40,104.2175,50,66.43,50,66.43,16" fill="#F1F1F1" style="stroke:#181818;stroke-width:0.5;stroke-linejoin:miter;stroke-miterlimit:10;"/><line x1="104.2175" y1="16" x2="114.2175" y2="6" style="stroke:#181818;stroke-width:0.5;"/><line x1="66.43" y1="16" x2="104.2175" y2="16" style="stroke:#181818;stroke-width:0.5;"/><line x1="104.2175" y1="16" x2="104.2175" y2="50" style="stroke:#181818;stroke-width:0.5;"/><text x="81.43" y="36.8889" fill="#000000" font-size="14" lengthAdjust="spacing" textLength="7.7875" font-family="sans-serif">n</text></g><!--entity f--><g class="entity" data-qualified-name="f" id="ent0003" data-source-line="9"><path d="M7.39,117.5 L7.39,146.5 A2.5,2.5 0 0 0 9.89,149 L28.74,149 A2.5,2.5 0 0 0 31.24,146.5 L31.24,125 L21.24,115 L9.89,115 A2.5,2.5 0 0 0 7.39,117.5" style="stroke:#181818;stroke-width:0.5;" fill="#F1F1F1"/><path d="M21.24,115 L21.24,122.5 A2.5,2.5 0 0 0 23.74,125 L31.24,125" style="stroke:#181818;stroke-width:0.5;" fill="#F1F1F1"/><text x="17.39" y="135.8889" fill="#000000" font-size="14" lengthAdjust="spacing" textLength="3.85" font-family="sans-serif">f</text></g><!--entity c--><g class="entity" data-qualified-name="c" id="ent0004" data-source-line="10"><rect x="65.82" y="110" width="47" height="44" fill="#F1F1F1" style="stroke:#181818;stroke-width:0.5;" rx="2.5" ry="2.5"/><rect x="92.82" y="115" width="15" height="10" fill="#F1F1F1" style="stroke:#181818;stroke-width:0.5;"/><rect x="90.82" y="117" width="4" height="2" fill="#F1F1F1" style="stroke:#181818;stroke-width:0.5;"/><rect x="90.82" y="121" width="4" height="2" fill="#F1F1F1" style="stroke:#181818;stroke-width:0.5;"/><text x="80.82" y="140.8889" fill="#000000" font-size="14" lengthAdjust="spacing" textLength="7" font-family="sans-serif">c</text></g><?plantuml-src BSiX3e0m341HtrFK8G6_841p0e9Ojh8iZ9QKJH32tPb0_hnyS-KxqG1UN3c8Cpw0E5gt1vN2Vf8aYgTD59I8gpMprH0P-mvUCEs_AxbiEIH21HPFoB35MXiiRlq0?></g></svg>