<svg xmlns="http://www.w3.org/2000/svg" xmlns:xlink="http://www.w3.org/1999/xlink" version="1.1" data-diagram-type="CLASS" style="width:177px;height:70px;background:#FFFFFF;" width="177px" height="70px" viewBox="0 0 177 70" zoomAndPan="magnify" preserveAspectRatio="none" contentStyleType="text/css"><?plantuml $version$?><defs/><g><!--class Foo--><g class="entity" data-qualified-name="Foo" id="ent0001" data-source-line="2"><rect x="7" y="7" width="56.15" height="48" fill="#F1F1F1" style="stroke:#181818;stroke-width:0.5;" rx="12.5" ry="12.5"/><ellipse cx="22" cy="23" rx="11" ry="11" fill="#ADD1B2" style="stroke:#181818;stroke-width:1;"/><path d="M24.4731,29.1431 Q23.8921,29.4419 23.2529,29.5913 Q22.6138,29.7407 21.9082,29.7407 Q19.4014,29.7407 18.0815,28.0889 Q16.7617,26.437 16.7617,23.3159 Q16.7617,20.1865 18.0815,18.5347 Q19.4014,16.8828 21.9082,16.8828 Q22.6138,16.8828 23.2612,17.0322 Q23.9087,17.1816 24.4731,17.4805 L24.4731,20.2031 Q23.8423,19.6221 23.2488,19.3523 Q22.6553,19.0825 22.0244,19.0825 Q20.6797,19.0825 19.9949,20.1492 Q19.3101,21.2158 19.3101,23.3159 Q19.3101,25.4077 19.9949,26.4744 Q20.6797,27.541 22.0244,27.541 Q22.6553,27.541 23.2488,27.2712 Q23.8423,27.0015 24.4731,26.4204 Z " fill="#000000"/><text x="36" y="26.8889" fill="#000000" font-size="14" lengthAdjust="spacing" textLength="24.15" font-family="sans-serif">Foo</text><line x1="8" y1="39" x2="62.15" y2="39" style="stroke:#181818;stroke-width:0.5;"/><line x1="8" y1="47" x2="62.15" y2="47" style="stroke:#181818;stroke-width:0.5;"/></g><!--class Foo2--><g class="entity" data-qualified-name="Foo2" id="ent0002" data-source-line="3"><rect x="98.11" y="7" width="63.9375" height="48" fill="#ADD8E6" style="stroke:#181818;stroke-width:0.5;" rx="12.5" ry="12.5"/><ellipse cx="113.11" cy="23" rx="11" ry="11" fill="#ADD1B2" style="stroke:#181818;stroke-width:1;"/><path d="M115.5831,29.1431 Q115.0021,29.4419 114.3629,29.5913 Q113.7238,29.7407 113.0182,29.7407 Q110.5114,29.7407 109.1915,28.0889 Q107.8717,26.437 107.8717,23.3159 Q107.8717,20.1865 109.1915,18.5347 Q110.5114,16.8828 113.0182,16.8828 Q113.7238,16.8828 114.3712,17.0322 Q115.0187,17.1816 115.5831,17.4805 L115.5831,20.2031 Q114.9523,19.6221 114.3588,19.3523 Q113.7653,19.0825 113.1344,19.0825 Q111.7897,19.0825 111.1049,20.1492 Q110.4201,21.2158 110.4201,23.3159 Q110.4201,25.4077 111.1049,26.4744 Q111.7897,27.541 113.1344,27.541 Q113.7653,27.541 114.3588,27.2712 Q114.9523,27.0015 115.5831,26.4204 Z " fill="#000000"/><text x="127.11" y="26.8889" fill="#000000" font-size="14" lengthAdjust="spacing" textLength="31.9375" font-family="sans-serif">Foo2</text><line x1="99.11" y1="39" x2="161.0475" y2="39" style="stroke:#181818;stroke-width:0.5;"/><line x1="99.11" y1="47" x2="161.0475" y2="47" style="stroke:#181818;stroke-width:0.5;"/></g><?plantuml-src AyxEp2j8B4hCLGZAByrBSSuloaijKZ0ovKhEIImkLd3BpqUmZ1IKSpBJCqgISafJ0G00?></g></svg>