<svg xmlns="http://www.w3.org/2000/svg" xmlns:xlink="http://www.w3.org/1999/xlink" version="1.1" data-diagram-type="CLASS" style="width:97px;height:234px;background:#FFFFFF;" width="97px" height="234px" viewBox="0 0 97 234" zoomAndPan="magnify" preserveAspectRatio="none" contentStyleType="text/css"><?plantuml $version$?><defs/><g><!--class foo--><g class="entity" data-qualified-name="foo" id="ent0001" data-source-line="1"><rect x="7" y="7" width="75.7" height="104" fill="#F1F1F1" style="stroke:#181818;stroke-width:0.5;" rx="2.5" ry="2.5"/><ellipse cx="32.9237" cy="23" rx="11" ry="11" fill="#ADD1B2" style="stroke:#181818;stroke-width:1;"/><path d="M35.3969,29.1431 Q34.8158,29.4419 34.1767,29.5913 Q33.5375,29.7407 32.832,29.7407 Q30.3251,29.7407 29.0053,28.0889 Q27.6855,26.437 27.6855,23.3159 Q27.6855,20.1865 29.0053,18.5347 Q30.3251,16.8828 32.832,16.8828 Q33.5375,16.8828 34.185,17.0322 Q34.8324,17.1816 35.3969,17.4805 L35.3969,20.2031 Q34.766,19.6221 34.1725,19.3523 Q33.579,19.0825 32.9482,19.0825 Q31.6034,19.0825 30.9186,20.1492 Q30.2338,21.2158 30.2338,23.3159 Q30.2338,25.4077 30.9186,26.4744 Q31.6034,27.541 32.9482,27.541 Q33.579,27.541 34.1725,27.2712 Q34.766,27.0015 35.3969,26.4204 Z " fill="#000000"/><text x="49.3512" y="26.8889" fill="#000000" font-size="14" lengthAdjust="spacing" textLength="19.425" font-family="sans-serif">foo</text><line x1="8" y1="39" x2="81.7" y2="39" style="stroke:#181818;stroke-width:0.5;"/><text x="13" y="53.8889" fill="#000000" font-size="14" lengthAdjust="spacing" textLength="33.5125" font-family="sans-serif">field1</text><text x="13" y="67.8889" fill="#000000" font-size="14" lengthAdjust="spacing" textLength="33.5125" font-family="sans-serif">field2</text><line x1="8" y1="75" x2="81.7" y2="75" style="stroke:#181818;stroke-width:0.5;"/><text x="13" y="89.8889" fill="#000000" font-size="14" lengthAdjust="spacing" textLength="63.7" font-family="sans-serif">method1()</text><text x="13" y="103.8889" fill="#000000" font-size="14" lengthAdjust="spacing" textLength="63.7" font-family="sans-serif">method2()</text></g><!--class bar--><g class="entity" data-qualified-name="bar" id="ent0002" data-source-line="7"><rect x="18.74" y="171" width="52.2125" height="48" fill="#F1F1F1" style="stroke:#181818;stroke-width:0.5;" rx="2.5" ry="2.5"/><ellipse cx="33.74" cy="187" rx="11" ry="11" fill="#ADD1B2" style="stroke:#181818;stroke-width:1;"/><path d="M36.2131,193.1431 Q35.6321,193.4419 34.9929,193.5913 Q34.3538,193.7407 33.6482,193.7407 Q31.1414,193.7407 29.8215,192.0889 Q28.5017,190.437 28.5017,187.3159 Q28.5017,184.1865 29.8215,182.5347 Q31.1414,180.8828 33.6482,180.8828 Q34.3538,180.8828 35.0012,181.0322 Q35.6487,181.1816 36.2131,181.4805 L36.2131,184.2031 Q35.5823,183.6221 34.9888,183.3523 Q34.3953,183.0825 33.7644,183.0825 Q32.4197,183.0825 31.7349,184.1492 Q31.0501,185.2158 31.0501,187.3159 Q31.0501,189.4077 31.7349,190.4744 Q32.4197,191.541 33.7644,191.541 Q34.3953,191.541 34.9888,191.2712 Q35.5823,191.0015 36.2131,190.4204 Z " fill="#000000"/><text x="47.74" y="190.8889" fill="#000000" font-size="14" lengthAdjust="spacing" textLength="20.2125" font-family="sans-serif">bar</text><line x1="19.74" y1="203" x2="69.9525" y2="203" style="stroke:#181818;stroke-width:0.5;"/><line x1="19.74" y1="211" x2="69.9525" y2="211" style="stroke:#181818;stroke-width:0.5;"/></g><!--reverse link foo to bar--><g class="link" data-entity-1="ent0001" data-entity-2="ent0002" id="lnk3" data-source-line="8" data-link-type="extension"><path d="M44.85,129.42 C44.85,149.8 44.85,154.2 44.85,170.52" style="stroke:#181818;stroke-width:1;" fill="none" id="foo-backto-bar" codeLine="8"/><polygon points="44.85,111.42,38.85,129.42,50.85,129.42,44.85,111.42" fill="none" style="stroke:#181818;stroke-width:1;stroke-linejoin:miter;stroke-miterlimit:10;"/></g><?plantuml-src Iyv9B2vMIClFLwZcKaZBJCr9COJIHbmAkQab6VafXXgQCAOHa5dBbGpMavHOn0NIPrEZgmlY0000?></g></svg>