<svg xmlns="http://www.w3.org/2000/svg" xmlns:xlink="http://www.w3.org/1999/xlink" version="1.1" data-diagram-type="CLASS" style="width:164px;height:96px;background:#FFFFFF;" width="164px" height="96px" viewBox="0 0 164 96" zoomAndPan="magnify" preserveAspectRatio="none" contentStyleType="text/css"><?plantuml $version$?><defs/><g><!--class A--><g class="entity" data-qualified-name="A" id="ent0001" data-source-line="1"><rect x="7" y="19.5" width="41.3625" height="48" fill="#F1F1F1" style="stroke:#181818;stroke-width:0.5;" rx="2.5" ry="2.5"/><ellipse cx="22" cy="35.5" rx="11" ry="11" fill="#ADD1B2" style="stroke:#181818;stroke-width:1;"/><path d="M24.4731,41.6431 Q23.8921,41.9419 23.2529,42.0913 Q22.6138,42.2407 21.9082,42.2407 Q19.4014,42.2407 18.0815,40.5889 Q16.7617,38.937 16.7617,35.8159 Q16.7617,32.6865 18.0815,31.0347 Q19.4014,29.3828 21.9082,29.3828 Q22.6138,29.3828 23.2612,29.5322 Q23.9087,29.6816 24.4731,29.9805 L24.4731,32.7031 Q23.8423,32.1221 23.2488,31.8523 Q22.6553,31.5825 22.0244,31.5825 Q20.6797,31.5825 19.9949,32.6492 Q19.3101,33.7158 19.3101,35.8159 Q19.3101,37.9077 19.9949,38.9744 Q20.6797,40.041 22.0244,40.041 Q22.6553,40.041 23.2488,39.7712 Q23.8423,39.5015 24.4731,38.9204 Z " fill="#000000"/><text x="36" y="39.3889" fill="#000000" font-size="14" lengthAdjust="spacing" textLength="9.3625" font-family="sans-serif">A</text><line x1="8" y1="51.5" x2="47.3625" y2="51.5" style="stroke:#181818;stroke-width:0.5;"/><line x1="8" y1="59.5" x2="47.3625" y2="59.5" style="stroke:#181818;stroke-width:0.5;"/></g><g class="entity" data-qualified-name="GMN2" id="ent0003" data-source-line="3"><path d="M83.84,6 L83.84,39.5 L48.54,43.5 L83.84,47.5 L83.84,81 A0,0 0 0 0 83.84,81 L149.5275,81 A0,0 0 0 0 149.5275,81 L149.5275,16 L139.5275,6 L83.84,6 A0,0 0 0 0 83.84,6" style="stroke:#181818;stroke-width:0.5;" fill="#FEFFDD"/><path d="M139.5275,6 L139.5275,16 L149.5275,16 L139.5275,6" style="stroke:#181818;stroke-width:0.5;" fill="#FEFFDD"/><text x="89.84" y="21.1111" fill="#000000" font-size="13" lengthAdjust="spacing" textLength="26.65" font-family="sans-serif">if (a) {</text><text x="89.84" y="34.1111" fill="#000000" font-size="13" lengthAdjust="spacing" textLength="44.6875" font-family="sans-serif">return b;</text><text x="89.84" y="47.1111" fill="#000000" font-size="13" lengthAdjust="spacing" textLength="32.5" font-family="sans-serif">} else {</text><text x="89.84" y="60.1111" fill="#000000" font-size="13" lengthAdjust="spacing" textLength="43.9563" font-family="sans-serif">return c;</text><text x="89.84" y="73.1111" fill="#000000" font-size="13" lengthAdjust="spacing" textLength="4.3062" font-family="sans-serif">}</text></g><?plantuml-src Iyv9B2vMSEJAooz9LIZAJCyeKSXF0_8pqnGq4ZKLghaK58fIIqgByXIIhBbg5L9pYbE1Wb2XPA0GLsfUYW98Dm00?></g></svg>