<svg xmlns="http://www.w3.org/2000/svg" xmlns:xlink="http://www.w3.org/1999/xlink" version="1.1" data-diagram-type="CLASS" style="width:236px;height:124px;background:#FFFFFF;" width="236px" height="124px" viewBox="0 0 236 124" zoomAndPan="magnify" preserveAspectRatio="none" contentStyleType="text/css"><?plantuml $version$?><defs/><g><!--class Test--><g class="entity" data-qualified-name="Test" id="ent0001" data-source-line="1"><rect x="7" y="7" width="216.4875" height="104" fill="#F1F1F1" style="stroke:#181818;stroke-width:0.5;" rx="2.5" ry="2.5"/><ellipse cx="97.3875" cy="23" rx="11" ry="11" fill="#ADD1B2" style="stroke:#181818;stroke-width:1;"/><path d="M99.8606,29.1431 Q99.2796,29.4419 98.6404,29.5913 Q98.0013,29.7407 97.2957,29.7407 Q94.7889,29.7407 93.469,28.0889 Q92.1492,26.437 92.1492,23.3159 Q92.1492,20.1865 93.469,18.5347 Q94.7889,16.8828 97.2957,16.8828 Q98.0013,16.8828 98.6487,17.0322 Q99.2962,17.1816 99.8606,17.4805 L99.8606,20.2031 Q99.2298,19.6221 98.6363,19.3523 Q98.0428,19.0825 97.4119,19.0825 Q96.0672,19.0825 95.3824,20.1492 Q94.6976,21.2158 94.6976,23.3159 Q94.6976,25.4077 95.3824,26.4744 Q96.0672,27.541 97.4119,27.541 Q98.0428,27.541 98.6363,27.2712 Q99.2298,27.0015 99.8606,26.4204 Z " fill="#000000"/><text x="117.8875" y="26.8889" fill="#000000" font-size="14" lengthAdjust="spacing" textLength="27.2125" font-family="sans-serif">Test</text><line x1="8" y1="39" x2="222.4875" y2="39" style="stroke:#181818;stroke-width:0.5;"/><line x1="8" y1="47" x2="222.4875" y2="47" style="stroke:#181818;stroke-width:0.5;"/><g data-visibility-modifier="PUBLIC_METHOD"><ellipse cx="18" cy="59.5" rx="3" ry="3" fill="#84BE84" style="stroke:#038048;stroke-width:1;"/></g><text x="27" y="61.8889" fill="#000000" font-size="14" lengthAdjust="spacing" textLength="128.275" font-family="sans-serif">normalMethod(): void</text><g data-visibility-modifier="PUBLIC_METHOD"><ellipse cx="18" cy="73.5" rx="3" ry="3" fill="#84BE84" style="stroke:#038048;stroke-width:1;"/></g><text x="27" y="75.8889" fill="#000000" font-size="14" lengthAdjust="spacing" textLength="116.6375" text-decoration="line-through" font-family="sans-serif">deprecatedMethod</text><text x="143.6375" y="75.8889" fill="#000000" font-size="14" lengthAdjust="spacing" textLength="38.85" font-family="sans-serif">(): void</text><g data-visibility-modifier="PUBLIC_METHOD"><ellipse cx="18" cy="87.5" rx="3" ry="3" fill="#84BE84" style="stroke:#038048;stroke-width:1;"/></g><text x="27" y="89.8889" fill="#000000" font-size="14" lengthAdjust="spacing" textLength="118.125" text-decoration="underline" font-family="sans-serif">staticMethod(): void</text><g data-visibility-modifier="PUBLIC_METHOD"><ellipse cx="18" cy="101.5" rx="3" ry="3" fill="#84BE84" style="stroke:#038048;stroke-width:1;"/></g><text x="27" y="103.8889" fill="#000000" font-size="14" lengthAdjust="spacing" textLength="151.6375" text-decoration="underline line-through" font-family="sans-serif">deprecatedStaticMethod</text><text x="178.6375" y="103.8889" fill="#000000" font-size="14" lengthAdjust="spacing" textLength="38.85" text-decoration="underline" font-family="sans-serif">(): void</text></g><?plantuml-src Iyv9B2vM24ajBb6evb800ksy_ABSn1pVr9AC_1GDJIk5ilpC58YChcvAQa5HQd9YIMeAH5vN5qL5TN59OabcSgs2DeI1nH244cJJWf6K8vbP2m00?></g></svg>