<svg xmlns="http://www.w3.org/2000/svg" xmlns:xlink="http://www.w3.org/1999/xlink" version="1.1" data-diagram-type="CLASS" style="width:141px;height:82px;background:#FFFFFF;" width="141px" height="82px" viewBox="0 0 141 82" zoomAndPan="magnify" preserveAspectRatio="none" contentStyleType="text/css"><?plantuml $version$?><defs/><g><!--class class1--><g class="entity" data-qualified-name="class1" id="ent0001" data-source-line="1"><rect x="7" y="7" width="121.725" height="62" fill="#F1F1F1" style="stroke:#181818;stroke-width:0.5;" rx="2.5" ry="2.5"/><ellipse cx="44.5" cy="23" rx="11" ry="11" fill="#ADD1B2" style="stroke:#181818;stroke-width:1;"/><path d="M46.9731,29.1431 Q46.3921,29.4419 45.7529,29.5913 Q45.1138,29.7407 44.4082,29.7407 Q41.9014,29.7407 40.5815,28.0889 Q39.2617,26.437 39.2617,23.3159 Q39.2617,20.1865 40.5815,18.5347 Q41.9014,16.8828 44.4082,16.8828 Q45.1138,16.8828 45.7612,17.0322 Q46.4087,17.1816 46.9731,17.4805 L46.9731,20.2031 Q46.3423,19.6221 45.7488,19.3523 Q45.1553,19.0825 44.5244,19.0825 Q43.1797,19.0825 42.4949,20.1492 Q41.8101,21.2158 41.8101,23.3159 Q41.8101,25.4077 42.4949,26.4744 Q43.1797,27.541 44.5244,27.541 Q45.1553,27.541 45.7488,27.2712 Q46.3423,27.0015 46.9731,26.4204 Z " fill="#000000"/><text x="63.5" y="26.8889" fill="#000000" font-size="14" lengthAdjust="spacing" textLength="39.725" font-family="sans-serif">class1</text><line x1="8" y1="39" x2="127.725" y2="39" style="stroke:#181818;stroke-width:0.5;"/><g data-visibility-modifier="PUBLIC_FIELD"><ellipse cx="18" cy="51.5" rx="3" ry="3" fill="none" style="stroke:#038048;stroke-width:1;"/></g><text x="27" y="53.8889" fill="#000000" font-size="14" lengthAdjust="spacing" textLength="95.725" font-family="sans-serif">public_member</text><line x1="8" y1="61" x2="127.725" y2="61" style="stroke:#181818;stroke-width:1;"/></g><?plantuml-src Iyv9B2vMI0QHXWhLN0f0eArGK9gKavaSdvkQcvHQ11RJrOLG2WL5cMM99QamkLgkZCoKL9Ye0aIq6000?></g></svg>