<svg xmlns="http://www.w3.org/2000/svg" xmlns:xlink="http://www.w3.org/1999/xlink" version="1.1" data-diagram-type="CLASS" style="width:289px;height:260px;background:#FFFFFF;" width="289px" height="260px" viewBox="0 0 289 260" zoomAndPan="magnify" preserveAspectRatio="none" contentStyleType="text/css"><?plantuml $version$?><defs/><g><!--class Account--><g class="entity" data-qualified-name="Account" id="ent0001" data-source-line="1"><rect x="7" y="148.49" width="267.6914" height="97.4648" fill="#F1F1F1" style="stroke:#181818;stroke-width:0.5;" rx="2.5" ry="2.5"/><ellipse cx="108.9888" cy="164.49" rx="11" ry="11" fill="#ADD1B2" style="stroke:#181818;stroke-width:1;"/><path d="M111.4619,170.6331 Q110.8809,170.9319 110.2417,171.0813 Q109.6025,171.2307 108.897,171.2307 Q106.3901,171.2307 105.0703,169.5789 Q103.7505,167.927 103.7505,164.8059 Q103.7505,161.6765 105.0703,160.0247 Q106.3901,158.3728 108.897,158.3728 Q109.6025,158.3728 110.25,158.5222 Q110.8975,158.6716 111.4619,158.9705 L111.4619,161.6931 Q110.8311,161.1121 110.2375,160.8423 Q109.644,160.5725 109.0132,160.5725 Q107.6685,160.5725 106.9836,161.6392 Q106.2988,162.7058 106.2988,164.8059 Q106.2988,166.8977 106.9836,167.9644 Q107.6685,169.031 109.0132,169.031 Q109.644,169.031 110.2375,168.7612 Q110.8311,168.4915 111.4619,167.9104 Z " fill="#000000"/><text x="129.4888" y="169.781" fill="#000000" font-size="14" lengthAdjust="spacing" textLength="55.2139" font-family="sans-serif">Account</text><line x1="8" y1="180.49" x2="273.6914" y2="180.49" style="stroke:#181818;stroke-width:0.5;"/><g data-visibility-modifier="PRIVATE_FIELD"><rect x="15" y="191.2341" width="6" height="6" fill="none" style="stroke:#C82930;stroke-width:1;"/></g><text x="27" y="198.0252" fill="#000000" font-size="14" lengthAdjust="spacing" textLength="107.5977" font-family="sans-serif">balance: double</text><line x1="8" y1="204.9783" x2="273.6914" y2="204.9783" style="stroke:#181818;stroke-width:0.5;"/><g data-visibility-modifier="PUBLIC_METHOD"><ellipse cx="18" cy="218.7224" rx="3" ry="3" fill="#84BE84" style="stroke:#038048;stroke-width:1;"/></g><text x="27" y="222.5134" fill="#000000" font-size="14" lengthAdjust="spacing" textLength="204.7432" font-family="sans-serif">deposit(amount: double): void</text><g data-visibility-modifier="PUBLIC_METHOD"><ellipse cx="18" cy="235.2107" rx="3" ry="3" fill="#84BE84" style="stroke:#038048;stroke-width:1;"/></g><text x="27" y="239.0017" fill="#000000" font-size="14" lengthAdjust="spacing" textLength="241.6914" font-family="sans-serif">withdraw(amount: double): boolean</text></g><!--class Bank--><g class="entity" data-qualified-name="Bank" id="ent0002" data-source-line="6"><rect x="84.79" y="7" width="112.1191" height="64.4883" fill="#F1F1F1" style="stroke:#181818;stroke-width:0.5;" rx="2.5" ry="2.5"/><ellipse cx="121.1487" cy="23" rx="11" ry="11" fill="#ADD1B2" style="stroke:#181818;stroke-width:1;"/><path d="M123.6219,29.1431 Q123.0408,29.4419 122.4017,29.5913 Q121.7625,29.7407 121.0569,29.7407 Q118.5501,29.7407 117.2303,28.0889 Q115.9105,26.437 115.9105,23.3159 Q115.9105,20.1865 117.2303,18.5347 Q118.5501,16.8828 121.0569,16.8828 Q121.7625,16.8828 122.41,17.0322 Q123.0574,17.1816 123.6219,17.4805 L123.6219,20.2031 Q122.991,19.6221 122.3975,19.3523 Q121.804,19.0825 121.1732,19.0825 Q119.8284,19.0825 119.1436,20.1492 Q118.4588,21.2158 118.4588,23.3159 Q118.4588,25.4077 119.1436,26.4744 Q119.8284,27.541 121.1732,27.541 Q121.804,27.541 122.3975,27.2712 Q122.991,27.0015 123.6219,26.4204 Z " fill="#000000"/><text x="139.8951" y="28.291" fill="#000000" font-size="14" lengthAdjust="spacing" textLength="32.6553" font-family="sans-serif">Bank</text><line x1="85.79" y1="39" x2="195.9091" y2="39" style="stroke:#181818;stroke-width:0.5;"/><g data-visibility-modifier="PUBLIC_FIELD"><ellipse cx="95.79" cy="52.7441" rx="3" ry="3" fill="none" style="stroke:#038048;stroke-width:1;"/></g><text x="104.79" y="56.5352" fill="#000000" font-size="14" lengthAdjust="spacing" textLength="86.1191" font-family="sans-serif">name: String</text><line x1="85.79" y1="63.4883" x2="195.9091" y2="63.4883" style="stroke:#181818;stroke-width:0.5;"/></g><!--link Bank to Account--><g class="link" data-entity-1="ent0002" data-entity-2="ent0001" id="lnk3" data-source-line="9" data-link-type="dependency"><path d="M140.85,71.81 C140.85,93.7 140.85,118.28 140.85,143.1" style="stroke:#181818;stroke-width:1;" fill="none" id="Bank-to-Account" codeLine="9"/><polygon points="140.85,148.1,144.85,139.1,140.85,143.1,136.85,139.1,140.85,148.1" fill="#181818" style="stroke:#181818;stroke-width:1;stroke-linejoin:miter;stroke-miterlimit:10;"/><text x="141.85" y="115.0584" fill="#000000" font-size="13" lengthAdjust="spacing" textLength="34.6201" font-family="sans-serif">holds</text></g><?plantuml-src POun3i8m34NtdC8ZgCe5CbI2At02nuveX6kZ9gK3ukwaaUZ2-j-JtYV1Kk12PAjMU3i07r5GAGLWMwEaDWsSdbPoFU6yQpzo3l2opBkmvJhnWjk_4SqaeRgFevwweZvwPr2SM-HMbwptXZlmVZpE19XCk7m1?></g></svg>