<svg xmlns="http://www.w3.org/2000/svg" xmlns:xlink="http://www.w3.org/1999/xlink" version="1.1" data-diagram-type="CLASS" style="width:89px;height:84px;background:#FFFFFF;" width="89px" height="84px" viewBox="0 0 89 84" zoomAndPan="magnify" preserveAspectRatio="none" contentStyleType="text/css"><?plantuml $version$?><defs/><g><!--class Cls--><g class="entity" data-qualified-name="Cls" id="ent0001" data-source-line="1"><rect x="7" y="7" width="67.9125" height="62" fill="#F1F1F1" style="stroke:#181818;stroke-width:0.5;" rx="2.5" ry="2.5"/><ellipse cx="29.0256" cy="23" rx="11" ry="11" fill="#ADD1B2" style="stroke:#181818;stroke-width:1;"/><path d="M31.4988,29.1431 Q30.9177,29.4419 30.2786,29.5913 Q29.6394,29.7407 28.9338,29.7407 Q26.427,29.7407 25.1072,28.0889 Q23.7873,26.437 23.7873,23.3159 Q23.7873,20.1865 25.1072,18.5347 Q26.427,16.8828 28.9338,16.8828 Q29.6394,16.8828 30.2869,17.0322 Q30.9343,17.1816 31.4988,17.4805 L31.4988,20.2031 Q30.8679,19.6221 30.2744,19.3523 Q29.6809,19.0825 29.05,19.0825 Q27.7053,19.0825 27.0205,20.1492 Q26.3357,21.2158 26.3357,23.3159 Q26.3357,25.4077 27.0205,26.4744 Q27.7053,27.541 29.05,27.541 Q29.6809,27.541 30.2744,27.2712 Q30.8679,27.0015 31.4988,26.4204 Z " fill="#000000"/><text x="44.5869" y="26.8889" fill="#000000" font-size="14" lengthAdjust="spacing" textLength="20.3" font-family="sans-serif">Cls</text><line x1="8" y1="39" x2="73.9125" y2="39" style="stroke:#181818;stroke-width:0.5;"/><line x1="8" y1="47" x2="73.9125" y2="47" style="stroke:#181818;stroke-width:0.5;"/><text x="13" y="61.8889" fill="#000000" font-size="14" lengthAdjust="spacing" textLength="55.9125" font-family="sans-serif">method()</text></g><?plantuml-src Iyv9B2vMSCufLgZcuinDBSd8Jz7GvAhbuihBBqbLACfCpoXHo4y3AR2oAgaioEVYJ2qgoY_YIirBKG0f0G00?></g></svg>