<svg xmlns="http://www.w3.org/2000/svg" xmlns:xlink="http://www.w3.org/1999/xlink" version="1.1" data-diagram-type="CLASS" style="width:163px;height:186px;background:#FFFFFF;" width="163px" height="186px" viewBox="0 0 163 186" zoomAndPan="magnify" preserveAspectRatio="none" contentStyleType="text/css"><?plantuml $version$?><defs/><g><!--class c--><g class="entity" data-qualified-name="c" id="ent0001" data-source-line="5"><rect x="21.39" y="9" width="39" height="48" fill="#F1F1F1" style="stroke:#181818;stroke-width:0.5;" rx="2.5" ry="2.5"/><ellipse cx="36.39" cy="25" rx="11" ry="11" fill="#ADD1B2" style="stroke:#181818;stroke-width:1;"/><path d="M38.8631,31.1431 Q38.2821,31.4419 37.6429,31.5913 Q37.0038,31.7407 36.2982,31.7407 Q33.7914,31.7407 32.4715,30.0889 Q31.1517,28.437 31.1517,25.3159 Q31.1517,22.1865 32.4715,20.5347 Q33.7914,18.8828 36.2982,18.8828 Q37.0038,18.8828 37.6512,19.0322 Q38.2987,19.1816 38.8631,19.4805 L38.8631,22.2031 Q38.2323,21.6221 37.6388,21.3523 Q37.0453,21.0825 36.4144,21.0825 Q35.0697,21.0825 34.3849,22.1492 Q33.7001,23.2158 33.7001,25.3159 Q33.7001,27.4077 34.3849,28.4744 Q35.0697,29.541 36.4144,29.541 Q37.0453,29.541 37.6388,29.2712 Q38.2323,29.0015 38.8631,28.4204 Z " fill="#000000"/><text x="50.39" y="28.8889" fill="#000000" font-size="14" lengthAdjust="spacing" textLength="7" font-family="sans-serif">c</text><line x1="22.39" y1="41" x2="59.39" y2="41" style="stroke:#181818;stroke-width:0.5;"/><line x1="22.39" y1="49" x2="59.39" y2="49" style="stroke:#181818;stroke-width:0.5;"/></g><!--class red--><g class="entity" data-qualified-name="red" id="ent0002" data-source-line="6"><rect x="95.79" y="7" width="52.2125" height="52" fill="#FFC0CB" style="stroke:#181818;stroke-width:0.5;" rx="2.5" ry="2.5"/><ellipse cx="110.79" cy="25" rx="11" ry="11" fill="#ADD1B2" style="stroke:#181818;stroke-width:1;"/><path d="M113.2631,31.1431 Q112.6821,31.4419 112.0429,31.5913 Q111.4038,31.7407 110.6982,31.7407 Q108.1914,31.7407 106.8715,30.0889 Q105.5517,28.437 105.5517,25.3159 Q105.5517,22.1865 106.8715,20.5347 Q108.1914,18.8828 110.6982,18.8828 Q111.4038,18.8828 112.0512,19.0322 Q112.6987,19.1816 113.2631,19.4805 L113.2631,22.2031 Q112.6323,21.6221 112.0388,21.3523 Q111.4453,21.0825 110.8144,21.0825 Q109.4697,21.0825 108.7849,22.1492 Q108.1001,23.2158 108.1001,25.3159 Q108.1001,27.4077 108.7849,28.4744 Q109.4697,29.541 110.8144,29.541 Q111.4453,29.541 112.0388,29.2712 Q112.6323,29.0015 113.2631,28.4204 Z " fill="#000000"/><text x="124.8838" y="21.3333" fill="#000000" font-size="12" lengthAdjust="spacing" textLength="20.025" font-style="italic" font-family="sans-serif">«a»</text><text x="124.79" y="34.8889" fill="#000000" font-size="14" lengthAdjust="spacing" textLength="20.2125" font-family="sans-serif">red</text><line x1="96.79" y1="43" x2="147.0025" y2="43" style="stroke:#181818;stroke-width:0.5;"/><line x1="96.79" y1="51" x2="147.0025" y2="51" style="stroke:#181818;stroke-width:0.5;"/></g><!--class green--><g class="entity" data-qualified-name="green" id="ent0003" data-source-line="11"><rect x="7" y="119" width="67.7875" height="52" fill="#98FB98" style="stroke:#181818;stroke-width:0.5;" rx="2.5" ry="2.5"/><ellipse cx="22" cy="137" rx="11" ry="11" fill="#ADD1B2" style="stroke:#181818;stroke-width:1;"/><path d="M24.4731,143.1431 Q23.8921,143.4419 23.2529,143.5913 Q22.6138,143.7407 21.9082,143.7407 Q19.4014,143.7407 18.0815,142.0889 Q16.7617,140.437 16.7617,137.3159 Q16.7617,134.1865 18.0815,132.5347 Q19.4014,130.8828 21.9082,130.8828 Q22.6138,130.8828 23.2612,131.0322 Q23.9087,131.1816 24.4731,131.4805 L24.4731,134.2031 Q23.8423,133.6221 23.2488,133.3523 Q22.6553,133.0825 22.0244,133.0825 Q20.6797,133.0825 19.9949,134.1492 Q19.3101,135.2158 19.3101,137.3159 Q19.3101,139.4077 19.9949,140.4744 Q20.6797,141.541 22.0244,141.541 Q22.6553,141.541 23.2488,141.2712 Q23.8423,141.0015 24.4731,140.4204 Z " fill="#000000"/><text x="43.8813" y="133.3333" fill="#000000" font-size="12" lengthAdjust="spacing" textLength="20.025" font-style="italic" font-family="sans-serif">«a»</text><text x="36" y="146.8889" fill="#000000" font-size="14" lengthAdjust="spacing" textLength="35.7875" font-family="sans-serif">green</text><line x1="8" y1="155" x2="73.7875" y2="155" style="stroke:#181818;stroke-width:0.5;"/><line x1="8" y1="163" x2="73.7875" y2="163" style="stroke:#181818;stroke-width:0.5;"/></g><?plantuml-src ioakgSn9jUFIIrIeTafCpdOloY_DIt7EpyalKYZ8pCkkvRBHXohXIiv9B2vMI8RIHQaf2ZOsYNP02HjyXYJcfAONfQRc8Pa4CG0i2Z420000?></g></svg>