<svg xmlns="http://www.w3.org/2000/svg" xmlns:xlink="http://www.w3.org/1999/xlink" version="1.1" data-diagram-type="CLASS" style="width:153px;height:183px;background:#FFFFFF;" width="153px" height="183px" viewBox="0 0 153 183" zoomAndPan="magnify" preserveAspectRatio="none" contentStyleType="text/css"><?plantuml $version$?><defs/><g><!--class dummy--><g class="entity" data-qualified-name="dummy" id="ent0001" data-source-line="1"><rect x="33.53" y="120" width="77.85" height="48" fill="#F1F1F1" style="stroke:#181818;stroke-width:0.5;" rx="2.5" ry="2.5"/><ellipse cx="48.53" cy="136" rx="11" ry="11" fill="#ADD1B2" style="stroke:#181818;stroke-width:1;"/><path d="M51.0031,142.1431 Q50.4221,142.4419 49.7829,142.5913 Q49.1438,142.7407 48.4382,142.7407 Q45.9314,142.7407 44.6115,141.0889 Q43.2917,139.437 43.2917,136.3159 Q43.2917,133.1865 44.6115,131.5347 Q45.9314,129.8828 48.4382,129.8828 Q49.1438,129.8828 49.7912,130.0322 Q50.4387,130.1816 51.0031,130.4805 L51.0031,133.2031 Q50.3723,132.6221 49.7788,132.3523 Q49.1853,132.0825 48.5544,132.0825 Q47.2097,132.0825 46.5249,133.1492 Q45.8401,134.2158 45.8401,136.3159 Q45.8401,138.4077 46.5249,139.4744 Q47.2097,140.541 48.5544,140.541 Q49.1853,140.541 49.7788,140.2712 Q50.3723,140.0015 51.0031,139.4204 Z " fill="#000000"/><text x="62.53" y="139.8889" fill="#000000" font-size="14" lengthAdjust="spacing" textLength="45.85" font-family="sans-serif">dummy</text><line x1="34.53" y1="152" x2="110.38" y2="152" style="stroke:#181818;stroke-width:0.5;"/><line x1="34.53" y1="160" x2="110.38" y2="160" style="stroke:#181818;stroke-width:0.5;"/></g><g class="entity" data-qualified-name="GMN2" id="ent0003" data-source-line="3"><path d="M6,6 L6,60 A0,0 0 0 0 6,60 L68.46,60 L72.46,119.82 L76.46,60 L138.9125,60 A0,0 0 0 0 138.9125,60 L138.9125,16 L128.9125,6 L6,6 A0,0 0 0 0 6,6" style="stroke:#181818;stroke-width:0.5;" fill="#FEFFDD"/><path d="M128.9125,6 L128.9125,16 L138.9125,16 L128.9125,6" style="stroke:#181818;stroke-width:0.5;" fill="#FEFFDD"/><text x="12" y="26.1111" fill="#000000" font-size="13" lengthAdjust="spacing" textLength="38.2688" font-family="sans-serif">In java,</text><text x="50.2688" y="25" fill="#000000" font-size="18" lengthAdjust="spacing" textLength="43.9875" font-family="sans-serif">every</text><text x="94.2563" y="26.1111" fill="#000000" font-size="13" lengthAdjust="spacing" textLength="3.575" font-family="sans-serif"> </text><text x="94.2563" y="26.1111" fill="#000000" font-size="13" lengthAdjust="spacing" textLength="29.6563" text-decoration="underline" font-family="sans-serif">class</text><text x="12" y="39.1111" fill="#000000" font-size="13" lengthAdjust="spacing" textLength="45.5" font-weight="700" font-family="sans-serif">extends</text><text x="12" y="52.1111" fill="#000000" font-size="13" lengthAdjust="spacing" textLength="20.2313" font-style="italic" font-family="sans-serif">this</text><text x="32.2313" y="52.1111" fill="#000000" font-size="13" lengthAdjust="spacing" textLength="25.2688" font-family="sans-serif">one.</text></g><?plantuml-src HSrD2eCm40NWVK_n3b0CtKaPPkynefdI59D8yuFsz2QAT3aVxxsPPXqZJ7Pkkm7m8GbIM11UVmG6Zuyk-WwAzYVFHyzIvBkHQYU3CazjXrJciq0Zovh4cshZPPRJsrQmZE2bQreJnyyT?></g></svg>