<svg xmlns="http://www.w3.org/2000/svg" xmlns:xlink="http://www.w3.org/1999/xlink" version="1.1" data-diagram-type="CLASS" style="width:175px;height:178px;background:#FFFFFF;" width="175px" height="178px" viewBox="0 0 175 178" zoomAndPan="magnify" preserveAspectRatio="none" contentStyleType="text/css"><?plantuml $version$?><defs/><g><!--class foo1--><!--class foo2--><g class="entity" data-qualified-name="foo2" id="ent0002" data-source-line="2"><rect x="101" y="7" width="59.2125" height="48" fill="#F1F1F1" style="stroke:#181818;stroke-width:0.5;" rx="2.5" ry="2.5"/><ellipse cx="116" cy="23" rx="11" ry="11" fill="#ADD1B2" style="stroke:#181818;stroke-width:1;"/><path d="M118.4731,29.1431 Q117.8921,29.4419 117.2529,29.5913 Q116.6138,29.7407 115.9082,29.7407 Q113.4014,29.7407 112.0815,28.0889 Q110.7617,26.437 110.7617,23.3159 Q110.7617,20.1865 112.0815,18.5347 Q113.4014,16.8828 115.9082,16.8828 Q116.6138,16.8828 117.2612,17.0322 Q117.9087,17.1816 118.4731,17.4805 L118.4731,20.2031 Q117.8423,19.6221 117.2488,19.3523 Q116.6553,19.0825 116.0244,19.0825 Q114.6797,19.0825 113.9949,20.1492 Q113.3101,21.2158 113.3101,23.3159 Q113.3101,25.4077 113.9949,26.4744 Q114.6797,27.541 116.0244,27.541 Q116.6553,27.541 117.2488,27.2712 Q117.8423,27.0015 118.4731,26.4204 Z " fill="#000000"/><text x="130" y="26.8889" fill="#000000" font-size="14" lengthAdjust="spacing" textLength="27.2125" font-family="sans-serif">foo2</text><line x1="102" y1="39" x2="159.2125" y2="39" style="stroke:#181818;stroke-width:0.5;"/><line x1="102" y1="47" x2="159.2125" y2="47" style="stroke:#181818;stroke-width:0.5;"/></g><!--class foo3--><g class="entity" data-qualified-name="foo3" id="ent0003" data-source-line="4"><rect x="7" y="115" width="59.2125" height="48" fill="#F1F1F1" style="stroke:#181818;stroke-width:0.5;" rx="2.5" ry="2.5"/><ellipse cx="22" cy="131" rx="11" ry="11" fill="#ADD1B2" style="stroke:#181818;stroke-width:1;"/><path d="M24.4731,137.1431 Q23.8921,137.4419 23.2529,137.5913 Q22.6138,137.7407 21.9082,137.7407 Q19.4014,137.7407 18.0815,136.0889 Q16.7617,134.437 16.7617,131.3159 Q16.7617,128.1865 18.0815,126.5347 Q19.4014,124.8828 21.9082,124.8828 Q22.6138,124.8828 23.2612,125.0322 Q23.9087,125.1816 24.4731,125.4805 L24.4731,128.2031 Q23.8423,127.6221 23.2488,127.3523 Q22.6553,127.0825 22.0244,127.0825 Q20.6797,127.0825 19.9949,128.1492 Q19.3101,129.2158 19.3101,131.3159 Q19.3101,133.4077 19.9949,134.4744 Q20.6797,135.541 22.0244,135.541 Q22.6553,135.541 23.2488,135.2712 Q23.8423,135.0015 24.4731,134.4204 Z " fill="#000000"/><text x="36" y="134.8889" fill="#000000" font-size="14" lengthAdjust="spacing" textLength="27.2125" font-family="sans-serif">foo3</text><line x1="8" y1="147" x2="65.2125" y2="147" style="stroke:#181818;stroke-width:0.5;"/><line x1="8" y1="155" x2="65.2125" y2="155" style="stroke:#181818;stroke-width:0.5;"/></g><?plantuml-src Iyv9B2vMIClFDrHGAKbCD-HAXWaO0GKgyXIgkMeHOiPS6PafgGegMbp56VdbO0K0?></g></svg>