<svg xmlns="http://www.w3.org/2000/svg" xmlns:xlink="http://www.w3.org/1999/xlink" version="1.1" data-diagram-type="CLASS" style="width:272px;height:84px;background:#FFFFFF;" width="272px" height="84px" viewBox="0 0 272 84" zoomAndPan="magnify" preserveAspectRatio="none" contentStyleType="text/css"><?plantuml $version$?><defs/><g><!--class MyInterface--><g class="entity" data-qualified-name="MyInterface" id="ent0001" data-source-line="1"><rect x="7" y="14" width="104.975" height="48" fill="#F1F1F1" style="stroke:#181818;stroke-width:0.5;" rx="2.5" ry="2.5"/><ellipse cx="22" cy="30" rx="11" ry="11" fill="#B4A7E5" style="stroke:#181818;stroke-width:1;"/><path d="M18.4277,26.2651 L18.4277,24.1069 L25.8071,24.1069 L25.8071,26.2651 L23.3418,26.2651 L23.3418,34.3418 L25.8071,34.3418 L25.8071,36.5 L18.4277,36.5 L18.4277,34.3418 L20.8931,34.3418 L20.8931,26.2651 Z " fill="#000000"/><text x="36" y="33.8889" fill="#000000" font-size="14" lengthAdjust="spacing" textLength="72.975" font-style="italic" font-family="sans-serif">MyInterface</text><line x1="8" y1="46" x2="110.975" y2="46" style="stroke:#181818;stroke-width:0.5;"/><line x1="8" y1="54" x2="110.975" y2="54" style="stroke:#181818;stroke-width:0.5;"/></g><!--class AbstractList--><g class="entity" data-qualified-name="AbstractList" id="ent0002" data-source-line="4"><rect x="147.14" y="7" width="110.7" height="62" fill="#F1F1F1" style="stroke:#181818;stroke-width:0.5;" rx="2.5" ry="2.5"/><ellipse cx="164.6769" cy="23" rx="11" ry="11" fill="#A9DCDF" style="stroke:#181818;stroke-width:1;"/><path d="M164.5402,18.3481 L163.3863,23.4199 L165.7023,23.4199 Z M163.046,16.1069 L166.0426,16.1069 L169.3878,28.5 L166.9391,28.5 L166.1754,25.437 L162.8966,25.437 L162.1495,28.5 L159.7008,28.5 Z " fill="#000000"/><text x="179.2406" y="26.8889" fill="#000000" font-size="14" lengthAdjust="spacing" textLength="73.0625" font-style="italic" font-family="sans-serif">AbstractList</text><line x1="148.14" y1="39" x2="256.84" y2="39" style="stroke:#181818;stroke-width:0.5;"/><g data-visibility-modifier="PUBLIC_FIELD"><ellipse cx="158.14" cy="51.5" rx="3" ry="3" fill="none" style="stroke:#038048;stroke-width:1;"/></g><text x="167.14" y="53.8889" fill="#000000" font-size="14" lengthAdjust="spacing" textLength="84.7" font-family="sans-serif">counter : string</text><line x1="148.14" y1="61" x2="256.84" y2="61" style="stroke:#181818;stroke-width:0.5;"/></g><?plantuml-src oymhIIrAIqnELV2jz8IpgxbgkRWIaufBYXAJInIISnABYnKSeLoVpE8Ie0BjvFnIa7e5AmMWU6PUEbSj0000?></g></svg>