<svg xmlns="http://www.w3.org/2000/svg" xmlns:xlink="http://www.w3.org/1999/xlink" version="1.1" data-diagram-type="CLASS" style="width:345px;height:70px;background:#FFFFFF;" width="345px" height="70px" viewBox="0 0 345 70" zoomAndPan="magnify" preserveAspectRatio="none" contentStyleType="text/css"><?plantuml $version$?><defs/><g><!--class Camera1--><g class="entity" data-qualified-name="Camera1" id="ent0001" data-source-line="1"><rect x="71.1037" y="7" width="89.575" height="48" fill="#F1F1F1" style="stroke:#181818;stroke-width:0.5;" rx="2.5" ry="2.5"/><ellipse cx="86.1037" cy="23" rx="11" ry="11" fill="#ADD1B2" style="stroke:#181818;stroke-width:1;"/><path d="M88.5769,29.1431 Q87.9958,29.4419 87.3567,29.5913 Q86.7175,29.7407 86.012,29.7407 Q83.5051,29.7407 82.1853,28.0889 Q80.8655,26.437 80.8655,23.3159 Q80.8655,20.1865 82.1853,18.5347 Q83.5051,16.8828 86.012,16.8828 Q86.7175,16.8828 87.365,17.0322 Q88.0124,17.1816 88.5769,17.4805 L88.5769,20.2031 Q87.946,19.6221 87.3525,19.3523 Q86.759,19.0825 86.1282,19.0825 Q84.7834,19.0825 84.0986,20.1492 Q83.4138,21.2158 83.4138,23.3159 Q83.4138,25.4077 84.0986,26.4744 Q84.7834,27.541 86.1282,27.541 Q86.759,27.541 87.3525,27.2712 Q87.946,27.0015 88.5769,26.4204 Z " fill="#000000"/><text x="100.1037" y="26.8889" fill="#000000" font-size="14" lengthAdjust="spacing" textLength="57.575" font-family="sans-serif">Camera1</text><line x1="72.1037" y1="39" x2="159.6787" y2="39" style="stroke:#181818;stroke-width:0.5;"/><line x1="72.1037" y1="47" x2="159.6787" y2="47" style="stroke:#181818;stroke-width:0.5;"/></g><!--class Camera2--><g class="entity" data-qualified-name="Camera2" id="ent0002" data-source-line="2"><rect x="241.1038" y="7" width="89.575" height="48" fill="#F1F1F1" style="stroke:#181818;stroke-width:0.5;" rx="2.5" ry="2.5"/><ellipse cx="256.1038" cy="23" rx="11" ry="11" fill="#ADD1B2" style="stroke:#181818;stroke-width:1;"/><path d="M258.5769,29.1431 Q257.9958,29.4419 257.3567,29.5913 Q256.7175,29.7407 256.012,29.7407 Q253.5051,29.7407 252.1853,28.0889 Q250.8655,26.437 250.8655,23.3159 Q250.8655,20.1865 252.1853,18.5347 Q253.5051,16.8828 256.012,16.8828 Q256.7175,16.8828 257.365,17.0322 Q258.0124,17.1816 258.5769,17.4805 L258.5769,20.2031 Q257.946,19.6221 257.3525,19.3523 Q256.759,19.0825 256.1282,19.0825 Q254.7834,19.0825 254.0986,20.1492 Q253.4138,21.2158 253.4138,23.3159 Q253.4138,25.4077 254.0986,26.4744 Q254.7834,27.541 256.1282,27.541 Q256.759,27.541 257.3525,27.2712 Q257.946,27.0015 258.5769,26.4204 Z " fill="#000000"/><text x="270.1038" y="26.8889" fill="#000000" font-size="14" lengthAdjust="spacing" textLength="57.575" font-family="sans-serif">Camera2</text><line x1="242.1038" y1="39" x2="329.6788" y2="39" style="stroke:#181818;stroke-width:0.5;"/><line x1="242.1038" y1="47" x2="329.6788" y2="47" style="stroke:#181818;stroke-width:0.5;"/></g><g class="entity" data-qualified-name="Camera1lol3" id="ent0004" data-source-line="4"><ellipse cx="30.8937" cy="31" rx="5" ry="5" fill="#F1F1F1" style="stroke:#181818;stroke-width:1.5;"/></g><text x="6" y="46.8889" fill="#000000" font-size="14" lengthAdjust="spacing" textLength="49.7875" font-family="sans-serif">Camera</text><g class="entity" data-qualified-name="Camera2lol6" id="ent0007" data-source-line="5"><ellipse cx="200.8938" cy="31" rx="5" ry="5" fill="#F1F1F1" style="stroke:#181818;stroke-width:1.5;"/></g><text x="176" y="46.8889" fill="#000000" font-size="14" lengthAdjust="spacing" textLength="49.7875" font-family="sans-serif">Camera</text><!--link Camera1lol3 to Camera1--><g class="link" data-entity-1="ent0004" data-entity-2="ent0001" id="lnk5" data-source-line="4" data-link-type="association"><path d="M36.2038,31 C47.7237,31 59.2438,31 70.7538,31" style="stroke:#181818;stroke-width:1;" fill="none" id="Camera1lol3-Camera1"/></g><!--link Camera2lol6 to Camera2--><g class="link" data-entity-1="ent0007" data-entity-2="ent0002" id="lnk8" data-source-line="5" data-link-type="association"><path d="M206.2038,31 C217.7238,31 229.2437,31 240.7538,31" style="stroke:#181818;stroke-width:1;" fill="none" id="Camera2lol6-Camera2"/></g><?plantuml-src Iyv9B2vMS4xCJIrADEHAHk8PSN5160eQchfm5HX2HW00?></g></svg>