<svg xmlns="http://www.w3.org/2000/svg" xmlns:xlink="http://www.w3.org/1999/xlink" version="1.1" data-diagram-type="CLASS" style="width:131px;height:286px;background:#FFFFFF;" width="131px" height="286px" viewBox="0 0 131 286" zoomAndPan="magnify" preserveAspectRatio="none" contentStyleType="text/css"><?plantuml $version$?><defs/><g><!--class BaseChat--><g class="entity" data-qualified-name="BaseChat" id="ent0001" data-source-line="1"><rect x="7.24" y="115" width="105.5375" height="48" fill="#F1F1F1" style="stroke:#181818;stroke-width:0.5;" rx="2.5" ry="2.5"/><ellipse cx="22.24" cy="131" rx="11" ry="11" fill="#ADD1B2" style="stroke:#181818;stroke-width:1;"/><path d="M24.7131,137.1431 Q24.1321,137.4419 23.4929,137.5913 Q22.8538,137.7407 22.1482,137.7407 Q19.6414,137.7407 18.3215,136.0889 Q17.0017,134.437 17.0017,131.3159 Q17.0017,128.1865 18.3215,126.5347 Q19.6414,124.8828 22.1482,124.8828 Q22.8538,124.8828 23.5012,125.0322 Q24.1487,125.1816 24.7131,125.4805 L24.7131,128.2031 Q24.0823,127.6221 23.4888,127.3523 Q22.8953,127.0825 22.2644,127.0825 Q20.9197,127.0825 20.2349,128.1492 Q19.5501,129.2158 19.5501,131.3159 Q19.5501,133.4077 20.2349,134.4744 Q20.9197,135.541 22.2644,135.541 Q22.8953,135.541 23.4888,135.2712 Q24.0823,135.0015 24.7131,134.4204 Z " fill="#000000"/><text x="36.24" y="134.8889" fill="#000000" font-size="14" lengthAdjust="spacing" textLength="61.5125" font-family="sans-serif">BaseChat</text><rect x="105.7525" y="112" width="10.025" height="14" fill="#FFFFFF" style="stroke:#181818;stroke-width:1;stroke-dasharray:2,2;"/><text x="106.7525" y="122.3333" fill="#000000" font-size="12" lengthAdjust="spacing" textLength="8.025" font-style="italic" font-family="sans-serif">A</text><line x1="8.24" y1="147" x2="111.7775" y2="147" style="stroke:#181818;stroke-width:0.5;"/><line x1="8.24" y1="155" x2="111.7775" y2="155" style="stroke:#181818;stroke-width:0.5;"/></g><!--class BaseEntity--><g class="entity" data-qualified-name="BaseEntity" id="ent0002"><rect x="10.54" y="7" width="98.9375" height="48" fill="#F1F1F1" style="stroke:#181818;stroke-width:0.5;" rx="2.5" ry="2.5"/><ellipse cx="25.54" cy="23" rx="11" ry="11" fill="#ADD1B2" style="stroke:#181818;stroke-width:1;"/><path d="M28.0131,29.1431 Q27.4321,29.4419 26.7929,29.5913 Q26.1538,29.7407 25.4482,29.7407 Q22.9414,29.7407 21.6215,28.0889 Q20.3017,26.437 20.3017,23.3159 Q20.3017,20.1865 21.6215,18.5347 Q22.9414,16.8828 25.4482,16.8828 Q26.1538,16.8828 26.8012,17.0322 Q27.4487,17.1816 28.0131,17.4805 L28.0131,20.2031 Q27.3823,19.6221 26.7888,19.3523 Q26.1953,19.0825 25.5644,19.0825 Q24.2197,19.0825 23.5349,20.1492 Q22.8501,21.2158 22.8501,23.3159 Q22.8501,25.4077 23.5349,26.4744 Q24.2197,27.541 25.5644,27.541 Q26.1953,27.541 26.7888,27.2712 Q27.3823,27.0015 28.0131,26.4204 Z " fill="#000000"/><text x="39.54" y="26.8889" fill="#000000" font-size="14" lengthAdjust="spacing" textLength="66.9375" font-family="sans-serif">BaseEntity</text><line x1="11.54" y1="39" x2="108.4775" y2="39" style="stroke:#181818;stroke-width:0.5;"/><line x1="11.54" y1="47" x2="108.4775" y2="47" style="stroke:#181818;stroke-width:0.5;"/></g><!--class CoupleChat--><g class="entity" data-qualified-name="CoupleChat" id="ent0004" data-source-line="4"><rect x="7" y="223" width="106.025" height="48" fill="#F1F1F1" style="stroke:#181818;stroke-width:0.5;" rx="2.5" ry="2.5"/><ellipse cx="22" cy="239" rx="11" ry="11" fill="#ADD1B2" style="stroke:#181818;stroke-width:1;"/><path d="M24.4731,245.1431 Q23.8921,245.4419 23.2529,245.5913 Q22.6138,245.7407 21.9082,245.7407 Q19.4014,245.7407 18.0815,244.0889 Q16.7617,242.437 16.7617,239.3159 Q16.7617,236.1865 18.0815,234.5347 Q19.4014,232.8828 21.9082,232.8828 Q22.6138,232.8828 23.2612,233.0322 Q23.9087,233.1816 24.4731,233.4805 L24.4731,236.2031 Q23.8423,235.6221 23.2488,235.3523 Q22.6553,235.0825 22.0244,235.0825 Q20.6797,235.0825 19.9949,236.1492 Q19.3101,237.2158 19.3101,239.3159 Q19.3101,241.4077 19.9949,242.4744 Q20.6797,243.541 22.0244,243.541 Q22.6553,243.541 23.2488,243.2712 Q23.8423,243.0015 24.4731,242.4204 Z " fill="#000000"/><text x="36" y="242.8889" fill="#000000" font-size="14" lengthAdjust="spacing" textLength="74.025" font-family="sans-serif">CoupleChat</text><line x1="8" y1="255" x2="112.025" y2="255" style="stroke:#181818;stroke-width:0.5;"/><line x1="8" y1="263" x2="112.025" y2="263" style="stroke:#181818;stroke-width:0.5;"/></g><!--reverse link BaseEntity to BaseChat--><g class="link" data-entity-1="ent0002" data-entity-2="ent0001" id="lnk3" data-link-type="extension"><path d="M60.01,73.26 C60.01,90.94 60.01,97.13 60.01,114.79" style="stroke:#181818;stroke-width:1;" fill="none" id="BaseEntity-backto-BaseChat"/><polygon points="60.01,55.26,54.01,73.26,66.01,73.26,60.01,55.26" fill="none" style="stroke:#181818;stroke-width:1;stroke-linejoin:miter;stroke-miterlimit:10;"/></g><!--reverse link BaseChat to CoupleChat--><g class="link" data-entity-1="ent0001" data-entity-2="ent0004" id="lnk5" data-link-type="extension"><path d="M60.01,181.26 C60.01,198.94 60.01,205.13 60.01,222.79" style="stroke:#181818;stroke-width:1;" fill="none" id="BaseChat-backto-CoupleChat"/><polygon points="60.01,163.26,54.01,181.26,66.01,181.26,60.01,163.26" fill="none" style="stroke:#181818;stroke-width:1;stroke-linejoin:miter;stroke-miterlimit:10;"/></g><?plantuml-src Iyv9B2vMS4eiJdNEI2onSRHJIAqeISrBWOYvvfLabbGgL7FLSd4bWrKwvvSMv83LeYY4QGQf1000?></g></svg>