<svg xmlns="http://www.w3.org/2000/svg" xmlns:xlink="http://www.w3.org/1999/xlink" version="1.1" data-diagram-type="CLASS" style="width:143px;height:186px;background:#FFFFFF;" width="143px" height="186px" viewBox="0 0 143 186" zoomAndPan="magnify" preserveAspectRatio="none" contentStyleType="text/css"><?plantuml $version$?><defs/><g><!--class a--><g class="entity" data-qualified-name="a" id="ent0001" data-source-line="18"><rect x="7" y="7" width="47.35" height="52" fill="#00FFFF" style="stroke:#181818;stroke-width:0.5;" rx="2.5" ry="2.5"/><ellipse cx="22" cy="25" rx="11" ry="11" fill="#ADD1B2" style="stroke:#181818;stroke-width:1;"/><path d="M24.4731,31.1431 Q23.8921,31.4419 23.2529,31.5913 Q22.6138,31.7407 21.9082,31.7407 Q19.4014,31.7407 18.0815,30.0889 Q16.7617,28.437 16.7617,25.3159 Q16.7617,22.1865 18.0815,20.5347 Q19.4014,18.8828 21.9082,18.8828 Q22.6138,18.8828 23.2612,19.0322 Q23.9087,19.1816 24.4731,19.4805 L24.4731,22.2031 Q23.8423,21.6221 23.2488,21.3523 Q22.6553,21.0825 22.0244,21.0825 Q20.6797,21.0825 19.9949,22.1492 Q19.3101,23.2158 19.3101,25.3159 Q19.3101,27.4077 19.9949,28.4744 Q20.6797,29.541 22.0244,29.541 Q22.6553,29.541 23.2488,29.2712 Q23.8423,29.0015 24.4731,28.4204 Z " fill="#000000"/><text x="34" y="21.3333" fill="#000000" font-size="12" lengthAdjust="spacing" textLength="19.35" font-style="italic" font-family="sans-serif">«x»</text><text x="39.7813" y="34.8889" fill="#000000" font-size="14" lengthAdjust="spacing" textLength="7.7875" font-family="sans-serif">a</text><line x1="8" y1="43" x2="53.35" y2="43" style="stroke:#181818;stroke-width:0.5;"/><line x1="8" y1="51" x2="53.35" y2="51" style="stroke:#181818;stroke-width:0.5;"/></g><!--class b--><g class="entity" data-qualified-name="b" id="ent0002" data-source-line="19"><rect x="7" y="119" width="47.35" height="52" fill="#FF0000" style="stroke:#181818;stroke-width:0.5;" rx="2.5" ry="2.5"/><ellipse cx="22" cy="137" rx="11" ry="11" fill="#ADD1B2" style="stroke:#181818;stroke-width:1;"/><path d="M24.4731,143.1431 Q23.8921,143.4419 23.2529,143.5913 Q22.6138,143.7407 21.9082,143.7407 Q19.4014,143.7407 18.0815,142.0889 Q16.7617,140.437 16.7617,137.3159 Q16.7617,134.1865 18.0815,132.5347 Q19.4014,130.8828 21.9082,130.8828 Q22.6138,130.8828 23.2612,131.0322 Q23.9087,131.1816 24.4731,131.4805 L24.4731,134.2031 Q23.8423,133.6221 23.2488,133.3523 Q22.6553,133.0825 22.0244,133.0825 Q20.6797,133.0825 19.9949,134.1492 Q19.3101,135.2158 19.3101,137.3159 Q19.3101,139.4077 19.9949,140.4744 Q20.6797,141.541 22.0244,141.541 Q22.6553,141.541 23.2488,141.2712 Q23.8423,141.0015 24.4731,140.4204 Z " fill="#000000"/><text x="34" y="133.3333" fill="#000000" font-size="12" lengthAdjust="spacing" textLength="19.35" font-style="italic" font-family="sans-serif">«y»</text><text x="39.7813" y="146.8889" fill="#000000" font-size="14" lengthAdjust="spacing" textLength="7.7875" font-family="sans-serif">b</text><line x1="8" y1="155" x2="53.35" y2="155" style="stroke:#181818;stroke-width:0.5;"/><line x1="8" y1="163" x2="53.35" y2="163" style="stroke:#181818;stroke-width:0.5;"/></g><!--class c--><g class="entity" data-qualified-name="c" id="ent0003" data-source-line="20"><rect x="89.17" y="9" width="39" height="48" fill="#00FF00" style="stroke:#181818;stroke-width:0.5;" rx="2.5" ry="2.5"/><ellipse cx="104.17" cy="25" rx="11" ry="11" fill="#ADD1B2" style="stroke:#181818;stroke-width:1;"/><path d="M106.6431,31.1431 Q106.0621,31.4419 105.4229,31.5913 Q104.7838,31.7407 104.0782,31.7407 Q101.5714,31.7407 100.2515,30.0889 Q98.9317,28.437 98.9317,25.3159 Q98.9317,22.1865 100.2515,20.5347 Q101.5714,18.8828 104.0782,18.8828 Q104.7838,18.8828 105.4312,19.0322 Q106.0787,19.1816 106.6431,19.4805 L106.6431,22.2031 Q106.0123,21.6221 105.4188,21.3523 Q104.8253,21.0825 104.1944,21.0825 Q102.8497,21.0825 102.1649,22.1492 Q101.4801,23.2158 101.4801,25.3159 Q101.4801,27.4077 102.1649,28.4744 Q102.8497,29.541 104.1944,29.541 Q104.8253,29.541 105.4188,29.2712 Q106.0123,29.0015 106.6431,28.4204 Z " fill="#000000"/><text x="118.17" y="28.8889" fill="#000000" font-size="14" lengthAdjust="spacing" textLength="7" font-family="sans-serif">c</text><line x1="90.17" y1="41" x2="127.17" y2="41" style="stroke:#181818;stroke-width:0.5;"/><line x1="90.17" y1="49" x2="127.17" y2="49" style="stroke:#181818;stroke-width:0.5;"/></g><!--link a to b--><g class="link" data-entity-1="ent0001" data-entity-2="ent0002" id="lnk4" data-source-line="21" data-link-type="dependency"><path d="M30.68,59.24 C30.68,77 30.68,95.68 30.68,113.5" style="stroke:#0000FF;stroke-width:1;" fill="none" id="a-to-b" codeLine="21"/><polygon points="30.68,118.5,34.68,109.5,30.68,113.5,26.68,109.5,30.68,118.5" fill="#0000FF" style="stroke:#0000FF;stroke-width:1;stroke-linejoin:miter;stroke-miterlimit:10;"/></g><?plantuml-src ioakgSn9jUDApaaiBdR9J4mlIipbgkPII2mgoYzN0390m2SpBzKvFoU_I24ffpILIw6MIm6i7YRlb9YSdLwKNvgN0b6bR62GbcPWeA00LgfNWLTTMXfCNILETI3JOERLSjde8pjQ8L71ngR23iPB0l8guRnahaG5NLqxXIG0?></g></svg>