<svg xmlns="http://www.w3.org/2000/svg" xmlns:xlink="http://www.w3.org/1999/xlink" version="1.1" data-diagram-type="CLASS" style="width:139px;height:178px;background:#FFFFFF;" width="139px" height="178px" viewBox="0 0 139 178" zoomAndPan="magnify" preserveAspectRatio="none" contentStyleType="text/css"><?plantuml $version$?><defs/><g><!--class A--><g class="entity" data-qualified-name="A" id="ent0001" data-source-line="1"><rect x="7.39" y="7" width="41.3625" height="48" fill="#F1F1F1" style="stroke:#181818;stroke-width:0.5;" rx="2.5" ry="2.5"/><ellipse cx="22.39" cy="23" rx="11" ry="11" fill="#ADD1B2" style="stroke:#181818;stroke-width:1;"/><path d="M24.8631,29.1431 Q24.2821,29.4419 23.6429,29.5913 Q23.0038,29.7407 22.2982,29.7407 Q19.7914,29.7407 18.4715,28.0889 Q17.1517,26.437 17.1517,23.3159 Q17.1517,20.1865 18.4715,18.5347 Q19.7914,16.8828 22.2982,16.8828 Q23.0038,16.8828 23.6512,17.0322 Q24.2987,17.1816 24.8631,17.4805 L24.8631,20.2031 Q24.2323,19.6221 23.6388,19.3523 Q23.0453,19.0825 22.4144,19.0825 Q21.0697,19.0825 20.3849,20.1492 Q19.7001,21.2158 19.7001,23.3159 Q19.7001,25.4077 20.3849,26.4744 Q21.0697,27.541 22.4144,27.541 Q23.0453,27.541 23.6388,27.2712 Q24.2323,27.0015 24.8631,26.4204 Z " fill="#000000"/><text x="36.39" y="26.8889" fill="#000000" font-size="14" lengthAdjust="spacing" textLength="9.3625" font-family="sans-serif">A</text><line x1="8.39" y1="39" x2="47.7525" y2="39" style="stroke:#181818;stroke-width:0.5;"/><line x1="8.39" y1="47" x2="47.7525" y2="47" style="stroke:#181818;stroke-width:0.5;"/></g><!--class B--><g class="entity" data-qualified-name="B" id="ent0002" data-source-line="2"><rect x="83.39" y="7" width="41.3625" height="48" fill="#F1F1F1" style="stroke:#181818;stroke-width:0.5;" rx="2.5" ry="2.5"/><ellipse cx="98.39" cy="23" rx="11" ry="11" fill="#ADD1B2" style="stroke:#181818;stroke-width:1;"/><path d="M100.8631,29.1431 Q100.2821,29.4419 99.6429,29.5913 Q99.0038,29.7407 98.2982,29.7407 Q95.7914,29.7407 94.4715,28.0889 Q93.1517,26.437 93.1517,23.3159 Q93.1517,20.1865 94.4715,18.5347 Q95.7914,16.8828 98.2982,16.8828 Q99.0038,16.8828 99.6512,17.0322 Q100.2987,17.1816 100.8631,17.4805 L100.8631,20.2031 Q100.2323,19.6221 99.6388,19.3523 Q99.0453,19.0825 98.4144,19.0825 Q97.0697,19.0825 96.3849,20.1492 Q95.7001,21.2158 95.7001,23.3159 Q95.7001,25.4077 96.3849,26.4744 Q97.0697,27.541 98.4144,27.541 Q99.0453,27.541 99.6388,27.2712 Q100.2323,27.0015 100.8631,26.4204 Z " fill="#000000"/><text x="112.39" y="26.8889" fill="#000000" font-size="14" lengthAdjust="spacing" textLength="9.3625" font-family="sans-serif">B</text><line x1="84.39" y1="39" x2="123.7525" y2="39" style="stroke:#181818;stroke-width:0.5;"/><line x1="84.39" y1="47" x2="123.7525" y2="47" style="stroke:#181818;stroke-width:0.5;"/></g><!--class C--><g class="entity" data-qualified-name="C" id="ent0003" data-source-line="3"><rect x="7" y="115" width="42.15" height="48" fill="#F1F1F1" style="stroke:#181818;stroke-width:0.5;" rx="2.5" ry="2.5"/><ellipse cx="22" cy="131" rx="11" ry="11" fill="#ADD1B2" style="stroke:#181818;stroke-width:1;"/><path d="M24.4731,137.1431 Q23.8921,137.4419 23.2529,137.5913 Q22.6138,137.7407 21.9082,137.7407 Q19.4014,137.7407 18.0815,136.0889 Q16.7617,134.437 16.7617,131.3159 Q16.7617,128.1865 18.0815,126.5347 Q19.4014,124.8828 21.9082,124.8828 Q22.6138,124.8828 23.2612,125.0322 Q23.9087,125.1816 24.4731,125.4805 L24.4731,128.2031 Q23.8423,127.6221 23.2488,127.3523 Q22.6553,127.0825 22.0244,127.0825 Q20.6797,127.0825 19.9949,128.1492 Q19.3101,129.2158 19.3101,131.3159 Q19.3101,133.4077 19.9949,134.4744 Q20.6797,135.541 22.0244,135.541 Q22.6553,135.541 23.2488,135.2712 Q23.8423,135.0015 24.4731,134.4204 Z " fill="#000000"/><text x="36" y="134.8889" fill="#000000" font-size="14" lengthAdjust="spacing" textLength="10.15" font-family="sans-serif">C</text><line x1="8" y1="147" x2="48.15" y2="147" style="stroke:#181818;stroke-width:0.5;"/><line x1="8" y1="155" x2="48.15" y2="155" style="stroke:#181818;stroke-width:0.5;"/></g><?plantuml-src Iyv9B2vMSEHA1jDEKDeP0000?></g></svg>