<svg xmlns="http://www.w3.org/2000/svg" xmlns:xlink="http://www.w3.org/1999/xlink" version="1.1" data-diagram-type="STATE" style="width:303px;height:426px;background:#FFFFFF;" width="303px" height="426px" viewBox="0 0 303 426" zoomAndPan="magnify" preserveAspectRatio="none" contentStyleType="text/css"><?plantuml $version$?><defs/><g><g class="entity" data-qualified-name="Big1" id="ent0001" data-source-line="5"><path d="M19.5,7 L80.5,7 A12.5,12.5 0 0 1 93,19.5 L93,31 L7,31 L7,19.5 A12.5,12.5 0 0 1 19.5,7" fill="#F1F1F1"/><rect x="7" y="7" width="86" height="185" fill="none" style="stroke:#181818;stroke-width:0.5;" rx="12.5" ry="12.5"/><line x1="7" y1="31" x2="93" y2="31" style="stroke:#181818;stroke-width:0.5;"/><text x="35.9563" y="22.8889" fill="#000000" font-size="14" lengthAdjust="spacing" textLength="28.0875" font-family="sans-serif">Big1</text><g class="entity" data-qualified-name="Big1.b1" id="ent0008" data-source-line="6"><rect x="19" y="43" width="50" height="50" fill="#F1F1F1" style="stroke:#181818;stroke-width:0.5;" rx="12.5" ry="12.5"/><line x1="19" y1="67" x2="69" y2="67" style="stroke:#181818;stroke-width:0.5;"/><text x="36.2125" y="58.8889" fill="#000000" font-size="14" lengthAdjust="spacing" textLength="15.575" font-family="sans-serif">b1</text></g><g class="entity" data-qualified-name="Big1.b2" id="ent0009" data-source-line="6"><rect x="19" y="129" width="50" height="50" fill="#F1F1F1" style="stroke:#181818;stroke-width:0.5;" rx="12.5" ry="12.5"/><line x1="19" y1="153" x2="69" y2="153" style="stroke:#181818;stroke-width:0.5;"/><text x="36.2125" y="144.8889" fill="#000000" font-size="14" lengthAdjust="spacing" textLength="15.575" font-family="sans-serif">b2</text></g><!--link b1 to b2--><g class="link" data-entity-1="ent0008" data-entity-2="ent0009" id="lnk10" data-source-line="6" data-link-type="dependency"><path d="M44,93.3 C44,104.44 44,112.62 44,123.76" style="stroke:#181818;stroke-width:1;" fill="none" id="b1-to-b2"/><polygon points="44,128.76,48,119.76,44,123.76,40,119.76,44,128.76" fill="#181818" style="stroke:#181818;stroke-width:1;stroke-linejoin:miter;stroke-miterlimit:10;"/></g></g><g class="entity" data-qualified-name="Big2" id="ent0002" data-source-line="9"><path d="M140.5,7 L201.5,7 A12.5,12.5 0 0 1 214,19.5 L214,31 L128,31 L128,19.5 A12.5,12.5 0 0 1 140.5,7" fill="#F1F1F1"/><rect x="128" y="7" width="86" height="185" fill="none" style="stroke:#181818;stroke-width:0.5;" rx="12.5" ry="12.5"/><line x1="128" y1="31" x2="214" y2="31" style="stroke:#181818;stroke-width:0.5;"/><text x="156.9563" y="22.8889" fill="#000000" font-size="14" lengthAdjust="spacing" textLength="28.0875" font-family="sans-serif">Big2</text><g class="entity" data-qualified-name="Big2.c1" id="ent0011" data-source-line="10"><rect x="140" y="43" width="50" height="50" fill="#F1F1F1" style="stroke:#181818;stroke-width:0.5;" rx="12.5" ry="12.5"/><line x1="140" y1="67" x2="190" y2="67" style="stroke:#181818;stroke-width:0.5;"/><text x="157.6063" y="58.8889" fill="#000000" font-size="14" lengthAdjust="spacing" textLength="14.7875" font-family="sans-serif">c1</text></g><g class="entity" data-qualified-name="Big2.c2" id="ent0012" data-source-line="10"><rect x="140" y="129" width="50" height="50" fill="#F1F1F1" style="stroke:#181818;stroke-width:0.5;" rx="12.5" ry="12.5"/><line x1="140" y1="153" x2="190" y2="153" style="stroke:#181818;stroke-width:0.5;"/><text x="157.6063" y="144.8889" fill="#000000" font-size="14" lengthAdjust="spacing" textLength="14.7875" font-family="sans-serif">c2</text></g><!--link c1 to c2--><g class="link" data-entity-1="ent0011" data-entity-2="ent0012" id="lnk13" data-source-line="10" data-link-type="dependency"><path d="M165,93.3 C165,104.44 165,112.62 165,123.76" style="stroke:#181818;stroke-width:1;" fill="none" id="c1-to-c2"/><polygon points="165,128.76,169,119.76,165,123.76,161,119.76,165,128.76" fill="#181818" style="stroke:#181818;stroke-width:1;stroke-linejoin:miter;stroke-miterlimit:10;"/></g></g><g class="start_entity" data-qualified-name=".start." id="ent0003" data-source-line="2"><ellipse cx="259" cy="99.5" rx="10" ry="10" fill="#222222" style="stroke:#222222;stroke-width:1;"/></g><g class="entity" data-qualified-name="Active" id="ent0004" data-source-line="2"><rect x="229.92" y="252" width="58.15" height="50" fill="#F1F1F1" style="stroke:#181818;stroke-width:0.5;" rx="12.5" ry="12.5"/><line x1="229.92" y1="276" x2="288.07" y2="276" style="stroke:#181818;stroke-width:0.5;"/><text x="239.92" y="267.8889" fill="#000000" font-size="14" lengthAdjust="spacing" textLength="38.15" font-family="sans-serif">Active</text></g><g class="entity" data-qualified-name="Other" id="ent0006" data-source-line="3"><rect x="231.54" y="362" width="54.9125" height="50" fill="#F1F1F1" style="stroke:#181818;stroke-width:0.5;" rx="12.5" ry="12.5"/><line x1="231.54" y1="386" x2="286.4525" y2="386" style="stroke:#181818;stroke-width:0.5;"/><text x="241.54" y="377.8889" fill="#000000" font-size="14" lengthAdjust="spacing" textLength="34.9125" font-family="sans-serif">Other</text></g><!--link *start* to Active--><g class="link" data-entity-1="ent0003" data-entity-2="ent0004" id="lnk5" data-source-line="2" data-link-type="dependency"><path d="M259,109.94 C259,136.49 259,207.49 259,246.8" style="stroke:#181818;stroke-width:1;" fill="none" id="*start*-to-Active"/><polygon points="259,251.8,263,242.8,259,246.8,255,242.8,259,251.8" fill="#181818" style="stroke:#181818;stroke-width:1;stroke-linejoin:miter;stroke-miterlimit:10;"/></g><!--link Active to Other--><g class="link" data-entity-1="ent0004" data-entity-2="ent0006" id="lnk7" data-source-line="3" data-link-type="dependency"><path d="M259,302.24 C259,320.02 259,339.08 259,356.84" style="stroke:#181818;stroke-width:1;" fill="none" id="Active-to-Other"/><polygon points="259,361.84,263,352.84,259,356.84,255,352.84,259,361.84" fill="#181818" style="stroke:#181818;stroke-width:1;stroke-linejoin:miter;stroke-miterlimit:10;"/></g><?plantuml-src YzQALT3LjLDmJ2x9B4lbWb1W4V-IZDGYBgxYaiIIL0Mdp7H3XMgk94EmL98HLosIZ15G9XaYamoI0G00?></g></svg>