<svg xmlns="http://www.w3.org/2000/svg" xmlns:xlink="http://www.w3.org/1999/xlink" version="1.1" data-diagram-type="CLASS" style="width:176px;height:286px;background:#FFFFFF;" width="176px" height="286px" viewBox="0 0 176 286" zoomAndPan="magnify" preserveAspectRatio="none" contentStyleType="text/css"><?plantuml $version$?><defs/><g><!--class A--><g class="entity" data-qualified-name="A" id="ent0001" data-source-line="1"><rect x="44.39" y="7" width="41.3625" height="48" fill="#F1F1F1" style="stroke:#181818;stroke-width:0.5;" rx="2.5" ry="2.5"/><ellipse cx="59.39" cy="23" rx="11" ry="11" fill="#ADD1B2" style="stroke:#181818;stroke-width:1;"/><path d="M61.8631,29.1431 Q61.2821,29.4419 60.6429,29.5913 Q60.0038,29.7407 59.2982,29.7407 Q56.7914,29.7407 55.4715,28.0889 Q54.1517,26.437 54.1517,23.3159 Q54.1517,20.1865 55.4715,18.5347 Q56.7914,16.8828 59.2982,16.8828 Q60.0038,16.8828 60.6512,17.0322 Q61.2987,17.1816 61.8631,17.4805 L61.8631,20.2031 Q61.2323,19.6221 60.6388,19.3523 Q60.0453,19.0825 59.4144,19.0825 Q58.0697,19.0825 57.3849,20.1492 Q56.7001,21.2158 56.7001,23.3159 Q56.7001,25.4077 57.3849,26.4744 Q58.0697,27.541 59.4144,27.541 Q60.0453,27.541 60.6388,27.2712 Q61.2323,27.0015 61.8631,26.4204 Z " fill="#000000"/><text x="73.39" y="26.8889" fill="#000000" font-size="14" lengthAdjust="spacing" textLength="9.3625" font-family="sans-serif">A</text><line x1="45.39" y1="39" x2="84.7525" y2="39" style="stroke:#181818;stroke-width:0.5;"/><line x1="45.39" y1="47" x2="84.7525" y2="47" style="stroke:#181818;stroke-width:0.5;"/></g><!--class B--><g class="entity" data-qualified-name="B" id="ent0002" data-source-line="1"><rect x="120.39" y="7" width="41.3625" height="48" fill="#F1F1F1" style="stroke:#181818;stroke-width:0.5;" rx="2.5" ry="2.5"/><ellipse cx="135.39" cy="23" rx="11" ry="11" fill="#ADD1B2" style="stroke:#181818;stroke-width:1;"/><path d="M137.8631,29.1431 Q137.2821,29.4419 136.6429,29.5913 Q136.0038,29.7407 135.2982,29.7407 Q132.7914,29.7407 131.4715,28.0889 Q130.1517,26.437 130.1517,23.3159 Q130.1517,20.1865 131.4715,18.5347 Q132.7914,16.8828 135.2982,16.8828 Q136.0038,16.8828 136.6512,17.0322 Q137.2987,17.1816 137.8631,17.4805 L137.8631,20.2031 Q137.2323,19.6221 136.6388,19.3523 Q136.0453,19.0825 135.4144,19.0825 Q134.0697,19.0825 133.3849,20.1492 Q132.7001,21.2158 132.7001,23.3159 Q132.7001,25.4077 133.3849,26.4744 Q134.0697,27.541 135.4144,27.541 Q136.0453,27.541 136.6388,27.2712 Q137.2323,27.0015 137.8631,26.4204 Z " fill="#000000"/><text x="149.39" y="26.8889" fill="#000000" font-size="14" lengthAdjust="spacing" textLength="9.3625" font-family="sans-serif">B</text><line x1="121.39" y1="39" x2="160.7525" y2="39" style="stroke:#181818;stroke-width:0.5;"/><line x1="121.39" y1="47" x2="160.7525" y2="47" style="stroke:#181818;stroke-width:0.5;"/></g><!--class C--><g class="entity" data-qualified-name="C" id="ent0004" data-source-line="2"><rect x="7" y="115" width="42.15" height="48" fill="#F1F1F1" style="stroke:#181818;stroke-width:0.5;" rx="2.5" ry="2.5"/><ellipse cx="22" cy="131" rx="11" ry="11" fill="#ADD1B2" style="stroke:#181818;stroke-width:1;"/><path d="M24.4731,137.1431 Q23.8921,137.4419 23.2529,137.5913 Q22.6138,137.7407 21.9082,137.7407 Q19.4014,137.7407 18.0815,136.0889 Q16.7617,134.437 16.7617,131.3159 Q16.7617,128.1865 18.0815,126.5347 Q19.4014,124.8828 21.9082,124.8828 Q22.6138,124.8828 23.2612,125.0322 Q23.9087,125.1816 24.4731,125.4805 L24.4731,128.2031 Q23.8423,127.6221 23.2488,127.3523 Q22.6553,127.0825 22.0244,127.0825 Q20.6797,127.0825 19.9949,128.1492 Q19.3101,129.2158 19.3101,131.3159 Q19.3101,133.4077 19.9949,134.4744 Q20.6797,135.541 22.0244,135.541 Q22.6553,135.541 23.2488,135.2712 Q23.8423,135.0015 24.4731,134.4204 Z " fill="#000000"/><text x="36" y="134.8889" fill="#000000" font-size="14" lengthAdjust="spacing" textLength="10.15" font-family="sans-serif">C</text><line x1="8" y1="147" x2="48.15" y2="147" style="stroke:#181818;stroke-width:0.5;"/><line x1="8" y1="155" x2="48.15" y2="155" style="stroke:#181818;stroke-width:0.5;"/></g><!--class D--><g class="entity" data-qualified-name="D" id="ent0006" data-source-line="3"><rect x="81" y="223" width="42.15" height="48" fill="#F1F1F1" style="stroke:#181818;stroke-width:0.5;" rx="2.5" ry="2.5"/><ellipse cx="96" cy="239" rx="11" ry="11" fill="#ADD1B2" style="stroke:#181818;stroke-width:1;"/><path d="M98.4731,245.1431 Q97.8921,245.4419 97.2529,245.5913 Q96.6138,245.7407 95.9082,245.7407 Q93.4014,245.7407 92.0815,244.0889 Q90.7617,242.437 90.7617,239.3159 Q90.7617,236.1865 92.0815,234.5347 Q93.4014,232.8828 95.9082,232.8828 Q96.6138,232.8828 97.2612,233.0322 Q97.9087,233.1816 98.4731,233.4805 L98.4731,236.2031 Q97.8423,235.6221 97.2488,235.3523 Q96.6553,235.0825 96.0244,235.0825 Q94.6797,235.0825 93.9949,236.1492 Q93.3101,237.2158 93.3101,239.3159 Q93.3101,241.4077 93.9949,242.4744 Q94.6797,243.541 96.0244,243.541 Q96.6553,243.541 97.2488,243.2712 Q97.8423,243.0015 98.4731,242.4204 Z " fill="#000000"/><text x="110" y="242.8889" fill="#000000" font-size="14" lengthAdjust="spacing" textLength="10.15" font-family="sans-serif">D</text><line x1="82" y1="255" x2="122.15" y2="255" style="stroke:#181818;stroke-width:0.5;"/><line x1="82" y1="263" x2="122.15" y2="263" style="stroke:#181818;stroke-width:0.5;"/></g><!--reverse link A to B--><g class="link" data-entity-1="ent0001" data-entity-2="ent0002" id="lnk3" data-source-line="1" data-link-type="extension"><path d="M104.15,31 C115.45,31 108.75,31 120.05,31" style="stroke:#181818;stroke-width:1;" fill="none" id="A-backto-B" codeLine="1"/><polygon points="86.15,31,104.15,37,104.15,25,86.15,31" fill="none" style="stroke:#181818;stroke-width:1;stroke-linejoin:miter;stroke-miterlimit:10;"/></g><!--reverse link A to C--><g class="link" data-entity-1="ent0001" data-entity-2="ent0004" id="lnk5" data-source-line="2" data-link-type="extension"><path d="M51.0291,72.2548 C44.8591,89.9348 42.34,97.13 36.18,114.79" style="stroke:#181818;stroke-width:1;" fill="none" id="A-backto-C" codeLine="2"/><polygon points="56.96,55.26,45.3642,70.2779,56.6941,74.2318,56.96,55.26" fill="none" style="stroke:#181818;stroke-width:1;stroke-linejoin:miter;stroke-miterlimit:10;"/></g><!--reverse link A to D--><g class="link" data-entity-1="ent0001" data-entity-2="ent0006" id="lnk7" data-source-line="3" data-link-type="extension"><path d="M72.174,73.0473 C79.284,114.2073 90.94,181.58 98.05,222.72" style="stroke:#181818;stroke-width:1;" fill="none" id="A-backto-D" codeLine="3"/><polygon points="69.11,55.31,66.2615,74.0686,78.0864,72.026,69.11,55.31" fill="none" style="stroke:#181818;stroke-width:1;stroke-linejoin:miter;stroke-miterlimit:10;"/></g><?plantuml-src SrImgT5rud84KReApb26he8B5m00?></g></svg>