<svg xmlns="http://www.w3.org/2000/svg" xmlns:xlink="http://www.w3.org/1999/xlink" version="1.1" data-diagram-type="CLASS" style="width:119px;height:178px;background:#FFFFFF;" width="119px" height="178px" viewBox="0 0 119 178" zoomAndPan="magnify" preserveAspectRatio="none" contentStyleType="text/css"><?plantuml $version$?><defs/><g><!--class PA1--><g class="entity" data-qualified-name="PA1" id="ent0001" data-source-line="1"><rect x="7" y="115" width="97.3625" height="48" fill="#F1F1F1" style="stroke:#181818;stroke-width:0.5;" rx="2.5" ry="2.5"/><ellipse cx="22" cy="131" rx="11" ry="11" fill="#ADD1B2" style="stroke:#181818;stroke-width:1;"/><path d="M24.4731,137.1431 Q23.8921,137.4419 23.2529,137.5913 Q22.6138,137.7407 21.9082,137.7407 Q19.4014,137.7407 18.0815,136.0889 Q16.7617,134.437 16.7617,131.3159 Q16.7617,128.1865 18.0815,126.5347 Q19.4014,124.8828 21.9082,124.8828 Q22.6138,124.8828 23.2612,125.0322 Q23.9087,125.1816 24.4731,125.4805 L24.4731,128.2031 Q23.8423,127.6221 23.2488,127.3523 Q22.6553,127.0825 22.0244,127.0825 Q20.6797,127.0825 19.9949,128.1492 Q19.3101,129.2158 19.3101,131.3159 Q19.3101,133.4077 19.9949,134.4744 Q20.6797,135.541 22.0244,135.541 Q22.6553,135.541 23.2488,135.2712 Q23.8423,135.0015 24.4731,134.4204 Z " fill="#000000"/><text x="36" y="134.8889" fill="#000000" font-size="14" lengthAdjust="spacing" textLength="65.3625" font-family="sans-serif">ProductA1</text><line x1="8" y1="147" x2="103.3625" y2="147" style="stroke:#181818;stroke-width:0.5;"/><line x1="8" y1="155" x2="103.3625" y2="155" style="stroke:#181818;stroke-width:0.5;"/></g><!--class APA--><g class="entity" data-qualified-name="APA" id="ent0002" data-source-line="2"><rect x="25.64" y="7" width="60.0875" height="48" fill="#F1F1F1" style="stroke:#181818;stroke-width:0.5;" rx="2.5" ry="2.5"/><ellipse cx="40.64" cy="23" rx="11" ry="11" fill="#B4A7E5" style="stroke:#181818;stroke-width:1;"/><path d="M37.0677,19.2651 L37.0677,17.1069 L44.4471,17.1069 L44.4471,19.2651 L41.9818,19.2651 L41.9818,27.3418 L44.4471,27.3418 L44.4471,29.5 L37.0677,29.5 L37.0677,27.3418 L39.5331,27.3418 L39.5331,19.2651 Z " fill="#000000"/><text x="54.64" y="26.8889" fill="#000000" font-size="14" lengthAdjust="spacing" textLength="28.0875" font-style="italic" font-family="sans-serif">APA</text><line x1="26.64" y1="39" x2="84.7275" y2="39" style="stroke:#181818;stroke-width:0.5;"/><line x1="26.64" y1="47" x2="84.7275" y2="47" style="stroke:#181818;stroke-width:0.5;"/></g><!--reverse link APA to PA1--><g class="link" data-entity-1="ent0002" data-entity-2="ent0001" id="lnk3" data-source-line="2" data-link-type="extension"><path d="M55.68,73.26 C55.68,90.94 55.68,97.13 55.68,114.79" style="stroke:#181818;stroke-width:1;stroke-dasharray:7,7;" fill="none" id="APA-backto-PA1"/><polygon points="55.68,55.26,49.68,73.26,61.68,73.26,55.68,55.26" fill="none" style="stroke:#181818;stroke-width:1;stroke-linejoin:miter;stroke-miterlimit:10;"/></g><?plantuml-src Iyv9B2vMK0eeoayfJIvnD5HII2nM270qv4e6Im1P2fcv1JcfkQbv9SKAZW6EN000?></g></svg>