<svg xmlns="http://www.w3.org/2000/svg" xmlns:xlink="http://www.w3.org/1999/xlink" version="1.1" data-diagram-type="CLASS" style="width:165px;height:74px;background:#FFFFFF;" width="165px" height="74px" viewBox="0 0 165 74" zoomAndPan="magnify" preserveAspectRatio="none" contentStyleType="text/css"><?plantuml $version$?><defs/><g><!--class bob--><!--class joe--><g class="entity" data-qualified-name="joe" id="ent0002" data-source-line="4"><rect x="99.64" y="9" width="50.725" height="48" fill="#F1F1F1" style="stroke:#181818;stroke-width:0.5;" rx="2.5" ry="2.5"/><ellipse cx="114.64" cy="25" rx="11" ry="11" fill="#ADD1B2" style="stroke:#181818;stroke-width:1;"/><path d="M117.1131,31.1431 Q116.5321,31.4419 115.8929,31.5913 Q115.2538,31.7407 114.5482,31.7407 Q112.0414,31.7407 110.7215,30.0889 Q109.4017,28.437 109.4017,25.3159 Q109.4017,22.1865 110.7215,20.5347 Q112.0414,18.8828 114.5482,18.8828 Q115.2538,18.8828 115.9012,19.0322 Q116.5487,19.1816 117.1131,19.4805 L117.1131,22.2031 Q116.4823,21.6221 115.8888,21.3523 Q115.2953,21.0825 114.6644,21.0825 Q113.3197,21.0825 112.6349,22.1492 Q111.9501,23.2158 111.9501,25.3159 Q111.9501,27.4077 112.6349,28.4744 Q113.3197,29.541 114.6644,29.541 Q115.2953,29.541 115.8888,29.2712 Q116.4823,29.0015 117.1131,28.4204 Z " fill="#000000"/><text x="128.64" y="28.8889" fill="#000000" font-size="14" lengthAdjust="spacing" textLength="18.725" font-family="sans-serif">joe</text><line x1="100.64" y1="41" x2="149.365" y2="41" style="stroke:#181818;stroke-width:0.5;"/><line x1="100.64" y1="49" x2="149.365" y2="49" style="stroke:#181818;stroke-width:0.5;"/></g><?plantuml-src oyXCILMmiIb9JBUpKr3WIiv9B2vMICfFWebLSzL21RFoKu4S0000?></g></svg>