<svg xmlns="http://www.w3.org/2000/svg" xmlns:xlink="http://www.w3.org/1999/xlink" version="1.1" data-diagram-type="STATE" style="width:250px;height:101px;background:#FFFFFF;" width="250px" height="101px" viewBox="0 0 250 101" zoomAndPan="magnify" preserveAspectRatio="none" contentStyleType="text/css"><?plantuml $version$?><defs/><g><rect x="117" y="7" width="8" height="80" fill="#555555" style="stroke:none;stroke-width:1;"/><g class="entity" data-qualified-name="A" id="ent0002" data-source-line="3"><rect x="7" y="22" width="50" height="50" fill="#F1F1F1" style="stroke:#181818;stroke-width:0.5;" rx="12.5" ry="12.5"/><line x1="7" y1="46" x2="57" y2="46" style="stroke:#181818;stroke-width:0.5;"/><text x="27.3188" y="37.8889" fill="#000000" font-size="14" lengthAdjust="spacing" textLength="9.3625" font-family="sans-serif">A</text></g><g class="entity" data-qualified-name="B" id="ent0004" data-source-line="4"><rect x="185" y="22" width="50" height="50" fill="#F1F1F1" style="stroke:#181818;stroke-width:0.5;" rx="12.5" ry="12.5"/><line x1="185" y1="46" x2="235" y2="46" style="stroke:#181818;stroke-width:0.5;"/><text x="205.3188" y="37.8889" fill="#000000" font-size="14" lengthAdjust="spacing" textLength="9.3625" font-family="sans-serif">B</text></g><!--link A to f--><g class="link" data-entity-1="ent0002" data-entity-2="ent0001" id="lnk3" data-source-line="3" data-link-type="dependency"><path d="M57.23,47 C78.35,47 102.06,47 111.69,47" style="stroke:#181818;stroke-width:1;" fill="none" id="A-to-f"/><polygon points="116.69,47,107.69,43,111.69,47,107.69,51,116.69,47" fill="#181818" style="stroke:#181818;stroke-width:1;stroke-linejoin:miter;stroke-miterlimit:10;"/></g><!--link f to B--><g class="link" data-entity-1="ent0001" data-entity-2="ent0004" id="lnk5" data-source-line="4" data-link-type="dependency"><path d="M125.3,47 C134.93,47 158.58,47 179.69,47" style="stroke:#181818;stroke-width:1;" fill="none" id="f-to-B"/><polygon points="184.69,47,175.69,43,179.69,47,175.69,51,184.69,47" fill="#181818" style="stroke:#181818;stroke-width:1;stroke-linejoin:miter;stroke-miterlimit:10;"/></g><?plantuml-src oqbDAr4eoLSeoapFA558oInAJIx9pC_ZAYv9B4bLI5EmiKdBBygsi-DoLD3LjLD8uqe3qqu0?></g></svg>