<svg xmlns="http://www.w3.org/2000/svg" xmlns:xlink="http://www.w3.org/1999/xlink" version="1.1" data-diagram-type="CLASS" style="width:218px;height:139px;background:#FFFFFF;" width="218px" height="139px" viewBox="0 0 218 139" zoomAndPan="magnify" preserveAspectRatio="none" contentStyleType="text/css"><?plantuml $version$?><defs/><g><g class="title" data-source-line="10"><rect x="5" y="5" width="201.875" height="60" fill="#FF0000" style="stroke:none;stroke-width:2;" rx="7.5" ry="7.5"/><text x="10" y="48.8889" fill="#0000FF" font-size="50" lengthAdjust="spacing" textLength="191.875" font-weight="700" font-family="sans-serif">TestTitle</text></g><!--class dd--><g class="entity" data-qualified-name="dd" id="ent0001" data-source-line="12"><rect x="82.65" y="78" width="47.575" height="48" fill="#F1F1F1" style="stroke:#181818;stroke-width:0.5;" rx="2.5" ry="2.5"/><ellipse cx="97.65" cy="94" rx="11" ry="11" fill="#ADD1B2" style="stroke:#181818;stroke-width:1;"/><path d="M100.1231,100.1431 Q99.5421,100.4419 98.9029,100.5913 Q98.2638,100.7407 97.5582,100.7407 Q95.0514,100.7407 93.7315,99.0889 Q92.4117,97.437 92.4117,94.3159 Q92.4117,91.1865 93.7315,89.5347 Q95.0514,87.8828 97.5582,87.8828 Q98.2638,87.8828 98.9112,88.0322 Q99.5587,88.1816 100.1231,88.4805 L100.1231,91.2031 Q99.4923,90.6221 98.8988,90.3523 Q98.3053,90.0825 97.6744,90.0825 Q96.3297,90.0825 95.6449,91.1492 Q94.9601,92.2158 94.9601,94.3159 Q94.9601,96.4077 95.6449,97.4744 Q96.3297,98.541 97.6744,98.541 Q98.3053,98.541 98.8988,98.2712 Q99.4923,98.0015 100.1231,97.4204 Z " fill="#000000"/><text x="111.65" y="97.8889" fill="#000000" font-size="14" lengthAdjust="spacing" textLength="15.575" font-family="sans-serif">dd</text><line x1="83.65" y1="110" x2="129.225" y2="110" style="stroke:#181818;stroke-width:0.5;"/><line x1="83.65" y1="118" x2="129.225" y2="118" style="stroke:#181818;stroke-width:0.5;"/></g><?plantuml-src FOtT2SCm38JVDOL6Q0DP88KC4Bo0iKHhx4f1SbvQkdl-IjxklZlkl6IPeyKtjjmgVm5nK2EsIHUXXvgmuRs_S7ZbL8JTiTjPJELfPxEgeJ5jT5HfdZ-C_UtlpdIe2yCFu7Z2mDx2hW1IZTiWqGe0?></g></svg>