<svg xmlns="http://www.w3.org/2000/svg" xmlns:xlink="http://www.w3.org/1999/xlink" version="1.1" data-diagram-type="DESCRIPTION" style="width:130px;height:198px;background:#FFFFFF;" width="130px" height="198px" viewBox="0 0 130 198" zoomAndPan="magnify" preserveAspectRatio="none" contentStyleType="text/css"><?plantuml $version$?><defs/><g><!--entity component--><g class="entity" data-qualified-name="component" id="ent0001" data-source-line="1"><rect x="7" y="7" width="109.2125" height="44" fill="#F1F1F1" style="stroke:#181818;stroke-width:0.5;" rx="2.5" ry="2.5"/><rect x="96.2125" y="12" width="15" height="10" fill="#F1F1F1" style="stroke:#181818;stroke-width:0.5;"/><rect x="94.2125" y="14" width="4" height="2" fill="#F1F1F1" style="stroke:#181818;stroke-width:0.5;"/><rect x="94.2125" y="18" width="4" height="2" fill="#F1F1F1" style="stroke:#181818;stroke-width:0.5;"/><text x="22" y="37.8889" fill="#000000" font-size="14" lengthAdjust="spacing" textLength="69.2125" font-family="sans-serif">component</text></g><!--entity actor--><g class="entity" data-qualified-name="actor" id="ent0002" data-source-line="1"><ellipse cx="61.6012" cy="119.5" rx="8" ry="8" fill="#F1F1F1" style="stroke:#181818;stroke-width:0.5;"/><path d="M61.6012,127.5 L61.6012,154.5 M48.6012,135.5 L74.6013,135.5 M61.6012,154.5 L48.6012,169.5 M61.6012,154.5 L74.6013,169.5" style="stroke:#181818;stroke-width:0.5;" fill="none"/><text x="46.07" y="181.8889" fill="#000000" font-size="14" lengthAdjust="spacing" textLength="31.0625" font-family="sans-serif">actor</text></g><!--link component to actor--><g class="link" data-entity-1="ent0001" data-entity-2="ent0002" id="lnk3" data-source-line="1" data-link-type="dependency"><path d="M61.61,51.46 C61.61,67.95 61.61,86.12 61.61,105.51" style="stroke:#181818;stroke-width:1;" fill="none" id="component-to-actor"/><polygon points="61.61,110.51,65.61,101.51,61.61,105.51,57.61,101.51,61.61,110.51" fill="#181818" style="stroke:#181818;stroke-width:1;stroke-linejoin:miter;stroke-miterlimit:10;"/></g><?plantuml-src YqxEpot8pqlDAubLqDMrKx1AJ2x9Bx820000?></g></svg>