<svg xmlns="http://www.w3.org/2000/svg" xmlns:xlink="http://www.w3.org/1999/xlink" version="1.1" data-diagram-type="CLASS" style="width:169px;height:178px;background:#FFFFFF;" width="169px" height="178px" viewBox="0 0 169 178" zoomAndPan="magnify" preserveAspectRatio="none" contentStyleType="text/css"><?plantuml $version$?><defs/><g><!--class Foo--><!--class Goo--><!--class Bar--><g class="entity" data-qualified-name="Bar" id="ent0004" data-source-line="3"><rect x="100.32" y="115" width="53.7875" height="48" fill="#F1F1F1" style="stroke:#181818;stroke-width:0.5;" rx="2.5" ry="2.5"/><ellipse cx="115.32" cy="131" rx="11" ry="11" fill="#ADD1B2" style="stroke:#181818;stroke-width:1;"/><path d="M117.7931,137.1431 Q117.2121,137.4419 116.5729,137.5913 Q115.9338,137.7407 115.2282,137.7407 Q112.7214,137.7407 111.4015,136.0889 Q110.0817,134.437 110.0817,131.3159 Q110.0817,128.1865 111.4015,126.5347 Q112.7214,124.8828 115.2282,124.8828 Q115.9338,124.8828 116.5812,125.0322 Q117.2287,125.1816 117.7931,125.4805 L117.7931,128.2031 Q117.1623,127.6221 116.5688,127.3523 Q115.9753,127.0825 115.3444,127.0825 Q113.9997,127.0825 113.3149,128.1492 Q112.6301,129.2158 112.6301,131.3159 Q112.6301,133.4077 113.3149,134.4744 Q113.9997,135.541 115.3444,135.541 Q115.9753,135.541 116.5688,135.2712 Q117.1623,135.0015 117.7931,134.4204 Z " fill="#000000"/><text x="129.32" y="134.8889" fill="#000000" font-size="14" lengthAdjust="spacing" textLength="21.7875" font-family="sans-serif">Bar</text><line x1="101.32" y1="147" x2="153.1075" y2="147" style="stroke:#181818;stroke-width:0.5;"/><line x1="101.32" y1="155" x2="153.1075" y2="155" style="stroke:#181818;stroke-width:0.5;"/></g><g class="entity" data-qualified-name="N1" id="ent0005" data-source-line="4"><path d="M99.73,19.5 L99.73,42.5 A0,0 0 0 0 99.73,42.5 L123.21,42.5 L127.21,114.65 L131.21,42.5 L154.6925,42.5 A0,0 0 0 0 154.6925,42.5 L154.6925,29.5 L144.6925,19.5 L99.73,19.5 A0,0 0 0 0 99.73,19.5" style="stroke:#181818;stroke-width:0.5;" fill="#FEFFDD"/><path d="M144.6925,19.5 L144.6925,29.5 L154.6925,29.5 L144.6925,19.5" style="stroke:#181818;stroke-width:0.5;" fill="#FEFFDD"/><text x="105.73" y="34.6111" fill="#000000" font-size="13" lengthAdjust="spacing" textLength="33.9625" font-family="sans-serif">A note</text></g><!--link Foo to Goo--><?plantuml-src Iyv9B2vMSClFLr19v09HkheAxldvNCbWSQV48WMLAgwy_99K1IL71H2jf91OhE1d2186adfw83LS6PafgGfQNCKP-UL02G00?></g></svg>