<svg xmlns="http://www.w3.org/2000/svg" xmlns:xlink="http://www.w3.org/1999/xlink" version="1.1" data-diagram-type="STATE" style="width:108px;height:185px;background:#FFFFFF;" width="108px" height="185px" viewBox="0 0 108 185" zoomAndPan="magnify" preserveAspectRatio="none" contentStyleType="text/css"><?plantuml $version$?><defs/><g><g class="entity" data-qualified-name="a" id="ent0001" data-source-line="2"><path d="M19.5,7 L80.5,7 A12.5,12.5 0 0 1 93,19.5 L93,31 L7,31 L7,19.5 A12.5,12.5 0 0 1 19.5,7" fill="#F1F1F1"/><rect x="7" y="7" width="86" height="164" fill="none" style="stroke:#0000FF;stroke-width:0.5;" rx="12.5" ry="12.5"/><line x1="7" y1="31" x2="93" y2="31" style="stroke:#0000FF;stroke-width:0.5;"/><text x="46.1063" y="22.8889" fill="#000000" font-size="14" lengthAdjust="spacing" textLength="7.7875" font-family="sans-serif">a</text><g class="entity" data-qualified-name="a.b" id="ent0002" data-source-line="3"><rect x="19" y="43" width="50" height="50" fill="#F1F1F1" style="stroke:#181818;stroke-width:0.5;" rx="12.5" ry="12.5"/><line x1="19" y1="67" x2="69" y2="67" style="stroke:#181818;stroke-width:0.5;"/><text x="40.1063" y="58.8889" fill="#000000" font-size="14" lengthAdjust="spacing" textLength="7.7875" font-family="sans-serif">b</text></g><line x1="12" y1="101" x2="86" y2="101" style="stroke:#181818;stroke-width:1.5;stroke-dasharray:8,10;"/><g class="entity" data-qualified-name="a.CONC1.c" id="ent0004" data-source-line="5"><rect x="19" y="108" width="50" height="50" fill="#F1F1F1" style="stroke:#181818;stroke-width:0.5;" rx="12.5" ry="12.5"/><line x1="19" y1="132" x2="69" y2="132" style="stroke:#181818;stroke-width:0.5;"/><text x="40.5" y="123.8889" fill="#000000" font-size="14" lengthAdjust="spacing" textLength="7" font-family="sans-serif">c</text></g></g><?plantuml-src AyxEp2j8B4hCLGWkIIn9TSelIaajSixFoI-oiSbDJSefJRMpKm1HNCKWUOL49E5gBWK5Y6WIaAMh2-ScSzK20000?></g></svg>