<svg xmlns="http://www.w3.org/2000/svg" xmlns:xlink="http://www.w3.org/1999/xlink" version="1.1" data-diagram-type="CLASS" style="width:289px;height:84px;background:#FFFFFF;" width="289px" height="84px" viewBox="0 0 289 84" zoomAndPan="magnify" preserveAspectRatio="none" contentStyleType="text/css"><?plantuml $version$?><defs/><g><!--class Alice--><g class="entity" data-qualified-name="Alice" id="ent0001" data-source-line="1"><rect x="207.02" y="7" width="67.9125" height="62" fill="#F1F1F1" style="stroke:#181818;stroke-width:0.5;" rx="2.5" ry="2.5"/><ellipse cx="224.4781" cy="23" rx="11" ry="11" fill="#ADD1B2" style="stroke:#181818;stroke-width:1;"/><path d="M226.9513,29.1431 Q226.3702,29.4419 225.7311,29.5913 Q225.0919,29.7407 224.3863,29.7407 Q221.8795,29.7407 220.5597,28.0889 Q219.2398,26.437 219.2398,23.3159 Q219.2398,20.1865 220.5597,18.5347 Q221.8795,16.8828 224.3863,16.8828 Q225.0919,16.8828 225.7394,17.0322 Q226.3868,17.1816 226.9513,17.4805 L226.9513,20.2031 Q226.3204,19.6221 225.7269,19.3523 Q225.1334,19.0825 224.5025,19.0825 Q223.1578,19.0825 222.473,20.1492 Q221.7882,21.2158 221.7882,23.3159 Q221.7882,25.4077 222.473,26.4744 Q223.1578,27.541 224.5025,27.541 Q225.1334,27.541 225.7269,27.2712 Q226.3204,27.0015 226.9513,26.4204 Z " fill="#000000"/><text x="239.0244" y="26.8889" fill="#000000" font-size="14" lengthAdjust="spacing" textLength="30.45" font-family="sans-serif">Alice</text><line x1="208.02" y1="39" x2="273.9325" y2="39" style="stroke:#181818;stroke-width:0.5;"/><line x1="208.02" y1="47" x2="273.9325" y2="47" style="stroke:#181818;stroke-width:0.5;"/><text x="213.02" y="61.8889" fill="#000000" font-size="14" lengthAdjust="spacing" textLength="55.9125" font-family="sans-serif">method()</text></g><g class="entity" data-qualified-name="GMN2" id="ent0003" data-source-line="5"><path d="M6,26.5 L6,49.5 A0,0 0 0 0 6,49.5 L171.95,49.5 A0,0 0 0 0 171.95,49.5 L171.95,44.5 L206.69,38 L171.95,36.5 L171.95,36.5 L161.95,26.5 L6,26.5 A0,0 0 0 0 6,26.5" style="stroke:#181818;stroke-width:0.5;" fill="#FEFFDD"/><path d="M161.95,26.5 L161.95,36.5 L171.95,36.5 L161.95,26.5" style="stroke:#181818;stroke-width:0.5;" fill="#FEFFDD"/><text x="12" y="41.6111" fill="#000000" font-size="13" lengthAdjust="spacing" textLength="144.95" font-family="sans-serif">Note \\ (foo text dummy) this</text></g><?plantuml-src 9Oiz3e0W34Rtdk8RuHXUm1Em42Y1XDA1ccYCTrVY-dvIZtDYwoqnRWA4hMfsdXuQQepEnQ3bBpw_BnW2N565yMd8XyZbORLDuf6njXS0?></g></svg>