<svg xmlns="http://www.w3.org/2000/svg" xmlns:xlink="http://www.w3.org/1999/xlink" version="1.1" data-diagram-type="CLASS" style="width:486px;height:298px;" width="486px" height="298px" viewBox="0 0 486 298" zoomAndPan="magnify" preserveAspectRatio="none" contentStyleType="text/css"><?plantuml $version$?><defs/><g><!--class rec--><g class="entity" data-qualified-name="rec" id="ent0001" data-source-line="15"><rect x="44.36" y="9" width="51.425" height="48" fill="#F1F1F1" style="stroke:#181818;stroke-width:0.5;" rx="2.5" ry="2.5"/><ellipse cx="59.36" cy="25" rx="11" ry="11" fill="#ADD1B2" style="stroke:#181818;stroke-width:1;"/><path d="M61.8331,31.1431 Q61.2521,31.4419 60.6129,31.5913 Q59.9738,31.7407 59.2682,31.7407 Q56.7614,31.7407 55.4415,30.0889 Q54.1217,28.437 54.1217,25.3159 Q54.1217,22.1865 55.4415,20.5347 Q56.7614,18.8828 59.2682,18.8828 Q59.9738,18.8828 60.6212,19.0322 Q61.2687,19.1816 61.8331,19.4805 L61.8331,22.2031 Q61.2023,21.6221 60.6088,21.3523 Q60.0153,21.0825 59.3844,21.0825 Q58.0397,21.0825 57.3549,22.1492 Q56.6701,23.2158 56.6701,25.3159 Q56.6701,27.4077 57.3549,28.4744 Q58.0397,29.541 59.3844,29.541 Q60.0153,29.541 60.6088,29.2712 Q61.2023,29.0015 61.8331,28.4204 Z " fill="#000000"/><text x="73.36" y="28.8889" fill="#000000" font-size="14" lengthAdjust="spacing" textLength="19.425" font-family="sans-serif">rec</text><line x1="45.36" y1="41" x2="94.785" y2="41" style="stroke:#181818;stroke-width:0.5;"/><line x1="45.36" y1="49" x2="94.785" y2="49" style="stroke:#181818;stroke-width:0.5;"/></g><!--class roundCorner 0--><g class="entity" data-qualified-name="roundCorner 0" id="ent0002" data-source-line="16"><rect x="130.89" y="7" width="118.3625" height="52" fill="#F1F1F1" style="stroke:#181818;stroke-width:0.5;" rx="2.5" ry="2.5"/><ellipse cx="145.89" cy="25" rx="11" ry="11" fill="#ADD1B2" style="stroke:#181818;stroke-width:1;"/><path d="M148.3631,31.1431 Q147.7821,31.4419 147.1429,31.5913 Q146.5038,31.7407 145.7982,31.7407 Q143.2914,31.7407 141.9715,30.0889 Q140.6517,28.437 140.6517,25.3159 Q140.6517,22.1865 141.9715,20.5347 Q143.2914,18.8828 145.7982,18.8828 Q146.5038,18.8828 147.1512,19.0322 Q147.7987,19.1816 148.3631,19.4805 L148.3631,22.2031 Q147.7323,21.6221 147.1388,21.3523 Q146.5453,21.0825 145.9144,21.0825 Q144.5697,21.0825 143.8849,22.1492 Q143.2001,23.2158 143.2001,25.3159 Q143.2001,27.4077 143.8849,28.4744 Q144.5697,29.541 145.9144,29.541 Q146.5453,29.541 147.1388,29.2712 Q147.7323,29.0015 148.3631,28.4204 Z " fill="#000000"/><text x="188.0713" y="21.3333" fill="#000000" font-size="12" lengthAdjust="spacing" textLength="30" font-style="italic" font-family="sans-serif">«rc0»</text><text x="159.89" y="34.8889" fill="#000000" font-size="14" lengthAdjust="spacing" textLength="86.3625" font-family="sans-serif">roundCorner 0</text><line x1="131.89" y1="43" x2="248.2525" y2="43" style="stroke:#181818;stroke-width:0.5;"/><line x1="131.89" y1="51" x2="248.2525" y2="51" style="stroke:#181818;stroke-width:0.5;"/></g><!--class roundCorner 2--><g class="entity" data-qualified-name="roundCorner 2" id="ent0003" data-source-line="17"><rect x="283.89" y="7" width="118.3625" height="52" fill="#F1F1F1" style="stroke:#181818;stroke-width:0.5;" rx="2.5" ry="2.5"/><ellipse cx="298.89" cy="25" rx="11" ry="11" fill="#ADD1B2" style="stroke:#181818;stroke-width:1;"/><path d="M301.3631,31.1431 Q300.7821,31.4419 300.1429,31.5913 Q299.5038,31.7407 298.7982,31.7407 Q296.2914,31.7407 294.9715,30.0889 Q293.6517,28.437 293.6517,25.3159 Q293.6517,22.1865 294.9715,20.5347 Q296.2914,18.8828 298.7982,18.8828 Q299.5038,18.8828 300.1512,19.0322 Q300.7987,19.1816 301.3631,19.4805 L301.3631,22.2031 Q300.7323,21.6221 300.1388,21.3523 Q299.5453,21.0825 298.9144,21.0825 Q297.5697,21.0825 296.8849,22.1492 Q296.2001,23.2158 296.2001,25.3159 Q296.2001,27.4077 296.8849,28.4744 Q297.5697,29.541 298.9144,29.541 Q299.5453,29.541 300.1388,29.2712 Q300.7323,29.0015 301.3631,28.4204 Z " fill="#000000"/><text x="341.0712" y="21.3333" fill="#000000" font-size="12" lengthAdjust="spacing" textLength="30" font-style="italic" font-family="sans-serif">«rc2»</text><text x="312.89" y="34.8889" fill="#000000" font-size="14" lengthAdjust="spacing" textLength="86.3625" font-family="sans-serif">roundCorner 2</text><line x1="284.89" y1="43" x2="401.2525" y2="43" style="stroke:#181818;stroke-width:0.5;"/><line x1="284.89" y1="51" x2="401.2525" y2="51" style="stroke:#181818;stroke-width:0.5;"/></g><!--class roundCorner 10--><g class="entity" data-qualified-name="roundCorner 10" id="ent0004" data-source-line="18"><rect x="7" y="119" width="126.15" height="52" fill="#F1F1F1" style="stroke:#181818;stroke-width:0.5;" rx="2.5" ry="2.5"/><ellipse cx="22" cy="137" rx="11" ry="11" fill="#ADD1B2" style="stroke:#181818;stroke-width:1;"/><path d="M24.4731,143.1431 Q23.8921,143.4419 23.2529,143.5913 Q22.6138,143.7407 21.9082,143.7407 Q19.4014,143.7407 18.0815,142.0889 Q16.7617,140.437 16.7617,137.3159 Q16.7617,134.1865 18.0815,132.5347 Q19.4014,130.8828 21.9082,130.8828 Q22.6138,130.8828 23.2612,131.0322 Q23.9087,131.1816 24.4731,131.4805 L24.4731,134.2031 Q23.8423,133.6221 23.2488,133.3523 Q22.6553,133.0825 22.0244,133.0825 Q20.6797,133.0825 19.9949,134.1492 Q19.3101,135.2158 19.3101,137.3159 Q19.3101,139.4077 19.9949,140.4744 Q20.6797,141.541 22.0244,141.541 Q22.6553,141.541 23.2488,141.2712 Q23.8423,141.0015 24.4731,140.4204 Z " fill="#000000"/><text x="64.7375" y="133.3333" fill="#000000" font-size="12" lengthAdjust="spacing" textLength="36.675" font-style="italic" font-family="sans-serif">«rc10»</text><text x="36" y="146.8889" fill="#000000" font-size="14" lengthAdjust="spacing" textLength="94.15" font-family="sans-serif">roundCorner 10</text><line x1="8" y1="155" x2="132.15" y2="155" style="stroke:#181818;stroke-width:0.5;"/><line x1="8" y1="163" x2="132.15" y2="163" style="stroke:#181818;stroke-width:0.5;"/></g><!--class roundCorner 20--><g class="entity" data-qualified-name="roundCorner 20" id="ent0005" data-source-line="19"><rect x="168" y="119" width="126.15" height="52" fill="#F1F1F1" style="stroke:#181818;stroke-width:0.5;" rx="2.5" ry="2.5"/><ellipse cx="183" cy="137" rx="11" ry="11" fill="#ADD1B2" style="stroke:#181818;stroke-width:1;"/><path d="M185.4731,143.1431 Q184.8921,143.4419 184.2529,143.5913 Q183.6138,143.7407 182.9082,143.7407 Q180.4014,143.7407 179.0815,142.0889 Q177.7617,140.437 177.7617,137.3159 Q177.7617,134.1865 179.0815,132.5347 Q180.4014,130.8828 182.9082,130.8828 Q183.6138,130.8828 184.2612,131.0322 Q184.9087,131.1816 185.4731,131.4805 L185.4731,134.2031 Q184.8423,133.6221 184.2488,133.3523 Q183.6553,133.0825 183.0244,133.0825 Q181.6797,133.0825 180.9949,134.1492 Q180.3101,135.2158 180.3101,137.3159 Q180.3101,139.4077 180.9949,140.4744 Q181.6797,141.541 183.0244,141.541 Q183.6553,141.541 184.2488,141.2712 Q184.8423,141.0015 185.4731,140.4204 Z " fill="#000000"/><text x="225.7375" y="133.3333" fill="#000000" font-size="12" lengthAdjust="spacing" textLength="36.675" font-style="italic" font-family="sans-serif">«rc20»</text><text x="197" y="146.8889" fill="#000000" font-size="14" lengthAdjust="spacing" textLength="94.15" font-family="sans-serif">roundCorner 20</text><line x1="169" y1="155" x2="293.15" y2="155" style="stroke:#181818;stroke-width:0.5;"/><line x1="169" y1="163" x2="293.15" y2="163" style="stroke:#181818;stroke-width:0.5;"/></g><!--class roundCorner 30--><g class="entity" data-qualified-name="roundCorner 30" id="ent0006" data-source-line="20"><rect x="329" y="119" width="126.15" height="52" fill="#F1F1F1" style="stroke:#181818;stroke-width:0.5;" rx="2.5" ry="2.5"/><ellipse cx="344" cy="137" rx="11" ry="11" fill="#ADD1B2" style="stroke:#181818;stroke-width:1;"/><path d="M346.4731,143.1431 Q345.8921,143.4419 345.2529,143.5913 Q344.6138,143.7407 343.9082,143.7407 Q341.4014,143.7407 340.0815,142.0889 Q338.7617,140.437 338.7617,137.3159 Q338.7617,134.1865 340.0815,132.5347 Q341.4014,130.8828 343.9082,130.8828 Q344.6138,130.8828 345.2612,131.0322 Q345.9087,131.1816 346.4731,131.4805 L346.4731,134.2031 Q345.8423,133.6221 345.2488,133.3523 Q344.6553,133.0825 344.0244,133.0825 Q342.6797,133.0825 341.9949,134.1492 Q341.3101,135.2158 341.3101,137.3159 Q341.3101,139.4077 341.9949,140.4744 Q342.6797,141.541 344.0244,141.541 Q344.6553,141.541 345.2488,141.2712 Q345.8423,141.0015 346.4731,140.4204 Z " fill="#000000"/><text x="386.7375" y="133.3333" fill="#000000" font-size="12" lengthAdjust="spacing" textLength="36.675" font-style="italic" font-family="sans-serif">«rc30»</text><text x="358" y="146.8889" fill="#000000" font-size="14" lengthAdjust="spacing" textLength="94.15" font-family="sans-serif">roundCorner 30</text><line x1="330" y1="155" x2="454.15" y2="155" style="stroke:#181818;stroke-width:0.5;"/><line x1="330" y1="163" x2="454.15" y2="163" style="stroke:#181818;stroke-width:0.5;"/></g><!--class roundCorner 50--><g class="entity" data-qualified-name="roundCorner 50" id="ent0007" data-source-line="21"><rect x="7" y="231" width="126.15" height="52" fill="#F1F1F1" style="stroke:#181818;stroke-width:0.5;" rx="2.5" ry="2.5"/><ellipse cx="22" cy="249" rx="11" ry="11" fill="#ADD1B2" style="stroke:#181818;stroke-width:1;"/><path d="M24.4731,255.1431 Q23.8921,255.4419 23.2529,255.5913 Q22.6138,255.7407 21.9082,255.7407 Q19.4014,255.7407 18.0815,254.0889 Q16.7617,252.437 16.7617,249.3159 Q16.7617,246.1865 18.0815,244.5347 Q19.4014,242.8828 21.9082,242.8828 Q22.6138,242.8828 23.2612,243.0322 Q23.9087,243.1816 24.4731,243.4805 L24.4731,246.2031 Q23.8423,245.6221 23.2488,245.3523 Q22.6553,245.0825 22.0244,245.0825 Q20.6797,245.0825 19.9949,246.1492 Q19.3101,247.2158 19.3101,249.3159 Q19.3101,251.4077 19.9949,252.4744 Q20.6797,253.541 22.0244,253.541 Q22.6553,253.541 23.2488,253.2712 Q23.8423,253.0015 24.4731,252.4204 Z " fill="#000000"/><text x="64.7375" y="245.3333" fill="#000000" font-size="12" lengthAdjust="spacing" textLength="36.675" font-style="italic" font-family="sans-serif">«rc50»</text><text x="36" y="258.8889" fill="#000000" font-size="14" lengthAdjust="spacing" textLength="94.15" font-family="sans-serif">roundCorner 50</text><line x1="8" y1="267" x2="132.15" y2="267" style="stroke:#181818;stroke-width:0.5;"/><line x1="8" y1="275" x2="132.15" y2="275" style="stroke:#181818;stroke-width:0.5;"/></g><!--class roundCorner 100--><g class="entity" data-qualified-name="roundCorner 100" id="ent0008" data-source-line="22"><rect x="168.11" y="231" width="133.9375" height="52" fill="#F1F1F1" style="stroke:#181818;stroke-width:0.5;" rx="2.5" ry="2.5"/><ellipse cx="183.11" cy="249" rx="11" ry="11" fill="#ADD1B2" style="stroke:#181818;stroke-width:1;"/><path d="M185.5831,255.1431 Q185.0021,255.4419 184.3629,255.5913 Q183.7238,255.7407 183.0182,255.7407 Q180.5114,255.7407 179.1915,254.0889 Q177.8717,252.437 177.8717,249.3159 Q177.8717,246.1865 179.1915,244.5347 Q180.5114,242.8828 183.0182,242.8828 Q183.7238,242.8828 184.3712,243.0322 Q185.0187,243.1816 185.5831,243.4805 L185.5831,246.2031 Q184.9523,245.6221 184.3588,245.3523 Q183.7653,245.0825 183.1344,245.0825 Q181.7897,245.0825 181.1049,246.1492 Q180.4201,247.2158 180.4201,249.3159 Q180.4201,251.4077 181.1049,252.4744 Q181.7897,253.541 183.1344,253.541 Q183.7653,253.541 184.3588,253.2712 Q184.9523,253.0015 185.5831,252.4204 Z " fill="#000000"/><text x="226.4038" y="245.3333" fill="#000000" font-size="12" lengthAdjust="spacing" textLength="43.35" font-style="italic" font-family="sans-serif">«rc100»</text><text x="197.11" y="258.8889" fill="#000000" font-size="14" lengthAdjust="spacing" textLength="101.9375" font-family="sans-serif">roundCorner 100</text><line x1="169.11" y1="267" x2="301.0475" y2="267" style="stroke:#181818;stroke-width:0.5;"/><line x1="169.11" y1="275" x2="301.0475" y2="275" style="stroke:#181818;stroke-width:0.5;"/></g><!--class roundCorner 200--><g class="entity" data-qualified-name="roundCorner 200" id="ent0009" data-source-line="23"><rect x="337.11" y="231" width="133.9375" height="52" fill="#F1F1F1" style="stroke:#181818;stroke-width:0.5;" rx="2.5" ry="2.5"/><ellipse cx="352.11" cy="249" rx="11" ry="11" fill="#ADD1B2" style="stroke:#181818;stroke-width:1;"/><path d="M354.5831,255.1431 Q354.0021,255.4419 353.3629,255.5913 Q352.7238,255.7407 352.0182,255.7407 Q349.5114,255.7407 348.1915,254.0889 Q346.8717,252.437 346.8717,249.3159 Q346.8717,246.1865 348.1915,244.5347 Q349.5114,242.8828 352.0182,242.8828 Q352.7238,242.8828 353.3712,243.0322 Q354.0187,243.1816 354.5831,243.4805 L354.5831,246.2031 Q353.9523,245.6221 353.3588,245.3523 Q352.7653,245.0825 352.1344,245.0825 Q350.7897,245.0825 350.1049,246.1492 Q349.4201,247.2158 349.4201,249.3159 Q349.4201,251.4077 350.1049,252.4744 Q350.7897,253.541 352.1344,253.541 Q352.7653,253.541 353.3588,253.2712 Q353.9523,253.0015 354.5831,252.4204 Z " fill="#000000"/><text x="395.4038" y="245.3333" fill="#000000" font-size="12" lengthAdjust="spacing" textLength="43.35" font-style="italic" font-family="sans-serif">«rc200»</text><text x="366.11" y="258.8889" fill="#000000" font-size="14" lengthAdjust="spacing" textLength="101.9375" font-family="sans-serif">roundCorner 200</text><line x1="338.11" y1="267" x2="470.0475" y2="267" style="stroke:#181818;stroke-width:0.5;"/><line x1="338.11" y1="275" x2="470.0475" y2="275" style="stroke:#181818;stroke-width:0.5;"/></g><?plantuml-src TT2n3eCW40RW_Pw2k7J58sp6eNs3lW6Xf6cqq1nsQdptWeWwd0x6yFqS-5_YyF8VG-Ojxk7h7xT0tf5G6dQu6ZiyAQiDOo0naV4naVCJ769sD36A7uZqq3whwyZAli-hGdA8AoA7RTdQyZiB8ekge69H5zIIFpDhUlDdPiG5Pu3oqmqvsspVXnvbaoQi3N2ErP7tDW-eFR03QW1F0ge6r4b0ru2MPtT8YQqN_X9hOYa7u0y0?></g></svg>