<svg xmlns="http://www.w3.org/2000/svg" xmlns:xlink="http://www.w3.org/1999/xlink" version="1.1" data-diagram-type="DESCRIPTION" style="width:154px;height:65px;background:#FFFFFF;" width="154px" height="65px" viewBox="0 0 154 65" zoomAndPan="magnify" preserveAspectRatio="none" contentStyleType="text/css"><?plantuml $version$?><defs/><g><!--entity A--><g class="entity" data-qualified-name="A" id="ent0001" data-source-line="4"><rect x="7" y="7" width="49.3625" height="44" fill="#F1F1F1" style="stroke:#000000;stroke-width:0.5;" rx="2.5" ry="2.5"/><rect x="36.3625" y="12" width="15" height="10" fill="#F1F1F1" style="stroke:#000000;stroke-width:0.5;"/><rect x="34.3625" y="14" width="4" height="2" fill="#F1F1F1" style="stroke:#000000;stroke-width:0.5;"/><rect x="34.3625" y="18" width="4" height="2" fill="#F1F1F1" style="stroke:#000000;stroke-width:0.5;"/><text x="22" y="37.8889" fill="#000000" font-size="14" lengthAdjust="spacing" textLength="9.3625" font-family="sans-serif">A</text></g><!--entity B--><g class="entity" data-qualified-name="B" id="ent0002" data-source-line="4"><rect x="91" y="7" width="49.3625" height="44" fill="#F1F1F1" style="stroke:#000000;stroke-width:0.5;" rx="2.5" ry="2.5"/><rect x="120.3625" y="12" width="15" height="10" fill="#F1F1F1" style="stroke:#000000;stroke-width:0.5;"/><rect x="118.3625" y="14" width="4" height="2" fill="#F1F1F1" style="stroke:#000000;stroke-width:0.5;"/><rect x="118.3625" y="18" width="4" height="2" fill="#F1F1F1" style="stroke:#000000;stroke-width:0.5;"/><text x="106" y="37.8889" fill="#000000" font-size="14" lengthAdjust="spacing" textLength="9.3625" font-family="sans-serif">B</text></g><!--link A to B--><g class="link" data-entity-1="ent0001" data-entity-2="ent0002" id="lnk3" data-source-line="4" data-link-type="dependency"><path d="M56.62,29 C68,29 74.38,29 85.76,29" style="stroke:#000000;stroke-width:1;" fill="none" id="A-to-B"/><polygon points="90.76,29,81.76,25,85.76,29,81.76,33,90.76,29" fill="#000000" style="stroke:#000000;stroke-width:1;stroke-linejoin:miter;stroke-miterlimit:10;"/></g><?plantuml-src Ko_EpimhI2nAp5KeBKvDJYnETImgoYztpi_9Br98oabCpkP2g4ZEpot8pqlDAo56ZLD-KKfg4RAYQCTO1LqxXMYdM000?></g></svg>