<svg xmlns="http://www.w3.org/2000/svg" xmlns:xlink="http://www.w3.org/1999/xlink" version="1.1" data-diagram-type="CLASS" style="width:391px;height:192px;background:#FFFFFF;" width="391px" height="192px" viewBox="0 0 391 192" zoomAndPan="magnify" preserveAspectRatio="none" contentStyleType="text/css"><?plantuml $version$?><defs/><g><!--class x--><g class="entity" data-qualified-name="x" id="ent0001" data-source-line="5"><rect x="7" y="7" width="226.725" height="62" fill="#F1F1F1" style="stroke:#181818;stroke-width:0.5;" rx="2.5" ry="2.5"/><ellipse cx="80.2813" cy="23" rx="11" ry="11" fill="#ADD1B2" style="stroke:#181818;stroke-width:1;"/><path d="M82.7544,29.1431 Q82.1733,29.4419 81.5342,29.5913 Q80.895,29.7407 80.1895,29.7407 Q77.6826,29.7407 76.3628,28.0889 Q75.043,26.437 75.043,23.3159 Q75.043,20.1865 76.3628,18.5347 Q77.6826,16.8828 80.1895,16.8828 Q80.895,16.8828 81.5425,17.0322 Q82.1899,17.1816 82.7544,17.4805 L82.7544,20.2031 Q82.1235,19.6221 81.53,19.3523 Q80.9365,19.0825 80.3057,19.0825 Q78.9609,19.0825 78.2761,20.1492 Q77.5913,21.2158 77.5913,23.3159 Q77.5913,25.4077 78.2761,26.4744 Q78.9609,27.541 80.3057,27.541 Q80.9365,27.541 81.53,27.2712 Q82.1235,27.0015 82.7544,26.4204 Z " fill="#000000"/><text x="100.7813" y="26.8889" fill="#000000" font-size="14" lengthAdjust="spacing" textLength="71.6625" font-family="sans-serif">SomeClass</text><line x1="8" y1="39" x2="232.725" y2="39" style="stroke:#181818;stroke-width:0.5;"/><g data-visibility-modifier="PUBLIC_FIELD"><ellipse cx="18" cy="51.5" rx="3" ry="3" fill="none" style="stroke:#038048;stroke-width:1;"/></g><text x="27" y="53.8889" fill="#000000" font-size="14" lengthAdjust="spacing" textLength="95.6375" font-family="sans-serif">Member2: Does</text><text x="122.6375" y="53.8889" fill="#0000FF" font-size="14" lengthAdjust="spacing" textLength="26.5125" font-family="sans-serif">blue</text><text x="149.15" y="53.8889" fill="#000000" font-size="14" lengthAdjust="spacing" textLength="23.3625" font-family="sans-serif">and</text><text x="172.5125" y="53.8889" fill="#0000FF" font-size="14" lengthAdjust="spacing" textLength="26.5125" font-family="sans-serif">blue</text><text x="199.025" y="53.8889" fill="#000000" font-size="14" lengthAdjust="spacing" textLength="28.7" font-family="sans-serif">Stuff</text><line x1="8" y1="61" x2="232.725" y2="61" style="stroke:#181818;stroke-width:0.5;"/></g><!--class SomeClass--><g class="entity" data-qualified-name="SomeClass" id="ent0002" data-source-line="9"><rect x="268.53" y="14" width="103.6625" height="48" fill="#F1F1F1" style="stroke:#181818;stroke-width:0.5;" rx="2.5" ry="2.5"/><ellipse cx="283.53" cy="30" rx="11" ry="11" fill="#ADD1B2" style="stroke:#181818;stroke-width:1;"/><path d="M286.0031,36.1431 Q285.4221,36.4419 284.7829,36.5913 Q284.1438,36.7407 283.4382,36.7407 Q280.9314,36.7407 279.6115,35.0889 Q278.2917,33.437 278.2917,30.3159 Q278.2917,27.1865 279.6115,25.5347 Q280.9314,23.8828 283.4382,23.8828 Q284.1438,23.8828 284.7912,24.0322 Q285.4387,24.1816 286.0031,24.4805 L286.0031,27.2031 Q285.3723,26.6221 284.7788,26.3523 Q284.1853,26.0825 283.5544,26.0825 Q282.2097,26.0825 281.5249,27.1492 Q280.8401,28.2158 280.8401,30.3159 Q280.8401,32.4077 281.5249,33.4744 Q282.2097,34.541 283.5544,34.541 Q284.1853,34.541 284.7788,34.2712 Q285.3723,34.0015 286.0031,33.4204 Z " fill="#000000"/><text x="297.53" y="33.8889" fill="#000000" font-size="14" lengthAdjust="spacing" textLength="71.6625" font-family="sans-serif">SomeClass</text><line x1="269.53" y1="46" x2="371.1925" y2="46" style="stroke:#181818;stroke-width:0.5;"/><line x1="269.53" y1="54" x2="371.1925" y2="54" style="stroke:#181818;stroke-width:0.5;"/></g><!--class SomeClass2--><g class="entity" data-qualified-name="SomeClass2" id="ent0003" data-source-line="9"><rect x="264.64" y="129" width="111.45" height="48" fill="#F1F1F1" style="stroke:#181818;stroke-width:0.5;" rx="2.5" ry="2.5"/><ellipse cx="279.64" cy="145" rx="11" ry="11" fill="#ADD1B2" style="stroke:#181818;stroke-width:1;"/><path d="M282.1131,151.1431 Q281.5321,151.4419 280.8929,151.5913 Q280.2538,151.7407 279.5482,151.7407 Q277.0414,151.7407 275.7215,150.0889 Q274.4017,148.437 274.4017,145.3159 Q274.4017,142.1865 275.7215,140.5347 Q277.0414,138.8828 279.5482,138.8828 Q280.2538,138.8828 280.9012,139.0322 Q281.5487,139.1816 282.1131,139.4805 L282.1131,142.2031 Q281.4823,141.6221 280.8888,141.3523 Q280.2953,141.0825 279.6644,141.0825 Q278.3197,141.0825 277.6349,142.1492 Q276.9501,143.2158 276.9501,145.3159 Q276.9501,147.4077 277.6349,148.4744 Q278.3197,149.541 279.6644,149.541 Q280.2953,149.541 280.8888,149.2712 Q281.4823,149.0015 282.1131,148.4204 Z " fill="#000000"/><text x="293.64" y="148.8889" fill="#000000" font-size="14" lengthAdjust="spacing" textLength="79.45" font-family="sans-serif">SomeClass2</text><line x1="265.64" y1="161" x2="375.09" y2="161" style="stroke:#181818;stroke-width:0.5;"/><line x1="265.64" y1="169" x2="375.09" y2="169" style="stroke:#181818;stroke-width:0.5;"/></g><!--link SomeClass to SomeClass2--><g class="link" data-entity-1="ent0002" data-entity-2="ent0003" id="lnk4" data-source-line="9" data-link-type="association"><path d="M320.36,62.41 C320.36,81.81 320.36,109.23 320.36,128.62" style="stroke:#181818;stroke-width:1;" fill="none" id="SomeClass-SomeClass2" codeLine="9"/></g><?plantuml-src ROtD2i9038JlUOffy62H8dYKsejUFVK9-fErXUqkx6QX8BwxhM11y10cmvVCP2QvJaVleBCEusEmo-X-fp9hJbaGJS61I-ETelFMXqjharIC0pv7Yt9vN775b8dhlu54dMrY1DT-akkwCfg86K_2ydINgPLmEkFc9VwMyzh0EHhN_mUr9cFeHRH5eoYmcTCR?></g></svg>