<svg xmlns="http://www.w3.org/2000/svg" xmlns:xlink="http://www.w3.org/1999/xlink" version="1.1" data-diagram-type="DESCRIPTION" style="width:186px;height:201px;background:#FFFFFF;" width="186px" height="201px" viewBox="0 0 186 201" zoomAndPan="magnify" preserveAspectRatio="none" contentStyleType="text/css"><?plantuml $version$?><defs/><g><!--entity User--><g class="entity" data-qualified-name="User" id="ent0001" data-source-line="9"><ellipse cx="20.7875" cy="14" rx="8" ry="8" fill="#F1F1F1" style="stroke:#181818;stroke-width:0.5;"/><path d="M20.7875,22 L20.7875,49 M7.7875,30 L33.7875,30 M20.7875,49 L7.7875,64 M20.7875,49 L33.7875,64" style="stroke:#181818;stroke-width:0.5;" fill="none"/><text x="6" y="76.3889" fill="#000000" font-size="14" lengthAdjust="spacing" textLength="29.575" font-family="sans-serif">User</text></g><!--entity C1--><g class="entity" data-qualified-name="C1" id="ent0002" data-source-line="10"><rect x="70.11" y="18.5" width="87.3625" height="48" fill="#F1F1F1" style="stroke:#181818;stroke-width:0.5;" rx="2.5" ry="2.5"/><text x="81.11" y="39.3889" fill="#000000" font-size="14" lengthAdjust="spacing" textLength="65.3625" font-style="italic" font-family="sans-serif">«external»</text><text x="104.8225" y="53.3889" fill="#000000" font-size="14" lengthAdjust="spacing" textLength="17.9375" font-family="sans-serif">C1</text></g><!--entity C2--><g class="entity" data-qualified-name="C2" id="ent0003" data-source-line="11"><rect x="54.74" y="139.5" width="118.0875" height="48" fill="#F1F1F1" style="stroke:#181818;stroke-width:0.5;" rx="2.5" ry="2.5"/><text x="81.1025" y="160.3889" fill="#000000" font-size="14" lengthAdjust="spacing" textLength="65.3625" font-style="italic" font-family="sans-serif">«external»</text><text x="64.74" y="174.3889" fill="#000000" font-size="14" lengthAdjust="spacing" textLength="98.0875" font-family="sans-serif">External Service</text></g><!--link User to C1--><g class="link" data-entity-1="ent0001" data-entity-2="ent0002" id="lnk4" data-source-line="13" data-link-type="dependency"><path d="M36.05,42.5 C47.28,42.5 53.52,42.5 64.75,42.5" style="stroke:#181818;stroke-width:1;stroke-dasharray:7,7;" fill="none" id="User-to-C1"/><polygon points="69.75,42.5,60.75,38.5,64.75,42.5,60.75,46.5,69.75,42.5" fill="#181818" style="stroke:#181818;stroke-width:1;stroke-linejoin:miter;stroke-miterlimit:10;"/></g><!--link C1 to C2--><g class="link" data-entity-1="ent0002" data-entity-2="ent0003" id="lnk5" data-source-line="14" data-link-type="dependency"><path d="M113.79,66.73 C113.79,87.69 113.79,113.38 113.79,134.33" style="stroke:#181818;stroke-width:1;" fill="none" id="C1-to-C2"/><polygon points="113.79,139.33,117.79,130.33,113.79,134.33,109.79,130.33,113.79,139.33" fill="#181818" style="stroke:#181818;stroke-width:1;stroke-linejoin:miter;stroke-miterlimit:10;"/></g><?plantuml-src LOr12i9034NtEKMewmfsNMRXu0cA1mXZAANJf6H6KSIxEqgfzQ_2p-FzD0uoaz64GQTPXINZ4x2aou_8Q1moIHyPNW1fXTTwWOyKnjxqAXUlKQrj-PxPXA9pk5Chw5T08QlXER71RyuVSCjlFjLfQR5Zkms1gpyIAQ5l03u-tBiYWkAgwt8rRm00?></g></svg>