<svg xmlns="http://www.w3.org/2000/svg" xmlns:xlink="http://www.w3.org/1999/xlink" version="1.1" data-diagram-type="CLASS" style="width:311px;height:178px;background:#FFFFFF;" width="311px" height="178px" viewBox="0 0 311 178" zoomAndPan="magnify" preserveAspectRatio="none" contentStyleType="text/css"><?plantuml $version$?><defs/><g><!--class cl1--><g class="entity" data-qualified-name="cl1" id="ent0001" data-source-line="1"><rect x="7" y="115" width="49.9375" height="48" fill="#F1F1F1" style="stroke:#181818;stroke-width:0.5;" rx="2.5" ry="2.5"/><ellipse cx="22" cy="131" rx="11" ry="11" fill="#ADD1B2" style="stroke:#181818;stroke-width:1;"/><path d="M24.4731,137.1431 Q23.8921,137.4419 23.2529,137.5913 Q22.6138,137.7407 21.9082,137.7407 Q19.4014,137.7407 18.0815,136.0889 Q16.7617,134.437 16.7617,131.3159 Q16.7617,128.1865 18.0815,126.5347 Q19.4014,124.8828 21.9082,124.8828 Q22.6138,124.8828 23.2612,125.0322 Q23.9087,125.1816 24.4731,125.4805 L24.4731,128.2031 Q23.8423,127.6221 23.2488,127.3523 Q22.6553,127.0825 22.0244,127.0825 Q20.6797,127.0825 19.9949,128.1492 Q19.3101,129.2158 19.3101,131.3159 Q19.3101,133.4077 19.9949,134.4744 Q20.6797,135.541 22.0244,135.541 Q22.6553,135.541 23.2488,135.2712 Q23.8423,135.0015 24.4731,134.4204 Z " fill="#000000"/><text x="36" y="134.8889" fill="#000000" font-size="14" lengthAdjust="spacing" textLength="17.9375" font-family="sans-serif">cl1</text><line x1="8" y1="147" x2="55.9375" y2="147" style="stroke:#181818;stroke-width:0.5;"/><line x1="8" y1="155" x2="55.9375" y2="155" style="stroke:#181818;stroke-width:0.5;"/></g><!--class cl2--><g class="entity" data-qualified-name="cl2" id="ent0002" data-source-line="1"><rect x="7" y="7" width="49.9375" height="48" fill="#F1F1F1" style="stroke:#181818;stroke-width:0.5;" rx="2.5" ry="2.5"/><ellipse cx="22" cy="23" rx="11" ry="11" fill="#ADD1B2" style="stroke:#181818;stroke-width:1;"/><path d="M24.4731,29.1431 Q23.8921,29.4419 23.2529,29.5913 Q22.6138,29.7407 21.9082,29.7407 Q19.4014,29.7407 18.0815,28.0889 Q16.7617,26.437 16.7617,23.3159 Q16.7617,20.1865 18.0815,18.5347 Q19.4014,16.8828 21.9082,16.8828 Q22.6138,16.8828 23.2612,17.0322 Q23.9087,17.1816 24.4731,17.4805 L24.4731,20.2031 Q23.8423,19.6221 23.2488,19.3523 Q22.6553,19.0825 22.0244,19.0825 Q20.6797,19.0825 19.9949,20.1492 Q19.3101,21.2158 19.3101,23.3159 Q19.3101,25.4077 19.9949,26.4744 Q20.6797,27.541 22.0244,27.541 Q22.6553,27.541 23.2488,27.2712 Q23.8423,27.0015 24.4731,26.4204 Z " fill="#000000"/><text x="36" y="26.8889" fill="#000000" font-size="14" lengthAdjust="spacing" textLength="17.9375" font-family="sans-serif">cl2</text><line x1="8" y1="39" x2="55.9375" y2="39" style="stroke:#181818;stroke-width:0.5;"/><line x1="8" y1="47" x2="55.9375" y2="47" style="stroke:#181818;stroke-width:0.5;"/></g><!--class i1--><g class="entity" data-qualified-name="i1" id="ent0004" data-source-line="2"><rect x="91.5" y="115" width="42.9375" height="48" fill="#F1F1F1" style="stroke:#181818;stroke-width:0.5;" rx="2.5" ry="2.5"/><ellipse cx="106.5" cy="131" rx="11" ry="11" fill="#B4A7E5" style="stroke:#181818;stroke-width:1;"/><path d="M102.9277,127.2651 L102.9277,125.1069 L110.3071,125.1069 L110.3071,127.2651 L107.8418,127.2651 L107.8418,135.3418 L110.3071,135.3418 L110.3071,137.5 L102.9277,137.5 L102.9277,135.3418 L105.3931,135.3418 L105.3931,127.2651 Z " fill="#000000"/><text x="120.5" y="134.8889" fill="#000000" font-size="14" lengthAdjust="spacing" textLength="10.9375" font-style="italic" font-family="sans-serif">i1</text><line x1="92.5" y1="147" x2="133.4375" y2="147" style="stroke:#181818;stroke-width:0.5;"/><line x1="92.5" y1="155" x2="133.4375" y2="155" style="stroke:#181818;stroke-width:0.5;"/></g><!--class i2--><g class="entity" data-qualified-name="i2" id="ent0005" data-source-line="3"><rect x="130.5" y="7" width="42.9375" height="48" fill="#F1F1F1" style="stroke:#181818;stroke-width:0.5;" rx="2.5" ry="2.5"/><ellipse cx="145.5" cy="23" rx="11" ry="11" fill="#B4A7E5" style="stroke:#181818;stroke-width:1;"/><path d="M141.9277,19.2651 L141.9277,17.1069 L149.3071,17.1069 L149.3071,19.2651 L146.8418,19.2651 L146.8418,27.3418 L149.3071,27.3418 L149.3071,29.5 L141.9277,29.5 L141.9277,27.3418 L144.3931,27.3418 L144.3931,19.2651 Z " fill="#000000"/><text x="159.5" y="26.8889" fill="#000000" font-size="14" lengthAdjust="spacing" textLength="10.9375" font-style="italic" font-family="sans-serif">i2</text><line x1="131.5" y1="39" x2="172.4375" y2="39" style="stroke:#181818;stroke-width:0.5;"/><line x1="131.5" y1="47" x2="172.4375" y2="47" style="stroke:#181818;stroke-width:0.5;"/></g><!--class cl3--><g class="entity" data-qualified-name="cl3" id="ent0007" data-source-line="5"><rect x="247" y="115" width="49.9375" height="48" fill="#F1F1F1" style="stroke:#181818;stroke-width:0.5;" rx="2.5" ry="2.5"/><ellipse cx="262" cy="131" rx="11" ry="11" fill="#ADD1B2" style="stroke:#181818;stroke-width:1;"/><path d="M264.4731,137.1431 Q263.8921,137.4419 263.2529,137.5913 Q262.6138,137.7407 261.9082,137.7407 Q259.4014,137.7407 258.0815,136.0889 Q256.7617,134.437 256.7617,131.3159 Q256.7617,128.1865 258.0815,126.5347 Q259.4014,124.8828 261.9082,124.8828 Q262.6138,124.8828 263.2612,125.0322 Q263.9087,125.1816 264.4731,125.4805 L264.4731,128.2031 Q263.8423,127.6221 263.2488,127.3523 Q262.6553,127.0825 262.0244,127.0825 Q260.6797,127.0825 259.9949,128.1492 Q259.3101,129.2158 259.3101,131.3159 Q259.3101,133.4077 259.9949,134.4744 Q260.6797,135.541 262.0244,135.541 Q262.6553,135.541 263.2488,135.2712 Q263.8423,135.0015 264.4731,134.4204 Z " fill="#000000"/><text x="276" y="134.8889" fill="#000000" font-size="14" lengthAdjust="spacing" textLength="17.9375" font-family="sans-serif">cl3</text><line x1="248" y1="147" x2="295.9375" y2="147" style="stroke:#181818;stroke-width:0.5;"/><line x1="248" y1="155" x2="295.9375" y2="155" style="stroke:#181818;stroke-width:0.5;"/></g><!--class i3--><g class="entity" data-qualified-name="i3" id="ent0008" data-source-line="5"><rect x="250.5" y="7" width="42.9375" height="48" fill="#F1F1F1" style="stroke:#181818;stroke-width:0.5;" rx="2.5" ry="2.5"/><ellipse cx="265.5" cy="23" rx="11" ry="11" fill="#B4A7E5" style="stroke:#181818;stroke-width:1;"/><path d="M261.9277,19.2651 L261.9277,17.1069 L269.3071,17.1069 L269.3071,19.2651 L266.8418,19.2651 L266.8418,27.3418 L269.3071,27.3418 L269.3071,29.5 L261.9277,29.5 L261.9277,27.3418 L264.3931,27.3418 L264.3931,19.2651 Z " fill="#000000"/><text x="279.5" y="26.8889" fill="#000000" font-size="14" lengthAdjust="spacing" textLength="10.9375" font-style="italic" font-family="sans-serif">i3</text><line x1="251.5" y1="39" x2="292.4375" y2="39" style="stroke:#181818;stroke-width:0.5;"/><line x1="251.5" y1="47" x2="292.4375" y2="47" style="stroke:#181818;stroke-width:0.5;"/></g><!--class i5--><g class="entity" data-qualified-name="i5" id="ent0010" data-source-line="7"><rect x="169.5" y="115" width="42.9375" height="48" fill="#F1F1F1" style="stroke:#181818;stroke-width:0.5;" rx="2.5" ry="2.5"/><ellipse cx="184.5" cy="131" rx="11" ry="11" fill="#B4A7E5" style="stroke:#181818;stroke-width:1;"/><path d="M180.9277,127.2651 L180.9277,125.1069 L188.3071,125.1069 L188.3071,127.2651 L185.8418,127.2651 L185.8418,135.3418 L188.3071,135.3418 L188.3071,137.5 L180.9277,137.5 L180.9277,135.3418 L183.3931,135.3418 L183.3931,127.2651 Z " fill="#000000"/><text x="198.5" y="134.8889" fill="#000000" font-size="14" lengthAdjust="spacing" textLength="10.9375" font-style="italic" font-family="sans-serif">i5</text><line x1="170.5" y1="147" x2="211.4375" y2="147" style="stroke:#181818;stroke-width:0.5;"/><line x1="170.5" y1="155" x2="211.4375" y2="155" style="stroke:#181818;stroke-width:0.5;"/></g><!--reverse link cl2 to cl1--><g class="link" data-entity-1="ent0002" data-entity-2="ent0001" id="lnk3" data-source-line="1" data-link-type="extension"><path d="M31.97,73.26 C31.97,90.94 31.97,97.13 31.97,114.79" style="stroke:#181818;stroke-width:1;" fill="none" id="cl2-backto-cl1"/><polygon points="31.97,55.26,25.97,73.26,37.97,73.26,31.97,55.26" fill="none" style="stroke:#181818;stroke-width:1;stroke-linejoin:miter;stroke-miterlimit:10;"/></g><!--reverse link i2 to i1--><g class="link" data-entity-1="ent0005" data-entity-2="ent0004" id="lnk6" data-source-line="3" data-link-type="extension"><path d="M137.1988,72.1544 C130.6988,89.8344 128.01,97.13 121.51,114.79" style="stroke:#181818;stroke-width:1;" fill="none" id="i2-backto-i1"/><polygon points="143.41,55.26,131.5673,70.084,142.8303,74.2248,143.41,55.26" fill="none" style="stroke:#181818;stroke-width:1;stroke-linejoin:miter;stroke-miterlimit:10;"/></g><!--reverse link i3 to cl3--><g class="link" data-entity-1="ent0008" data-entity-2="ent0007" id="lnk9" data-source-line="5" data-link-type="extension"><path d="M271.97,73.26 C271.97,90.94 271.97,97.13 271.97,114.79" style="stroke:#181818;stroke-width:1;stroke-dasharray:7,7;" fill="none" id="i3-backto-cl3"/><polygon points="271.97,55.26,265.97,73.26,277.97,73.26,271.97,55.26" fill="none" style="stroke:#181818;stroke-width:1;stroke-linejoin:miter;stroke-miterlimit:10;"/></g><!--reverse link i2 to i5--><g class="link" data-entity-1="ent0005" data-entity-2="ent0010" id="lnk11" data-source-line="7" data-link-type="extension"><path d="M166.7412,72.1544 C173.2412,89.8344 175.93,97.13 182.43,114.79" style="stroke:#181818;stroke-width:1;" fill="none" id="i2-backto-i5"/><polygon points="160.53,55.26,161.1097,74.2248,172.3727,70.084,160.53,55.26" fill="none" style="stroke:#181818;stroke-width:1;stroke-linejoin:miter;stroke-miterlimit:10;"/></g><?plantuml-src Iyv9B2vMICunL4YjA4dDIm6nZRWoyqfIYz8IarCLCWrHE71LcKPSNCbGlSOAcRa5EQcvgNabG0bZBcGTfYXoHbm0?></g></svg>