<svg xmlns="http://www.w3.org/2000/svg" xmlns:xlink="http://www.w3.org/1999/xlink" version="1.1" data-diagram-type="CLASS" style="width:95px;height:96px;background:#FFFFFF;" width="95px" height="96px" viewBox="0 0 95 96" zoomAndPan="magnify" preserveAspectRatio="none" contentStyleType="text/css"><?plantuml $version$?><defs/><g><!--class Foo--><g class="entity" data-qualified-name="Foo" id="ent0001" data-source-line="1"><rect x="7" y="7" width="75.7" height="76" fill="#F1F1F1" style="stroke:#181818;stroke-width:0.5;" rx="2.5" ry="2.5"/><ellipse cx="30.7975" cy="23" rx="11" ry="11" fill="#ADD1B2" style="stroke:#181818;stroke-width:1;"/><path d="M33.2706,29.1431 Q32.6896,29.4419 32.0504,29.5913 Q31.4113,29.7407 30.7057,29.7407 Q28.1989,29.7407 26.879,28.0889 Q25.5592,26.437 25.5592,23.3159 Q25.5592,20.1865 26.879,18.5347 Q28.1989,16.8828 30.7057,16.8828 Q31.4113,16.8828 32.0587,17.0322 Q32.7062,17.1816 33.2706,17.4805 L33.2706,20.2031 Q32.6398,19.6221 32.0463,19.3523 Q31.4528,19.0825 30.8219,19.0825 Q29.4772,19.0825 28.7924,20.1492 Q28.1076,21.2158 28.1076,23.3159 Q28.1076,25.4077 28.7924,26.4744 Q29.4772,27.541 30.8219,27.541 Q31.4528,27.541 32.0463,27.2712 Q32.6398,27.0015 33.2706,26.4204 Z " fill="#000000"/><text x="46.7525" y="26.8889" fill="#000000" font-size="14" lengthAdjust="spacing" textLength="24.15" font-family="sans-serif">Foo</text><line x1="8" y1="39" x2="81.7" y2="39" style="stroke:#181818;stroke-width:0.5;"/><text x="13" y="53.8889" fill="#000000" font-size="14" lengthAdjust="spacing" textLength="33.5125" font-family="sans-serif">field1</text><line x1="8" y1="61" x2="81.7" y2="61" style="stroke:#181818;stroke-width:0.5;"/><text x="13" y="75.8889" fill="#000000" font-size="14" lengthAdjust="spacing" textLength="63.7" font-family="sans-serif">method1()</text></g><?plantuml-src Iyv9B2vMSClFLwZcKb18oqpDIJ44Cd9JIpBoKmmrDBbg0G00?></g></svg>