<svg xmlns="http://www.w3.org/2000/svg" xmlns:xlink="http://www.w3.org/1999/xlink" version="1.1" data-diagram-type="CLASS" style="width:260px;height:308px;background:#FFFFFF;" width="260px" height="308px" viewBox="0 0 260 308" zoomAndPan="magnify" preserveAspectRatio="none" contentStyleType="text/css"><?plantuml $version$?><defs/><g><!--class foo1--><g class="entity" data-qualified-name="foo1" id="ent0001" data-source-line="1"><rect x="7" y="7" width="144.0625" height="286" fill="#F1F1F1" style="stroke:#181818;stroke-width:0.5;" rx="2.5" ry="2.5"/><ellipse cx="61.175" cy="23" rx="11" ry="11" fill="#ADD1B2" style="stroke:#181818;stroke-width:1;"/><path d="M63.6481,29.1431 Q63.0671,29.4419 62.4279,29.5913 Q61.7888,29.7407 61.0832,29.7407 Q58.5764,29.7407 57.2565,28.0889 Q55.9367,26.437 55.9367,23.3159 Q55.9367,20.1865 57.2565,18.5347 Q58.5764,16.8828 61.0832,16.8828 Q61.7888,16.8828 62.4362,17.0322 Q63.0837,17.1816 63.6481,17.4805 L63.6481,20.2031 Q63.0173,19.6221 62.4238,19.3523 Q61.8303,19.0825 61.1994,19.0825 Q59.8547,19.0825 59.1699,20.1492 Q58.4851,21.2158 58.4851,23.3159 Q58.4851,25.4077 59.1699,26.4744 Q59.8547,27.541 61.1994,27.541 Q61.8303,27.541 62.4238,27.2712 Q63.0173,27.0015 63.6481,26.4204 Z " fill="#000000"/><text x="81.675" y="26.8889" fill="#000000" font-size="14" lengthAdjust="spacing" textLength="27.2125" font-family="sans-serif">foo1</text><line x1="8" y1="39" x2="150.0625" y2="39" style="stroke:#181818;stroke-width:0.5;"/><text x="13" y="53.8889" fill="#000000" font-size="14" lengthAdjust="spacing" textLength="19.425" font-family="sans-serif">m1</text><text x="13" y="85.8889" fill="#000000" font-size="14" lengthAdjust="spacing" textLength="19.425" font-family="sans-serif">m2</text><line x1="8" y1="68" x2="11" y2="68" style="stroke:#181818;stroke-width:1;"/><text x="11" y="71.3889" fill="#000000" font-size="14" lengthAdjust="spacing" textLength="136.0625" font-family="sans-serif">titre that is very very long</text><line x1="147.0625" y1="68" x2="150.0625" y2="68" style="stroke:#181818;stroke-width:1;"/><line x1="8" y1="93" x2="150.0625" y2="93" style="stroke:#181818;stroke-width:0.5;"/><text x="13" y="107.8889" fill="#000000" font-size="14" lengthAdjust="spacing" textLength="19.425" font-family="sans-serif">m3</text><text x="13" y="121.8889" fill="#000000" font-size="14" lengthAdjust="spacing" textLength="27.2125" font-family="sans-serif">m31</text><text x="13" y="153.8889" fill="#000000" font-size="14" lengthAdjust="spacing" textLength="27.2125" font-family="sans-serif">m32</text><line x1="8" y1="136" x2="63.85" y2="136" style="stroke:#181818;stroke-width:1;stroke-dasharray:1,2;"/><text x="63.85" y="139.3889" fill="#000000" font-size="14" lengthAdjust="spacing" textLength="30.3625" font-family="sans-serif">point</text><line x1="94.2125" y1="136" x2="150.0625" y2="136" style="stroke:#181818;stroke-width:1;stroke-dasharray:1,2;"/><g data-visibility-modifier="PUBLIC_METHOD"><ellipse cx="18" cy="183.5" rx="3" ry="3" fill="#84BE84" style="stroke:#038048;stroke-width:1;"/></g><text x="27" y="185.8889" fill="#000000" font-size="14" lengthAdjust="spacing" textLength="28.7" font-family="sans-serif">m4()</text><text x="27" y="199.8889" fill="#000000" font-size="14" lengthAdjust="spacing" textLength="28.7" font-family="sans-serif">m5()</text><line x1="8" y1="168" x2="63.1063" y2="168" style="stroke:#181818;stroke-width:1;"/><text x="63.1063" y="171.3889" fill="#000000" font-size="14" lengthAdjust="spacing" textLength="31.85" font-family="sans-serif">other</text><line x1="94.9563" y1="168" x2="150.0625" y2="168" style="stroke:#181818;stroke-width:1;"/><line x1="8" y1="207" x2="150.0625" y2="207" style="stroke:#181818;stroke-width:1;"/><line x1="8" y1="209" x2="150.0625" y2="209" style="stroke:#181818;stroke-width:1;"/><g data-visibility-modifier="PUBLIC_FIELD"><ellipse cx="18" cy="219.5" rx="3" ry="3" fill="none" style="stroke:#038048;stroke-width:1;"/></g><text x="27" y="221.8889" fill="#000000" font-size="14" lengthAdjust="spacing" textLength="19.425" font-family="sans-serif">m6</text><text x="13" y="253.8889" fill="#000000" font-size="14" lengthAdjust="spacing" textLength="38.0625" font-family="sans-serif">empty</text><line x1="8" y1="236" x2="61.0938" y2="236" style="stroke:#181818;stroke-width:1;"/><line x1="8" y1="238" x2="61.0938" y2="238" style="stroke:#181818;stroke-width:1;"/><text x="61.0938" y="239.3889" fill="#000000" font-size="14" lengthAdjust="spacing" textLength="35.875" font-family="sans-serif">TEST</text><line x1="96.9688" y1="236" x2="150.0625" y2="236" style="stroke:#181818;stroke-width:1;"/><line x1="96.9688" y1="238" x2="150.0625" y2="238" style="stroke:#181818;stroke-width:1;"/><g data-visibility-modifier="PUBLIC_METHOD"><ellipse cx="18" cy="283.5" rx="3" ry="3" fill="#84BE84" style="stroke:#038048;stroke-width:1;"/></g><text x="27" y="285.8889" fill="#000000" font-size="14" lengthAdjust="spacing" textLength="32.55" font-family="sans-serif">toto()</text><line x1="8" y1="268" x2="68.0938" y2="268" style="stroke:#181818;stroke-width:0.5;"/><text x="68.0938" y="271.3889" fill="#000000" font-size="14" lengthAdjust="spacing" textLength="21.875" font-family="sans-serif">line</text><line x1="89.9688" y1="268" x2="150.0625" y2="268" style="stroke:#181818;stroke-width:0.5;"/></g><!--class foo2--><g class="entity" data-qualified-name="foo2" id="ent0002" data-source-line="21"><rect x="186.42" y="7" width="59.2125" height="286" fill="#F1F1F1" style="stroke:#181818;stroke-width:0.5;" rx="2.5" ry="2.5"/><ellipse cx="201.42" cy="23" rx="11" ry="11" fill="#ADD1B2" style="stroke:#181818;stroke-width:1;"/><path d="M203.8931,29.1431 Q203.3121,29.4419 202.6729,29.5913 Q202.0338,29.7407 201.3282,29.7407 Q198.8214,29.7407 197.5015,28.0889 Q196.1817,26.437 196.1817,23.3159 Q196.1817,20.1865 197.5015,18.5347 Q198.8214,16.8828 201.3282,16.8828 Q202.0338,16.8828 202.6812,17.0322 Q203.3287,17.1816 203.8931,17.4805 L203.8931,20.2031 Q203.2623,19.6221 202.6688,19.3523 Q202.0753,19.0825 201.4444,19.0825 Q200.0997,19.0825 199.4149,20.1492 Q198.7301,21.2158 198.7301,23.3159 Q198.7301,25.4077 199.4149,26.4744 Q200.0997,27.541 201.4444,27.541 Q202.0753,27.541 202.6688,27.2712 Q203.2623,27.0015 203.8931,26.4204 Z " fill="#000000"/><text x="215.42" y="26.8889" fill="#000000" font-size="14" lengthAdjust="spacing" textLength="27.2125" font-family="sans-serif">foo2</text><line x1="187.42" y1="39" x2="244.6325" y2="39" style="stroke:#181818;stroke-width:0.5;"/><text x="192.42" y="53.8889" fill="#000000" font-size="14" lengthAdjust="spacing" textLength="19.425" font-family="sans-serif">m1</text><text x="192.42" y="85.8889" fill="#000000" font-size="14" lengthAdjust="spacing" textLength="19.425" font-family="sans-serif">m2</text><line x1="187.42" y1="68" x2="204.3888" y2="68" style="stroke:#181818;stroke-width:1;"/><text x="204.3888" y="71.3889" fill="#000000" font-size="14" lengthAdjust="spacing" textLength="23.275" font-family="sans-serif">titre</text><line x1="227.6638" y1="68" x2="244.6325" y2="68" style="stroke:#181818;stroke-width:1;"/><line x1="187.42" y1="93" x2="244.6325" y2="93" style="stroke:#181818;stroke-width:0.5;"/><text x="192.42" y="107.8889" fill="#000000" font-size="14" lengthAdjust="spacing" textLength="19.425" font-family="sans-serif">m3</text><text x="192.42" y="121.8889" fill="#000000" font-size="14" lengthAdjust="spacing" textLength="27.2125" font-family="sans-serif">m31</text><text x="192.42" y="153.8889" fill="#000000" font-size="14" lengthAdjust="spacing" textLength="27.2125" font-family="sans-serif">m32</text><line x1="187.42" y1="136" x2="200.845" y2="136" style="stroke:#181818;stroke-width:1;stroke-dasharray:1,2;"/><text x="200.845" y="139.3889" fill="#000000" font-size="14" lengthAdjust="spacing" textLength="30.3625" font-family="sans-serif">point</text><line x1="231.2075" y1="136" x2="244.6325" y2="136" style="stroke:#181818;stroke-width:1;stroke-dasharray:1,2;"/><g data-visibility-modifier="PUBLIC_METHOD"><ellipse cx="197.42" cy="183.5" rx="3" ry="3" fill="#84BE84" style="stroke:#038048;stroke-width:1;"/></g><text x="206.42" y="185.8889" fill="#000000" font-size="14" lengthAdjust="spacing" textLength="28.7" font-family="sans-serif">m4()</text><text x="206.42" y="199.8889" fill="#000000" font-size="14" lengthAdjust="spacing" textLength="28.7" font-family="sans-serif">m5()</text><line x1="187.42" y1="168" x2="200.1013" y2="168" style="stroke:#181818;stroke-width:1;"/><text x="200.1013" y="171.3889" fill="#000000" font-size="14" lengthAdjust="spacing" textLength="31.85" font-family="sans-serif">other</text><line x1="231.9513" y1="168" x2="244.6325" y2="168" style="stroke:#181818;stroke-width:1;"/><line x1="187.42" y1="207" x2="244.6325" y2="207" style="stroke:#181818;stroke-width:1;"/><line x1="187.42" y1="209" x2="244.6325" y2="209" style="stroke:#181818;stroke-width:1;"/><g data-visibility-modifier="PUBLIC_FIELD"><ellipse cx="197.42" cy="219.5" rx="3" ry="3" fill="none" style="stroke:#038048;stroke-width:1;"/></g><text x="206.42" y="221.8889" fill="#000000" font-size="14" lengthAdjust="spacing" textLength="19.425" font-family="sans-serif">m6</text><text x="192.42" y="253.8889" fill="#000000" font-size="14" lengthAdjust="spacing" textLength="38.0625" font-family="sans-serif">empty</text><line x1="187.42" y1="236" x2="198.0888" y2="236" style="stroke:#181818;stroke-width:1;"/><line x1="187.42" y1="238" x2="198.0888" y2="238" style="stroke:#181818;stroke-width:1;"/><text x="198.0888" y="239.3889" fill="#000000" font-size="14" lengthAdjust="spacing" textLength="35.875" font-family="sans-serif">TEST</text><line x1="233.9638" y1="236" x2="244.6325" y2="236" style="stroke:#181818;stroke-width:1;"/><line x1="233.9638" y1="238" x2="244.6325" y2="238" style="stroke:#181818;stroke-width:1;"/><g data-visibility-modifier="PUBLIC_METHOD"><ellipse cx="197.42" cy="283.5" rx="3" ry="3" fill="#84BE84" style="stroke:#038048;stroke-width:1;"/></g><text x="206.42" y="285.8889" fill="#000000" font-size="14" lengthAdjust="spacing" textLength="32.55" font-family="sans-serif">toto()</text><line x1="187.42" y1="268" x2="205.0888" y2="268" style="stroke:#181818;stroke-width:0.5;"/><text x="205.0888" y="271.3889" fill="#000000" font-size="14" lengthAdjust="spacing" textLength="21.875" font-family="sans-serif">line</text><line x1="226.9638" y1="268" x2="244.6325" y2="268" style="stroke:#181818;stroke-width:0.5;"/></g><?plantuml-src Iyv9B2vMIClFDrIevkBCDUJYrDKjoImfIbKeoKWiKSWiLYXBBQg443dvUUcwka1LHboSyV50sXY4WLhqz0hoC_DAzFH0V2EG4Vab6Qb58BNQkIOQca1XKn1fQmiIC0Cn549SWqCKG0AfkGKbbI03SpBpKa76QfVab-G3bTToSIN3N6U4vZgwEWC0?></g></svg>