<svg xmlns="http://www.w3.org/2000/svg" xmlns:xlink="http://www.w3.org/1999/xlink" version="1.1" data-diagram-type="STATE" style="width:108px;height:175px;background:#FFFFFF;" width="108px" height="175px" viewBox="0 0 108 175" zoomAndPan="magnify" preserveAspectRatio="none" contentStyleType="text/css"><?plantuml $version$?><defs/><g><g class="entity" data-qualified-name="state_7" id="ent0001" data-source-line="2"><path d="M19.5,7 L80.5,7 A12.5,12.5 0 0 1 93,19.5 L93,31 L7,31 L7,19.5 A12.5,12.5 0 0 1 19.5,7" fill="#F1F1F1"/><rect x="7" y="7" width="86" height="154" fill="none" style="stroke:#181818;stroke-width:0.5;" rx="12.5" ry="12.5"/><line x1="7" y1="31" x2="93" y2="31" style="stroke:#181818;stroke-width:0.5;"/><text x="27.075" y="22.8889" fill="#000000" font-size="14" lengthAdjust="spacing" textLength="45.85" font-family="sans-serif">state_7</text><g class="start_entity" data-qualified-name="state_7..start.state_7" id="ent0002" data-source-line="3"><ellipse cx="44" cy="52" rx="10" ry="10" fill="#222222" style="stroke:#222222;stroke-width:1;"/></g><g class="entity" data-qualified-name="state_7.s" id="ent0003" data-source-line="3"><rect x="19" y="98" width="50" height="50" fill="#F1F1F1" style="stroke:#181818;stroke-width:0.5;" rx="12.5" ry="12.5"/><line x1="19" y1="122" x2="69" y2="122" style="stroke:#181818;stroke-width:0.5;"/><text x="40.5" y="113.8889" fill="#000000" font-size="14" lengthAdjust="spacing" textLength="7" font-family="sans-serif">s</text></g><!--link *start*state_7 to s--><g class="link" data-entity-1="ent0002" data-entity-2="ent0003" id="lnk4" data-source-line="3" data-link-type="dependency"><path d="M44,62.31 C44,71.35 44,80.49 44,92.73" style="stroke:#181818;stroke-width:1;" fill="none" id="*start*state_7-to-s"/><polygon points="44,97.73,48,88.73,44,92.73,40,88.73,44,97.73" fill="#181818" style="stroke:#181818;stroke-width:1;stroke-linejoin:miter;stroke-miterlimit:10;"/></g></g><?plantuml-src Aov9B4bLA0QHyUOArLpHMh4Akhfs2iLSjLnS0000?></g></svg>