<svg xmlns="http://www.w3.org/2000/svg" xmlns:xlink="http://www.w3.org/1999/xlink" version="1.1" data-diagram-type="CLASS" style="width:173px;height:74px;background:#FFFFFF;" width="173px" height="74px" viewBox="0 0 173 74" zoomAndPan="magnify" preserveAspectRatio="none" contentStyleType="text/css"><?plantuml $version$?><defs/><g><!--class A--><g class="entity" data-qualified-name="A" id="ent0001" data-source-line="2"><rect x="7" y="7" width="74.65" height="52" fill="#F1F1F1" style="stroke:#181818;stroke-width:5;" rx="2.5" ry="2.5"/><ellipse cx="22" cy="25" rx="11" ry="11" fill="#ADD1B2" style="stroke:#181818;stroke-width:1;"/><path d="M24.4731,31.1431 Q23.8921,31.4419 23.2529,31.5913 Q22.6138,31.7407 21.9082,31.7407 Q19.4014,31.7407 18.0815,30.0889 Q16.7617,28.437 16.7617,25.3159 Q16.7617,22.1865 18.0815,20.5347 Q19.4014,18.8828 21.9082,18.8828 Q22.6138,18.8828 23.2612,19.0322 Q23.9087,19.1816 24.4731,19.4805 L24.4731,22.2031 Q23.8423,21.6221 23.2488,21.3523 Q22.6553,21.0825 22.0244,21.0825 Q20.6797,21.0825 19.9949,22.1492 Q19.3101,23.2158 19.3101,25.3159 Q19.3101,27.4077 19.9949,28.4744 Q20.6797,29.541 22.0244,29.541 Q22.6553,29.541 23.2488,29.2712 Q23.8423,29.0015 24.4731,28.4204 Z " fill="#000000"/><text x="34" y="21.3333" fill="#000000" font-size="12" lengthAdjust="spacing" textLength="46.65" font-style="italic" font-family="sans-serif">«stereo»</text><text x="52.6438" y="34.8889" fill="#000000" font-size="14" lengthAdjust="spacing" textLength="9.3625" font-family="sans-serif">A</text><line x1="8" y1="43" x2="80.65" y2="43" style="stroke:#181818;stroke-width:5;"/><line x1="8" y1="51" x2="80.65" y2="51" style="stroke:#181818;stroke-width:5;"/></g><!--class B--><g class="entity" data-qualified-name="B" id="ent0002" data-source-line="3"><rect x="116.64" y="9" width="41.3625" height="48" fill="#F1F1F1" style="stroke:#181818;stroke-width:0.5;" rx="2.5" ry="2.5"/><ellipse cx="131.64" cy="25" rx="11" ry="11" fill="#ADD1B2" style="stroke:#181818;stroke-width:1;"/><path d="M134.1131,31.1431 Q133.5321,31.4419 132.8929,31.5913 Q132.2538,31.7407 131.5482,31.7407 Q129.0414,31.7407 127.7215,30.0889 Q126.4017,28.437 126.4017,25.3159 Q126.4017,22.1865 127.7215,20.5347 Q129.0414,18.8828 131.5482,18.8828 Q132.2538,18.8828 132.9012,19.0322 Q133.5487,19.1816 134.1131,19.4805 L134.1131,22.2031 Q133.4823,21.6221 132.8888,21.3523 Q132.2953,21.0825 131.6644,21.0825 Q130.3197,21.0825 129.6349,22.1492 Q128.9501,23.2158 128.9501,25.3159 Q128.9501,27.4077 129.6349,28.4744 Q130.3197,29.541 131.6644,29.541 Q132.2953,29.541 132.8888,29.2712 Q133.4823,29.0015 134.1131,28.4204 Z " fill="#000000"/><text x="145.64" y="28.8889" fill="#000000" font-size="14" lengthAdjust="spacing" textLength="9.3625" font-family="sans-serif">B</text><line x1="117.64" y1="41" x2="157.0025" y2="41" style="stroke:#181818;stroke-width:0.5;"/><line x1="117.64" y1="49" x2="157.0025" y2="49" style="stroke:#181818;stroke-width:0.5;"/></g><?plantuml-src AyxEp2j8B4hCLKZEIImkTielIaaj2id8JCxEIoqkjh4fBaajIistirCmvG8hK71KG0X2XPm0?></g></svg>