<svg xmlns="http://www.w3.org/2000/svg" xmlns:xlink="http://www.w3.org/1999/xlink" version="1.1" data-diagram-type="STATE" style="width:651px;height:65px;background:#FFFFFF;" width="651px" height="65px" viewBox="0 0 651 65" zoomAndPan="magnify" preserveAspectRatio="none" contentStyleType="text/css"><?plantuml $version$?><defs/><g><g class="start_entity" data-qualified-name="start1" id="ent0001" data-source-line="1"><ellipse cx="16" cy="29" rx="10" ry="10" fill="#222222" style="stroke:#222222;stroke-width:1;"/></g><g class="entity" data-qualified-name="choice1" id="ent0002"><polygon points="73,17,85,29,73,41,61,29,73,17" fill="#F1F1F1" style="stroke:#181818;stroke-width:0.5;stroke-linejoin:miter;stroke-miterlimit:10;"/></g><rect x="120" y="25" width="80" height="8" fill="#555555" style="stroke:none;stroke-width:1;"/><rect x="235" y="25" width="80" height="8" fill="#555555" style="stroke:none;stroke-width:1;"/><g class="end_entity" data-qualified-name="end3" id="ent0005" data-source-line="5"><ellipse cx="361" cy="29" rx="11" ry="11" fill="none" style="stroke:#222222;stroke-width:1;"/><ellipse cx="361" cy="29" rx="6" ry="6" fill="#222222" style="stroke:#222222;stroke-width:1;"/></g><rect x="407.46" y="7" width="115.0875" height="44" fill="#F1F1F1" style="stroke:#181818;stroke-width:0.5;" rx="12.5" ry="12.5"/><path d="M445.8225,7 L445.8225,12 L438.8225,19 L407.46,19" style="stroke:#181818;stroke-width:0.5;" fill="none"/><text x="428.46" y="37.8889" fill="#000000" font-size="14" lengthAdjust="spacing" textLength="63.0875" font-family="sans-serif">sdlreceive</text><ellipse cx="569" cy="29" rx="11" ry="11" fill="#F1F1F1" style="stroke:#181818;stroke-width:0.5;"/><text x="563.925" y="32.8889" fill="#000000" font-size="14" lengthAdjust="spacing" textLength="10.15" font-family="sans-serif">H</text><ellipse cx="626" cy="29" rx="11" ry="11" fill="#F1F1F1" style="stroke:#181818;stroke-width:0.5;"/><text x="618.2125" y="32.8889" fill="#000000" font-size="14" lengthAdjust="spacing" textLength="15.575" font-family="sans-serif">H*</text><?plantuml-src NOr12e0W44NtdS9rEsqhtaLqGYiKd27ezeqM4xHxyzw7GV842iatqafPEyYv2OSFgUO0clr34jRQTjvpw2HwgxcOeJk9XX8NDJIJM8n7Wm3vXFvN3kaf8zLsSNpfNyoNPkTk?></g></svg>