<svg xmlns="http://www.w3.org/2000/svg" xmlns:xlink="http://www.w3.org/1999/xlink" version="1.1" data-diagram-type="CLASS" style="width:166px;height:105px;background:#FFFFFF;" width="166px" height="105px" viewBox="0 0 166 105" zoomAndPan="magnify" preserveAspectRatio="none" contentStyleType="text/css"><?plantuml $version$?><defs/><g><g class="title" data-source-line="2"><text x="43.5488" y="20.8889" fill="#000000" font-size="14" lengthAdjust="spacing" textLength="72.3625" font-weight="700" font-family="Helvetica">this is my title</text></g><!--class Alice--><g class="entity" data-qualified-name="Alice" id="ent0001" data-source-line="3"><rect x="89.01" y="42" width="62.45" height="48" fill="#F1F1F1" style="stroke:#181818;stroke-width:0.5;" rx="2.5" ry="2.5"/><ellipse cx="104.01" cy="58" rx="11" ry="11" fill="#ADD1B2" style="stroke:#181818;stroke-width:1;"/><path d="M106.4831,64.1431 Q105.9021,64.4419 105.2629,64.5913 Q104.6238,64.7407 103.9182,64.7407 Q101.4114,64.7407 100.0915,63.0889 Q98.7717,61.437 98.7717,58.3159 Q98.7717,55.1865 100.0915,53.5347 Q101.4114,51.8828 103.9182,51.8828 Q104.6238,51.8828 105.2712,52.0322 Q105.9187,52.1816 106.4831,52.4805 L106.4831,55.2031 Q105.8523,54.6221 105.2588,54.3523 Q104.6653,54.0825 104.0344,54.0825 Q102.6897,54.0825 102.0049,55.1492 Q101.3201,56.2158 101.3201,58.3159 Q101.3201,60.4077 102.0049,61.4744 Q102.6897,62.541 104.0344,62.541 Q104.6653,62.541 105.2588,62.2712 Q105.8523,62.0015 106.4831,61.4204 Z " fill="#000000"/><text x="118.01" y="61.8889" fill="#000000" font-size="14" lengthAdjust="spacing" textLength="30.45" font-family="Helvetica">Alice</text><line x1="90.01" y1="74" x2="150.46" y2="74" style="stroke:#181818;stroke-width:0.5;"/><line x1="90.01" y1="82" x2="150.46" y2="82" style="stroke:#181818;stroke-width:0.5;"/></g><g class="entity" data-qualified-name="GMN2" id="ent0003" data-source-line="5"><path d="M6,54.5 L6,77.5 A0,0 0 0 0 6,77.5 L54.4625,77.5 A0,0 0 0 0 54.4625,77.5 L54.4625,72.5 L88.56,66 L54.4625,64.5 L54.4625,64.5 L44.4625,54.5 L6,54.5 A0,0 0 0 0 6,54.5" style="stroke:#181818;stroke-width:0.5;" fill="#FEFFDD"/><path d="M44.4625,54.5 L44.4625,64.5 L54.4625,64.5 L44.4625,54.5" style="stroke:#181818;stroke-width:0.5;" fill="#FEFFDD"/><text x="12" y="69.6111" fill="#000000" font-size="13" lengthAdjust="spacing" textLength="27.4625" font-family="Helvetica">Note</text></g><?plantuml-src BSd12O0m44JHUwgOLWGHJvviO8aJNDmaObR1xbKG_kdzjcdPvP2CdabEyw4MdoGJ8-sYQvGmgnlXgpQyvHl-GOWchQ4pZGobEc5CZff-0gON0yk2xpu0?></g></svg>