<svg xmlns="http://www.w3.org/2000/svg" xmlns:xlink="http://www.w3.org/1999/xlink" version="1.1" data-diagram-type="CLASS" style="width:117px;height:179px;background:#FFFFFF;" width="117px" height="179px" viewBox="0 0 117 179" zoomAndPan="magnify" preserveAspectRatio="none" contentStyleType="text/css"><?plantuml $version$?><defs/><g><!--class a--><g class="entity" data-qualified-name="a" id="ent0001" data-source-line="1"><rect x="34.23" y="7" width="39.7875" height="48" fill="#F1F1F1" style="stroke:#181818;stroke-width:0.5;" rx="2.5" ry="2.5"/><ellipse cx="49.23" cy="23" rx="11" ry="11" fill="#ADD1B2" style="stroke:#181818;stroke-width:1;"/><path d="M51.7031,29.1431 Q51.1221,29.4419 50.4829,29.5913 Q49.8438,29.7407 49.1382,29.7407 Q46.6314,29.7407 45.3115,28.0889 Q43.9917,26.437 43.9917,23.3159 Q43.9917,20.1865 45.3115,18.5347 Q46.6314,16.8828 49.1382,16.8828 Q49.8438,16.8828 50.4912,17.0322 Q51.1387,17.1816 51.7031,17.4805 L51.7031,20.2031 Q51.0723,19.6221 50.4788,19.3523 Q49.8853,19.0825 49.2544,19.0825 Q47.9097,19.0825 47.2249,20.1492 Q46.5401,21.2158 46.5401,23.3159 Q46.5401,25.4077 47.2249,26.4744 Q47.9097,27.541 49.2544,27.541 Q49.8853,27.541 50.4788,27.2712 Q51.0723,27.0015 51.7031,26.4204 Z " fill="#000000"/><text x="63.23" y="26.8889" fill="#000000" font-size="14" lengthAdjust="spacing" textLength="7.7875" font-family="sans-serif">a</text><line x1="35.23" y1="39" x2="73.0175" y2="39" style="stroke:#181818;stroke-width:0.5;"/><line x1="35.23" y1="47" x2="73.0175" y2="47" style="stroke:#181818;stroke-width:0.5;"/></g><g class="entity" data-qualified-name="GMN2" id="ent0003" data-source-line="3"><path d="M6,115 L6,164 A0,0 0 0 0 6,164 L102.2375,164 A0,0 0 0 0 102.2375,164 L102.2375,125 L92.2375,115 L58.12,115 L54.12,55.37 L50.12,115 L6,115 A0,0 0 0 0 6,115" style="stroke:#181818;stroke-width:0.5;" fill="#FEFFDD"/><path d="M92.2375,115 L92.2375,125 L102.2375,125 L92.2375,115" style="stroke:#181818;stroke-width:0.5;" fill="#FEFFDD"/><text x="12" y="130.1111" fill="#000000" font-size="13" lengthAdjust="spacing" textLength="75.2375" font-family="sans-serif">IF cond THEN</text><text x="12" y="143.1111" fill="#000000" font-size="13" lengthAdjust="spacing" textLength="38.025" font-family="sans-serif">flow=1</text><text x="12" y="156.1111" fill="#000000" font-size="13" lengthAdjust="spacing" textLength="39.0813" font-family="sans-serif">ENDIF</text></g><?plantuml-src Iyv9B2vMIEJAooz9LKZABod9prN8JmCAUBef9EVdfIY4UBZwSIa0GLfEVhcj8PUhdukd6rSgK0Qa1G00?></g></svg>