<svg xmlns="http://www.w3.org/2000/svg" xmlns:xlink="http://www.w3.org/1999/xlink" version="1.1" data-diagram-type="CLASS" style="width:84px;height:192px;background:#FFFF00;" width="84px" height="192px" viewBox="0 0 84 192" zoomAndPan="magnify" preserveAspectRatio="none" contentStyleType="text/css"><?plantuml $version$?><defs/><g><rect x="0" y="0" width="84" height="192" fill="#FFFF00" style="stroke:none;stroke-width:1;"/><!--class Bob--><g class="entity" data-qualified-name="Bob" id="ent0001" data-source-line="9"><rect x="9.76" y="115" width="56.9375" height="62" fill="#F1F1F1" style="stroke:#181818;stroke-width:0.5;" rx="2.5" ry="2.5"/><ellipse cx="24.76" cy="131" rx="11" ry="11" fill="#ADD1B2" style="stroke:#181818;stroke-width:1;"/><path d="M27.2331,137.1431 Q26.6521,137.4419 26.0129,137.5913 Q25.3738,137.7407 24.6682,137.7407 Q22.1614,137.7407 20.8415,136.0889 Q19.5217,134.437 19.5217,131.3159 Q19.5217,128.1865 20.8415,126.5347 Q22.1614,124.8828 24.6682,124.8828 Q25.3738,124.8828 26.0212,125.0322 Q26.6687,125.1816 27.2331,125.4805 L27.2331,128.2031 Q26.6023,127.6221 26.0088,127.3523 Q25.4153,127.0825 24.7844,127.0825 Q23.4397,127.0825 22.7549,128.1492 Q22.0701,129.2158 22.0701,131.3159 Q22.0701,133.4077 22.7549,134.4744 Q23.4397,135.541 24.7844,135.541 Q25.4153,135.541 26.0088,135.2712 Q26.6023,135.0015 27.2331,134.4204 Z " fill="#000000"/><text x="38.76" y="134.8889" fill="#000000" font-size="14" lengthAdjust="spacing" textLength="24.9375" font-family="sans-serif">Bob</text><line x1="10.76" y1="147" x2="65.6975" y2="147" style="stroke:#181818;stroke-width:0.5;"/><text x="15.76" y="161.8889" fill="#000000" font-size="14" lengthAdjust="spacing" textLength="29.6625" font-family="sans-serif">hello</text><line x1="10.76" y1="169" x2="65.6975" y2="169" style="stroke:#181818;stroke-width:0.5;"/></g><!--class Sally--><g class="entity" data-qualified-name="Sally" id="ent0002" data-source-line="14"><rect x="7" y="7" width="62.45" height="48" fill="#F1F1F1" style="stroke:#181818;stroke-width:0.5;" rx="2.5" ry="2.5"/><ellipse cx="22" cy="23" rx="11" ry="11" fill="#ADD1B2" style="stroke:#181818;stroke-width:1;"/><path d="M24.4731,29.1431 Q23.8921,29.4419 23.2529,29.5913 Q22.6138,29.7407 21.9082,29.7407 Q19.4014,29.7407 18.0815,28.0889 Q16.7617,26.437 16.7617,23.3159 Q16.7617,20.1865 18.0815,18.5347 Q19.4014,16.8828 21.9082,16.8828 Q22.6138,16.8828 23.2612,17.0322 Q23.9087,17.1816 24.4731,17.4805 L24.4731,20.2031 Q23.8423,19.6221 23.2488,19.3523 Q22.6553,19.0825 22.0244,19.0825 Q20.6797,19.0825 19.9949,20.1492 Q19.3101,21.2158 19.3101,23.3159 Q19.3101,25.4077 19.9949,26.4744 Q20.6797,27.541 22.0244,27.541 Q22.6553,27.541 23.2488,27.2712 Q23.8423,27.0015 24.4731,26.4204 Z " fill="#000000"/><text x="36" y="26.8889" fill="#000000" font-size="14" lengthAdjust="spacing" textLength="30.45" font-family="sans-serif">Sally</text><line x1="8" y1="39" x2="68.45" y2="39" style="stroke:#181818;stroke-width:0.5;"/><line x1="8" y1="47" x2="68.45" y2="47" style="stroke:#181818;stroke-width:0.5;"/></g><!--link Sally to Bob--><g class="link" data-entity-1="ent0002" data-entity-2="ent0001" id="lnk3" data-source-line="17" data-link-type="dependency"><path d="M38.22,55.41 C38.22,72.61 38.22,91.12 38.22,109.74" style="stroke:#181818;stroke-width:1;" fill="none" id="Sally-to-Bob" codeLine="17"/><polygon points="38.22,114.74,42.22,105.74,38.22,109.74,34.22,105.74,38.22,114.74" fill="#181818" style="stroke:#181818;stroke-width:1;stroke-linejoin:miter;stroke-miterlimit:10;"/></g><?plantuml-src ioakgSn9jUDI08AK_EJItDIy4eLgC1S8d1AJizsByalpKfppS_AB52fJStBooy6ojLms-b2zNEeA1KMPUIMfAGgPUGf9EQMfNCavYSN52axvIK2pCa2Qk6f1oX9pYlDng0rEpCcfvEBY0jCAkhfs8Dq0?></g></svg>