<svg xmlns="http://www.w3.org/2000/svg" xmlns:xlink="http://www.w3.org/1999/xlink" version="1.1" data-diagram-type="CLASS" style="width:234px;height:286px;background:#FFFFFF;" width="234px" height="286px" viewBox="0 0 234 286" zoomAndPan="magnify" preserveAspectRatio="none" contentStyleType="text/css"><?plantuml $version$?><defs/><g><!--class R1--><g class="entity" data-qualified-name="R1" id="ent0001" data-source-line="1"><rect x="7" y="115" width="49.9375" height="48" fill="#F1F1F1" style="stroke:#181818;stroke-width:0.5;" rx="2.5" ry="2.5"/><ellipse cx="22" cy="131" rx="11" ry="11" fill="#ADD1B2" style="stroke:#181818;stroke-width:1;"/><path d="M24.4731,137.1431 Q23.8921,137.4419 23.2529,137.5913 Q22.6138,137.7407 21.9082,137.7407 Q19.4014,137.7407 18.0815,136.0889 Q16.7617,134.437 16.7617,131.3159 Q16.7617,128.1865 18.0815,126.5347 Q19.4014,124.8828 21.9082,124.8828 Q22.6138,124.8828 23.2612,125.0322 Q23.9087,125.1816 24.4731,125.4805 L24.4731,128.2031 Q23.8423,127.6221 23.2488,127.3523 Q22.6553,127.0825 22.0244,127.0825 Q20.6797,127.0825 19.9949,128.1492 Q19.3101,129.2158 19.3101,131.3159 Q19.3101,133.4077 19.9949,134.4744 Q20.6797,135.541 22.0244,135.541 Q22.6553,135.541 23.2488,135.2712 Q23.8423,135.0015 24.4731,134.4204 Z " fill="#000000"/><text x="36" y="134.8889" fill="#000000" font-size="14" lengthAdjust="spacing" textLength="17.9375" font-family="sans-serif">R1</text><line x1="8" y1="147" x2="55.9375" y2="147" style="stroke:#181818;stroke-width:0.5;"/><line x1="8" y1="155" x2="55.9375" y2="155" style="stroke:#181818;stroke-width:0.5;"/></g><!--class R2--><g class="entity" data-qualified-name="R2" id="ent0002" data-source-line="2"><rect x="170" y="115" width="49.9375" height="48" fill="#F1F1F1" style="stroke:#181818;stroke-width:0.5;" rx="2.5" ry="2.5"/><ellipse cx="185" cy="131" rx="11" ry="11" fill="#ADD1B2" style="stroke:#181818;stroke-width:1;"/><path d="M187.4731,137.1431 Q186.8921,137.4419 186.2529,137.5913 Q185.6138,137.7407 184.9082,137.7407 Q182.4014,137.7407 181.0815,136.0889 Q179.7617,134.437 179.7617,131.3159 Q179.7617,128.1865 181.0815,126.5347 Q182.4014,124.8828 184.9082,124.8828 Q185.6138,124.8828 186.2612,125.0322 Q186.9087,125.1816 187.4731,125.4805 L187.4731,128.2031 Q186.8423,127.6221 186.2488,127.3523 Q185.6553,127.0825 185.0244,127.0825 Q183.6797,127.0825 182.9949,128.1492 Q182.3101,129.2158 182.3101,131.3159 Q182.3101,133.4077 182.9949,134.4744 Q183.6797,135.541 185.0244,135.541 Q185.6553,135.541 186.2488,135.2712 Q186.8423,135.0015 187.4731,134.4204 Z " fill="#000000"/><text x="199" y="134.8889" fill="#000000" font-size="14" lengthAdjust="spacing" textLength="17.9375" font-family="sans-serif">R2</text><line x1="171" y1="147" x2="218.9375" y2="147" style="stroke:#181818;stroke-width:0.5;"/><line x1="171" y1="155" x2="218.9375" y2="155" style="stroke:#181818;stroke-width:0.5;"/></g><!--class A--><g class="entity" data-qualified-name="A" id="ent0003" data-source-line="3"><rect x="92.29" y="7" width="41.3625" height="48" fill="#F1F1F1" style="stroke:#181818;stroke-width:0.5;" rx="2.5" ry="2.5"/><ellipse cx="107.29" cy="23" rx="11" ry="11" fill="#ADD1B2" style="stroke:#181818;stroke-width:1;"/><path d="M109.7631,29.1431 Q109.1821,29.4419 108.5429,29.5913 Q107.9038,29.7407 107.1982,29.7407 Q104.6914,29.7407 103.3715,28.0889 Q102.0517,26.437 102.0517,23.3159 Q102.0517,20.1865 103.3715,18.5347 Q104.6914,16.8828 107.1982,16.8828 Q107.9038,16.8828 108.5512,17.0322 Q109.1987,17.1816 109.7631,17.4805 L109.7631,20.2031 Q109.1323,19.6221 108.5388,19.3523 Q107.9453,19.0825 107.3144,19.0825 Q105.9697,19.0825 105.2849,20.1492 Q104.6001,21.2158 104.6001,23.3159 Q104.6001,25.4077 105.2849,26.4744 Q105.9697,27.541 107.3144,27.541 Q107.9453,27.541 108.5388,27.2712 Q109.1323,27.0015 109.7631,26.4204 Z " fill="#000000"/><text x="121.29" y="26.8889" fill="#000000" font-size="14" lengthAdjust="spacing" textLength="9.3625" font-family="sans-serif">A</text><line x1="93.29" y1="39" x2="132.6525" y2="39" style="stroke:#181818;stroke-width:0.5;"/><line x1="93.29" y1="47" x2="132.6525" y2="47" style="stroke:#181818;stroke-width:0.5;"/></g><!--class B--><g class="entity" data-qualified-name="B" id="ent0004" data-source-line="3"><rect x="92.29" y="223" width="41.3625" height="48" fill="#F1F1F1" style="stroke:#181818;stroke-width:0.5;" rx="2.5" ry="2.5"/><ellipse cx="107.29" cy="239" rx="11" ry="11" fill="#ADD1B2" style="stroke:#181818;stroke-width:1;"/><path d="M109.7631,245.1431 Q109.1821,245.4419 108.5429,245.5913 Q107.9038,245.7407 107.1982,245.7407 Q104.6914,245.7407 103.3715,244.0889 Q102.0517,242.437 102.0517,239.3159 Q102.0517,236.1865 103.3715,234.5347 Q104.6914,232.8828 107.1982,232.8828 Q107.9038,232.8828 108.5512,233.0322 Q109.1987,233.1816 109.7631,233.4805 L109.7631,236.2031 Q109.1323,235.6221 108.5388,235.3523 Q107.9453,235.0825 107.3144,235.0825 Q105.9697,235.0825 105.2849,236.1492 Q104.6001,237.2158 104.6001,239.3159 Q104.6001,241.4077 105.2849,242.4744 Q105.9697,243.541 107.3144,243.541 Q107.9453,243.541 108.5388,243.2712 Q109.1323,243.0015 109.7631,242.4204 Z " fill="#000000"/><text x="121.29" y="242.8889" fill="#000000" font-size="14" lengthAdjust="spacing" textLength="9.3625" font-family="sans-serif">B</text><line x1="93.29" y1="255" x2="132.6525" y2="255" style="stroke:#181818;stroke-width:0.5;"/><line x1="93.29" y1="263" x2="132.6525" y2="263" style="stroke:#181818;stroke-width:0.5;"/></g><ellipse cx="93.97" cy="139" rx="2" ry="2" fill="#181818" style="stroke:#181818;stroke-width:1;"/><ellipse cx="132.97" cy="139" rx="2" ry="2" fill="#181818" style="stroke:#181818;stroke-width:1;"/><!--link A to apoint6--><g class="link" data-entity-1="ent0003" data-entity-2="ent0007" id="lnk8" data-source-line="4" data-link-type="association"><path d="M108.8,55.26 C103.73,83.54 95.67,128.52 94.2,136.7" style="stroke:#181818;stroke-width:1;" fill="none" id="A-apoint6"/></g><!--link apoint6 to B--><g class="link" data-entity-1="ent0007" data-entity-2="ent0004" id="lnk9" data-source-line="4" data-link-type="association"><path d="M94.18,141.19 C95.59,149.06 103.68,194.16 108.77,222.57" style="stroke:#181818;stroke-width:1;" fill="none" id="apoint6-B"/></g><!--link A to apoint11--><g class="link" data-entity-1="ent0003" data-entity-2="ent0012" id="lnk14" data-source-line="5" data-link-type="association"><path d="M117.36,55.26 C122.69,83.54 131.18,128.52 132.72,136.7" style="stroke:#181818;stroke-width:1;" fill="none" id="A-apoint11"/></g><!--link apoint11 to B--><g class="link" data-entity-1="ent0012" data-entity-2="ent0004" id="lnk15" data-source-line="5" data-link-type="association"><path d="M132.74,141.19 C131.26,149.06 122.75,194.16 117.39,222.57" style="stroke:#181818;stroke-width:1;" fill="none" id="apoint11-B"/></g><!--link R1 to apoint6--><g class="link" data-entity-1="ent0001" data-entity-2="ent0007" id="lnk16" data-source-line="4" data-link-type="association"><path d="M57.16,139 C68.66,139 80.16,139 91.67,139" style="stroke:#181818;stroke-width:1;stroke-dasharray:7,7;" fill="none" id="R1-apoint6"/></g><!--link apoint11 to R2--><g class="link" data-entity-1="ent0012" data-entity-2="ent0002" id="lnk17" data-source-line="5" data-link-type="association"><path d="M135.39,139 C146.87,139 158.35,139 169.83,139" style="stroke:#181818;stroke-width:1;stroke-dasharray:7,7;" fill="none" id="apoint11-R2"/></g><?plantuml-src Iyv9B2vM23BaIeOmZBWSTPsuD1nrd3GLzFH04WYs4G00?></g></svg>