<svg xmlns="http://www.w3.org/2000/svg" xmlns:xlink="http://www.w3.org/1999/xlink" version="1.1" data-diagram-type="CLASS" style="width:213px;height:394px;background:#FFFFFF;" width="213px" height="394px" viewBox="0 0 213 394" zoomAndPan="magnify" preserveAspectRatio="none" contentStyleType="text/css"><?plantuml $version$?><defs/><g><!--class A--><g class="entity" data-qualified-name="A" id="ent0001" data-source-line="1"><rect x="81.39" y="7" width="41.3625" height="48" fill="#F1F1F1" style="stroke:#181818;stroke-width:0.5;" rx="2.5" ry="2.5"/><ellipse cx="96.39" cy="23" rx="11" ry="11" fill="#ADD1B2" style="stroke:#181818;stroke-width:1;"/><path d="M98.8631,29.1431 Q98.2821,29.4419 97.6429,29.5913 Q97.0038,29.7407 96.2982,29.7407 Q93.7914,29.7407 92.4715,28.0889 Q91.1517,26.437 91.1517,23.3159 Q91.1517,20.1865 92.4715,18.5347 Q93.7914,16.8828 96.2982,16.8828 Q97.0038,16.8828 97.6512,17.0322 Q98.2987,17.1816 98.8631,17.4805 L98.8631,20.2031 Q98.2323,19.6221 97.6388,19.3523 Q97.0453,19.0825 96.4144,19.0825 Q95.0697,19.0825 94.3849,20.1492 Q93.7001,21.2158 93.7001,23.3159 Q93.7001,25.4077 94.3849,26.4744 Q95.0697,27.541 96.4144,27.541 Q97.0453,27.541 97.6388,27.2712 Q98.2323,27.0015 98.8631,26.4204 Z " fill="#000000"/><text x="110.39" y="26.8889" fill="#000000" font-size="14" lengthAdjust="spacing" textLength="9.3625" font-family="sans-serif">A</text><line x1="82.39" y1="39" x2="121.7525" y2="39" style="stroke:#181818;stroke-width:0.5;"/><line x1="82.39" y1="47" x2="121.7525" y2="47" style="stroke:#181818;stroke-width:0.5;"/></g><!--class B--><g class="entity" data-qualified-name="B" id="ent0002" data-source-line="2"><rect x="157.39" y="7" width="41.3625" height="48" fill="#F1F1F1" style="stroke:#181818;stroke-width:0.5;" rx="2.5" ry="2.5"/><ellipse cx="172.39" cy="23" rx="11" ry="11" fill="#ADD1B2" style="stroke:#181818;stroke-width:1;"/><path d="M174.8631,29.1431 Q174.2821,29.4419 173.6429,29.5913 Q173.0038,29.7407 172.2982,29.7407 Q169.7914,29.7407 168.4715,28.0889 Q167.1517,26.437 167.1517,23.3159 Q167.1517,20.1865 168.4715,18.5347 Q169.7914,16.8828 172.2982,16.8828 Q173.0038,16.8828 173.6512,17.0322 Q174.2987,17.1816 174.8631,17.4805 L174.8631,20.2031 Q174.2323,19.6221 173.6388,19.3523 Q173.0453,19.0825 172.4144,19.0825 Q171.0697,19.0825 170.3849,20.1492 Q169.7001,21.2158 169.7001,23.3159 Q169.7001,25.4077 170.3849,26.4744 Q171.0697,27.541 172.4144,27.541 Q173.0453,27.541 173.6388,27.2712 Q174.2323,27.0015 174.8631,26.4204 Z " fill="#000000"/><text x="186.39" y="26.8889" fill="#000000" font-size="14" lengthAdjust="spacing" textLength="9.3625" font-family="sans-serif">B</text><line x1="158.39" y1="39" x2="197.7525" y2="39" style="stroke:#181818;stroke-width:0.5;"/><line x1="158.39" y1="47" x2="197.7525" y2="47" style="stroke:#181818;stroke-width:0.5;"/></g><!--class C--><g class="entity" data-qualified-name="C" id="ent0004" data-source-line="3"><rect x="7" y="115" width="42.15" height="48" fill="#F1F1F1" style="stroke:#181818;stroke-width:0.5;" rx="2.5" ry="2.5"/><ellipse cx="22" cy="131" rx="11" ry="11" fill="#ADD1B2" style="stroke:#181818;stroke-width:1;"/><path d="M24.4731,137.1431 Q23.8921,137.4419 23.2529,137.5913 Q22.6138,137.7407 21.9082,137.7407 Q19.4014,137.7407 18.0815,136.0889 Q16.7617,134.437 16.7617,131.3159 Q16.7617,128.1865 18.0815,126.5347 Q19.4014,124.8828 21.9082,124.8828 Q22.6138,124.8828 23.2612,125.0322 Q23.9087,125.1816 24.4731,125.4805 L24.4731,128.2031 Q23.8423,127.6221 23.2488,127.3523 Q22.6553,127.0825 22.0244,127.0825 Q20.6797,127.0825 19.9949,128.1492 Q19.3101,129.2158 19.3101,131.3159 Q19.3101,133.4077 19.9949,134.4744 Q20.6797,135.541 22.0244,135.541 Q22.6553,135.541 23.2488,135.2712 Q23.8423,135.0015 24.4731,134.4204 Z " fill="#000000"/><text x="36" y="134.8889" fill="#000000" font-size="14" lengthAdjust="spacing" textLength="10.15" font-family="sans-serif">C</text><line x1="8" y1="147" x2="48.15" y2="147" style="stroke:#181818;stroke-width:0.5;"/><line x1="8" y1="155" x2="48.15" y2="155" style="stroke:#181818;stroke-width:0.5;"/></g><!--class D--><g class="entity" data-qualified-name="D" id="ent0006" data-source-line="4"><rect x="81" y="223" width="42.15" height="48" fill="#F1F1F1" style="stroke:#181818;stroke-width:0.5;" rx="2.5" ry="2.5"/><ellipse cx="96" cy="239" rx="11" ry="11" fill="#ADD1B2" style="stroke:#181818;stroke-width:1;"/><path d="M98.4731,245.1431 Q97.8921,245.4419 97.2529,245.5913 Q96.6138,245.7407 95.9082,245.7407 Q93.4014,245.7407 92.0815,244.0889 Q90.7617,242.437 90.7617,239.3159 Q90.7617,236.1865 92.0815,234.5347 Q93.4014,232.8828 95.9082,232.8828 Q96.6138,232.8828 97.2612,233.0322 Q97.9087,233.1816 98.4731,233.4805 L98.4731,236.2031 Q97.8423,235.6221 97.2488,235.3523 Q96.6553,235.0825 96.0244,235.0825 Q94.6797,235.0825 93.9949,236.1492 Q93.3101,237.2158 93.3101,239.3159 Q93.3101,241.4077 93.9949,242.4744 Q94.6797,243.541 96.0244,243.541 Q96.6553,243.541 97.2488,243.2712 Q97.8423,243.0015 98.4731,242.4204 Z " fill="#000000"/><text x="110" y="242.8889" fill="#000000" font-size="14" lengthAdjust="spacing" textLength="10.15" font-family="sans-serif">D</text><line x1="82" y1="255" x2="122.15" y2="255" style="stroke:#181818;stroke-width:0.5;"/><line x1="82" y1="263" x2="122.15" y2="263" style="stroke:#181818;stroke-width:0.5;"/></g><!--class E--><g class="entity" data-qualified-name="E" id="ent0008" data-source-line="5"><rect x="155.39" y="331" width="41.3625" height="48" fill="#F1F1F1" style="stroke:#181818;stroke-width:0.5;" rx="2.5" ry="2.5"/><ellipse cx="170.39" cy="347" rx="11" ry="11" fill="#ADD1B2" style="stroke:#181818;stroke-width:1;"/><path d="M172.8631,353.1431 Q172.2821,353.4419 171.6429,353.5913 Q171.0038,353.7407 170.2982,353.7407 Q167.7914,353.7407 166.4715,352.0889 Q165.1517,350.437 165.1517,347.3159 Q165.1517,344.1865 166.4715,342.5347 Q167.7914,340.8828 170.2982,340.8828 Q171.0038,340.8828 171.6512,341.0322 Q172.2987,341.1816 172.8631,341.4805 L172.8631,344.2031 Q172.2323,343.6221 171.6388,343.3523 Q171.0453,343.0825 170.4144,343.0825 Q169.0697,343.0825 168.3849,344.1492 Q167.7001,345.2158 167.7001,347.3159 Q167.7001,349.4077 168.3849,350.4744 Q169.0697,351.541 170.4144,351.541 Q171.0453,351.541 171.6388,351.2712 Q172.2323,351.0015 172.8631,350.4204 Z " fill="#000000"/><text x="184.39" y="350.8889" fill="#000000" font-size="14" lengthAdjust="spacing" textLength="9.3625" font-family="sans-serif">E</text><line x1="156.39" y1="363" x2="195.7525" y2="363" style="stroke:#181818;stroke-width:0.5;"/><line x1="156.39" y1="371" x2="195.7525" y2="371" style="stroke:#181818;stroke-width:0.5;"/></g><!--link A to B--><g class="link" data-entity-1="ent0001" data-entity-2="ent0002" id="lnk3" data-source-line="2" data-link-type="composition"><path d="M123.15,31 C134.45,31 133.75,31 145.05,31" style="stroke:#181818;stroke-width:1;" fill="none" id="A-to-B" codeLine="2"/><polygon points="157.05,31,151.05,27,145.05,31,151.05,35,157.05,31" fill="#181818" style="stroke:#181818;stroke-width:1;stroke-linejoin:miter;stroke-miterlimit:10;"/></g><!--link A to C--><g class="link" data-entity-1="ent0001" data-entity-2="ent0004" id="lnk5" data-source-line="3" data-link-type="composition"><path d="M85.84,55.26 C73.5,72.94 63.4796,87.2908 51.1496,104.9508" style="stroke:#181818;stroke-width:1;" fill="none" id="A-to-C" codeLine="3"/><polygon points="44.28,114.79,50.9945,112.1603,51.1496,104.9508,44.4351,107.5806,44.28,114.79" fill="#181818" style="stroke:#181818;stroke-width:1;stroke-linejoin:miter;stroke-miterlimit:10;"/></g><!--link A to D--><g class="link" data-entity-1="ent0001" data-entity-2="ent0006" id="lnk7" data-source-line="4" data-link-type="composition"><path d="M102.08,55.31 C102.08,96.47 102.08,169.58 102.08,210.72" style="stroke:#181818;stroke-width:1;" fill="none" id="A-to-D" codeLine="4"/><polygon points="102.08,222.72,106.08,216.72,102.08,210.72,98.08,216.72,102.08,222.72" fill="#181818" style="stroke:#181818;stroke-width:1;stroke-linejoin:miter;stroke-miterlimit:10;"/></g><!--link A to E--><g class="link" data-entity-1="ent0001" data-entity-2="ent0008" id="lnk9" data-source-line="5" data-link-type="composition"><path d="M110.14,55.42 C115.65,71.95 122.86,94.67 128.08,115 C148.14,193.3 162.9922,275.9675 170.2422,318.9075" style="stroke:#181818;stroke-width:1;" fill="none" id="A-to-E" codeLine="5"/><polygon points="172.24,330.74,175.1853,324.1578,170.2422,318.9075,167.2969,325.4897,172.24,330.74" fill="#181818" style="stroke:#181818;stroke-width:1;stroke-linejoin:miter;stroke-miterlimit:10;"/></g><?plantuml-src Iyv9B2vMSEHoLD3LKd02KK3Q6Km36IuG1f3b2W00?></g></svg>