<svg xmlns="http://www.w3.org/2000/svg" xmlns:xlink="http://www.w3.org/1999/xlink" version="1.1" data-diagram-type="CLASS" style="width:379px;height:172px;background:#FFFFFF;" width="379px" height="172px" viewBox="0 0 379 172" zoomAndPan="magnify" preserveAspectRatio="none" contentStyleType="text/css"><?plantuml $version$?><defs/><g><!--class SomeClass A--><g class="entity" data-qualified-name="SomeClass A" id="ent0001" data-source-line="1"><rect x="7" y="7" width="161.1875" height="150" fill="#F1F1F1" style="stroke:#181818;stroke-width:0.5;" rx="2.5" ry="2.5"/><ellipse cx="43.6731" cy="23" rx="11" ry="11" fill="#ADD1B2" style="stroke:#181818;stroke-width:1;"/><path d="M46.1463,29.1431 Q45.5652,29.4419 44.9261,29.5913 Q44.2869,29.7407 43.5813,29.7407 Q41.0745,29.7407 39.7547,28.0889 Q38.4348,26.437 38.4348,23.3159 Q38.4348,20.1865 39.7547,18.5347 Q41.0745,16.8828 43.5813,16.8828 Q44.2869,16.8828 44.9344,17.0322 Q45.5818,17.1816 46.1463,17.4805 L46.1463,20.2031 Q45.5154,19.6221 44.9219,19.3523 Q44.3284,19.0825 43.6975,19.0825 Q42.3528,19.0825 41.668,20.1492 Q40.9832,21.2158 40.9832,23.3159 Q40.9832,25.4077 41.668,26.4744 Q42.3528,27.541 43.6975,27.541 Q44.3284,27.541 44.9219,27.2712 Q45.5154,27.0015 46.1463,26.4204 Z " fill="#000000"/><text x="62.4894" y="26.8889" fill="#000000" font-size="14" lengthAdjust="spacing" textLength="81.025" font-family="sans-serif">SomeClass A</text><line x1="8" y1="39" x2="167.1875" y2="39" style="stroke:#181818;stroke-width:0.5;"/><g data-visibility-modifier="PRIVATE_FIELD"><rect x="15" y="48.5" width="6" height="6" fill="none" style="stroke:#C82930;stroke-width:1;"/></g><text x="27" y="53.8889" fill="#000000" font-size="14" lengthAdjust="spacing" textLength="71.575" font-family="sans-serif">_someVar1</text><line x1="8" y1="61" x2="167.1875" y2="61" style="stroke:#181818;stroke-width:1;"/><g data-visibility-modifier="PUBLIC_METHOD"><ellipse cx="18" cy="73.5" rx="3" ry="3" fill="#84BE84" style="stroke:#038048;stroke-width:1;"/></g><text x="27" y="75.8889" fill="#000000" font-size="14" lengthAdjust="spacing" textLength="88.725" font-family="sans-serif">SomeClass1()</text><g data-visibility-modifier="PUBLIC_METHOD"><ellipse cx="18" cy="87.5" rx="3" ry="3" fill="#84BE84" style="stroke:#038048;stroke-width:1;"/></g><text x="27" y="89.8889" fill="#000000" font-size="14" lengthAdjust="spacing" textLength="100.275" font-family="sans-serif">SomeMethod1()</text><text x="25" y="109.8889" fill="#000000" font-size="14" lengthAdjust="spacing" textLength="70.7875" font-family="sans-serif">Tree item 11</text><text x="25" y="123.8889" fill="#000000" font-size="14" lengthAdjust="spacing" textLength="70.7875" font-family="sans-serif">Tree item 12</text><text x="25" y="137.8889" fill="#000000" font-size="14" lengthAdjust="spacing" textLength="70.7875" font-family="sans-serif">Tree item 13</text><rect x="22" y="105" width="2" height="2" fill="#F1F1F1" style="stroke:#000000;stroke-width:1;"/><line x1="15" y1="106" x2="23" y2="106" style="stroke:#000000;stroke-width:1;"/><line x1="15" y1="99" x2="15" y2="106" style="stroke:#000000;stroke-width:1;"/><rect x="22" y="119" width="2" height="2" fill="#F1F1F1" style="stroke:#000000;stroke-width:1;"/><line x1="15" y1="120" x2="23" y2="120" style="stroke:#000000;stroke-width:1;"/><line x1="15" y1="106" x2="15" y2="120" style="stroke:#000000;stroke-width:1;"/><rect x="22" y="133" width="2" height="2" fill="#F1F1F1" style="stroke:#000000;stroke-width:1;"/><line x1="15" y1="134" x2="23" y2="134" style="stroke:#000000;stroke-width:1;"/><line x1="15" y1="120" x2="15" y2="134" style="stroke:#000000;stroke-width:1;"/><g data-visibility-modifier="PUBLIC_METHOD"><ellipse cx="18" cy="151.5" rx="3" ry="3" fill="#84BE84" style="stroke:#038048;stroke-width:1;"/></g><text x="27" y="153.8889" fill="#000000" font-size="14" lengthAdjust="spacing" textLength="135.1875" font-family="sans-serif">SomeOtherMethod1()</text></g><!--class SomeClass B--><g class="entity" data-qualified-name="SomeClass B" id="ent0002" data-source-line="13"><rect x="203" y="7" width="161.1875" height="150" fill="#F1F1F1" style="stroke:#181818;stroke-width:0.5;" rx="2.5" ry="2.5"/><ellipse cx="239.6731" cy="23" rx="11" ry="11" fill="#ADD1B2" style="stroke:#181818;stroke-width:1;"/><path d="M242.1463,29.1431 Q241.5652,29.4419 240.9261,29.5913 Q240.2869,29.7407 239.5813,29.7407 Q237.0745,29.7407 235.7547,28.0889 Q234.4348,26.437 234.4348,23.3159 Q234.4348,20.1865 235.7547,18.5347 Q237.0745,16.8828 239.5813,16.8828 Q240.2869,16.8828 240.9344,17.0322 Q241.5818,17.1816 242.1463,17.4805 L242.1463,20.2031 Q241.5154,19.6221 240.9219,19.3523 Q240.3284,19.0825 239.6975,19.0825 Q238.3528,19.0825 237.668,20.1492 Q236.9832,21.2158 236.9832,23.3159 Q236.9832,25.4077 237.668,26.4744 Q238.3528,27.541 239.6975,27.541 Q240.3284,27.541 240.9219,27.2712 Q241.5154,27.0015 242.1463,26.4204 Z " fill="#000000"/><text x="258.4894" y="26.8889" fill="#000000" font-size="14" lengthAdjust="spacing" textLength="81.025" font-family="sans-serif">SomeClass B</text><line x1="204" y1="39" x2="363.1875" y2="39" style="stroke:#181818;stroke-width:0.5;"/><g data-visibility-modifier="PRIVATE_FIELD"><rect x="211" y="48.5" width="6" height="6" fill="none" style="stroke:#C82930;stroke-width:1;"/></g><text x="223" y="53.8889" fill="#000000" font-size="14" lengthAdjust="spacing" textLength="71.575" font-family="sans-serif">_someVar2</text><line x1="204" y1="61" x2="363.1875" y2="61" style="stroke:#181818;stroke-width:1;"/><g data-visibility-modifier="PUBLIC_METHOD"><ellipse cx="214" cy="73.5" rx="3" ry="3" fill="#84BE84" style="stroke:#038048;stroke-width:1;"/></g><text x="223" y="75.8889" fill="#000000" font-size="14" lengthAdjust="spacing" textLength="88.725" font-family="sans-serif">SomeClass2()</text><g data-visibility-modifier="PUBLIC_METHOD"><ellipse cx="214" cy="87.5" rx="3" ry="3" fill="#84BE84" style="stroke:#038048;stroke-width:1;"/></g><text x="223" y="89.8889" fill="#000000" font-size="14" lengthAdjust="spacing" textLength="100.275" font-family="sans-serif">SomeMethod2()</text><text x="221" y="109.8889" fill="#000000" font-size="14" lengthAdjust="spacing" textLength="70.7875" font-family="sans-serif">Tree item 21</text><text x="221" y="123.8889" fill="#000000" font-size="14" lengthAdjust="spacing" textLength="70.7875" font-family="sans-serif">Tree item 22</text><text x="221" y="137.8889" fill="#000000" font-size="14" lengthAdjust="spacing" textLength="70.7875" font-family="sans-serif">Tree item 23</text><rect x="218" y="105" width="2" height="2" fill="#F1F1F1" style="stroke:#000000;stroke-width:1;"/><line x1="211" y1="106" x2="219" y2="106" style="stroke:#000000;stroke-width:1;"/><line x1="211" y1="99" x2="211" y2="106" style="stroke:#000000;stroke-width:1;"/><rect x="218" y="119" width="2" height="2" fill="#F1F1F1" style="stroke:#000000;stroke-width:1;"/><line x1="211" y1="120" x2="219" y2="120" style="stroke:#000000;stroke-width:1;"/><line x1="211" y1="106" x2="211" y2="120" style="stroke:#000000;stroke-width:1;"/><rect x="218" y="133" width="2" height="2" fill="#F1F1F1" style="stroke:#000000;stroke-width:1;"/><line x1="211" y1="134" x2="219" y2="134" style="stroke:#000000;stroke-width:1;"/><line x1="211" y1="120" x2="211" y2="134" style="stroke:#000000;stroke-width:1;"/><g data-visibility-modifier="PUBLIC_METHOD"><ellipse cx="214" cy="151.5" rx="3" ry="3" fill="#84BE84" style="stroke:#038048;stroke-width:1;"/></g><text x="223" y="153.8889" fill="#000000" font-size="14" lengthAdjust="spacing" textLength="135.1875" font-family="sans-serif">SomeOtherMethod2()</text></g><?plantuml-src Iyv9B2vMK0hEpqrr1ZCTbRYgkHI0G5SXlXWe6fPOPCYbgmiMqbQ0gpFKq4GIyaqjoSXFWOc1G4syGaXHQgf2PabgheAX8Gvn8npYnaXc-vTaf1OXBAZbuaf6TxCJffkDiBZP28kROM8ezXiPOX4pmYA6mvqWGsi1?></g></svg>