<svg xmlns="http://www.w3.org/2000/svg" xmlns:xlink="http://www.w3.org/1999/xlink" version="1.1" data-diagram-type="CLASS" style="width:173px;height:90px;background:#FFFFFF;" width="173px" height="90px" viewBox="0 0 173 90" zoomAndPan="magnify" preserveAspectRatio="none" contentStyleType="text/css"><?plantuml $version$?><defs/><g><!--class Demo--><g class="entity" data-qualified-name="Demo" id="ent0001" data-source-line="9"><rect x="7" y="7" width="153.6875" height="70" fill="#F1F1F1" style="stroke:#181818;stroke-width:0.5;" rx="2.5" ry="2.5"/><ellipse cx="24" cy="34" rx="13" ry="13" fill="#ADD1B2" style="stroke:#181818;stroke-width:1;"/><path d="M26.2188,40.9824 Q25.3984,41.3828 24.5635,41.583 Q23.7285,41.7832 22.8398,41.7832 Q20.5938,41.7832 19.3584,40.4844 Q18.123,39.1855 18.123,36.8418 Q18.123,34.6934 18.8066,32.584 Q19.4902,30.4746 20.6035,29.1367 Q21.6484,27.8672 22.9082,27.2617 Q24.168,26.6563 25.7793,26.6563 Q26.5605,26.6563 27.332,26.8613 Q28.1035,27.0664 28.8359,27.457 L28.4355,29.4785 Q27.8105,28.8633 27.1172,28.5605 Q26.4238,28.2578 25.6426,28.2578 Q24.7148,28.2578 23.9238,28.6533 Q23.1328,29.0488 22.4395,29.8594 Q21.4238,31.0605 20.8037,32.9355 Q20.1836,34.8105 20.1836,36.6953 Q20.1836,38.3848 20.9453,39.2832 Q21.707,40.1816 23.1426,40.1816 Q23.9727,40.1816 24.8564,39.8691 Q25.7402,39.5566 26.5996,38.9609 Z " fill="#000000"/><text x="38" y="35.3333" fill="#000000" font-size="30" lengthAdjust="spacing" textLength="121.6875" font-weight="700" font-family="Times">«Stereo»</text><text x="80.1625" y="52.8889" fill="#000000" font-size="14" lengthAdjust="spacing" textLength="37.3625" font-family="sans-serif">Demo</text><line x1="8" y1="61" x2="159.6875" y2="61" style="stroke:#181818;stroke-width:0.5;"/><line x1="8" y1="69" x2="159.6875" y2="69" style="stroke:#181818;stroke-width:0.5;"/></g><?plantuml-src AyxEp2j8B4hCLN3EB4hEIKrnpW3oaajIYzpoyqg2IofpKXKyIn9pCfEvYl4hpQnALJ0omACgA34bixHOmT2O2rbHJc9nSJ1GDZM_fB8W5MwIiG41HM2NEUNdfE1NvvUOcweGafcRMip5bGoILd19pSrNiB5HWAXJiBC30000?></g></svg>