<svg xmlns="http://www.w3.org/2000/svg" xmlns:xlink="http://www.w3.org/1999/xlink" version="1.1" data-diagram-type="CLASS" style="width:175px;height:178px;background:#FFFFFF;" width="175px" height="178px" viewBox="0 0 175 178" zoomAndPan="magnify" preserveAspectRatio="none" contentStyleType="text/css"><?plantuml $version$?><defs/><g><!--class Foo--><g class="entity" data-qualified-name="Foo" id="ent0001" data-source-line="1"><rect x="55.53" y="7" width="56.15" height="48" fill="#F1F1F1" style="stroke:#181818;stroke-width:0.5;" rx="2.5" ry="2.5"/><ellipse cx="70.53" cy="23" rx="11" ry="11" fill="#ADD1B2" style="stroke:#181818;stroke-width:1;"/><path d="M73.0031,29.1431 Q72.4221,29.4419 71.7829,29.5913 Q71.1438,29.7407 70.4382,29.7407 Q67.9314,29.7407 66.6115,28.0889 Q65.2917,26.437 65.2917,23.3159 Q65.2917,20.1865 66.6115,18.5347 Q67.9314,16.8828 70.4382,16.8828 Q71.1438,16.8828 71.7912,17.0322 Q72.4387,17.1816 73.0031,17.4805 L73.0031,20.2031 Q72.3723,19.6221 71.7788,19.3523 Q71.1853,19.0825 70.5544,19.0825 Q69.2097,19.0825 68.5249,20.1492 Q67.8401,21.2158 67.8401,23.3159 Q67.8401,25.4077 68.5249,26.4744 Q69.2097,27.541 70.5544,27.541 Q71.1853,27.541 71.7788,27.2712 Q72.3723,27.0015 73.0031,26.4204 Z " fill="#000000"/><text x="84.53" y="26.8889" fill="#000000" font-size="14" lengthAdjust="spacing" textLength="24.15" font-family="sans-serif">Foo</text><line x1="56.53" y1="39" x2="110.68" y2="39" style="stroke:#181818;stroke-width:0.5;"/><line x1="56.53" y1="47" x2="110.68" y2="47" style="stroke:#181818;stroke-width:0.5;"/></g><!--class foo2--><g class="entity" data-qualified-name="foo2" id="ent0002" data-source-line="2"><rect x="7" y="115" width="59.2125" height="48" fill="#F1F1F1" style="stroke:#181818;stroke-width:0.5;" rx="2.5" ry="2.5"/><ellipse cx="22" cy="131" rx="11" ry="11" fill="#ADD1B2" style="stroke:#181818;stroke-width:1;"/><path d="M24.4731,137.1431 Q23.8921,137.4419 23.2529,137.5913 Q22.6138,137.7407 21.9082,137.7407 Q19.4014,137.7407 18.0815,136.0889 Q16.7617,134.437 16.7617,131.3159 Q16.7617,128.1865 18.0815,126.5347 Q19.4014,124.8828 21.9082,124.8828 Q22.6138,124.8828 23.2612,125.0322 Q23.9087,125.1816 24.4731,125.4805 L24.4731,128.2031 Q23.8423,127.6221 23.2488,127.3523 Q22.6553,127.0825 22.0244,127.0825 Q20.6797,127.0825 19.9949,128.1492 Q19.3101,129.2158 19.3101,131.3159 Q19.3101,133.4077 19.9949,134.4744 Q20.6797,135.541 22.0244,135.541 Q22.6553,135.541 23.2488,135.2712 Q23.8423,135.0015 24.4731,134.4204 Z " fill="#000000"/><text x="36" y="134.8889" fill="#000000" font-size="14" lengthAdjust="spacing" textLength="27.2125" font-family="sans-serif">foo2</text><line x1="8" y1="147" x2="65.2125" y2="147" style="stroke:#181818;stroke-width:0.5;"/><line x1="8" y1="155" x2="65.2125" y2="155" style="stroke:#181818;stroke-width:0.5;"/></g><!--class foo3--><g class="entity" data-qualified-name="foo3" id="ent0004" data-source-line="3"><rect x="101" y="115" width="59.2125" height="48" fill="#F1F1F1" style="stroke:#181818;stroke-width:0.5;" rx="2.5" ry="2.5"/><ellipse cx="116" cy="131" rx="11" ry="11" fill="#ADD1B2" style="stroke:#181818;stroke-width:1;"/><path d="M118.4731,137.1431 Q117.8921,137.4419 117.2529,137.5913 Q116.6138,137.7407 115.9082,137.7407 Q113.4014,137.7407 112.0815,136.0889 Q110.7617,134.437 110.7617,131.3159 Q110.7617,128.1865 112.0815,126.5347 Q113.4014,124.8828 115.9082,124.8828 Q116.6138,124.8828 117.2612,125.0322 Q117.9087,125.1816 118.4731,125.4805 L118.4731,128.2031 Q117.8423,127.6221 117.2488,127.3523 Q116.6553,127.0825 116.0244,127.0825 Q114.6797,127.0825 113.9949,128.1492 Q113.3101,129.2158 113.3101,131.3159 Q113.3101,133.4077 113.9949,134.4744 Q114.6797,135.541 116.0244,135.541 Q116.6553,135.541 117.2488,135.2712 Q117.8423,135.0015 118.4731,134.4204 Z " fill="#000000"/><text x="130" y="134.8889" fill="#000000" font-size="14" lengthAdjust="spacing" textLength="27.2125" font-family="sans-serif">foo3</text><line x1="102" y1="147" x2="159.2125" y2="147" style="stroke:#181818;stroke-width:0.5;"/><line x1="102" y1="155" x2="159.2125" y2="155" style="stroke:#181818;stroke-width:0.5;"/></g><!--reverse link Foo to foo2--><g class="link" data-entity-1="ent0001" data-entity-2="ent0002" id="lnk3" data-source-line="2" data-link-type="composition"><path d="M68.4307,66.2321 C60.6007,83.9121 54.73,97.13 46.9,114.79" style="stroke:#181818;stroke-width:1;" fill="none" id="Foo-backto-foo2" codeLine="2"/><polygon points="73.29,55.26,67.203,59.1263,68.4307,66.2321,74.5177,62.3658,73.29,55.26" fill="#181818" style="stroke:#181818;stroke-width:1;stroke-linejoin:miter;stroke-miterlimit:10;"/></g><!--reverse link Foo to foo3--><g class="link" data-entity-1="ent0001" data-entity-2="ent0004" id="lnk5" data-source-line="3" data-link-type="composition"><path d="M98.7844,66.2298 C106.6244,83.9098 112.49,97.13 120.32,114.79" style="stroke:#181818;stroke-width:1;" fill="none" id="Foo-backto-foo3" codeLine="3"/><polygon points="93.92,55.26,92.6956,62.3664,98.7844,66.2298,100.0088,59.1234,93.92,55.26" fill="#181818" style="stroke:#181818;stroke-width:1;stroke-linejoin:miter;stroke-miterlimit:10;"/></g><?plantuml-src Iyv9B2vMSClFvm9Y1IrTNOMq_7mZP8un0000?></g></svg>