<svg xmlns="http://www.w3.org/2000/svg" xmlns:xlink="http://www.w3.org/1999/xlink" version="1.1" data-diagram-type="CLASS" style="width:70px;height:60px;background:#FFFFFF;" width="70px" height="60px" viewBox="0 0 70 60" zoomAndPan="magnify" preserveAspectRatio="none" contentStyleType="text/css"><?plantuml $version$?><defs/><g><!--class Toto--><g class="entity" data-qualified-name="Toto" id="ent0001" data-source-line="2"><rect x="7" y="7" width="50" height="40" fill="#F1F1F1" style="stroke:#181818;stroke-width:0.5;" rx="2.5" ry="2.5"/><ellipse cx="17" cy="19" rx="6" ry="6" fill="#ADD1B2" style="stroke:#181818;stroke-width:1;"/><path d="M19.4731,25.1431 Q18.8921,25.4419 18.2529,25.5913 Q17.6138,25.7407 16.9082,25.7407 Q14.4014,25.7407 13.0815,24.0889 Q11.7617,22.437 11.7617,19.3159 Q11.7617,16.1865 13.0815,14.5347 Q14.4014,12.8828 16.9082,12.8828 Q17.6138,12.8828 18.2612,13.0322 Q18.9087,13.1816 19.4731,13.4805 L19.4731,16.2031 Q18.8423,15.6221 18.2488,15.3523 Q17.6553,15.0825 17.0244,15.0825 Q15.6797,15.0825 14.9949,16.1492 Q14.3101,17.2158 14.3101,19.3159 Q14.3101,21.4077 14.9949,22.4744 Q15.6797,23.541 17.0244,23.541 Q17.6553,23.541 18.2488,23.2712 Q18.8423,23.0015 19.4731,22.4204 Z " fill="#000000"/><text x="26" y="22.8889" fill="#000000" font-size="14" lengthAdjust="spacing" textLength="28" font-family="sans-serif">Toto</text><line x1="8" y1="31" x2="56" y2="31" style="stroke:#181818;stroke-width:0.5;"/><line x1="8" y1="39" x2="56" y2="39" style="stroke:#181818;stroke-width:0.5;"/></g><?plantuml-src AyxEp2j8B4hCLN3EB4hEIKrnpW3oaajIYu8IKp9BYnNCk99p4ekB5KBoI_81?></g></svg>