<svg xmlns="http://www.w3.org/2000/svg" xmlns:xlink="http://www.w3.org/1999/xlink" version="1.1" data-diagram-type="CLASS" style="width:184px;height:84px;background:#FFFFFF;" width="184px" height="84px" viewBox="0 0 184 84" zoomAndPan="magnify" preserveAspectRatio="none" contentStyleType="text/css"><?plantuml $version$?><defs/><g><!--class a--><g class="entity" data-qualified-name="a" id="ent0001" data-source-line="2"><rect x="129.24" y="7" width="39.7875" height="62" fill="#F1F1F1" style="stroke:#181818;stroke-width:0.5;" rx="2.5" ry="2.5"/><ellipse cx="144.24" cy="23" rx="11" ry="11" fill="#ADD1B2" style="stroke:#181818;stroke-width:1;"/><path d="M146.7131,29.1431 Q146.1321,29.4419 145.4929,29.5913 Q144.8538,29.7407 144.1482,29.7407 Q141.6414,29.7407 140.3215,28.0889 Q139.0017,26.437 139.0017,23.3159 Q139.0017,20.1865 140.3215,18.5347 Q141.6414,16.8828 144.1482,16.8828 Q144.8538,16.8828 145.5012,17.0322 Q146.1487,17.1816 146.7131,17.4805 L146.7131,20.2031 Q146.0823,19.6221 145.4888,19.3523 Q144.8953,19.0825 144.2644,19.0825 Q142.9197,19.0825 142.2349,20.1492 Q141.5501,21.2158 141.5501,23.3159 Q141.5501,25.4077 142.2349,26.4744 Q142.9197,27.541 144.2644,27.541 Q144.8953,27.541 145.4888,27.2712 Q146.0823,27.0015 146.7131,26.4204 Z " fill="#000000"/><text x="158.24" y="26.8889" fill="#000000" font-size="14" lengthAdjust="spacing" textLength="7.7875" font-family="sans-serif">a</text><line x1="130.24" y1="39" x2="168.0275" y2="39" style="stroke:#181818;stroke-width:0.5;"/><text x="135.24" y="53.8889" fill="#000000" font-size="14" lengthAdjust="spacing" textLength="17.9375" font-family="sans-serif">int i</text><line x1="130.24" y1="61" x2="168.0275" y2="61" style="stroke:#181818;stroke-width:0.5;"/></g><path d="M6,21.5 L6,44.5 A0,0 0 0 0 6,44.5 L94.275,44.5 A0,0 0 0 0 94.275,44.5 L94.275,39.5 L135.24,50 L94.275,31.5 L94.275,31.5 L84.275,21.5 L6,21.5 A0,0 0 0 0 6,21.5" style="stroke:#181818;stroke-width:0.5;" fill="#FEFFDD"/><path d="M84.275,21.5 L84.275,31.5 L94.275,31.5 L84.275,21.5" style="stroke:#181818;stroke-width:0.5;" fill="#FEFFDD"/><text x="12" y="36.6111" fill="#000000" font-size="13" lengthAdjust="spacing" textLength="67.275" font-family="sans-serif">This note on i</text><?plantuml-src Iyv9B2vMI5Ievb80Wioy4eLChbekhhpyabI5dDIq4eNyD8L4AwjCi7H8HcQn0bWgFm-eBZKl1SpZ0W00?></g></svg>