<svg xmlns="http://www.w3.org/2000/svg" xmlns:xlink="http://www.w3.org/1999/xlink" version="1.1" data-diagram-type="CLASS" style="width:119px;height:195px;background:#FFFFFF;" width="119px" height="195px" viewBox="0 0 119 195" zoomAndPan="magnify" preserveAspectRatio="none" contentStyleType="text/css"><?plantuml $version$?><defs/><g><!--class Order--><g class="entity" data-qualified-name="Order" id="ent0001" data-source-line="1"><rect x="20.5" y="132" width="70.9443" height="48" fill="#F1F1F1" style="stroke:#181818;stroke-width:0.5;" rx="2.5" ry="2.5"/><ellipse cx="35.5" cy="148" rx="11" ry="11" fill="#ADD1B2" style="stroke:#181818;stroke-width:1;"/><path d="M37.9731,154.1431 Q37.3921,154.4419 36.7529,154.5913 Q36.1138,154.7407 35.4082,154.7407 Q32.9014,154.7407 31.5815,153.0889 Q30.2617,151.437 30.2617,148.3159 Q30.2617,145.1865 31.5815,143.5347 Q32.9014,141.8828 35.4082,141.8828 Q36.1138,141.8828 36.7612,142.0322 Q37.4087,142.1816 37.9731,142.4805 L37.9731,145.2031 Q37.3423,144.6221 36.7488,144.3523 Q36.1553,144.0825 35.5244,144.0825 Q34.1797,144.0825 33.4949,145.1492 Q32.8101,146.2158 32.8101,148.3159 Q32.8101,150.4077 33.4949,151.4744 Q34.1797,152.541 35.5244,152.541 Q36.1553,152.541 36.7488,152.2712 Q37.3423,152.0015 37.9731,151.4204 Z " fill="#000000"/><text x="49.5" y="153.291" fill="#000000" font-size="14" lengthAdjust="spacing" textLength="38.9443" font-family="sans-serif">Order</text><line x1="21.5" y1="164" x2="90.4443" y2="164" style="stroke:#181818;stroke-width:0.5;"/><line x1="21.5" y1="172" x2="90.4443" y2="172" style="stroke:#181818;stroke-width:0.5;"/></g><!--class Customer--><g class="entity" data-qualified-name="Customer" id="ent0002" data-source-line="2"><rect x="7" y="7" width="97.9463" height="48" fill="#F1F1F1" style="stroke:#181818;stroke-width:0.5;" rx="2.5" ry="2.5"/><ellipse cx="22" cy="23" rx="11" ry="11" fill="#ADD1B2" style="stroke:#181818;stroke-width:1;"/><path d="M24.4731,29.1431 Q23.8921,29.4419 23.2529,29.5913 Q22.6138,29.7407 21.9082,29.7407 Q19.4014,29.7407 18.0815,28.0889 Q16.7617,26.437 16.7617,23.3159 Q16.7617,20.1865 18.0815,18.5347 Q19.4014,16.8828 21.9082,16.8828 Q22.6138,16.8828 23.2612,17.0322 Q23.9087,17.1816 24.4731,17.4805 L24.4731,20.2031 Q23.8423,19.6221 23.2488,19.3523 Q22.6553,19.0825 22.0244,19.0825 Q20.6797,19.0825 19.9949,20.1492 Q19.3101,21.2158 19.3101,23.3159 Q19.3101,25.4077 19.9949,26.4744 Q20.6797,27.541 22.0244,27.541 Q22.6553,27.541 23.2488,27.2712 Q23.8423,27.0015 24.4731,26.4204 Z " fill="#000000"/><text x="36" y="28.291" fill="#000000" font-size="14" lengthAdjust="spacing" textLength="65.9463" font-family="sans-serif">Customer</text><line x1="8" y1="39" x2="103.9463" y2="39" style="stroke:#181818;stroke-width:0.5;"/><line x1="8" y1="47" x2="103.9463" y2="47" style="stroke:#181818;stroke-width:0.5;"/></g><!--link Customer to Order--><g class="link" data-entity-1="ent0002" data-entity-2="ent0001" id="lnk3" data-source-line="3" data-link-type="dependency"><path d="M55.97,55.42 C55.97,77.31 55.97,104.8 55.97,126.66" style="stroke:#181818;stroke-width:1;" fill="none" id="Customer-to-Order" codeLine="3"/><polygon points="55.97,131.66,59.97,122.66,55.97,126.66,51.97,122.66,55.97,131.66" fill="#181818" style="stroke:#181818;stroke-width:1;stroke-linejoin:miter;stroke-miterlimit:10;"/><text x="56.97" y="98.5684" fill="#000000" font-size="13" lengthAdjust="spacing" textLength="39.6475" font-family="sans-serif">places</text><text x="47.0697" y="75.4058" fill="#000000" font-size="13" lengthAdjust="spacing" textLength="8.2202" font-family="sans-serif">1</text><text x="49.2347" y="121.1091" fill="#000000" font-size="13" lengthAdjust="spacing" textLength="6.2651" font-family="sans-serif">*</text></g><?plantuml-src Iyv9B2vMy2zAIItYIWQpdKkBI_9pWLmOGq79K4b1LzTEGKbB2Q9ImKgX82SnERKO0000?></g></svg>