<svg xmlns="http://www.w3.org/2000/svg" xmlns:xlink="http://www.w3.org/1999/xlink" version="1.1" data-diagram-type="CLASS" style="width:103px;height:82px;background:#FFFFFF;" width="103px" height="82px" viewBox="0 0 103 82" zoomAndPan="magnify" preserveAspectRatio="none" contentStyleType="text/css"><?plantuml $version$?><defs/><g><!--class Demo--><g class="entity" data-qualified-name="Demo" id="ent0001" data-source-line="5"><rect x="7" y="7" width="83.3625" height="62" fill="#F1F1F1" style="stroke:#181818;stroke-width:0.5;" rx="2.5" ry="2.5"/><ellipse cx="29" cy="30" rx="18" ry="18" fill="#ADD1B2" style="stroke:#181818;stroke-width:1;"/><path d="M35.5195,38.8887 Q33.1025,41.1006 29.3379,41.1006 Q24.6797,41.1006 22.0137,38.1123 Q19.3477,35.1094 19.3477,29.8799 Q19.3477,24.2256 22.3799,21.1641 Q25.0166,18.498 29.0889,18.498 Q34.5381,18.498 37.0576,22.0723 Q38.4492,24.0791 38.5518,26.1006 L34.04,26.1006 Q33.6006,24.5479 32.9121,23.7568 Q31.6816,22.3506 29.2646,22.3506 Q26.8037,22.3506 25.3828,24.3354 Q23.9619,26.3203 23.9619,29.9531 Q23.9619,33.5859 25.4634,35.395 Q26.9648,37.2041 29.2793,37.2041 Q31.6523,37.2041 32.8975,35.6514 Q33.5859,34.8164 34.04,33.1465 L38.5078,33.1465 Q37.9219,36.6768 35.5195,38.8887 Z " fill="#000000"/><text x="50" y="33.8889" fill="#000000" font-size="14" lengthAdjust="spacing" textLength="37.3625" font-family="sans-serif">Demo</text><line x1="8" y1="53" x2="89.3625" y2="53" style="stroke:#181818;stroke-width:0.5;"/><line x1="8" y1="61" x2="89.3625" y2="61" style="stroke:#181818;stroke-width:0.5;"/></g><?plantuml-src AyxEp2j8B4hCLN3EB4hEIKrnpW3oaajIYzpoyqg2CwjI5OmDk8hngl9Bp4rLy4ZDAKijoKnEnACuA34bixHOmT22Yoiv9x6uMC4bDJUVYmi0?></g></svg>