<svg xmlns="http://www.w3.org/2000/svg" xmlns:xlink="http://www.w3.org/1999/xlink" version="1.1" data-diagram-type="CLASS" style="width:85px;height:178px;background:#FFFFFF;" width="85px" height="178px" viewBox="0 0 85 178" zoomAndPan="magnify" preserveAspectRatio="none" contentStyleType="text/css"><?plantuml $version$?><defs/><g><!--class toto1--><g class="entity" data-qualified-name="toto1" id="ent0001" data-source-line="1"><rect x="7" y="7" width="63.0625" height="48" fill="#F1F1F1" style="stroke:#181818;stroke-width:0.5;" rx="2.5" ry="2.5"/><ellipse cx="22" cy="23" rx="11" ry="11" fill="#B4A7E5" style="stroke:#181818;stroke-width:1;"/><path d="M18.4277,19.2651 L18.4277,17.1069 L25.8071,17.1069 L25.8071,19.2651 L23.3418,19.2651 L23.3418,27.3418 L25.8071,27.3418 L25.8071,29.5 L18.4277,29.5 L18.4277,27.3418 L20.8931,27.3418 L20.8931,19.2651 Z " fill="#000000"/><text x="36" y="26.8889" fill="#000000" font-size="14" lengthAdjust="spacing" textLength="31.0625" font-style="italic" font-family="sans-serif">toto1</text><line x1="8" y1="39" x2="69.0625" y2="39" style="stroke:#181818;stroke-width:0.5;"/><line x1="8" y1="47" x2="69.0625" y2="47" style="stroke:#181818;stroke-width:0.5;"/></g><!--class toto2--><g class="entity" data-qualified-name="toto2" id="ent0002" data-source-line="1"><rect x="7" y="115" width="63.0625" height="48" fill="#F1F1F1" style="stroke:#181818;stroke-width:0.5;" rx="2.5" ry="2.5"/><ellipse cx="22" cy="131" rx="11" ry="11" fill="#ADD1B2" style="stroke:#181818;stroke-width:1;"/><path d="M24.4731,137.1431 Q23.8921,137.4419 23.2529,137.5913 Q22.6138,137.7407 21.9082,137.7407 Q19.4014,137.7407 18.0815,136.0889 Q16.7617,134.437 16.7617,131.3159 Q16.7617,128.1865 18.0815,126.5347 Q19.4014,124.8828 21.9082,124.8828 Q22.6138,124.8828 23.2612,125.0322 Q23.9087,125.1816 24.4731,125.4805 L24.4731,128.2031 Q23.8423,127.6221 23.2488,127.3523 Q22.6553,127.0825 22.0244,127.0825 Q20.6797,127.0825 19.9949,128.1492 Q19.3101,129.2158 19.3101,131.3159 Q19.3101,133.4077 19.9949,134.4744 Q20.6797,135.541 22.0244,135.541 Q22.6553,135.541 23.2488,135.2712 Q23.8423,135.0015 24.4731,134.4204 Z " fill="#000000"/><text x="36" y="134.8889" fill="#000000" font-size="14" lengthAdjust="spacing" textLength="31.0625" font-family="sans-serif">toto2</text><line x1="8" y1="147" x2="69.0625" y2="147" style="stroke:#181818;stroke-width:0.5;"/><line x1="8" y1="155" x2="69.0625" y2="155" style="stroke:#181818;stroke-width:0.5;"/></g><!--reverse link toto1 to toto2--><g class="link" data-entity-1="ent0001" data-entity-2="ent0002" id="lnk3" data-source-line="1" data-link-type="composition"><path d="M38.53,67.26 C38.53,84.94 38.53,97.13 38.53,114.79" style="stroke:#181818;stroke-width:1;" fill="none" id="toto1-backto-toto2" codeLine="1"/><polygon points="38.53,55.26,34.53,61.26,38.53,67.26,42.53,61.26,38.53,55.26" fill="#181818" style="stroke:#181818;stroke-width:1;stroke-linejoin:miter;stroke-miterlimit:10;"/></g><?plantuml-src AyaloJTKqDBLLIW1ieouClDAKelI4fDJmNn3XMgkMW00?></g></svg>