<svg xmlns="http://www.w3.org/2000/svg" xmlns:xlink="http://www.w3.org/1999/xlink" version="1.1" data-diagram-type="CLASS" style="width:246px;height:82px;background:#FFFFFF;" width="246px" height="82px" viewBox="0 0 246 82" zoomAndPan="magnify" preserveAspectRatio="none" contentStyleType="text/css"><?plantuml $version$?><defs/><g><!--class x--><g class="entity" data-qualified-name="x" id="ent0001" data-source-line="5"><rect x="7" y="7" width="226.725" height="62" fill="#F1F1F1" style="stroke:#181818;stroke-width:0.5;" rx="2.5" ry="2.5"/><ellipse cx="80.2813" cy="23" rx="11" ry="11" fill="#ADD1B2" style="stroke:#181818;stroke-width:1;"/><path d="M82.7544,29.1431 Q82.1733,29.4419 81.5342,29.5913 Q80.895,29.7407 80.1895,29.7407 Q77.6826,29.7407 76.3628,28.0889 Q75.043,26.437 75.043,23.3159 Q75.043,20.1865 76.3628,18.5347 Q77.6826,16.8828 80.1895,16.8828 Q80.895,16.8828 81.5425,17.0322 Q82.1899,17.1816 82.7544,17.4805 L82.7544,20.2031 Q82.1235,19.6221 81.53,19.3523 Q80.9365,19.0825 80.3057,19.0825 Q78.9609,19.0825 78.2761,20.1492 Q77.5913,21.2158 77.5913,23.3159 Q77.5913,25.4077 78.2761,26.4744 Q78.9609,27.541 80.3057,27.541 Q80.9365,27.541 81.53,27.2712 Q82.1235,27.0015 82.7544,26.4204 Z " fill="#000000"/><text x="100.7813" y="26.8889" fill="#000000" font-size="14" lengthAdjust="spacing" textLength="71.6625" font-family="sans-serif">SomeClass</text><line x1="8" y1="39" x2="232.725" y2="39" style="stroke:#181818;stroke-width:0.5;"/><g data-visibility-modifier="PUBLIC_FIELD"><ellipse cx="18" cy="51.5" rx="3" ry="3" fill="none" style="stroke:#038048;stroke-width:1;"/></g><text x="27" y="53.8889" fill="#000000" font-size="14" lengthAdjust="spacing" textLength="95.6375" font-family="sans-serif">Member2: Does</text><text x="122.6375" y="53.8889" fill="#0000FF" font-size="14" lengthAdjust="spacing" textLength="26.5125" font-family="sans-serif">blue</text><text x="149.15" y="53.8889" fill="#000000" font-size="14" lengthAdjust="spacing" textLength="23.3625" font-family="sans-serif">and</text><text x="172.5125" y="53.8889" fill="#0000FF" font-size="14" lengthAdjust="spacing" textLength="26.5125" font-family="sans-serif">blue</text><text x="199.025" y="53.8889" fill="#000000" font-size="14" lengthAdjust="spacing" textLength="28.7" font-family="sans-serif">Stuff</text><line x1="8" y1="61" x2="232.725" y2="61" style="stroke:#181818;stroke-width:0.5;"/></g><?plantuml-src RKqz2y8m4DtpAow7WyL1S9JQHLUd_e8qlTX2Ue7a0W7nlvi83eB3upruNzfbjh861Ycoh8_5LyX-9rIaKpgIvCY0lGiiO8CFyJBvJ0F20JwXojWVcpsWqiJpTr0fwqrAW6FOwDeaWabGuAcWbkwqJHHFPxW5Ih_ds1wm0yFpVsEKx9nwlG40?></g></svg>