<svg xmlns="http://www.w3.org/2000/svg" xmlns:xlink="http://www.w3.org/1999/xlink" version="1.1" data-diagram-type="CLASS" style="width:639px;height:312px;background:#FFFFFF;" width="639px" height="312px" viewBox="0 0 639 312" zoomAndPan="magnify" preserveAspectRatio="none" contentStyleType="text/css"><?plantuml $version$?><defs/><g><!--class AliceMyStyle--><g class="entity" data-qualified-name="AliceMyStyle" id="ent0001" data-source-line="12"><rect x="54.91" y="9" width="112.2375" height="48" fill="#00FFFF" style="stroke:#181818;stroke-width:0.5;" rx="2.5" ry="2.5"/><ellipse cx="69.91" cy="25" rx="11" ry="11" fill="#ADD1B2" style="stroke:#181818;stroke-width:1;"/><path d="M72.3831,31.1431 Q71.8021,31.4419 71.1629,31.5913 Q70.5238,31.7407 69.8182,31.7407 Q67.3114,31.7407 65.9915,30.0889 Q64.6717,28.437 64.6717,25.3159 Q64.6717,22.1865 65.9915,20.5347 Q67.3114,18.8828 69.8182,18.8828 Q70.5238,18.8828 71.1712,19.0322 Q71.8187,19.1816 72.3831,19.4805 L72.3831,22.2031 Q71.7523,21.6221 71.1588,21.3523 Q70.5653,21.0825 69.9344,21.0825 Q68.5897,21.0825 67.9049,22.1492 Q67.2201,23.2158 67.2201,25.3159 Q67.2201,27.4077 67.9049,28.4744 Q68.5897,29.541 69.9344,29.541 Q70.5653,29.541 71.1588,29.2712 Q71.7523,29.0015 72.3831,28.4204 Z " fill="#000000"/><text x="83.91" y="28.8889" fill="#FF0000" font-size="14" lengthAdjust="spacing" textLength="80.2375" font-weight="700" font-family="sans-serif">AliceMyStyle</text><line x1="55.91" y1="41" x2="166.1475" y2="41" style="stroke:#181818;stroke-width:0.5;"/><line x1="55.91" y1="49" x2="166.1475" y2="49" style="stroke:#181818;stroke-width:0.5;"/></g><!--class AliceMyStyleStereo--><g class="entity" data-qualified-name="AliceMyStyleStereo" id="ent0002" data-source-line="13"><rect x="202.3" y="7" width="153.45" height="52" fill="#00FFFF" style="stroke:#181818;stroke-width:0.5;" rx="2.5" ry="2.5"/><ellipse cx="217.3" cy="25" rx="11" ry="11" fill="#ADD1B2" style="stroke:#181818;stroke-width:1;"/><path d="M219.7731,31.1431 Q219.1921,31.4419 218.5529,31.5913 Q217.9138,31.7407 217.2082,31.7407 Q214.7014,31.7407 213.3815,30.0889 Q212.0617,28.437 212.0617,25.3159 Q212.0617,22.1865 213.3815,20.5347 Q214.7014,18.8828 217.2082,18.8828 Q217.9138,18.8828 218.5612,19.0322 Q219.2087,19.1816 219.7731,19.4805 L219.7731,22.2031 Q219.1423,21.6221 218.5488,21.3523 Q217.9553,21.0825 217.3244,21.0825 Q215.9797,21.0825 215.2949,22.1492 Q214.6101,23.2158 214.6101,25.3159 Q214.6101,27.4077 215.2949,28.4744 Q215.9797,29.541 217.3244,29.541 Q217.9553,29.541 218.5488,29.2712 Q219.1423,29.0015 219.7731,28.4204 Z " fill="#000000"/><text x="265.025" y="21.3333" fill="#000000" font-size="12" lengthAdjust="spacing" textLength="54" font-style="italic" font-family="sans-serif">«mystyle»</text><text x="231.3" y="34.8889" fill="#FF0000" font-size="14" lengthAdjust="spacing" textLength="121.45" font-weight="700" font-family="sans-serif">AliceMyStyleStereo</text><line x1="203.3" y1="43" x2="354.75" y2="43" style="stroke:#181818;stroke-width:0.5;"/><line x1="203.3" y1="51" x2="354.75" y2="51" style="stroke:#181818;stroke-width:0.5;"/></g><!--class Alice1--><g class="entity" data-qualified-name="Alice1" id="ent0003" data-source-line="14"><rect x="390.91" y="9" width="70.2375" height="48" fill="#F1F1F1" style="stroke:#181818;stroke-width:0.5;" rx="7.5" ry="7.5"/><ellipse cx="405.91" cy="25" rx="11" ry="11" fill="#ADD1B2" style="stroke:#181818;stroke-width:1;"/><path d="M408.3831,31.1431 Q407.8021,31.4419 407.1629,31.5913 Q406.5238,31.7407 405.8182,31.7407 Q403.3114,31.7407 401.9915,30.0889 Q400.6717,28.437 400.6717,25.3159 Q400.6717,22.1865 401.9915,20.5347 Q403.3114,18.8828 405.8182,18.8828 Q406.5238,18.8828 407.1712,19.0322 Q407.8187,19.1816 408.3831,19.4805 L408.3831,22.2031 Q407.7523,21.6221 407.1588,21.3523 Q406.5653,21.0825 405.9344,21.0825 Q404.5897,21.0825 403.9049,22.1492 Q403.2201,23.2158 403.2201,25.3159 Q403.2201,27.4077 403.9049,28.4744 Q404.5897,29.541 405.9344,29.541 Q406.5653,29.541 407.1588,29.2712 Q407.7523,29.0015 408.3831,28.4204 Z " fill="#000000"/><text x="419.91" y="28.8889" fill="#000000" font-size="14" lengthAdjust="spacing" textLength="38.2375" font-family="sans-serif">Alice1</text><line x1="391.91" y1="41" x2="460.1475" y2="41" style="stroke:#181818;stroke-width:0.5;"/><line x1="391.91" y1="49" x2="460.1475" y2="49" style="stroke:#181818;stroke-width:0.5;"/></g><!--class AliceMyStyleEmpty--><g class="entity" data-qualified-name="AliceMyStyleEmpty" id="ent0004" data-source-line="16"><rect x="35.09" y="121" width="151.875" height="48" fill="#00FFFF" style="stroke:#181818;stroke-width:0.5;" rx="2.5" ry="2.5"/><ellipse cx="50.09" cy="137" rx="11" ry="11" fill="#ADD1B2" style="stroke:#181818;stroke-width:1;"/><path d="M52.5631,143.1431 Q51.9821,143.4419 51.3429,143.5913 Q50.7038,143.7407 49.9982,143.7407 Q47.4914,143.7407 46.1715,142.0889 Q44.8517,140.437 44.8517,137.3159 Q44.8517,134.1865 46.1715,132.5347 Q47.4914,130.8828 49.9982,130.8828 Q50.7038,130.8828 51.3512,131.0322 Q51.9987,131.1816 52.5631,131.4805 L52.5631,134.2031 Q51.9323,133.6221 51.3388,133.3523 Q50.7453,133.0825 50.1144,133.0825 Q48.7697,133.0825 48.0849,134.1492 Q47.4001,135.2158 47.4001,137.3159 Q47.4001,139.4077 48.0849,140.4744 Q48.7697,141.541 50.1144,141.541 Q50.7453,141.541 51.3388,141.2712 Q51.9323,141.0015 52.5631,140.4204 Z " fill="#000000"/><text x="64.09" y="140.8889" fill="#FF0000" font-size="14" lengthAdjust="spacing" textLength="119.875" font-weight="700" font-family="sans-serif">AliceMyStyleEmpty</text><line x1="36.09" y1="153" x2="185.965" y2="153" style="stroke:#181818;stroke-width:0.5;"/><line x1="36.09" y1="161" x2="185.965" y2="161" style="stroke:#181818;stroke-width:0.5;"/></g><!--class AliceMyStyleStereoEmpty--><g class="entity" data-qualified-name="AliceMyStyleStereoEmpty" id="ent0005" data-source-line="17"><rect x="221.48" y="119" width="193.0875" height="52" fill="#00FFFF" style="stroke:#181818;stroke-width:0.5;" rx="2.5" ry="2.5"/><ellipse cx="236.48" cy="137" rx="11" ry="11" fill="#ADD1B2" style="stroke:#181818;stroke-width:1;"/><path d="M238.9531,143.1431 Q238.3721,143.4419 237.7329,143.5913 Q237.0938,143.7407 236.3882,143.7407 Q233.8814,143.7407 232.5615,142.0889 Q231.2417,140.437 231.2417,137.3159 Q231.2417,134.1865 232.5615,132.5347 Q233.8814,130.8828 236.3882,130.8828 Q237.0938,130.8828 237.7412,131.0322 Q238.3887,131.1816 238.9531,131.4805 L238.9531,134.2031 Q238.3223,133.6221 237.7288,133.3523 Q237.1353,133.0825 236.5044,133.0825 Q235.1597,133.0825 234.4749,134.1492 Q233.7901,135.2158 233.7901,137.3159 Q233.7901,139.4077 234.4749,140.4744 Q235.1597,141.541 236.5044,141.541 Q237.1353,141.541 237.7288,141.2712 Q238.3223,141.0015 238.9531,140.4204 Z " fill="#000000"/><text x="304.0238" y="133.3333" fill="#000000" font-size="12" lengthAdjust="spacing" textLength="54" font-style="italic" font-family="sans-serif">«mystyle»</text><text x="250.48" y="146.8889" fill="#FF0000" font-size="14" lengthAdjust="spacing" textLength="161.0875" font-weight="700" font-family="sans-serif">AliceMyStyleStereoEmpty</text><line x1="222.48" y1="155" x2="413.5675" y2="155" style="stroke:#181818;stroke-width:0.5;"/><line x1="222.48" y1="163" x2="413.5675" y2="163" style="stroke:#181818;stroke-width:0.5;"/></g><!--class AliceMyStyleNewLine2--><g class="entity" data-qualified-name="AliceMyStyleNewLine2" id="ent0006" data-source-line="18"><rect x="449.71" y="121" width="174.625" height="48" fill="#00FFFF" style="stroke:#181818;stroke-width:0.5;" rx="2.5" ry="2.5"/><ellipse cx="464.71" cy="137" rx="11" ry="11" fill="#ADD1B2" style="stroke:#181818;stroke-width:1;"/><path d="M467.1831,143.1431 Q466.6021,143.4419 465.9629,143.5913 Q465.3238,143.7407 464.6182,143.7407 Q462.1114,143.7407 460.7915,142.0889 Q459.4717,140.437 459.4717,137.3159 Q459.4717,134.1865 460.7915,132.5347 Q462.1114,130.8828 464.6182,130.8828 Q465.3238,130.8828 465.9712,131.0322 Q466.6187,131.1816 467.1831,131.4805 L467.1831,134.2031 Q466.5523,133.6221 465.9588,133.3523 Q465.3653,133.0825 464.7344,133.0825 Q463.3897,133.0825 462.7049,134.1492 Q462.0201,135.2158 462.0201,137.3159 Q462.0201,139.4077 462.7049,140.4744 Q463.3897,141.541 464.7344,141.541 Q465.3653,141.541 465.9588,141.2712 Q466.5523,141.0015 467.1831,140.4204 Z " fill="#000000"/><text x="478.71" y="140.8889" fill="#FF0000" font-size="14" lengthAdjust="spacing" textLength="142.625" font-weight="700" font-family="sans-serif">AliceMyStyleNewLine2</text><line x1="450.71" y1="153" x2="623.335" y2="153" style="stroke:#181818;stroke-width:0.5;"/><line x1="450.71" y1="161" x2="623.335" y2="161" style="stroke:#181818;stroke-width:0.5;"/></g><!--class AliceMyStyleStereoNewLine--><g class="entity" data-qualified-name="AliceMyStyleStereoNewLine" id="ent0007" data-source-line="20"><rect x="7" y="238" width="208.05" height="52" fill="#00FFFF" style="stroke:#181818;stroke-width:0.5;" rx="2.5" ry="2.5"/><ellipse cx="22" cy="256" rx="11" ry="11" fill="#ADD1B2" style="stroke:#181818;stroke-width:1;"/><path d="M24.4731,262.1431 Q23.8921,262.4419 23.2529,262.5913 Q22.6138,262.7407 21.9082,262.7407 Q19.4014,262.7407 18.0815,261.0889 Q16.7617,259.437 16.7617,256.3159 Q16.7617,253.1865 18.0815,251.5347 Q19.4014,249.8828 21.9082,249.8828 Q22.6138,249.8828 23.2612,250.0322 Q23.9087,250.1816 24.4731,250.4805 L24.4731,253.2031 Q23.8423,252.6221 23.2488,252.3523 Q22.6553,252.0825 22.0244,252.0825 Q20.6797,252.0825 19.9949,253.1492 Q19.3101,254.2158 19.3101,256.3159 Q19.3101,258.4077 19.9949,259.4744 Q20.6797,260.541 22.0244,260.541 Q22.6553,260.541 23.2488,260.2712 Q23.8423,260.0015 24.4731,259.4204 Z " fill="#000000"/><text x="97.025" y="252.3333" fill="#000000" font-size="12" lengthAdjust="spacing" textLength="54" font-style="italic" font-family="sans-serif">«mystyle»</text><text x="36" y="265.8889" fill="#FF0000" font-size="14" lengthAdjust="spacing" textLength="176.05" font-weight="700" font-family="sans-serif">AliceMyStyleStereoNewLine</text><line x1="8" y1="274" x2="214.05" y2="274" style="stroke:#181818;stroke-width:0.5;"/><line x1="8" y1="282" x2="214.05" y2="282" style="stroke:#181818;stroke-width:0.5;"/></g><!--class AliceMyStyleProp3--><g class="entity" data-qualified-name="AliceMyStyleProp3" id="ent0008" data-source-line="22"><rect x="250.22" y="233" width="149.6" height="62" fill="#00FFFF" style="stroke:#181818;stroke-width:0.5;" rx="2.5" ry="2.5"/><ellipse cx="265.22" cy="249" rx="11" ry="11" fill="#ADD1B2" style="stroke:#181818;stroke-width:1;"/><path d="M267.6931,255.1431 Q267.1121,255.4419 266.4729,255.5913 Q265.8338,255.7407 265.1282,255.7407 Q262.6214,255.7407 261.3015,254.0889 Q259.9817,252.437 259.9817,249.3159 Q259.9817,246.1865 261.3015,244.5347 Q262.6214,242.8828 265.1282,242.8828 Q265.8338,242.8828 266.4812,243.0322 Q267.1287,243.1816 267.6931,243.4805 L267.6931,246.2031 Q267.0623,245.6221 266.4688,245.3523 Q265.8753,245.0825 265.2444,245.0825 Q263.8997,245.0825 263.2149,246.1492 Q262.5301,247.2158 262.5301,249.3159 Q262.5301,251.4077 263.2149,252.4744 Q263.8997,253.541 265.2444,253.541 Q265.8753,253.541 266.4688,253.2712 Q267.0623,253.0015 267.6931,252.4204 Z " fill="#000000"/><text x="279.22" y="252.8889" fill="#FF0000" font-size="14" lengthAdjust="spacing" textLength="117.6" font-weight="700" font-family="sans-serif">AliceMyStyleProp3</text><line x1="251.22" y1="265" x2="398.82" y2="265" style="stroke:#181818;stroke-width:0.5;"/><g data-visibility-modifier="PRIVATE_FIELD"><rect x="258.22" y="274.5" width="6" height="6" fill="none" style="stroke:#C82930;stroke-width:1;"/></g><text x="270.22" y="279.8889" fill="#FF0000" font-size="14" lengthAdjust="spacing" textLength="35.7875" font-weight="700" font-family="sans-serif">prop1</text><line x1="251.22" y1="287" x2="398.82" y2="287" style="stroke:#181818;stroke-width:0.5;"/></g><!--class AliceMyStyleStereoProp--><g class="entity" data-qualified-name="AliceMyStyleStereoProp" id="ent0009" data-source-line="25"><rect x="434.51" y="231" width="183.025" height="66" fill="#00FFFF" style="stroke:#181818;stroke-width:0.5;" rx="2.5" ry="2.5"/><ellipse cx="449.51" cy="249" rx="11" ry="11" fill="#ADD1B2" style="stroke:#181818;stroke-width:1;"/><path d="M451.9831,255.1431 Q451.4021,255.4419 450.7629,255.5913 Q450.1238,255.7407 449.4182,255.7407 Q446.9114,255.7407 445.5915,254.0889 Q444.2717,252.437 444.2717,249.3159 Q444.2717,246.1865 445.5915,244.5347 Q446.9114,242.8828 449.4182,242.8828 Q450.1238,242.8828 450.7712,243.0322 Q451.4187,243.1816 451.9831,243.4805 L451.9831,246.2031 Q451.3523,245.6221 450.7588,245.3523 Q450.1653,245.0825 449.5344,245.0825 Q448.1897,245.0825 447.5049,246.1492 Q446.8201,247.2158 446.8201,249.3159 Q446.8201,251.4077 447.5049,252.4744 Q448.1897,253.541 449.5344,253.541 Q450.1653,253.541 450.7588,253.2712 Q451.3523,253.0015 451.9831,252.4204 Z " fill="#000000"/><text x="512.0225" y="245.3333" fill="#000000" font-size="12" lengthAdjust="spacing" textLength="54" font-style="italic" font-family="sans-serif">«mystyle»</text><text x="463.51" y="258.8889" fill="#FF0000" font-size="14" lengthAdjust="spacing" textLength="151.025" font-weight="700" font-family="sans-serif">AliceMyStyleStereoProp</text><line x1="435.51" y1="267" x2="616.535" y2="267" style="stroke:#181818;stroke-width:0.5;"/><g data-visibility-modifier="PRIVATE_FIELD"><rect x="442.51" y="276.5" width="6" height="6" fill="none" style="stroke:#C82930;stroke-width:1;"/></g><text x="454.51" y="281.8889" fill="#FF0000" font-size="14" lengthAdjust="spacing" textLength="35.7875" font-weight="700" font-family="sans-serif">prop1</text><line x1="435.51" y1="289" x2="616.535" y2="289" style="stroke:#181818;stroke-width:0.5;"/></g><?plantuml-src VOvD3e8m44RNzXHp0JLet3KauizAZP4JDAKXnDAIKcCQmjq5YgHWSPRVlE_Du58Rpa94EIdBOqPIHNAe43Jpa2-H7AGIJ46mww9LRZg-9nOkOebs8aAVgR8hBXLGGyImF4kXuyuHIPwCOaihPjCQrGYltVTWppFAhiRMCSRzDs7e0sBD59FWK2uK84_bb1VQZCLGrRFkBpxGVlZ6tfTCiCrKZERDVMNizl9t9OljZnbW2KMp2VxSQ9kJ0qxj0m00?></g></svg>