<svg xmlns="http://www.w3.org/2000/svg" xmlns:xlink="http://www.w3.org/1999/xlink" version="1.1" data-diagram-type="CLASS" style="width:63px;height:178px;background:#FFFFFF;" width="63px" height="178px" viewBox="0 0 63 178" zoomAndPan="magnify" preserveAspectRatio="none" contentStyleType="text/css"><?plantuml $version$?><defs/><g><!--class A--><g class="entity" data-qualified-name="A" id="ent0001" data-source-line="1"><rect x="7" y="7" width="41.6592" height="48" fill="#F1F1F1" style="stroke:#181818;stroke-width:0.5;" rx="2.5" ry="2.5"/><ellipse cx="22" cy="23" rx="11" ry="11" fill="#ADD1B2" style="stroke:#181818;stroke-width:1;"/><path d="M24.4731,29.1431 Q23.8921,29.4419 23.2529,29.5913 Q22.6138,29.7407 21.9082,29.7407 Q19.4014,29.7407 18.0815,28.0889 Q16.7617,26.437 16.7617,23.3159 Q16.7617,20.1865 18.0815,18.5347 Q19.4014,16.8828 21.9082,16.8828 Q22.6138,16.8828 23.2612,17.0322 Q23.9087,17.1816 24.4731,17.4805 L24.4731,20.2031 Q23.8423,19.6221 23.2488,19.3523 Q22.6553,19.0825 22.0244,19.0825 Q20.6797,19.0825 19.9949,20.1492 Q19.3101,21.2158 19.3101,23.3159 Q19.3101,25.4077 19.9949,26.4744 Q20.6797,27.541 22.0244,27.541 Q22.6553,27.541 23.2488,27.2712 Q23.8423,27.0015 24.4731,26.4204 Z " fill="#000000"/><text x="36" y="28.291" fill="#000000" font-size="14" lengthAdjust="spacing" textLength="9.6592" font-family="sans-serif">A</text><line x1="8" y1="39" x2="47.6592" y2="39" style="stroke:#181818;stroke-width:0.5;"/><line x1="8" y1="47" x2="47.6592" y2="47" style="stroke:#181818;stroke-width:0.5;"/></g><!--class B--><g class="entity" data-qualified-name="B" id="ent0002" data-source-line="2"><rect x="7.8" y="115" width="40.0527" height="48" fill="#F1F1F1" style="stroke:#181818;stroke-width:0.5;" rx="2.5" ry="2.5"/><ellipse cx="22.8" cy="131" rx="11" ry="11" fill="#ADD1B2" style="stroke:#181818;stroke-width:1;"/><path d="M25.2731,137.1431 Q24.6921,137.4419 24.0529,137.5913 Q23.4138,137.7407 22.7082,137.7407 Q20.2014,137.7407 18.8815,136.0889 Q17.5617,134.437 17.5617,131.3159 Q17.5617,128.1865 18.8815,126.5347 Q20.2014,124.8828 22.7082,124.8828 Q23.4138,124.8828 24.0612,125.0322 Q24.7087,125.1816 25.2731,125.4805 L25.2731,128.2031 Q24.6423,127.6221 24.0488,127.3523 Q23.4553,127.0825 22.8244,127.0825 Q21.4797,127.0825 20.7949,128.1492 Q20.1101,129.2158 20.1101,131.3159 Q20.1101,133.4077 20.7949,134.4744 Q21.4797,135.541 22.8244,135.541 Q23.4553,135.541 24.0488,135.2712 Q24.6423,135.0015 25.2731,134.4204 Z " fill="#000000"/><text x="36.8" y="136.291" fill="#000000" font-size="14" lengthAdjust="spacing" textLength="8.0527" font-family="sans-serif">B</text><line x1="8.8" y1="147" x2="46.8527" y2="147" style="stroke:#181818;stroke-width:0.5;"/><line x1="8.8" y1="155" x2="46.8527" y2="155" style="stroke:#181818;stroke-width:0.5;"/></g><!--link A to B--><g class="link" data-entity-1="ent0001" data-entity-2="ent0002" id="lnk3" data-source-line="3" data-link-type="dependency"><path d="M27.83,55.26 C27.83,72.94 27.83,92.13 27.83,109.79" style="stroke:#181818;stroke-width:1;" fill="none" id="A-to-B" codeLine="3"/><polygon points="27.83,114.79,31.83,105.79,27.83,109.79,23.83,105.79,27.83,114.79" fill="#181818" style="stroke:#181818;stroke-width:1;stroke-linejoin:miter;stroke-miterlimit:10;"/></g><?plantuml-src Iyv9B2vMSEHA1jDEN8uAkhfs2au0?></g></svg>