<svg xmlns="http://www.w3.org/2000/svg" xmlns:xlink="http://www.w3.org/1999/xlink" version="1.1" data-diagram-type="DESCRIPTION" style="width:150px;height:65px;background:#FFFFFF;" width="150px" height="65px" viewBox="0 0 150 65" zoomAndPan="magnify" preserveAspectRatio="none" contentStyleType="text/css"><?plantuml $version$?><defs/><g><!--entity c--><g class="entity" data-qualified-name="c" id="ent0002" data-source-line="6"><rect x="7" y="7" width="47" height="44" fill="#F1F1F1" style="stroke:#181818;stroke-width:0.5;" rx="2.5" ry="2.5"/><rect x="34" y="12" width="15" height="10" fill="#F1F1F1" style="stroke:#181818;stroke-width:0.5;"/><rect x="32" y="14" width="4" height="2" fill="#F1F1F1" style="stroke:#181818;stroke-width:0.5;"/><rect x="32" y="18" width="4" height="2" fill="#F1F1F1" style="stroke:#181818;stroke-width:0.5;"/><text x="22" y="37.8889" fill="#000000" font-size="14" lengthAdjust="spacing" textLength="7" font-family="sans-serif">c</text></g><!--entity a--><g class="entity" data-qualified-name="a" id="ent0003" data-source-line="6"><rect x="88.61" y="7" width="47.7875" height="44" fill="#F1F1F1" style="stroke:#181818;stroke-width:0.5;" rx="2.5" ry="2.5"/><rect x="116.3975" y="12" width="15" height="10" fill="#F1F1F1" style="stroke:#181818;stroke-width:0.5;"/><rect x="114.3975" y="14" width="4" height="2" fill="#F1F1F1" style="stroke:#181818;stroke-width:0.5;"/><rect x="114.3975" y="18" width="4" height="2" fill="#F1F1F1" style="stroke:#181818;stroke-width:0.5;"/><text x="103.61" y="37.8889" fill="#000000" font-size="14" lengthAdjust="spacing" textLength="7.7875" font-family="sans-serif">a</text></g><!--link c to a--><g class="link" data-entity-1="ent0002" data-entity-2="ent0003" id="lnk4" data-source-line="6" data-link-type="dependency"><path d="M54.2,29 C65.59,29 71.98,29 83.36,29" style="stroke:#181818;stroke-width:1;" fill="none" id="c-to-a"/><polygon points="88.36,29,79.36,25,83.36,29,79.36,33,88.36,29" fill="#181818" style="stroke:#181818;stroke-width:1;stroke-linejoin:miter;stroke-miterlimit:10;"/></g><?plantuml-src Ko_9JqyjoKWjKgZcKb1GGEKfA4GdnO8OjLpgjLpHoR4AkdOAqOcnN4MfkVbbgGeEfNavcNdPgIa0?></g></svg>