<svg xmlns="http://www.w3.org/2000/svg" xmlns:xlink="http://www.w3.org/1999/xlink" version="1.1" data-diagram-type="CLASS" style="width:397px;height:178px;background:#FFFFFF;" width="397px" height="178px" viewBox="0 0 397 178" zoomAndPan="magnify" preserveAspectRatio="none" contentStyleType="text/css"><?plantuml $version$?><defs/><g><!--class TDCFTemplate--><g class="entity" data-qualified-name="TDCFTemplate" id="ent0001" data-source-line="1"><rect x="35.39" y="7" width="127.8125" height="48" fill="#F1F1F1" style="stroke:#181818;stroke-width:0.5;" rx="2.5" ry="2.5"/><ellipse cx="50.39" cy="23" rx="11" ry="11" fill="#ADD1B2" style="stroke:#181818;stroke-width:1;"/><path d="M52.8631,29.1431 Q52.2821,29.4419 51.6429,29.5913 Q51.0038,29.7407 50.2982,29.7407 Q47.7914,29.7407 46.4715,28.0889 Q45.1517,26.437 45.1517,23.3159 Q45.1517,20.1865 46.4715,18.5347 Q47.7914,16.8828 50.2982,16.8828 Q51.0038,16.8828 51.6512,17.0322 Q52.2987,17.1816 52.8631,17.4805 L52.8631,20.2031 Q52.2323,19.6221 51.6388,19.3523 Q51.0453,19.0825 50.4144,19.0825 Q49.0697,19.0825 48.3849,20.1492 Q47.7001,21.2158 47.7001,23.3159 Q47.7001,25.4077 48.3849,26.4744 Q49.0697,27.541 50.4144,27.541 Q51.0453,27.541 51.6388,27.2712 Q52.2323,27.0015 52.8631,26.4204 Z " fill="#000000"/><text x="64.39" y="26.8889" fill="#000000" font-size="14" lengthAdjust="spacing" textLength="95.8125" font-family="sans-serif">TDCFTemplate</text><line x1="36.39" y1="39" x2="162.2025" y2="39" style="stroke:#181818;stroke-width:0.5;"/><line x1="36.39" y1="47" x2="162.2025" y2="47" style="stroke:#181818;stroke-width:0.5;"/></g><!--class TemplateClimate300001--><g class="entity" data-qualified-name="TemplateClimate300001" id="ent0002" data-source-line="1"><rect x="7" y="115" width="184.6" height="48" fill="#F1F1F1" style="stroke:#181818;stroke-width:0.5;" rx="2.5" ry="2.5"/><ellipse cx="22" cy="131" rx="11" ry="11" fill="#ADD1B2" style="stroke:#181818;stroke-width:1;"/><path d="M24.4731,137.1431 Q23.8921,137.4419 23.2529,137.5913 Q22.6138,137.7407 21.9082,137.7407 Q19.4014,137.7407 18.0815,136.0889 Q16.7617,134.437 16.7617,131.3159 Q16.7617,128.1865 18.0815,126.5347 Q19.4014,124.8828 21.9082,124.8828 Q22.6138,124.8828 23.2612,125.0322 Q23.9087,125.1816 24.4731,125.4805 L24.4731,128.2031 Q23.8423,127.6221 23.2488,127.3523 Q22.6553,127.0825 22.0244,127.0825 Q20.6797,127.0825 19.9949,128.1492 Q19.3101,129.2158 19.3101,131.3159 Q19.3101,133.4077 19.9949,134.4744 Q20.6797,135.541 22.0244,135.541 Q22.6553,135.541 23.2488,135.2712 Q23.8423,135.0015 24.4731,134.4204 Z " fill="#000000"/><text x="36" y="134.8889" fill="#000000" font-size="14" lengthAdjust="spacing" textLength="152.6" font-family="sans-serif">TemplateClimate300001</text><line x1="8" y1="147" x2="190.6" y2="147" style="stroke:#181818;stroke-width:0.5;"/><line x1="8" y1="155" x2="190.6" y2="155" style="stroke:#181818;stroke-width:0.5;"/></g><!--class TemplateClimate300002--><g class="entity" data-qualified-name="TemplateClimate300002" id="ent0004" data-source-line="2"><rect x="198" y="7" width="184.6" height="48" fill="#F1F1F1" style="stroke:#181818;stroke-width:0.5;" rx="2.5" ry="2.5"/><ellipse cx="213" cy="23" rx="11" ry="11" fill="#ADD1B2" style="stroke:#181818;stroke-width:1;"/><path d="M215.4731,29.1431 Q214.8921,29.4419 214.2529,29.5913 Q213.6138,29.7407 212.9082,29.7407 Q210.4014,29.7407 209.0815,28.0889 Q207.7617,26.437 207.7617,23.3159 Q207.7617,20.1865 209.0815,18.5347 Q210.4014,16.8828 212.9082,16.8828 Q213.6138,16.8828 214.2612,17.0322 Q214.9087,17.1816 215.4731,17.4805 L215.4731,20.2031 Q214.8423,19.6221 214.2488,19.3523 Q213.6553,19.0825 213.0244,19.0825 Q211.6797,19.0825 210.9949,20.1492 Q210.3101,21.2158 210.3101,23.3159 Q210.3101,25.4077 210.9949,26.4744 Q211.6797,27.541 213.0244,27.541 Q213.6553,27.541 214.2488,27.2712 Q214.8423,27.0015 215.4731,26.4204 Z " fill="#000000"/><text x="227" y="26.8889" fill="#000000" font-size="14" lengthAdjust="spacing" textLength="152.6" font-family="sans-serif">TemplateClimate300002</text><line x1="199" y1="39" x2="381.6" y2="39" style="stroke:#181818;stroke-width:0.5;"/><line x1="199" y1="47" x2="381.6" y2="47" style="stroke:#181818;stroke-width:0.5;"/></g><!--reverse link TDCFTemplate to TemplateClimate300001--><g class="link" data-entity-1="ent0001" data-entity-2="ent0002" id="lnk3" data-source-line="1" data-link-type="extension"><path d="M99.3,73.26 C99.3,90.94 99.3,97.13 99.3,114.79" style="stroke:#181818;stroke-width:1;" fill="none" id="TDCFTemplate-backto-TemplateClimate300001" codeLine="1"/><polygon points="99.3,55.26,93.3,73.26,105.3,73.26,99.3,55.26" fill="none" style="stroke:#181818;stroke-width:1;stroke-linejoin:miter;stroke-miterlimit:10;"/></g><!--reverse link TDCFTemplate to TemplateClimate300002--><g class="link" data-entity-1="ent0001" data-entity-2="ent0004" id="lnk5" data-source-line="2" data-link-type="extension"><path d="M181.46,31 C192.86,31 186.25,31 197.65,31" style="stroke:#181818;stroke-width:1;" fill="none" id="TDCFTemplate-backto-TemplateClimate300002" codeLine="2"/><polygon points="163.46,31,181.46,37,181.46,25,163.46,31" fill="none" style="stroke:#181818;stroke-width:1;stroke-linejoin:miter;stroke-miterlimit:10;"/></g><?plantuml-src 2t5nTWj9pIt8IIn9LR2fqTLLWF6SSp9pWPIn0H0OSeMWgSEgp8WB0000?></g></svg>