<svg xmlns="http://www.w3.org/2000/svg" xmlns:xlink="http://www.w3.org/1999/xlink" version="1.1" data-diagram-type="CLASS" style="width:153px;height:286px;background:#FFFFFF;" width="153px" height="286px" viewBox="0 0 153 286" zoomAndPan="magnify" preserveAspectRatio="none" contentStyleType="text/css"><?plantuml $version$?><defs/><g><!--class side1--><g class="entity" data-qualified-name="side1" id="ent0001" data-source-line="2"><rect x="7" y="7" width="65.5125" height="48" fill="#F1F1F1" style="stroke:#181818;stroke-width:0.5;" rx="2.5" ry="2.5"/><ellipse cx="22" cy="23" rx="11" ry="11" fill="#ADD1B2" style="stroke:#181818;stroke-width:1;"/><path d="M24.4731,29.1431 Q23.8921,29.4419 23.2529,29.5913 Q22.6138,29.7407 21.9082,29.7407 Q19.4014,29.7407 18.0815,28.0889 Q16.7617,26.437 16.7617,23.3159 Q16.7617,20.1865 18.0815,18.5347 Q19.4014,16.8828 21.9082,16.8828 Q22.6138,16.8828 23.2612,17.0322 Q23.9087,17.1816 24.4731,17.4805 L24.4731,20.2031 Q23.8423,19.6221 23.2488,19.3523 Q22.6553,19.0825 22.0244,19.0825 Q20.6797,19.0825 19.9949,20.1492 Q19.3101,21.2158 19.3101,23.3159 Q19.3101,25.4077 19.9949,26.4744 Q20.6797,27.541 22.0244,27.541 Q22.6553,27.541 23.2488,27.2712 Q23.8423,27.0015 24.4731,26.4204 Z " fill="#000000"/><text x="36" y="26.8889" fill="#000000" font-size="14" lengthAdjust="spacing" textLength="33.5125" font-family="sans-serif">side1</text><line x1="8" y1="39" x2="71.5125" y2="39" style="stroke:#181818;stroke-width:0.5;"/><line x1="8" y1="47" x2="71.5125" y2="47" style="stroke:#181818;stroke-width:0.5;"/></g><!--class side2--><g class="entity" data-qualified-name="side2" id="ent0002" data-source-line="3"><rect x="7" y="223" width="65.5125" height="48" fill="#F1F1F1" style="stroke:#181818;stroke-width:0.5;" rx="2.5" ry="2.5"/><ellipse cx="22" cy="239" rx="11" ry="11" fill="#ADD1B2" style="stroke:#181818;stroke-width:1;"/><path d="M24.4731,245.1431 Q23.8921,245.4419 23.2529,245.5913 Q22.6138,245.7407 21.9082,245.7407 Q19.4014,245.7407 18.0815,244.0889 Q16.7617,242.437 16.7617,239.3159 Q16.7617,236.1865 18.0815,234.5347 Q19.4014,232.8828 21.9082,232.8828 Q22.6138,232.8828 23.2612,233.0322 Q23.9087,233.1816 24.4731,233.4805 L24.4731,236.2031 Q23.8423,235.6221 23.2488,235.3523 Q22.6553,235.0825 22.0244,235.0825 Q20.6797,235.0825 19.9949,236.1492 Q19.3101,237.2158 19.3101,239.3159 Q19.3101,241.4077 19.9949,242.4744 Q20.6797,243.541 22.0244,243.541 Q22.6553,243.541 23.2488,243.2712 Q23.8423,243.0015 24.4731,242.4204 Z " fill="#000000"/><text x="36" y="242.8889" fill="#000000" font-size="14" lengthAdjust="spacing" textLength="33.5125" font-family="sans-serif">side2</text><line x1="8" y1="255" x2="71.5125" y2="255" style="stroke:#181818;stroke-width:0.5;"/><line x1="8" y1="263" x2="71.5125" y2="263" style="stroke:#181818;stroke-width:0.5;"/></g><!--class base--><g class="entity" data-qualified-name="base" id="ent0003" data-source-line="5"><rect x="76.58" y="115" width="62.3625" height="48" fill="#F1F1F1" style="stroke:#181818;stroke-width:0.5;" rx="2.5" ry="2.5"/><ellipse cx="91.58" cy="131" rx="11" ry="11" fill="#ADD1B2" style="stroke:#181818;stroke-width:1;"/><path d="M94.0531,137.1431 Q93.4721,137.4419 92.8329,137.5913 Q92.1938,137.7407 91.4882,137.7407 Q88.9814,137.7407 87.6615,136.0889 Q86.3417,134.437 86.3417,131.3159 Q86.3417,128.1865 87.6615,126.5347 Q88.9814,124.8828 91.4882,124.8828 Q92.1938,124.8828 92.8412,125.0322 Q93.4887,125.1816 94.0531,125.4805 L94.0531,128.2031 Q93.4223,127.6221 92.8288,127.3523 Q92.2353,127.0825 91.6044,127.0825 Q90.2597,127.0825 89.5749,128.1492 Q88.8901,129.2158 88.8901,131.3159 Q88.8901,133.4077 89.5749,134.4744 Q90.2597,135.541 91.6044,135.541 Q92.2353,135.541 92.8288,135.2712 Q93.4223,135.0015 94.0531,134.4204 Z " fill="#000000"/><text x="105.58" y="134.8889" fill="#000000" font-size="14" lengthAdjust="spacing" textLength="30.3625" font-family="sans-serif">base</text><line x1="77.58" y1="147" x2="137.9425" y2="147" style="stroke:#181818;stroke-width:0.5;"/><line x1="77.58" y1="155" x2="137.9425" y2="155" style="stroke:#181818;stroke-width:0.5;"/></g><ellipse cx="39.76" cy="139" rx="2" ry="2" fill="#181818" style="stroke:#181818;stroke-width:1;"/><!--link side1 to apoint4--><g class="link" data-entity-1="ent0001" data-entity-2="ent0005" id="lnk7" data-source-line="5" data-link-type="association"><path d="M39.76,55.26 C39.76,83.54 39.76,128.52 39.76,136.7" style="stroke:#181818;stroke-width:1;" fill="none" id="side1-apoint4"/></g><!--link apoint4 to side2--><g class="link" data-entity-1="ent0005" data-entity-2="ent0002" id="lnk8" data-source-line="5" data-link-type="association"><path d="M39.76,141.5 C39.76,150.21 39.76,194.87 39.76,222.91" style="stroke:#181818;stroke-width:1;" fill="none" id="apoint4-side2"/></g><!--link apoint4 to base--><g class="link" data-entity-1="ent0005" data-entity-2="ent0003" id="lnk9" data-source-line="5" data-link-type="association"><path d="M42.15,139 C53.51,139 64.87,139 76.23,139" style="stroke:#181818;stroke-width:1;stroke-dasharray:7,7;" fill="none" id="apoint4-base"/></g><?plantuml-src Iyv9B2vMK2hEJ4arLE9AHl2CbBYuD60IEZ0n1Kq5FJq5fQJ4ubGbBW00?></g></svg>