<svg xmlns="http://www.w3.org/2000/svg" xmlns:xlink="http://www.w3.org/1999/xlink" version="1.1" data-diagram-type="CLASS" style="width:82px;height:70px;background:#FFFFFF;" width="82px" height="70px" viewBox="0 0 82 70" zoomAndPan="magnify" preserveAspectRatio="none" contentStyleType="text/css"><?plantuml $version$?><defs/><g><!--class Toto--><g class="entity" data-qualified-name="Toto" id="ent0001" data-source-line="2"><rect x="7" y="7" width="62" height="50" fill="#F1F1F1" style="stroke:#181818;stroke-width:0.5;" rx="2.5" ry="2.5"/><ellipse cx="23" cy="24" rx="12" ry="12" fill="#ADD1B2" style="stroke:#181818;stroke-width:1;"/><path d="M25.5288,30.6011 Q24.8794,30.9351 24.165,31.1021 Q23.4507,31.269 22.6621,31.269 Q19.8604,31.269 18.3853,29.4229 Q16.9102,27.5767 16.9102,24.0884 Q16.9102,20.5908 18.3853,18.7446 Q19.8604,16.8984 22.6621,16.8984 Q23.4507,16.8984 24.1743,17.0654 Q24.8979,17.2324 25.5288,17.5664 L25.5288,20.6094 Q24.8237,19.96 24.1604,19.6584 Q23.4971,19.3569 22.792,19.3569 Q21.2891,19.3569 20.5237,20.5491 Q19.7583,21.7412 19.7583,24.0884 Q19.7583,26.4263 20.5237,27.6184 Q21.2891,28.8105 22.792,28.8105 Q23.4971,28.8105 24.1604,28.509 Q24.8237,28.2075 25.5288,27.5581 Z " fill="#000000"/><text x="38" y="27.8889" fill="#000000" font-size="14" lengthAdjust="spacing" textLength="28" font-family="sans-serif">Toto</text><line x1="8" y1="41" x2="68" y2="41" style="stroke:#181818;stroke-width:0.5;"/><line x1="8" y1="49" x2="68" y2="49" style="stroke:#181818;stroke-width:0.5;"/></g><?plantuml-src AyxEp2j8B4hCLN3EB4hEIKrnpW3oaajIYzpoyqg2CwjI5GmjkP9p4ekB5KBoI_81?></g></svg>