<svg xmlns="http://www.w3.org/2000/svg" xmlns:xlink="http://www.w3.org/1999/xlink" version="1.1" data-diagram-type="STATE" style="width:133px;height:261px;background:#FFFFFF;" width="133px" height="261px" viewBox="0 0 133 261" zoomAndPan="magnify" preserveAspectRatio="none" contentStyleType="text/css"><?plantuml $version$?><defs/><g><g class="entity" data-qualified-name="state_machine" id="ent0001" data-source-line="1"><path d="M19.5,7 L105.5,7 A12.5,12.5 0 0 1 118,19.5 L118,31 L7,31 L7,19.5 A12.5,12.5 0 0 1 19.5,7" fill="#F1F1F1"/><rect x="7" y="7" width="111" height="240" fill="none" style="stroke:#181818;stroke-width:0.5;" rx="12.5" ry="12.5"/><line x1="7" y1="31" x2="118" y2="31" style="stroke:#181818;stroke-width:0.5;"/><text x="17" y="22.8889" fill="#000000" font-size="14" lengthAdjust="spacing" textLength="91" font-family="sans-serif">state_machine</text><g class="entity" data-qualified-name="state_machine.foo" id="ent0002" data-source-line="2"><rect x="19" y="98" width="50" height="50" fill="#F1F1F1" style="stroke:#181818;stroke-width:0.5;" rx="12.5" ry="12.5"/><line x1="19" y1="122" x2="69" y2="122" style="stroke:#181818;stroke-width:0.5;"/><text x="34.2875" y="113.8889" fill="#000000" font-size="14" lengthAdjust="spacing" textLength="19.425" font-family="sans-serif">foo</text></g><g class="entity" data-qualified-name="state_machine.bar" id="ent0003" data-source-line="3"><rect x="19" y="184" width="50" height="50" fill="#F1F1F1" style="stroke:#181818;stroke-width:0.5;" rx="12.5" ry="12.5"/><line x1="19" y1="208" x2="69" y2="208" style="stroke:#181818;stroke-width:0.5;"/><text x="33.8938" y="199.8889" fill="#000000" font-size="14" lengthAdjust="spacing" textLength="20.2125" font-family="sans-serif">bar</text></g><g class="start_entity" data-qualified-name="state_machine..start.state_machine" id="ent0004" data-source-line="4"><ellipse cx="44" cy="52" rx="10" ry="10" fill="#222222" style="stroke:#222222;stroke-width:1;"/></g><!--link *start*state_machine to foo--><g class="link" data-entity-1="ent0004" data-entity-2="ent0002" id="lnk5" data-source-line="4" data-link-type="dependency"><path d="M44,62.31 C44,71.35 44,80.49 44,92.73" style="stroke:#181818;stroke-width:1;" fill="none" id="*start*state_machine-to-foo"/><polygon points="44,97.73,48,88.73,44,92.73,40,88.73,44,97.73" fill="#181818" style="stroke:#181818;stroke-width:1;stroke-linejoin:miter;stroke-miterlimit:10;"/></g><!--link foo to bar--><g class="link" data-entity-1="ent0002" data-entity-2="ent0003" id="lnk6" data-source-line="5" data-link-type="dependency"><path d="M44,148.3 C44,159.44 44,167.62 44,178.76" style="stroke:#181818;stroke-width:1;" fill="none" id="foo-to-bar"/><polygon points="44,183.76,48,174.76,44,178.76,40,174.76,44,183.76" fill="#181818" style="stroke:#181818;stroke-width:1;stroke-linejoin:miter;stroke-miterlimit:10;"/></g></g><?plantuml-src Aov9B4bLA0QHyRc9oHcPUQaArLmAG00MKqZBpqVY9IKMWNdHMh4AkhfsS5aW3UQ3v6i1?></g></svg>