<svg xmlns="http://www.w3.org/2000/svg" xmlns:xlink="http://www.w3.org/1999/xlink" version="1.1" data-diagram-type="CLASS" style="width:131px;height:80px;background:#FFFFFF;" width="131px" height="80px" viewBox="0 0 131 80" zoomAndPan="magnify" preserveAspectRatio="none" contentStyleType="text/css"><?plantuml $version$?><defs/><g><!--class Toto--><g class="entity" data-qualified-name="Toto" id="ent0001" data-source-line="8"><rect x="7" y="7" width="111.125" height="60" fill="#F1F1F1" style="stroke:#181818;stroke-width:0.5;" rx="2.5" ry="2.5"/><ellipse cx="23" cy="29" rx="12" ry="12" fill="#ADD1B2" style="stroke:#181818;stroke-width:1;"/><path d="M27.0117,34.5332 Q25.5615,35.8604 23.3027,35.8604 Q20.5078,35.8604 18.9082,34.0674 Q17.3086,32.2656 17.3086,29.1279 Q17.3086,25.7354 19.1279,23.8984 Q20.71,22.2988 23.1533,22.2988 Q26.4229,22.2988 27.9346,24.4434 Q28.7695,25.6475 28.8311,26.8604 L26.124,26.8604 Q25.8604,25.9287 25.4473,25.4541 Q24.709,24.6104 23.2588,24.6104 Q21.7822,24.6104 20.9297,25.8013 Q20.0771,26.9922 20.0771,29.1719 Q20.0771,31.3516 20.978,32.437 Q21.8789,33.5225 23.2676,33.5225 Q24.6914,33.5225 25.4385,32.5908 Q25.8516,32.0898 26.124,31.0879 L28.8047,31.0879 Q28.4531,33.2061 27.0117,34.5332 Z " fill="#000000"/><text x="36" y="27.5556" fill="#000000" font-size="20" lengthAdjust="spacing" textLength="81.125" font-weight="700" font-family="sans-serif">«Stereo»</text><text x="62.5625" y="42.8889" fill="#000000" font-size="14" lengthAdjust="spacing" textLength="28" font-family="sans-serif">Toto</text><line x1="8" y1="51" x2="117.125" y2="51" style="stroke:#181818;stroke-width:0.5;"/><line x1="8" y1="59" x2="117.125" y2="59" style="stroke:#181818;stroke-width:0.5;"/></g><?plantuml-src AyxEp2j8B4hCLKZEB4hEIKrnpW3oaajIYzpoyqg2CwjI5Gmjk8hngl9Bp4rLy4ZDAKijoKnEv49MdPDON1mCL9QQNr9Pa0etqiY0WAAIofnKXQJyd1GkBh2qGaX-IRw2ZOq2H9s2dHq0?></g></svg>