<svg xmlns="http://www.w3.org/2000/svg" xmlns:xlink="http://www.w3.org/1999/xlink" version="1.1" data-diagram-type="CLASS" style="width:313px;height:206px;background:#FFFFFF;" width="313px" height="206px" viewBox="0 0 313 206" zoomAndPan="magnify" preserveAspectRatio="none" contentStyleType="text/css"><?plantuml $version$?><defs/><g><!--class CopierTXTEnCSV--><g class="entity" data-qualified-name="CopierTXTEnCSV" id="ent0001" data-source-line="1"><rect x="66.74" y="7" width="145.8375" height="48" fill="#F1F1F1" style="stroke:#181818;stroke-width:0.5;" rx="2.5" ry="2.5"/><ellipse cx="81.74" cy="23" rx="11" ry="11" fill="#FFFFFF" style="stroke:#181818;stroke-width:1;"/><path d="M85.4705,19.2651 L80.1995,19.2651 L80.1995,21.938 L84.9973,21.938 L84.9973,24.0962 L80.1995,24.0962 L80.1995,29.5 L77.7507,29.5 L77.7507,17.1069 L85.4705,17.1069 Z " fill="#000000"/><text x="95.74" y="26.8889" fill="#000000" font-size="14" lengthAdjust="spacing" textLength="113.8375" font-family="sans-serif">CopierTXTEnCSV</text><line x1="67.74" y1="39" x2="211.5775" y2="39" style="stroke:#181818;stroke-width:0.5;"/><line x1="67.74" y1="47" x2="211.5775" y2="47" style="stroke:#181818;stroke-width:0.5;"/></g><!--class log--><g class="entity" data-qualified-name="log" id="ent0002" data-source-line="2"><rect x="247.29" y="7" width="50.725" height="48" fill="#F1F1F1" style="stroke:#181818;stroke-width:0.5;" rx="2.5" ry="2.5"/><ellipse cx="262.29" cy="23" rx="11" ry="11" fill="#ADD1B2" style="stroke:#181818;stroke-width:1;"/><path d="M264.7631,29.1431 Q264.1821,29.4419 263.5429,29.5913 Q262.9038,29.7407 262.1982,29.7407 Q259.6914,29.7407 258.3715,28.0889 Q257.0517,26.437 257.0517,23.3159 Q257.0517,20.1865 258.3715,18.5347 Q259.6914,16.8828 262.1982,16.8828 Q262.9038,16.8828 263.5512,17.0322 Q264.1987,17.1816 264.7631,17.4805 L264.7631,20.2031 Q264.1323,19.6221 263.5388,19.3523 Q262.9453,19.0825 262.3144,19.0825 Q260.9697,19.0825 260.2849,20.1492 Q259.6001,21.2158 259.6001,23.3159 Q259.6001,25.4077 260.2849,26.4744 Q260.9697,27.541 262.3144,27.541 Q262.9453,27.541 263.5388,27.2712 Q264.1323,27.0015 264.7631,26.4204 Z " fill="#000000"/><text x="276.29" y="26.8889" fill="#000000" font-size="14" lengthAdjust="spacing" textLength="18.725" font-family="sans-serif">log</text><line x1="248.29" y1="39" x2="297.015" y2="39" style="stroke:#181818;stroke-width:0.5;"/><line x1="248.29" y1="47" x2="297.015" y2="47" style="stroke:#181818;stroke-width:0.5;"/></g><!--class conf--><g class="entity" data-qualified-name="conf" id="ent0003" data-source-line="4"><rect x="7" y="115" width="265.3125" height="76" fill="#F1F1F1" style="stroke:#181818;stroke-width:0.5;" rx="2.5" ry="2.5"/><ellipse cx="122.1938" cy="131" rx="11" ry="11" fill="#808080" style="stroke:#181818;stroke-width:1;"/><path d="M125.9242,127.2651 L120.6532,127.2651 L120.6532,129.938 L125.4511,129.938 L125.4511,132.0962 L120.6532,132.0962 L120.6532,137.5 L118.2045,137.5 L118.2045,125.1069 L125.9242,125.1069 Z " fill="#000000"/><text x="142.6938" y="134.8889" fill="#000000" font-size="14" lengthAdjust="spacing" textLength="26.425" font-family="sans-serif">conf</text><line x1="8" y1="147" x2="271.3125" y2="147" style="stroke:#181818;stroke-width:0.5;"/><text x="13" y="161.8889" fill="#000000" font-size="14" lengthAdjust="spacing" textLength="253.3125" font-family="sans-serif">FICHIER_CONF = oravoscoms.properties</text><line x1="8" y1="169" x2="271.3125" y2="169" style="stroke:#181818;stroke-width:0.5;"/><text x="13" y="183.8889" fill="#000000" font-size="14" lengthAdjust="spacing" textLength="140" font-family="sans-serif">chargerConfiguration()</text></g><?plantuml-src Iyv9B2vMSCulo4mj2ea8SSrp3WvJiB7HSDDHAC_8B4dLjBFZIWQhoSbFvu8oa_Fpqg2AqejIAy5gG49M2cwUpXwUha7nplv-RWgs2lb5YMNvnSdvkSLw1KNv1Qb59PcfnJ2roHc9HUcfHSv0NcPwQL5YIMP-deOc0000?></g></svg>