<svg xmlns="http://www.w3.org/2000/svg" xmlns:xlink="http://www.w3.org/1999/xlink" version="1.1" data-diagram-type="CLASS" style="width:102px;height:239px;background:#FFFFFF;" width="102px" height="239px" viewBox="0 0 102 239" zoomAndPan="magnify" preserveAspectRatio="none" contentStyleType="text/css"><?plantuml $version$?><defs/><g><!--class Foo--><g class="entity" data-qualified-name="Foo" id="ent0001" data-source-line="1"><rect x="19.03" y="7" width="56.15" height="48" fill="#F1F1F1" style="stroke:#181818;stroke-width:0.5;" rx="2.5" ry="2.5"/><ellipse cx="34.03" cy="23" rx="11" ry="11" fill="#ADD1B2" style="stroke:#181818;stroke-width:1;"/><path d="M36.5031,29.1431 Q35.9221,29.4419 35.2829,29.5913 Q34.6438,29.7407 33.9382,29.7407 Q31.4314,29.7407 30.1115,28.0889 Q28.7917,26.437 28.7917,23.3159 Q28.7917,20.1865 30.1115,18.5347 Q31.4314,16.8828 33.9382,16.8828 Q34.6438,16.8828 35.2912,17.0322 Q35.9387,17.1816 36.5031,17.4805 L36.5031,20.2031 Q35.8723,19.6221 35.2788,19.3523 Q34.6853,19.0825 34.0544,19.0825 Q32.7097,19.0825 32.0249,20.1492 Q31.3401,21.2158 31.3401,23.3159 Q31.3401,25.4077 32.0249,26.4744 Q32.7097,27.541 34.0544,27.541 Q34.6853,27.541 35.2788,27.2712 Q35.8723,27.0015 36.5031,26.4204 Z " fill="#000000"/><text x="48.03" y="26.8889" fill="#000000" font-size="14" lengthAdjust="spacing" textLength="24.15" font-family="sans-serif">Foo</text><line x1="20.03" y1="39" x2="74.18" y2="39" style="stroke:#181818;stroke-width:0.5;"/><line x1="20.03" y1="47" x2="74.18" y2="47" style="stroke:#181818;stroke-width:0.5;"/></g><!--class Dummy--><g class="entity" data-qualified-name="Dummy" id="ent0002" data-source-line="2"><rect x="7" y="176" width="80.2125" height="48" fill="#F1F1F1" style="stroke:#181818;stroke-width:0.5;" rx="2.5" ry="2.5"/><ellipse cx="22" cy="192" rx="11" ry="11" fill="#ADD1B2" style="stroke:#181818;stroke-width:1;"/><path d="M24.4731,198.1431 Q23.8921,198.4419 23.2529,198.5913 Q22.6138,198.7407 21.9082,198.7407 Q19.4014,198.7407 18.0815,197.0889 Q16.7617,195.437 16.7617,192.3159 Q16.7617,189.1865 18.0815,187.5347 Q19.4014,185.8828 21.9082,185.8828 Q22.6138,185.8828 23.2612,186.0322 Q23.9087,186.1816 24.4731,186.4805 L24.4731,189.2031 Q23.8423,188.6221 23.2488,188.3523 Q22.6553,188.0825 22.0244,188.0825 Q20.6797,188.0825 19.9949,189.1492 Q19.3101,190.2158 19.3101,192.3159 Q19.3101,194.4077 19.9949,195.4744 Q20.6797,196.541 22.0244,196.541 Q22.6553,196.541 23.2488,196.2712 Q23.8423,196.0015 24.4731,195.4204 Z " fill="#000000"/><text x="36" y="195.8889" fill="#000000" font-size="14" lengthAdjust="spacing" textLength="48.2125" font-family="sans-serif">Dummy</text><line x1="8" y1="208" x2="86.2125" y2="208" style="stroke:#181818;stroke-width:0.5;"/><line x1="8" y1="216" x2="86.2125" y2="216" style="stroke:#181818;stroke-width:0.5;"/></g><!--reverse link Foo to Dummy--><g class="link" data-entity-1="ent0001" data-entity-2="ent0002" id="lnk3" data-source-line="2" data-link-type="extension"><path d="M47.11,73.22 C47.11,105.04 47.11,143.85 47.11,175.71" style="stroke:#181818;stroke-width:1;stroke-dasharray:7,7;" fill="none" id="Foo-backto-Dummy" codeLine="2"/><polygon points="47.11,55.22,41.11,73.22,53.11,73.22,47.11,55.22" fill="none" style="stroke:#181818;stroke-width:1;stroke-linejoin:miter;stroke-miterlimit:10;"/></g><?plantuml-src Iyv9B2vMSClFvm9Y1PiQFJqz1PVItDnA0000?></g></svg>