<svg xmlns="http://www.w3.org/2000/svg" xmlns:xlink="http://www.w3.org/1999/xlink" version="1.1" data-diagram-type="CLASS" style="width:155px;height:239px;background:#FFFFFF;" width="155px" height="239px" viewBox="0 0 155 239" zoomAndPan="magnify" preserveAspectRatio="none" contentStyleType="text/css"><?plantuml $version$?><defs/><g><!--class A1--><g class="entity" data-qualified-name="A1" id="ent0001" data-source-line="1"><rect x="49" y="7" width="49.15" height="48" fill="#F1F1F1" style="stroke:#181818;stroke-width:0.5;" rx="2.5" ry="2.5"/><ellipse cx="64" cy="23" rx="11" ry="11" fill="#ADD1B2" style="stroke:#181818;stroke-width:1;"/><path d="M66.4731,29.1431 Q65.8921,29.4419 65.2529,29.5913 Q64.6138,29.7407 63.9082,29.7407 Q61.4014,29.7407 60.0815,28.0889 Q58.7617,26.437 58.7617,23.3159 Q58.7617,20.1865 60.0815,18.5347 Q61.4014,16.8828 63.9082,16.8828 Q64.6138,16.8828 65.2612,17.0322 Q65.9087,17.1816 66.4731,17.4805 L66.4731,20.2031 Q65.8423,19.6221 65.2488,19.3523 Q64.6553,19.0825 64.0244,19.0825 Q62.6797,19.0825 61.9949,20.1492 Q61.3101,21.2158 61.3101,23.3159 Q61.3101,25.4077 61.9949,26.4744 Q62.6797,27.541 64.0244,27.541 Q64.6553,27.541 65.2488,27.2712 Q65.8423,27.0015 66.4731,26.4204 Z " fill="#000000"/><text x="78" y="26.8889" fill="#000000" font-size="14" lengthAdjust="spacing" textLength="17.15" font-family="sans-serif">A1</text><line x1="50" y1="39" x2="97.15" y2="39" style="stroke:#181818;stroke-width:0.5;"/><line x1="50" y1="47" x2="97.15" y2="47" style="stroke:#181818;stroke-width:0.5;"/></g><!--class A3--><g class="entity" data-qualified-name="A3" id="ent0002" data-source-line="2"><rect x="7" y="176" width="49.15" height="48" fill="#F1F1F1" style="stroke:#181818;stroke-width:0.5;" rx="2.5" ry="2.5"/><ellipse cx="22" cy="192" rx="11" ry="11" fill="#ADD1B2" style="stroke:#181818;stroke-width:1;"/><path d="M24.4731,198.1431 Q23.8921,198.4419 23.2529,198.5913 Q22.6138,198.7407 21.9082,198.7407 Q19.4014,198.7407 18.0815,197.0889 Q16.7617,195.437 16.7617,192.3159 Q16.7617,189.1865 18.0815,187.5347 Q19.4014,185.8828 21.9082,185.8828 Q22.6138,185.8828 23.2612,186.0322 Q23.9087,186.1816 24.4731,186.4805 L24.4731,189.2031 Q23.8423,188.6221 23.2488,188.3523 Q22.6553,188.0825 22.0244,188.0825 Q20.6797,188.0825 19.9949,189.1492 Q19.3101,190.2158 19.3101,192.3159 Q19.3101,194.4077 19.9949,195.4744 Q20.6797,196.541 22.0244,196.541 Q22.6553,196.541 23.2488,196.2712 Q23.8423,196.0015 24.4731,195.4204 Z " fill="#000000"/><text x="36" y="195.8889" fill="#000000" font-size="14" lengthAdjust="spacing" textLength="17.15" font-family="sans-serif">A3</text><line x1="8" y1="208" x2="55.15" y2="208" style="stroke:#181818;stroke-width:0.5;"/><line x1="8" y1="216" x2="55.15" y2="216" style="stroke:#181818;stroke-width:0.5;"/></g><!--class B3--><g class="entity" data-qualified-name="B3" id="ent0004" data-source-line="3"><rect x="91" y="176" width="49.15" height="48" fill="#F1F1F1" style="stroke:#181818;stroke-width:0.5;" rx="2.5" ry="2.5"/><ellipse cx="106" cy="192" rx="11" ry="11" fill="#ADD1B2" style="stroke:#181818;stroke-width:1;"/><path d="M108.4731,198.1431 Q107.8921,198.4419 107.2529,198.5913 Q106.6138,198.7407 105.9082,198.7407 Q103.4014,198.7407 102.0815,197.0889 Q100.7617,195.437 100.7617,192.3159 Q100.7617,189.1865 102.0815,187.5347 Q103.4014,185.8828 105.9082,185.8828 Q106.6138,185.8828 107.2612,186.0322 Q107.9087,186.1816 108.4731,186.4805 L108.4731,189.2031 Q107.8423,188.6221 107.2488,188.3523 Q106.6553,188.0825 106.0244,188.0825 Q104.6797,188.0825 103.9949,189.1492 Q103.3101,190.2158 103.3101,192.3159 Q103.3101,194.4077 103.9949,195.4744 Q104.6797,196.541 106.0244,196.541 Q106.6553,196.541 107.2488,196.2712 Q107.8423,196.0015 108.4731,195.4204 Z " fill="#000000"/><text x="120" y="195.8889" fill="#000000" font-size="14" lengthAdjust="spacing" textLength="17.15" font-family="sans-serif">B3</text><line x1="92" y1="208" x2="139.15" y2="208" style="stroke:#181818;stroke-width:0.5;"/><line x1="92" y1="216" x2="139.15" y2="216" style="stroke:#181818;stroke-width:0.5;"/></g><!--link A1 to A3--><g class="link" data-entity-1="ent0001" data-entity-2="ent0002" id="lnk3" data-source-line="2" data-link-type="dependency"><path d="M67.74,55.22 C59.73,87.04 46.6591,139.0009 38.6491,170.8609" style="stroke:#181818;stroke-width:1;" fill="none" id="A1-to-A3" codeLine="2"/><polygon points="37.43,175.71,43.5037,167.9569,38.6491,170.8609,35.7451,166.0063,37.43,175.71" fill="#181818" style="stroke:#181818;stroke-width:1;stroke-linejoin:miter;stroke-miterlimit:10;"/></g><!--link A1 to B3--><g class="link" data-entity-1="ent0001" data-entity-2="ent0004" id="lnk5" data-source-line="3" data-link-type="dependency"><path d="M79.41,55.22 C87.42,87.04 100.4909,139.0009 108.5009,170.8609" style="stroke:#181818;stroke-width:1;" fill="none" id="A1-to-B3" codeLine="3"/><polygon points="109.72,175.71,111.4049,166.0063,108.5009,170.8609,103.6463,167.9569,109.72,175.71" fill="#181818" style="stroke:#181818;stroke-width:1;stroke-linejoin:miter;stroke-miterlimit:10;"/></g><?plantuml-src Iyv9B2vMS3JaSZHKqDNLjLDmD8OpdOov0000?></g></svg>