<svg xmlns="http://www.w3.org/2000/svg" xmlns:xlink="http://www.w3.org/1999/xlink" version="1.1" data-diagram-type="CLASS" style="width:267px;height:181px;background:#FFFFFF;" width="267px" height="181px" viewBox="0 0 267 181" zoomAndPan="magnify" preserveAspectRatio="none" contentStyleType="text/css"><?plantuml $version$?><defs/><g><!--class Bar--><g class="entity" data-qualified-name="Bar" id="ent0001" data-source-line="1"><rect x="7" y="10" width="65.1375" height="48" fill="#F1F1F1" style="stroke:#181818;stroke-width:0.5;" rx="2.5" ry="2.5"/><ellipse cx="22" cy="26" rx="11" ry="11" fill="#ADD1B2" style="stroke:#181818;stroke-width:1;"/><path d="M24.4731,32.1431 Q23.8921,32.4419 23.2529,32.5913 Q22.6138,32.7407 21.9082,32.7407 Q19.4014,32.7407 18.0815,31.0889 Q16.7617,29.437 16.7617,26.3159 Q16.7617,23.1865 18.0815,21.5347 Q19.4014,19.8828 21.9082,19.8828 Q22.6138,19.8828 23.2612,20.0322 Q23.9087,20.1816 24.4731,20.4805 L24.4731,23.2031 Q23.8423,22.6221 23.2488,22.3523 Q22.6553,22.0825 22.0244,22.0825 Q20.6797,22.0825 19.9949,23.1492 Q19.3101,24.2158 19.3101,26.3159 Q19.3101,28.4077 19.9949,29.4744 Q20.6797,30.541 22.0244,30.541 Q22.6553,30.541 23.2488,30.2712 Q23.8423,30.0015 24.4731,29.4204 Z " fill="#000000"/><text x="36" y="29.8889" fill="#000000" font-size="14" lengthAdjust="spacing" textLength="21.7875" font-family="sans-serif">Bar</text><rect x="65.7875" y="7" width="9.35" height="14" fill="#FFFFFF" style="stroke:#181818;stroke-width:1;stroke-dasharray:2,2;"/><text x="66.7875" y="17.3333" fill="#000000" font-size="12" lengthAdjust="spacing" textLength="7.35" font-style="italic" font-family="sans-serif">T</text><line x1="8" y1="42" x2="71.1375" y2="42" style="stroke:#181818;stroke-width:0.5;"/><line x1="8" y1="50" x2="71.1375" y2="50" style="stroke:#181818;stroke-width:0.5;"/></g><!--class Foo_t--><g class="entity" data-qualified-name="Foo_t" id="ent0002" data-source-line="2"><rect x="106.82" y="10" width="67.5" height="48" fill="#F1F1F1" style="stroke:#181818;stroke-width:0.5;" rx="2.5" ry="2.5"/><ellipse cx="121.82" cy="26" rx="11" ry="11" fill="#ADD1B2" style="stroke:#181818;stroke-width:1;"/><path d="M124.2931,32.1431 Q123.7121,32.4419 123.0729,32.5913 Q122.4338,32.7407 121.7282,32.7407 Q119.2214,32.7407 117.9015,31.0889 Q116.5817,29.437 116.5817,26.3159 Q116.5817,23.1865 117.9015,21.5347 Q119.2214,19.8828 121.7282,19.8828 Q122.4338,19.8828 123.0812,20.0322 Q123.7287,20.1816 124.2931,20.4805 L124.2931,23.2031 Q123.6623,22.6221 123.0688,22.3523 Q122.4753,22.0825 121.8444,22.0825 Q120.4997,22.0825 119.8149,23.1492 Q119.1301,24.2158 119.1301,26.3159 Q119.1301,28.4077 119.8149,29.4744 Q120.4997,30.541 121.8444,30.541 Q122.4753,30.541 123.0688,30.2712 Q123.6623,30.0015 124.2931,29.4204 Z " fill="#000000"/><text x="135.82" y="29.8889" fill="#000000" font-size="14" lengthAdjust="spacing" textLength="24.15" font-family="sans-serif">Foo</text><rect x="167.97" y="7" width="9.35" height="14" fill="#FFFFFF" style="stroke:#181818;stroke-width:1;stroke-dasharray:2,2;"/><text x="168.97" y="17.3333" fill="#000000" font-size="12" lengthAdjust="spacing" textLength="7.35" font-style="italic" font-family="sans-serif">T</text><line x1="107.82" y1="42" x2="173.32" y2="42" style="stroke:#181818;stroke-width:0.5;"/><line x1="107.82" y1="50" x2="173.32" y2="50" style="stroke:#181818;stroke-width:0.5;"/></g><!--class Foo_int--><g class="entity" data-qualified-name="Foo_int" id="ent0003" data-source-line="3"><rect x="44.16" y="118" width="72.825" height="48" fill="#F1F1F1" style="stroke:#181818;stroke-width:0.5;" rx="2.5" ry="2.5"/><ellipse cx="59.16" cy="134" rx="11" ry="11" fill="#ADD1B2" style="stroke:#181818;stroke-width:1;"/><path d="M61.6331,140.1431 Q61.0521,140.4419 60.4129,140.5913 Q59.7738,140.7407 59.0682,140.7407 Q56.5614,140.7407 55.2415,139.0889 Q53.9217,137.437 53.9217,134.3159 Q53.9217,131.1865 55.2415,129.5347 Q56.5614,127.8828 59.0682,127.8828 Q59.7738,127.8828 60.4212,128.0322 Q61.0687,128.1816 61.6331,128.4805 L61.6331,131.2031 Q61.0023,130.6221 60.4088,130.3523 Q59.8153,130.0825 59.1844,130.0825 Q57.8397,130.0825 57.1549,131.1492 Q56.4701,132.2158 56.4701,134.3159 Q56.4701,136.4077 57.1549,137.4744 Q57.8397,138.541 59.1844,138.541 Q59.8153,138.541 60.4088,138.2712 Q61.0023,138.0015 61.6331,137.4204 Z " fill="#000000"/><text x="73.16" y="137.8889" fill="#000000" font-size="14" lengthAdjust="spacing" textLength="24.15" font-family="sans-serif">Foo</text><rect x="105.31" y="115" width="14.675" height="14" fill="#FFFFFF" style="stroke:#181818;stroke-width:1;stroke-dasharray:2,2;"/><text x="106.31" y="125.3333" fill="#000000" font-size="12" lengthAdjust="spacing" textLength="12.675" font-style="italic" font-family="sans-serif">int</text><line x1="45.16" y1="150" x2="115.985" y2="150" style="stroke:#181818;stroke-width:0.5;"/><line x1="45.16" y1="158" x2="115.985" y2="158" style="stroke:#181818;stroke-width:0.5;"/></g><!--class Foo_double--><g class="entity" data-qualified-name="Foo_double" id="ent0004" data-source-line="4"><rect x="152.46" y="118" width="96.225" height="48" fill="#F1F1F1" style="stroke:#181818;stroke-width:0.5;" rx="2.5" ry="2.5"/><ellipse cx="167.46" cy="134" rx="11" ry="11" fill="#ADD1B2" style="stroke:#181818;stroke-width:1;"/><path d="M169.9331,140.1431 Q169.3521,140.4419 168.7129,140.5913 Q168.0738,140.7407 167.3682,140.7407 Q164.8614,140.7407 163.5415,139.0889 Q162.2217,137.437 162.2217,134.3159 Q162.2217,131.1865 163.5415,129.5347 Q164.8614,127.8828 167.3682,127.8828 Q168.0738,127.8828 168.7212,128.0322 Q169.3687,128.1816 169.9331,128.4805 L169.9331,131.2031 Q169.3023,130.6221 168.7088,130.3523 Q168.1153,130.0825 167.4844,130.0825 Q166.1397,130.0825 165.4549,131.1492 Q164.7701,132.2158 164.7701,134.3159 Q164.7701,136.4077 165.4549,137.4744 Q166.1397,138.541 167.4844,138.541 Q168.1153,138.541 168.7088,138.2712 Q169.3023,138.0015 169.9331,137.4204 Z " fill="#000000"/><text x="181.46" y="137.8889" fill="#000000" font-size="14" lengthAdjust="spacing" textLength="24.15" font-family="sans-serif">Foo</text><rect x="213.61" y="115" width="38.075" height="14" fill="#FFFFFF" style="stroke:#181818;stroke-width:1;stroke-dasharray:2,2;"/><text x="214.61" y="125.3333" fill="#000000" font-size="12" lengthAdjust="spacing" textLength="36.075" font-style="italic" font-family="sans-serif">double</text><line x1="153.46" y1="150" x2="247.685" y2="150" style="stroke:#181818;stroke-width:0.5;"/><line x1="153.46" y1="158" x2="247.685" y2="158" style="stroke:#181818;stroke-width:0.5;"/></g><!--reverse link Foo_t to Foo_int--><g class="link" data-entity-1="ent0002" data-entity-2="ent0003" id="lnk5" data-source-line="5" data-link-type="extension"><path d="M118.5383,73.9275 C108.5383,91.6075 103.7,100.13 93.71,117.79" style="stroke:#181818;stroke-width:1;" fill="none" id="Foo_t-backto-Foo_int" codeLine="5"/><polygon points="127.4,58.26,113.3158,70.9736,123.7608,76.8814,127.4,58.26" fill="none" style="stroke:#181818;stroke-width:1;stroke-linejoin:miter;stroke-miterlimit:10;"/></g><!--reverse link Foo_t to Foo_double--><g class="link" data-entity-1="ent0002" data-entity-2="ent0004" id="lnk6" data-source-line="6" data-link-type="extension"><path d="M162.6017,73.9275 C172.6017,91.6075 177.44,100.13 187.43,117.79" style="stroke:#181818;stroke-width:1;" fill="none" id="Foo_t-backto-Foo_double" codeLine="6"/><polygon points="153.74,58.26,157.3792,76.8814,167.8242,70.9736,153.74,58.26" fill="none" style="stroke:#181818;stroke-width:1;stroke-linejoin:miter;stroke-miterlimit:10;"/></g><?plantuml-src Iyv9B2vMS4eiiWcnuqe6SvJSylE1F2M5n68583E-15ayCwy48GFa8Ckbv9ScvQGYf25yBh0P2ZOrkhfmJMX248K0?></g></svg>