<svg xmlns="http://www.w3.org/2000/svg" xmlns:xlink="http://www.w3.org/1999/xlink" version="1.1" data-diagram-type="CLASS" style="width:84px;height:72px;background:#FFFFFF;" width="84px" height="72px" viewBox="0 0 84 72" zoomAndPan="magnify" preserveAspectRatio="none" contentStyleType="text/css"><?plantuml $version$?><defs/><g><!--class Toto--><g class="entity" data-qualified-name="Toto" id="ent0001" data-source-line="2"><rect x="7" y="7" width="64" height="52" fill="#F1F1F1" style="stroke:#181818;stroke-width:0.5;" rx="2.5" ry="2.5"/><ellipse cx="24" cy="25" rx="13" ry="13" fill="#ADD1B2" style="stroke:#181818;stroke-width:1;"/><path d="M27.1123,32.7881 Q26.3604,33.1748 25.5332,33.3682 Q24.7061,33.5615 23.793,33.5615 Q20.5488,33.5615 18.8408,31.4238 Q17.1328,29.2861 17.1328,25.2471 Q17.1328,21.1973 18.8408,19.0596 Q20.5488,16.9219 23.793,16.9219 Q24.7061,16.9219 25.5439,17.1152 Q26.3818,17.3086 27.1123,17.6953 L27.1123,21.2188 Q26.2959,20.4668 25.5278,20.1177 Q24.7598,19.7686 23.9434,19.7686 Q22.2031,19.7686 21.3169,21.1489 Q20.4307,22.5293 20.4307,25.2471 Q20.4307,27.9541 21.3169,29.3345 Q22.2031,30.7148 23.9434,30.7148 Q24.7598,30.7148 25.5278,30.3657 Q26.2959,30.0166 27.1123,29.2646 Z " fill="#000000"/><text x="40" y="28.8889" fill="#000000" font-size="14" lengthAdjust="spacing" textLength="28" font-family="sans-serif">Toto</text><line x1="8" y1="43" x2="70" y2="43" style="stroke:#181818;stroke-width:0.5;"/><line x1="8" y1="51" x2="70" y2="51" style="stroke:#181818;stroke-width:0.5;"/></g><?plantuml-src AyxEp2j8B4hCLN3EB4hEIKrnpW3oaajIYzpoyqg2CwjI5OoCk99p4ekB5KBoI_81?></g></svg>