<svg xmlns="http://www.w3.org/2000/svg" xmlns:xlink="http://www.w3.org/1999/xlink" version="1.1" data-diagram-type="STATE" style="width:157px;height:207px;background:#FFFFFF;" width="157px" height="207px" viewBox="0 0 157 207" zoomAndPan="magnify" preserveAspectRatio="none" contentStyleType="text/css"><?plantuml $version$?><defs/><g><rect x="34" y="7" width="80" height="8" fill="#008000" style="stroke:none;stroke-width:1;"/><g class="entity" data-qualified-name="a" id="ent0002" data-source-line="15"><rect x="7" y="75" width="50" height="50" fill="#0000FF" style="stroke:#181818;stroke-width:0.5;" rx="12.5" ry="12.5"/><line x1="7" y1="99" x2="57" y2="99" style="stroke:#181818;stroke-width:0.5;"/><text x="28.1063" y="90.8889" fill="#000000" font-size="14" lengthAdjust="spacing" textLength="7.7875" font-family="sans-serif">a</text></g><g class="entity" data-qualified-name="b" id="ent0003" data-source-line="16"><rect x="92" y="75" width="50" height="50" fill="#0000FF" style="stroke:#181818;stroke-width:0.5;" rx="12.5" ry="12.5"/><line x1="92" y1="99" x2="142" y2="99" style="stroke:#181818;stroke-width:0.5;"/><text x="113.1063" y="90.8889" fill="#000000" font-size="14" lengthAdjust="spacing" textLength="7.7875" font-family="sans-serif">b</text></g><rect x="34" y="185" width="80" height="8" fill="#FFA500" style="stroke:none;stroke-width:1;"/><!--link f to a--><g class="link" data-entity-1="ent0001" data-entity-2="ent0002" id="lnk5" data-source-line="18" data-link-type="dependency"><path d="M72.4,15.3 C67.76,24.93 56.1036,49.0772 45.9136,70.1872" style="stroke:#181818;stroke-width:1;" fill="none" id="f-to-a"/><polygon points="43.74,74.69,51.2547,68.3237,45.9136,70.1872,44.0501,64.846,43.74,74.69" fill="#181818" style="stroke:#181818;stroke-width:1;stroke-linejoin:miter;stroke-miterlimit:10;"/></g><!--link f to b--><g class="link" data-entity-1="ent0001" data-entity-2="ent0003" id="lnk6" data-source-line="19" data-link-type="dependency"><path d="M75.63,15.3 C80.39,24.93 92.3352,49.0973 102.7652,70.2073" style="stroke:#181818;stroke-width:1;" fill="none" id="f-to-b"/><polygon points="104.98,74.69,104.5795,64.8493,102.7652,70.2073,97.4072,68.393,104.98,74.69" fill="#181818" style="stroke:#181818;stroke-width:1;stroke-linejoin:miter;stroke-miterlimit:10;"/></g><!--link a to j--><g class="link" data-entity-1="ent0002" data-entity-2="ent0004" id="lnk7" data-source-line="20" data-link-type="dependency"><path d="M43.7,125.23 C53.89,146.35 65.5759,170.5574 70.2259,180.1874" style="stroke:#181818;stroke-width:1;" fill="none" id="a-to-j"/><polygon points="72.4,184.69,72.0886,174.8461,70.2259,180.1874,64.8845,178.3247,72.4,184.69" fill="#181818" style="stroke:#181818;stroke-width:1;stroke-linejoin:miter;stroke-miterlimit:10;"/></g><!--link b to j--><g class="link" data-entity-1="ent0003" data-entity-2="ent0004" id="lnk8" data-source-line="21" data-link-type="dependency"><path d="M105.02,125.23 C94.58,146.35 82.6193,170.5795 77.8493,180.2095" style="stroke:#181818;stroke-width:1;" fill="none" id="b-to-j"/><polygon points="75.63,184.69,83.2091,178.4006,77.8493,180.2095,76.0404,174.8497,75.63,184.69" fill="#181818" style="stroke:#181818;stroke-width:1;stroke-linejoin:miter;stroke-miterlimit:10;"/></g><?plantuml-src TOv13i8W44NtSugvG7Ll2OkwSENA4mmL6YY1X58JOhYxGDN4fAx-pvitcM5BJ5PoM295YKz076YSBy6lxdxsreSJ2hlA7ZBG6FL3npHGQE91-J2tjhCq1IbTNsQvciPhzy_qWTmaDpK3E_uyf92nUeP_01LmJRVQlqpiC5DOlLg0mgxZIEyKG2qDY2rV?></g></svg>