<svg xmlns="http://www.w3.org/2000/svg" xmlns:xlink="http://www.w3.org/1999/xlink" version="1.1" data-diagram-type="CLASS" style="width:251px;height:98px;background:#FFFFFF;" width="251px" height="98px" viewBox="0 0 251 98" zoomAndPan="magnify" preserveAspectRatio="none" contentStyleType="text/css"><?plantuml $version$?><defs/><g><!--class WInstallationRecord--><g class="entity" data-qualified-name="WInstallationRecord" id="ent0001" data-source-line="1"><rect x="70.85" y="7" width="166" height="76" fill="#F1F1F1" style="stroke:#181818;stroke-width:0.5;" rx="2.5" ry="2.5"/><ellipse cx="89.765" cy="23" rx="11" ry="11" fill="#ADD1B2" style="stroke:#181818;stroke-width:1;"/><path d="M92.2381,29.1431 Q91.6571,29.4419 91.0179,29.5913 Q90.3788,29.7407 89.6732,29.7407 Q87.1664,29.7407 85.8465,28.0889 Q84.5267,26.437 84.5267,23.3159 Q84.5267,20.1865 85.8465,18.5347 Q87.1664,16.8828 89.6732,16.8828 Q90.3788,16.8828 91.0262,17.0322 Q91.6737,17.1816 92.2381,17.4805 L92.2381,20.2031 Q91.6073,19.6221 91.0138,19.3523 Q90.4203,19.0825 89.7894,19.0825 Q88.4447,19.0825 87.7599,20.1492 Q87.0751,21.2158 87.0751,23.3159 Q87.0751,25.4077 87.7599,26.4744 Q88.4447,27.541 89.7894,27.541 Q90.4203,27.541 91.0138,27.2712 Q91.6073,27.0015 92.2381,26.4204 Z " fill="#000000"/><text x="104.635" y="26.8889" fill="#000000" font-size="14" lengthAdjust="spacing" textLength="125.3" font-family="sans-serif">WInstallationRecord</text><line x1="71.85" y1="39" x2="235.85" y2="39" style="stroke:#181818;stroke-width:0.5;"/><g data-visibility-modifier="PUBLIC_FIELD"><ellipse cx="81.85" cy="51.5" rx="3" ry="3" fill="none" style="stroke:#038048;stroke-width:1;"/></g><text x="90.85" y="53.8889" fill="#000000" font-size="14" lengthAdjust="spacing" textLength="140" font-family="sans-serif">reportedVersion: String</text><g data-visibility-modifier="PUBLIC_FIELD"><ellipse cx="81.85" cy="65.5" rx="3" ry="3" fill="none" style="stroke:#038048;stroke-width:1;"/></g><text x="90.85" y="67.8889" fill="#000000" font-size="14" lengthAdjust="spacing" textLength="115.9375" font-family="sans-serif">reported: RFC3339</text><line x1="71.85" y1="75" x2="235.85" y2="75" style="stroke:#181818;stroke-width:0.5;"/></g><path d="M6,12 L6,35 A0,0 0 0 0 6,35 L35.6938,35 A0,0 0 0 0 35.6938,35 L35.6938,30 L76.85,50 L35.6938,22 L35.6938,22 L25.6938,12 L6,12 A0,0 0 0 0 6,12" style="stroke:#181818;stroke-width:0.5;" fill="#FEFFDD"/><path d="M25.6938,12 L25.6938,22 L35.6938,22 L25.6938,12" style="stroke:#181818;stroke-width:0.5;" fill="#FEFFDD"/><text x="12" y="27.1111" fill="#000000" font-size="13" lengthAdjust="spacing" textLength="8.6938" font-family="sans-serif">A</text><path d="M6,45 L6,68 A0,0 0 0 0 6,68 L35.6938,68 A0,0 0 0 0 35.6938,68 L35.6938,63 L76.85,64 L35.6938,55 L35.6938,55 L25.6938,45 L6,45 A0,0 0 0 0 6,45" style="stroke:#181818;stroke-width:0.5;" fill="#FEFFDD"/><path d="M25.6938,45 L25.6938,55 L35.6938,55 L25.6938,45" style="stroke:#181818;stroke-width:0.5;" fill="#FEFFDD"/><text x="12" y="60.1111" fill="#000000" font-size="13" lengthAdjust="spacing" textLength="8.6938" font-family="sans-serif">B</text><?plantuml-src Iyv9B2vM2FVCAov9pCb9BCdCpmjAJSulIb6evb800ksYr8ByefBKbB3KecAWf9L2S4bHPbuwggILGf2Rix6niILNBHTNNdv9ga9EQbg9GduQDfEjhD3Cv7BaIirBKG3f8qKtbnEIDW00?></g></svg>