<svg xmlns="http://www.w3.org/2000/svg" xmlns:xlink="http://www.w3.org/1999/xlink" version="1.1" data-diagram-type="STATE" style="width:80px;height:342px;background:#FFFFFF;" width="80px" height="342px" viewBox="0 0 80 342" zoomAndPan="magnify" preserveAspectRatio="none" contentStyleType="text/css"><?plantuml $version$?><defs/><g><g class="start_entity" data-qualified-name=".start." id="ent0001" data-source-line="2"><ellipse cx="36.08" cy="16" rx="10" ry="10" fill="#222222" style="stroke:#222222;stroke-width:1;"/></g><g class="entity" data-qualified-name="Active" id="ent0002" data-source-line="2"><rect x="7" y="86" width="58.15" height="50" fill="#F1F1F1" style="stroke:#181818;stroke-width:0.5;" rx="12.5" ry="12.5"/><line x1="7" y1="110" x2="65.15" y2="110" style="stroke:#181818;stroke-width:0.5;"/><text x="17" y="101.8889" fill="#000000" font-size="14" lengthAdjust="spacing" textLength="38.15" font-family="sans-serif">Active</text></g><g class="entity" data-qualified-name="Other" id="ent0004" data-source-line="3"><rect x="8.62" y="196" width="54.9125" height="50" fill="#F1F1F1" style="stroke:#181818;stroke-width:0.5;" rx="12.5" ry="12.5"/><line x1="8.62" y1="220" x2="63.5325" y2="220" style="stroke:#181818;stroke-width:0.5;"/><text x="18.62" y="211.8889" fill="#000000" font-size="14" lengthAdjust="spacing" textLength="34.9125" font-family="sans-serif">Other</text></g><g class="end_entity" data-qualified-name=".end." id="ent0006" data-source-line="4"><ellipse cx="36.08" cy="317" rx="11" ry="11" fill="none" style="stroke:#222222;stroke-width:1;"/><ellipse cx="36.08" cy="317" rx="6" ry="6" fill="#222222" style="stroke:#222222;stroke-width:1;"/></g><!--link *start* to Active--><g class="link" data-entity-1="ent0001" data-entity-2="ent0002" id="lnk3" data-source-line="2" data-link-type="dependency"><path d="M36.08,26.26 C36.08,39.95 36.08,61.07 36.08,80.52" style="stroke:#181818;stroke-width:1;" fill="none" id="*start*-to-Active"/><polygon points="36.08,85.52,40.08,76.52,36.08,80.52,32.08,76.52,36.08,85.52" fill="#181818" style="stroke:#181818;stroke-width:1;stroke-linejoin:miter;stroke-miterlimit:10;"/></g><!--link Active to Other--><g class="link" data-entity-1="ent0002" data-entity-2="ent0004" id="lnk5" data-source-line="3" data-link-type="dependency"><path d="M36.08,136.24 C36.08,154.02 36.08,173.08 36.08,190.84" style="stroke:#181818;stroke-width:1;" fill="none" id="Active-to-Other"/><polygon points="36.08,195.84,40.08,186.84,36.08,190.84,32.08,186.84,36.08,195.84" fill="#181818" style="stroke:#181818;stroke-width:1;stroke-linejoin:miter;stroke-miterlimit:10;"/></g><!--link Other to *end*--><g class="link" data-entity-1="ent0004" data-entity-2="ent0006" id="lnk7" data-source-line="4" data-link-type="dependency"><path d="M36.08,246.21 C36.08,265.57 36.08,286.75 36.08,300.9" style="stroke:#181818;stroke-width:1;" fill="none" id="Other-to-*end*"/><polygon points="36.08,305.9,40.08,296.9,36.08,300.9,32.08,296.9,36.08,305.9" fill="#181818" style="stroke:#181818;stroke-width:1;stroke-linejoin:miter;stroke-miterlimit:10;"/></g><?plantuml-src YzQALT3LjLDmJ2x9B4lbWb1W4V-IZDGYBZ09vaThnG80?></g></svg>