<svg xmlns="http://www.w3.org/2000/svg" xmlns:xlink="http://www.w3.org/1999/xlink" version="1.1" data-diagram-type="CLASS" style="width:196px;height:429px;background:#FFFFFF;" width="196px" height="429px" viewBox="0 0 196 429" zoomAndPan="magnify" preserveAspectRatio="none" contentStyleType="text/css"><?plantuml $version$?><defs/><g><g class="title" data-source-line="1"><text x="61.9887" y="20.8889" fill="#000000" font-size="14" lengthAdjust="spacing" textLength="65.275" font-weight="700" font-family="sans-serif">Some Stuff</text></g><!--class Company--><g class="entity" data-qualified-name="Company" id="ent0001" data-source-line="5"><rect x="78.38" y="42" width="91.9375" height="48" fill="#F1F1F1" style="stroke:#181818;stroke-width:0.5;" rx="2.5" ry="2.5"/><ellipse cx="93.38" cy="58" rx="11" ry="11" fill="#ADD1B2" style="stroke:#181818;stroke-width:1;"/><path d="M95.8531,64.1431 Q95.2721,64.4419 94.6329,64.5913 Q93.9938,64.7407 93.2882,64.7407 Q90.7814,64.7407 89.4615,63.0889 Q88.1417,61.437 88.1417,58.3159 Q88.1417,55.1865 89.4615,53.5347 Q90.7814,51.8828 93.2882,51.8828 Q93.9938,51.8828 94.6412,52.0322 Q95.2887,52.1816 95.8531,52.4805 L95.8531,55.2031 Q95.2223,54.6221 94.6288,54.3523 Q94.0353,54.0825 93.4044,54.0825 Q92.0597,54.0825 91.3749,55.1492 Q90.6901,56.2158 90.6901,58.3159 Q90.6901,60.4077 91.3749,61.4744 Q92.0597,62.541 93.4044,62.541 Q94.0353,62.541 94.6288,62.2712 Q95.2223,62.0015 95.8531,61.4204 Z " fill="#000000"/><text x="107.38" y="61.8889" fill="#000000" font-size="14" lengthAdjust="spacing" textLength="59.9375" font-family="sans-serif">Company</text><line x1="79.38" y1="74" x2="169.3175" y2="74" style="stroke:#181818;stroke-width:0.5;"/><line x1="79.38" y1="82" x2="169.3175" y2="82" style="stroke:#181818;stroke-width:0.5;"/></g><!--class BusinessUnit--><g class="entity" data-qualified-name="BusinessUnit" id="ent0002" data-source-line="7"><rect x="67.44" y="150" width="113.8125" height="48" fill="#F1F1F1" style="stroke:#181818;stroke-width:0.5;" rx="2.5" ry="2.5"/><ellipse cx="82.44" cy="166" rx="11" ry="11" fill="#ADD1B2" style="stroke:#181818;stroke-width:1;"/><path d="M84.9131,172.1431 Q84.3321,172.4419 83.6929,172.5913 Q83.0538,172.7407 82.3482,172.7407 Q79.8414,172.7407 78.5215,171.0889 Q77.2017,169.437 77.2017,166.3159 Q77.2017,163.1865 78.5215,161.5347 Q79.8414,159.8828 82.3482,159.8828 Q83.0538,159.8828 83.7012,160.0322 Q84.3487,160.1816 84.9131,160.4805 L84.9131,163.2031 Q84.2823,162.6221 83.6888,162.3523 Q83.0953,162.0825 82.4644,162.0825 Q81.1197,162.0825 80.4349,163.1492 Q79.7501,164.2158 79.7501,166.3159 Q79.7501,168.4077 80.4349,169.4744 Q81.1197,170.541 82.4644,170.541 Q83.0953,170.541 83.6888,170.2712 Q84.2823,170.0015 84.9131,169.4204 Z " fill="#000000"/><text x="96.44" y="169.8889" fill="#000000" font-size="14" lengthAdjust="spacing" textLength="81.8125" font-family="sans-serif">BusinessUnit</text><line x1="68.44" y1="182" x2="180.2525" y2="182" style="stroke:#181818;stroke-width:0.5;"/><line x1="68.44" y1="190" x2="180.2525" y2="190" style="stroke:#181818;stroke-width:0.5;"/></g><!--class Group--><g class="entity" data-qualified-name="Group" id="ent0003" data-source-line="9"><rect x="88.92" y="258" width="70.85" height="48" fill="#F1F1F1" style="stroke:#181818;stroke-width:0.5;" rx="2.5" ry="2.5"/><ellipse cx="103.92" cy="274" rx="11" ry="11" fill="#ADD1B2" style="stroke:#181818;stroke-width:1;"/><path d="M106.3931,280.1431 Q105.8121,280.4419 105.1729,280.5913 Q104.5338,280.7407 103.8282,280.7407 Q101.3214,280.7407 100.0015,279.0889 Q98.6817,277.437 98.6817,274.3159 Q98.6817,271.1865 100.0015,269.5347 Q101.3214,267.8828 103.8282,267.8828 Q104.5338,267.8828 105.1812,268.0322 Q105.8287,268.1816 106.3931,268.4805 L106.3931,271.2031 Q105.7623,270.6221 105.1688,270.3523 Q104.5753,270.0825 103.9444,270.0825 Q102.5997,270.0825 101.9149,271.1492 Q101.2301,272.2158 101.2301,274.3159 Q101.2301,276.4077 101.9149,277.4744 Q102.5997,278.541 103.9444,278.541 Q104.5753,278.541 105.1688,278.2712 Q105.7623,278.0015 106.3931,277.4204 Z " fill="#000000"/><text x="117.92" y="277.8889" fill="#000000" font-size="14" lengthAdjust="spacing" textLength="38.85" font-family="sans-serif">Group</text><line x1="89.92" y1="290" x2="158.77" y2="290" style="stroke:#181818;stroke-width:0.5;"/><line x1="89.92" y1="298" x2="158.77" y2="298" style="stroke:#181818;stroke-width:0.5;"/></g><!--class Employee--><g class="entity" data-qualified-name="Employee" id="ent0004" data-source-line="11"><rect x="77.2" y="366" width="94.3" height="48" fill="#F1F1F1" style="stroke:#181818;stroke-width:0.5;" rx="2.5" ry="2.5"/><ellipse cx="92.2" cy="382" rx="11" ry="11" fill="#ADD1B2" style="stroke:#181818;stroke-width:1;"/><path d="M94.6731,388.1431 Q94.0921,388.4419 93.4529,388.5913 Q92.8138,388.7407 92.1082,388.7407 Q89.6014,388.7407 88.2815,387.0889 Q86.9617,385.437 86.9617,382.3159 Q86.9617,379.1865 88.2815,377.5347 Q89.6014,375.8828 92.1082,375.8828 Q92.8138,375.8828 93.4612,376.0322 Q94.1087,376.1816 94.6731,376.4805 L94.6731,379.2031 Q94.0423,378.6221 93.4488,378.3523 Q92.8553,378.0825 92.2244,378.0825 Q90.8797,378.0825 90.1949,379.1492 Q89.5101,380.2158 89.5101,382.3159 Q89.5101,384.4077 90.1949,385.4744 Q90.8797,386.541 92.2244,386.541 Q92.8553,386.541 93.4488,386.2712 Q94.0423,386.0015 94.6731,385.4204 Z " fill="#000000"/><text x="106.2" y="385.8889" fill="#000000" font-size="14" lengthAdjust="spacing" textLength="62.3" font-family="sans-serif">Employee</text><line x1="78.2" y1="398" x2="170.5" y2="398" style="stroke:#181818;stroke-width:0.5;"/><line x1="78.2" y1="406" x2="170.5" y2="406" style="stroke:#181818;stroke-width:0.5;"/></g><g class="entity" data-qualified-name="Companylol5" id="ent0006" data-source-line="15"><ellipse cx="38.35" cy="66" rx="5" ry="5" fill="#F1F1F1" style="stroke:#181818;stroke-width:1.5;"/></g><text x="17" y="81.8889" fill="#000000" font-size="14" lengthAdjust="spacing" textLength="42.7" font-family="sans-serif">IGroup</text><g class="entity" data-qualified-name="BusinessUnitlol8" id="ent0009" data-source-line="16"><ellipse cx="27.35" cy="174" rx="5" ry="5" fill="#F1F1F1" style="stroke:#181818;stroke-width:1.5;"/></g><text x="6" y="189.8889" fill="#000000" font-size="14" lengthAdjust="spacing" textLength="42.7" font-family="sans-serif">IGroup</text><!--link Companylol5 to Company--><g class="link" data-entity-1="ent0006" data-entity-2="ent0001" id="lnk7" data-source-line="15" data-link-type="association"><path d="M43.73,66 C55.17,66 66.61,66 78.05,66" style="stroke:#181818;stroke-width:1;" fill="none" id="Companylol5-Company"/></g><!--link BusinessUnitlol8 to BusinessUnit--><g class="link" data-entity-1="ent0009" data-entity-2="ent0002" id="lnk10" data-source-line="16" data-link-type="association"><path d="M32.65,174 C44.12,174 55.58,174 67.04,174" style="stroke:#181818;stroke-width:1;" fill="none" id="BusinessUnitlol8-BusinessUnit"/></g><!--link Company to BusinessUnit--><g class="link" data-entity-1="ent0001" data-entity-2="ent0002" id="lnk11" data-source-line="20" data-link-type="dependency"><path d="M124.35,90.26 C124.35,107.94 124.35,127.13 124.35,144.79" style="stroke:#181818;stroke-width:1;" fill="none" id="Company-to-BusinessUnit" codeLine="20"/><polygon points="124.35,149.79,128.35,140.79,124.35,144.79,120.35,140.79,124.35,149.79" fill="#181818" style="stroke:#181818;stroke-width:1;stroke-linejoin:miter;stroke-miterlimit:10;"/></g><!--link BusinessUnit to Group--><g class="link" data-entity-1="ent0002" data-entity-2="ent0003" id="lnk12" data-source-line="21" data-link-type="dependency"><path d="M124.35,198.26 C124.35,215.94 124.35,235.13 124.35,252.79" style="stroke:#181818;stroke-width:1;" fill="none" id="BusinessUnit-to-Group" codeLine="21"/><polygon points="124.35,257.79,128.35,248.79,124.35,252.79,120.35,248.79,124.35,257.79" fill="#181818" style="stroke:#181818;stroke-width:1;stroke-linejoin:miter;stroke-miterlimit:10;"/></g><!--link Group to Employee--><g class="link" data-entity-1="ent0003" data-entity-2="ent0004" id="lnk13" data-source-line="22" data-link-type="dependency"><path d="M124.35,306.26 C124.35,323.94 124.35,343.13 124.35,360.79" style="stroke:#181818;stroke-width:1;" fill="none" id="Group-to-Employee" codeLine="22"/><polygon points="124.35,365.79,128.35,356.79,124.35,360.79,120.35,356.79,124.35,365.79" fill="#181818" style="stroke:#181818;stroke-width:1;stroke-linejoin:miter;stroke-miterlimit:10;"/></g><?plantuml-src LKux3iCW3DqvXRUq0rVeqAYgM5lr02WoAX8O59iXjmy9fKeMo-_PxoDU0i8xnJgaEAVK06EmpCXAJTi2OuhPqjBXlR0dPFwGbyuzvrHo1u-OGreGDoj3WhEp4uAfB4OaiU8JLNEpY-1orV-40tLE6U25eGc_FbVnJm5QtywlHx1VMxLclE7URWK0?></g></svg>