<svg xmlns="http://www.w3.org/2000/svg" xmlns:xlink="http://www.w3.org/1999/xlink" version="1.1" data-diagram-type="CLASS" style="width:335px;height:186px;background:#FFFFFF;" width="335px" height="186px" viewBox="0 0 335 186" zoomAndPan="magnify" preserveAspectRatio="none" contentStyleType="text/css"><?plantuml $version$?><defs/><g><!--class foo1--><!--class foo2--><g class="entity" data-qualified-name="foo2" id="ent0002" data-source-line="3"><rect x="101.57" y="7" width="124.075" height="52" fill="#F1F1F1" style="stroke:#181818;stroke-width:0.5;" rx="2.5" ry="2.5"/><ellipse cx="116.57" cy="25" rx="11" ry="11" fill="#ADD1B2" style="stroke:#181818;stroke-width:1;"/><path d="M119.0431,31.1431 Q118.4621,31.4419 117.8229,31.5913 Q117.1838,31.7407 116.4782,31.7407 Q113.9714,31.7407 112.6515,30.0889 Q111.3317,28.437 111.3317,25.3159 Q111.3317,22.1865 112.6515,20.5347 Q113.9714,18.8828 116.4782,18.8828 Q117.1838,18.8828 117.8312,19.0322 Q118.4787,19.1816 119.0431,19.4805 L119.0431,22.2031 Q118.4123,21.6221 117.8188,21.3523 Q117.2253,21.0825 116.5944,21.0825 Q115.2497,21.0825 114.5649,22.1492 Q113.8801,23.2158 113.8801,25.3159 Q113.8801,27.4077 114.5649,28.4744 Q115.2497,29.541 116.5944,29.541 Q117.2253,29.541 117.8188,29.2712 Q118.4123,29.0015 119.0431,28.4204 Z " fill="#000000"/><text x="128.57" y="21.3333" fill="#000000" font-size="12" lengthAdjust="spacing" textLength="96.075" font-style="italic" font-family="sans-serif">«This is My Stereo»</text><text x="163.0013" y="34.8889" fill="#000000" font-size="14" lengthAdjust="spacing" textLength="27.2125" font-family="sans-serif">foo2</text><line x1="102.57" y1="43" x2="224.645" y2="43" style="stroke:#181818;stroke-width:0.5;"/><line x1="102.57" y1="51" x2="224.645" y2="51" style="stroke:#181818;stroke-width:0.5;"/></g><!--class foo3--><!--class foo4--><g class="entity" data-qualified-name="foo4" id="ent0004" data-source-line="7"><rect x="7" y="121" width="59.2125" height="48" fill="#F1F1F1" style="stroke:#181818;stroke-width:0.5;" rx="2.5" ry="2.5"/><ellipse cx="22" cy="137" rx="11" ry="11" fill="#ADD1B2" style="stroke:#181818;stroke-width:1;"/><path d="M24.4731,143.1431 Q23.8921,143.4419 23.2529,143.5913 Q22.6138,143.7407 21.9082,143.7407 Q19.4014,143.7407 18.0815,142.0889 Q16.7617,140.437 16.7617,137.3159 Q16.7617,134.1865 18.0815,132.5347 Q19.4014,130.8828 21.9082,130.8828 Q22.6138,130.8828 23.2612,131.0322 Q23.9087,131.1816 24.4731,131.4805 L24.4731,134.2031 Q23.8423,133.6221 23.2488,133.3523 Q22.6553,133.0825 22.0244,133.0825 Q20.6797,133.0825 19.9949,134.1492 Q19.3101,135.2158 19.3101,137.3159 Q19.3101,139.4077 19.9949,140.4744 Q20.6797,141.541 22.0244,141.541 Q22.6553,141.541 23.2488,141.2712 Q23.8423,141.0015 24.4731,140.4204 Z " fill="#000000"/><text x="36" y="140.8889" fill="#000000" font-size="14" lengthAdjust="spacing" textLength="27.2125" font-family="sans-serif">foo4</text><line x1="8" y1="153" x2="65.2125" y2="153" style="stroke:#181818;stroke-width:0.5;"/><line x1="8" y1="161" x2="65.2125" y2="161" style="stroke:#181818;stroke-width:0.5;"/></g><!--class foo5--><?plantuml-src Iyv9B2vMIClFDrHGAKbCDrIevghbIeO96YdOs2Y4P6GMAm2HRwL2S4bgKMg-WfqTL368D4BLOWoLWig1AMC5L3Kc2AOfo0R_aepK8cocPcIcf8AvMbp56Vdb8BLQlfLQGAK0?></g></svg>