<svg xmlns="http://www.w3.org/2000/svg" xmlns:xlink="http://www.w3.org/1999/xlink" version="1.1" data-diagram-type="CLASS" style="width:127px;height:194px;background:#FFFFFF;" width="127px" height="194px" viewBox="0 0 127 194" zoomAndPan="magnify" preserveAspectRatio="none" contentStyleType="text/css"><?plantuml $version$?><defs/><g><!--class Drawable--><g class="entity" data-qualified-name="Drawable" id="ent0001" data-source-line="1"><rect x="7" y="7" width="105.7275" height="64.4883" fill="#F1F1F1" style="stroke:#181818;stroke-width:0.5;" rx="2.5" ry="2.5"/><ellipse cx="26.772" cy="23" rx="11" ry="11" fill="#B4A7E5" style="stroke:#181818;stroke-width:1;"/><path d="M23.1998,19.2651 L23.1998,17.1069 L30.5792,17.1069 L30.5792,19.2651 L28.1138,19.2651 L28.1138,27.3418 L30.5792,27.3418 L30.5792,29.5 L23.1998,29.5 L23.1998,27.3418 L25.6651,27.3418 L25.6651,19.2651 Z " fill="#000000"/><text x="41.8325" y="28.291" fill="#000000" font-size="14" lengthAdjust="spacing" textLength="63.123" font-style="italic" font-family="sans-serif">Drawable</text><line x1="8" y1="39" x2="111.7275" y2="39" style="stroke:#181818;stroke-width:0.5;"/><line x1="8" y1="47" x2="111.7275" y2="47" style="stroke:#181818;stroke-width:0.5;"/><g data-visibility-modifier="PUBLIC_METHOD"><ellipse cx="18" cy="60.7441" rx="3" ry="3" fill="#84BE84" style="stroke:#038048;stroke-width:1;"/></g><text x="27" y="64.5352" fill="#000000" font-size="14" lengthAdjust="spacing" textLength="79.7275" font-family="sans-serif">draw(): void</text></g><!--class Circle--><g class="entity" data-qualified-name="Circle" id="ent0002" data-source-line="4"><rect x="24.62" y="131.49" width="70.4795" height="48" fill="#F1F1F1" style="stroke:#181818;stroke-width:0.5;" rx="2.5" ry="2.5"/><ellipse cx="39.62" cy="147.49" rx="11" ry="11" fill="#ADD1B2" style="stroke:#181818;stroke-width:1;"/><path d="M42.0931,153.6331 Q41.5121,153.9319 40.8729,154.0813 Q40.2338,154.2307 39.5282,154.2307 Q37.0214,154.2307 35.7015,152.5789 Q34.3817,150.927 34.3817,147.8059 Q34.3817,144.6765 35.7015,143.0247 Q37.0214,141.3728 39.5282,141.3728 Q40.2338,141.3728 40.8812,141.5222 Q41.5287,141.6716 42.0931,141.9705 L42.0931,144.6931 Q41.4623,144.1121 40.8688,143.8423 Q40.2753,143.5725 39.6444,143.5725 Q38.2997,143.5725 37.6149,144.6392 Q36.9301,145.7058 36.9301,147.8059 Q36.9301,149.8977 37.6149,150.9644 Q38.2997,152.031 39.6444,152.031 Q40.2753,152.031 40.8688,151.7612 Q41.4623,151.4915 42.0931,150.9104 Z " fill="#000000"/><text x="53.62" y="152.781" fill="#000000" font-size="14" lengthAdjust="spacing" textLength="38.4795" font-family="sans-serif">Circle</text><line x1="25.62" y1="163.49" x2="94.0995" y2="163.49" style="stroke:#181818;stroke-width:0.5;"/><line x1="25.62" y1="171.49" x2="94.0995" y2="171.49" style="stroke:#181818;stroke-width:0.5;"/></g><!--reverse link Drawable to Circle--><g class="link" data-entity-1="ent0001" data-entity-2="ent0002" id="lnk3" data-source-line="5" data-link-type="extension"><path d="M59.86,89.77 C59.86,108.52 59.86,113.92 59.86,131.05" style="stroke:#181818;stroke-width:1;stroke-dasharray:7,7;" fill="none" id="Drawable-backto-Circle" codeLine="5"/><polygon points="59.86,71.77,53.86,89.77,65.86,89.77,59.86,71.77" fill="none" style="stroke:#181818;stroke-width:1;stroke-linejoin:miter;stroke-miterlimit:10;"/></g><?plantuml-src oymhIIrAIqnELN0fIYnFJCf9LQZcKb3GJW7oD3Ij5ChoCrEuQhcISnABYnMSCukISrAvu2fjQlJqe880?></g></svg>