<svg xmlns="http://www.w3.org/2000/svg" xmlns:xlink="http://www.w3.org/1999/xlink" version="1.1" data-diagram-type="CLASS" style="width:215px;height:181px;background:#FFFFFF;" width="215px" height="181px" viewBox="0 0 215 181" zoomAndPan="magnify" preserveAspectRatio="none" contentStyleType="text/css"><?plantuml $version$?><defs/><g><!--class Foo--><g class="entity" data-qualified-name="Foo" id="ent0001" data-source-line="1"><rect x="21.36" y="10" width="67.5" height="48" fill="#F1F1F1" style="stroke:#181818;stroke-width:0.5;" rx="2.5" ry="2.5"/><ellipse cx="36.36" cy="26" rx="11" ry="11" fill="#ADD1B2" style="stroke:#181818;stroke-width:1;"/><path d="M38.8331,32.1431 Q38.2521,32.4419 37.6129,32.5913 Q36.9738,32.7407 36.2682,32.7407 Q33.7614,32.7407 32.4415,31.0889 Q31.1217,29.437 31.1217,26.3159 Q31.1217,23.1865 32.4415,21.5347 Q33.7614,19.8828 36.2682,19.8828 Q36.9738,19.8828 37.6212,20.0322 Q38.2687,20.1816 38.8331,20.4805 L38.8331,23.2031 Q38.2023,22.6221 37.6088,22.3523 Q37.0153,22.0825 36.3844,22.0825 Q35.0397,22.0825 34.3549,23.1492 Q33.6701,24.2158 33.6701,26.3159 Q33.6701,28.4077 34.3549,29.4744 Q35.0397,30.541 36.3844,30.541 Q37.0153,30.541 37.6088,30.2712 Q38.2023,30.0015 38.8331,29.4204 Z " fill="#000000"/><text x="50.36" y="29.8889" fill="#000000" font-size="14" lengthAdjust="spacing" textLength="24.15" font-family="sans-serif">Foo</text><rect x="82.51" y="7" width="9.35" height="14" fill="#FFFFFF" style="stroke:#181818;stroke-width:1;stroke-dasharray:2,2;"/><text x="83.51" y="17.3333" fill="#000000" font-size="12" lengthAdjust="spacing" textLength="7.35" font-style="italic" font-family="sans-serif">T</text><line x1="22.36" y1="42" x2="87.86" y2="42" style="stroke:#181818;stroke-width:0.5;"/><line x1="22.36" y1="50" x2="87.86" y2="50" style="stroke:#181818;stroke-width:0.5;"/></g><!--class Foo_int--><g class="entity" data-qualified-name="Foo_int" id="ent0002" data-source-line="2"><rect x="123.7" y="10" width="72.825" height="48" fill="#F1F1F1" style="stroke:#181818;stroke-width:0.5;" rx="2.5" ry="2.5"/><ellipse cx="138.7" cy="26" rx="11" ry="11" fill="#ADD1B2" style="stroke:#181818;stroke-width:1;"/><path d="M141.1731,32.1431 Q140.5921,32.4419 139.9529,32.5913 Q139.3138,32.7407 138.6082,32.7407 Q136.1014,32.7407 134.7815,31.0889 Q133.4617,29.437 133.4617,26.3159 Q133.4617,23.1865 134.7815,21.5347 Q136.1014,19.8828 138.6082,19.8828 Q139.3138,19.8828 139.9612,20.0322 Q140.6087,20.1816 141.1731,20.4805 L141.1731,23.2031 Q140.5423,22.6221 139.9488,22.3523 Q139.3553,22.0825 138.7244,22.0825 Q137.3797,22.0825 136.6949,23.1492 Q136.0101,24.2158 136.0101,26.3159 Q136.0101,28.4077 136.6949,29.4744 Q137.3797,30.541 138.7244,30.541 Q139.3553,30.541 139.9488,30.2712 Q140.5423,30.0015 141.1731,29.4204 Z " fill="#000000"/><text x="152.7" y="29.8889" fill="#000000" font-size="14" lengthAdjust="spacing" textLength="24.15" font-family="sans-serif">Foo</text><rect x="184.85" y="7" width="14.675" height="14" fill="#FFFFFF" style="stroke:#181818;stroke-width:1;stroke-dasharray:2,2;"/><text x="185.85" y="17.3333" fill="#000000" font-size="12" lengthAdjust="spacing" textLength="12.675" font-style="italic" font-family="sans-serif">int</text><line x1="124.7" y1="42" x2="195.525" y2="42" style="stroke:#181818;stroke-width:0.5;"/><line x1="124.7" y1="50" x2="195.525" y2="50" style="stroke:#181818;stroke-width:0.5;"/></g><!--class Foo_double--><g class="entity" data-qualified-name="Foo_double" id="ent0003" data-source-line="3"><rect x="7" y="118" width="96.225" height="48" fill="#F1F1F1" style="stroke:#181818;stroke-width:0.5;" rx="2.5" ry="2.5"/><ellipse cx="22" cy="134" rx="11" ry="11" fill="#ADD1B2" style="stroke:#181818;stroke-width:1;"/><path d="M24.4731,140.1431 Q23.8921,140.4419 23.2529,140.5913 Q22.6138,140.7407 21.9082,140.7407 Q19.4014,140.7407 18.0815,139.0889 Q16.7617,137.437 16.7617,134.3159 Q16.7617,131.1865 18.0815,129.5347 Q19.4014,127.8828 21.9082,127.8828 Q22.6138,127.8828 23.2612,128.0322 Q23.9087,128.1816 24.4731,128.4805 L24.4731,131.2031 Q23.8423,130.6221 23.2488,130.3523 Q22.6553,130.0825 22.0244,130.0825 Q20.6797,130.0825 19.9949,131.1492 Q19.3101,132.2158 19.3101,134.3159 Q19.3101,136.4077 19.9949,137.4744 Q20.6797,138.541 22.0244,138.541 Q22.6553,138.541 23.2488,138.2712 Q23.8423,138.0015 24.4731,137.4204 Z " fill="#000000"/><text x="36" y="137.8889" fill="#000000" font-size="14" lengthAdjust="spacing" textLength="24.15" font-family="sans-serif">Foo</text><rect x="68.15" y="115" width="38.075" height="14" fill="#FFFFFF" style="stroke:#181818;stroke-width:1;stroke-dasharray:2,2;"/><text x="69.15" y="125.3333" fill="#000000" font-size="12" lengthAdjust="spacing" textLength="36.075" font-style="italic" font-family="sans-serif">double</text><line x1="8" y1="150" x2="102.225" y2="150" style="stroke:#181818;stroke-width:0.5;"/><line x1="8" y1="158" x2="102.225" y2="158" style="stroke:#181818;stroke-width:0.5;"/></g><?plantuml-src Iyv9B2vMSClFjmcnK-1A1lEKGDpCl18x9OL4i5mya8Cibv9VcfIJYf26y040?></g></svg>