<svg xmlns="http://www.w3.org/2000/svg" xmlns:xlink="http://www.w3.org/1999/xlink" version="1.1" data-diagram-type="CLASS" style="width:138px;height:96px;background:#FFFFFF;" width="138px" height="96px" viewBox="0 0 138 96" zoomAndPan="magnify" preserveAspectRatio="none" contentStyleType="text/css"><?plantuml $version$?><defs/><g><!--class test--><g class="entity" data-qualified-name="test" id="ent0001" data-source-line="2"><rect x="7" y="7" width="118.4875" height="76" fill="#F1F1F1" style="stroke:#181818;stroke-width:0.5;" rx="2.5" ry="2.5"/><ellipse cx="50.8" cy="23" rx="11" ry="11" fill="#ADD1B2" style="stroke:#181818;stroke-width:1;"/><path d="M53.2731,29.1431 Q52.6921,29.4419 52.0529,29.5913 Q51.4138,29.7407 50.7082,29.7407 Q48.2014,29.7407 46.8815,28.0889 Q45.5617,26.437 45.5617,23.3159 Q45.5617,20.1865 46.8815,18.5347 Q48.2014,16.8828 50.7082,16.8828 Q51.4138,16.8828 52.0612,17.0322 Q52.7087,17.1816 53.2731,17.4805 L53.2731,20.2031 Q52.6423,19.6221 52.0488,19.3523 Q51.4553,19.0825 50.8244,19.0825 Q49.4797,19.0825 48.7949,20.1492 Q48.1101,21.2158 48.1101,23.3159 Q48.1101,25.4077 48.7949,26.4744 Q49.4797,27.541 50.8244,27.541 Q51.4553,27.541 52.0488,27.2712 Q52.6423,27.0015 53.2731,26.4204 Z " fill="#000000"/><text x="71.2" y="26.8889" fill="#000000" font-size="14" lengthAdjust="spacing" textLength="22.4875" font-family="sans-serif">test</text><line x1="8" y1="39" x2="124.4875" y2="39" style="stroke:#181818;stroke-width:0.5;"/><text x="13" y="53.8889" fill="#800080" font-size="14" lengthAdjust="spacing" textLength="25.725" font-style="italic" font-family="sans-serif">field</text><text x="38.725" y="53.8889" fill="#800080" font-size="14" lengthAdjust="spacing" textLength="23.3625" font-family="sans-serif">non</text><text x="62.0875" y="53.8889" fill="#000000" font-size="14" lengthAdjust="spacing" textLength="27.2125" font-family="sans-serif">gras</text><line x1="8" y1="61" x2="124.4875" y2="61" style="stroke:#181818;stroke-width:0.5;"/><text x="13" y="75.8889" fill="#000000" font-size="14" lengthAdjust="spacing" textLength="55.9125" font-weight="700" font-family="sans-serif">method()</text><text x="68.9125" y="75.8889" fill="#000000" font-size="14" lengthAdjust="spacing" textLength="50.575" font-family="sans-serif">non gras</text></g><?plantuml-src FOiv3e0m3C1sNf4Hfkuev2yz0bGAJTMK_wE2nEB5TXHl1fsjJmEm0WQwk9-QvWLT82XQu6ZUVhzhwH1Lj6trRbMOCDEUMHAw_FReHaFVzW00?></g></svg>