<svg xmlns="http://www.w3.org/2000/svg" xmlns:xlink="http://www.w3.org/1999/xlink" version="1.1" data-diagram-type="DESCRIPTION" style="width:367px;height:273px;background:#FFFFFF;" width="367px" height="273px" viewBox="0 0 367 273" zoomAndPan="magnify" preserveAspectRatio="none" contentStyleType="text/css"><?plantuml $version$?><defs/><g><!--entity comp1--><g class="entity" data-qualified-name="comp1" id="ent0001" data-source-line="1"><rect x="134.42" y="111" width="82" height="44" fill="#F1F1F1" style="stroke:#181818;stroke-width:0.5;" rx="2.5" ry="2.5"/><rect x="196.42" y="116" width="15" height="10" fill="#F1F1F1" style="stroke:#181818;stroke-width:0.5;"/><rect x="194.42" y="118" width="4" height="2" fill="#F1F1F1" style="stroke:#181818;stroke-width:0.5;"/><rect x="194.42" y="122" width="4" height="2" fill="#F1F1F1" style="stroke:#181818;stroke-width:0.5;"/><text x="149.42" y="141.8889" fill="#000000" font-size="14" lengthAdjust="spacing" textLength="42" font-family="sans-serif">comp1</text></g><!--entity comp left--><g class="entity" data-qualified-name="comp left" id="ent0002" data-source-line="1"><rect x="7" y="111" width="92.85" height="44" fill="#F1F1F1" style="stroke:#181818;stroke-width:0.5;" rx="2.5" ry="2.5"/><rect x="79.85" y="116" width="15" height="10" fill="#F1F1F1" style="stroke:#181818;stroke-width:0.5;"/><rect x="77.85" y="118" width="4" height="2" fill="#F1F1F1" style="stroke:#181818;stroke-width:0.5;"/><rect x="77.85" y="122" width="4" height="2" fill="#F1F1F1" style="stroke:#181818;stroke-width:0.5;"/><text x="22" y="141.8889" fill="#000000" font-size="14" lengthAdjust="spacing" textLength="52.85" font-family="sans-serif">comp left</text></g><!--entity comp right--><g class="entity" data-qualified-name="comp right" id="ent0005" data-source-line="2"><rect x="251.71" y="111" width="101.425" height="44" fill="#F1F1F1" style="stroke:#181818;stroke-width:0.5;" rx="2.5" ry="2.5"/><rect x="333.135" y="116" width="15" height="10" fill="#F1F1F1" style="stroke:#181818;stroke-width:0.5;"/><rect x="331.135" y="118" width="4" height="2" fill="#F1F1F1" style="stroke:#181818;stroke-width:0.5;"/><rect x="331.135" y="122" width="4" height="2" fill="#F1F1F1" style="stroke:#181818;stroke-width:0.5;"/><text x="266.71" y="141.8889" fill="#000000" font-size="14" lengthAdjust="spacing" textLength="61.425" font-family="sans-serif">comp right</text></g><!--entity comp up--><g class="entity" data-qualified-name="comp up" id="ent0007" data-source-line="3"><rect x="130.53" y="7" width="89.7875" height="44" fill="#F1F1F1" style="stroke:#181818;stroke-width:0.5;" rx="2.5" ry="2.5"/><rect x="200.3175" y="12" width="15" height="10" fill="#F1F1F1" style="stroke:#181818;stroke-width:0.5;"/><rect x="198.3175" y="14" width="4" height="2" fill="#F1F1F1" style="stroke:#181818;stroke-width:0.5;"/><rect x="198.3175" y="18" width="4" height="2" fill="#F1F1F1" style="stroke:#181818;stroke-width:0.5;"/><text x="145.53" y="37.8889" fill="#000000" font-size="14" lengthAdjust="spacing" textLength="49.7875" font-family="sans-serif">comp up</text></g><!--entity comp down--><g class="entity" data-qualified-name="comp down" id="ent0010" data-source-line="4"><rect x="121.56" y="215" width="107.725" height="44" fill="#F1F1F1" style="stroke:#181818;stroke-width:0.5;" rx="2.5" ry="2.5"/><rect x="209.285" y="220" width="15" height="10" fill="#F1F1F1" style="stroke:#181818;stroke-width:0.5;"/><rect x="207.285" y="222" width="4" height="2" fill="#F1F1F1" style="stroke:#181818;stroke-width:0.5;"/><rect x="207.285" y="226" width="4" height="2" fill="#F1F1F1" style="stroke:#181818;stroke-width:0.5;"/><text x="136.56" y="245.8889" fill="#000000" font-size="14" lengthAdjust="spacing" textLength="67.725" font-family="sans-serif">comp down</text></g><!--reverse link comp left to comp1--><g class="link" data-entity-1="ent0002" data-entity-2="ent0001" id="lnk4" data-source-line="1" data-link-type="dependency"><path d="M105.13,133 C116.4,133 122.68,133 133.95,133" style="stroke:#181818;stroke-width:1;" fill="none" id="comp left-backto-comp1"/><polygon points="100.13,133,109.13,137,105.13,133,109.13,129,100.13,133" fill="#181818" style="stroke:#181818;stroke-width:1;stroke-linejoin:miter;stroke-miterlimit:10;"/></g><!--link comp1 to comp right--><g class="link" data-entity-1="ent0001" data-entity-2="ent0005" id="lnk6" data-source-line="2" data-link-type="dependency"><path d="M216.6,133 C228.22,133 234.84,133 246.47,133" style="stroke:#181818;stroke-width:1;" fill="none" id="comp1-to-comp right"/><polygon points="251.47,133,242.47,129,246.47,133,242.47,137,251.47,133" fill="#181818" style="stroke:#181818;stroke-width:1;stroke-linejoin:miter;stroke-miterlimit:10;"/></g><!--reverse link comp up to comp1--><g class="link" data-entity-1="ent0007" data-entity-2="ent0001" id="lnk9" data-source-line="3" data-link-type="dependency"><path d="M175.42,56.13 C175.42,73.52 175.42,93.06 175.42,110.54" style="stroke:#181818;stroke-width:1;" fill="none" id="comp up-backto-comp1"/><polygon points="175.42,51.13,171.42,60.13,175.42,56.13,179.42,60.13,175.42,51.13" fill="#181818" style="stroke:#181818;stroke-width:1;stroke-linejoin:miter;stroke-miterlimit:10;"/></g><!--link comp1 to comp down--><g class="link" data-entity-1="ent0001" data-entity-2="ent0010" id="lnk11" data-source-line="4" data-link-type="dependency"><path d="M175.42,155.13 C175.42,172.52 175.42,192.06 175.42,209.54" style="stroke:#181818;stroke-width:1;" fill="none" id="comp1-to-comp down"/><polygon points="175.42,214.54,179.42,205.54,175.42,209.54,171.42,205.54,175.42,214.54" fill="#181818" style="stroke:#181818;stroke-width:1;stroke-linejoin:miter;stroke-miterlimit:10;"/></g><?plantuml-src YqxEpoqmZ5NGpT6rKuW6SHHoKjDAOhcYOH95S8cYpFGCP9bIk4nf0P9m2bmu9RyyBnO0?></g></svg>