<svg xmlns="http://www.w3.org/2000/svg" xmlns:xlink="http://www.w3.org/1999/xlink" version="1.1" data-diagram-type="CLASS" style="width:79px;height:188px;background:#FFFFFF;" width="79px" height="188px" viewBox="0 0 79 188" zoomAndPan="magnify" preserveAspectRatio="none" contentStyleType="text/css"><?plantuml $version$?><defs/><g><!--class C--><g class="entity" data-qualified-name="C" id="ent0001" data-source-line="1"><rect x="7" y="7" width="59.5125" height="168" fill="#F1F1F1" style="stroke:#181818;stroke-width:0.5;" rx="2.5" ry="2.5"/><ellipse cx="29.8131" cy="23" rx="11" ry="11" fill="#ADD1B2" style="stroke:#181818;stroke-width:1;"/><path d="M32.2863,29.1431 Q31.7052,29.4419 31.0661,29.5913 Q30.4269,29.7407 29.7213,29.7407 Q27.2145,29.7407 25.8947,28.0889 Q24.5748,26.437 24.5748,23.3159 Q24.5748,20.1865 25.8947,18.5347 Q27.2145,16.8828 29.7213,16.8828 Q30.4269,16.8828 31.0744,17.0322 Q31.7218,17.1816 32.2863,17.4805 L32.2863,20.2031 Q31.6554,19.6221 31.0619,19.3523 Q30.4684,19.0825 29.8375,19.0825 Q28.4928,19.0825 27.808,20.1492 Q27.1232,21.2158 27.1232,23.3159 Q27.1232,25.4077 27.808,26.4744 Q28.4928,27.541 29.8375,27.541 Q30.4684,27.541 31.0619,27.2712 Q31.6554,27.0015 32.2863,26.4204 Z " fill="#000000"/><text x="45.5494" y="26.8889" fill="#000000" font-size="14" lengthAdjust="spacing" textLength="10.15" font-family="sans-serif">C</text><line x1="8" y1="39" x2="65.5125" y2="39" style="stroke:#181818;stroke-width:0.5;"/><g data-visibility-modifier="PRIVATE_FIELD"><rect x="15" y="66.5" width="6" height="6" fill="none" style="stroke:#C82930;stroke-width:1;"/></g><text x="27" y="71.8889" fill="#000000" font-size="14" lengthAdjust="spacing" textLength="33.5125" font-family="sans-serif">field1</text><line x1="8" y1="54" x2="23.15" y2="54" style="stroke:#181818;stroke-width:1;"/><text x="23.15" y="57.3889" fill="#000000" font-size="14" lengthAdjust="spacing" textLength="27.2125" font-family="sans-serif">foo1</text><line x1="50.3625" y1="54" x2="65.5125" y2="54" style="stroke:#181818;stroke-width:1;"/><g data-visibility-modifier="PRIVATE_FIELD"><rect x="15" y="98.5" width="6" height="6" fill="none" style="stroke:#C82930;stroke-width:1;"/></g><text x="27" y="103.8889" fill="#000000" font-size="14" lengthAdjust="spacing" textLength="33.5125" font-family="sans-serif">field2</text><line x1="8" y1="86" x2="23.15" y2="86" style="stroke:#181818;stroke-width:1;"/><text x="23.15" y="89.3889" fill="#000000" font-size="14" lengthAdjust="spacing" textLength="27.2125" font-family="sans-serif">foo1</text><line x1="50.3625" y1="86" x2="65.5125" y2="86" style="stroke:#181818;stroke-width:1;"/><g data-visibility-modifier="PRIVATE_FIELD"><rect x="15" y="130.5" width="6" height="6" fill="none" style="stroke:#C82930;stroke-width:1;"/></g><text x="27" y="135.8889" fill="#000000" font-size="14" lengthAdjust="spacing" textLength="33.5125" font-family="sans-serif">field3</text><line x1="8" y1="118" x2="23.15" y2="118" style="stroke:#181818;stroke-width:1;"/><text x="23.15" y="121.3889" fill="#000000" font-size="14" lengthAdjust="spacing" textLength="27.2125" font-family="sans-serif">foo1</text><line x1="50.3625" y1="118" x2="65.5125" y2="118" style="stroke:#181818;stroke-width:1;"/><g data-visibility-modifier="PRIVATE_FIELD"><rect x="15" y="162.5" width="6" height="6" fill="none" style="stroke:#C82930;stroke-width:1;"/></g><text x="27" y="167.8889" fill="#000000" font-size="14" lengthAdjust="spacing" textLength="33.5125" font-family="sans-serif">field4</text><line x1="8" y1="150" x2="23.15" y2="150" style="stroke:#181818;stroke-width:1;"/><text x="23.15" y="153.3889" fill="#000000" font-size="14" lengthAdjust="spacing" textLength="27.2125" font-family="sans-serif">foo1</text><line x1="50.3625" y1="150" x2="65.5125" y2="150" style="stroke:#181818;stroke-width:1;"/></g><?plantuml-src Iyv9B2vMS5QevjBLLKZBppTKqDNb0h8oKtDI3B686M4HCyOYPi9L2m00?></g></svg>