<svg xmlns="http://www.w3.org/2000/svg" xmlns:xlink="http://www.w3.org/1999/xlink" version="1.1" data-diagram-type="CLASS" style="width:78px;height:66px;background:#FFFFFF;" width="78px" height="66px" viewBox="0 0 78 66" zoomAndPan="magnify" preserveAspectRatio="none" contentStyleType="text/css"><?plantuml $version$?><defs/><g><!--class Toto--><g class="entity" data-qualified-name="Toto" id="ent0001" data-source-line="2"><rect x="7" y="7" width="58" height="46" fill="#F1F1F1" style="stroke:#181818;stroke-width:0.5;" rx="2.5" ry="2.5"/><ellipse cx="21" cy="22" rx="10" ry="10" fill="#ADD1B2" style="stroke:#181818;stroke-width:1;"/><path d="M23.4731,28.1431 Q22.8921,28.4419 22.2529,28.5913 Q21.6138,28.7407 20.9082,28.7407 Q18.4014,28.7407 17.0815,27.0889 Q15.7617,25.437 15.7617,22.3159 Q15.7617,19.1865 17.0815,17.5347 Q18.4014,15.8828 20.9082,15.8828 Q21.6138,15.8828 22.2612,16.0322 Q22.9087,16.1816 23.4731,16.4805 L23.4731,19.2031 Q22.8423,18.6221 22.2488,18.3523 Q21.6553,18.0825 21.0244,18.0825 Q19.6797,18.0825 18.9949,19.1492 Q18.3101,20.2158 18.3101,22.3159 Q18.3101,24.4077 18.9949,25.4744 Q19.6797,26.541 21.0244,26.541 Q21.6553,26.541 22.2488,26.2712 Q22.8423,26.0015 23.4731,25.4204 Z " fill="#000000"/><text x="34" y="25.8889" fill="#000000" font-size="14" lengthAdjust="spacing" textLength="28" font-family="sans-serif">Toto</text><line x1="8" y1="37" x2="64" y2="37" style="stroke:#181818;stroke-width:0.5;"/><line x1="8" y1="45" x2="64" y2="45" style="stroke:#181818;stroke-width:0.5;"/></g><?plantuml-src AyxEp2j8B4hCLN3EB4hEIKrnpW3oaajIYu8IKp9BYnKC3RYISnABYnL2yalo0G00?></g></svg>