<svg xmlns="http://www.w3.org/2000/svg" xmlns:xlink="http://www.w3.org/1999/xlink" version="1.1" data-diagram-type="STATE" style="width:182px;height:426px;background:#FFFFFF;" width="182px" height="426px" viewBox="0 0 182 426" zoomAndPan="magnify" preserveAspectRatio="none" contentStyleType="text/css"><?plantuml $version$?><defs/><g><g class="entity" data-qualified-name="Big" id="ent0001" data-source-line="4"><path d="M19.5,7 L80.5,7 A12.5,12.5 0 0 1 93,19.5 L93,31 L7,31 L7,19.5 A12.5,12.5 0 0 1 19.5,7" fill="#F1F1F1"/><rect x="7" y="7" width="86" height="185" fill="none" style="stroke:#181818;stroke-width:0.5;" rx="12.5" ry="12.5"/><line x1="7" y1="31" x2="93" y2="31" style="stroke:#181818;stroke-width:0.5;"/><text x="39.85" y="22.8889" fill="#000000" font-size="14" lengthAdjust="spacing" textLength="20.3" font-family="sans-serif">Big</text><g class="entity" data-qualified-name="Big.b1" id="ent0007" data-source-line="5"><rect x="19" y="43" width="50" height="50" fill="#F1F1F1" style="stroke:#181818;stroke-width:0.5;" rx="12.5" ry="12.5"/><line x1="19" y1="67" x2="69" y2="67" style="stroke:#181818;stroke-width:0.5;"/><text x="36.2125" y="58.8889" fill="#000000" font-size="14" lengthAdjust="spacing" textLength="15.575" font-family="sans-serif">b1</text></g><g class="entity" data-qualified-name="Big.b2" id="ent0008" data-source-line="5"><rect x="19" y="129" width="50" height="50" fill="#F1F1F1" style="stroke:#181818;stroke-width:0.5;" rx="12.5" ry="12.5"/><line x1="19" y1="153" x2="69" y2="153" style="stroke:#181818;stroke-width:0.5;"/><text x="36.2125" y="144.8889" fill="#000000" font-size="14" lengthAdjust="spacing" textLength="15.575" font-family="sans-serif">b2</text></g><!--link b1 to b2--><g class="link" data-entity-1="ent0007" data-entity-2="ent0008" id="lnk9" data-source-line="5" data-link-type="dependency"><path d="M44,93.3 C44,104.44 44,112.62 44,123.76" style="stroke:#181818;stroke-width:1;" fill="none" id="b1-to-b2"/><polygon points="44,128.76,48,119.76,44,123.76,40,119.76,44,128.76" fill="#181818" style="stroke:#181818;stroke-width:1;stroke-linejoin:miter;stroke-miterlimit:10;"/></g></g><g class="start_entity" data-qualified-name=".start." id="ent0002" data-source-line="2"><ellipse cx="138" cy="99.5" rx="10" ry="10" fill="#222222" style="stroke:#222222;stroke-width:1;"/></g><g class="entity" data-qualified-name="Active" id="ent0003" data-source-line="2"><rect x="108.92" y="252" width="58.15" height="50" fill="#F1F1F1" style="stroke:#181818;stroke-width:0.5;" rx="12.5" ry="12.5"/><line x1="108.92" y1="276" x2="167.07" y2="276" style="stroke:#181818;stroke-width:0.5;"/><text x="118.92" y="267.8889" fill="#000000" font-size="14" lengthAdjust="spacing" textLength="38.15" font-family="sans-serif">Active</text></g><g class="entity" data-qualified-name="Other" id="ent0005" data-source-line="3"><rect x="110.54" y="362" width="54.9125" height="50" fill="#F1F1F1" style="stroke:#181818;stroke-width:0.5;" rx="12.5" ry="12.5"/><line x1="110.54" y1="386" x2="165.4525" y2="386" style="stroke:#181818;stroke-width:0.5;"/><text x="120.54" y="377.8889" fill="#000000" font-size="14" lengthAdjust="spacing" textLength="34.9125" font-family="sans-serif">Other</text></g><!--link *start* to Active--><g class="link" data-entity-1="ent0002" data-entity-2="ent0003" id="lnk4" data-source-line="2" data-link-type="dependency"><path d="M138,109.94 C138,136.49 138,207.49 138,246.8" style="stroke:#181818;stroke-width:1;" fill="none" id="*start*-to-Active"/><polygon points="138,251.8,142,242.8,138,246.8,134,242.8,138,251.8" fill="#181818" style="stroke:#181818;stroke-width:1;stroke-linejoin:miter;stroke-miterlimit:10;"/></g><!--link Active to Other--><g class="link" data-entity-1="ent0003" data-entity-2="ent0005" id="lnk6" data-source-line="3" data-link-type="dependency"><path d="M138,302.24 C138,320.02 138,339.08 138,356.84" style="stroke:#181818;stroke-width:1;" fill="none" id="Active-to-Other"/><polygon points="138,361.84,142,352.84,138,356.84,134,352.84,138,361.84" fill="#181818" style="stroke:#181818;stroke-width:1;stroke-linejoin:miter;stroke-miterlimit:10;"/></g><?plantuml-src YzQALT3LjLDmJ2x9B4lbWb1W4V-IZDGYhkAIn99K1QVCT8MarFJCFAuaGx1aaX5NQbuAM98B0000?></g></svg>