<svg xmlns="http://www.w3.org/2000/svg" xmlns:xlink="http://www.w3.org/1999/xlink" version="1.1" data-diagram-type="CLASS" style="width:304px;height:84px;background:#FFFFFF;" width="304px" height="84px" viewBox="0 0 304 84" zoomAndPan="magnify" preserveAspectRatio="none" contentStyleType="text/css"><?plantuml $version$?><defs/><g><!--class classA--><g class="entity" data-qualified-name="classA" id="ent0001" data-source-line="4"><rect x="7" y="7" width="123.9125" height="62" fill="#F1F1F1" style="stroke:#181818;stroke-width:0.5;" rx="2.5" ry="2.5"/><ellipse cx="44.7756" cy="23" rx="11" ry="11" fill="#ADD1B2" style="stroke:#181818;stroke-width:1;"/><path d="M47.2488,29.1431 Q46.6677,29.4419 46.0286,29.5913 Q45.3894,29.7407 44.6838,29.7407 Q42.177,29.7407 40.8572,28.0889 Q39.5373,26.437 39.5373,23.3159 Q39.5373,20.1865 40.8572,18.5347 Q42.177,16.8828 44.6838,16.8828 Q45.3894,16.8828 46.0369,17.0322 Q46.6843,17.1816 47.2488,17.4805 L47.2488,20.2031 Q46.6179,19.6221 46.0244,19.3523 Q45.4309,19.0825 44.8,19.0825 Q43.4553,19.0825 42.7705,20.1492 Q42.0857,21.2158 42.0857,23.3159 Q42.0857,25.4077 42.7705,26.4744 Q43.4553,27.541 44.8,27.541 Q45.4309,27.541 46.0244,27.2712 Q46.6179,27.0015 47.2488,26.4204 Z " fill="#000000"/><text x="63.8369" y="26.8889" fill="#000000" font-size="14" lengthAdjust="spacing" textLength="41.3" font-family="sans-serif">classA</text><line x1="8" y1="39" x2="129.9125" y2="39" style="stroke:#181818;stroke-width:0.5;"/><line x1="8" y1="47" x2="129.9125" y2="47" style="stroke:#181818;stroke-width:0.5;"/><text x="13" y="61.8889" fill="#000000" font-size="14" lengthAdjust="spacing" textLength="111.9125" font-family="sans-serif">testMethodCode()</text></g><!--class classB--><g class="entity" data-qualified-name="classB" id="ent0002" data-source-line="8"><rect x="166" y="7" width="123.9125" height="62" fill="#FF0000" style="stroke:#181818;stroke-width:0.5;" rx="2.5" ry="2.5"/><ellipse cx="203.7756" cy="23" rx="11" ry="11" fill="#ADD1B2" style="stroke:#181818;stroke-width:1;"/><path d="M206.2488,29.1431 Q205.6677,29.4419 205.0286,29.5913 Q204.3894,29.7407 203.6838,29.7407 Q201.177,29.7407 199.8572,28.0889 Q198.5373,26.437 198.5373,23.3159 Q198.5373,20.1865 199.8572,18.5347 Q201.177,16.8828 203.6838,16.8828 Q204.3894,16.8828 205.0369,17.0322 Q205.6843,17.1816 206.2488,17.4805 L206.2488,20.2031 Q205.6179,19.6221 205.0244,19.3523 Q204.4309,19.0825 203.8,19.0825 Q202.4553,19.0825 201.7705,20.1492 Q201.0857,21.2158 201.0857,23.3159 Q201.0857,25.4077 201.7705,26.4744 Q202.4553,27.541 203.8,27.541 Q204.4309,27.541 205.0244,27.2712 Q205.6179,27.0015 206.2488,26.4204 Z " fill="#000000"/><text x="222.8369" y="26.8889" fill="#000000" font-size="14" lengthAdjust="spacing" textLength="41.3" font-family="sans-serif">classB</text><line x1="167" y1="39" x2="288.9125" y2="39" style="stroke:#181818;stroke-width:0.5;"/><line x1="167" y1="47" x2="288.9125" y2="47" style="stroke:#181818;stroke-width:0.5;"/><text x="172" y="61.8889" fill="#000000" font-size="14" lengthAdjust="spacing" textLength="111.9125" font-family="sans-serif">testMethodCode()</text></g><?plantuml-src ioakgSn9jUEoqOSok99p4ekB5S2aeq8rLqbgSOblQab6VefpVaggXgO2573LeYXrKb1ECp30hPwh5W00?></g></svg>