<svg xmlns="http://www.w3.org/2000/svg" xmlns:xlink="http://www.w3.org/1999/xlink" version="1.1" data-diagram-type="STATE" style="width:73px;height:181px;background:#FFFFFF;" width="73px" height="181px" viewBox="0 0 73 181" zoomAndPan="magnify" preserveAspectRatio="none" contentStyleType="text/css"><?plantuml $version$?><defs/><g><g class="entity" data-qualified-name="Alice" id="ent0001" data-source-line="2"><rect x="7.2007" y="7" width="50.45" height="50" fill="#F1F1F1" style="stroke:#181818;stroke-width:0.5;" rx="12.5" ry="12.5"/><line x1="7.2007" y1="31" x2="57.6507" y2="31" style="stroke:#181818;stroke-width:0.5;"/><text x="17.2007" y="22.8889" fill="#000000" font-size="14" lengthAdjust="spacing" textLength="30.45" font-family="sans-serif">Alice</text></g><g class="entity" data-qualified-name="Bob" id="ent0002" data-source-line="3"><rect x="7.4307" y="117" width="50" height="50" fill="#F1F1F1" style="stroke:#181818;stroke-width:0.5;" rx="12.5" ry="12.5"/><line x1="7.4307" y1="141" x2="57.4307" y2="141" style="stroke:#181818;stroke-width:0.5;"/><text x="19.9619" y="132.8889" fill="#000000" font-size="14" lengthAdjust="spacing" textLength="24.9375" font-family="sans-serif">Bob</text></g><!--link Alice to Bob--><g class="link" data-entity-1="ent0001" data-entity-2="ent0002" id="lnk3" data-source-line="3" data-link-type="dependency"><path d="M21.2607,57.24 C18.6407,75.02 17.9209,94.1335 20.5409,111.8935" style="stroke:#181818;stroke-width:1;" fill="none" id="Alice-to-Bob"/><polygon points="21.2707,116.84,23.9143,107.3526,20.5409,111.8935,16,108.5201,21.2707,116.84" fill="#181818" style="stroke:#181818;stroke-width:1;stroke-linejoin:miter;stroke-miterlimit:10;"/></g><!--link Bob to Alice--><g class="link" data-entity-1="ent0002" data-entity-2="ent0001" id="lnk4" data-source-line="4" data-link-type="dependency"><path d="M43.5807,116.84 C46.2007,99.08 46.9396,79.9666 44.3196,62.1866" style="stroke:#181818;stroke-width:1;" fill="none" id="Bob-to-Alice"/><polygon points="43.5907,57.24,40.9454,66.727,44.3196,62.1866,48.86,65.5607,43.5907,57.24" fill="#181818" style="stroke:#181818;stroke-width:1;stroke-linejoin:miter;stroke-miterlimit:10;"/></g><?plantuml-src Aov9B4bLSCp9J4xb0fCAkdOAJlb9N42ie0jaGwG0?></g></svg>