<svg xmlns="http://www.w3.org/2000/svg" xmlns:xlink="http://www.w3.org/1999/xlink" version="1.1" data-diagram-type="CLASS" style="width:169px;height:96px;background:#FFFFFF;" width="169px" height="96px" viewBox="0 0 169 96" zoomAndPan="magnify" preserveAspectRatio="none" contentStyleType="text/css"><?plantuml $version$?><defs/><g><!--class house--><g class="entity" data-qualified-name="house" id="ent0001" data-source-line="4"><rect x="7" y="7" width="149.725" height="76" fill="#F1F1F1" style="stroke:#181818;stroke-width:0.5;" rx="2.5" ry="2.5"/><ellipse cx="58.5375" cy="23" rx="11" ry="11" fill="#ADD1B2" style="stroke:#181818;stroke-width:1;"/><path d="M61.0106,29.1431 Q60.4296,29.4419 59.7904,29.5913 Q59.1513,29.7407 58.4457,29.7407 Q55.9389,29.7407 54.619,28.0889 Q53.2992,26.437 53.2992,23.3159 Q53.2992,20.1865 54.619,18.5347 Q55.9389,16.8828 58.4457,16.8828 Q59.1513,16.8828 59.7987,17.0322 Q60.4462,17.1816 61.0106,17.4805 L61.0106,20.2031 Q60.3798,19.6221 59.7863,19.3523 Q59.1928,19.0825 58.5619,19.0825 Q57.2172,19.0825 56.5324,20.1492 Q55.8476,21.2158 55.8476,23.3159 Q55.8476,25.4077 56.5324,26.4744 Q57.2172,27.541 58.5619,27.541 Q59.1928,27.541 59.7863,27.2712 Q60.3798,27.0015 61.0106,26.4204 Z " fill="#000000"/><text x="79.0375" y="26.8889" fill="#000000" font-size="14" lengthAdjust="spacing" textLength="38.15" font-family="sans-serif">house</text><line x1="8" y1="39" x2="155.725" y2="39" style="stroke:#181818;stroke-width:0.5;"/><text x="13" y="53.8889" fill="#000000" font-size="14" lengthAdjust="spacing" textLength="71.6625" font-family="sans-serif">called_foo1</text><text x="13" y="67.8889" fill="#000000" font-size="14" lengthAdjust="spacing" textLength="137.725" font-family="sans-serif">called_foo2 my_param</text><line x1="8" y1="75" x2="155.725" y2="75" style="stroke:#181818;stroke-width:0.5;"/></g><?plantuml-src Kqn9JSlCIrL8oyzNI4xCoKbDYGSo3RaK4U8Q1Ob5YRcQID962c0XBgxadCJYOeMC_DBYL8LgBg0C26laLiP3j73L0W00?></g></svg>