<svg xmlns="http://www.w3.org/2000/svg" xmlns:xlink="http://www.w3.org/1999/xlink" version="1.1" data-diagram-type="CLASS" style="width:183px;height:70px;background:#FFFFFF;" width="183px" height="70px" viewBox="0 0 183 70" zoomAndPan="magnify" preserveAspectRatio="none" contentStyleType="text/css"><?plantuml $version$?><defs/><g><!--class toto1--><g class="entity" data-qualified-name="toto1" id="ent0001" data-source-line="1"><rect x="7" y="7" width="63.0625" height="48" fill="#F1F1F1" style="stroke:#181818;stroke-width:0.5;" rx="2.5" ry="2.5"/><ellipse cx="22" cy="23" rx="11" ry="11" fill="#ADD1B2" style="stroke:#181818;stroke-width:1;"/><path d="M24.4731,29.1431 Q23.8921,29.4419 23.2529,29.5913 Q22.6138,29.7407 21.9082,29.7407 Q19.4014,29.7407 18.0815,28.0889 Q16.7617,26.437 16.7617,23.3159 Q16.7617,20.1865 18.0815,18.5347 Q19.4014,16.8828 21.9082,16.8828 Q22.6138,16.8828 23.2612,17.0322 Q23.9087,17.1816 24.4731,17.4805 L24.4731,20.2031 Q23.8423,19.6221 23.2488,19.3523 Q22.6553,19.0825 22.0244,19.0825 Q20.6797,19.0825 19.9949,20.1492 Q19.3101,21.2158 19.3101,23.3159 Q19.3101,25.4077 19.9949,26.4744 Q20.6797,27.541 22.0244,27.541 Q22.6553,27.541 23.2488,27.2712 Q23.8423,27.0015 24.4731,26.4204 Z " fill="#000000"/><text x="36" y="26.8889" fill="#000000" font-size="14" lengthAdjust="spacing" textLength="31.0625" font-family="sans-serif">toto1</text><line x1="8" y1="39" x2="69.0625" y2="39" style="stroke:#181818;stroke-width:0.5;"/><line x1="8" y1="47" x2="69.0625" y2="47" style="stroke:#181818;stroke-width:0.5;"/></g><!--class toto2--><g class="entity" data-qualified-name="toto2" id="ent0002" data-source-line="2"><rect x="105" y="7" width="63.0625" height="48" fill="#F1F1F1" style="stroke:#181818;stroke-width:0.5;" rx="2.5" ry="2.5"/><ellipse cx="120" cy="23" rx="11" ry="11" fill="#ADD1B2" style="stroke:#181818;stroke-width:1;"/><path d="M122.4731,29.1431 Q121.8921,29.4419 121.2529,29.5913 Q120.6138,29.7407 119.9082,29.7407 Q117.4014,29.7407 116.0815,28.0889 Q114.7617,26.437 114.7617,23.3159 Q114.7617,20.1865 116.0815,18.5347 Q117.4014,16.8828 119.9082,16.8828 Q120.6138,16.8828 121.2612,17.0322 Q121.9087,17.1816 122.4731,17.4805 L122.4731,20.2031 Q121.8423,19.6221 121.2488,19.3523 Q120.6553,19.0825 120.0244,19.0825 Q118.6797,19.0825 117.9949,20.1492 Q117.3101,21.2158 117.3101,23.3159 Q117.3101,25.4077 117.9949,26.4744 Q118.6797,27.541 120.0244,27.541 Q120.6553,27.541 121.2488,27.2712 Q121.8423,27.0015 122.4731,26.4204 Z " fill="#000000"/><text x="134" y="26.8889" fill="#000000" font-size="14" lengthAdjust="spacing" textLength="31.0625" font-family="sans-serif">toto2</text><line x1="106" y1="39" x2="167.0625" y2="39" style="stroke:#181818;stroke-width:0.5;"/><line x1="106" y1="47" x2="167.0625" y2="47" style="stroke:#181818;stroke-width:0.5;"/></g><?plantuml-src Syv9B0vMACaloJVaSeQpZQgvQW40?></g></svg>