<svg xmlns="http://www.w3.org/2000/svg" xmlns:xlink="http://www.w3.org/1999/xlink" version="1.1" data-diagram-type="CLASS" style="width:104px;height:206px;background:#FFFFFF;" width="104px" height="206px" viewBox="0 0 104 206" zoomAndPan="magnify" preserveAspectRatio="none" contentStyleType="text/css"><?plantuml $version$?><defs><style type="text/css"><![CDATA[path:hover { stroke: #008000 !important;}]]></style></defs><g><!--class Foo2--><g class="entity" data-qualified-name="Foo2" id="ent0001" data-source-line="2"><a target="_top" href="http://www.yahoo.com/Foo2" xlink:href="http://www.yahoo.com/Foo2" xlink:type="simple" xlink:actuate="onRequest" xlink:show="new" title="http://www.yahoo.com/Foo2" xlink:title="http://www.yahoo.com/Foo2"><rect x="7" y="7" width="82.7875" height="76" fill="#F1F1F1" style="stroke:#181818;stroke-width:0.5;" rx="2.5" ry="2.5"/><ellipse cx="30.4825" cy="23" rx="11" ry="11" fill="#ADD1B2" style="stroke:#181818;stroke-width:1;"/><path d="M32.9556,29.1431 Q32.3746,29.4419 31.7354,29.5913 Q31.0963,29.7407 30.3907,29.7407 Q27.8839,29.7407 26.564,28.0889 Q25.2442,26.437 25.2442,23.3159 Q25.2442,20.1865 26.564,18.5347 Q27.8839,16.8828 30.3907,16.8828 Q31.0963,16.8828 31.7437,17.0322 Q32.3912,17.1816 32.9556,17.4805 L32.9556,20.2031 Q32.3248,19.6221 31.7313,19.3523 Q31.1378,19.0825 30.5069,19.0825 Q29.1622,19.0825 28.4774,20.1492 Q27.7926,21.2158 27.7926,23.3159 Q27.7926,25.4077 28.4774,26.4744 Q29.1622,27.541 30.5069,27.541 Q31.1378,27.541 31.7313,27.2712 Q32.3248,27.0015 32.9556,26.4204 Z " fill="#000000"/><text x="46.3675" y="26.8889" fill="#000000" font-size="14" lengthAdjust="spacing" textLength="31.9375" font-family="sans-serif">Foo2</text><line x1="8" y1="39" x2="88.7875" y2="39" style="stroke:#181818;stroke-width:0.5;"/></a><a target="_top" href="http://www.yahoo.com/B1" xlink:href="http://www.yahoo.com/B1" xlink:type="simple" xlink:actuate="onRequest" xlink:show="new" title="http://www.yahoo.com/B1" xlink:title="http://www.yahoo.com/B1"><rect x="13" y="46.5" width="20" height="10" fill="#F1F1F1" style="stroke:none;stroke-width:1;"/></a><g data-visibility-modifier="PUBLIC_FIELD"><a target="_top" href="http://www.yahoo.com/B1" xlink:href="http://www.yahoo.com/B1" xlink:type="simple" xlink:actuate="onRequest" xlink:show="new" title="http://www.yahoo.com/B1" xlink:title="http://www.yahoo.com/B1"><ellipse cx="18" cy="51.5" rx="3" ry="3" fill="none" style="stroke:#038048;stroke-width:1;"/></a></g><a target="_top" href="http://www.yahoo.com/B1" xlink:href="http://www.yahoo.com/B1" xlink:type="simple" xlink:actuate="onRequest" xlink:show="new" title="http://www.yahoo.com/B1" xlink:title="http://www.yahoo.com/B1"><text x="27" y="53.8889" fill="#000000" font-size="14" lengthAdjust="spacing" textLength="56.7875" font-family="sans-serif">double[] x</text></a><a target="_top" href="http://www.yahoo.com/B2" xlink:href="http://www.yahoo.com/B2" xlink:type="simple" xlink:actuate="onRequest" xlink:show="new" title="http://www.yahoo.com/B2" xlink:title="http://www.yahoo.com/B2"><rect x="13" y="60.5" width="20" height="10" fill="#F1F1F1" style="stroke:none;stroke-width:1;"/></a><g data-visibility-modifier="PUBLIC_FIELD"><a target="_top" href="http://www.yahoo.com/B2" xlink:href="http://www.yahoo.com/B2" xlink:type="simple" xlink:actuate="onRequest" xlink:show="new" title="http://www.yahoo.com/B2" xlink:title="http://www.yahoo.com/B2"><ellipse cx="18" cy="65.5" rx="3" ry="3" fill="none" style="stroke:#038048;stroke-width:1;"/></a></g><a target="_top" href="http://www.yahoo.com/B2" xlink:href="http://www.yahoo.com/B2" xlink:type="simple" xlink:actuate="onRequest" xlink:show="new" title="http://www.yahoo.com/B2" xlink:title="http://www.yahoo.com/B2"><text x="27" y="67.8889" fill="#000000" font-size="14" lengthAdjust="spacing" textLength="49.0875" font-family="sans-serif">double y</text></a><a target="_top" href="http://www.yahoo.com/Foo2" xlink:href="http://www.yahoo.com/Foo2" xlink:type="simple" xlink:actuate="onRequest" xlink:show="new" title="http://www.yahoo.com/Foo2" xlink:title="http://www.yahoo.com/Foo2"><line x1="8" y1="75" x2="88.7875" y2="75" style="stroke:#181818;stroke-width:0.5;"/></a></g><!--class Foo3--><g class="entity" data-qualified-name="Foo3" id="ent0002" data-source-line="6"><rect x="16.42" y="143" width="63.9375" height="48" fill="#F1F1F1" style="stroke:#181818;stroke-width:0.5;" rx="2.5" ry="2.5"/><ellipse cx="31.42" cy="159" rx="11" ry="11" fill="#ADD1B2" style="stroke:#181818;stroke-width:1;"/><path d="M33.8931,165.1431 Q33.3121,165.4419 32.6729,165.5913 Q32.0338,165.7407 31.3282,165.7407 Q28.8214,165.7407 27.5015,164.0889 Q26.1817,162.437 26.1817,159.3159 Q26.1817,156.1865 27.5015,154.5347 Q28.8214,152.8828 31.3282,152.8828 Q32.0338,152.8828 32.6812,153.0322 Q33.3287,153.1816 33.8931,153.4805 L33.8931,156.2031 Q33.2623,155.6221 32.6688,155.3523 Q32.0753,155.0825 31.4444,155.0825 Q30.0997,155.0825 29.4149,156.1492 Q28.7301,157.2158 28.7301,159.3159 Q28.7301,161.4077 29.4149,162.4744 Q30.0997,163.541 31.4444,163.541 Q32.0753,163.541 32.6688,163.2712 Q33.2623,163.0015 33.8931,162.4204 Z " fill="#000000"/><text x="45.42" y="162.8889" fill="#000000" font-size="14" lengthAdjust="spacing" textLength="31.9375" font-family="sans-serif">Foo3</text><line x1="17.42" y1="175" x2="79.3575" y2="175" style="stroke:#181818;stroke-width:0.5;"/><line x1="17.42" y1="183" x2="79.3575" y2="183" style="stroke:#181818;stroke-width:0.5;"/></g><!--link Foo2 to Foo3--><g class="link" data-entity-1="ent0001" data-entity-2="ent0002" id="lnk3" data-source-line="6" data-link-type="dependency"><path d="M48.39,83.31 C48.39,102.71 48.39,120.83 48.39,137.68" style="stroke:#181818;stroke-width:1;" fill="none" id="Foo2-to-Foo3" codeLine="6"/><polygon points="48.39,142.68,52.39,133.68,48.39,137.68,44.39,133.68,48.39,142.68" fill="#181818" style="stroke:#181818;stroke-width:1;stroke-linejoin:miter;stroke-miterlimit:10;"/></g><?plantuml-src AyxEp2j8B4hCLIX8BCdmo2zBBNBEpyalKaWlIatDuqhEIImkLd3BppTIY8xEA2afiDBNBoylrwjCpCZFrqlEpzK7oSN6AbHpAIXef-IN9kMaHiSgL01LOrVkP1WR6ujGgr29MwKHI6Kj5zXoNLqxa2kC0G00?></g></svg>