<svg xmlns="http://www.w3.org/2000/svg" xmlns:xlink="http://www.w3.org/1999/xlink" version="1.1" data-diagram-type="CLASS" style="width:97px;height:314px;background:#FFFFFF;" width="97px" height="314px" viewBox="0 0 97 314" zoomAndPan="magnify" preserveAspectRatio="none" contentStyleType="text/css"><?plantuml $version$?><defs/><g><!--class cl1--><g class="entity" data-qualified-name="cl1" id="ent0001" data-source-line="1"><rect x="7" y="7" width="75.7" height="76" fill="#F1F1F1" style="stroke:#181818;stroke-width:0.5;" rx="2.5" ry="2.5"/><ellipse cx="33.5931" cy="23" rx="11" ry="11" fill="#ADD1B2" style="stroke:#181818;stroke-width:1;"/><path d="M36.0663,29.1431 Q35.4852,29.4419 34.8461,29.5913 Q34.2069,29.7407 33.5013,29.7407 Q30.9945,29.7407 29.6747,28.0889 Q28.3548,26.437 28.3548,23.3159 Q28.3548,20.1865 29.6747,18.5347 Q30.9945,16.8828 33.5013,16.8828 Q34.2069,16.8828 34.8544,17.0322 Q35.5018,17.1816 36.0663,17.4805 L36.0663,20.2031 Q35.4354,19.6221 34.8419,19.3523 Q34.2484,19.0825 33.6175,19.0825 Q32.2728,19.0825 31.588,20.1492 Q30.9032,21.2158 30.9032,23.3159 Q30.9032,25.4077 31.588,26.4744 Q32.2728,27.541 33.6175,27.541 Q34.2484,27.541 34.8419,27.2712 Q35.4354,27.0015 36.0663,26.4204 Z " fill="#000000"/><text x="50.1694" y="26.8889" fill="#000000" font-size="14" lengthAdjust="spacing" textLength="17.9375" font-family="sans-serif">cl1</text><line x1="8" y1="39" x2="81.7" y2="39" style="stroke:#181818;stroke-width:0.5;"/><text x="13" y="53.8889" fill="#000000" font-size="14" lengthAdjust="spacing" textLength="33.5125" font-family="sans-serif">field1</text><line x1="8" y1="61" x2="81.7" y2="61" style="stroke:#181818;stroke-width:0.5;"/><text x="13" y="75.8889" fill="#000000" font-size="14" lengthAdjust="spacing" textLength="63.7" font-family="sans-serif">method1()</text></g><!--class cl2--><g class="entity" data-qualified-name="cl2" id="ent0002" data-source-line="5"><rect x="19.88" y="143" width="49.9375" height="48" fill="#F1F1F1" style="stroke:#181818;stroke-width:0.5;" rx="2.5" ry="2.5"/><ellipse cx="34.88" cy="159" rx="11" ry="11" fill="#ADD1B2" style="stroke:#181818;stroke-width:1;"/><path d="M37.3531,165.1431 Q36.7721,165.4419 36.1329,165.5913 Q35.4938,165.7407 34.7882,165.7407 Q32.2814,165.7407 30.9615,164.0889 Q29.6417,162.437 29.6417,159.3159 Q29.6417,156.1865 30.9615,154.5347 Q32.2814,152.8828 34.7882,152.8828 Q35.4938,152.8828 36.1412,153.0322 Q36.7887,153.1816 37.3531,153.4805 L37.3531,156.2031 Q36.7223,155.6221 36.1288,155.3523 Q35.5353,155.0825 34.9044,155.0825 Q33.5597,155.0825 32.8749,156.1492 Q32.1901,157.2158 32.1901,159.3159 Q32.1901,161.4077 32.8749,162.4744 Q33.5597,163.541 34.9044,163.541 Q35.5353,163.541 36.1288,163.2712 Q36.7223,163.0015 37.3531,162.4204 Z " fill="#000000"/><text x="48.88" y="162.8889" fill="#000000" font-size="14" lengthAdjust="spacing" textLength="17.9375" font-family="sans-serif">cl2</text><line x1="20.88" y1="175" x2="68.8175" y2="175" style="stroke:#181818;stroke-width:0.5;"/><line x1="20.88" y1="183" x2="68.8175" y2="183" style="stroke:#181818;stroke-width:0.5;"/></g><!--class cl3--><g class="entity" data-qualified-name="cl3" id="ent0004" data-source-line="6"><rect x="19.88" y="251" width="49.9375" height="48" fill="#F1F1F1" style="stroke:#181818;stroke-width:0.5;" rx="2.5" ry="2.5"/><ellipse cx="34.88" cy="267" rx="11" ry="11" fill="#ADD1B2" style="stroke:#181818;stroke-width:1;"/><path d="M37.3531,273.1431 Q36.7721,273.4419 36.1329,273.5913 Q35.4938,273.7407 34.7882,273.7407 Q32.2814,273.7407 30.9615,272.0889 Q29.6417,270.437 29.6417,267.3159 Q29.6417,264.1865 30.9615,262.5347 Q32.2814,260.8828 34.7882,260.8828 Q35.4938,260.8828 36.1412,261.0322 Q36.7887,261.1816 37.3531,261.4805 L37.3531,264.2031 Q36.7223,263.6221 36.1288,263.3523 Q35.5353,263.0825 34.9044,263.0825 Q33.5597,263.0825 32.8749,264.1492 Q32.1901,265.2158 32.1901,267.3159 Q32.1901,269.4077 32.8749,270.4744 Q33.5597,271.541 34.9044,271.541 Q35.5353,271.541 36.1288,271.2712 Q36.7223,271.0015 37.3531,270.4204 Z " fill="#000000"/><text x="48.88" y="270.8889" fill="#000000" font-size="14" lengthAdjust="spacing" textLength="17.9375" font-family="sans-serif">cl3</text><line x1="20.88" y1="283" x2="68.8175" y2="283" style="stroke:#181818;stroke-width:0.5;"/><line x1="20.88" y1="291" x2="68.8175" y2="291" style="stroke:#181818;stroke-width:0.5;"/></g><!--link cl1 to cl2--><g class="link" data-entity-1="ent0001" data-entity-2="ent0002" id="lnk3" data-source-line="5" data-link-type="association"><path d="M44.85,83.31 C44.85,102.71 44.85,125.83 44.85,142.68" style="stroke:#181818;stroke-width:1;" fill="none" id="cl1-cl2" codeLine="5"/></g><!--link cl2 to cl3--><g class="link" data-entity-1="ent0002" data-entity-2="ent0004" id="lnk5" data-source-line="6" data-link-type="association"><path d="M44.85,191.26 C44.85,208.94 44.85,233.13 44.85,250.79" style="stroke:#181818;stroke-width:1;" fill="none" id="cl2-cl3" codeLine="6"/></g><?plantuml-src Iyv9B2vMICunLAZcubH8oqpDIJ7aKb38JIt9o4ynrD3agkK2IUhg0jKO0Pb64AOn0000?></g></svg>