<svg xmlns="http://www.w3.org/2000/svg" xmlns:xlink="http://www.w3.org/1999/xlink" version="1.1" data-diagram-type="CLASS" style="width:166px;height:178px;background:#FFFFFF;" width="166px" height="178px" viewBox="0 0 166 178" zoomAndPan="magnify" preserveAspectRatio="none" contentStyleType="text/css"><?plantuml $version$?><defs/><g><!--class Mother--><g class="entity" data-qualified-name="Mother" id="ent0001" data-source-line="2"><rect x="42.33" y="7" width="75.4875" height="48" fill="#F1F1F1" style="stroke:#181818;stroke-width:0.5;" rx="2.5" ry="2.5"/><ellipse cx="57.33" cy="23" rx="11" ry="11" fill="#ADD1B2" style="stroke:#181818;stroke-width:1;"/><path d="M59.8031,29.1431 Q59.2221,29.4419 58.5829,29.5913 Q57.9438,29.7407 57.2382,29.7407 Q54.7314,29.7407 53.4115,28.0889 Q52.0917,26.437 52.0917,23.3159 Q52.0917,20.1865 53.4115,18.5347 Q54.7314,16.8828 57.2382,16.8828 Q57.9438,16.8828 58.5912,17.0322 Q59.2387,17.1816 59.8031,17.4805 L59.8031,20.2031 Q59.1723,19.6221 58.5788,19.3523 Q57.9853,19.0825 57.3544,19.0825 Q56.0097,19.0825 55.3249,20.1492 Q54.6401,21.2158 54.6401,23.3159 Q54.6401,25.4077 55.3249,26.4744 Q56.0097,27.541 57.3544,27.541 Q57.9853,27.541 58.5788,27.2712 Q59.1723,27.0015 59.8031,26.4204 Z " fill="#000000"/><text x="71.33" y="26.8889" fill="#000000" font-size="14" lengthAdjust="spacing" textLength="43.4875" font-family="sans-serif">Mother</text><line x1="43.33" y1="39" x2="116.8175" y2="39" style="stroke:#181818;stroke-width:0.5;"/><line x1="43.33" y1="47" x2="116.8175" y2="47" style="stroke:#181818;stroke-width:0.5;"/></g><!--class Foo--><g class="entity" data-qualified-name="Foo" id="ent0002" data-source-line="3"><rect x="7" y="115" width="56.15" height="48" fill="#F1F1F1" style="stroke:#181818;stroke-width:0.5;" rx="2.5" ry="2.5"/><ellipse cx="22" cy="131" rx="11" ry="11" fill="#ADD1B2" style="stroke:#181818;stroke-width:1;"/><path d="M24.4731,137.1431 Q23.8921,137.4419 23.2529,137.5913 Q22.6138,137.7407 21.9082,137.7407 Q19.4014,137.7407 18.0815,136.0889 Q16.7617,134.437 16.7617,131.3159 Q16.7617,128.1865 18.0815,126.5347 Q19.4014,124.8828 21.9082,124.8828 Q22.6138,124.8828 23.2612,125.0322 Q23.9087,125.1816 24.4731,125.4805 L24.4731,128.2031 Q23.8423,127.6221 23.2488,127.3523 Q22.6553,127.0825 22.0244,127.0825 Q20.6797,127.0825 19.9949,128.1492 Q19.3101,129.2158 19.3101,131.3159 Q19.3101,133.4077 19.9949,134.4744 Q20.6797,135.541 22.0244,135.541 Q22.6553,135.541 23.2488,135.2712 Q23.8423,135.0015 24.4731,134.4204 Z " fill="#000000"/><text x="36" y="134.8889" fill="#000000" font-size="14" lengthAdjust="spacing" textLength="24.15" font-family="sans-serif">Foo</text><line x1="8" y1="147" x2="62.15" y2="147" style="stroke:#181818;stroke-width:0.5;"/><line x1="8" y1="155" x2="62.15" y2="155" style="stroke:#181818;stroke-width:0.5;"/></g><!--class Bar--><g class="entity" data-qualified-name="Bar" id="ent0004" data-source-line="4"><rect x="98.18" y="115" width="53.7875" height="48" fill="#F1F1F1" style="stroke:#181818;stroke-width:0.5;" rx="2.5" ry="2.5"/><ellipse cx="113.18" cy="131" rx="11" ry="11" fill="#ADD1B2" style="stroke:#181818;stroke-width:1;"/><path d="M115.6531,137.1431 Q115.0721,137.4419 114.4329,137.5913 Q113.7938,137.7407 113.0882,137.7407 Q110.5814,137.7407 109.2615,136.0889 Q107.9417,134.437 107.9417,131.3159 Q107.9417,128.1865 109.2615,126.5347 Q110.5814,124.8828 113.0882,124.8828 Q113.7938,124.8828 114.4412,125.0322 Q115.0887,125.1816 115.6531,125.4805 L115.6531,128.2031 Q115.0223,127.6221 114.4288,127.3523 Q113.8353,127.0825 113.2044,127.0825 Q111.8597,127.0825 111.1749,128.1492 Q110.4901,129.2158 110.4901,131.3159 Q110.4901,133.4077 111.1749,134.4744 Q111.8597,135.541 113.2044,135.541 Q113.8353,135.541 114.4288,135.2712 Q115.0223,135.0015 115.6531,134.4204 Z " fill="#000000"/><text x="127.18" y="134.8889" fill="#000000" font-size="14" lengthAdjust="spacing" textLength="21.7875" font-family="sans-serif">Bar</text><line x1="99.18" y1="147" x2="150.9675" y2="147" style="stroke:#181818;stroke-width:0.5;"/><line x1="99.18" y1="155" x2="150.9675" y2="155" style="stroke:#181818;stroke-width:0.5;"/></g><!--link Mother to Foo--><g class="link" data-entity-1="ent0001" data-entity-2="ent0002" id="lnk3" data-source-line="3" data-link-type="association"><path d="M70.2,55.26 C62.7,72.94 52.42,97.13 44.93,114.79" style="stroke:#181818;stroke-width:1;" fill="none" id="Mother-Foo" codeLine="3"/></g><!--link Mother to Bar--><g class="link" data-entity-1="ent0001" data-entity-2="ent0004" id="lnk5" data-source-line="4" data-link-type="association"><path d="M89.95,55.26 C97.45,72.94 107.73,97.13 115.22,114.79" style="stroke:#181818;stroke-width:1;" fill="none" id="Mother-Bar" codeLine="4"/></g><?plantuml-src Iyv9B2vMyCqloKWjue9G2hgw2cxv-KWyfyGYBW00?></g></svg>