<svg xmlns="http://www.w3.org/2000/svg" xmlns:xlink="http://www.w3.org/1999/xlink" version="1.1" data-diagram-type="CLASS" style="width:191px;height:178px;background:#FFFFFF;" width="191px" height="178px" viewBox="0 0 191 178" zoomAndPan="magnify" preserveAspectRatio="none" contentStyleType="text/css"><?plantuml $version$?><defs/><g><!--class aaa--><!--class Entity--><g class="entity" data-qualified-name="Entity" id="ent0002" data-source-line="3"><rect x="97.18" y="7" width="67" height="48" fill="#F1F1F1" style="stroke:#181818;stroke-width:0.5;" rx="2.5" ry="2.5"/><ellipse cx="112.18" cy="23" rx="11" ry="11" fill="#B4A7E5" style="stroke:#181818;stroke-width:1;"/><path d="M108.6077,19.2651 L108.6077,17.1069 L115.9871,17.1069 L115.9871,19.2651 L113.5218,19.2651 L113.5218,27.3418 L115.9871,27.3418 L115.9871,29.5 L108.6077,29.5 L108.6077,27.3418 L111.0731,27.3418 L111.0731,19.2651 Z " fill="#000000"/><text x="126.18" y="26.8889" fill="#000000" font-size="14" lengthAdjust="spacing" textLength="35" font-style="italic" font-family="sans-serif">Entity</text><line x1="98.18" y1="39" x2="163.18" y2="39" style="stroke:#181818;stroke-width:0.5;"/><line x1="98.18" y1="47" x2="163.18" y2="47" style="stroke:#181818;stroke-width:0.5;"/></g><!--class SubEntity--><g class="entity" data-qualified-name="SubEntity" id="ent0003" data-source-line="4"><rect x="84.71" y="115" width="91.9375" height="48" fill="#F1F1F1" style="stroke:#181818;stroke-width:0.5;" rx="2.5" ry="2.5"/><ellipse cx="99.71" cy="131" rx="11" ry="11" fill="#B4A7E5" style="stroke:#181818;stroke-width:1;"/><path d="M96.1377,127.2651 L96.1377,125.1069 L103.5171,125.1069 L103.5171,127.2651 L101.0518,127.2651 L101.0518,135.3418 L103.5171,135.3418 L103.5171,137.5 L96.1377,137.5 L96.1377,135.3418 L98.6031,135.3418 L98.6031,127.2651 Z " fill="#000000"/><text x="113.71" y="134.8889" fill="#000000" font-size="14" lengthAdjust="spacing" textLength="59.9375" font-style="italic" font-family="sans-serif">SubEntity</text><line x1="85.71" y1="147" x2="175.6475" y2="147" style="stroke:#181818;stroke-width:0.5;"/><line x1="85.71" y1="155" x2="175.6475" y2="155" style="stroke:#181818;stroke-width:0.5;"/></g><!--reverse link Entity to SubEntity--><g class="link" data-entity-1="ent0002" data-entity-2="ent0003" id="lnk4" data-source-line="5" data-link-type="aggregation"><path d="M130.68,67.26 C130.68,84.94 130.68,97.13 130.68,114.79" style="stroke:#181818;stroke-width:1;" fill="none" id="Entity-backto-SubEntity" codeLine="5"/><polygon points="130.68,55.26,126.68,61.26,130.68,67.26,134.68,61.26,130.68,55.26" fill="none" style="stroke:#181818;stroke-width:1;stroke-linejoin:miter;stroke-miterlimit:10;"/></g><?plantuml-src Iyv9B2vMI4nCvCh8J4a5CpBpIbABqXAJKnLSyqeoIogH189Baw1Y44eXNrSN8GW0?></g></svg>