<svg xmlns="http://www.w3.org/2000/svg" xmlns:xlink="http://www.w3.org/1999/xlink" version="1.1" data-diagram-type="CLASS" style="width:197px;height:74px;background:#FFFFFF;" width="197px" height="74px" viewBox="0 0 197 74" zoomAndPan="magnify" preserveAspectRatio="none" contentStyleType="text/css"><?plantuml $version$?><defs/><g><!--class foo1--><g class="entity" data-qualified-name="foo1" id="ent0001" data-source-line="9"><rect x="7" y="7" width="81.325" height="52" fill="#7777FF" style="stroke:#FF00FF;stroke-width:0.5;" rx="2.5" ry="2.5"/><ellipse cx="22" cy="25" rx="11" ry="11" fill="#ADD1B2" style="stroke:#181818;stroke-width:1;"/><path d="M24.4731,31.1431 Q23.8921,31.4419 23.2529,31.5913 Q22.6138,31.7407 21.9082,31.7407 Q19.4014,31.7407 18.0815,30.0889 Q16.7617,28.437 16.7617,25.3159 Q16.7617,22.1865 18.0815,20.5347 Q19.4014,18.8828 21.9082,18.8828 Q22.6138,18.8828 23.2612,19.0322 Q23.9087,19.1816 24.4731,19.4805 L24.4731,22.2031 Q23.8423,21.6221 23.2488,21.3523 Q22.6553,21.0825 22.0244,21.0825 Q20.6797,21.0825 19.9949,22.1492 Q19.3101,23.2158 19.3101,25.3159 Q19.3101,27.4077 19.9949,28.4744 Q20.6797,29.541 22.0244,29.541 Q22.6553,29.541 23.2488,29.2712 Q23.8423,29.0015 24.4731,28.4204 Z " fill="#000000"/><text x="34" y="21.3333" fill="#000000" font-size="12" lengthAdjust="spacing" textLength="53.325" font-style="italic" font-family="sans-serif">«stereo1»</text><text x="47.0562" y="34.8889" fill="#000000" font-size="14" lengthAdjust="spacing" textLength="27.2125" font-family="sans-serif">foo1</text><line x1="8" y1="43" x2="87.325" y2="43" style="stroke:#FF00FF;stroke-width:0.5;"/><line x1="8" y1="51" x2="87.325" y2="51" style="stroke:#FF00FF;stroke-width:0.5;"/></g><!--class foo2--><g class="entity" data-qualified-name="foo2" id="ent0002" data-source-line="10"><rect x="123.06" y="9" width="59.2125" height="48" fill="#7777FF" style="stroke:#FF00FF;stroke-width:0.5;" rx="2.5" ry="2.5"/><ellipse cx="138.06" cy="25" rx="11" ry="11" fill="#ADD1B2" style="stroke:#181818;stroke-width:1;"/><path d="M140.5331,31.1431 Q139.9521,31.4419 139.3129,31.5913 Q138.6738,31.7407 137.9682,31.7407 Q135.4614,31.7407 134.1415,30.0889 Q132.8217,28.437 132.8217,25.3159 Q132.8217,22.1865 134.1415,20.5347 Q135.4614,18.8828 137.9682,18.8828 Q138.6738,18.8828 139.3212,19.0322 Q139.9687,19.1816 140.5331,19.4805 L140.5331,22.2031 Q139.9023,21.6221 139.3088,21.3523 Q138.7153,21.0825 138.0844,21.0825 Q136.7397,21.0825 136.0549,22.1492 Q135.3701,23.2158 135.3701,25.3159 Q135.3701,27.4077 136.0549,28.4744 Q136.7397,29.541 138.0844,29.541 Q138.7153,29.541 139.3088,29.2712 Q139.9023,29.0015 140.5331,28.4204 Z " fill="#000000"/><text x="152.06" y="28.8889" fill="#000000" font-size="14" lengthAdjust="spacing" textLength="27.2125" font-family="sans-serif">foo2</text><line x1="124.06" y1="41" x2="181.2725" y2="41" style="stroke:#FF00FF;stroke-width:0.5;"/><line x1="124.06" y1="49" x2="181.2725" y2="49" style="stroke:#FF00FF;stroke-width:0.5;"/></g><?plantuml-src AyxEp2j8B4hCLKZEIImkzaXDJ4ajSafCpauloY_DIt7EpyalKb0sSNFZAaPLYQ76t1nJJNuHq3Iel9i1idnnIMfHQdv9PK6giuqDX6DePwTGpQMWW66o6z1se32AOMu6NBN8nXNabpXd91OXcnN51NQ4Gbf-lg62ZGtKIaC5Epk4X140?></g></svg>