<svg xmlns="http://www.w3.org/2000/svg" xmlns:xlink="http://www.w3.org/1999/xlink" version="1.1" data-diagram-type="CLASS" style="width:217px;height:70px;background:#FFFFFF;" width="217px" height="70px" viewBox="0 0 217 70" zoomAndPan="magnify" preserveAspectRatio="none" contentStyleType="text/css"><?plantuml $version$?><defs/><g><!--class Foo--><g class="entity" data-qualified-name="Foo" id="ent0001" data-source-line="12"><rect x="146.68" y="7" width="56.15" height="48" fill="#F1F1F1" style="stroke:#181818;stroke-width:0.5;" rx="2.5" ry="2.5"/><ellipse cx="161.68" cy="23" rx="11" ry="11" fill="#ADD1B2" style="stroke:#181818;stroke-width:1;"/><path d="M164.1531,29.1431 Q163.5721,29.4419 162.9329,29.5913 Q162.2938,29.7407 161.5882,29.7407 Q159.0814,29.7407 157.7615,28.0889 Q156.4417,26.437 156.4417,23.3159 Q156.4417,20.1865 157.7615,18.5347 Q159.0814,16.8828 161.5882,16.8828 Q162.2938,16.8828 162.9412,17.0322 Q163.5887,17.1816 164.1531,17.4805 L164.1531,20.2031 Q163.5223,19.6221 162.9288,19.3523 Q162.3353,19.0825 161.7044,19.0825 Q160.3597,19.0825 159.6749,20.1492 Q158.9901,21.2158 158.9901,23.3159 Q158.9901,25.4077 159.6749,26.4744 Q160.3597,27.541 161.7044,27.541 Q162.3353,27.541 162.9288,27.2712 Q163.5223,27.0015 164.1531,26.4204 Z " fill="#000000"/><text x="175.68" y="26.8889" fill="#000000" font-size="14" lengthAdjust="spacing" textLength="24.15" font-family="sans-serif">Foo</text><line x1="147.68" y1="39" x2="201.83" y2="39" style="stroke:#181818;stroke-width:0.5;"/><line x1="147.68" y1="47" x2="201.83" y2="47" style="stroke:#181818;stroke-width:0.5;"/></g><g class="entity" data-qualified-name="GMN2" id="ent0003" data-source-line="13"><path d="M6,21 L6,41 A0,0 0 0 0 6,41 L111.5,41 A0,0 0 0 0 111.5,41 L111.5,39 L146.21,31 L111.5,31 L111.5,31 L101.5,21 L6,21 A0,0 0 0 0 6,21" style="stroke:#181818;stroke-width:0.5;" fill="#008000"/><path d="M101.5,21 L101.5,31 L111.5,31 L101.5,21" style="stroke:#181818;stroke-width:0.5;" fill="#008000"/><text x="12" y="33.7778" fill="#000000" font-size="10" lengthAdjust="spacing" textLength="84.5" font-family="sans-serif">On last defined class</text></g><?plantuml-src JSqz3i8m30NWFQUmnCxFYg8CHOAHeIU86gUA6coKE0EWtfqaPS2JxVT9Bo-1dZRP1vIC0ueTvHKH91LKEhVTA691-2Y0AvECuOrmEjPhiDDoIrp8NJXoWfttlhxtSqAaxhTfRlvpFM_fgbQb3xyIDKMRSwtWhI-Y5z2wOsFES2UeGC2X3uGEEly2?></g></svg>