<svg xmlns="http://www.w3.org/2000/svg" xmlns:xlink="http://www.w3.org/1999/xlink" version="1.1" data-diagram-type="STATE" style="width:370px;height:833px;background:#FFFFFF;" width="370px" height="833px" viewBox="0 0 370 833" zoomAndPan="magnify" preserveAspectRatio="none" contentStyleType="text/css"><?plantuml $version$?><defs/><g><g class="entity" data-qualified-name="comp1" id="ent0001" data-source-line="4"><path d="M19.5,86 L151.1375,86 A12.5,12.5 0 0 1 163.6375,98.5 L163.6375,110 L7,110 L7,98.5 A12.5,12.5 0 0 1 19.5,86" fill="#F1F1F1"/><rect x="7" y="86" width="156.6375" height="651" fill="none" style="stroke:#181818;stroke-width:0.5;" rx="12.5" ry="12.5"/><line x1="7" y1="110" x2="163.6375" y2="110" style="stroke:#181818;stroke-width:0.5;"/><text x="64.3188" y="101.8889" fill="#000000" font-size="14" lengthAdjust="spacing" textLength="42" font-family="sans-serif">comp1</text><g class="entity" data-qualified-name="comp1.common_comp1" id="ent0002" data-source-line="8"><path d="M31.5,263 L127.1375,263 A12.5,12.5 0 0 1 139.6375,275.5 L139.6375,287 L19,287 L19,275.5 A12.5,12.5 0 0 1 31.5,263" fill="#F1F1F1"/><rect x="19" y="287" width="120.6375" height="19" fill="#F1F1F1" style="stroke:#F1F1F1;stroke-width:1;"/><rect x="19" y="263" width="120.6375" height="403" fill="none" style="stroke:#181818;stroke-width:0.5;" rx="12.5" ry="12.5"/><line x1="19" y1="287" x2="139.6375" y2="287" style="stroke:#181818;stroke-width:0.5;"/><line x1="19" y1="306" x2="139.6375" y2="306" style="stroke:#181818;stroke-width:0.5;"/><text x="31.5" y="278.8889" fill="#000000" font-size="14" lengthAdjust="spacing" textLength="95.6375" font-family="sans-serif">common_comp</text><text x="24" y="297.8889" fill="#000000" font-size="14" lengthAdjust="spacing" textLength="62.125" font-family="sans-serif">entry / init()</text><g class="entity" data-qualified-name="comp1.common_comp1.c11" id="ent0003" data-source-line="10"><rect x="31" y="373" width="50" height="50" fill="#F1F1F1" style="stroke:#181818;stroke-width:0.5;" rx="12.5" ry="12.5"/><line x1="31" y1="397" x2="81" y2="397" style="stroke:#181818;stroke-width:0.5;"/><text x="48.6063" y="388.8889" fill="#000000" font-size="14" lengthAdjust="spacing" textLength="14.7875" font-family="sans-serif">c1</text></g><g class="entity" data-qualified-name="comp1.common_comp1.c12" id="ent0004" data-source-line="11"><rect x="31" y="459" width="50" height="50" fill="#F1F1F1" style="stroke:#181818;stroke-width:0.5;" rx="12.5" ry="12.5"/><line x1="31" y1="483" x2="81" y2="483" style="stroke:#181818;stroke-width:0.5;"/><text x="48.6063" y="474.8889" fill="#000000" font-size="14" lengthAdjust="spacing" textLength="14.7875" font-family="sans-serif">c2</text></g><g class="entity" data-qualified-name="comp1.common_comp1.c13" id="ent0005" data-source-line="12"><rect x="31" y="545" width="50" height="50" fill="#F1F1F1" style="stroke:#181818;stroke-width:0.5;" rx="12.5" ry="12.5"/><line x1="31" y1="569" x2="81" y2="569" style="stroke:#181818;stroke-width:0.5;"/><text x="48.6063" y="560.8889" fill="#000000" font-size="14" lengthAdjust="spacing" textLength="14.7875" font-family="sans-serif">c3</text></g><g class="start_entity" data-qualified-name="comp1.common_comp1..start.common_comp1" id="ent0022" data-source-line="13"><ellipse cx="56" cy="327" rx="10" ry="10" fill="#222222" style="stroke:#222222;stroke-width:1;"/></g><g class="end_entity" data-qualified-name="comp1.common_comp1..end.common_comp1" id="ent0026" data-source-line="16"><ellipse cx="56" cy="642" rx="11" ry="11" fill="none" style="stroke:#222222;stroke-width:1;"/><ellipse cx="56" cy="642" rx="6" ry="6" fill="#222222" style="stroke:#222222;stroke-width:1;"/></g><!--link *start*common_comp1 to c11--><g class="link" data-entity-1="ent0022" data-entity-2="ent0003" id="lnk23" data-source-line="13" data-link-type="dependency"><path d="M56,337.31 C56,346.35 56,355.49 56,367.73" style="stroke:#181818;stroke-width:1;" fill="none" id="*start*common_comp1-to-c11"/><polygon points="56,372.73,60,363.73,56,367.73,52,363.73,56,372.73" fill="#181818" style="stroke:#181818;stroke-width:1;stroke-linejoin:miter;stroke-miterlimit:10;"/></g><!--link c11 to c12--><g class="link" data-entity-1="ent0003" data-entity-2="ent0004" id="lnk24" data-source-line="14" data-link-type="dependency"><path d="M56,423.3 C56,434.44 56,442.62 56,453.76" style="stroke:#181818;stroke-width:1;" fill="none" id="c11-to-c12"/><polygon points="56,458.76,60,449.76,56,453.76,52,449.76,56,458.76" fill="#181818" style="stroke:#181818;stroke-width:1;stroke-linejoin:miter;stroke-miterlimit:10;"/></g><!--link c12 to c13--><g class="link" data-entity-1="ent0004" data-entity-2="ent0005" id="lnk25" data-source-line="15" data-link-type="dependency"><path d="M56,509.3 C56,520.44 56,528.62 56,539.76" style="stroke:#181818;stroke-width:1;" fill="none" id="c12-to-c13"/><polygon points="56,544.76,60,535.76,56,539.76,52,535.76,56,544.76" fill="#181818" style="stroke:#181818;stroke-width:1;stroke-linejoin:miter;stroke-miterlimit:10;"/></g><!--link c13 to *end*common_comp1--><g class="link" data-entity-1="ent0005" data-entity-2="ent0026" id="lnk27" data-source-line="16" data-link-type="dependency"><path d="M56,595.48 C56,607.47 56,616.27 56,625.5" style="stroke:#181818;stroke-width:1;" fill="none" id="c13-to-*end*common_comp1"/><polygon points="56,630.5,60,621.5,56,625.5,52,621.5,56,630.5" fill="#181818" style="stroke:#181818;stroke-width:1;stroke-linejoin:miter;stroke-miterlimit:10;"/></g></g><g class="start_entity" data-qualified-name="comp1..start.comp1" id="ent0016" data-source-line="5"><ellipse cx="79.32" cy="131" rx="10" ry="10" fill="#222222" style="stroke:#222222;stroke-width:1;"/></g><g class="entity" data-qualified-name="comp1.A" id="ent0017" data-source-line="5"><rect x="54.32" y="177" width="50" height="50" fill="#F1F1F1" style="stroke:#181818;stroke-width:0.5;" rx="12.5" ry="12.5"/><line x1="54.32" y1="201" x2="104.32" y2="201" style="stroke:#181818;stroke-width:0.5;"/><text x="74.6388" y="192.8889" fill="#000000" font-size="14" lengthAdjust="spacing" textLength="9.3625" font-family="sans-serif">A</text></g><g class="end_entity" data-qualified-name="comp1..end.comp1" id="ent0020" data-source-line="7"><ellipse cx="79.32" cy="713" rx="11" ry="11" fill="none" style="stroke:#222222;stroke-width:1;"/><ellipse cx="79.32" cy="713" rx="6" ry="6" fill="#222222" style="stroke:#222222;stroke-width:1;"/></g><!--link *start*comp1 to A--><g class="link" data-entity-1="ent0016" data-entity-2="ent0017" id="lnk18" data-source-line="5" data-link-type="dependency"><path d="M79.32,141.31 C79.32,150.35 79.32,159.49 79.32,171.73" style="stroke:#181818;stroke-width:1;" fill="none" id="*start*comp1-to-A"/><polygon points="79.32,176.73,83.32,167.73,79.32,171.73,75.32,167.73,79.32,176.73" fill="#181818" style="stroke:#181818;stroke-width:1;stroke-linejoin:miter;stroke-miterlimit:10;"/></g><!--link A to common_comp1--><g class="link" data-entity-1="ent0017" data-entity-2="ent0002" id="lnk19" data-source-line="6" data-link-type="dependency"><path d="M79.32,227.04 C79.32,236.8 79.32,244.03 79.32,257.74" style="stroke:#181818;stroke-width:1;" fill="none" id="A-to-common_comp1"/><polygon points="79.32,262.74,83.32,253.74,79.32,257.74,75.32,253.74,79.32,262.74" fill="#181818" style="stroke:#181818;stroke-width:1;stroke-linejoin:miter;stroke-miterlimit:10;"/></g><!--link common_comp1 to *end*comp1--><g class="link" data-entity-1="ent0002" data-entity-2="ent0020" id="lnk21" data-source-line="7" data-link-type="dependency"><path d="M79.32,666.21 C79.32,681.24 79.32,688.68 79.32,696.79" style="stroke:#181818;stroke-width:1;" fill="none" id="common_comp1-to-*end*comp1"/><polygon points="79.32,701.79,83.32,692.79,79.32,696.79,75.32,692.79,79.32,701.79" fill="#181818" style="stroke:#181818;stroke-width:1;stroke-linejoin:miter;stroke-miterlimit:10;"/></g></g><g class="entity" data-qualified-name="comp2" id="ent0006" data-source-line="19"><path d="M211.5,86 L343.1375,86 A12.5,12.5 0 0 1 355.6375,98.5 L355.6375,110 L199,110 L199,98.5 A12.5,12.5 0 0 1 211.5,86" fill="#F1F1F1"/><rect x="199" y="86" width="156.6375" height="651" fill="none" style="stroke:#181818;stroke-width:0.5;" rx="12.5" ry="12.5"/><line x1="199" y1="110" x2="355.6375" y2="110" style="stroke:#181818;stroke-width:0.5;"/><text x="256.3188" y="101.8889" fill="#000000" font-size="14" lengthAdjust="spacing" textLength="42" font-family="sans-serif">comp2</text><g class="entity" data-qualified-name="comp2.common_comp2" id="ent0007" data-source-line="23"><path d="M223.5,263 L319.1375,263 A12.5,12.5 0 0 1 331.6375,275.5 L331.6375,287 L211,287 L211,275.5 A12.5,12.5 0 0 1 223.5,263" fill="#F1F1F1"/><rect x="211" y="287" width="120.6375" height="19" fill="#F1F1F1" style="stroke:#F1F1F1;stroke-width:1;"/><rect x="211" y="263" width="120.6375" height="403" fill="none" style="stroke:#181818;stroke-width:0.5;" rx="12.5" ry="12.5"/><line x1="211" y1="287" x2="331.6375" y2="287" style="stroke:#181818;stroke-width:0.5;"/><line x1="211" y1="306" x2="331.6375" y2="306" style="stroke:#181818;stroke-width:0.5;"/><text x="223.5" y="278.8889" fill="#000000" font-size="14" lengthAdjust="spacing" textLength="95.6375" font-family="sans-serif">common_comp</text><text x="216" y="297.8889" fill="#000000" font-size="14" lengthAdjust="spacing" textLength="62.125" font-family="sans-serif">entry / init()</text><g class="entity" data-qualified-name="comp2.common_comp2.c21" id="ent0008" data-source-line="25"><rect x="223" y="373" width="50" height="50" fill="#F1F1F1" style="stroke:#181818;stroke-width:0.5;" rx="12.5" ry="12.5"/><line x1="223" y1="397" x2="273" y2="397" style="stroke:#181818;stroke-width:0.5;"/><text x="240.6063" y="388.8889" fill="#000000" font-size="14" lengthAdjust="spacing" textLength="14.7875" font-family="sans-serif">c1</text></g><g class="entity" data-qualified-name="comp2.common_comp2.c22" id="ent0009" data-source-line="26"><rect x="223" y="459" width="50" height="50" fill="#F1F1F1" style="stroke:#181818;stroke-width:0.5;" rx="12.5" ry="12.5"/><line x1="223" y1="483" x2="273" y2="483" style="stroke:#181818;stroke-width:0.5;"/><text x="240.6063" y="474.8889" fill="#000000" font-size="14" lengthAdjust="spacing" textLength="14.7875" font-family="sans-serif">c2</text></g><g class="entity" data-qualified-name="comp2.common_comp2.c23" id="ent0010" data-source-line="27"><rect x="223" y="545" width="50" height="50" fill="#F1F1F1" style="stroke:#181818;stroke-width:0.5;" rx="12.5" ry="12.5"/><line x1="223" y1="569" x2="273" y2="569" style="stroke:#181818;stroke-width:0.5;"/><text x="240.6063" y="560.8889" fill="#000000" font-size="14" lengthAdjust="spacing" textLength="14.7875" font-family="sans-serif">c3</text></g><g class="start_entity" data-qualified-name="comp2.common_comp2..start.common_comp2" id="ent0034" data-source-line="28"><ellipse cx="248" cy="327" rx="10" ry="10" fill="#222222" style="stroke:#222222;stroke-width:1;"/></g><g class="end_entity" data-qualified-name="comp2.common_comp2..end.common_comp2" id="ent0038" data-source-line="31"><ellipse cx="248" cy="642" rx="11" ry="11" fill="none" style="stroke:#222222;stroke-width:1;"/><ellipse cx="248" cy="642" rx="6" ry="6" fill="#222222" style="stroke:#222222;stroke-width:1;"/></g><!--link *start*common_comp2 to c21--><g class="link" data-entity-1="ent0034" data-entity-2="ent0008" id="lnk35" data-source-line="28" data-link-type="dependency"><path d="M248,337.31 C248,346.35 248,355.49 248,367.73" style="stroke:#181818;stroke-width:1;" fill="none" id="*start*common_comp2-to-c21"/><polygon points="248,372.73,252,363.73,248,367.73,244,363.73,248,372.73" fill="#181818" style="stroke:#181818;stroke-width:1;stroke-linejoin:miter;stroke-miterlimit:10;"/></g><!--link c21 to c22--><g class="link" data-entity-1="ent0008" data-entity-2="ent0009" id="lnk36" data-source-line="29" data-link-type="dependency"><path d="M248,423.3 C248,434.44 248,442.62 248,453.76" style="stroke:#181818;stroke-width:1;" fill="none" id="c21-to-c22"/><polygon points="248,458.76,252,449.76,248,453.76,244,449.76,248,458.76" fill="#181818" style="stroke:#181818;stroke-width:1;stroke-linejoin:miter;stroke-miterlimit:10;"/></g><!--link c22 to c23--><g class="link" data-entity-1="ent0009" data-entity-2="ent0010" id="lnk37" data-source-line="30" data-link-type="dependency"><path d="M248,509.3 C248,520.44 248,528.62 248,539.76" style="stroke:#181818;stroke-width:1;" fill="none" id="c22-to-c23"/><polygon points="248,544.76,252,535.76,248,539.76,244,535.76,248,544.76" fill="#181818" style="stroke:#181818;stroke-width:1;stroke-linejoin:miter;stroke-miterlimit:10;"/></g><!--link c23 to *end*common_comp2--><g class="link" data-entity-1="ent0010" data-entity-2="ent0038" id="lnk39" data-source-line="31" data-link-type="dependency"><path d="M248,595.48 C248,607.47 248,616.27 248,625.5" style="stroke:#181818;stroke-width:1;" fill="none" id="c23-to-*end*common_comp2"/><polygon points="248,630.5,252,621.5,248,625.5,244,621.5,248,630.5" fill="#181818" style="stroke:#181818;stroke-width:1;stroke-linejoin:miter;stroke-miterlimit:10;"/></g></g><g class="start_entity" data-qualified-name="comp2..start.comp2" id="ent0028" data-source-line="20"><ellipse cx="271.32" cy="131" rx="10" ry="10" fill="#222222" style="stroke:#222222;stroke-width:1;"/></g><g class="entity" data-qualified-name="comp2.B" id="ent0029" data-source-line="20"><rect x="246.32" y="177" width="50" height="50" fill="#F1F1F1" style="stroke:#181818;stroke-width:0.5;" rx="12.5" ry="12.5"/><line x1="246.32" y1="201" x2="296.32" y2="201" style="stroke:#181818;stroke-width:0.5;"/><text x="266.6388" y="192.8889" fill="#000000" font-size="14" lengthAdjust="spacing" textLength="9.3625" font-family="sans-serif">B</text></g><g class="end_entity" data-qualified-name="comp2..end.comp2" id="ent0032" data-source-line="22"><ellipse cx="271.32" cy="713" rx="11" ry="11" fill="none" style="stroke:#222222;stroke-width:1;"/><ellipse cx="271.32" cy="713" rx="6" ry="6" fill="#222222" style="stroke:#222222;stroke-width:1;"/></g><!--link *start*comp2 to B--><g class="link" data-entity-1="ent0028" data-entity-2="ent0029" id="lnk30" data-source-line="20" data-link-type="dependency"><path d="M271.32,141.31 C271.32,150.35 271.32,159.49 271.32,171.73" style="stroke:#181818;stroke-width:1;" fill="none" id="*start*comp2-to-B"/><polygon points="271.32,176.73,275.32,167.73,271.32,171.73,267.32,167.73,271.32,176.73" fill="#181818" style="stroke:#181818;stroke-width:1;stroke-linejoin:miter;stroke-miterlimit:10;"/></g><!--link B to common_comp2--><g class="link" data-entity-1="ent0029" data-entity-2="ent0007" id="lnk31" data-source-line="21" data-link-type="dependency"><path d="M271.32,227.04 C271.32,236.8 271.32,244.03 271.32,257.74" style="stroke:#181818;stroke-width:1;" fill="none" id="B-to-common_comp2"/><polygon points="271.32,262.74,275.32,253.74,271.32,257.74,267.32,253.74,271.32,262.74" fill="#181818" style="stroke:#181818;stroke-width:1;stroke-linejoin:miter;stroke-miterlimit:10;"/></g><!--link common_comp2 to *end*comp2--><g class="link" data-entity-1="ent0007" data-entity-2="ent0032" id="lnk33" data-source-line="22" data-link-type="dependency"><path d="M271.32,666.21 C271.32,681.24 271.32,688.68 271.32,696.79" style="stroke:#181818;stroke-width:1;" fill="none" id="common_comp2-to-*end*comp2"/><polygon points="271.32,701.79,275.32,692.79,271.32,696.79,267.32,692.79,271.32,701.79" fill="#181818" style="stroke:#181818;stroke-width:1;stroke-linejoin:miter;stroke-miterlimit:10;"/></g></g><g class="start_entity" data-qualified-name=".start." id="ent0011" data-source-line="1"><ellipse cx="85.32" cy="16" rx="10" ry="10" fill="#222222" style="stroke:#222222;stroke-width:1;"/></g><g class="end_entity" data-qualified-name=".end." id="ent0014" data-source-line="3"><ellipse cx="277.32" cy="808" rx="11" ry="11" fill="none" style="stroke:#222222;stroke-width:1;"/><ellipse cx="277.32" cy="808" rx="6" ry="6" fill="#222222" style="stroke:#222222;stroke-width:1;"/></g><!--link *start* to comp1--><g class="link" data-entity-1="ent0011" data-entity-2="ent0001" id="lnk12" data-source-line="1" data-link-type="dependency"><path d="M85.32,26.34 C85.32,37.74 85.32,53.86 85.32,80.55" style="stroke:#181818;stroke-width:1;" fill="none" id="*start*-to-comp1"/><polygon points="85.32,85.55,89.32,76.55,85.32,80.55,81.32,76.55,85.32,85.55" fill="#181818" style="stroke:#181818;stroke-width:1;stroke-linejoin:miter;stroke-miterlimit:10;"/></g><!--link comp1 to comp2--><g class="link" data-entity-1="ent0001" data-entity-2="ent0006" id="lnk13" data-source-line="2" data-link-type="dependency"><path d="M164.07,411.5 C175.57,411.5 182.07,411.5 193.57,411.5" style="stroke:#181818;stroke-width:1;" fill="none" id="comp1-to-comp2"/><polygon points="198.57,411.5,189.57,407.5,193.57,411.5,189.57,415.5,198.57,411.5" fill="#181818" style="stroke:#181818;stroke-width:1;stroke-linejoin:miter;stroke-miterlimit:10;"/></g><!--link comp2 to *end*--><g class="link" data-entity-1="ent0006" data-entity-2="ent0014" id="lnk15" data-source-line="3" data-link-type="dependency"><path d="M277.32,737.38 C277.32,763.89 277.32,780 277.32,791.76" style="stroke:#181818;stroke-width:1;" fill="none" id="comp2-to-*end*"/><polygon points="277.32,796.76,281.32,787.76,277.32,791.76,273.32,787.76,277.32,796.76" fill="#181818" style="stroke:#181818;stroke-width:1;stroke-linejoin:miter;stroke-miterlimit:10;"/></g><?plantuml-src bP2n2eCm48RtFCNXr0fISjaw5FGLEeeKAT8wg4MpbEAxDoPdEAD2wo2N_py_oPV71IJ91UvTyvB2lY7fwyTJKuWsHBkKnuMuwb9NRXq-0ioJ4oArftJ6DLrxSzGfve5dJSLWUH7h8oY7vRxxJuWvGzNg_WqdgDjQ7uv-QKPAHv9orI0rk6eKDSety_KunyoK8SkGCiKojRZiA4OnU84O2CpiAGi5OYWG_nI8smBnLu6uAn1t1UA6GCOnCsLC8990zgsPGu5V?></g></svg>