<svg xmlns="http://www.w3.org/2000/svg" xmlns:xlink="http://www.w3.org/1999/xlink" version="1.1" data-diagram-type="CLASS" style="width:138px;height:82px;background:#FFFFFF;" width="138px" height="82px" viewBox="0 0 138 82" zoomAndPan="magnify" preserveAspectRatio="none" contentStyleType="text/css"><?plantuml $version$?><defs/><g><!--class ArrayList--><g class="entity" data-qualified-name="ArrayList" id="ent0001" data-source-line="2"><rect x="7" y="7" width="118.4875" height="62" fill="#F1F1F1" style="stroke:#181818;stroke-width:0.5;" rx="2.5" ry="2.5"/><ellipse cx="36.0738" cy="23" rx="11" ry="11" fill="#ADD1B2" style="stroke:#181818;stroke-width:1;"/><path d="M38.5469,29.1431 Q37.9658,29.4419 37.3267,29.5913 Q36.6875,29.7407 35.982,29.7407 Q33.4751,29.7407 32.1553,28.0889 Q30.8355,26.437 30.8355,23.3159 Q30.8355,20.1865 32.1553,18.5347 Q33.4751,16.8828 35.982,16.8828 Q36.6875,16.8828 37.335,17.0322 Q37.9824,17.1816 38.5469,17.4805 L38.5469,20.2031 Q37.916,19.6221 37.3225,19.3523 Q36.729,19.0825 36.0982,19.0825 Q34.7534,19.0825 34.0686,20.1492 Q33.3838,21.2158 33.3838,23.3159 Q33.3838,25.4077 34.0686,26.4744 Q34.7534,27.541 36.0982,27.541 Q36.729,27.541 37.3225,27.2712 Q37.916,27.0015 38.5469,26.4204 Z " fill="#000000"/><text x="53.2012" y="26.8889" fill="#000000" font-size="14" lengthAdjust="spacing" textLength="55.2125" font-family="sans-serif">ArrayList</text><line x1="8" y1="39" x2="124.4875" y2="39" style="stroke:#181818;stroke-width:0.5;"/><line x1="8" y1="47" x2="124.4875" y2="47" style="stroke:#181818;stroke-width:0.5;"/><text x="13" y="61.8889" fill="#000000" font-size="14" lengthAdjust="spacing" textLength="106.4875" font-family="sans-serif">myfoo_type size()</text></g><?plantuml-src Kqn9JSlCIrK8zl0FZm-9373LgD1KoArKLgxWIiv9B2vMS2mgIgpqoImkuOAp5AoGbAVbvyUNL1QaQYeKPrQbQcW20000?></g></svg>