<svg xmlns="http://www.w3.org/2000/svg" xmlns:xlink="http://www.w3.org/1999/xlink" version="1.1" data-diagram-type="CLASS" style="width:184px;height:178px;background:#FFFFFF;" width="184px" height="178px" viewBox="0 0 184 178" zoomAndPan="magnify" preserveAspectRatio="none" contentStyleType="text/css"><?plantuml $version$?><defs/><g><!--class Foo1--><!--class Foo2--><g class="entity" data-qualified-name="Foo2" id="ent0002" data-source-line="2"><rect x="106" y="7" width="63.9375" height="48" fill="#F1F1F1" style="stroke:#181818;stroke-width:0.5;" rx="2.5" ry="2.5"/><ellipse cx="121" cy="23" rx="11" ry="11" fill="#ADD1B2" style="stroke:#181818;stroke-width:1;"/><path d="M123.4731,29.1431 Q122.8921,29.4419 122.2529,29.5913 Q121.6138,29.7407 120.9082,29.7407 Q118.4014,29.7407 117.0815,28.0889 Q115.7617,26.437 115.7617,23.3159 Q115.7617,20.1865 117.0815,18.5347 Q118.4014,16.8828 120.9082,16.8828 Q121.6138,16.8828 122.2612,17.0322 Q122.9087,17.1816 123.4731,17.4805 L123.4731,20.2031 Q122.8423,19.6221 122.2488,19.3523 Q121.6553,19.0825 121.0244,19.0825 Q119.6797,19.0825 118.9949,20.1492 Q118.3101,21.2158 118.3101,23.3159 Q118.3101,25.4077 118.9949,26.4744 Q119.6797,27.541 121.0244,27.541 Q121.6553,27.541 122.2488,27.2712 Q122.8423,27.0015 123.4731,26.4204 Z " fill="#000000"/><text x="135" y="26.8889" fill="#000000" font-size="14" lengthAdjust="spacing" textLength="31.9375" font-family="sans-serif">Foo2</text><line x1="107" y1="39" x2="168.9375" y2="39" style="stroke:#181818;stroke-width:0.5;"/><line x1="107" y1="47" x2="168.9375" y2="47" style="stroke:#181818;stroke-width:0.5;"/></g><!--class Foo3--><!--reverse link Foo2 to Foo3--><?plantuml-src Iyv9B2vMSClFD-HAXZ6Dk38oKrBH18svG38AMhgw41vCYJ40?></g></svg>