<svg xmlns="http://www.w3.org/2000/svg" xmlns:xlink="http://www.w3.org/1999/xlink" version="1.1" data-diagram-type="STATE" style="width:180px;height:359px;background:#FFFFFF;" width="180px" height="359px" viewBox="0 0 180 359" zoomAndPan="magnify" preserveAspectRatio="none" contentStyleType="text/css"><?plantuml $version$?><defs/><g><g class="entity" data-qualified-name="A" id="ent0001" data-source-line="1"><path d="M19.5,7 L152.5,7 A12.5,12.5 0 0 1 165,19.5 L165,31 L7,31 L7,19.5 A12.5,12.5 0 0 1 19.5,7" fill="#F1F1F1"/><rect x="7" y="7" width="158" height="338" fill="none" style="stroke:#181818;stroke-width:0.5;" rx="12.5" ry="12.5"/><line x1="7" y1="31" x2="165" y2="31" style="stroke:#181818;stroke-width:0.5;"/><text x="81.3188" y="22.8889" fill="#000000" font-size="14" lengthAdjust="spacing" textLength="9.3625" font-family="sans-serif">A</text><g class="entity" data-qualified-name="A.B" id="ent0002" data-source-line="2"><path d="M31.5,43 L128.5,43 A12.5,12.5 0 0 1 141,55.5 L141,67 L19,67 L19,55.5 A12.5,12.5 0 0 1 31.5,43" fill="#F1F1F1"/><rect x="19" y="43" width="122" height="289" fill="none" style="stroke:#181818;stroke-width:0.5;" rx="12.5" ry="12.5"/><line x1="19" y1="67" x2="141" y2="67" style="stroke:#181818;stroke-width:0.5;"/><text x="75.3188" y="58.8889" fill="#000000" font-size="14" lengthAdjust="spacing" textLength="9.3625" font-family="sans-serif">B</text><g class="entity" data-qualified-name="A.B.C" id="ent0003" data-source-line="3"><path d="M43.5,79 L104.5,79 A12.5,12.5 0 0 1 117,91.5 L117,103 L31,103 L31,91.5 A12.5,12.5 0 0 1 43.5,79" fill="#F1F1F1"/><rect x="31" y="79" width="86" height="240" fill="none" style="stroke:#181818;stroke-width:0.5;" rx="12.5" ry="12.5"/><line x1="31" y1="103" x2="117" y2="103" style="stroke:#181818;stroke-width:0.5;"/><text x="68.925" y="94.8889" fill="#000000" font-size="14" lengthAdjust="spacing" textLength="10.15" font-family="sans-serif">C</text><g class="start_entity" data-qualified-name="A.B.C..start.C" id="ent0004" data-source-line="4"><ellipse cx="68" cy="124" rx="10" ry="10" fill="#222222" style="stroke:#222222;stroke-width:1;"/></g><g class="entity" data-qualified-name="A.B.C.D" id="ent0005" data-source-line="4"><rect x="43" y="170" width="50" height="50" fill="#F1F1F1" style="stroke:#181818;stroke-width:0.5;" rx="12.5" ry="12.5"/><line x1="43" y1="194" x2="93" y2="194" style="stroke:#181818;stroke-width:0.5;"/><text x="62.925" y="185.8889" fill="#000000" font-size="14" lengthAdjust="spacing" textLength="10.15" font-family="sans-serif">D</text></g><g class="entity" data-qualified-name="A.B.C.G" id="ent0007" data-source-line="5"><rect x="43" y="256" width="50" height="50" fill="#F1F1F1" style="stroke:#181818;stroke-width:0.5;" rx="12.5" ry="12.5"/><line x1="43" y1="280" x2="93" y2="280" style="stroke:#181818;stroke-width:0.5;"/><text x="62.575" y="271.8889" fill="#000000" font-size="14" lengthAdjust="spacing" textLength="10.85" font-family="sans-serif">G</text></g><!--link *start*C to D--><g class="link" data-entity-1="ent0004" data-entity-2="ent0005" id="lnk6" data-source-line="4" data-link-type="dependency"><path d="M68,134.31 C68,143.35 68,152.49 68,164.73" style="stroke:#181818;stroke-width:1;" fill="none" id="*start*C-to-D"/><polygon points="68,169.73,72,160.73,68,164.73,64,160.73,68,169.73" fill="#181818" style="stroke:#181818;stroke-width:1;stroke-linejoin:miter;stroke-miterlimit:10;"/></g><!--link D to G--><g class="link" data-entity-1="ent0005" data-entity-2="ent0007" id="lnk8" data-source-line="5" data-link-type="dependency"><path d="M68,220.3 C68,231.44 68,239.62 68,250.76" style="stroke:#181818;stroke-width:1;" fill="none" id="D-to-G"/><polygon points="68,255.76,72,246.76,68,250.76,64,246.76,68,255.76" fill="#181818" style="stroke:#181818;stroke-width:1;stroke-linejoin:miter;stroke-miterlimit:10;"/></g></g></g></g><?plantuml-src Aov9B4bLS5H8IatFpEDIK2W6yvtWV9Y8CvA8WaAqLgo2hgwTWWkKxmBckODvgNaf43rSo6m42m00?></g></svg>