<svg xmlns="http://www.w3.org/2000/svg" xmlns:xlink="http://www.w3.org/1999/xlink" version="1.1" data-diagram-type="STATE" style="width:84px;height:260px;background:#FFFFFF;" width="84px" height="260px" viewBox="0 0 84 260" zoomAndPan="magnify" preserveAspectRatio="none" contentStyleType="text/css"><?plantuml $version$?><defs/><g><g class="entity" data-qualified-name="StateA" id="ent0001" data-source-line="2"><rect x="7" y="86" width="62" height="50" fill="#F1F1F1" style="stroke:#181818;stroke-width:0.5;" rx="12.5" ry="12.5"/><line x1="7" y1="110" x2="69" y2="110" style="stroke:#181818;stroke-width:0.5;"/><text x="17" y="101.8889" fill="#000000" font-size="14" lengthAdjust="spacing" textLength="42" font-family="sans-serif">StateA</text></g><g class="entity" data-qualified-name="StateB" id="ent0002" data-source-line="4"><rect x="7" y="196" width="62" height="50" fill="#F1F1F1" style="stroke:#181818;stroke-width:0.5;" rx="12.5" ry="12.5"/><line x1="7" y1="220" x2="69" y2="220" style="stroke:#181818;stroke-width:0.5;"/><text x="17" y="211.8889" fill="#000000" font-size="14" lengthAdjust="spacing" textLength="42" font-family="sans-serif">StateB</text></g><g class="start_entity" data-qualified-name=".start." id="ent0003" data-source-line="1"><ellipse cx="38" cy="16" rx="10" ry="10" fill="#222222" style="stroke:#222222;stroke-width:1;"/></g><!--link *start* to StateA--><g class="link" data-entity-1="ent0003" data-entity-2="ent0001" id="lnk4" data-source-line="1" data-link-type="dependency"><path d="M38,26.26 C38,39.95 38,61.07 38,80.52" style="stroke:#181818;stroke-width:1;" fill="none" id="*start*-to-StateA"/><polygon points="38,85.52,42,76.52,38,80.52,34,76.52,38,85.52" fill="#181818" style="stroke:#181818;stroke-width:1;stroke-linejoin:miter;stroke-miterlimit:10;"/></g><!--link StateA to StateB--><g class="link" data-entity-1="ent0001" data-entity-2="ent0002" id="lnk5" data-source-line="6" data-link-type="dependency"><path d="M38,136.24 C38,154.02 38,173.08 38,190.84" style="stroke:#181818;stroke-width:1;" fill="none" id="StateA-to-StateB"/><polygon points="38,195.84,42,186.84,38,190.84,34,186.84,38,195.84" fill="#181818" style="stroke:#181818;stroke-width:1;stroke-linejoin:miter;stroke-miterlimit:10;"/></g><?plantuml-src YzQALT3LjLC8BaaiINNaAWPHK8v2DLSjie0JM00g1zVZ1000?></g></svg>