<svg xmlns="http://www.w3.org/2000/svg" xmlns:xlink="http://www.w3.org/1999/xlink" version="1.1" data-diagram-type="CLASS" style="width:150px;height:178px;background:#FFFFFF;" width="150px" height="178px" viewBox="0 0 150 178" zoomAndPan="magnify" preserveAspectRatio="none" contentStyleType="text/css"><?plantuml $version$?><defs/><g><!--class c1--><g class="entity" data-qualified-name="c1" id="ent0001" data-source-line="2"><rect x="48" y="7" width="46.7875" height="48" fill="#F1F1F1" style="stroke:#181818;stroke-width:0.5;" rx="2.5" ry="2.5"/><ellipse cx="63" cy="23" rx="11" ry="11" fill="#ADD1B2" style="stroke:#181818;stroke-width:1;"/><path d="M65.4731,29.1431 Q64.8921,29.4419 64.2529,29.5913 Q63.6138,29.7407 62.9082,29.7407 Q60.4014,29.7407 59.0815,28.0889 Q57.7617,26.437 57.7617,23.3159 Q57.7617,20.1865 59.0815,18.5347 Q60.4014,16.8828 62.9082,16.8828 Q63.6138,16.8828 64.2612,17.0322 Q64.9087,17.1816 65.4731,17.4805 L65.4731,20.2031 Q64.8423,19.6221 64.2488,19.3523 Q63.6553,19.0825 63.0244,19.0825 Q61.6797,19.0825 60.9949,20.1492 Q60.3101,21.2158 60.3101,23.3159 Q60.3101,25.4077 60.9949,26.4744 Q61.6797,27.541 63.0244,27.541 Q63.6553,27.541 64.2488,27.2712 Q64.8423,27.0015 65.4731,26.4204 Z " fill="#000000"/><text x="77" y="26.8889" fill="#000000" font-size="14" lengthAdjust="spacing" textLength="14.7875" font-family="sans-serif">c1</text><line x1="49" y1="39" x2="93.7875" y2="39" style="stroke:#181818;stroke-width:0.5;"/><line x1="49" y1="47" x2="93.7875" y2="47" style="stroke:#181818;stroke-width:0.5;"/></g><!--class c2--><g class="entity" data-qualified-name="c2" id="ent0002" data-source-line="3"><rect x="7" y="115" width="46.7875" height="48" fill="#F1F1F1" style="stroke:#181818;stroke-width:0.5;" rx="2.5" ry="2.5"/><ellipse cx="22" cy="131" rx="11" ry="11" fill="#ADD1B2" style="stroke:#181818;stroke-width:1;"/><path d="M24.4731,137.1431 Q23.8921,137.4419 23.2529,137.5913 Q22.6138,137.7407 21.9082,137.7407 Q19.4014,137.7407 18.0815,136.0889 Q16.7617,134.437 16.7617,131.3159 Q16.7617,128.1865 18.0815,126.5347 Q19.4014,124.8828 21.9082,124.8828 Q22.6138,124.8828 23.2612,125.0322 Q23.9087,125.1816 24.4731,125.4805 L24.4731,128.2031 Q23.8423,127.6221 23.2488,127.3523 Q22.6553,127.0825 22.0244,127.0825 Q20.6797,127.0825 19.9949,128.1492 Q19.3101,129.2158 19.3101,131.3159 Q19.3101,133.4077 19.9949,134.4744 Q20.6797,135.541 22.0244,135.541 Q22.6553,135.541 23.2488,135.2712 Q23.8423,135.0015 24.4731,134.4204 Z " fill="#000000"/><text x="36" y="134.8889" fill="#000000" font-size="14" lengthAdjust="spacing" textLength="14.7875" font-family="sans-serif">c2</text><line x1="8" y1="147" x2="52.7875" y2="147" style="stroke:#181818;stroke-width:0.5;"/><line x1="8" y1="155" x2="52.7875" y2="155" style="stroke:#181818;stroke-width:0.5;"/></g><!--class c3--><g class="entity" data-qualified-name="c3" id="ent0003" data-source-line="4"><rect x="89" y="115" width="46.7875" height="48" fill="#F1F1F1" style="stroke:#181818;stroke-width:0.5;" rx="2.5" ry="2.5"/><ellipse cx="104" cy="131" rx="11" ry="11" fill="#ADD1B2" style="stroke:#181818;stroke-width:1;"/><path d="M106.4731,137.1431 Q105.8921,137.4419 105.2529,137.5913 Q104.6138,137.7407 103.9082,137.7407 Q101.4014,137.7407 100.0815,136.0889 Q98.7617,134.437 98.7617,131.3159 Q98.7617,128.1865 100.0815,126.5347 Q101.4014,124.8828 103.9082,124.8828 Q104.6138,124.8828 105.2612,125.0322 Q105.9087,125.1816 106.4731,125.4805 L106.4731,128.2031 Q105.8423,127.6221 105.2488,127.3523 Q104.6553,127.0825 104.0244,127.0825 Q102.6797,127.0825 101.9949,128.1492 Q101.3101,129.2158 101.3101,131.3159 Q101.3101,133.4077 101.9949,134.4744 Q102.6797,135.541 104.0244,135.541 Q104.6553,135.541 105.2488,135.2712 Q105.8423,135.0015 106.4731,134.4204 Z " fill="#000000"/><text x="118" y="134.8889" fill="#000000" font-size="14" lengthAdjust="spacing" textLength="14.7875" font-family="sans-serif">c3</text><line x1="90" y1="147" x2="134.7875" y2="147" style="stroke:#181818;stroke-width:0.5;"/><line x1="90" y1="155" x2="134.7875" y2="155" style="stroke:#181818;stroke-width:0.5;"/></g><!--link c1 to c2--><g class="link" data-entity-1="ent0001" data-entity-2="ent0002" id="lnk4" data-source-line="5" data-link-type="dependency"><path d="M62.4,55.26 C55.56,72.94 48.0036,92.4666 41.1736,110.1266" style="stroke:#181818;stroke-width:4;stroke-dasharray:1,3;" fill="none" id="c1-to-c2" codeLine="5"/><polygon points="39.37,114.79,46.3471,107.8388,41.1736,110.1266,38.8857,104.9531,39.37,114.79" fill="#181818" style="stroke:#181818;stroke-width:4;stroke-linejoin:miter;stroke-miterlimit:10;"/></g><!--link c1 to c3--><g class="link" data-entity-1="ent0001" data-entity-2="ent0003" id="lnk5" data-source-line="6" data-link-type="dependency"><path d="M80.39,55.26 C87.23,72.94 94.7864,92.4666 101.6164,110.1266" style="stroke:#181818;stroke-width:2;stroke-dasharray:7,7;" fill="none" id="c1-to-c3" codeLine="6"/><polygon points="103.42,114.79,103.9043,104.9531,101.6164,110.1266,96.4429,107.8388,103.42,114.79" fill="#181818" style="stroke:#181818;stroke-width:2;stroke-linejoin:miter;stroke-miterlimit:10;"/></g><?plantuml-src AyxEp2j8B4hCLKWiAiel3yd8JCxEIoqkLZ3XIiv91DB9XZ264OnXp9LigA0RdP9VKfAQ4gjh1vO2YoGMPwIcw9J03B4r0iiQ0m00?></g></svg>