<svg xmlns="http://www.w3.org/2000/svg" xmlns:xlink="http://www.w3.org/1999/xlink" version="1.1" data-diagram-type="CLASS" style="width:293px;height:254px;background:#FFFFFF;" width="293px" height="254px" viewBox="0 0 293 254" zoomAndPan="magnify" preserveAspectRatio="none" contentStyleType="text/css"><?plantuml $version$?><defs/><g><!--class Dummy1--><g class="entity" data-qualified-name="Dummy1" id="ent0001" data-source-line="1"><rect x="7" y="7" width="148.85" height="104" fill="#F1F1F1" style="stroke:#181818;stroke-width:0.5;" rx="2.5" ry="2.5"/><ellipse cx="49.3825" cy="23" rx="11" ry="11" fill="#ADD1B2" style="stroke:#181818;stroke-width:1;"/><path d="M51.8556,29.1431 Q51.2746,29.4419 50.6354,29.5913 Q49.9963,29.7407 49.2907,29.7407 Q46.7839,29.7407 45.464,28.0889 Q44.1442,26.437 44.1442,23.3159 Q44.1442,20.1865 45.464,18.5347 Q46.7839,16.8828 49.2907,16.8828 Q49.9963,16.8828 50.6437,17.0322 Q51.2912,17.1816 51.8556,17.4805 L51.8556,20.2031 Q51.2248,19.6221 50.6313,19.3523 Q50.0378,19.0825 49.4069,19.0825 Q48.0622,19.0825 47.3774,20.1492 Q46.6926,21.2158 46.6926,23.3159 Q46.6926,25.4077 47.3774,26.4744 Q48.0622,27.541 49.4069,27.541 Q50.0378,27.541 50.6313,27.2712 Q51.2248,27.0015 51.8556,26.4204 Z " fill="#000000"/><text x="69.4675" y="26.8889" fill="#000000" font-size="14" lengthAdjust="spacing" textLength="56" font-family="sans-serif">Dummy1</text><line x1="8" y1="39" x2="154.85" y2="39" style="stroke:#181818;stroke-width:0.5;"/><text x="13" y="53.8889" fill="#000000" font-size="14" lengthAdjust="spacing" textLength="52.15" font-family="sans-serif">String a1</text><text x="13" y="67.8889" fill="#000000" font-size="14" lengthAdjust="spacing" textLength="41.2125" font-family="sans-serif">Date d;</text><line x1="8" y1="75" x2="154.85" y2="75" style="stroke:#181818;stroke-width:0.5;"/><text x="13" y="89.8889" fill="#000000" font-size="14" lengthAdjust="spacing" textLength="136.85" font-family="sans-serif">thisIsALongmethod1()</text><text x="13" y="103.8889" fill="#000000" font-size="14" lengthAdjust="spacing" textLength="111.125" font-family="sans-serif">anotherMetheod()</text></g><!--class Dummy2--><g class="entity" data-qualified-name="Dummy2" id="ent0002" data-source-line="9"><rect x="190.43" y="25" width="88" height="68" fill="#F1F1F1" style="stroke:#181818;stroke-width:0.5;" rx="2.5" ry="2.5"/><ellipse cx="205.43" cy="41" rx="11" ry="11" fill="#ADD1B2" style="stroke:#181818;stroke-width:1;"/><path d="M207.9031,47.1431 Q207.3221,47.4419 206.6829,47.5913 Q206.0438,47.7407 205.3382,47.7407 Q202.8314,47.7407 201.5115,46.0889 Q200.1917,44.437 200.1917,41.3159 Q200.1917,38.1865 201.5115,36.5347 Q202.8314,34.8828 205.3382,34.8828 Q206.0438,34.8828 206.6912,35.0322 Q207.3387,35.1816 207.9031,35.4805 L207.9031,38.2031 Q207.2723,37.6221 206.6788,37.3523 Q206.0853,37.0825 205.4544,37.0825 Q204.1097,37.0825 203.4249,38.1492 Q202.7401,39.2158 202.7401,41.3159 Q202.7401,43.4077 203.4249,44.4744 Q204.1097,45.541 205.4544,45.541 Q206.0853,45.541 206.6788,45.2712 Q207.2723,45.0015 207.9031,44.4204 Z " fill="#000000"/><text x="219.43" y="44.8889" fill="#000000" font-size="14" lengthAdjust="spacing" textLength="56" font-family="sans-serif">Dummy2</text><line x1="191.43" y1="57" x2="277.43" y2="57" style="stroke:#181818;stroke-width:0.5;"/><text x="196.43" y="71.8889" fill="#000000" font-size="14" lengthAdjust="spacing" textLength="52.15" font-family="sans-serif">String a1</text><text x="196.43" y="85.8889" fill="#000000" font-size="14" lengthAdjust="spacing" textLength="41.2125" font-family="sans-serif">Date d;</text></g><!--class Dummy3--><g class="entity" data-qualified-name="Dummy3" id="ent0003" data-source-line="17"><rect x="7" y="171" width="148.85" height="68" fill="#F1F1F1" style="stroke:#181818;stroke-width:0.5;" rx="2.5" ry="2.5"/><ellipse cx="49.3825" cy="187" rx="11" ry="11" fill="#ADD1B2" style="stroke:#181818;stroke-width:1;"/><path d="M51.8556,193.1431 Q51.2746,193.4419 50.6354,193.5913 Q49.9963,193.7407 49.2907,193.7407 Q46.7839,193.7407 45.464,192.0889 Q44.1442,190.437 44.1442,187.3159 Q44.1442,184.1865 45.464,182.5347 Q46.7839,180.8828 49.2907,180.8828 Q49.9963,180.8828 50.6437,181.0322 Q51.2912,181.1816 51.8556,181.4805 L51.8556,184.2031 Q51.2248,183.6221 50.6313,183.3523 Q50.0378,183.0825 49.4069,183.0825 Q48.0622,183.0825 47.3774,184.1492 Q46.6926,185.2158 46.6926,187.3159 Q46.6926,189.4077 47.3774,190.4744 Q48.0622,191.541 49.4069,191.541 Q50.0378,191.541 50.6313,191.2712 Q51.2248,191.0015 51.8556,190.4204 Z " fill="#000000"/><text x="69.4675" y="190.8889" fill="#000000" font-size="14" lengthAdjust="spacing" textLength="56" font-family="sans-serif">Dummy3</text><line x1="8" y1="203" x2="154.85" y2="203" style="stroke:#181818;stroke-width:0.5;"/><text x="13" y="217.8889" fill="#000000" font-size="14" lengthAdjust="spacing" textLength="136.85" font-family="sans-serif">thisIsALongmethod1()</text><text x="13" y="231.8889" fill="#000000" font-size="14" lengthAdjust="spacing" textLength="111.125" font-family="sans-serif">anotherMetheod()</text></g><!--class Dummy4--><g class="entity" data-qualified-name="Dummy4" id="ent0004" data-source-line="24"><rect x="190.43" y="189" width="88" height="32" fill="#F1F1F1" style="stroke:#181818;stroke-width:0.5;" rx="2.5" ry="2.5"/><ellipse cx="205.43" cy="205" rx="11" ry="11" fill="#ADD1B2" style="stroke:#181818;stroke-width:1;"/><path d="M207.9031,211.1431 Q207.3221,211.4419 206.6829,211.5913 Q206.0438,211.7407 205.3382,211.7407 Q202.8314,211.7407 201.5115,210.0889 Q200.1917,208.437 200.1917,205.3159 Q200.1917,202.1865 201.5115,200.5347 Q202.8314,198.8828 205.3382,198.8828 Q206.0438,198.8828 206.6912,199.0322 Q207.3387,199.1816 207.9031,199.4805 L207.9031,202.2031 Q207.2723,201.6221 206.6788,201.3523 Q206.0853,201.0825 205.4544,201.0825 Q204.1097,201.0825 203.4249,202.1492 Q202.7401,203.2158 202.7401,205.3159 Q202.7401,207.4077 203.4249,208.4744 Q204.1097,209.541 205.4544,209.541 Q206.0853,209.541 206.6788,209.2712 Q207.2723,209.0015 207.9031,208.4204 Z " fill="#000000"/><text x="219.43" y="208.8889" fill="#000000" font-size="14" lengthAdjust="spacing" textLength="56" font-family="sans-serif">Dummy4</text></g><?plantuml-src Iyv9B2vMS2dDpQqqLAZcKb0eoSWizYnszCdFIyzDBSd8Jp7Kq0GA9-RbbsIa5la2XLBpKy12G1HSKfIPbwwGQ0XakoIMf2gaM7FLSd4b8mmreeMXnYGQIjX44-gOc96PaWhpDyI4OYGnOuN44g2-fDAIL6HX4onAJP2LSW40?></g></svg>