<svg xmlns="http://www.w3.org/2000/svg" xmlns:xlink="http://www.w3.org/1999/xlink" version="1.1" data-diagram-type="CLASS" style="width:170px;height:234px;background:#FFFFFF;" width="170px" height="234px" viewBox="0 0 170 234" zoomAndPan="magnify" preserveAspectRatio="none" contentStyleType="text/css"><?plantuml $version$?><defs/><g><!--class Dummy1--><g class="entity" data-qualified-name="Dummy1" id="ent0001" data-source-line="2"><rect x="7" y="7" width="148.85" height="104" fill="#F1F1F1" style="stroke:#181818;stroke-width:0.5;" rx="2.5" ry="2.5"/><ellipse cx="49.3825" cy="23" rx="11" ry="11" fill="#ADD1B2" style="stroke:#181818;stroke-width:1;"/><path d="M51.8556,29.1431 Q51.2746,29.4419 50.6354,29.5913 Q49.9963,29.7407 49.2907,29.7407 Q46.7839,29.7407 45.464,28.0889 Q44.1442,26.437 44.1442,23.3159 Q44.1442,20.1865 45.464,18.5347 Q46.7839,16.8828 49.2907,16.8828 Q49.9963,16.8828 50.6437,17.0322 Q51.2912,17.1816 51.8556,17.4805 L51.8556,20.2031 Q51.2248,19.6221 50.6313,19.3523 Q50.0378,19.0825 49.4069,19.0825 Q48.0622,19.0825 47.3774,20.1492 Q46.6926,21.2158 46.6926,23.3159 Q46.6926,25.4077 47.3774,26.4744 Q48.0622,27.541 49.4069,27.541 Q50.0378,27.541 50.6313,27.2712 Q51.2248,27.0015 51.8556,26.4204 Z " fill="#000000"/><text x="69.4675" y="26.8889" fill="#000000" font-size="14" lengthAdjust="spacing" textLength="56" font-family="sans-serif">Dummy1</text><line x1="8" y1="39" x2="154.85" y2="39" style="stroke:#181818;stroke-width:0.5;"/><text x="13" y="53.8889" fill="#000000" font-size="14" lengthAdjust="spacing" textLength="52.15" font-family="sans-serif">String a1</text><text x="13" y="67.8889" fill="#000000" font-size="14" lengthAdjust="spacing" textLength="41.2125" font-family="sans-serif">Date d;</text><line x1="8" y1="75" x2="154.85" y2="75" style="stroke:#181818;stroke-width:0.5;"/><text x="13" y="89.8889" fill="#000000" font-size="14" lengthAdjust="spacing" textLength="136.85" font-family="sans-serif">thisIsALongmethod1()</text><text x="13" y="103.8889" fill="#000000" font-size="14" lengthAdjust="spacing" textLength="111.125" font-family="sans-serif">anotherMetheod()</text></g><!--class Dummy2--><g class="entity" data-qualified-name="Dummy2" id="ent0002" data-source-line="10"><rect x="37.43" y="171" width="88" height="48" fill="#F1F1F1" style="stroke:#181818;stroke-width:0.5;" rx="2.5" ry="2.5"/><ellipse cx="52.43" cy="187" rx="11" ry="11" fill="#ADD1B2" style="stroke:#181818;stroke-width:1;"/><path d="M54.9031,193.1431 Q54.3221,193.4419 53.6829,193.5913 Q53.0438,193.7407 52.3382,193.7407 Q49.8314,193.7407 48.5115,192.0889 Q47.1917,190.437 47.1917,187.3159 Q47.1917,184.1865 48.5115,182.5347 Q49.8314,180.8828 52.3382,180.8828 Q53.0438,180.8828 53.6912,181.0322 Q54.3387,181.1816 54.9031,181.4805 L54.9031,184.2031 Q54.2723,183.6221 53.6788,183.3523 Q53.0853,183.0825 52.4544,183.0825 Q51.1097,183.0825 50.4249,184.1492 Q49.7401,185.2158 49.7401,187.3159 Q49.7401,189.4077 50.4249,190.4744 Q51.1097,191.541 52.4544,191.541 Q53.0853,191.541 53.6788,191.2712 Q54.2723,191.0015 54.9031,190.4204 Z " fill="#000000"/><text x="66.43" y="190.8889" fill="#000000" font-size="14" lengthAdjust="spacing" textLength="56" font-family="sans-serif">Dummy2</text><line x1="38.43" y1="203" x2="124.43" y2="203" style="stroke:#181818;stroke-width:0.5;"/><line x1="38.43" y1="211" x2="124.43" y2="211" style="stroke:#181818;stroke-width:0.5;"/></g><!--link Dummy1 to Dummy2--><g class="link" data-entity-1="ent0001" data-entity-2="ent0002" id="lnk3" data-source-line="13" data-link-type="association"><path d="M81.42,111.42 C81.42,131.8 81.42,154.2 81.42,170.52" style="stroke:#181818;stroke-width:1;" fill="none" id="Dummy1-Dummy2" codeLine="13"/></g><?plantuml-src Iyv9B2vMS2dDpQqqLAZcKb0eoSWizYnszCdFIyzDBSd8Jp7Kq0GA9-RbbsIa5la2XLBpKy12G1HSKfIPbwwGQ0XakoIMf2gaM7FLSd4b8mmr0XeA585QeAiB5UK20000?></g></svg>