<svg xmlns="http://www.w3.org/2000/svg" xmlns:xlink="http://www.w3.org/1999/xlink" version="1.1" data-diagram-type="CLASS" style="width:322px;height:182px;background:#FFFFFF;" width="322px" height="182px" viewBox="0 0 322 182" zoomAndPan="magnify" preserveAspectRatio="none" contentStyleType="text/css"><?plantuml $version$?><defs/><g><!--class AliceMyStyle--><g class="entity" data-qualified-name="AliceMyStyle" id="ent0001" data-source-line="12"><rect x="7" y="9" width="112.2375" height="48" fill="#00FFFF" style="stroke:#181818;stroke-width:0.5;" rx="2.5" ry="2.5"/><ellipse cx="22" cy="25" rx="11" ry="11" fill="#ADD1B2" style="stroke:#181818;stroke-width:1;"/><path d="M24.4731,31.1431 Q23.8921,31.4419 23.2529,31.5913 Q22.6138,31.7407 21.9082,31.7407 Q19.4014,31.7407 18.0815,30.0889 Q16.7617,28.437 16.7617,25.3159 Q16.7617,22.1865 18.0815,20.5347 Q19.4014,18.8828 21.9082,18.8828 Q22.6138,18.8828 23.2612,19.0322 Q23.9087,19.1816 24.4731,19.4805 L24.4731,22.2031 Q23.8423,21.6221 23.2488,21.3523 Q22.6553,21.0825 22.0244,21.0825 Q20.6797,21.0825 19.9949,22.1492 Q19.3101,23.2158 19.3101,25.3159 Q19.3101,27.4077 19.9949,28.4744 Q20.6797,29.541 22.0244,29.541 Q22.6553,29.541 23.2488,29.2712 Q23.8423,29.0015 24.4731,28.4204 Z " fill="#000000"/><text x="36" y="28.8889" fill="#FF0000" font-size="14" lengthAdjust="spacing" textLength="80.2375" font-weight="700" font-family="sans-serif">AliceMyStyle</text><line x1="8" y1="41" x2="118.2375" y2="41" style="stroke:#181818;stroke-width:0.5;"/><line x1="8" y1="49" x2="118.2375" y2="49" style="stroke:#181818;stroke-width:0.5;"/></g><!--class AliceMyStyleStereo--><g class="entity" data-qualified-name="AliceMyStyleStereo" id="ent0002" data-source-line="13"><rect x="154.39" y="7" width="153.45" height="52" fill="#00FFFF" style="stroke:#181818;stroke-width:0.5;" rx="2.5" ry="2.5"/><ellipse cx="169.39" cy="25" rx="11" ry="11" fill="#ADD1B2" style="stroke:#181818;stroke-width:1;"/><path d="M171.8631,31.1431 Q171.2821,31.4419 170.6429,31.5913 Q170.0038,31.7407 169.2982,31.7407 Q166.7914,31.7407 165.4715,30.0889 Q164.1517,28.437 164.1517,25.3159 Q164.1517,22.1865 165.4715,20.5347 Q166.7914,18.8828 169.2982,18.8828 Q170.0038,18.8828 170.6512,19.0322 Q171.2987,19.1816 171.8631,19.4805 L171.8631,22.2031 Q171.2323,21.6221 170.6388,21.3523 Q170.0453,21.0825 169.4144,21.0825 Q168.0697,21.0825 167.3849,22.1492 Q166.7001,23.2158 166.7001,25.3159 Q166.7001,27.4077 167.3849,28.4744 Q168.0697,29.541 169.4144,29.541 Q170.0453,29.541 170.6388,29.2712 Q171.2323,29.0015 171.8631,28.4204 Z " fill="#000000"/><text x="217.115" y="21.3333" fill="#000000" font-size="12" lengthAdjust="spacing" textLength="54" font-style="italic" font-family="sans-serif">«mystyle»</text><text x="183.39" y="34.8889" fill="#FF0000" font-size="14" lengthAdjust="spacing" textLength="121.45" font-weight="700" font-family="sans-serif">AliceMyStyleStereo</text><line x1="155.39" y1="43" x2="306.84" y2="43" style="stroke:#181818;stroke-width:0.5;"/><line x1="155.39" y1="51" x2="306.84" y2="51" style="stroke:#181818;stroke-width:0.5;"/></g><!--class Alice--><g class="entity" data-qualified-name="Alice" id="ent0003" data-source-line="14"><rect x="31.89" y="119" width="62.45" height="48" fill="#F1F1F1" style="stroke:#181818;stroke-width:0.5;" rx="7.5" ry="7.5"/><ellipse cx="46.89" cy="135" rx="11" ry="11" fill="#ADD1B2" style="stroke:#181818;stroke-width:1;"/><path d="M49.3631,141.1431 Q48.7821,141.4419 48.1429,141.5913 Q47.5038,141.7407 46.7982,141.7407 Q44.2914,141.7407 42.9715,140.0889 Q41.6517,138.437 41.6517,135.3159 Q41.6517,132.1865 42.9715,130.5347 Q44.2914,128.8828 46.7982,128.8828 Q47.5038,128.8828 48.1512,129.0322 Q48.7987,129.1816 49.3631,129.4805 L49.3631,132.2031 Q48.7323,131.6221 48.1388,131.3523 Q47.5453,131.0825 46.9144,131.0825 Q45.5697,131.0825 44.8849,132.1492 Q44.2001,133.2158 44.2001,135.3159 Q44.2001,137.4077 44.8849,138.4744 Q45.5697,139.541 46.9144,139.541 Q47.5453,139.541 48.1388,139.2712 Q48.7323,139.0015 49.3631,138.4204 Z " fill="#000000"/><text x="60.89" y="138.8889" fill="#000000" font-size="14" lengthAdjust="spacing" textLength="30.45" font-family="sans-serif">Alice</text><line x1="32.89" y1="151" x2="93.34" y2="151" style="stroke:#181818;stroke-width:0.5;"/><line x1="32.89" y1="159" x2="93.34" y2="159" style="stroke:#181818;stroke-width:0.5;"/></g><?plantuml-src ioakgSn9jUDApaaiBdR9J4mlIinLgEPI08AW_DAy5EVyehpK8WL3Kx2GNcubM3rK1IUo4eWA471AJCvEBu98vUGNAIHN9kR19Ttoyqg2mMOuvUUae0X3L1UbGaHhkMgvRFIHdQVWc9EPdEfR2T5kOsC3TOsT7JO5mIMfHQdv2aYga1K10000?></g></svg>