<svg xmlns="http://www.w3.org/2000/svg" xmlns:xlink="http://www.w3.org/1999/xlink" version="1.1" data-diagram-type="DESCRIPTION" style="width:220px;height:360px;background:#FFFFFF;" width="220px" height="360px" viewBox="0 0 220 360" zoomAndPan="magnify" preserveAspectRatio="none" contentStyleType="text/css"><?plantuml $version$?><defs/><g><!--entity uc1--><g class="entity" data-qualified-name="uc1" id="ent0001" data-source-line="1"><ellipse cx="109.8929" cy="176.4995" rx="18.9629" ry="12.8995" fill="#F1F1F1" style="stroke:#181818;stroke-width:0.5;"/><text x="98.6054" y="179.9995" fill="#000000" font-size="14" lengthAdjust="spacing" textLength="22.575" font-family="sans-serif">uc1</text></g><!--entity ac1 right--><g class="entity" data-qualified-name="ac1 right" id="ent0002" data-source-line="1"><ellipse cx="30.8937" cy="148" rx="8" ry="8" fill="#F1F1F1" style="stroke:#181818;stroke-width:0.5;"/><path d="M30.8937,156 L30.8937,183 M17.8937,164 L43.8938,164 M30.8937,183 L17.8937,198 M30.8937,183 L43.8938,198" style="stroke:#181818;stroke-width:0.5;" fill="none"/><text x="6" y="210.3889" fill="#000000" font-size="14" lengthAdjust="spacing" textLength="49.7875" font-family="sans-serif">ac1 right</text></g><!--entity ac2 left--><g class="entity" data-qualified-name="ac2 left" id="ent0005" data-source-line="2"><ellipse cx="184.8962" cy="148" rx="8" ry="8" fill="#F1F1F1" style="stroke:#181818;stroke-width:0.5;"/><path d="M184.8962,156 L184.8962,183 M171.8962,164 L197.8962,164 M184.8962,183 L171.8962,198 M184.8962,183 L197.8962,198" style="stroke:#181818;stroke-width:0.5;" fill="none"/><text x="164.29" y="210.3889" fill="#000000" font-size="14" lengthAdjust="spacing" textLength="41.2125" font-family="sans-serif">ac2 left</text></g><!--entity ac3 down--><g class="entity" data-qualified-name="ac3 down" id="ent0007" data-source-line="3"><ellipse cx="109.8937" cy="14" rx="8" ry="8" fill="#F1F1F1" style="stroke:#181818;stroke-width:0.5;"/><path d="M109.8937,22 L109.8937,49 M96.8937,30 L122.8937,30 M109.8937,49 L96.8937,64 M109.8937,49 L122.8937,64" style="stroke:#181818;stroke-width:0.5;" fill="none"/><text x="81.85" y="76.3889" fill="#000000" font-size="14" lengthAdjust="spacing" textLength="56.0875" font-family="sans-serif">ac3 down</text></g><!--entity ac4 up--><g class="entity" data-qualified-name="ac4 up" id="ent0010" data-source-line="4"><ellipse cx="109.895" cy="282" rx="8" ry="8" fill="#F1F1F1" style="stroke:#181818;stroke-width:0.5;"/><path d="M109.895,290 L109.895,317 M96.895,298 L122.895,298 M109.895,317 L96.895,332 M109.895,317 L122.895,332" style="stroke:#181818;stroke-width:0.5;" fill="none"/><text x="90.82" y="344.3889" fill="#000000" font-size="14" lengthAdjust="spacing" textLength="38.15" font-family="sans-serif">ac4 up</text></g><!--link ac1 right to uc1--><g class="link" data-entity-1="ent0002" data-entity-2="ent0001" id="lnk4" data-source-line="1" data-link-type="dependency"><path d="M56.2,176.5 C67.66,176.5 74.13,176.5 85.6,176.5" style="stroke:#181818;stroke-width:1;" fill="none" id="ac1 right-to-uc1"/><polygon points="90.6,176.5,81.6,172.5,85.6,176.5,81.6,180.5,90.6,176.5" fill="#181818" style="stroke:#181818;stroke-width:1;stroke-linejoin:miter;stroke-miterlimit:10;"/></g><!--reverse link uc1 to ac2 left--><g class="link" data-entity-1="ent0001" data-entity-2="ent0005" id="lnk6" data-source-line="2" data-link-type="dependency"><path d="M134.23,176.5 C145.83,176.5 152.42,176.5 164.02,176.5" style="stroke:#181818;stroke-width:1;" fill="none" id="uc1-backto-ac2 left"/><polygon points="129.23,176.5,138.23,180.5,134.23,176.5,138.23,172.5,129.23,176.5" fill="#181818" style="stroke:#181818;stroke-width:1;stroke-linejoin:miter;stroke-miterlimit:10;"/></g><!--link ac3 down to uc1--><g class="link" data-entity-1="ent0007" data-entity-2="ent0001" id="lnk9" data-source-line="3" data-link-type="dependency"><path d="M109.89,79.92 C109.89,107.7 109.89,139.29 109.89,158.12" style="stroke:#181818;stroke-width:1;" fill="none" id="ac3 down-to-uc1"/><polygon points="109.89,163.12,113.89,154.12,109.89,158.12,105.89,154.12,109.89,163.12" fill="#181818" style="stroke:#181818;stroke-width:1;stroke-linejoin:miter;stroke-miterlimit:10;"/></g><!--reverse link uc1 to ac4 up--><g class="link" data-entity-1="ent0001" data-entity-2="ent0010" id="lnk11" data-source-line="4" data-link-type="dependency"><path d="M109.89,194.68 C109.89,213.45 109.89,245.17 109.89,273.04" style="stroke:#181818;stroke-width:1;" fill="none" id="uc1-backto-ac4 up"/><polygon points="109.89,189.68,105.89,198.68,109.89,194.68,113.89,198.68,109.89,189.68" fill="#181818" style="stroke:#181818;stroke-width:1;stroke-linejoin:miter;stroke-miterlimit:10;"/></g><?plantuml-src qoXDDjHKiD7DIKqhqLMmIamsL2ZAJCyeiLBWqe1AWVbWEIC5a38agT82iBYnGaf-UHwIE8WBbZ5HA2smKW00?></g></svg>