<svg xmlns="http://www.w3.org/2000/svg" xmlns:xlink="http://www.w3.org/1999/xlink" version="1.1" data-diagram-type="CLASS" style="width:171px;height:178px;background:#FFFFFF;" width="171px" height="178px" viewBox="0 0 171 178" zoomAndPan="magnify" preserveAspectRatio="none" contentStyleType="text/css"><?plantuml $version$?><defs/><g><!--class Animal--><g class="entity" data-qualified-name="Animal" id="ent0001" data-source-line="1"><rect x="43.29" y="7" width="79.2432" height="48" fill="#F1F1F1" style="stroke:#181818;stroke-width:0.5;" rx="2.5" ry="2.5"/><ellipse cx="58.29" cy="23" rx="11" ry="11" fill="#ADD1B2" style="stroke:#181818;stroke-width:1;"/><path d="M60.7631,29.1431 Q60.1821,29.4419 59.5429,29.5913 Q58.9038,29.7407 58.1982,29.7407 Q55.6914,29.7407 54.3715,28.0889 Q53.0517,26.437 53.0517,23.3159 Q53.0517,20.1865 54.3715,18.5347 Q55.6914,16.8828 58.1982,16.8828 Q58.9038,16.8828 59.5512,17.0322 Q60.1987,17.1816 60.7631,17.4805 L60.7631,20.2031 Q60.1323,19.6221 59.5388,19.3523 Q58.9453,19.0825 58.3144,19.0825 Q56.9697,19.0825 56.2849,20.1492 Q55.6001,21.2158 55.6001,23.3159 Q55.6001,25.4077 56.2849,26.4744 Q56.9697,27.541 58.3144,27.541 Q58.9453,27.541 59.5388,27.2712 Q60.1323,27.0015 60.7631,26.4204 Z " fill="#000000"/><text x="72.29" y="28.291" fill="#000000" font-size="14" lengthAdjust="spacing" textLength="47.2432" font-family="sans-serif">Animal</text><line x1="44.29" y1="39" x2="121.5332" y2="39" style="stroke:#181818;stroke-width:0.5;"/><line x1="44.29" y1="47" x2="121.5332" y2="47" style="stroke:#181818;stroke-width:0.5;"/></g><!--class Dog--><g class="entity" data-qualified-name="Dog" id="ent0002" data-source-line="2"><rect x="7" y="115" width="59.8154" height="48" fill="#F1F1F1" style="stroke:#181818;stroke-width:0.5;" rx="2.5" ry="2.5"/><ellipse cx="22" cy="131" rx="11" ry="11" fill="#ADD1B2" style="stroke:#181818;stroke-width:1;"/><path d="M24.4731,137.1431 Q23.8921,137.4419 23.2529,137.5913 Q22.6138,137.7407 21.9082,137.7407 Q19.4014,137.7407 18.0815,136.0889 Q16.7617,134.437 16.7617,131.3159 Q16.7617,128.1865 18.0815,126.5347 Q19.4014,124.8828 21.9082,124.8828 Q22.6138,124.8828 23.2612,125.0322 Q23.9087,125.1816 24.4731,125.4805 L24.4731,128.2031 Q23.8423,127.6221 23.2488,127.3523 Q22.6553,127.0825 22.0244,127.0825 Q20.6797,127.0825 19.9949,128.1492 Q19.3101,129.2158 19.3101,131.3159 Q19.3101,133.4077 19.9949,134.4744 Q20.6797,135.541 22.0244,135.541 Q22.6553,135.541 23.2488,135.2712 Q23.8423,135.0015 24.4731,134.4204 Z " fill="#000000"/><text x="36" y="136.291" fill="#000000" font-size="14" lengthAdjust="spacing" textLength="27.8154" font-family="sans-serif">Dog</text><line x1="8" y1="147" x2="65.8154" y2="147" style="stroke:#181818;stroke-width:0.5;"/><line x1="8" y1="155" x2="65.8154" y2="155" style="stroke:#181818;stroke-width:0.5;"/></g><!--class Cat--><g class="entity" data-qualified-name="Cat" id="ent0003" data-source-line="3"><rect x="101.58" y="115" width="54.6543" height="48" fill="#F1F1F1" style="stroke:#181818;stroke-width:0.5;" rx="2.5" ry="2.5"/><ellipse cx="116.58" cy="131" rx="11" ry="11" fill="#ADD1B2" style="stroke:#181818;stroke-width:1;"/><path d="M119.0531,137.1431 Q118.4721,137.4419 117.8329,137.5913 Q117.1938,137.7407 116.4882,137.7407 Q113.9814,137.7407 112.6615,136.0889 Q111.3417,134.437 111.3417,131.3159 Q111.3417,128.1865 112.6615,126.5347 Q113.9814,124.8828 116.4882,124.8828 Q117.1938,124.8828 117.8412,125.0322 Q118.4887,125.1816 119.0531,125.4805 L119.0531,128.2031 Q118.4223,127.6221 117.8288,127.3523 Q117.2353,127.0825 116.6044,127.0825 Q115.2597,127.0825 114.5749,128.1492 Q113.8901,129.2158 113.8901,131.3159 Q113.8901,133.4077 114.5749,134.4744 Q115.2597,135.541 116.6044,135.541 Q117.2353,135.541 117.8288,135.2712 Q118.4223,135.0015 119.0531,134.4204 Z " fill="#000000"/><text x="130.58" y="136.291" fill="#000000" font-size="14" lengthAdjust="spacing" textLength="22.6543" font-family="sans-serif">Cat</text><line x1="102.58" y1="147" x2="155.2343" y2="147" style="stroke:#181818;stroke-width:0.5;"/><line x1="102.58" y1="155" x2="155.2343" y2="155" style="stroke:#181818;stroke-width:0.5;"/></g><!--reverse link Animal to Dog--><g class="link" data-entity-1="ent0001" data-entity-2="ent0002" id="lnk4" data-source-line="4" data-link-type="extension"><path d="M65.6463,71.773 C57.9763,89.453 54.64,97.13 46.98,114.79" style="stroke:#181818;stroke-width:1;" fill="none" id="Animal-backto-Dog" codeLine="4"/><polygon points="72.81,55.26,60.1419,69.3851,71.1506,74.161,72.81,55.26" fill="none" style="stroke:#181818;stroke-width:1;stroke-linejoin:miter;stroke-miterlimit:10;"/></g><!--reverse link Animal to Cat--><g class="link" data-entity-1="ent0001" data-entity-2="ent0003" id="lnk5" data-source-line="5" data-link-type="extension"><path d="M100.1637,71.773 C107.8337,89.453 111.17,97.13 118.84,114.79" style="stroke:#181818;stroke-width:1;" fill="none" id="Animal-backto-Cat" codeLine="5"/><polygon points="93,55.26,94.6594,74.161,105.6681,69.3851,93,55.26" fill="none" style="stroke:#181818;stroke-width:1;stroke-linejoin:miter;stroke-miterlimit:10;"/></g><?plantuml-src Iyv9B2vMSCpBp4tCuKe6Srpoqw4ivyGIBeYKWasDhYvO1faFb0S0?></g></svg>