<svg xmlns="http://www.w3.org/2000/svg" xmlns:xlink="http://www.w3.org/1999/xlink" version="1.1" data-diagram-type="CLASS" style="width:280px;height:112px;background:#FFFFFF;" width="280px" height="112px" viewBox="0 0 280 112" zoomAndPan="magnify" preserveAspectRatio="none" contentStyleType="text/css"><?plantuml $version$?><defs/><g><!--class foo1--><g class="entity" data-qualified-name="foo1" id="ent0001" data-source-line="7"><rect x="160.41" y="7" width="104.6625" height="90" fill="#F1F1F1" style="stroke:#181818;stroke-width:0.5;" rx="2.5" ry="2.5"/><ellipse cx="195.8625" cy="23" rx="11" ry="11" fill="#ADD1B2" style="stroke:#181818;stroke-width:1;"/><path d="M198.3356,29.1431 Q197.7546,29.4419 197.1154,29.5913 Q196.4763,29.7407 195.7707,29.7407 Q193.2639,29.7407 191.944,28.0889 Q190.6242,26.437 190.6242,23.3159 Q190.6242,20.1865 191.944,18.5347 Q193.2639,16.8828 195.7707,16.8828 Q196.4763,16.8828 197.1237,17.0322 Q197.7712,17.1816 198.3356,17.4805 L198.3356,20.2031 Q197.7048,19.6221 197.1113,19.3523 Q196.5178,19.0825 195.8869,19.0825 Q194.5422,19.0825 193.8574,20.1492 Q193.1726,21.2158 193.1726,23.3159 Q193.1726,25.4077 193.8574,26.4744 Q194.5422,27.541 195.8869,27.541 Q196.5178,27.541 197.1113,27.2712 Q197.7048,27.0015 198.3356,26.4204 Z " fill="#000000"/><text x="214.4075" y="26.8889" fill="#000000" font-size="14" lengthAdjust="spacing" textLength="27.2125" font-family="sans-serif">foo1</text><line x1="161.41" y1="39" x2="264.0725" y2="39" style="stroke:#181818;stroke-width:0.5;"/><text x="166.41" y="53.8889" fill="#000000" font-size="14" lengthAdjust="spacing" textLength="21.7875" font-family="sans-serif">this</text><text x="188.1975" y="53.8889" fill="#000000" font-size="14" lengthAdjust="spacing" textLength="3.85" font-family="sans-serif"> </text><text x="188.1975" y="53.8889" fill="#000000" font-size="14" lengthAdjust="spacing" textLength="10.15" font-family="sans-serif">is</text><text x="198.3475" y="53.8889" fill="#000000" font-size="14" lengthAdjust="spacing" textLength="3.85" font-family="sans-serif"> </text><text x="198.3475" y="53.8889" fill="#000000" font-size="14" lengthAdjust="spacing" textLength="7.7875" font-family="sans-serif">a</text><text x="206.135" y="53.8889" fill="#000000" font-size="14" lengthAdjust="spacing" textLength="3.85" font-family="sans-serif"> </text><text x="206.135" y="53.8889" fill="#000000" font-size="14" lengthAdjust="spacing" textLength="26.425" font-family="sans-serif">very</text><text x="232.56" y="53.8889" fill="#000000" font-size="14" lengthAdjust="spacing" textLength="3.85" font-family="sans-serif"> </text><text x="232.56" y="53.8889" fill="#000000" font-size="14" lengthAdjust="spacing" textLength="26.5125" font-family="sans-serif">long</text><text x="166.41" y="67.8889" fill="#000000" font-size="14" lengthAdjust="spacing" textLength="67.725" font-family="sans-serif">description</text><text x="234.135" y="67.8889" fill="#000000" font-size="14" lengthAdjust="spacing" textLength="3.85" font-family="sans-serif"> </text><text x="234.135" y="67.8889" fill="#000000" font-size="14" lengthAdjust="spacing" textLength="16.275" font-family="sans-serif">for</text><text x="166.41" y="81.8889" fill="#000000" font-size="14" lengthAdjust="spacing" textLength="31.9375" font-family="sans-serif">class</text><line x1="161.41" y1="89" x2="264.0725" y2="89" style="stroke:#181818;stroke-width:0.5;"/></g><g class="entity" data-qualified-name="GMN2" id="ent0003" data-source-line="12"><path d="M6,21 L6,83 A0,0 0 0 0 6,83 L125.475,83 A0,0 0 0 0 125.475,83 L125.475,56 L160.07,52 L125.475,48 L125.475,31 L115.475,21 L6,21 A0,0 0 0 0 6,21" style="stroke:#181818;stroke-width:0.5;" fill="#FEFFDD"/><path d="M115.475,21 L115.475,31 L125.475,31 L115.475,21" style="stroke:#181818;stroke-width:0.5;" fill="#FEFFDD"/><text x="12" y="36.1111" fill="#000000" font-size="13" lengthAdjust="spacing" textLength="20.2313" font-family="sans-serif">this</text><text x="32.2313" y="36.1111" fill="#000000" font-size="13" lengthAdjust="spacing" textLength="3.575" font-family="sans-serif"> </text><text x="32.2313" y="36.1111" fill="#000000" font-size="13" lengthAdjust="spacing" textLength="9.425" font-family="sans-serif">is</text><text x="41.6563" y="36.1111" fill="#000000" font-size="13" lengthAdjust="spacing" textLength="3.575" font-family="sans-serif"> </text><text x="41.6563" y="36.1111" fill="#000000" font-size="13" lengthAdjust="spacing" textLength="7.2313" font-family="sans-serif">a</text><text x="48.8875" y="36.1111" fill="#000000" font-size="13" lengthAdjust="spacing" textLength="3.575" font-family="sans-serif"> </text><text x="48.8875" y="36.1111" fill="#000000" font-size="13" lengthAdjust="spacing" textLength="24.5375" font-family="sans-serif">very</text><text x="73.425" y="36.1111" fill="#000000" font-size="13" lengthAdjust="spacing" textLength="3.575" font-family="sans-serif"> </text><text x="73.425" y="36.1111" fill="#000000" font-size="13" lengthAdjust="spacing" textLength="24.6188" font-family="sans-serif">long</text><text x="12" y="49.1111" fill="#000000" font-size="13" lengthAdjust="spacing" textLength="24.6188" font-family="sans-serif">long</text><text x="36.6188" y="49.1111" fill="#000000" font-size="13" lengthAdjust="spacing" textLength="3.575" font-family="sans-serif"> </text><text x="36.6188" y="49.1111" fill="#000000" font-size="13" lengthAdjust="spacing" textLength="24.6188" font-family="sans-serif">long</text><text x="61.2375" y="49.1111" fill="#000000" font-size="13" lengthAdjust="spacing" textLength="3.575" font-family="sans-serif"> </text><text x="61.2375" y="49.1111" fill="#000000" font-size="13" lengthAdjust="spacing" textLength="24.6188" font-family="sans-serif">long</text><text x="85.8562" y="49.1111" fill="#000000" font-size="13" lengthAdjust="spacing" textLength="3.575" font-family="sans-serif"> </text><text x="85.8562" y="49.1111" fill="#000000" font-size="13" lengthAdjust="spacing" textLength="24.6188" font-family="sans-serif">long</text><text x="12" y="62.1111" fill="#000000" font-size="13" lengthAdjust="spacing" textLength="62.8875" font-family="sans-serif">description</text><text x="74.8875" y="62.1111" fill="#000000" font-size="13" lengthAdjust="spacing" textLength="3.575" font-family="sans-serif"> </text><text x="74.8875" y="62.1111" fill="#000000" font-size="13" lengthAdjust="spacing" textLength="15.1125" font-family="sans-serif">for</text><text x="12" y="75.1111" fill="#000000" font-size="13" lengthAdjust="spacing" textLength="25.2688" font-family="sans-serif">note</text></g><?plantuml-src ROp12i8m44Jl-nNp1xRtuXzuzXoQhLr8Df9TnIB-UwFsL0h3C8StRp1V4f-94sTMnvk0ItX9VkIhH9_HTnrzQ3Xj78qfc64gfM-ips9e2NXoNP2AtX3PnYftbw8Dg_WTceAqE2Fnv8UtezghlWPYZV-n0W00?></g></svg>