<svg xmlns="http://www.w3.org/2000/svg" xmlns:xlink="http://www.w3.org/1999/xlink" version="1.1" data-diagram-type="CLASS" style="width:101px;height:200px;background:#FFFFFF;" width="101px" height="200px" viewBox="0 0 101 200" zoomAndPan="magnify" preserveAspectRatio="none" contentStyleType="text/css"><?plantuml $version$?><defs/><g><!--class class1--><g class="entity" data-qualified-name="class1" id="ent0001" data-source-line="2"><rect x="7" y="7" width="80.746" height="48" fill="#F1F1F1" style="stroke:#181818;stroke-width:0.5;" rx="2.5" ry="2.5"/><ellipse cx="25.0019" cy="23" rx="11" ry="11" fill="#ADD1B2" style="stroke:#181818;stroke-width:1;"/><path d="M27.475,29.1431 Q26.894,29.4419 26.2548,29.5913 Q25.6156,29.7407 24.9101,29.7407 Q22.4032,29.7407 21.0834,28.0889 Q19.7636,26.437 19.7636,23.3159 Q19.7636,20.1865 21.0834,18.5347 Q22.4032,16.8828 24.9101,16.8828 Q25.6156,16.8828 26.2631,17.0322 Q26.9106,17.1816 27.475,17.4805 L27.475,20.2031 Q26.8441,19.6221 26.2506,19.3523 Q25.6571,19.0825 25.0263,19.0825 Q23.6815,19.0825 22.9967,20.1492 Q22.3119,21.2158 22.3119,23.3159 Q22.3119,25.4077 22.9967,26.4744 Q23.6815,27.541 25.0263,27.541 Q25.6571,27.541 26.2506,27.2712 Q26.8441,27.0015 27.475,26.4204 Z " fill="#000000"/><text x="39.6689" y="28.291" fill="#000000" font-size="14" lengthAdjust="spacing" textLength="42.0752" font-family="sans-serif">class1</text><line x1="8" y1="39" x2="86.746" y2="39" style="stroke:#181818;stroke-width:0.5;"/><line x1="8" y1="47" x2="86.746" y2="47" style="stroke:#181818;stroke-width:0.5;"/></g><!--class class2--><g class="entity" data-qualified-name="class2" id="ent0002" data-source-line="3"><rect x="9.96" y="137" width="74.0752" height="48" fill="#F1F1F1" style="stroke:#181818;stroke-width:0.5;" rx="2.5" ry="2.5"/><ellipse cx="24.96" cy="153" rx="11" ry="11" fill="#ADD1B2" style="stroke:#181818;stroke-width:1;"/><path d="M27.4331,159.1431 Q26.8521,159.4419 26.2129,159.5913 Q25.5738,159.7407 24.8682,159.7407 Q22.3614,159.7407 21.0415,158.0889 Q19.7217,156.437 19.7217,153.3159 Q19.7217,150.1865 21.0415,148.5347 Q22.3614,146.8828 24.8682,146.8828 Q25.5738,146.8828 26.2212,147.0322 Q26.8687,147.1816 27.4331,147.4805 L27.4331,150.2031 Q26.8023,149.6221 26.2088,149.3523 Q25.6153,149.0825 24.9844,149.0825 Q23.6397,149.0825 22.9549,150.1492 Q22.2701,151.2158 22.2701,153.3159 Q22.2701,155.4077 22.9549,156.4744 Q23.6397,157.541 24.9844,157.541 Q25.6153,157.541 26.2088,157.2712 Q26.8023,157.0015 27.4331,156.4204 Z " fill="#000000"/><text x="38.96" y="158.291" fill="#000000" font-size="14" lengthAdjust="spacing" textLength="42.0752" font-family="sans-serif">class2</text><line x1="10.96" y1="169" x2="83.0352" y2="169" style="stroke:#181818;stroke-width:0.5;"/><line x1="10.96" y1="177" x2="83.0352" y2="177" style="stroke:#181818;stroke-width:0.5;"/></g><!--reverse link class1 to class2--><g class="link" data-entity-1="ent0001" data-entity-2="ent0002" id="lnk3" data-source-line="5" data-link-type="dependency"><path d="M47,78.3683 C47,101.5283 47,113.64 47,136.88" style="stroke:#181818;stroke-width:1;" fill="none" id="class1-backto-class2" codeLine="5"/><polygon points="47,73.3683,43,82.3683,47,78.3683,51,82.3683,47,73.3683" fill="#181818" style="stroke:#181818;stroke-width:1;stroke-linejoin:miter;stroke-miterlimit:10;"/><rect x="15.9438" y="54.88" width="62.1123" height="18.4883" fill="#F1F1F1" style="stroke:#181818;stroke-width:0.5;"/><text x="17.9438" y="69.4152" fill="#000000" font-size="14" lengthAdjust="spacing" textLength="58.1123" font-family="sans-serif">Qualifier</text></g><?plantuml-src KomeIapFJLGeBalDZYyfIanELSZFuqhEIImkLW2JXiWS8ou8pr0XEh0qCISpBJErA5R1HbSNAWq0?></g></svg>