<svg xmlns="http://www.w3.org/2000/svg" xmlns:xlink="http://www.w3.org/1999/xlink" version="1.1" data-diagram-type="CLASS" style="width:186px;height:178px;background:#FFFFFF;" width="186px" height="178px" viewBox="0 0 186 178" zoomAndPan="magnify" preserveAspectRatio="none" contentStyleType="text/css"><?plantuml $version$?><defs/><g><!--class bob--><g class="entity" data-qualified-name="bob" id="ent0001" data-source-line="3"><rect x="59.76" y="7" width="55.3625" height="48" fill="#F1F1F1" style="stroke:#181818;stroke-width:0.5;" rx="2.5" ry="2.5"/><ellipse cx="74.76" cy="23" rx="11" ry="11" fill="#ADD1B2" style="stroke:#181818;stroke-width:1;"/><path d="M77.2331,29.1431 Q76.6521,29.4419 76.0129,29.5913 Q75.3738,29.7407 74.6682,29.7407 Q72.1614,29.7407 70.8415,28.0889 Q69.5217,26.437 69.5217,23.3159 Q69.5217,20.1865 70.8415,18.5347 Q72.1614,16.8828 74.6682,16.8828 Q75.3738,16.8828 76.0212,17.0322 Q76.6687,17.1816 77.2331,17.4805 L77.2331,20.2031 Q76.6023,19.6221 76.0088,19.3523 Q75.4153,19.0825 74.7844,19.0825 Q73.4397,19.0825 72.7549,20.1492 Q72.0701,21.2158 72.0701,23.3159 Q72.0701,25.4077 72.7549,26.4744 Q73.4397,27.541 74.7844,27.541 Q75.4153,27.541 76.0088,27.2712 Q76.6023,27.0015 77.2331,26.4204 Z " fill="#000000"/><text x="88.76" y="26.8889" fill="#000000" font-size="14" lengthAdjust="spacing" textLength="23.3625" font-family="sans-serif">bob</text><line x1="60.76" y1="39" x2="114.1225" y2="39" style="stroke:#181818;stroke-width:0.5;"/><line x1="60.76" y1="47" x2="114.1225" y2="47" style="stroke:#181818;stroke-width:0.5;"/></g><!--class alice--><g class="entity" data-qualified-name="alice" id="ent0002" data-source-line="4"><rect x="7" y="115" width="60.875" height="48" fill="#F1F1F1" style="stroke:#181818;stroke-width:0.5;" rx="2.5" ry="2.5"/><ellipse cx="22" cy="131" rx="11" ry="11" fill="#ADD1B2" style="stroke:#181818;stroke-width:1;"/><path d="M24.4731,137.1431 Q23.8921,137.4419 23.2529,137.5913 Q22.6138,137.7407 21.9082,137.7407 Q19.4014,137.7407 18.0815,136.0889 Q16.7617,134.437 16.7617,131.3159 Q16.7617,128.1865 18.0815,126.5347 Q19.4014,124.8828 21.9082,124.8828 Q22.6138,124.8828 23.2612,125.0322 Q23.9087,125.1816 24.4731,125.4805 L24.4731,128.2031 Q23.8423,127.6221 23.2488,127.3523 Q22.6553,127.0825 22.0244,127.0825 Q20.6797,127.0825 19.9949,128.1492 Q19.3101,129.2158 19.3101,131.3159 Q19.3101,133.4077 19.9949,134.4744 Q20.6797,135.541 22.0244,135.541 Q22.6553,135.541 23.2488,135.2712 Q23.8423,135.0015 24.4731,134.4204 Z " fill="#000000"/><text x="36" y="134.8889" fill="#000000" font-size="14" lengthAdjust="spacing" textLength="28.875" font-family="sans-serif">alice</text><line x1="8" y1="147" x2="66.875" y2="147" style="stroke:#181818;stroke-width:0.5;"/><line x1="8" y1="155" x2="66.875" y2="155" style="stroke:#181818;stroke-width:0.5;"/></g><!--class alice1--><g class="entity" data-qualified-name="alice1" id="ent0004" data-source-line="5"><rect x="103.11" y="115" width="68.6625" height="48" fill="#F1F1F1" style="stroke:#181818;stroke-width:0.5;" rx="2.5" ry="2.5"/><ellipse cx="118.11" cy="131" rx="11" ry="11" fill="#ADD1B2" style="stroke:#181818;stroke-width:1;"/><path d="M120.5831,137.1431 Q120.0021,137.4419 119.3629,137.5913 Q118.7238,137.7407 118.0182,137.7407 Q115.5114,137.7407 114.1915,136.0889 Q112.8717,134.437 112.8717,131.3159 Q112.8717,128.1865 114.1915,126.5347 Q115.5114,124.8828 118.0182,124.8828 Q118.7238,124.8828 119.3712,125.0322 Q120.0187,125.1816 120.5831,125.4805 L120.5831,128.2031 Q119.9523,127.6221 119.3588,127.3523 Q118.7653,127.0825 118.1344,127.0825 Q116.7897,127.0825 116.1049,128.1492 Q115.4201,129.2158 115.4201,131.3159 Q115.4201,133.4077 116.1049,134.4744 Q116.7897,135.541 118.1344,135.541 Q118.7653,135.541 119.3588,135.2712 Q119.9523,135.0015 120.5831,134.4204 Z " fill="#000000"/><text x="132.11" y="134.8889" fill="#000000" font-size="14" lengthAdjust="spacing" textLength="36.6625" font-family="sans-serif">alice1</text><line x1="104.11" y1="147" x2="170.7725" y2="147" style="stroke:#181818;stroke-width:0.5;"/><line x1="104.11" y1="155" x2="170.7725" y2="155" style="stroke:#181818;stroke-width:0.5;"/></g><!--link bob to alice--><g class="link" data-entity-1="ent0001" data-entity-2="ent0002" id="lnk3" data-source-line="4" data-link-type="dependency"><path d="M73.0503,62.497 C64.7203,80.177 58.8431,92.6078 50.5131,110.2678" style="stroke:#181818;stroke-width:1;" fill="none" id="bob-alice" codeLine="4"/><path d="M70.7104,58.0782 L74.5377,68.7249 M77.9474,61.488 L67.3007,65.3152" style="stroke:#181818;stroke-width:1;" fill="none"/><polygon points="48.38,114.79,55.8372,108.3565,50.5131,110.2678,48.6018,104.9436,48.38,114.79" fill="#181818" style="stroke:#181818;stroke-width:1;stroke-linejoin:miter;stroke-miterlimit:10;"/></g><!--reverse link bob to alice1--><g class="link" data-entity-1="ent0001" data-entity-2="ent0004" id="lnk5" data-source-line="5" data-link-type="not_navigable"><path d="M101.8231,62.4954 C110.1631,80.1754 118.16,97.13 126.49,114.79" style="stroke:#181818;stroke-width:1;" fill="none" id="bob-backto-alice1" codeLine="5"/><path d="M96.9255,61.4887 L107.5739,65.311 M104.1609,58.0756 L100.3386,68.7241" style="stroke:#181818;stroke-width:1;" fill="none"/></g><?plantuml-src KomeIapFJLGeBalDZYyfIanELSZFu-9ApaaiBbP8oa_Y0cA52brTEuN4dCpaL1WNmZC40000?></g></svg>