<svg xmlns="http://www.w3.org/2000/svg" xmlns:xlink="http://www.w3.org/1999/xlink" version="1.1" data-diagram-type="CLASS" style="width:122px;height:70px;background:#FFFFFF;" width="122px" height="70px" viewBox="0 0 122 70" zoomAndPan="magnify" preserveAspectRatio="none" contentStyleType="text/css"><?plantuml $version$?><defs/><g><!--class foo--><g class="entity" data-qualified-name="foo" id="ent0001" data-source-line="1"><rect x="56.3963" y="7" width="51.425" height="48" fill="#F1F1F1" style="stroke:#181818;stroke-width:0.5;" rx="2.5" ry="2.5"/><ellipse cx="71.3963" cy="23" rx="11" ry="11" fill="#ADD1B2" style="stroke:#181818;stroke-width:1;"/><path d="M73.8694,29.1431 Q73.2883,29.4419 72.6492,29.5913 Q72.01,29.7407 71.3045,29.7407 Q68.7976,29.7407 67.4778,28.0889 Q66.158,26.437 66.158,23.3159 Q66.158,20.1865 67.4778,18.5347 Q68.7976,16.8828 71.3045,16.8828 Q72.01,16.8828 72.6575,17.0322 Q73.3049,17.1816 73.8694,17.4805 L73.8694,20.2031 Q73.2385,19.6221 72.645,19.3523 Q72.0515,19.0825 71.4207,19.0825 Q70.0759,19.0825 69.3911,20.1492 Q68.7063,21.2158 68.7063,23.3159 Q68.7063,25.4077 69.3911,26.4744 Q70.0759,27.541 71.4207,27.541 Q72.0515,27.541 72.645,27.2712 Q73.2385,27.0015 73.8694,26.4204 Z " fill="#000000"/><text x="85.3963" y="26.8889" fill="#000000" font-size="14" lengthAdjust="spacing" textLength="19.425" font-family="sans-serif">foo</text><line x1="57.3963" y1="39" x2="106.8213" y2="39" style="stroke:#181818;stroke-width:0.5;"/><line x1="57.3963" y1="47" x2="106.8213" y2="47" style="stroke:#181818;stroke-width:0.5;"/></g><g class="entity" data-qualified-name="foolol2" id="ent0003" data-source-line="2"><ellipse cx="16.1063" cy="31" rx="5" ry="5" fill="#F1F1F1" style="stroke:#181818;stroke-width:1.5;"/></g><text x="6" y="46.8889" fill="#000000" font-size="14" lengthAdjust="spacing" textLength="20.2125" font-family="sans-serif">bar</text><!--link foolol2 to foo--><g class="link" data-entity-1="ent0003" data-entity-2="ent0001" id="lnk4" data-source-line="2" data-link-type="association"><path d="M21.5163,31 C33.0363,31 44.5563,31 56.0763,31" style="stroke:#181818;stroke-width:1;" fill="none" id="foolol2-foo"/></g><?plantuml-src Iyv9B2vMIClFvqfAB5BGqDG5iG40?></g></svg>