<svg xmlns="http://www.w3.org/2000/svg" xmlns:xlink="http://www.w3.org/1999/xlink" version="1.1" data-diagram-type="CLASS" style="width:522px;height:139px;background:#FFFFFF;" width="522px" height="139px" viewBox="0 0 522 139" zoomAndPan="magnify" preserveAspectRatio="none" contentStyleType="text/css"><?plantuml $version$?><defs/><g><g class="title" data-source-line="1"><text x="10" y="20.8889" fill="#000000" font-size="14" lengthAdjust="spacing" textLength="495.1625" font-weight="700" font-family="sans-serif">Class title should be size 14 and bold, attributes and methods should be size 18 and italic.</text></g><!--class Class--><g class="entity" data-qualified-name="Class" id="ent0001" data-source-line="8"><rect x="204.1312" y="42" width="107.9" height="84" fill="#F1F1F1" style="stroke:#181818;stroke-width:0.5;" rx="2.5" ry="2.5"/><ellipse cx="237.4969" cy="58" rx="11" ry="11" fill="#ADD1B2" style="stroke:#181818;stroke-width:1;"/><path d="M239.97,64.1431 Q239.389,64.4419 238.7498,64.5913 Q238.1106,64.7407 237.4051,64.7407 Q234.8982,64.7407 233.5784,63.0889 Q232.2586,61.437 232.2586,58.3159 Q232.2586,55.1865 233.5784,53.5347 Q234.8982,51.8828 237.4051,51.8828 Q238.1106,51.8828 238.7581,52.0322 Q239.4056,52.1816 239.97,52.4805 L239.97,55.2031 Q239.3392,54.6221 238.7457,54.3523 Q238.1521,54.0825 237.5213,54.0825 Q236.1766,54.0825 235.4917,55.1492 Q234.8069,56.2158 234.8069,58.3159 Q234.8069,60.4077 235.4917,61.4744 Q236.1766,62.541 237.5213,62.541 Q238.1521,62.541 238.7457,62.2712 Q239.3392,62.0015 239.97,61.4204 Z " fill="#000000"/><text x="255.5781" y="61.8889" fill="#000000" font-size="14" lengthAdjust="spacing" textLength="35.0875" font-weight="700" font-family="sans-serif">Class</text><line x1="205.1312" y1="74" x2="311.0312" y2="74" style="stroke:#181818;stroke-width:0.5;"/><g data-visibility-modifier="PRIVATE_FIELD"><rect x="212.1312" y="85.5" width="6" height="6" fill="none" style="stroke:#C82930;stroke-width:1;"/></g><text x="224.1312" y="92" fill="#000000" font-size="18" lengthAdjust="spacing" textLength="35.8875" font-style="italic" font-family="sans-serif">attr1</text><line x1="205.1312" y1="100" x2="311.0312" y2="100" style="stroke:#181818;stroke-width:1;"/><g data-visibility-modifier="PUBLIC_METHOD"><ellipse cx="215.1312" cy="114.5" rx="3" ry="3" fill="#84BE84" style="stroke:#038048;stroke-width:1;"/></g><text x="224.1312" y="118" fill="#000000" font-size="18" lengthAdjust="spacing" textLength="81.9" font-style="italic" font-family="sans-serif">method1()</text></g><?plantuml-src TKzB2i903DtFAR9Kj4B1XLiHl80dI3i33Kvdf4aNLNftfmbIKCmcBv-NboSaCS0b8ZE8Okxo63qq1T4pG7q4JANCqUy1HGPgHWcipJv8bpt_K4uw9S58xS7ndT831-pXvQ24Yfq_bwuvoKsc8cpx_rRiy3fTUSjhNtrxtCskLMDcpzIhnKDjiDAqCnlrPklcDm00?></g></svg>