<svg xmlns="http://www.w3.org/2000/svg" xmlns:xlink="http://www.w3.org/1999/xlink" version="1.1" data-diagram-type="CLASS" style="width:139px;height:166px;background:#FFFFFF;" width="139px" height="166px" viewBox="0 0 139 166" zoomAndPan="magnify" preserveAspectRatio="none" contentStyleType="text/css"><?plantuml $version$?><defs/><g><g class="title" data-source-line="1"><text x="45.875" y="20.8889" fill="#000000" font-size="14" lengthAdjust="spacing" textLength="40.425" font-weight="700" font-family="sans-serif">my title</text></g><g class="legend" data-source-line="2"><rect x="12" y="47" width="108.175" height="38" fill="#DDDDDD" style="stroke:#000000;stroke-width:1;" rx="7.5" ry="7.5"/><text x="17" y="62.8889" fill="#000000" font-size="14" lengthAdjust="spacing" textLength="98.175" font-family="sans-serif">This is the legend</text><text x="17" y="76.8889" fill="#000000" font-size="14" lengthAdjust="spacing" textLength="89.6" font-family="sans-serif">on several lines</text></g><!--class foo--><g class="entity" data-qualified-name="foo" id="ent0001" data-source-line="7"><rect x="40.875" y="105" width="51.425" height="48" fill="#F1F1F1" style="stroke:#181818;stroke-width:0.5;" rx="2.5" ry="2.5"/><ellipse cx="55.875" cy="121" rx="11" ry="11" fill="#ADD1B2" style="stroke:#181818;stroke-width:1;"/><path d="M58.3481,127.1431 Q57.7671,127.4419 57.1279,127.5913 Q56.4888,127.7407 55.7832,127.7407 Q53.2764,127.7407 51.9565,126.0889 Q50.6367,124.437 50.6367,121.3159 Q50.6367,118.1865 51.9565,116.5347 Q53.2764,114.8828 55.7832,114.8828 Q56.4888,114.8828 57.1362,115.0322 Q57.7837,115.1816 58.3481,115.4805 L58.3481,118.2031 Q57.7173,117.6221 57.1238,117.3523 Q56.5303,117.0825 55.8994,117.0825 Q54.5547,117.0825 53.8699,118.1492 Q53.1851,119.2158 53.1851,121.3159 Q53.1851,123.4077 53.8699,124.4744 Q54.5547,125.541 55.8994,125.541 Q56.5303,125.541 57.1238,125.2712 Q57.7173,125.0015 58.3481,124.4204 Z " fill="#000000"/><text x="69.875" y="124.8889" fill="#000000" font-size="14" lengthAdjust="spacing" textLength="19.425" font-family="sans-serif">foo</text><line x1="41.875" y1="137" x2="91.3" y2="137" style="stroke:#181818;stroke-width:0.5;"/><line x1="41.875" y1="145" x2="91.3" y2="145" style="stroke:#181818;stroke-width:0.5;"/></g><?plantuml-src BOf12e0m30JlUSK-oWyKNMqWDiK4mT_Reh27OMPJquZpGKuGuy6s8RqBi5GDZ6KblZ2aDmHlNiLWsXWo_t-LrKe4TlSN?></g></svg>