<svg xmlns="http://www.w3.org/2000/svg" xmlns:xlink="http://www.w3.org/1999/xlink" version="1.1" data-diagram-type="CLASS" style="width:140px;height:178px;background:#FFFFFF;" width="140px" height="178px" viewBox="0 0 140 178" zoomAndPan="magnify" preserveAspectRatio="none" contentStyleType="text/css"><?plantuml $version$?><defs/><g><!--class B--><g class="entity" data-qualified-name="B" id="ent0001" data-source-line="1"><rect x="7.39" y="7" width="41.3625" height="48" fill="#F1F1F1" style="stroke:#181818;stroke-width:0.5;" rx="2.5" ry="2.5"/><ellipse cx="22.39" cy="23" rx="11" ry="11" fill="#B4A7E5" style="stroke:#181818;stroke-width:1;"/><path d="M18.8177,19.2651 L18.8177,17.1069 L26.1971,17.1069 L26.1971,19.2651 L23.7318,19.2651 L23.7318,27.3418 L26.1971,27.3418 L26.1971,29.5 L18.8177,29.5 L18.8177,27.3418 L21.2831,27.3418 L21.2831,19.2651 Z " fill="#000000"/><text x="36.39" y="26.8889" fill="#000000" font-size="14" lengthAdjust="spacing" textLength="9.3625" font-style="italic" font-family="sans-serif">B</text><line x1="8.39" y1="39" x2="47.7525" y2="39" style="stroke:#181818;stroke-width:0.5;"/><line x1="8.39" y1="47" x2="47.7525" y2="47" style="stroke:#181818;stroke-width:0.5;"/></g><!--class A--><g class="entity" data-qualified-name="A" id="ent0002" data-source-line="2"><rect x="83.39" y="7" width="41.3625" height="48" fill="#F1F1F1" style="stroke:#181818;stroke-width:0.5;" rx="2.5" ry="2.5"/><ellipse cx="98.39" cy="23" rx="11" ry="11" fill="#ADD1B2" style="stroke:#181818;stroke-width:1;"/><path d="M100.8631,29.1431 Q100.2821,29.4419 99.6429,29.5913 Q99.0038,29.7407 98.2982,29.7407 Q95.7914,29.7407 94.4715,28.0889 Q93.1517,26.437 93.1517,23.3159 Q93.1517,20.1865 94.4715,18.5347 Q95.7914,16.8828 98.2982,16.8828 Q99.0038,16.8828 99.6512,17.0322 Q100.2987,17.1816 100.8631,17.4805 L100.8631,20.2031 Q100.2323,19.6221 99.6388,19.3523 Q99.0453,19.0825 98.4144,19.0825 Q97.0697,19.0825 96.3849,20.1492 Q95.7001,21.2158 95.7001,23.3159 Q95.7001,25.4077 96.3849,26.4744 Q97.0697,27.541 98.4144,27.541 Q99.0453,27.541 99.6388,27.2712 Q100.2323,27.0015 100.8631,26.4204 Z " fill="#000000"/><text x="112.39" y="26.8889" fill="#000000" font-size="14" lengthAdjust="spacing" textLength="9.3625" font-family="sans-serif">A</text><line x1="84.39" y1="39" x2="123.7525" y2="39" style="stroke:#181818;stroke-width:0.5;"/><line x1="84.39" y1="47" x2="123.7525" y2="47" style="stroke:#181818;stroke-width:0.5;"/></g><!--class C--><g class="entity" data-qualified-name="C" id="ent0003" data-source-line="3"><rect x="7" y="115" width="42.15" height="48" fill="#F1F1F1" style="stroke:#181818;stroke-width:0.5;" rx="2.5" ry="2.5"/><ellipse cx="22" cy="131" rx="11" ry="11" fill="#A9DCDF" style="stroke:#181818;stroke-width:1;"/><path d="M21.8633,126.3481 L20.7095,131.4199 L23.0254,131.4199 Z M20.3691,124.1069 L23.3657,124.1069 L26.7109,136.5 L24.2622,136.5 L23.4985,133.437 L20.2197,133.437 L19.4727,136.5 L17.0239,136.5 Z " fill="#000000"/><text x="36" y="134.8889" fill="#000000" font-size="14" lengthAdjust="spacing" textLength="10.15" font-style="italic" font-family="sans-serif">C</text><line x1="8" y1="147" x2="48.15" y2="147" style="stroke:#181818;stroke-width:0.5;"/><line x1="8" y1="155" x2="48.15" y2="155" style="stroke:#181818;stroke-width:0.5;"/></g><!--class E--><g class="entity" data-qualified-name="E" id="ent0004" data-source-line="4"><rect x="84.39" y="115" width="41.3625" height="48" fill="#F1F1F1" style="stroke:#181818;stroke-width:0.5;" rx="2.5" ry="2.5"/><ellipse cx="99.39" cy="131" rx="11" ry="11" fill="#EB937F" style="stroke:#181818;stroke-width:1;"/><path d="M103.0043,137.5 L95.2845,137.5 L95.2845,125.1069 L103.0043,125.1069 L103.0043,127.2651 L97.7333,127.2651 L97.7333,129.938 L102.5062,129.938 L102.5062,132.0962 L97.7333,132.0962 L97.7333,135.3418 L103.0043,135.3418 Z " fill="#000000"/><text x="113.39" y="134.8889" fill="#000000" font-size="14" lengthAdjust="spacing" textLength="9.3625" font-family="sans-serif">E</text><line x1="85.39" y1="147" x2="124.7525" y2="147" style="stroke:#181818;stroke-width:0.5;"/><line x1="85.39" y1="155" x2="124.7525" y2="155" style="stroke:#181818;stroke-width:0.5;"/></g><?plantuml-src oymhIIrAIqnELN3YIiv9B2vMSEHAJ2ekAKfCBb6023XpfUQLvYgu0W00?></g></svg>