<svg xmlns="http://www.w3.org/2000/svg" xmlns:xlink="http://www.w3.org/1999/xlink" version="1.1" data-diagram-type="CLASS" style="width:159px;height:96px;background:#FFFFFF;" width="159px" height="96px" viewBox="0 0 159 96" zoomAndPan="magnify" preserveAspectRatio="none" contentStyleType="text/css"><?plantuml $version$?><defs/><g><!--class ArrayList--><g class="entity" data-qualified-name="ArrayList" id="ent0001" data-source-line="10"><rect x="7" y="7" width="139.4875" height="76" fill="#F1F1F1" style="stroke:#181818;stroke-width:0.5;" rx="2.5" ry="2.5"/><ellipse cx="45.5238" cy="23" rx="11" ry="11" fill="#0000FF" style="stroke:#181818;stroke-width:1;"/><path d="M47.9969,29.1431 Q47.4158,29.4419 46.7767,29.5913 Q46.1375,29.7407 45.432,29.7407 Q42.9251,29.7407 41.6053,28.0889 Q40.2855,26.437 40.2855,23.3159 Q40.2855,20.1865 41.6053,18.5347 Q42.9251,16.8828 45.432,16.8828 Q46.1375,16.8828 46.785,17.0322 Q47.4324,17.1816 47.9969,17.4805 L47.9969,20.2031 Q47.366,19.6221 46.7725,19.3523 Q46.179,19.0825 45.5482,19.0825 Q44.2034,19.0825 43.5186,20.1492 Q42.8338,21.2158 42.8338,23.3159 Q42.8338,25.4077 43.5186,26.4744 Q44.2034,27.541 45.5482,27.541 Q46.179,27.541 46.7725,27.2712 Q47.366,27.0015 47.9969,26.4204 Z " fill="#FF0000"/><text x="64.7513" y="26.8889" fill="#000000" font-size="14" lengthAdjust="spacing" textLength="55.2125" font-family="sans-serif">ArrayList</text><line x1="8" y1="39" x2="145.4875" y2="39" style="stroke:#181818;stroke-width:0.5;"/><text x="13" y="53.8889" fill="#000000" font-size="14" lengthAdjust="spacing" textLength="127.4875" font-family="sans-serif">Object[] elementData</text><line x1="8" y1="61" x2="145.4875" y2="61" style="stroke:#181818;stroke-width:0.5;"/><text x="13" y="75.8889" fill="#000000" font-size="14" lengthAdjust="spacing" textLength="34.2125" font-family="sans-serif">size()</text></g><?plantuml-src ioakgSn9jUCgBiWlSSv9B2vMgEPIK71AJCvEByelpKjnpi_9Br98oYbDjGQAk-NdbK14Yb9JhBbgkRXizA46S2M3TJiM5ILM-cGMbu3DyK_AIaqkYOvLICr9pKtDAt59B4a42XTdLgLgQ8Aq0m00?></g></svg>