<svg xmlns="http://www.w3.org/2000/svg" xmlns:xlink="http://www.w3.org/1999/xlink" version="1.1" data-diagram-type="CLASS" style="width:325px;height:248px;background:#FFFFFF;" width="325px" height="248px" viewBox="0 0 325 248" zoomAndPan="magnify" preserveAspectRatio="none" contentStyleType="text/css"><?plantuml $version$?><defs/><g><!--class User--><g class="entity" data-qualified-name="User" id="ent0001" data-source-line="1"><rect x="7" y="7" width="114.6375" height="90" fill="#F1F1F1" style="stroke:#181818;stroke-width:0.5;" rx="2.5" ry="2.5"/><ellipse cx="45.8781" cy="23" rx="11" ry="11" fill="#ADD1B2" style="stroke:#181818;stroke-width:1;"/><path d="M48.3513,29.1431 Q47.7702,29.4419 47.1311,29.5913 Q46.4919,29.7407 45.7863,29.7407 Q43.2795,29.7407 41.9597,28.0889 Q40.6398,26.437 40.6398,23.3159 Q40.6398,20.1865 41.9597,18.5347 Q43.2795,16.8828 45.7863,16.8828 Q46.4919,16.8828 47.1394,17.0322 Q47.7868,17.1816 48.3513,17.4805 L48.3513,20.2031 Q47.7204,19.6221 47.1269,19.3523 Q46.5334,19.0825 45.9025,19.0825 Q44.5578,19.0825 43.873,20.1492 Q43.1882,21.2158 43.1882,23.3159 Q43.1882,25.4077 43.873,26.4744 Q44.5578,27.541 45.9025,27.541 Q46.5334,27.541 47.1269,27.2712 Q47.7204,27.0015 48.3513,26.4204 Z " fill="#000000"/><text x="65.1844" y="26.8889" fill="#000000" font-size="14" lengthAdjust="spacing" textLength="29.575" font-family="sans-serif">User</text><line x1="8" y1="39" x2="120.6375" y2="39" style="stroke:#181818;stroke-width:0.5;"/><text x="13" y="53.8889" fill="#000000" font-size="14" lengthAdjust="spacing" textLength="73.9375" font-family="sans-serif">email: String</text><text x="13" y="67.8889" fill="#000000" font-size="14" lengthAdjust="spacing" textLength="102.6375" font-family="sans-serif">username: String</text><text x="13" y="81.8889" fill="#000000" font-size="14" lengthAdjust="spacing" textLength="100.3625" font-family="sans-serif">password: String</text><line x1="8" y1="89" x2="120.6375" y2="89" style="stroke:#181818;stroke-width:0.5;"/></g><path d="M156.32,35.5 L156.32,43 L115.6375,64 L156.32,51 L156.32,58.5 A0,0 0 0 0 156.32,58.5 L310.3263,58.5 A0,0 0 0 0 310.3263,58.5 L310.3263,45.5 L300.3263,35.5 L156.32,35.5 A0,0 0 0 0 156.32,35.5" style="stroke:#181818;stroke-width:0.5;" fill="#FEFFDD"/><path d="M300.3263,35.5 L300.3263,45.5 L310.3263,45.5 L300.3263,35.5" style="stroke:#181818;stroke-width:0.5;" fill="#FEFFDD"/><text x="162.32" y="50.6111" fill="#000000" font-size="13" lengthAdjust="spacing" textLength="133.0063" font-family="sans-serif">This breaks connections</text><!--class Role--><g class="entity" data-qualified-name="Role" id="ent0004" data-source-line="11"><rect x="20.61" y="157" width="87.425" height="76" fill="#F1F1F1" style="stroke:#181818;stroke-width:0.5;" rx="2.5" ry="2.5"/><ellipse cx="47.5575" cy="173" rx="11" ry="11" fill="#ADD1B2" style="stroke:#181818;stroke-width:1;"/><path d="M50.0306,179.1431 Q49.4496,179.4419 48.8104,179.5913 Q48.1713,179.7407 47.4657,179.7407 Q44.9589,179.7407 43.639,178.0889 Q42.3192,176.437 42.3192,173.3159 Q42.3192,170.1865 43.639,168.5347 Q44.9589,166.8828 47.4657,166.8828 Q48.1713,166.8828 48.8187,167.0322 Q49.4662,167.1816 50.0306,167.4805 L50.0306,170.2031 Q49.3998,169.6221 48.8063,169.3523 Q48.2128,169.0825 47.5819,169.0825 Q46.2372,169.0825 45.5524,170.1492 Q44.8676,171.2158 44.8676,173.3159 Q44.8676,175.4077 45.5524,176.4744 Q46.2372,177.541 47.5819,177.541 Q48.2128,177.541 48.8063,177.2712 Q49.3998,177.0015 50.0306,176.4204 Z " fill="#000000"/><text x="64.2125" y="176.8889" fill="#000000" font-size="14" lengthAdjust="spacing" textLength="28.875" font-family="sans-serif">Role</text><line x1="21.61" y1="189" x2="107.035" y2="189" style="stroke:#181818;stroke-width:0.5;"/><text x="26.61" y="203.8889" fill="#000000" font-size="14" lengthAdjust="spacing" textLength="73.9375" font-family="sans-serif">email: String</text><text x="26.61" y="217.8889" fill="#000000" font-size="14" lengthAdjust="spacing" textLength="75.425" font-family="sans-serif">name: String</text><line x1="21.61" y1="225" x2="107.035" y2="225" style="stroke:#181818;stroke-width:0.5;"/></g><!--link User to Role--><g class="link" data-entity-1="ent0001" data-entity-2="ent0004" id="lnk5" data-source-line="16" data-link-type="association"><path d="M64.32,97.23 C64.32,116.29 64.32,138.34 64.32,156.57" style="stroke:#181818;stroke-width:1;" fill="none" id="User-Role" codeLine="16"/></g><!--link Role to Role--><g class="link" data-entity-1="ent0004" data-entity-2="ent0004" id="lnk6" data-source-line="17" data-link-type="association"><path d="M108.43,168.46 C127.11,166.46 143.03,175.31 143.03,195 C143.03,214.69 127.11,223.54 108.43,221.54" style="stroke:#181818;stroke-width:1;" fill="none" id="Role-Role" codeLine="17"/></g><?plantuml-src ROxH3S8m34J_CuKNw08Pey00QMfQYzIkx20-4BkJMYgYKZ_lVEzykIGpk1agl0C0BebAX4jLugdfPpjmMl3FMXlm4Xr_rYS4begWDCqLvEvjCUwezrvdCXWKqyCW2pFcIiAsiTaNz5BmTC7XUulxrAvp83YrYoy0?></g></svg>