<svg xmlns="http://www.w3.org/2000/svg" xmlns:xlink="http://www.w3.org/1999/xlink" version="1.1" data-diagram-type="CLASS" style="width:202px;height:84px;background:#FFFFFF;" width="202px" height="84px" viewBox="0 0 202 84" zoomAndPan="magnify" preserveAspectRatio="none" contentStyleType="text/css"><?plantuml $version$?><defs/><g><!--class Method--><!--class Other--><g class="entity" data-qualified-name="Other" id="ent0002" data-source-line="5"><rect x="120.86" y="7" width="66.9125" height="62" fill="#F1F1F1" style="stroke:#181818;stroke-width:0.5;" rx="2.5" ry="2.5"/><ellipse cx="135.86" cy="23" rx="11" ry="11" fill="#ADD1B2" style="stroke:#181818;stroke-width:1;"/><path d="M138.3331,29.1431 Q137.7521,29.4419 137.1129,29.5913 Q136.4738,29.7407 135.7682,29.7407 Q133.2614,29.7407 131.9415,28.0889 Q130.6217,26.437 130.6217,23.3159 Q130.6217,20.1865 131.9415,18.5347 Q133.2614,16.8828 135.7682,16.8828 Q136.4738,16.8828 137.1212,17.0322 Q137.7687,17.1816 138.3331,17.4805 L138.3331,20.2031 Q137.7023,19.6221 137.1088,19.3523 Q136.5153,19.0825 135.8844,19.0825 Q134.5397,19.0825 133.8549,20.1492 Q133.1701,21.2158 133.1701,23.3159 Q133.1701,25.4077 133.8549,26.4744 Q134.5397,27.541 135.8844,27.541 Q136.5153,27.541 137.1088,27.2712 Q137.7023,27.0015 138.3331,26.4204 Z " fill="#000000"/><text x="149.86" y="26.8889" fill="#000000" font-size="14" lengthAdjust="spacing" textLength="34.9125" font-family="sans-serif">Other</text><line x1="121.86" y1="39" x2="186.7725" y2="39" style="stroke:#181818;stroke-width:0.5;"/><line x1="121.86" y1="47" x2="186.7725" y2="47" style="stroke:#181818;stroke-width:0.5;"/><text x="126.86" y="61.8889" fill="#000000" font-size="14" lengthAdjust="spacing" textLength="28.7" font-family="sans-serif">foo()</text></g><?plantuml-src Iyv9B2vMy4qjoSXFKQZcKW22jFny3KskMYwkPB2SVqb6QX6wL4PcIgfkCf9U0000?></g></svg>