<svg xmlns="http://www.w3.org/2000/svg" xmlns:xlink="http://www.w3.org/1999/xlink" version="1.1" data-diagram-type="STATE" style="width:109px;height:250px;background:#FFFFFF;" width="109px" height="250px" viewBox="0 0 109 250" zoomAndPan="magnify" preserveAspectRatio="none" contentStyleType="text/css"><?plantuml $version$?><defs/><g><g class="entity" data-qualified-name="S2" id="ent0001" data-source-line="4"><rect x="7" y="186" width="87.725" height="50" fill="#F1F1F1" style="stroke:#181818;stroke-width:0.5;" rx="12.5" ry="12.5"/><line x1="7" y1="210" x2="94.725" y2="210" style="stroke:#181818;stroke-width:0.5;"/><text x="42.2875" y="201.8889" fill="#000000" font-size="14" lengthAdjust="spacing" textLength="17.15" font-family="sans-serif">S2</text><text x="12" y="225.8889" fill="#000000" font-size="14" lengthAdjust="spacing" textLength="67.725" font-family="sans-serif">description</text></g><g class="start_entity" data-qualified-name=".start." id="ent0002" data-source-line="2"><ellipse cx="50.86" cy="16" rx="10" ry="10" fill="#222222" style="stroke:#222222;stroke-width:1;"/></g><rect x="25.86" y="86" width="50" height="40" fill="#F1F1F1" style="stroke:#181818;stroke-width:0.5;" rx="12.5" ry="12.5"/><text x="42.285" y="109.8889" fill="#000000" font-size="14" lengthAdjust="spacing" textLength="17.15" font-family="sans-serif">S1</text><!--link *start* to S1--><g class="link" data-entity-1="ent0002" data-entity-2="ent0003" id="lnk4" data-source-line="2" data-link-type="dependency"><path d="M50.86,26.42 C50.86,40.52 50.86,62.42 50.86,80.78" style="stroke:#181818;stroke-width:1;" fill="none" id="*start*-to-S1"/><polygon points="50.86,85.78,54.86,76.78,50.86,80.78,46.86,76.78,50.86,85.78" fill="#181818" style="stroke:#181818;stroke-width:1;stroke-linejoin:miter;stroke-miterlimit:10;"/></g><!--link S1 to S2--><g class="link" data-entity-1="ent0003" data-entity-2="ent0001" id="lnk5" data-source-line="3" data-link-type="dependency"><path d="M50.86,126.37 C50.86,143.16 50.86,162.52 50.86,180.62" style="stroke:#181818;stroke-width:1;" fill="none" id="S1-to-S2"/><polygon points="50.86,185.62,54.86,176.62,50.86,180.62,46.86,176.62,50.86,185.62" fill="#181818" style="stroke:#181818;stroke-width:1;stroke-linejoin:miter;stroke-miterlimit:10;"/></g><?plantuml-src oyXCILL8pIqegLH8IIrEBieiACdCp-EArefLqDMrKmWsv0esXB2Ck8AD5AoGLG40?></g></svg>