<svg xmlns="http://www.w3.org/2000/svg" xmlns:xlink="http://www.w3.org/1999/xlink" version="1.1" data-diagram-type="STATE" style="width:113px;height:167px;background:#FFFFFF;" width="113px" height="167px" viewBox="0 0 113 167" zoomAndPan="magnify" preserveAspectRatio="none" contentStyleType="text/css"><?plantuml $version$?><defs/><g><g class="entity" data-qualified-name="s1" id="ent0001" data-source-line="1"><path d="M19.5,7 L85.5,7 A12.5,12.5 0 0 1 98,19.5 L98,31 L7,31 L7,19.5 A12.5,12.5 0 0 1 19.5,7" fill="#F1F1F1"/><rect x="7" y="31" width="91" height="47" fill="#F1F1F1" style="stroke:#F1F1F1;stroke-width:1;"/><rect x="7" y="7" width="91" height="146" fill="none" style="stroke:#181818;stroke-width:0.5;" rx="12.5" ry="12.5"/><line x1="7" y1="31" x2="98" y2="31" style="stroke:#181818;stroke-width:0.5;"/><line x1="7" y1="78" x2="98" y2="78" style="stroke:#181818;stroke-width:0.5;"/><text x="45.1063" y="22.8889" fill="#000000" font-size="14" lengthAdjust="spacing" textLength="14.7875" font-family="sans-serif">s1</text><text x="12" y="41.8889" fill="#000000" font-size="14" lengthAdjust="spacing" textLength="29.6625" font-family="sans-serif">line1</text><text x="12" y="55.8889" fill="#000000" font-size="14" lengthAdjust="spacing" textLength="29.6625" font-family="sans-serif">line2</text><text x="12" y="69.8889" fill="#000000" font-size="14" lengthAdjust="spacing" textLength="29.6625" font-family="sans-serif">line3</text><g class="entity" data-qualified-name="s1.c" id="ent0002" data-source-line="4"><rect x="19" y="90" width="50" height="50" fill="#F1F1F1" style="stroke:#181818;stroke-width:0.5;" rx="12.5" ry="12.5"/><line x1="19" y1="114" x2="69" y2="114" style="stroke:#181818;stroke-width:0.5;"/><text x="40.5" y="105.8889" fill="#000000" font-size="14" lengthAdjust="spacing" textLength="7" font-family="sans-serif">c</text></g></g><?plantuml-src Aov9B4bLA3PKgERY0f9M2ZcPUQc6CNaAO8OHY05X6dCLWvKcSzK20000?></g></svg>