<svg xmlns="http://www.w3.org/2000/svg" xmlns:xlink="http://www.w3.org/1999/xlink" version="1.1" data-diagram-type="CLASS" style="width:108px;height:124px;background:#FFFFFF;" width="108px" height="124px" viewBox="0 0 108 124" zoomAndPan="magnify" preserveAspectRatio="none" contentStyleType="text/css"><?plantuml $version$?><defs/><g><!--class Dummy--><g class="entity" data-qualified-name="Dummy" id="ent0001" data-source-line="1"><rect x="7" y="7" width="88.9125" height="104" fill="#F1F1F1" style="stroke:#181818;stroke-width:0.5;" rx="2.5" ry="2.5"/><ellipse cx="25.915" cy="23" rx="11" ry="11" fill="#ADD1B2" style="stroke:#181818;stroke-width:1;"/><path d="M28.3881,29.1431 Q27.8071,29.4419 27.1679,29.5913 Q26.5288,29.7407 25.8232,29.7407 Q23.3164,29.7407 21.9965,28.0889 Q20.6767,26.437 20.6767,23.3159 Q20.6767,20.1865 21.9965,18.5347 Q23.3164,16.8828 25.8232,16.8828 Q26.5288,16.8828 27.1762,17.0322 Q27.8237,17.1816 28.3881,17.4805 L28.3881,20.2031 Q27.7573,19.6221 27.1638,19.3523 Q26.5703,19.0825 25.9394,19.0825 Q24.5947,19.0825 23.9099,20.1492 Q23.2251,21.2158 23.2251,23.3159 Q23.2251,25.4077 23.9099,26.4744 Q24.5947,27.541 25.9394,27.541 Q26.5703,27.541 27.1638,27.2712 Q27.7573,27.0015 28.3881,26.4204 Z " fill="#000000"/><text x="40.785" y="26.8889" fill="#000000" font-size="14" lengthAdjust="spacing" textLength="48.2125" font-family="sans-serif">Dummy</text><line x1="8" y1="39" x2="94.9125" y2="39" style="stroke:#181818;stroke-width:0.5;"/><g data-visibility-modifier="PROTECTED_FIELD"><polygon points="18,46.5,22,50.5,18,54.5,14,50.5" fill="none" style="stroke:#B38D22;stroke-width:1;stroke-linejoin:miter;stroke-miterlimit:10;"/></g><text x="27" y="53.8889" fill="#000000" font-size="14" lengthAdjust="spacing" textLength="31.85" font-family="sans-serif">other</text><g data-visibility-modifier="PACKAGE_PRIVATE_FIELD"><polygon points="18,61.5,14,67.5,22,67.5" fill="none" style="stroke:#1963A0;stroke-width:1;stroke-linejoin:miter;stroke-miterlimit:10;"/></g><text x="27" y="67.8889" fill="#000000" font-size="14" lengthAdjust="spacing" textLength="21.7875" font-family="sans-serif">last</text><line x1="8" y1="75" x2="94.9125" y2="75" style="stroke:#181818;stroke-width:0.5;"/><g data-visibility-modifier="PRIVATE_METHOD"><rect x="15" y="84.5" width="6" height="6" fill="#F24D5C" style="stroke:#C82930;stroke-width:1;"/></g><text x="27" y="89.8889" fill="#000000" font-size="14" lengthAdjust="spacing" textLength="62.9125" font-family="sans-serif">dummy2()</text><g data-visibility-modifier="PACKAGE_PRIVATE_METHOD"><polygon points="18,97.5,14,103.5,22,103.5" fill="#4177AF" style="stroke:#1963A0;stroke-width:1;stroke-linejoin:miter;stroke-miterlimit:10;"/></g><text x="27" y="103.8889" fill="#000000" font-size="14" lengthAdjust="spacing" textLength="38.85" font-family="sans-serif">last2()</text></g><?plantuml-src FSr12e0W48NXlQSOQ5D46y_GeckKJYWe4pa54NNsnf9MFlxvG1F6bA3VOZpWL03jJ3J8szcSygg87QuoRg5SY1xgvbVwtPyhXzVcVYdbl4LOLh-FZ31x33QLjat16uWO9_cWC68qZ5OgEnBv0000?></g></svg>