<svg xmlns="http://www.w3.org/2000/svg" xmlns:xlink="http://www.w3.org/1999/xlink" version="1.1" data-diagram-type="CLASS" style="width:307px;height:262px;background:#FFFFFF;" width="307px" height="262px" viewBox="0 0 307 262" zoomAndPan="magnify" preserveAspectRatio="none" contentStyleType="text/css"><?plantuml $version$?><defs/><g><!--class Dummy1--><g class="entity" data-qualified-name="Dummy1" id="ent0001" data-source-line="1"><rect x="7" y="7" width="162.85" height="104" fill="#F1F1F1" style="stroke:#181818;stroke-width:0.5;" rx="2.5" ry="2.5"/><ellipse cx="56.175" cy="23" rx="11" ry="11" fill="#ADD1B2" style="stroke:#181818;stroke-width:1;"/><path d="M58.6481,29.1431 Q58.0671,29.4419 57.4279,29.5913 Q56.7888,29.7407 56.0832,29.7407 Q53.5764,29.7407 52.2565,28.0889 Q50.9367,26.437 50.9367,23.3159 Q50.9367,20.1865 52.2565,18.5347 Q53.5764,16.8828 56.0832,16.8828 Q56.7888,16.8828 57.4362,17.0322 Q58.0837,17.1816 58.6481,17.4805 L58.6481,20.2031 Q58.0173,19.6221 57.4238,19.3523 Q56.8303,19.0825 56.1994,19.0825 Q54.8547,19.0825 54.1699,20.1492 Q53.4851,21.2158 53.4851,23.3159 Q53.4851,25.4077 54.1699,26.4744 Q54.8547,27.541 56.1994,27.541 Q56.8303,27.541 57.4238,27.2712 Q58.0173,27.0015 58.6481,26.4204 Z " fill="#000000"/><text x="76.675" y="26.8889" fill="#000000" font-size="14" lengthAdjust="spacing" textLength="56" font-family="sans-serif">Dummy1</text><line x1="8" y1="39" x2="168.85" y2="39" style="stroke:#181818;stroke-width:0.5;"/><g data-visibility-modifier="PUBLIC_FIELD"><ellipse cx="18" cy="51.5" rx="3" ry="3" fill="none" style="stroke:#038048;stroke-width:1;"/></g><text x="27" y="53.8889" fill="#000000" font-size="14" lengthAdjust="spacing" textLength="52.15" font-family="sans-serif">String a1</text><g data-visibility-modifier="PUBLIC_FIELD"><ellipse cx="18" cy="65.5" rx="3" ry="3" fill="none" style="stroke:#038048;stroke-width:1;"/></g><text x="27" y="67.8889" fill="#000000" font-size="14" lengthAdjust="spacing" textLength="41.2125" font-family="sans-serif">Date d;</text><line x1="8" y1="75" x2="168.85" y2="75" style="stroke:#181818;stroke-width:0.5;"/><g data-visibility-modifier="PUBLIC_METHOD"><ellipse cx="18" cy="87.5" rx="3" ry="3" fill="#84BE84" style="stroke:#038048;stroke-width:1;"/></g><text x="27" y="89.8889" fill="#000000" font-size="14" lengthAdjust="spacing" textLength="136.85" font-family="sans-serif">thisIsALongmethod1()</text><g data-visibility-modifier="PUBLIC_METHOD"><ellipse cx="18" cy="101.5" rx="3" ry="3" fill="#84BE84" style="stroke:#038048;stroke-width:1;"/></g><text x="27" y="103.8889" fill="#000000" font-size="14" lengthAdjust="spacing" textLength="111.125" font-family="sans-serif">anotherMetheod()</text></g><!--class Dummy2--><g class="entity" data-qualified-name="Dummy2" id="ent0002" data-source-line="9"><rect x="204.43" y="23" width="88" height="72" fill="#F1F1F1" style="stroke:#181818;stroke-width:0.5;" rx="2.5" ry="2.5"/><ellipse cx="219.43" cy="41" rx="11" ry="11" fill="#ADD1B2" style="stroke:#181818;stroke-width:1;"/><path d="M221.9031,47.1431 Q221.3221,47.4419 220.6829,47.5913 Q220.0438,47.7407 219.3382,47.7407 Q216.8314,47.7407 215.5115,46.0889 Q214.1917,44.437 214.1917,41.3159 Q214.1917,38.1865 215.5115,36.5347 Q216.8314,34.8828 219.3382,34.8828 Q220.0438,34.8828 220.6912,35.0322 Q221.3387,35.1816 221.9031,35.4805 L221.9031,38.2031 Q221.2723,37.6221 220.6788,37.3523 Q220.0853,37.0825 219.4544,37.0825 Q218.1097,37.0825 217.4249,38.1492 Q216.7401,39.2158 216.7401,41.3159 Q216.7401,43.4077 217.4249,44.4744 Q218.1097,45.541 219.4544,45.541 Q220.0853,45.541 220.6788,45.2712 Q221.2723,45.0015 221.9031,44.4204 Z " fill="#000000"/><text x="241.7425" y="37.3333" fill="#000000" font-size="12" lengthAdjust="spacing" textLength="39.375" font-style="italic" font-family="sans-serif">«even»</text><text x="233.43" y="50.8889" fill="#000000" font-size="14" lengthAdjust="spacing" textLength="56" font-family="sans-serif">Dummy2</text><line x1="205.43" y1="59" x2="291.43" y2="59" style="stroke:#181818;stroke-width:0.5;"/><g data-visibility-modifier="PUBLIC_FIELD"><ellipse cx="215.43" cy="71.5" rx="3" ry="3" fill="none" style="stroke:#038048;stroke-width:1;"/></g><text x="224.43" y="73.8889" fill="#000000" font-size="14" lengthAdjust="spacing" textLength="52.15" font-family="sans-serif">String a1</text><g data-visibility-modifier="PUBLIC_FIELD"><ellipse cx="215.43" cy="85.5" rx="3" ry="3" fill="none" style="stroke:#038048;stroke-width:1;"/></g><text x="224.43" y="87.8889" fill="#000000" font-size="14" lengthAdjust="spacing" textLength="41.2125" font-family="sans-serif">Date d;</text></g><!--class Dummy3--><g class="entity" data-qualified-name="Dummy3" id="ent0003" data-source-line="14"><rect x="7" y="171" width="162.85" height="76" fill="#F1F1F1" style="stroke:#181818;stroke-width:0.5;" rx="2.5" ry="2.5"/><ellipse cx="56.175" cy="187" rx="11" ry="11" fill="#ADD1B2" style="stroke:#181818;stroke-width:1;"/><path d="M58.6481,193.1431 Q58.0671,193.4419 57.4279,193.5913 Q56.7888,193.7407 56.0832,193.7407 Q53.5764,193.7407 52.2565,192.0889 Q50.9367,190.437 50.9367,187.3159 Q50.9367,184.1865 52.2565,182.5347 Q53.5764,180.8828 56.0832,180.8828 Q56.7888,180.8828 57.4362,181.0322 Q58.0837,181.1816 58.6481,181.4805 L58.6481,184.2031 Q58.0173,183.6221 57.4238,183.3523 Q56.8303,183.0825 56.1994,183.0825 Q54.8547,183.0825 54.1699,184.1492 Q53.4851,185.2158 53.4851,187.3159 Q53.4851,189.4077 54.1699,190.4744 Q54.8547,191.541 56.1994,191.541 Q56.8303,191.541 57.4238,191.2712 Q58.0173,191.0015 58.6481,190.4204 Z " fill="#000000"/><text x="76.675" y="190.8889" fill="#000000" font-size="14" lengthAdjust="spacing" textLength="56" font-family="sans-serif">Dummy3</text><line x1="8" y1="203" x2="168.85" y2="203" style="stroke:#181818;stroke-width:0.5;"/><line x1="8" y1="211" x2="168.85" y2="211" style="stroke:#181818;stroke-width:0.5;"/><g data-visibility-modifier="PUBLIC_METHOD"><ellipse cx="18" cy="223.5" rx="3" ry="3" fill="#84BE84" style="stroke:#038048;stroke-width:1;"/></g><text x="27" y="225.8889" fill="#000000" font-size="14" lengthAdjust="spacing" textLength="136.85" font-family="sans-serif">thisIsALongmethod1()</text><g data-visibility-modifier="PUBLIC_METHOD"><ellipse cx="18" cy="237.5" rx="3" ry="3" fill="#84BE84" style="stroke:#038048;stroke-width:1;"/></g><text x="27" y="239.8889" fill="#000000" font-size="14" lengthAdjust="spacing" textLength="111.125" font-family="sans-serif">anotherMetheod()</text></g><!--class Dummy4--><g class="entity" data-qualified-name="Dummy4" id="ent0004" data-source-line="19"><rect x="204.43" y="187" width="88" height="44" fill="#F1F1F1" style="stroke:#181818;stroke-width:0.5;" rx="2.5" ry="2.5"/><ellipse cx="219.43" cy="205" rx="11" ry="11" fill="#ADD1B2" style="stroke:#181818;stroke-width:1;"/><path d="M221.9031,211.1431 Q221.3221,211.4419 220.6829,211.5913 Q220.0438,211.7407 219.3382,211.7407 Q216.8314,211.7407 215.5115,210.0889 Q214.1917,208.437 214.1917,205.3159 Q214.1917,202.1865 215.5115,200.5347 Q216.8314,198.8828 219.3382,198.8828 Q220.0438,198.8828 220.6912,199.0322 Q221.3387,199.1816 221.9031,199.4805 L221.9031,202.2031 Q221.2723,201.6221 220.6788,201.3523 Q220.0853,201.0825 219.4544,201.0825 Q218.1097,201.0825 217.4249,202.1492 Q216.7401,203.2158 216.7401,205.3159 Q216.7401,207.4077 217.4249,208.4744 Q218.1097,209.541 219.4544,209.541 Q220.0853,209.541 220.6788,209.2712 Q221.2723,209.0015 221.9031,208.4204 Z " fill="#000000"/><text x="241.7425" y="201.3333" fill="#000000" font-size="12" lengthAdjust="spacing" textLength="39.375" font-style="italic" font-family="sans-serif">«even»</text><text x="233.43" y="214.8889" fill="#000000" font-size="14" lengthAdjust="spacing" textLength="56" font-family="sans-serif">Dummy4</text><line x1="205.43" y1="223" x2="291.43" y2="223" style="stroke:#181818;stroke-width:0.5;"/></g><?plantuml-src Iyv9B2vMS2dDpQqqLAZcKb3GBid8BFOiTlJ9pqlFJIt9o4ynrD04YIVcvPTaf1Rv0iLIyrF0OY3Xu9AYpBnqXKH34CSbiIHL8SMQgvQBAnbXi962ZKrgMMgUdHt41YAq69Fe5bJT9d0BkRWoCbDI5L9p2qeg5I1650C0?></g></svg>