<svg xmlns="http://www.w3.org/2000/svg" xmlns:xlink="http://www.w3.org/1999/xlink" version="1.1" data-diagram-type="CLASS" style="width:76px;height:64px;background:#FFFFFF;" width="76px" height="64px" viewBox="0 0 76 64" zoomAndPan="magnify" preserveAspectRatio="none" contentStyleType="text/css"><?plantuml $version$?><defs/><g><!--class Toto--><g class="entity" data-qualified-name="Toto" id="ent0001" data-source-line="2"><rect x="7" y="7" width="56" height="44" fill="#F1F1F1" style="stroke:#181818;stroke-width:0.5;" rx="2.5" ry="2.5"/><ellipse cx="20" cy="21" rx="9" ry="9" fill="#ADD1B2" style="stroke:#181818;stroke-width:1;"/><path d="M22.4731,27.1431 Q21.8921,27.4419 21.2529,27.5913 Q20.6138,27.7407 19.9082,27.7407 Q17.4014,27.7407 16.0815,26.0889 Q14.7617,24.437 14.7617,21.3159 Q14.7617,18.1865 16.0815,16.5347 Q17.4014,14.8828 19.9082,14.8828 Q20.6138,14.8828 21.2612,15.0322 Q21.9087,15.1816 22.4731,15.4805 L22.4731,18.2031 Q21.8423,17.6221 21.2488,17.3523 Q20.6553,17.0825 20.0244,17.0825 Q18.6797,17.0825 17.9949,18.1492 Q17.3101,19.2158 17.3101,21.3159 Q17.3101,23.4077 17.9949,24.4744 Q18.6797,25.541 20.0244,25.541 Q20.6553,25.541 21.2488,25.2712 Q21.8423,25.0015 22.4731,24.4204 Z " fill="#000000"/><text x="32" y="24.8889" fill="#000000" font-size="14" lengthAdjust="spacing" textLength="28" font-family="sans-serif">Toto</text><line x1="8" y1="35" x2="62" y2="35" style="stroke:#181818;stroke-width:0.5;"/><line x1="8" y1="43" x2="62" y2="43" style="stroke:#181818;stroke-width:0.5;"/></g><?plantuml-src AyxEp2j8B4hCLN3EB4hEIKrnpW3oaajIYu8IKp9BYnKikP9p4ekB5KBoI_81?></g></svg>