<svg xmlns="http://www.w3.org/2000/svg" xmlns:xlink="http://www.w3.org/1999/xlink" version="1.1" data-diagram-type="CLASS" style="width:136px;height:84px;background:#FFFFFF;" width="136px" height="84px" viewBox="0 0 136 84" zoomAndPan="magnify" preserveAspectRatio="none" contentStyleType="text/css"><?plantuml $version$?><defs/><g><!--class a--><g class="entity" data-qualified-name="a" id="ent0001" data-source-line="1"><rect x="7" y="14" width="39.7875" height="48" fill="#F1F1F1" style="stroke:#181818;stroke-width:0.5;" rx="2.5" ry="2.5"/><ellipse cx="22" cy="30" rx="11" ry="11" fill="#ADD1B2" style="stroke:#181818;stroke-width:1;"/><path d="M24.4731,36.1431 Q23.8921,36.4419 23.2529,36.5913 Q22.6138,36.7407 21.9082,36.7407 Q19.4014,36.7407 18.0815,35.0889 Q16.7617,33.437 16.7617,30.3159 Q16.7617,27.1865 18.0815,25.5347 Q19.4014,23.8828 21.9082,23.8828 Q22.6138,23.8828 23.2612,24.0322 Q23.9087,24.1816 24.4731,24.4805 L24.4731,27.2031 Q23.8423,26.6221 23.2488,26.3523 Q22.6553,26.0825 22.0244,26.0825 Q20.6797,26.0825 19.9949,27.1492 Q19.3101,28.2158 19.3101,30.3159 Q19.3101,32.4077 19.9949,33.4744 Q20.6797,34.541 22.0244,34.541 Q22.6553,34.541 23.2488,34.2712 Q23.8423,34.0015 24.4731,33.4204 Z " fill="#000000"/><text x="36" y="33.8889" fill="#000000" font-size="14" lengthAdjust="spacing" textLength="7.7875" font-family="sans-serif">a</text><line x1="8" y1="46" x2="45.7875" y2="46" style="stroke:#181818;stroke-width:0.5;"/><line x1="8" y1="54" x2="45.7875" y2="54" style="stroke:#181818;stroke-width:0.5;"/></g><!--class b--><g class="entity" data-qualified-name="b" id="ent0002" data-source-line="2"><rect x="82" y="7" width="39.7875" height="62" fill="#F1F1F1" style="stroke:#181818;stroke-width:0.5;" rx="2.5" ry="2.5"/><ellipse cx="97" cy="23" rx="11" ry="11" fill="#ADD1B2" style="stroke:#181818;stroke-width:1;"/><path d="M99.4731,29.1431 Q98.8921,29.4419 98.2529,29.5913 Q97.6138,29.7407 96.9082,29.7407 Q94.4014,29.7407 93.0815,28.0889 Q91.7617,26.437 91.7617,23.3159 Q91.7617,20.1865 93.0815,18.5347 Q94.4014,16.8828 96.9082,16.8828 Q97.6138,16.8828 98.2612,17.0322 Q98.9087,17.1816 99.4731,17.4805 L99.4731,20.2031 Q98.8423,19.6221 98.2488,19.3523 Q97.6553,19.0825 97.0244,19.0825 Q95.6797,19.0825 94.9949,20.1492 Q94.3101,21.2158 94.3101,23.3159 Q94.3101,25.4077 94.9949,26.4744 Q95.6797,27.541 97.0244,27.541 Q97.6553,27.541 98.2488,27.2712 Q98.8423,27.0015 99.4731,26.4204 Z " fill="#000000"/><text x="111" y="26.8889" fill="#000000" font-size="14" lengthAdjust="spacing" textLength="7.7875" font-family="sans-serif">b</text><line x1="83" y1="39" x2="120.7875" y2="39" style="stroke:#181818;stroke-width:0.5;"/><text x="88" y="53.8889" fill="#000000" font-size="14" lengthAdjust="spacing" textLength="19.425" font-family="sans-serif">foo</text><line x1="83" y1="61" x2="120.7875" y2="61" style="stroke:#181818;stroke-width:0.5;"/></g><?plantuml-src Iyv9B2vMIEHA1jD9NDLSQVdvNBK0?></g></svg>