<svg xmlns="http://www.w3.org/2000/svg" xmlns:xlink="http://www.w3.org/1999/xlink" version="1.1" data-diagram-type="CLASS" style="width:115px;height:228px;background:#FFFFFF;" width="115px" height="228px" viewBox="0 0 115 228" zoomAndPan="magnify" preserveAspectRatio="none" contentStyleType="text/css"><?plantuml $version$?><defs/><g><!--cluster Domain--><g class="cluster" data-qualified-name="Domain" id="ent0001" data-source-line="1"><path d="M8.5,6 L65.0967,6 A3.75,3.75 0 0 1 67.5967,8.5 L74.5967,28.4883 L97.5,28.4883 A2.5,2.5 0 0 1 100,30.9883 L100,210.5 A2.5,2.5 0 0 1 97.5,213 L8.5,213 A2.5,2.5 0 0 1 6,210.5 L6,8.5 A2.5,2.5 0 0 1 8.5,6" style="stroke:#000000;stroke-width:1.5;" fill="none"/><line x1="6" y1="28.4883" x2="74.5967" y2="28.4883" style="stroke:#000000;stroke-width:1.5;"/><text x="10" y="21.5352" fill="#000000" font-size="14" lengthAdjust="spacing" textLength="55.5967" font-weight="700" font-family="sans-serif">Domain</text></g><!--class User--><g class="entity" data-qualified-name="Domain.User" id="ent0002" data-source-line="2"><rect x="21.82" y="41" width="62.3652" height="48" fill="#F1F1F1" style="stroke:#181818;stroke-width:0.5;" rx="2.5" ry="2.5"/><ellipse cx="36.82" cy="57" rx="11" ry="11" fill="#ADD1B2" style="stroke:#181818;stroke-width:1;"/><path d="M39.2931,63.1431 Q38.7121,63.4419 38.0729,63.5913 Q37.4338,63.7407 36.7282,63.7407 Q34.2214,63.7407 32.9015,62.0889 Q31.5817,60.437 31.5817,57.3159 Q31.5817,54.1865 32.9015,52.5347 Q34.2214,50.8828 36.7282,50.8828 Q37.4338,50.8828 38.0812,51.0322 Q38.7287,51.1816 39.2931,51.4805 L39.2931,54.2031 Q38.6623,53.6221 38.0688,53.3523 Q37.4753,53.0825 36.8444,53.0825 Q35.4997,53.0825 34.8149,54.1492 Q34.1301,55.2158 34.1301,57.3159 Q34.1301,59.4077 34.8149,60.4744 Q35.4997,61.541 36.8444,61.541 Q37.4753,61.541 38.0688,61.2712 Q38.6623,61.0015 39.2931,60.4204 Z " fill="#000000"/><text x="50.82" y="62.291" fill="#000000" font-size="14" lengthAdjust="spacing" textLength="30.3652" font-family="sans-serif">User</text><line x1="22.82" y1="73" x2="83.1852" y2="73" style="stroke:#181818;stroke-width:0.5;"/><line x1="22.82" y1="81" x2="83.1852" y2="81" style="stroke:#181818;stroke-width:0.5;"/></g><!--class Role--><g class="entity" data-qualified-name="Domain.Role" id="ent0003" data-source-line="3"><rect x="22.35" y="149" width="61.2988" height="48" fill="#F1F1F1" style="stroke:#181818;stroke-width:0.5;" rx="2.5" ry="2.5"/><ellipse cx="37.35" cy="165" rx="11" ry="11" fill="#ADD1B2" style="stroke:#181818;stroke-width:1;"/><path d="M39.8231,171.1431 Q39.2421,171.4419 38.6029,171.5913 Q37.9638,171.7407 37.2582,171.7407 Q34.7514,171.7407 33.4315,170.0889 Q32.1117,168.437 32.1117,165.3159 Q32.1117,162.1865 33.4315,160.5347 Q34.7514,158.8828 37.2582,158.8828 Q37.9638,158.8828 38.6112,159.0322 Q39.2587,159.1816 39.8231,159.4805 L39.8231,162.2031 Q39.1923,161.6221 38.5988,161.3523 Q38.0053,161.0825 37.3744,161.0825 Q36.0297,161.0825 35.3449,162.1492 Q34.6601,163.2158 34.6601,165.3159 Q34.6601,167.4077 35.3449,168.4744 Q36.0297,169.541 37.3744,169.541 Q38.0053,169.541 38.5988,169.2712 Q39.1923,169.0015 39.8231,168.4204 Z " fill="#000000"/><text x="51.35" y="170.291" fill="#000000" font-size="14" lengthAdjust="spacing" textLength="29.2988" font-family="sans-serif">Role</text><line x1="23.35" y1="181" x2="82.6488" y2="181" style="stroke:#181818;stroke-width:0.5;"/><line x1="23.35" y1="189" x2="82.6488" y2="189" style="stroke:#181818;stroke-width:0.5;"/></g><!--link User to Role--><g class="link" data-entity-1="ent0002" data-entity-2="ent0003" id="lnk4" data-source-line="5" data-link-type="dependency"><path d="M53,89.26 C53,106.94 53,126.13 53,143.79" style="stroke:#181818;stroke-width:1;" fill="none" id="User-to-Role" codeLine="5"/><polygon points="53,148.79,57,139.79,53,143.79,49,139.79,53,148.79" fill="#181818" style="stroke:#181818;stroke-width:1;stroke-linejoin:miter;stroke-miterlimit:10;"/></g><?plantuml-src AqXCpavCJrLGSidFJSpCKrAevb9GICv9B2vM22rEBO9pWl9pKhbgkK1Y2hgwTc0-0000?></g></svg>