<svg xmlns="http://www.w3.org/2000/svg" xmlns:xlink="http://www.w3.org/1999/xlink" version="1.1" data-diagram-type="STATE" style="width:163px;height:720px;background:#FFFFFF;" width="163px" height="720px" viewBox="0 0 163 720" zoomAndPan="magnify" preserveAspectRatio="none" contentStyleType="text/css"><?plantuml $version$?><defs/><g><g class="entity" data-qualified-name="State1" id="ent0001" data-source-line="2"><path d="M19.5,86 L135.6025,86 A12.5,12.5 0 0 1 148.1025,98.5 L148.1025,110 L7,110 L7,98.5 A12.5,12.5 0 0 1 19.5,86" fill="#F1F1F1"/><rect x="7" y="86" width="141.1025" height="280" fill="none" style="stroke:#181818;stroke-width:0.5;" rx="12.5" ry="12.5"/><line x1="7" y1="110" x2="148.1025" y2="110" style="stroke:#181818;stroke-width:0.5;"/><text x="57.3388" y="101.8889" fill="#000000" font-size="14" lengthAdjust="spacing" textLength="40.425" font-family="sans-serif">State1</text><g class="start_entity" data-qualified-name="State1..start.State1" id="ent0005" data-source-line="3"><ellipse cx="28" cy="147" rx="10" ry="10" fill="#222222" style="stroke:#222222;stroke-width:1;"/></g><g class="entity" data-qualified-name="State1.State1a" id="ent0006" data-source-line="3"><rect x="55.89" y="122" width="68.2125" height="50" fill="#F1F1F1" style="stroke:#181818;stroke-width:0.5;" rx="12.5" ry="12.5"/><line x1="55.89" y1="146" x2="124.1025" y2="146" style="stroke:#181818;stroke-width:0.5;"/><text x="65.89" y="137.8889" fill="#000000" font-size="14" lengthAdjust="spacing" textLength="48.2125" font-family="sans-serif">State1a</text></g><g class="end_entity" data-qualified-name="State1..end.State1" id="ent0008" data-source-line="4"><ellipse cx="90" cy="219" rx="11" ry="11" fill="none" style="stroke:#222222;stroke-width:1;"/><ellipse cx="90" cy="219" rx="6" ry="6" fill="#222222" style="stroke:#222222;stroke-width:1;"/></g><!--link *start*State1 to State1a--><g class="link" data-entity-1="ent0005" data-entity-2="ent0006" id="lnk7" data-source-line="3" data-link-type="dependency"><path d="M38.17,147 C43.98,147 44.78,147 50.58,147" style="stroke:#181818;stroke-width:1;" fill="none" id="*start*State1-to-State1a"/><polygon points="55.58,147,46.58,143,50.58,147,46.58,151,55.58,147" fill="#181818" style="stroke:#181818;stroke-width:1;stroke-linejoin:miter;stroke-miterlimit:10;"/></g><!--link State1a to *end*State1--><g class="link" data-entity-1="ent0006" data-entity-2="ent0008" id="lnk9" data-source-line="4" data-link-type="dependency"><path d="M90,172.48 C90,184.47 90,193.27 90,202.5" style="stroke:#181818;stroke-width:1;" fill="none" id="State1a-to-*end*State1"/><polygon points="90,207.5,94,198.5,90,202.5,86,198.5,90,207.5" fill="#181818" style="stroke:#181818;stroke-width:1;stroke-linejoin:miter;stroke-miterlimit:10;"/></g><line x1="12" y1="238" x2="141.1025" y2="238" style="stroke:#181818;stroke-width:1.5;stroke-dasharray:8,10;"/><g class="start_entity" data-qualified-name="State1.CONC1..start.CONC1" id="ent0010" data-source-line="6"><ellipse cx="28" cy="270" rx="10" ry="10" fill="#222222" style="stroke:#222222;stroke-width:1;"/></g><g class="entity" data-qualified-name="State1.CONC1.State1b" id="ent0011" data-source-line="6"><rect x="55.89" y="245" width="68.2125" height="50" fill="#F1F1F1" style="stroke:#181818;stroke-width:0.5;" rx="12.5" ry="12.5"/><line x1="55.89" y1="269" x2="124.1025" y2="269" style="stroke:#181818;stroke-width:0.5;"/><text x="65.89" y="260.8889" fill="#000000" font-size="14" lengthAdjust="spacing" textLength="48.2125" font-family="sans-serif">State1b</text></g><g class="end_entity" data-qualified-name="State1.CONC1..end.CONC1" id="ent0013" data-source-line="7"><ellipse cx="90" cy="342" rx="11" ry="11" fill="none" style="stroke:#222222;stroke-width:1;"/><ellipse cx="90" cy="342" rx="6" ry="6" fill="#222222" style="stroke:#222222;stroke-width:1;"/></g><!--link *start*CONC1 to State1b--><g class="link" data-entity-1="ent0010" data-entity-2="ent0011" id="lnk12" data-source-line="6" data-link-type="dependency"><path d="M38.17,270 C43.98,270 44.78,270 50.58,270" style="stroke:#181818;stroke-width:1;" fill="none" id="*start*CONC1-to-State1b"/><polygon points="55.58,270,46.58,266,50.58,270,46.58,274,55.58,270" fill="#181818" style="stroke:#181818;stroke-width:1;stroke-linejoin:miter;stroke-miterlimit:10;"/></g><!--link State1b to *end*CONC1--><g class="link" data-entity-1="ent0011" data-entity-2="ent0013" id="lnk14" data-source-line="7" data-link-type="dependency"><path d="M90,295.48 C90,307.47 90,316.27 90,325.5" style="stroke:#181818;stroke-width:1;" fill="none" id="State1b-to-*end*CONC1"/><polygon points="90,330.5,94,321.5,90,325.5,86,321.5,90,330.5" fill="#181818" style="stroke:#181818;stroke-width:1;stroke-linejoin:miter;stroke-miterlimit:10;"/></g></g><g class="entity" data-qualified-name="State2" id="ent0003" data-source-line="10"><path d="M19.5,426 L135.6025,426 A12.5,12.5 0 0 1 148.1025,438.5 L148.1025,450 L7,450 L7,438.5 A12.5,12.5 0 0 1 19.5,426" fill="#F1F1F1"/><rect x="7" y="426" width="141.1025" height="280" fill="none" style="stroke:#181818;stroke-width:0.5;" rx="12.5" ry="12.5"/><line x1="7" y1="450" x2="148.1025" y2="450" style="stroke:#181818;stroke-width:0.5;"/><text x="57.3388" y="441.8889" fill="#000000" font-size="14" lengthAdjust="spacing" textLength="40.425" font-family="sans-serif">State2</text><g class="start_entity" data-qualified-name="State2..start.State2" id="ent0015" data-source-line="11"><ellipse cx="28" cy="487" rx="10" ry="10" fill="#222222" style="stroke:#222222;stroke-width:1;"/></g><g class="entity" data-qualified-name="State2.State2a" id="ent0016" data-source-line="11"><rect x="55.89" y="462" width="68.2125" height="50" fill="#F1F1F1" style="stroke:#181818;stroke-width:0.5;" rx="12.5" ry="12.5"/><line x1="55.89" y1="486" x2="124.1025" y2="486" style="stroke:#181818;stroke-width:0.5;"/><text x="65.89" y="477.8889" fill="#000000" font-size="14" lengthAdjust="spacing" textLength="48.2125" font-family="sans-serif">State2a</text></g><g class="end_entity" data-qualified-name="State2..end.State2" id="ent0018" data-source-line="12"><ellipse cx="90" cy="559" rx="11" ry="11" fill="none" style="stroke:#222222;stroke-width:1;"/><ellipse cx="90" cy="559" rx="6" ry="6" fill="#222222" style="stroke:#222222;stroke-width:1;"/></g><!--link *start*State2 to State2a--><g class="link" data-entity-1="ent0015" data-entity-2="ent0016" id="lnk17" data-source-line="11" data-link-type="dependency"><path d="M38.17,487 C43.98,487 44.78,487 50.58,487" style="stroke:#181818;stroke-width:1;" fill="none" id="*start*State2-to-State2a"/><polygon points="55.58,487,46.58,483,50.58,487,46.58,491,55.58,487" fill="#181818" style="stroke:#181818;stroke-width:1;stroke-linejoin:miter;stroke-miterlimit:10;"/></g><!--link State2a to *end*State2--><g class="link" data-entity-1="ent0016" data-entity-2="ent0018" id="lnk19" data-source-line="12" data-link-type="dependency"><path d="M90,512.48 C90,524.47 90,533.27 90,542.5" style="stroke:#181818;stroke-width:1;" fill="none" id="State2a-to-*end*State2"/><polygon points="90,547.5,94,538.5,90,542.5,86,538.5,90,547.5" fill="#181818" style="stroke:#181818;stroke-width:1;stroke-linejoin:miter;stroke-miterlimit:10;"/></g><line x1="12" y1="578" x2="141.1025" y2="578" style="stroke:#181818;stroke-width:1.5;stroke-dasharray:8,10;"/><g class="start_entity" data-qualified-name="State2.CONC2..start.CONC2" id="ent0020" data-source-line="14"><ellipse cx="28" cy="610" rx="10" ry="10" fill="#222222" style="stroke:#222222;stroke-width:1;"/></g><g class="entity" data-qualified-name="State2.CONC2.State2b" id="ent0021" data-source-line="14"><rect x="55.89" y="585" width="68.2125" height="50" fill="#F1F1F1" style="stroke:#181818;stroke-width:0.5;" rx="12.5" ry="12.5"/><line x1="55.89" y1="609" x2="124.1025" y2="609" style="stroke:#181818;stroke-width:0.5;"/><text x="65.89" y="600.8889" fill="#000000" font-size="14" lengthAdjust="spacing" textLength="48.2125" font-family="sans-serif">State2b</text></g><g class="end_entity" data-qualified-name="State2.CONC2..end.CONC2" id="ent0023" data-source-line="15"><ellipse cx="90" cy="682" rx="11" ry="11" fill="none" style="stroke:#222222;stroke-width:1;"/><ellipse cx="90" cy="682" rx="6" ry="6" fill="#222222" style="stroke:#222222;stroke-width:1;"/></g><!--link *start*CONC2 to State2b--><g class="link" data-entity-1="ent0020" data-entity-2="ent0021" id="lnk22" data-source-line="14" data-link-type="dependency"><path d="M38.17,610 C43.98,610 44.78,610 50.58,610" style="stroke:#181818;stroke-width:1;" fill="none" id="*start*CONC2-to-State2b"/><polygon points="55.58,610,46.58,606,50.58,610,46.58,614,55.58,610" fill="#181818" style="stroke:#181818;stroke-width:1;stroke-linejoin:miter;stroke-miterlimit:10;"/></g><!--link State2b to *end*CONC2--><g class="link" data-entity-1="ent0021" data-entity-2="ent0023" id="lnk24" data-source-line="15" data-link-type="dependency"><path d="M90,635.48 C90,647.47 90,656.27 90,665.5" style="stroke:#181818;stroke-width:1;" fill="none" id="State2b-to-*end*CONC2"/><polygon points="90,670.5,94,661.5,90,665.5,86,661.5,90,670.5" fill="#181818" style="stroke:#181818;stroke-width:1;stroke-linejoin:miter;stroke-miterlimit:10;"/></g></g><g class="start_entity" data-qualified-name=".start." id="ent0025" data-source-line="18"><ellipse cx="77.55" cy="16" rx="10" ry="10" fill="#222222" style="stroke:#222222;stroke-width:1;"/></g><!--link *start* to State1--><g class="link" data-entity-1="ent0025" data-entity-2="ent0001" id="lnk26" data-source-line="18" data-link-type="dependency"><path d="M77.55,26.48 C77.55,38.44 77.55,55.52 77.55,80.74" style="stroke:#181818;stroke-width:1;" fill="none" id="*start*-to-State1"/><polygon points="77.55,85.74,81.55,76.74,77.55,80.74,73.55,76.74,77.55,85.74" fill="#181818" style="stroke:#181818;stroke-width:1;stroke-linejoin:miter;stroke-miterlimit:10;"/></g><!--link State1 to State2--><g class="link" data-entity-1="ent0001" data-entity-2="ent0003" id="lnk27" data-source-line="19" data-link-type="dependency"><path d="M77.55,366.43 C77.55,385.98 77.55,401.07 77.55,420.62" style="stroke:#181818;stroke-width:1;" fill="none" id="State1-to-State2"/><polygon points="77.55,425.62,81.55,416.62,77.55,420.62,73.55,416.62,77.55,425.62" fill="#181818" style="stroke:#181818;stroke-width:1;stroke-linejoin:miter;stroke-miterlimit:10;"/></g><?plantuml-src Aov9B4bL20QHXWhLN0eA2j5QiGgwTb2XH908bAcW2nG6oOB4T7Knr2OXr2OXrDPoSHKZx332jCC8OOSH8JkC47OOeTe1LWLt2XVKGt0H8m00?></g></svg>