<svg xmlns="http://www.w3.org/2000/svg" xmlns:xlink="http://www.w3.org/1999/xlink" version="1.1" data-diagram-type="CLASS" style="width:235px;height:110px;background:#FFFFFF;" width="235px" height="110px" viewBox="0 0 235 110" zoomAndPan="magnify" preserveAspectRatio="none" contentStyleType="text/css"><?plantuml $version$?><defs/><g><!--class foo--><g class="entity" data-qualified-name="foo" id="ent0001" data-source-line="1"><rect x="7" y="7" width="215.525" height="90" fill="#F1F1F1" style="stroke:#181818;stroke-width:0.5;" rx="2.5" ry="2.5"/><ellipse cx="100.8" cy="23" rx="11" ry="11" fill="#ADD1B2" style="stroke:#181818;stroke-width:1;"/><path d="M103.2731,29.1431 Q102.6921,29.4419 102.0529,29.5913 Q101.4138,29.7407 100.7082,29.7407 Q98.2014,29.7407 96.8815,28.0889 Q95.5617,26.437 95.5617,23.3159 Q95.5617,20.1865 96.8815,18.5347 Q98.2014,16.8828 100.7082,16.8828 Q101.4138,16.8828 102.0612,17.0322 Q102.7087,17.1816 103.2731,17.4805 L103.2731,20.2031 Q102.6423,19.6221 102.0488,19.3523 Q101.4553,19.0825 100.8244,19.0825 Q99.4797,19.0825 98.7949,20.1492 Q98.1101,21.2158 98.1101,23.3159 Q98.1101,25.4077 98.7949,26.4744 Q99.4797,27.541 100.8244,27.541 Q101.4553,27.541 102.0488,27.2712 Q102.6423,27.0015 103.2731,26.4204 Z " fill="#000000"/><text x="121.3" y="26.8889" fill="#000000" font-size="14" lengthAdjust="spacing" textLength="19.425" font-family="sans-serif">foo</text><line x1="8" y1="39" x2="221.525" y2="39" style="stroke:#181818;stroke-width:0.5;"/><a target="_top" href="http://plantuml.com" xlink:href="http://plantuml.com" xlink:type="simple" xlink:actuate="onRequest" xlink:show="new" title="http://plantuml.com" xlink:title="http://plantuml.com"><text x="13" y="53.8889" fill="#0000FF" font-size="14" lengthAdjust="spacing" textLength="118.0375" text-decoration="underline" font-family="sans-serif">http://plantuml.com</text></a><text x="131.0375" y="53.8889" fill="#000000" font-size="14" lengthAdjust="spacing" textLength="85.4875" font-family="sans-serif">for information</text><a target="_top" href="http://plantuml.com" xlink:href="http://plantuml.com" xlink:type="simple" xlink:actuate="onRequest" xlink:show="new" title="http://plantuml.com" xlink:title="http://plantuml.com"><text x="13" y="67.8889" fill="#0000FF" font-size="14" lengthAdjust="spacing" textLength="67.725" text-decoration="underline" font-family="sans-serif">our web site</text></a><text x="80.725" y="67.8889" fill="#000000" font-size="14" lengthAdjust="spacing" textLength="85.4875" font-family="sans-serif">for information</text><a target="_top" href="http://plantuml.com" xlink:href="http://plantuml.com" xlink:type="simple" xlink:actuate="onRequest" xlink:show="new" title="This is a tip" xlink:title="This is a tip"><text x="13" y="81.8889" fill="#0000FF" font-size="14" lengthAdjust="spacing" textLength="67.725" text-decoration="underline" font-family="sans-serif">our web site</text></a><text x="80.725" y="81.8889" fill="#000000" font-size="14" lengthAdjust="spacing" textLength="85.4875" font-family="sans-serif">for information</text><line x1="8" y1="89" x2="221.525" y2="89" style="stroke:#181818;stroke-width:0.5;"/></g><?plantuml-src Iyv9B2vMIClFLwZcYexEA2afiDBNByX9p2ifpStHIyxFZOq5oXOfPEO1oTp4aipyFEpg5F9BYnJAKvCKYZDBKedLL1sIaLci04I92YMP1RM4pAW50000?></g></svg>