<svg xmlns="http://www.w3.org/2000/svg" xmlns:xlink="http://www.w3.org/1999/xlink" version="1.1" data-diagram-type="STATE" style="width:226px;height:218px;background:#FFFFFF;" width="226px" height="218px" viewBox="0 0 226 218" zoomAndPan="magnify" preserveAspectRatio="none" contentStyleType="text/css"><?plantuml $version$?><defs/><g><g class="start_entity" data-qualified-name=".start." id="ent0001" data-source-line="2"><ellipse cx="115.89" cy="16" rx="10" ry="10" fill="#222222" style="stroke:#222222;stroke-width:1;"/></g><rect x="75.89" y="86" width="80" height="8" fill="#555555" style="stroke:none;stroke-width:1;"/><g class="entity" data-qualified-name="Independant" id="ent0004" data-source-line="3"><rect x="7" y="154" width="97.7875" height="50" fill="#F1F1F1" style="stroke:#181818;stroke-width:0.5;" rx="12.5" ry="12.5"/><line x1="7" y1="178" x2="104.7875" y2="178" style="stroke:#181818;stroke-width:0.5;"/><text x="17" y="169.8889" fill="#000000" font-size="14" lengthAdjust="spacing" textLength="77.7875" font-family="sans-serif">Independant</text></g><g class="entity" data-qualified-name="Etudiant" id="ent0006" data-source-line="4"><rect x="140.21" y="154" width="71.3625" height="50" fill="#F1F1F1" style="stroke:#181818;stroke-width:0.5;" rx="12.5" ry="12.5"/><line x1="140.21" y1="178" x2="211.5725" y2="178" style="stroke:#181818;stroke-width:0.5;"/><text x="150.21" y="169.8889" fill="#000000" font-size="14" lengthAdjust="spacing" textLength="51.3625" font-family="sans-serif">Etudiant</text></g><!--link *start* to B1--><g class="link" data-entity-1="ent0001" data-entity-2="ent0002" id="lnk3" data-source-line="2" data-link-type="dependency"><path d="M115.89,26.41 C115.89,42.57 115.89,69.89 115.89,80.52" style="stroke:#181818;stroke-width:1;" fill="none" id="*start*-to-B1"/><polygon points="115.89,85.52,119.89,76.52,115.89,80.52,111.89,76.52,115.89,85.52" fill="#181818" style="stroke:#181818;stroke-width:1;stroke-linejoin:miter;stroke-miterlimit:10;"/></g><!--link B1 to Independant--><g class="link" data-entity-1="ent0002" data-entity-2="ent0004" id="lnk5" data-source-line="3" data-link-type="dependency"><path d="M113.61,94.3 C106.98,103.93 90.0588,128.4641 75.4988,149.5741" style="stroke:#181818;stroke-width:1;" fill="none" id="B1-to-Independant"/><polygon points="72.66,153.69,81.0627,148.5524,75.4988,149.5741,74.4772,144.0102,72.66,153.69" fill="#181818" style="stroke:#181818;stroke-width:1;stroke-linejoin:miter;stroke-miterlimit:10;"/></g><!--link B1 to Etudiant--><g class="link" data-entity-1="ent0002" data-entity-2="ent0006" id="lnk7" data-source-line="4" data-link-type="dependency"><path d="M118.17,94.3 C124.81,103.93 141.7312,128.4641 156.2912,149.5741" style="stroke:#181818;stroke-width:1;" fill="none" id="B1-to-Etudiant"/><polygon points="159.13,153.69,157.3128,144.0102,156.2912,149.5741,150.7273,148.5524,159.13,153.69" fill="#181818" style="stroke:#181818;stroke-width:1;stroke-linejoin:miter;stroke-miterlimit:10;"/></g><?plantuml-src KzVGqbJGrRLJiBMrTJ844bpHMh6e0Z06MDGpBoMr83Kl9J6l15N2jQGq9HCe2W00?></g></svg>