<svg xmlns="http://www.w3.org/2000/svg" xmlns:xlink="http://www.w3.org/1999/xlink" version="1.1" data-diagram-type="STATE" style="width:176px;height:150px;background:#FFFFFF;" width="176px" height="150px" viewBox="0 0 176 150" zoomAndPan="magnify" preserveAspectRatio="none" contentStyleType="text/css"><?plantuml $version$?><defs/><g><g class="start_entity" data-qualified-name=".start." id="ent0001" data-source-line="1"><ellipse cx="132.46" cy="16" rx="10" ry="10" fill="#222222" style="stroke:#222222;stroke-width:1;"/></g><g class="entity" data-qualified-name="state1" id="ent0002" data-source-line="1"><rect x="103.43" y="86" width="58.0625" height="50" fill="#F1F1F1" style="stroke:#181818;stroke-width:0.5;" rx="12.5" ry="12.5"/><line x1="103.43" y1="110" x2="161.4925" y2="110" style="stroke:#181818;stroke-width:0.5;"/><text x="113.43" y="101.8889" fill="#000000" font-size="14" lengthAdjust="spacing" textLength="38.0625" font-family="sans-serif">state1</text></g><g class="entity" data-qualified-name="GMN4" id="ent0005" data-source-line="3"><path d="M6,99.5 L6,122.5 A0,0 0 0 0 6,122.5 L68.925,122.5 A0,0 0 0 0 68.925,122.5 L68.925,117.5 L103.38,111 L68.925,109.5 L68.925,109.5 L58.925,99.5 L6,99.5 A0,0 0 0 0 6,99.5" style="stroke:#181818;stroke-width:0.5;" fill="#FEFFDD"/><path d="M58.925,99.5 L58.925,109.5 L68.925,109.5 L58.925,99.5" style="stroke:#181818;stroke-width:0.5;" fill="#FEFFDD"/><text x="12" y="114.6111" fill="#000000" font-size="13" lengthAdjust="spacing" textLength="41.925" font-family="sans-serif">coucou</text></g><!--link *start* to state1--><g class="link" data-entity-1="ent0001" data-entity-2="ent0002" id="lnk3" data-source-line="1" data-link-type="dependency"><path d="M132.46,26.26 C132.46,39.95 132.46,61.07 132.46,80.52" style="stroke:#181818;stroke-width:1;" fill="none" id="*start*-to-state1"/><polygon points="132.46,85.52,136.46,76.52,132.46,80.52,128.46,76.52,132.46,85.52" fill="#181818" style="stroke:#181818;stroke-width:1;stroke-linejoin:miter;stroke-miterlimit:10;"/></g><?plantuml-src YzQALT3LjLCeBaaiIJNauihBBqbLo4bDAr78JuCAAbWf9EUN0X4N0000?></g></svg>