<svg xmlns="http://www.w3.org/2000/svg" xmlns:xlink="http://www.w3.org/1999/xlink" version="1.1" data-diagram-type="CLASS" style="width:180px;height:154px;background:#FFFFFF;" width="180px" height="154px" viewBox="0 0 180 154" zoomAndPan="magnify" preserveAspectRatio="none" contentStyleType="text/css"><?plantuml $version$?><defs/><g><!--class A--><g class="entity" data-qualified-name="A" id="ent0001" data-source-line="1"><rect x="7" y="7" width="61.7875" height="132" fill="#F1F1F1" style="stroke:#181818;stroke-width:0.5;" rx="2.5" ry="2.5"/><ellipse cx="31.1912" cy="23" rx="11" ry="11" fill="#ADD1B2" style="stroke:#181818;stroke-width:1;"/><path d="M33.6644,29.1431 Q33.0833,29.4419 32.4442,29.5913 Q31.805,29.7407 31.0995,29.7407 Q28.5926,29.7407 27.2728,28.0889 Q25.953,26.437 25.953,23.3159 Q25.953,20.1865 27.2728,18.5347 Q28.5926,16.8828 31.0995,16.8828 Q31.805,16.8828 32.4525,17.0322 Q33.0999,17.1816 33.6644,17.4805 L33.6644,20.2031 Q33.0335,19.6221 32.44,19.3523 Q31.8465,19.0825 31.2157,19.0825 Q29.8709,19.0825 29.1861,20.1492 Q28.5013,21.2158 28.5013,23.3159 Q28.5013,25.4077 29.1861,26.4744 Q29.8709,27.541 31.2157,27.541 Q31.8465,27.541 32.44,27.2712 Q33.0335,27.0015 33.6644,26.4204 Z " fill="#000000"/><text x="47.2337" y="26.8889" fill="#000000" font-size="14" lengthAdjust="spacing" textLength="9.3625" font-family="sans-serif">A</text><line x1="8" y1="39" x2="67.7875" y2="39" style="stroke:#181818;stroke-width:0.5;"/><text x="13" y="53.8889" fill="#000000" font-size="14" lengthAdjust="spacing" textLength="49.7875" font-family="sans-serif">i : integer</text><text x="13" y="67.8889" fill="#000000" font-size="14" lengthAdjust="spacing" textLength="37.275" font-family="sans-serif">x : float</text><text x="13" y="81.8889" fill="#000000" font-size="14" lengthAdjust="spacing" textLength="11.55" font-family="sans-serif">...</text><line x1="8" y1="89" x2="67.7875" y2="89" style="stroke:#181818;stroke-width:1;"/><text x="13" y="103.8889" fill="#000000" font-size="14" lengthAdjust="spacing" textLength="31.7625" font-family="sans-serif">setI()</text><text x="13" y="117.8889" fill="#000000" font-size="14" lengthAdjust="spacing" textLength="32.55" font-family="sans-serif">getI()</text><text x="13" y="131.8889" fill="#000000" font-size="14" lengthAdjust="spacing" textLength="11.55" font-family="sans-serif">...</text></g><!--class B--><g class="entity" data-qualified-name="B" id="ent0002" data-source-line="11"><rect x="104" y="7" width="61.7875" height="132" fill="#F1F1F1" style="stroke:#181818;stroke-width:0.5;" rx="2.5" ry="2.5"/><ellipse cx="128.1913" cy="23" rx="11" ry="11" fill="#ADD1B2" style="stroke:#181818;stroke-width:1;"/><path d="M130.6644,29.1431 Q130.0833,29.4419 129.4442,29.5913 Q128.805,29.7407 128.0995,29.7407 Q125.5926,29.7407 124.2728,28.0889 Q122.953,26.437 122.953,23.3159 Q122.953,20.1865 124.2728,18.5347 Q125.5926,16.8828 128.0995,16.8828 Q128.805,16.8828 129.4525,17.0322 Q130.0999,17.1816 130.6644,17.4805 L130.6644,20.2031 Q130.0335,19.6221 129.44,19.3523 Q128.8465,19.0825 128.2157,19.0825 Q126.8709,19.0825 126.1861,20.1492 Q125.5013,21.2158 125.5013,23.3159 Q125.5013,25.4077 126.1861,26.4744 Q126.8709,27.541 128.2157,27.541 Q128.8465,27.541 129.44,27.2712 Q130.0335,27.0015 130.6644,26.4204 Z " fill="#000000"/><text x="144.2338" y="26.8889" fill="#000000" font-size="14" lengthAdjust="spacing" textLength="9.3625" font-family="sans-serif">B</text><line x1="105" y1="39" x2="164.7875" y2="39" style="stroke:#181818;stroke-width:0.5;"/><text x="110" y="53.8889" fill="#000000" font-size="14" lengthAdjust="spacing" textLength="49.7875" font-family="sans-serif">i : integer</text><text x="110" y="67.8889" fill="#000000" font-size="14" lengthAdjust="spacing" textLength="37.275" font-family="sans-serif">x : float</text><text x="110" y="81.8889" fill="#000000" font-size="14" lengthAdjust="spacing" textLength="11.55" font-family="sans-serif">...</text><text x="110" y="95.8889" fill="#000000" font-size="14" lengthAdjust="spacing" textLength="11.55" font-family="sans-serif">...</text><line x1="105" y1="103" x2="164.7875" y2="103" style="stroke:#181818;stroke-width:0.5;"/><text x="110" y="117.8889" fill="#000000" font-size="14" lengthAdjust="spacing" textLength="31.7625" font-family="sans-serif">setI()</text><text x="110" y="131.8889" fill="#000000" font-size="14" lengthAdjust="spacing" textLength="32.55" font-family="sans-serif">getI()</text></g><?plantuml-src Iyv9B2vMS5IevbB8LB1IoCmhIKrFBU9Ig01oqdBo4qku5FJqzBWKT7Mv58fJIpmrDBaKqg4qIAAMYoiPR8GJGIEmQmS0?></g></svg>