<svg xmlns="http://www.w3.org/2000/svg" xmlns:xlink="http://www.w3.org/1999/xlink" version="1.1" data-diagram-type="CLASS" style="width:222px;height:178px;background:#FFFFFF;" width="222px" height="178px" viewBox="0 0 222 178" zoomAndPan="magnify" preserveAspectRatio="none" contentStyleType="text/css"><?plantuml $version$?><defs/><g><!--class ReferenceInstructionVisitor--><g class="entity" data-qualified-name="ReferenceInstructionVisitor" id="ent0001" data-source-line="1"><rect x="7" y="115" width="200" height="48" fill="#F1F1F1" style="stroke:#181818;stroke-width:0.5;" rx="2.5" ry="2.5"/><ellipse cx="22" cy="131" rx="11" ry="11" fill="#ADD1B2" style="stroke:#181818;stroke-width:1;"/><path d="M24.4731,137.1431 Q23.8921,137.4419 23.2529,137.5913 Q22.6138,137.7407 21.9082,137.7407 Q19.4014,137.7407 18.0815,136.0889 Q16.7617,134.437 16.7617,131.3159 Q16.7617,128.1865 18.0815,126.5347 Q19.4014,124.8828 21.9082,124.8828 Q22.6138,124.8828 23.2612,125.0322 Q23.9087,125.1816 24.4731,125.4805 L24.4731,128.2031 Q23.8423,127.6221 23.2488,127.3523 Q22.6553,127.0825 22.0244,127.0825 Q20.6797,127.0825 19.9949,128.1492 Q19.3101,129.2158 19.3101,131.3159 Q19.3101,133.4077 19.9949,134.4744 Q20.6797,135.541 22.0244,135.541 Q22.6553,135.541 23.2488,135.2712 Q23.8423,135.0015 24.4731,134.4204 Z " fill="#000000"/><text x="36" y="134.8889" fill="#000000" font-size="14" lengthAdjust="spacing" textLength="168" font-family="sans-serif">ReferenceInstructionVisitor</text><line x1="8" y1="147" x2="206" y2="147" style="stroke:#181818;stroke-width:0.5;"/><line x1="8" y1="155" x2="206" y2="155" style="stroke:#181818;stroke-width:0.5;"/></g><!--class Instruction$Visitor--><g class="entity" data-qualified-name="Instruction.Visitor" id="ent0002" data-source-line="2"><rect x="35.39" y="7" width="143.2125" height="48" fill="#F1F1F1" style="stroke:#181818;stroke-width:0.5;" rx="2.5" ry="2.5"/><ellipse cx="50.39" cy="23" rx="11" ry="11" fill="#ADD1B2" style="stroke:#181818;stroke-width:1;"/><path d="M52.8631,29.1431 Q52.2821,29.4419 51.6429,29.5913 Q51.0038,29.7407 50.2982,29.7407 Q47.7914,29.7407 46.4715,28.0889 Q45.1517,26.437 45.1517,23.3159 Q45.1517,20.1865 46.4715,18.5347 Q47.7914,16.8828 50.2982,16.8828 Q51.0038,16.8828 51.6512,17.0322 Q52.2987,17.1816 52.8631,17.4805 L52.8631,20.2031 Q52.2323,19.6221 51.6388,19.3523 Q51.0453,19.0825 50.4144,19.0825 Q49.0697,19.0825 48.3849,20.1492 Q47.7001,21.2158 47.7001,23.3159 Q47.7001,25.4077 48.3849,26.4744 Q49.0697,27.541 50.4144,27.541 Q51.0453,27.541 51.6388,27.2712 Q52.2323,27.0015 52.8631,26.4204 Z " fill="#000000"/><text x="64.39" y="26.8889" fill="#000000" font-size="14" lengthAdjust="spacing" textLength="111.2125" font-family="sans-serif">Instruction$Visitor</text><line x1="36.39" y1="39" x2="177.6025" y2="39" style="stroke:#181818;stroke-width:0.5;"/><line x1="36.39" y1="47" x2="177.6025" y2="47" style="stroke:#181818;stroke-width:0.5;"/></g><!--reverse link Instruction$Visitor to ReferenceInstructionVisitor--><g class="link" data-entity-1="ent0002" data-entity-2="ent0001" id="lnk3" data-source-line="2" data-link-type="extension"><path d="M107,73.26 C107,90.94 107,97.13 107,114.79" style="stroke:#181818;stroke-width:1;" fill="none" id="Instruction$Visitor-backto-ReferenceInstructionVisitor"/><polygon points="107,55.26,101,73.26,113,73.26,107,55.26" fill="none" style="stroke:#181818;stroke-width:1;stroke-linejoin:miter;stroke-miterlimit:10;"/></g><?plantuml-src Iyv9B2vM24fDIorApKjEzSmhBYagJIx9pCyBoopEBCalKaYjA4dDIobMG99IWSbLSt7L0W00?></g></svg>