<svg xmlns="http://www.w3.org/2000/svg" xmlns:xlink="http://www.w3.org/1999/xlink" version="1.1" data-diagram-type="CLASS" style="width:272px;height:286px;background:#FFFFFF;" width="272px" height="286px" viewBox="0 0 272 286" zoomAndPan="magnify" preserveAspectRatio="none" contentStyleType="text/css"><?plantuml $version$?><defs/><g><!--class A0--><g class="entity" data-qualified-name="A0" id="ent0001" data-source-line="2"><rect x="133" y="7" width="49.15" height="48" fill="#F1F1F1" style="stroke:#181818;stroke-width:0.5;" rx="2.5" ry="2.5"/><ellipse cx="148" cy="23" rx="11" ry="11" fill="#ADD1B2" style="stroke:#181818;stroke-width:1;"/><path d="M150.4731,29.1431 Q149.8921,29.4419 149.2529,29.5913 Q148.6138,29.7407 147.9082,29.7407 Q145.4014,29.7407 144.0815,28.0889 Q142.7617,26.437 142.7617,23.3159 Q142.7617,20.1865 144.0815,18.5347 Q145.4014,16.8828 147.9082,16.8828 Q148.6138,16.8828 149.2612,17.0322 Q149.9087,17.1816 150.4731,17.4805 L150.4731,20.2031 Q149.8423,19.6221 149.2488,19.3523 Q148.6553,19.0825 148.0244,19.0825 Q146.6797,19.0825 145.9949,20.1492 Q145.3101,21.2158 145.3101,23.3159 Q145.3101,25.4077 145.9949,26.4744 Q146.6797,27.541 148.0244,27.541 Q148.6553,27.541 149.2488,27.2712 Q149.8423,27.0015 150.4731,26.4204 Z " fill="#000000"/><text x="162" y="26.8889" fill="#000000" font-size="14" lengthAdjust="spacing" textLength="17.15" font-family="sans-serif">A0</text><line x1="134" y1="39" x2="181.15" y2="39" style="stroke:#181818;stroke-width:0.5;"/><line x1="134" y1="47" x2="181.15" y2="47" style="stroke:#181818;stroke-width:0.5;"/></g><!--class B0--><g class="entity" data-qualified-name="B0" id="ent0002" data-source-line="2"><rect x="7" y="115" width="49.15" height="48" fill="#F1F1F1" style="stroke:#181818;stroke-width:0.5;" rx="2.5" ry="2.5"/><ellipse cx="22" cy="131" rx="11" ry="11" fill="#ADD1B2" style="stroke:#181818;stroke-width:1;"/><path d="M24.4731,137.1431 Q23.8921,137.4419 23.2529,137.5913 Q22.6138,137.7407 21.9082,137.7407 Q19.4014,137.7407 18.0815,136.0889 Q16.7617,134.437 16.7617,131.3159 Q16.7617,128.1865 18.0815,126.5347 Q19.4014,124.8828 21.9082,124.8828 Q22.6138,124.8828 23.2612,125.0322 Q23.9087,125.1816 24.4731,125.4805 L24.4731,128.2031 Q23.8423,127.6221 23.2488,127.3523 Q22.6553,127.0825 22.0244,127.0825 Q20.6797,127.0825 19.9949,128.1492 Q19.3101,129.2158 19.3101,131.3159 Q19.3101,133.4077 19.9949,134.4744 Q20.6797,135.541 22.0244,135.541 Q22.6553,135.541 23.2488,135.2712 Q23.8423,135.0015 24.4731,134.4204 Z " fill="#000000"/><text x="36" y="134.8889" fill="#000000" font-size="14" lengthAdjust="spacing" textLength="17.15" font-family="sans-serif">B0</text><line x1="8" y1="147" x2="55.15" y2="147" style="stroke:#181818;stroke-width:0.5;"/><line x1="8" y1="155" x2="55.15" y2="155" style="stroke:#181818;stroke-width:0.5;"/></g><!--class B1--><g class="entity" data-qualified-name="B1" id="ent0004" data-source-line="3"><rect x="91" y="115" width="49.15" height="48" fill="#F1F1F1" style="stroke:#181818;stroke-width:0.5;" rx="2.5" ry="2.5"/><ellipse cx="106" cy="131" rx="11" ry="11" fill="#ADD1B2" style="stroke:#181818;stroke-width:1;"/><path d="M108.4731,137.1431 Q107.8921,137.4419 107.2529,137.5913 Q106.6138,137.7407 105.9082,137.7407 Q103.4014,137.7407 102.0815,136.0889 Q100.7617,134.437 100.7617,131.3159 Q100.7617,128.1865 102.0815,126.5347 Q103.4014,124.8828 105.9082,124.8828 Q106.6138,124.8828 107.2612,125.0322 Q107.9087,125.1816 108.4731,125.4805 L108.4731,128.2031 Q107.8423,127.6221 107.2488,127.3523 Q106.6553,127.0825 106.0244,127.0825 Q104.6797,127.0825 103.9949,128.1492 Q103.3101,129.2158 103.3101,131.3159 Q103.3101,133.4077 103.9949,134.4744 Q104.6797,135.541 106.0244,135.541 Q106.6553,135.541 107.2488,135.2712 Q107.8423,135.0015 108.4731,134.4204 Z " fill="#000000"/><text x="120" y="134.8889" fill="#000000" font-size="14" lengthAdjust="spacing" textLength="17.15" font-family="sans-serif">B1</text><line x1="92" y1="147" x2="139.15" y2="147" style="stroke:#181818;stroke-width:0.5;"/><line x1="92" y1="155" x2="139.15" y2="155" style="stroke:#181818;stroke-width:0.5;"/></g><!--class B2--><g class="entity" data-qualified-name="B2" id="ent0006" data-source-line="4"><rect x="175" y="115" width="49.15" height="48" fill="#F1F1F1" style="stroke:#181818;stroke-width:0.5;" rx="2.5" ry="2.5"/><ellipse cx="190" cy="131" rx="11" ry="11" fill="#ADD1B2" style="stroke:#181818;stroke-width:1;"/><path d="M192.4731,137.1431 Q191.8921,137.4419 191.2529,137.5913 Q190.6138,137.7407 189.9082,137.7407 Q187.4014,137.7407 186.0815,136.0889 Q184.7617,134.437 184.7617,131.3159 Q184.7617,128.1865 186.0815,126.5347 Q187.4014,124.8828 189.9082,124.8828 Q190.6138,124.8828 191.2612,125.0322 Q191.9087,125.1816 192.4731,125.4805 L192.4731,128.2031 Q191.8423,127.6221 191.2488,127.3523 Q190.6553,127.0825 190.0244,127.0825 Q188.6797,127.0825 187.9949,128.1492 Q187.3101,129.2158 187.3101,131.3159 Q187.3101,133.4077 187.9949,134.4744 Q188.6797,135.541 190.0244,135.541 Q190.6553,135.541 191.2488,135.2712 Q191.8423,135.0015 192.4731,134.4204 Z " fill="#000000"/><text x="204" y="134.8889" fill="#000000" font-size="14" lengthAdjust="spacing" textLength="17.15" font-family="sans-serif">B2</text><line x1="176" y1="147" x2="223.15" y2="147" style="stroke:#181818;stroke-width:0.5;"/><line x1="176" y1="155" x2="223.15" y2="155" style="stroke:#181818;stroke-width:0.5;"/></g><!--class C0--><g class="entity" data-qualified-name="C0" id="ent0008" data-source-line="5"><rect x="171.61" y="223" width="49.9375" height="48" fill="#F1F1F1" style="stroke:#181818;stroke-width:0.5;" rx="2.5" ry="2.5"/><ellipse cx="186.61" cy="239" rx="11" ry="11" fill="#ADD1B2" style="stroke:#181818;stroke-width:1;"/><path d="M189.0831,245.1431 Q188.5021,245.4419 187.8629,245.5913 Q187.2238,245.7407 186.5182,245.7407 Q184.0114,245.7407 182.6915,244.0889 Q181.3717,242.437 181.3717,239.3159 Q181.3717,236.1865 182.6915,234.5347 Q184.0114,232.8828 186.5182,232.8828 Q187.2238,232.8828 187.8712,233.0322 Q188.5187,233.1816 189.0831,233.4805 L189.0831,236.2031 Q188.4523,235.6221 187.8588,235.3523 Q187.2653,235.0825 186.6344,235.0825 Q185.2897,235.0825 184.6049,236.1492 Q183.9201,237.2158 183.9201,239.3159 Q183.9201,241.4077 184.6049,242.4744 Q185.2897,243.541 186.6344,243.541 Q187.2653,243.541 187.8588,243.2712 Q188.4523,243.0015 189.0831,242.4204 Z " fill="#000000"/><text x="200.61" y="242.8889" fill="#000000" font-size="14" lengthAdjust="spacing" textLength="17.9375" font-family="sans-serif">C0</text><line x1="172.61" y1="255" x2="220.5475" y2="255" style="stroke:#181818;stroke-width:0.5;"/><line x1="172.61" y1="263" x2="220.5475" y2="263" style="stroke:#181818;stroke-width:0.5;"/></g><!--reverse link A0 to B0--><g class="link" data-entity-1="ent0001" data-entity-2="ent0002" id="lnk3" data-source-line="2" data-link-type="extension"><path d="M118.9079,64.53 C96.8179,83.12 78.49,98.53 56.42,117.1" style="stroke:#181818;stroke-width:1;" fill="none" id="A0-backto-B0" codeLine="2"/><polygon points="132.68,52.94,115.0445,59.9393,122.7712,69.1207,132.68,52.94" fill="none" style="stroke:#181818;stroke-width:1;stroke-linejoin:miter;stroke-miterlimit:10;"/></g><!--reverse link A0 to B1--><g class="link" data-entity-1="ent0001" data-entity-2="ent0004" id="lnk5" data-source-line="3" data-link-type="extension"><path d="M141.7338,71.996 C134.7338,89.676 131.77,97.13 124.77,114.79" style="stroke:#181818;stroke-width:1;" fill="none" id="A0-backto-B1" codeLine="3"/><polygon points="148.36,55.26,136.1551,69.7872,147.3124,74.2047,148.36,55.26" fill="none" style="stroke:#181818;stroke-width:1;stroke-linejoin:miter;stroke-miterlimit:10;"/></g><!--reverse link A0 to B2--><g class="link" data-entity-1="ent0001" data-entity-2="ent0006" id="lnk7" data-source-line="4" data-link-type="extension"><path d="M173.4162,71.996 C180.4162,89.676 183.38,97.13 190.38,114.79" style="stroke:#181818;stroke-width:1;" fill="none" id="A0-backto-B2" codeLine="4"/><polygon points="166.79,55.26,167.8376,74.2047,178.9949,69.7872,166.79,55.26" fill="none" style="stroke:#181818;stroke-width:1;stroke-linejoin:miter;stroke-miterlimit:10;"/></g><!--reverse link B1 to C0--><g class="link" data-entity-1="ent0004" data-entity-2="ent0008" id="lnk9" data-source-line="5" data-link-type="extension"><path d="M144.279,177.5623 C157.789,195.2423 165.35,205.13 178.84,222.79" style="stroke:#181818;stroke-width:1;" fill="none" id="B1-backto-C0" codeLine="5"/><polygon points="133.35,163.26,139.5115,181.2053,149.0464,173.9193,133.35,163.26" fill="none" style="stroke:#181818;stroke-width:1;stroke-linejoin:miter;stroke-miterlimit:10;"/></g><!--reverse link A0 to C0--><g class="link" data-entity-1="ent0001" data-entity-2="ent0008" id="lnk10" data-source-line="6" data-link-type="extension"><path d="M196.9169,58.5938 C217.1269,73.2638 229.64,86.43 241.58,115 C257.05,152.06 233.19,196.51 214.72,222.95" style="stroke:#181818;stroke-width:1;" fill="none" id="A0-backto-C0" codeLine="6"/><polygon points="182.35,48.02,193.3923,63.4494,200.4415,53.7382,182.35,48.02" fill="none" style="stroke:#181818;stroke-width:1;stroke-linejoin:miter;stroke-miterlimit:10;"/></g><?plantuml-src SpHGiAdHrLLmCk1oX34D4KmZBYT32DCPeG381000?></g></svg>