<svg xmlns="http://www.w3.org/2000/svg" xmlns:xlink="http://www.w3.org/1999/xlink" version="1.1" data-diagram-type="CLASS" style="width:109px;height:82px;background:#FFFFFF;" width="109px" height="82px" viewBox="0 0 109 82" zoomAndPan="magnify" preserveAspectRatio="none" contentStyleType="text/css"><?plantuml $version$?><defs/><g><!--class foo--><g class="entity" data-qualified-name="foo" id="ent0001" data-source-line="3"><rect x="7" y="7" width="89.175" height="62" fill="#F1F1F1" style="stroke:#181818;stroke-width:0.5;" rx="2.5" ry="2.5"/><ellipse cx="38.9875" cy="23" rx="11" ry="11" fill="#ADD1B2" style="stroke:#181818;stroke-width:1;"/><path d="M41.4606,29.1431 Q40.8796,29.4419 40.2404,29.5913 Q39.6013,29.7407 38.8957,29.7407 Q36.3889,29.7407 35.069,28.0889 Q33.7492,26.437 33.7492,23.3159 Q33.7492,20.1865 35.069,18.5347 Q36.3889,16.8828 38.8957,16.8828 Q39.6013,16.8828 40.2487,17.0322 Q40.8962,17.1816 41.4606,17.4805 L41.4606,20.2031 Q40.8298,19.6221 40.2363,19.3523 Q39.6428,19.0825 39.0119,19.0825 Q37.6672,19.0825 36.9824,20.1492 Q36.2976,21.2158 36.2976,23.3159 Q36.2976,25.4077 36.9824,26.4744 Q37.6672,27.541 39.0119,27.541 Q39.6428,27.541 40.2363,27.2712 Q40.8298,27.0015 41.4606,26.4204 Z " fill="#000000"/><text x="56.7625" y="26.8889" fill="#000000" font-size="14" lengthAdjust="spacing" textLength="19.425" font-family="sans-serif">foo</text><line x1="8" y1="39" x2="95.175" y2="39" style="stroke:#181818;stroke-width:0.5;"/><text x="13" y="53.8889" fill="#000000" font-size="14" lengthAdjust="spacing" textLength="77.175" font-family="sans-serif">This is shown</text><line x1="8" y1="61" x2="95.175" y2="61" style="stroke:#181818;stroke-width:0.5;"/></g><?plantuml-src Kqn9JSlCIrK8zl0FZtVpTFLn2UPIBCq3YaA4V5r3FFo1OiavYSN52cdv-GhLN8gPQN1vY1Q5cXfKvI4PcSKAG5ISaL-UnwMOcfUIcOPDdveQTdr-_Y6eUci1?></g></svg>