<svg xmlns="http://www.w3.org/2000/svg" xmlns:xlink="http://www.w3.org/1999/xlink" version="1.1" data-diagram-type="CLASS" style="width:135px;height:178px;background:#FFFFFF;" width="135px" height="178px" viewBox="0 0 135 178" zoomAndPan="magnify" preserveAspectRatio="none" contentStyleType="text/css"><?plantuml $version$?><defs/><g><!--class a--><g class="entity" data-qualified-name="a" id="ent0001" data-source-line="1"><rect x="44" y="7" width="39.7875" height="48" fill="#F1F1F1" style="stroke:#181818;stroke-width:0.5;" rx="2.5" ry="2.5"/><ellipse cx="59" cy="23" rx="11" ry="11" fill="#ADD1B2" style="stroke:#181818;stroke-width:1;"/><path d="M61.4731,29.1431 Q60.8921,29.4419 60.2529,29.5913 Q59.6138,29.7407 58.9082,29.7407 Q56.4014,29.7407 55.0815,28.0889 Q53.7617,26.437 53.7617,23.3159 Q53.7617,20.1865 55.0815,18.5347 Q56.4014,16.8828 58.9082,16.8828 Q59.6138,16.8828 60.2612,17.0322 Q60.9087,17.1816 61.4731,17.4805 L61.4731,20.2031 Q60.8423,19.6221 60.2488,19.3523 Q59.6553,19.0825 59.0244,19.0825 Q57.6797,19.0825 56.9949,20.1492 Q56.3101,21.2158 56.3101,23.3159 Q56.3101,25.4077 56.9949,26.4744 Q57.6797,27.541 59.0244,27.541 Q59.6553,27.541 60.2488,27.2712 Q60.8423,27.0015 61.4731,26.4204 Z " fill="#000000"/><text x="73" y="26.8889" fill="#000000" font-size="14" lengthAdjust="spacing" textLength="7.7875" font-family="sans-serif">a</text><line x1="45" y1="39" x2="82.7875" y2="39" style="stroke:#181818;stroke-width:0.5;"/><line x1="45" y1="47" x2="82.7875" y2="47" style="stroke:#181818;stroke-width:0.5;"/></g><!--class b--><g class="entity" data-qualified-name="b" id="ent0002" data-source-line="3"><rect x="7" y="115" width="39.7875" height="48" fill="#F1F1F1" style="stroke:#181818;stroke-width:0.5;" rx="2.5" ry="2.5"/><ellipse cx="22" cy="131" rx="11" ry="11" fill="#ADD1B2" style="stroke:#181818;stroke-width:1;"/><path d="M24.4731,137.1431 Q23.8921,137.4419 23.2529,137.5913 Q22.6138,137.7407 21.9082,137.7407 Q19.4014,137.7407 18.0815,136.0889 Q16.7617,134.437 16.7617,131.3159 Q16.7617,128.1865 18.0815,126.5347 Q19.4014,124.8828 21.9082,124.8828 Q22.6138,124.8828 23.2612,125.0322 Q23.9087,125.1816 24.4731,125.4805 L24.4731,128.2031 Q23.8423,127.6221 23.2488,127.3523 Q22.6553,127.0825 22.0244,127.0825 Q20.6797,127.0825 19.9949,128.1492 Q19.3101,129.2158 19.3101,131.3159 Q19.3101,133.4077 19.9949,134.4744 Q20.6797,135.541 22.0244,135.541 Q22.6553,135.541 23.2488,135.2712 Q23.8423,135.0015 24.4731,134.4204 Z " fill="#000000"/><text x="36" y="134.8889" fill="#000000" font-size="14" lengthAdjust="spacing" textLength="7.7875" font-family="sans-serif">b</text><line x1="8" y1="147" x2="45.7875" y2="147" style="stroke:#181818;stroke-width:0.5;"/><line x1="8" y1="155" x2="45.7875" y2="155" style="stroke:#181818;stroke-width:0.5;"/></g><!--class c--><g class="entity" data-qualified-name="c" id="ent0004" data-source-line="4"><rect x="81.39" y="115" width="39" height="48" fill="#F1F1F1" style="stroke:#181818;stroke-width:0.5;" rx="2.5" ry="2.5"/><ellipse cx="96.39" cy="131" rx="11" ry="11" fill="#ADD1B2" style="stroke:#181818;stroke-width:1;"/><path d="M98.8631,137.1431 Q98.2821,137.4419 97.6429,137.5913 Q97.0038,137.7407 96.2982,137.7407 Q93.7914,137.7407 92.4715,136.0889 Q91.1517,134.437 91.1517,131.3159 Q91.1517,128.1865 92.4715,126.5347 Q93.7914,124.8828 96.2982,124.8828 Q97.0038,124.8828 97.6512,125.0322 Q98.2987,125.1816 98.8631,125.4805 L98.8631,128.2031 Q98.2323,127.6221 97.6388,127.3523 Q97.0453,127.0825 96.4144,127.0825 Q95.0697,127.0825 94.3849,128.1492 Q93.7001,129.2158 93.7001,131.3159 Q93.7001,133.4077 94.3849,134.4744 Q95.0697,135.541 96.4144,135.541 Q97.0453,135.541 97.6388,135.2712 Q98.2323,135.0015 98.8631,134.4204 Z " fill="#000000"/><text x="110.39" y="134.8889" fill="#000000" font-size="14" lengthAdjust="spacing" textLength="7" font-family="sans-serif">c</text><line x1="82.39" y1="147" x2="119.39" y2="147" style="stroke:#181818;stroke-width:0.5;"/><line x1="82.39" y1="155" x2="119.39" y2="155" style="stroke:#181818;stroke-width:0.5;"/></g><!--reverse link a to b--><g class="link" data-entity-1="ent0001" data-entity-2="ent0002" id="lnk3" data-source-line="3" data-link-type="extension"><path d="M49.8391,72.2548 C43.6691,89.9348 41.16,97.13 34.99,114.79" style="stroke:#FF0000;stroke-width:2;" fill="none" id="a-backto-b" codeLine="3"/><polygon points="55.77,55.26,44.1742,70.2779,55.5041,74.2318,55.77,55.26" fill="none" style="stroke:#FF0000;stroke-width:2;stroke-linejoin:miter;stroke-miterlimit:10;"/></g><!--reverse link a to c--><g class="link" data-entity-1="ent0001" data-entity-2="ent0004" id="lnk5" data-source-line="4" data-link-type="extension"><path d="M77.9409,72.2548 C84.1109,89.9348 86.63,97.13 92.79,114.79" style="stroke:#00FF00;stroke-width:1;" fill="none" id="a-backto-c" codeLine="4"/><polygon points="72.01,55.26,72.2759,74.2318,83.6058,70.2779,72.01,55.26" fill="none" style="stroke:#00FF00;stroke-width:1;stroke-linejoin:miter;stroke-miterlimit:10;"/></g><?plantuml-src Iyv9B2vMIEJYIbImgT6DLdPpCm02dQJyd9HONOKacB210KX2fo0dCJCFA9uC0000?></g></svg>