<svg xmlns="http://www.w3.org/2000/svg" xmlns:xlink="http://www.w3.org/1999/xlink" version="1.1" data-diagram-type="CLASS" style="width:391px;height:356px;background:#FFFFFF;" width="391px" height="356px" viewBox="0 0 391 356" zoomAndPan="magnify" preserveAspectRatio="none" contentStyleType="text/css"><?plantuml $version$?><defs/><g><!--class AbstractList--><g class="entity" data-qualified-name="AbstractList" id="ent0001" data-source-line="4"><rect x="186.91" y="157" width="105.0625" height="48" fill="#F1F1F1" style="stroke:#181818;stroke-width:0.5;" rx="2.5" ry="2.5"/><ellipse cx="201.91" cy="173" rx="11" ry="11" fill="#A9DCDF" style="stroke:#181818;stroke-width:1;"/><path d="M201.7733,168.3481 L200.6195,173.4199 L202.9354,173.4199 Z M200.2791,166.1069 L203.2757,166.1069 L206.6209,178.5 L204.1722,178.5 L203.4085,175.437 L200.1297,175.437 L199.3827,178.5 L196.9339,178.5 Z " fill="#000000"/><text x="215.91" y="176.8889" fill="#000000" font-size="14" lengthAdjust="spacing" textLength="73.0625" font-style="italic" font-family="Impact">AbstractList</text><line x1="187.91" y1="189" x2="290.9725" y2="189" style="stroke:#181818;stroke-width:0.5;"/><line x1="187.91" y1="197" x2="290.9725" y2="197" style="stroke:#181818;stroke-width:0.5;"/></g><!--class AbstractCollection--><g class="entity" data-qualified-name="AbstractCollection" id="ent0002" data-source-line="5"><rect x="7" y="157" width="144.875" height="48" fill="#F1F1F1" style="stroke:#181818;stroke-width:0.5;" rx="2.5" ry="2.5"/><ellipse cx="22" cy="173" rx="11" ry="11" fill="#A9DCDF" style="stroke:#181818;stroke-width:1;"/><path d="M21.8633,168.3481 L20.7095,173.4199 L23.0254,173.4199 Z M20.3691,166.1069 L23.3657,166.1069 L26.7109,178.5 L24.2622,178.5 L23.4985,175.437 L20.2197,175.437 L19.4727,178.5 L17.0239,178.5 Z " fill="#000000"/><text x="36" y="176.8889" fill="#000000" font-size="14" lengthAdjust="spacing" textLength="112.875" font-style="italic" font-family="Impact">AbstractCollection</text><line x1="8" y1="189" x2="150.875" y2="189" style="stroke:#181818;stroke-width:0.5;"/><line x1="8" y1="197" x2="150.875" y2="197" style="stroke:#181818;stroke-width:0.5;"/></g><!--class List--><g class="entity" data-qualified-name="List" id="ent0003" data-source-line="6"><rect x="199.54" y="28" width="53.7875" height="48" fill="#F1F1F1" style="stroke:#181818;stroke-width:0.5;" rx="2.5" ry="2.5"/><ellipse cx="214.54" cy="44" rx="11" ry="11" fill="#B4A7E5" style="stroke:#181818;stroke-width:1;"/><path d="M210.9677,40.2651 L210.9677,38.1069 L218.3471,38.1069 L218.3471,40.2651 L215.8818,40.2651 L215.8818,48.3418 L218.3471,48.3418 L218.3471,50.5 L210.9677,50.5 L210.9677,48.3418 L213.4331,48.3418 L213.4331,40.2651 Z " fill="#000000"/><text x="228.54" y="47.8889" fill="#000000" font-size="14" lengthAdjust="spacing" textLength="21.7875" font-style="italic" font-family="Impact">List</text><line x1="200.54" y1="60" x2="252.3275" y2="60" style="stroke:#181818;stroke-width:0.5;"/><line x1="200.54" y1="68" x2="252.3275" y2="68" style="stroke:#181818;stroke-width:0.5;"/></g><!--class Collection--><g class="entity" data-qualified-name="Collection" id="ent0004" data-source-line="7"><rect x="57.64" y="28" width="93.6" height="48" fill="#F1F1F1" style="stroke:#181818;stroke-width:0.5;" rx="2.5" ry="2.5"/><ellipse cx="72.64" cy="44" rx="11" ry="11" fill="#B4A7E5" style="stroke:#181818;stroke-width:1;"/><path d="M69.0677,40.2651 L69.0677,38.1069 L76.4471,38.1069 L76.4471,40.2651 L73.9818,40.2651 L73.9818,48.3418 L76.4471,48.3418 L76.4471,50.5 L69.0677,50.5 L69.0677,48.3418 L71.5331,48.3418 L71.5331,40.2651 Z " fill="#000000"/><text x="86.64" y="47.8889" fill="#000000" font-size="14" lengthAdjust="spacing" textLength="61.6" font-style="italic" font-family="Impact">Collection</text><line x1="58.64" y1="60" x2="150.24" y2="60" style="stroke:#181818;stroke-width:0.5;"/><line x1="58.64" y1="68" x2="150.24" y2="68" style="stroke:#181818;stroke-width:0.5;"/></g><!--class ArrayList--><g class="entity" data-qualified-name="ArrayList" id="ent0009" data-source-line="14"><rect x="169.69" y="265" width="139.4875" height="76" fill="#F1F1F1" style="stroke:#181818;stroke-width:0.5;" rx="2.5" ry="2.5"/><ellipse cx="208.2138" cy="281" rx="11" ry="11" fill="#ADD1B2" style="stroke:#181818;stroke-width:1;"/><path d="M210.6869,287.1431 Q210.1058,287.4419 209.4667,287.5913 Q208.8275,287.7407 208.122,287.7407 Q205.6151,287.7407 204.2953,286.0889 Q202.9755,284.437 202.9755,281.3159 Q202.9755,278.1865 204.2953,276.5347 Q205.6151,274.8828 208.122,274.8828 Q208.8275,274.8828 209.475,275.0322 Q210.1224,275.1816 210.6869,275.4805 L210.6869,278.2031 Q210.056,277.6221 209.4625,277.3523 Q208.869,277.0825 208.2382,277.0825 Q206.8934,277.0825 206.2086,278.1492 Q205.5238,279.2158 205.5238,281.3159 Q205.5238,283.4077 206.2086,284.4744 Q206.8934,285.541 208.2382,285.541 Q208.869,285.541 209.4625,285.2712 Q210.056,285.0015 210.6869,284.4204 Z " fill="#000000"/><text x="227.4413" y="284.8889" fill="#000000" font-size="14" lengthAdjust="spacing" textLength="55.2125" font-family="Impact">ArrayList</text><line x1="170.69" y1="297" x2="308.1775" y2="297" style="stroke:#181818;stroke-width:0.5;"/><text x="175.69" y="311.8889" fill="#000000" font-size="14" lengthAdjust="spacing" textLength="127.4875" font-family="sans-serif">Object[] elementData</text><line x1="170.69" y1="319" x2="308.1775" y2="319" style="stroke:#181818;stroke-width:0.5;"/><text x="175.69" y="333.8889" fill="#000000" font-size="14" lengthAdjust="spacing" textLength="34.2125" font-family="sans-serif">size()</text></g><!--class TimeUnit--><g class="entity" data-qualified-name="TimeUnit" id="ent0011" data-source-line="19"><rect x="288.39" y="7" width="88.0875" height="90" fill="#F1F1F1" style="stroke:#181818;stroke-width:0.5;" rx="2.5" ry="2.5"/><ellipse cx="303.39" cy="23" rx="11" ry="11" fill="#EB937F" style="stroke:#181818;stroke-width:1;"/><path d="M307.0043,29.5 L299.2845,29.5 L299.2845,17.1069 L307.0043,17.1069 L307.0043,19.2651 L301.7333,19.2651 L301.7333,21.938 L306.5062,21.938 L306.5062,24.0962 L301.7333,24.0962 L301.7333,27.3418 L307.0043,27.3418 Z " fill="#000000"/><text x="317.39" y="26.8889" fill="#000000" font-size="14" lengthAdjust="spacing" textLength="56.0875" font-family="Impact">TimeUnit</text><line x1="289.39" y1="39" x2="375.4775" y2="39" style="stroke:#181818;stroke-width:0.5;"/><text x="294.39" y="53.8889" fill="#000000" font-size="14" lengthAdjust="spacing" textLength="38.2375" font-family="sans-serif">DAYS</text><text x="294.39" y="67.8889" fill="#000000" font-size="14" lengthAdjust="spacing" textLength="50.6625" font-family="sans-serif">HOURS</text><text x="294.39" y="81.8889" fill="#000000" font-size="14" lengthAdjust="spacing" textLength="63.0875" font-family="sans-serif">MINUTES</text><line x1="289.39" y1="89" x2="375.4775" y2="89" style="stroke:#181818;stroke-width:0.5;"/></g><!--reverse link List to AbstractList--><g class="link" data-entity-1="ent0003" data-entity-2="ent0001" id="lnk5" data-source-line="9" data-link-type="extension"><path d="M230.6559,94.1961 C233.0059,117.1161 234.73,133.99 237.07,156.85" style="stroke:#181818;stroke-width:1;" fill="none" id="List-backto-AbstractList" codeLine="9"/><polygon points="228.82,76.29,224.6872,94.8081,236.6246,93.5842,228.82,76.29" fill="none" style="stroke:#181818;stroke-width:1;stroke-linejoin:miter;stroke-miterlimit:10;"/></g><!--reverse link Collection to AbstractCollection--><g class="link" data-entity-1="ent0004" data-entity-2="ent0002" id="lnk6" data-source-line="10" data-link-type="extension"><path d="M96.3748,93.9513 C91.8648,116.8713 88.49,133.99 83.99,156.85" style="stroke:#181818;stroke-width:1;" fill="none" id="Collection-backto-AbstractCollection" codeLine="10"/><polygon points="99.85,76.29,90.4876,92.7929,102.2619,95.1097,99.85,76.29" fill="none" style="stroke:#181818;stroke-width:1;stroke-linejoin:miter;stroke-miterlimit:10;"/></g><!--reverse link Collection to List--><g class="link" data-entity-1="ent0004" data-entity-2="ent0003" id="lnk7" data-source-line="12" data-link-type="extension"><path d="M169.62,52 C185.5,52 183.38,52 199.26,52" style="stroke:#181818;stroke-width:1;" fill="none" id="Collection-backto-List" codeLine="12"/><polygon points="151.62,52,169.62,58,169.62,46,151.62,52" fill="none" style="stroke:#181818;stroke-width:1;stroke-linejoin:miter;stroke-miterlimit:10;"/></g><!--reverse link AbstractCollection to AbstractList--><g class="link" data-entity-1="ent0002" data-entity-2="ent0001" id="lnk8" data-source-line="13" data-link-type="extension"><path d="M170.25,181 C181.72,181 175.18,181 186.65,181" style="stroke:#181818;stroke-width:1;" fill="none" id="AbstractCollection-backto-AbstractList" codeLine="13"/><polygon points="152.25,181,170.25,187,170.25,175,152.25,181" fill="none" style="stroke:#181818;stroke-width:1;stroke-linejoin:miter;stroke-miterlimit:10;"/></g><!--reverse link AbstractList to ArrayList--><g class="link" data-entity-1="ent0001" data-entity-2="ent0009" id="lnk10" data-source-line="14" data-link-type="extension"><path d="M239.44,223.42 C239.44,240.34 239.44,245.53 239.44,264.94" style="stroke:#181818;stroke-width:1;" fill="none" id="AbstractList-backto-ArrayList" codeLine="14"/><polygon points="239.44,205.42,233.44,223.42,245.44,223.42,239.44,205.42" fill="none" style="stroke:#181818;stroke-width:1;stroke-linejoin:miter;stroke-miterlimit:10;"/></g><?plantuml-src POtB2i8m44NtynMpr8K_86wA3nHyWBKB4HVJCa8qIKioBXG_NetM9hYxTyx9ZRyesv0ZWvKcxsUrbJKPneLfg184eDABUyV0CVlMfVBIiVOwhhNcIbHjGLbXTwAACQXTZHnu8nmz1eDqjrDI63zDdSyd_rvWoNPSlklEqIqm-4KSugOylpOEHsJDXgrCI2WHlBfphm_0zcfmfmmNLWcquILCidqUz_ccs2Q7rM9TxAOvF040?></g></svg>