<svg xmlns="http://www.w3.org/2000/svg" xmlns:xlink="http://www.w3.org/1999/xlink" version="1.1" data-diagram-type="CLASS" style="width:105px;height:124px;background:#FFFFFF;" width="105px" height="124px" viewBox="0 0 105 124" zoomAndPan="magnify" preserveAspectRatio="none" contentStyleType="text/css"><?plantuml $version$?><defs/><g><!--class Dummy--><g class="entity" data-qualified-name="Dummy" id="ent0001" data-source-line="1"><rect x="7" y="7" width="85.0625" height="104" fill="#F1F1F1" style="stroke:#181818;stroke-width:0.5;" rx="2.5" ry="2.5"/><ellipse cx="24.1825" cy="23" rx="11" ry="11" fill="#ADD1B2" style="stroke:#181818;stroke-width:1;"/><path d="M26.6556,29.1431 Q26.0746,29.4419 25.4354,29.5913 Q24.7963,29.7407 24.0907,29.7407 Q21.5839,29.7407 20.264,28.0889 Q18.9442,26.437 18.9442,23.3159 Q18.9442,20.1865 20.264,18.5347 Q21.5839,16.8828 24.0907,16.8828 Q24.7963,16.8828 25.4437,17.0322 Q26.0912,17.1816 26.6556,17.4805 L26.6556,20.2031 Q26.0248,19.6221 25.4313,19.3523 Q24.8378,19.0825 24.2069,19.0825 Q22.8622,19.0825 22.1774,20.1492 Q21.4926,21.2158 21.4926,23.3159 Q21.4926,25.4077 22.1774,26.4744 Q22.8622,27.541 24.2069,27.541 Q24.8378,27.541 25.4313,27.2712 Q26.0248,27.0015 26.6556,26.4204 Z " fill="#000000"/><text x="38.6675" y="26.8889" fill="#000000" font-size="14" lengthAdjust="spacing" textLength="48.2125" font-family="sans-serif">Dummy</text><line x1="8" y1="39" x2="91.0625" y2="39" style="stroke:#181818;stroke-width:0.5;"/><g data-visibility-modifier="PROTECTED_FIELD"><polygon points="18,46.5,22,50.5,18,54.5,14,50.5" fill="none" style="stroke:#B38D22;stroke-width:1;stroke-linejoin:miter;stroke-miterlimit:10;"/></g><text x="27" y="53.8889" fill="#000000" font-size="14" lengthAdjust="spacing" textLength="31.85" font-family="sans-serif">other</text><g data-visibility-modifier="PACKAGE_PRIVATE_FIELD"><polygon points="18,61.5,14,67.5,22,67.5" fill="none" style="stroke:#1963A0;stroke-width:1;stroke-linejoin:miter;stroke-miterlimit:10;"/></g><text x="27" y="67.8889" fill="#000000" font-size="14" lengthAdjust="spacing" textLength="21.7875" font-family="sans-serif">last</text><line x1="8" y1="75" x2="91.0625" y2="75" style="stroke:#181818;stroke-width:0.5;"/><g data-visibility-modifier="PROTECTED_METHOD"><polygon points="18,82.5,22,86.5,18,90.5,14,86.5" fill="#FFFF44" style="stroke:#B38D22;stroke-width:1;stroke-linejoin:miter;stroke-miterlimit:10;"/></g><text x="27" y="89.8889" fill="#000000" font-size="14" lengthAdjust="spacing" textLength="59.0625" font-family="sans-serif">other2H()</text><g data-visibility-modifier="PACKAGE_PRIVATE_METHOD"><polygon points="18,97.5,14,103.5,22,103.5" fill="#4177AF" style="stroke:#1963A0;stroke-width:1;stroke-linejoin:miter;stroke-miterlimit:10;"/></g><text x="27" y="103.8889" fill="#000000" font-size="14" lengthAdjust="spacing" textLength="38.85" font-family="sans-serif">last2()</text></g><?plantuml-src Iyv9B2vMS2dDpQrKgEPIKD1Eoy_t0DAwAI0X44ivloGZjGZ8g0CgBO4gCVBGq8IhCWAp8UgW4c2r8F5QBgwCp9HKXOAYpBB4abITWjAadCnaXTpKtAJKec80?></g></svg>