<svg xmlns="http://www.w3.org/2000/svg" xmlns:xlink="http://www.w3.org/1999/xlink" version="1.1" data-diagram-type="CLASS" style="width:147px;height:150px;background:#FFFFFF;" width="147px" height="150px" viewBox="0 0 147 150" zoomAndPan="magnify" preserveAspectRatio="none" contentStyleType="text/css"><?plantuml $version$?><defs/><g><!--class foo--><g class="entity" data-qualified-name="foo" id="ent0001" data-source-line="17"><rect x="7" y="7" width="51.425" height="48" fill="#F1F1F1" style="stroke:#181818;stroke-width:0.5;" rx="2.5" ry="2.5"/><ellipse cx="22" cy="23" rx="11" ry="11" fill="#ADD1B2" style="stroke:#181818;stroke-width:1;"/><path d="M24.4731,29.1431 Q23.8921,29.4419 23.2529,29.5913 Q22.6138,29.7407 21.9082,29.7407 Q19.4014,29.7407 18.0815,28.0889 Q16.7617,26.437 16.7617,23.3159 Q16.7617,20.1865 18.0815,18.5347 Q19.4014,16.8828 21.9082,16.8828 Q22.6138,16.8828 23.2612,17.0322 Q23.9087,17.1816 24.4731,17.4805 L24.4731,20.2031 Q23.8423,19.6221 23.2488,19.3523 Q22.6553,19.0825 22.0244,19.0825 Q20.6797,19.0825 19.9949,20.1492 Q19.3101,21.2158 19.3101,23.3159 Q19.3101,25.4077 19.9949,26.4744 Q20.6797,27.541 22.0244,27.541 Q22.6553,27.541 23.2488,27.2712 Q23.8423,27.0015 24.4731,26.4204 Z " fill="#000000"/><text x="36" y="26.8889" fill="#000000" font-size="14" lengthAdjust="spacing" textLength="19.425" font-family="sans-serif">foo</text><line x1="8" y1="39" x2="57.425" y2="39" style="stroke:#181818;stroke-width:0.5;"/><line x1="8" y1="47" x2="57.425" y2="47" style="stroke:#181818;stroke-width:0.5;"/></g><!--class fj--><g class="entity" data-qualified-name="fj" id="ent0002" data-source-line="18"><rect x="93.21" y="7" width="39" height="48" fill="#F1F1F1" style="stroke:#181818;stroke-width:0.5;" rx="2.5" ry="2.5"/><ellipse cx="108.21" cy="23" rx="11" ry="11" fill="#ADD1B2" style="stroke:#181818;stroke-width:1;"/><path d="M110.6831,29.1431 Q110.1021,29.4419 109.4629,29.5913 Q108.8238,29.7407 108.1182,29.7407 Q105.6114,29.7407 104.2915,28.0889 Q102.9717,26.437 102.9717,23.3159 Q102.9717,20.1865 104.2915,18.5347 Q105.6114,16.8828 108.1182,16.8828 Q108.8238,16.8828 109.4712,17.0322 Q110.1187,17.1816 110.6831,17.4805 L110.6831,20.2031 Q110.0523,19.6221 109.4588,19.3523 Q108.8653,19.0825 108.2344,19.0825 Q106.8897,19.0825 106.2049,20.1492 Q105.5201,21.2158 105.5201,23.3159 Q105.5201,25.4077 106.2049,26.4744 Q106.8897,27.541 108.2344,27.541 Q108.8653,27.541 109.4588,27.2712 Q110.0523,27.0015 110.6831,26.4204 Z " fill="#000000"/><text x="122.21" y="26.8889" fill="#000000" font-size="14" lengthAdjust="spacing" textLength="7" font-family="sans-serif">fj</text><line x1="94.21" y1="39" x2="131.21" y2="39" style="stroke:#181818;stroke-width:0.5;"/><line x1="94.21" y1="47" x2="131.21" y2="47" style="stroke:#181818;stroke-width:0.5;"/></g><g class="legend" data-source-line="11"><rect x="29.2456" y="76" width="81.7187" height="55" fill="#DDDDDD" style="stroke:#FFA500;stroke-width:1;" rx="7.5" ry="7.5"/><text x="34.2456" y="92.6667" fill="#0000FF" font-size="15" lengthAdjust="spacing" textLength="71.7187" font-style="italic" font-family="sans-serif">hypothesis</text><text x="34.2456" y="107.6667" fill="#0000FF" font-size="15" lengthAdjust="spacing" textLength="40.875" font-style="italic" font-family="sans-serif">* Hyp 1</text><text x="34.2456" y="122.6667" fill="#0000FF" font-size="15" lengthAdjust="spacing" textLength="40.875" font-style="italic" font-family="sans-serif">* Hyp 2</text></g><?plantuml-src ioakgSn9jUFYp4bDJyrBKQZcukHqoyyhSSxFoIzIICefJOKA16TMfIeOcd8fG05O3AHN8RCaCISp6QZC9pCl5QBFloWnBnseivRBHXzg0HV40gwCoeByaepKuinYBWKj1O_A0WL36CE82-G2g3gkv9p4ucA5jFny62kB2m00?></g></svg>