<svg xmlns="http://www.w3.org/2000/svg" xmlns:xlink="http://www.w3.org/1999/xlink" version="1.1" data-diagram-type="CLASS" style="width:78px;height:66px;background:#FFFFFF;" width="78px" height="66px" viewBox="0 0 78 66" zoomAndPan="magnify" preserveAspectRatio="none" contentStyleType="text/css"><?plantuml $version$?><defs/><g><!--class Toto--><g class="entity" data-qualified-name="Toto" id="ent0001" data-source-line="2"><rect x="7" y="7" width="58" height="46" fill="#F1F1F1" style="stroke:#181818;stroke-width:0.5;" rx="2.5" ry="2.5"/><ellipse cx="21" cy="22" rx="10" ry="10" fill="#ADD1B2" style="stroke:#181818;stroke-width:1;"/><path d="M22.8618,26.2271 Q22.4175,26.4556 21.9287,26.5698 Q21.4399,26.6841 20.9004,26.6841 Q18.9834,26.6841 17.9741,25.4209 Q16.9648,24.1577 16.9648,21.771 Q16.9648,19.3779 17.9741,18.1147 Q18.9834,16.8516 20.9004,16.8516 Q21.4399,16.8516 21.9351,16.9658 Q22.4302,17.0801 22.8618,17.3086 L22.8618,19.3906 Q22.3794,18.9463 21.9255,18.74 Q21.4717,18.5337 20.9893,18.5337 Q19.9609,18.5337 19.4373,19.3494 Q18.9136,20.165 18.9136,21.771 Q18.9136,23.3706 19.4373,24.1863 Q19.9609,25.002 20.9893,25.002 Q21.4717,25.002 21.9255,24.7957 Q22.3794,24.5894 22.8618,24.145 Z " fill="#000000"/><text x="34" y="25.8889" fill="#000000" font-size="14" lengthAdjust="spacing" textLength="28" font-family="sans-serif">Toto</text><line x1="8" y1="37" x2="64" y2="37" style="stroke:#181818;stroke-width:0.5;"/><line x1="8" y1="45" x2="64" y2="45" style="stroke:#181818;stroke-width:0.5;"/></g><?plantuml-src AyxEp2j8B4hCLN3EB4hEIKrnpW3oaajIYzpoyqg2CwjI5GoDkP9p4ekB5KBoI_81?></g></svg>