<svg xmlns="http://www.w3.org/2000/svg" xmlns:xlink="http://www.w3.org/1999/xlink" version="1.1" data-diagram-type="CLASS" style="width:82px;height:70px;background:#FFFFFF;" width="82px" height="70px" viewBox="0 0 82 70" zoomAndPan="magnify" preserveAspectRatio="none" contentStyleType="text/css"><?plantuml $version$?><defs/><g><!--class Toto--><g class="entity" data-qualified-name="Toto" id="ent0001" data-source-line="2"><rect x="7" y="7" width="62" height="50" fill="#F1F1F1" style="stroke:#181818;stroke-width:0.5;" rx="2.5" ry="2.5"/><ellipse cx="23" cy="24" rx="12" ry="12" fill="#ADD1B2" style="stroke:#181818;stroke-width:1;"/><path d="M25.8066,31.0801 Q25.123,31.4316 24.3711,31.6074 Q23.6191,31.7832 22.7891,31.7832 Q19.8398,31.7832 18.2871,29.8398 Q16.7344,27.8965 16.7344,24.2246 Q16.7344,20.543 18.2871,18.5996 Q19.8398,16.6563 22.7891,16.6563 Q23.6191,16.6563 24.3809,16.832 Q25.1426,17.0078 25.8066,17.3594 L25.8066,20.5625 Q25.0645,19.8789 24.3662,19.5615 Q23.668,19.2441 22.9258,19.2441 Q21.3438,19.2441 20.5381,20.499 Q19.7324,21.7539 19.7324,24.2246 Q19.7324,26.6855 20.5381,27.9404 Q21.3438,29.1953 22.9258,29.1953 Q23.668,29.1953 24.3662,28.8779 Q25.0645,28.5605 25.8066,27.877 Z " fill="#000000"/><text x="38" y="27.8889" fill="#000000" font-size="14" lengthAdjust="spacing" textLength="28" font-family="sans-serif">Toto</text><line x1="8" y1="41" x2="68" y2="41" style="stroke:#181818;stroke-width:0.5;"/><line x1="8" y1="49" x2="68" y2="49" style="stroke:#181818;stroke-width:0.5;"/></g><?plantuml-src AyxEp2j8B4hCLN3EB4hEIKrnpW3oaajIYzpoyqg2CwjI5OmCk99p4ekB5KBoI_81?></g></svg>