<svg xmlns="http://www.w3.org/2000/svg" xmlns:xlink="http://www.w3.org/1999/xlink" version="1.1" data-diagram-type="CLASS" style="width:80px;height:68px;background:#FFFFFF;" width="80px" height="68px" viewBox="0 0 80 68" zoomAndPan="magnify" preserveAspectRatio="none" contentStyleType="text/css"><?plantuml $version$?><defs/><g><!--class Toto--><g class="entity" data-qualified-name="Toto" id="ent0001" data-source-line="2"><rect x="7" y="7" width="60" height="48" fill="#F1F1F1" style="stroke:#181818;stroke-width:0.5;" rx="2.5" ry="2.5"/><ellipse cx="22" cy="23" rx="11" ry="11" fill="#ADD1B2" style="stroke:#181818;stroke-width:1;"/><path d="M24.4453,28.6641 Q23.8984,28.9453 23.2969,29.0859 Q22.6953,29.2266 22.0313,29.2266 Q19.6719,29.2266 18.4297,27.6719 Q17.1875,26.1172 17.1875,23.1797 Q17.1875,20.2344 18.4297,18.6797 Q19.6719,17.125 22.0313,17.125 Q22.6953,17.125 23.3047,17.2656 Q23.9141,17.4063 24.4453,17.6875 L24.4453,20.25 Q23.8516,19.7031 23.293,19.4492 Q22.7344,19.1953 22.1406,19.1953 Q20.875,19.1953 20.2305,20.1992 Q19.5859,21.2031 19.5859,23.1797 Q19.5859,25.1484 20.2305,26.1523 Q20.875,27.1563 22.1406,27.1563 Q22.7344,27.1563 23.293,26.9023 Q23.8516,26.6484 24.4453,26.1016 Z " fill="#000000"/><text x="36" y="26.8889" fill="#000000" font-size="14" lengthAdjust="spacing" textLength="28" font-family="sans-serif">Toto</text><line x1="8" y1="39" x2="66" y2="39" style="stroke:#181818;stroke-width:0.5;"/><line x1="8" y1="47" x2="66" y2="47" style="stroke:#181818;stroke-width:0.5;"/></g><?plantuml-src AyxEp2j8B4hCLN3EB4hEIKrnpW3oaajIYzpoyqg2CwjI5GpDk99p4ekB5KBoI_81?></g></svg>