<svg xmlns="http://www.w3.org/2000/svg" xmlns:xlink="http://www.w3.org/1999/xlink" version="1.1" data-diagram-type="CLASS" style="width:121px;height:286px;background:#FFFFFF;" width="121px" height="286px" viewBox="0 0 121 286" zoomAndPan="magnify" preserveAspectRatio="none" contentStyleType="text/css"><?plantuml $version$?><defs/><g><!--class A--><g class="entity" data-qualified-name="A" id="ent0001" data-source-line="1"><rect x="7" y="7" width="41.3625" height="48" fill="#F1F1F1" style="stroke:#181818;stroke-width:0.5;" rx="2.5" ry="2.5"/><ellipse cx="22" cy="23" rx="11" ry="11" fill="#ADD1B2" style="stroke:#181818;stroke-width:1;"/><path d="M24.4731,29.1431 Q23.8921,29.4419 23.2529,29.5913 Q22.6138,29.7407 21.9082,29.7407 Q19.4014,29.7407 18.0815,28.0889 Q16.7617,26.437 16.7617,23.3159 Q16.7617,20.1865 18.0815,18.5347 Q19.4014,16.8828 21.9082,16.8828 Q22.6138,16.8828 23.2612,17.0322 Q23.9087,17.1816 24.4731,17.4805 L24.4731,20.2031 Q23.8423,19.6221 23.2488,19.3523 Q22.6553,19.0825 22.0244,19.0825 Q20.6797,19.0825 19.9949,20.1492 Q19.3101,21.2158 19.3101,23.3159 Q19.3101,25.4077 19.9949,26.4744 Q20.6797,27.541 22.0244,27.541 Q22.6553,27.541 23.2488,27.2712 Q23.8423,27.0015 24.4731,26.4204 Z " fill="#000000"/><text x="36" y="26.8889" fill="#000000" font-size="14" lengthAdjust="spacing" textLength="9.3625" font-family="sans-serif">A</text><line x1="8" y1="39" x2="47.3625" y2="39" style="stroke:#181818;stroke-width:0.5;"/><line x1="8" y1="47" x2="47.3625" y2="47" style="stroke:#181818;stroke-width:0.5;"/></g><!--class B--><g class="entity" data-qualified-name="B" id="ent0002" data-source-line="2"><rect x="7" y="223" width="41.3625" height="48" fill="#F1F1F1" style="stroke:#181818;stroke-width:0.5;" rx="2.5" ry="2.5"/><ellipse cx="22" cy="239" rx="11" ry="11" fill="#ADD1B2" style="stroke:#181818;stroke-width:1;"/><path d="M24.4731,245.1431 Q23.8921,245.4419 23.2529,245.5913 Q22.6138,245.7407 21.9082,245.7407 Q19.4014,245.7407 18.0815,244.0889 Q16.7617,242.437 16.7617,239.3159 Q16.7617,236.1865 18.0815,234.5347 Q19.4014,232.8828 21.9082,232.8828 Q22.6138,232.8828 23.2612,233.0322 Q23.9087,233.1816 24.4731,233.4805 L24.4731,236.2031 Q23.8423,235.6221 23.2488,235.3523 Q22.6553,235.0825 22.0244,235.0825 Q20.6797,235.0825 19.9949,236.1492 Q19.3101,237.2158 19.3101,239.3159 Q19.3101,241.4077 19.9949,242.4744 Q20.6797,243.541 22.0244,243.541 Q22.6553,243.541 23.2488,243.2712 Q23.8423,243.0015 24.4731,242.4204 Z " fill="#000000"/><text x="36" y="242.8889" fill="#000000" font-size="14" lengthAdjust="spacing" textLength="9.3625" font-family="sans-serif">B</text><line x1="8" y1="255" x2="47.3625" y2="255" style="stroke:#181818;stroke-width:0.5;"/><line x1="8" y1="263" x2="47.3625" y2="263" style="stroke:#181818;stroke-width:0.5;"/></g><!--class C--><g class="entity" data-qualified-name="C" id="ent0003" data-source-line="3"><rect x="64.61" y="115" width="42.15" height="48" fill="#F1F1F1" style="stroke:#181818;stroke-width:0.5;" rx="2.5" ry="2.5"/><ellipse cx="79.61" cy="131" rx="11" ry="11" fill="#ADD1B2" style="stroke:#181818;stroke-width:1;"/><path d="M82.0831,137.1431 Q81.5021,137.4419 80.8629,137.5913 Q80.2238,137.7407 79.5182,137.7407 Q77.0114,137.7407 75.6915,136.0889 Q74.3717,134.437 74.3717,131.3159 Q74.3717,128.1865 75.6915,126.5347 Q77.0114,124.8828 79.5182,124.8828 Q80.2238,124.8828 80.8712,125.0322 Q81.5187,125.1816 82.0831,125.4805 L82.0831,128.2031 Q81.4523,127.6221 80.8588,127.3523 Q80.2653,127.0825 79.6344,127.0825 Q78.2897,127.0825 77.6049,128.1492 Q76.9201,129.2158 76.9201,131.3159 Q76.9201,133.4077 77.6049,134.4744 Q78.2897,135.541 79.6344,135.541 Q80.2653,135.541 80.8588,135.2712 Q81.4523,135.0015 82.0831,134.4204 Z " fill="#000000"/><text x="93.61" y="134.8889" fill="#000000" font-size="14" lengthAdjust="spacing" textLength="10.15" font-family="sans-serif">C</text><line x1="65.61" y1="147" x2="105.76" y2="147" style="stroke:#181818;stroke-width:0.5;"/><line x1="65.61" y1="155" x2="105.76" y2="155" style="stroke:#181818;stroke-width:0.5;"/></g><ellipse cx="27.68" cy="139" rx="2" ry="2" fill="#181818" style="stroke:#181818;stroke-width:1;"/><!--link A to apoint4--><g class="link" data-entity-1="ent0001" data-entity-2="ent0005" id="lnk7" data-source-line="3" data-link-type="association"><path d="M27.68,55.26 C27.68,83.54 27.68,128.52 27.68,136.7" style="stroke:#181818;stroke-width:1;" fill="none" id="A-apoint4"/></g><!--link apoint4 to B--><g class="link" data-entity-1="ent0005" data-entity-2="ent0002" id="lnk8" data-source-line="3" data-link-type="association"><path d="M27.68,141.5 C27.68,150.21 27.68,194.87 27.68,222.91" style="stroke:#181818;stroke-width:1;" fill="none" id="apoint4-B"/></g><!--link apoint4 to C--><g class="link" data-entity-1="ent0005" data-entity-2="ent0003" id="lnk9" data-source-line="3" data-link-type="association"><path d="M29.95,139 C41.41,139 52.88,139 64.35,139" style="stroke:#181818;stroke-width:1;stroke-dasharray:7,7;" fill="none" id="apoint4-C"/></g><?plantuml-src Iyv9B2vMSEHA1jDEN1gEEawQ2dfw2iu0?></g></svg>