<svg xmlns="http://www.w3.org/2000/svg" xmlns:xlink="http://www.w3.org/1999/xlink" version="1.1" data-diagram-type="STATE" style="width:273px;height:206px;background:#FFFFFF;" width="273px" height="206px" viewBox="0 0 273 206" zoomAndPan="magnify" preserveAspectRatio="none" contentStyleType="text/css"><?plantuml $version$?><defs/><g><g class="entity" data-qualified-name="choice1" id="ent0001"><polygon points="162,86,174,98,162,110,150,98,162,86" fill="#F1F1F1" style="stroke:#181818;stroke-width:0.5;stroke-linejoin:miter;stroke-miterlimit:10;"/></g><rect x="7" y="177" width="80" height="8" fill="#555555" style="stroke:none;stroke-width:1;"/><rect x="122" y="177" width="80" height="8" fill="#555555" style="stroke:none;stroke-width:1;"/><g class="end_entity" data-qualified-name="foo3" id="ent0004" data-source-line="4"><ellipse cx="248" cy="181" rx="11" ry="11" fill="none" style="stroke:#222222;stroke-width:1;"/><ellipse cx="248" cy="181" rx="6" ry="6" fill="#222222" style="stroke:#222222;stroke-width:1;"/></g><g class="start_entity" data-qualified-name=".start." id="ent0005" data-source-line="5"><ellipse cx="162" cy="16" rx="10" ry="10" fill="#222222" style="stroke:#222222;stroke-width:1;"/></g><!--link *start* to choice1--><g class="link" data-entity-1="ent0005" data-entity-2="ent0001" id="lnk6" data-source-line="5" data-link-type="dependency"><path d="M162,26.49 C162,41.23 162,64.56 162,80.46" style="stroke:#181818;stroke-width:1;" fill="none" id="*start*-to-choice1"/><polygon points="162,85.46,166,76.46,162,80.46,158,76.46,162,85.46" fill="#181818" style="stroke:#181818;stroke-width:1;stroke-linejoin:miter;stroke-miterlimit:10;"/></g><!--link choice1 to foo1--><g class="link" data-entity-1="ent0001" data-entity-2="ent0002" id="lnk7" data-source-line="6" data-link-type="dependency"><path d="M155.15,103.82 C133.87,118.81 73.3783,161.4216 55.6383,173.9116" style="stroke:#181818;stroke-width:1;" fill="none" id="choice1-to-foo1"/><polygon points="51.55,176.79,61.2118,174.8795,55.6383,173.9116,56.6063,168.3381,51.55,176.79" fill="#181818" style="stroke:#181818;stroke-width:1;stroke-linejoin:miter;stroke-miterlimit:10;"/></g><!--link choice1 to foo2--><g class="link" data-entity-1="ent0001" data-entity-2="ent0003" id="lnk8" data-source-line="7" data-link-type="dependency"><path d="M162,110.61 C162,129.33 162,160.24 162,171.52" style="stroke:#181818;stroke-width:1;" fill="none" id="choice1-to-foo2"/><polygon points="162,176.52,166,167.52,162,171.52,158,167.52,162,176.52" fill="#181818" style="stroke:#181818;stroke-width:1;stroke-linejoin:miter;stroke-miterlimit:10;"/></g><!--link choice1 to foo3--><g class="link" data-entity-1="ent0001" data-entity-2="ent0004" id="lnk9" data-source-line="8" data-link-type="dependency"><path d="M167.91,104.57 C183.09,118.86 219.7896,153.4325 236.7196,169.3725" style="stroke:#181818;stroke-width:1;" fill="none" id="choice1-to-foo3"/><polygon points="240.36,172.8,236.5493,163.7182,236.7196,169.3725,231.0653,169.5428,240.36,172.8" fill="#181818" style="stroke:#181818;stroke-width:1;stroke-linejoin:miter;stroke-miterlimit:10;"/></g><?plantuml-src Aov9B4bLICx8pqnEDLImiO6mxEouYi4IQVdv8D6q_A9iP34Ze5XMVcOUifWnK2mrBmKe5AqLgw2hQmSpbGjcEaWCP22wW16wW340?></g></svg>