<svg xmlns="http://www.w3.org/2000/svg" xmlns:xlink="http://www.w3.org/1999/xlink" version="1.1" data-diagram-type="DESCRIPTION" style="width:151px;height:65px;background:#FFFFFF;" width="151px" height="65px" viewBox="0 0 151 65" zoomAndPan="magnify" preserveAspectRatio="none" contentStyleType="text/css"><?plantuml $version$?><defs/><g><!--entity a--><g class="entity" data-qualified-name="a" id="ent0001" data-source-line="1"><rect x="7" y="7" width="47.7875" height="44" fill="#F1F1F1" style="stroke:#181818;stroke-width:0.5;" rx="2.5" ry="2.5"/><rect x="34.7875" y="12" width="15" height="10" fill="#F1F1F1" style="stroke:#181818;stroke-width:0.5;"/><rect x="32.7875" y="14" width="4" height="2" fill="#F1F1F1" style="stroke:#181818;stroke-width:0.5;"/><rect x="32.7875" y="18" width="4" height="2" fill="#F1F1F1" style="stroke:#181818;stroke-width:0.5;"/><text x="22" y="37.8889" fill="#000000" font-size="14" lengthAdjust="spacing" textLength="7.7875" font-family="sans-serif">a</text></g><!--entity b--><g class="entity" data-qualified-name="b" id="ent0002" data-source-line="2"><rect x="90" y="7" width="47.7875" height="44" fill="#F1F1F1" style="stroke:#181818;stroke-width:0.5;" rx="2.5" ry="2.5"/><rect x="117.7875" y="12" width="15" height="10" fill="#F1F1F1" style="stroke:#181818;stroke-width:0.5;"/><rect x="115.7875" y="14" width="4" height="2" fill="#F1F1F1" style="stroke:#181818;stroke-width:0.5;"/><rect x="115.7875" y="18" width="4" height="2" fill="#F1F1F1" style="stroke:#181818;stroke-width:0.5;"/><text x="105" y="37.8889" fill="#000000" font-size="14" lengthAdjust="spacing" textLength="7.7875" font-family="sans-serif">b</text></g><!--link a to b--><g class="link" data-entity-1="ent0001" data-entity-2="ent0002" id="lnk3" data-source-line="4" data-link-type="dependency"><path d="M55.21,42.67 C66.67,46.44 73.38,48.0012 84.85,44.2312" style="stroke:#181818;stroke-width:8;" fill="none" id="a-to-b"/><polygon points="89.6,42.67,79.801,41.6802,84.85,44.2312,82.299,49.2802,89.6,42.67" fill="#181818" style="stroke:#181818;stroke-width:8;stroke-linejoin:miter;stroke-miterlimit:10;"/></g><!--link b to a--><g class="link" data-entity-1="ent0002" data-entity-2="ent0001" id="lnk4" data-source-line="5" data-link-type="dependency"><path d="M89.6,15.33 C78.13,11.56 71.4196,9.9975 59.9596,13.7675" style="stroke:#181818;stroke-width:8;stroke-dasharray:7,7;" fill="none" id="b-to-a"/><polygon points="55.21,15.33,65.0093,16.3172,59.9596,13.7675,62.5093,8.7179,55.21,15.33" fill="#181818" style="stroke:#181818;stroke-width:8;stroke-linejoin:miter;stroke-miterlimit:10;"/></g><?plantuml-src IyxFBSZFIyqhKKZaIeQpaxYu4dMZIp8oaxFpKekBRIrYxPAuadIZKnABCr9JT50a4W40?></g></svg>