<svg xmlns="http://www.w3.org/2000/svg" xmlns:xlink="http://www.w3.org/1999/xlink" version="1.1" data-diagram-type="CLASS" style="width:236px;height:182px;background:#FFFFFF;" width="236px" height="182px" viewBox="0 0 236 182" zoomAndPan="magnify" preserveAspectRatio="none" contentStyleType="text/css"><?plantuml $version$?><defs/><g><!--class A--><g class="entity" data-qualified-name="A" id="ent0001" data-source-line="1"><rect x="26.98" y="7" width="41.3625" height="48" fill="#F1F1F1" style="stroke:#181818;stroke-width:0.5;" rx="2.5" ry="2.5"/><ellipse cx="41.98" cy="23" rx="11" ry="11" fill="#ADD1B2" style="stroke:#181818;stroke-width:1;"/><path d="M44.4531,29.1431 Q43.8721,29.4419 43.2329,29.5913 Q42.5938,29.7407 41.8882,29.7407 Q39.3814,29.7407 38.0615,28.0889 Q36.7417,26.437 36.7417,23.3159 Q36.7417,20.1865 38.0615,18.5347 Q39.3814,16.8828 41.8882,16.8828 Q42.5938,16.8828 43.2412,17.0322 Q43.8887,17.1816 44.4531,17.4805 L44.4531,20.2031 Q43.8223,19.6221 43.2288,19.3523 Q42.6353,19.0825 42.0044,19.0825 Q40.6597,19.0825 39.9749,20.1492 Q39.2901,21.2158 39.2901,23.3159 Q39.2901,25.4077 39.9749,26.4744 Q40.6597,27.541 42.0044,27.541 Q42.6353,27.541 43.2288,27.2712 Q43.8223,27.0015 44.4531,26.4204 Z " fill="#000000"/><text x="55.98" y="26.8889" fill="#000000" font-size="14" lengthAdjust="spacing" textLength="9.3625" font-family="sans-serif">A</text><line x1="27.98" y1="39" x2="67.3425" y2="39" style="stroke:#181818;stroke-width:0.5;"/><line x1="27.98" y1="47" x2="67.3425" y2="47" style="stroke:#181818;stroke-width:0.5;"/></g><!--class B--><g class="entity" data-qualified-name="B" id="ent0002" data-source-line="2"><rect x="102.98" y="7" width="41.3625" height="48" fill="#F1F1F1" style="stroke:#181818;stroke-width:0.5;" rx="2.5" ry="2.5"/><ellipse cx="117.98" cy="23" rx="11" ry="11" fill="#ADD1B2" style="stroke:#181818;stroke-width:1;"/><path d="M120.4531,29.1431 Q119.8721,29.4419 119.2329,29.5913 Q118.5938,29.7407 117.8882,29.7407 Q115.3814,29.7407 114.0615,28.0889 Q112.7417,26.437 112.7417,23.3159 Q112.7417,20.1865 114.0615,18.5347 Q115.3814,16.8828 117.8882,16.8828 Q118.5938,16.8828 119.2412,17.0322 Q119.8887,17.1816 120.4531,17.4805 L120.4531,20.2031 Q119.8223,19.6221 119.2288,19.3523 Q118.6353,19.0825 118.0044,19.0825 Q116.6597,19.0825 115.9749,20.1492 Q115.2901,21.2158 115.2901,23.3159 Q115.2901,25.4077 115.9749,26.4744 Q116.6597,27.541 118.0044,27.541 Q118.6353,27.541 119.2288,27.2712 Q119.8223,27.0015 120.4531,26.4204 Z " fill="#000000"/><text x="131.98" y="26.8889" fill="#000000" font-size="14" lengthAdjust="spacing" textLength="9.3625" font-family="sans-serif">B</text><line x1="103.98" y1="39" x2="143.3425" y2="39" style="stroke:#181818;stroke-width:0.5;"/><line x1="103.98" y1="47" x2="143.3425" y2="47" style="stroke:#181818;stroke-width:0.5;"/></g><!--class C--><g class="entity" data-qualified-name="C" id="ent0003" data-source-line="3"><rect x="179.59" y="7" width="42.15" height="48" fill="#F1F1F1" style="stroke:#181818;stroke-width:0.5;" rx="2.5" ry="2.5"/><ellipse cx="194.59" cy="23" rx="11" ry="11" fill="#ADD1B2" style="stroke:#181818;stroke-width:1;"/><path d="M197.0631,29.1431 Q196.4821,29.4419 195.8429,29.5913 Q195.2038,29.7407 194.4982,29.7407 Q191.9914,29.7407 190.6715,28.0889 Q189.3517,26.437 189.3517,23.3159 Q189.3517,20.1865 190.6715,18.5347 Q191.9914,16.8828 194.4982,16.8828 Q195.2038,16.8828 195.8512,17.0322 Q196.4987,17.1816 197.0631,17.4805 L197.0631,20.2031 Q196.4323,19.6221 195.8388,19.3523 Q195.2453,19.0825 194.6144,19.0825 Q193.2697,19.0825 192.5849,20.1492 Q191.9001,21.2158 191.9001,23.3159 Q191.9001,25.4077 192.5849,26.4744 Q193.2697,27.541 194.6144,27.541 Q195.2453,27.541 195.8388,27.2712 Q196.4323,27.0015 197.0631,26.4204 Z " fill="#000000"/><text x="208.59" y="26.8889" fill="#000000" font-size="14" lengthAdjust="spacing" textLength="10.15" font-family="sans-serif">C</text><line x1="180.59" y1="39" x2="220.74" y2="39" style="stroke:#181818;stroke-width:0.5;"/><line x1="180.59" y1="47" x2="220.74" y2="47" style="stroke:#181818;stroke-width:0.5;"/></g><!--class D--><g class="entity" data-qualified-name="D" id="ent0004" data-source-line="4"><rect x="7" y="115" width="81.325" height="52" fill="#F1F1F1" style="stroke:#181818;stroke-width:0.5;" rx="2.5" ry="2.5"/><ellipse cx="22" cy="133" rx="11" ry="11" fill="#ADD1B2" style="stroke:#181818;stroke-width:1;"/><path d="M24.4731,139.1431 Q23.8921,139.4419 23.2529,139.5913 Q22.6138,139.7407 21.9082,139.7407 Q19.4014,139.7407 18.0815,138.0889 Q16.7617,136.437 16.7617,133.3159 Q16.7617,130.1865 18.0815,128.5347 Q19.4014,126.8828 21.9082,126.8828 Q22.6138,126.8828 23.2612,127.0322 Q23.9087,127.1816 24.4731,127.4805 L24.4731,130.2031 Q23.8423,129.6221 23.2488,129.3523 Q22.6553,129.0825 22.0244,129.0825 Q20.6797,129.0825 19.9949,130.1492 Q19.3101,131.2158 19.3101,133.3159 Q19.3101,135.4077 19.9949,136.4744 Q20.6797,137.541 22.0244,137.541 Q22.6553,137.541 23.2488,137.2712 Q23.8423,137.0015 24.4731,136.4204 Z " fill="#000000"/><text x="34" y="129.3333" fill="#000000" font-size="12" lengthAdjust="spacing" textLength="53.325" font-style="italic" font-family="sans-serif">«stereo3»</text><text x="55.5875" y="142.8889" fill="#000000" font-size="14" lengthAdjust="spacing" textLength="10.15" font-family="sans-serif">D</text><line x1="8" y1="151" x2="87.325" y2="151" style="stroke:#181818;stroke-width:0.5;"/><line x1="8" y1="159" x2="87.325" y2="159" style="stroke:#181818;stroke-width:0.5;"/></g><!--class E--><g class="entity" data-qualified-name="E" id="ent0005" data-source-line="5"><rect x="123" y="115" width="81.325" height="52" fill="#F1F1F1" style="stroke:#181818;stroke-width:0.5;" rx="2.5" ry="2.5"/><ellipse cx="138" cy="133" rx="11" ry="11" fill="#ADD1B2" style="stroke:#181818;stroke-width:1;"/><path d="M140.4731,139.1431 Q139.8921,139.4419 139.2529,139.5913 Q138.6138,139.7407 137.9082,139.7407 Q135.4014,139.7407 134.0815,138.0889 Q132.7617,136.437 132.7617,133.3159 Q132.7617,130.1865 134.0815,128.5347 Q135.4014,126.8828 137.9082,126.8828 Q138.6138,126.8828 139.2612,127.0322 Q139.9087,127.1816 140.4731,127.4805 L140.4731,130.2031 Q139.8423,129.6221 139.2488,129.3523 Q138.6553,129.0825 138.0244,129.0825 Q136.6797,129.0825 135.9949,130.1492 Q135.3101,131.2158 135.3101,133.3159 Q135.3101,135.4077 135.9949,136.4744 Q136.6797,137.541 138.0244,137.541 Q138.6553,137.541 139.2488,137.2712 Q139.8423,137.0015 140.4731,136.4204 Z " fill="#000000"/><text x="150" y="129.3333" fill="#000000" font-size="12" lengthAdjust="spacing" textLength="53.325" font-style="italic" font-family="sans-serif">«stereo3»</text><text x="171.9813" y="142.8889" fill="#000000" font-size="14" lengthAdjust="spacing" textLength="9.3625" font-family="sans-serif">E</text><line x1="124" y1="151" x2="203.325" y2="151" style="stroke:#181818;stroke-width:0.5;"/><line x1="124" y1="159" x2="203.325" y2="159" style="stroke:#181818;stroke-width:0.5;"/></g><?plantuml-src Iyv9B2vMS5ImiIakIIrApJUqirFWIWOBEi45ZH22pYWgiIXmmQa0nZP6A7R5gXYiW2iZCoKLHHh2AgaiI4MLCqAH0m00?></g></svg>