<svg xmlns="http://www.w3.org/2000/svg" xmlns:xlink="http://www.w3.org/1999/xlink" version="1.1" data-diagram-type="CLASS" style="width:139px;height:110px;background:#FFFFFF;" width="139px" height="110px" viewBox="0 0 139 110" zoomAndPan="magnify" preserveAspectRatio="none" contentStyleType="text/css"><?plantuml $version$?><defs/><g><!--class B--><g class="entity" data-qualified-name="B" id="ent0001" data-source-line="1"><rect x="7" y="7" width="119.3625" height="90" fill="#F1F1F1" style="stroke:#181818;stroke-width:0.5;" rx="2.5" ry="2.5"/><ellipse cx="57.75" cy="23" rx="11" ry="11" fill="#ADD1B2" style="stroke:#181818;stroke-width:1;"/><path d="M60.2231,29.1431 Q59.6421,29.4419 59.0029,29.5913 Q58.3638,29.7407 57.6582,29.7407 Q55.1514,29.7407 53.8315,28.0889 Q52.5117,26.437 52.5117,23.3159 Q52.5117,20.1865 53.8315,18.5347 Q55.1514,16.8828 57.6582,16.8828 Q58.3638,16.8828 59.0112,17.0322 Q59.6587,17.1816 60.2231,17.4805 L60.2231,20.2031 Q59.5923,19.6221 58.9988,19.3523 Q58.4053,19.0825 57.7744,19.0825 Q56.4297,19.0825 55.7449,20.1492 Q55.0601,21.2158 55.0601,23.3159 Q55.0601,25.4077 55.7449,26.4744 Q56.4297,27.541 57.7744,27.541 Q58.4053,27.541 58.9988,27.2712 Q59.5923,27.0015 60.2231,26.4204 Z " fill="#000000"/><text x="78.25" y="26.8889" fill="#000000" font-size="14" lengthAdjust="spacing" textLength="9.3625" font-family="sans-serif">B</text><line x1="8" y1="39" x2="125.3625" y2="39" style="stroke:#181818;stroke-width:0.5;"/><line x1="8" y1="47" x2="125.3625" y2="47" style="stroke:#181818;stroke-width:0.5;"/><g data-visibility-modifier="PUBLIC_METHOD"><ellipse cx="18" cy="59.5" rx="3" ry="3" fill="#84BE84" style="stroke:#038048;stroke-width:1;"/></g><text x="27" y="61.8889" fill="#000000" font-size="14" lengthAdjust="spacing" textLength="18.6375" font-family="sans-serif">B()</text><g data-visibility-modifier="PUBLIC_METHOD"><ellipse cx="18" cy="73.5" rx="3" ry="3" fill="#84BE84" style="stroke:#038048;stroke-width:1;"/></g><text x="27" y="75.8889" fill="#000000" font-size="14" lengthAdjust="spacing" textLength="26.8625" font-family="sans-serif">~B()</text><g data-visibility-modifier="PUBLIC_METHOD"><ellipse cx="18" cy="87.5" rx="3" ry="3" fill="#84BE84" style="stroke:#038048;stroke-width:1;"/></g><text x="27" y="89.8889" fill="#000000" font-size="14" lengthAdjust="spacing" textLength="93.3625" font-family="sans-serif">B(in a : const B&amp;)</text></g><?plantuml-src Iyv9B2vMS5Aevj9MSDBG199r4Cf98pDF8L71IY4vFw-uHC59JPEh5W00?></g></svg>