<svg xmlns="http://www.w3.org/2000/svg" xmlns:xlink="http://www.w3.org/1999/xlink" version="1.1" data-diagram-type="DESCRIPTION" style="width:71px;height:273px;background:#FFFFFF;" width="71px" height="273px" viewBox="0 0 71 273" zoomAndPan="magnify" preserveAspectRatio="none" contentStyleType="text/css"><?plantuml $version$?><defs/><g><!--entity A--><g class="entity" data-qualified-name="A" id="ent0001" data-source-line="1"><rect x="7.39" y="7" width="49.3625" height="44" fill="#F1F1F1" style="stroke:#181818;stroke-width:0.5;" rx="2.5" ry="2.5"/><rect x="36.7525" y="12" width="15" height="10" fill="#F1F1F1" style="stroke:#181818;stroke-width:0.5;"/><rect x="34.7525" y="14" width="4" height="2" fill="#F1F1F1" style="stroke:#181818;stroke-width:0.5;"/><rect x="34.7525" y="18" width="4" height="2" fill="#F1F1F1" style="stroke:#181818;stroke-width:0.5;"/><text x="22.39" y="37.8889" fill="#000000" font-size="14" lengthAdjust="spacing" textLength="9.3625" font-family="sans-serif">A</text></g><!--entity B--><g class="entity" data-qualified-name="B" id="ent0002" data-source-line="2"><rect x="7.39" y="111" width="49.3625" height="44" fill="#F1F1F1" style="stroke:#181818;stroke-width:0.5;" rx="2.5" ry="2.5"/><rect x="36.7525" y="116" width="15" height="10" fill="#F1F1F1" style="stroke:#181818;stroke-width:0.5;"/><rect x="34.7525" y="118" width="4" height="2" fill="#F1F1F1" style="stroke:#181818;stroke-width:0.5;"/><rect x="34.7525" y="122" width="4" height="2" fill="#F1F1F1" style="stroke:#181818;stroke-width:0.5;"/><text x="22.39" y="141.8889" fill="#000000" font-size="14" lengthAdjust="spacing" textLength="9.3625" font-family="sans-serif">B</text></g><!--entity C--><g class="entity" data-qualified-name="C" id="ent0003" data-source-line="3"><rect x="7" y="215" width="50.15" height="44" fill="#F1F1F1" style="stroke:#181818;stroke-width:0.5;" rx="2.5" ry="2.5"/><rect x="37.15" y="220" width="15" height="10" fill="#F1F1F1" style="stroke:#181818;stroke-width:0.5;"/><rect x="35.15" y="222" width="4" height="2" fill="#F1F1F1" style="stroke:#181818;stroke-width:0.5;"/><rect x="35.15" y="226" width="4" height="2" fill="#F1F1F1" style="stroke:#181818;stroke-width:0.5;"/><text x="22" y="245.8889" fill="#000000" font-size="14" lengthAdjust="spacing" textLength="10.15" font-family="sans-serif">C</text></g><!--link A to B--><g class="link" data-entity-1="ent0001" data-entity-2="ent0002" id="lnk4" data-source-line="5" data-link-type="dependency"><path d="M32.08,59.13 C32.08,76.52 32.08,81.06 32.08,98.54" style="stroke:#181818;stroke-width:1;" fill="none" id="A-B"/><polygon points="32.08,51.13,29.08,59.13,35.08,59.13,32.08,51.13" fill="#181818" style="stroke:#181818;stroke-width:1;stroke-linejoin:miter;stroke-miterlimit:10;"/><ellipse cx="32.08" cy="104.54" rx="6" ry="6" fill="#FFFFFF" style="stroke:#181818;stroke-width:1.5;"/></g><!--link B to C--><g class="link" data-entity-1="ent0002" data-entity-2="ent0003" id="lnk5" data-source-line="6"><path d="M32.08,167.13 C32.08,184.52 32.08,185.06 32.08,202.54" style="stroke:#181818;stroke-width:1;" fill="none" id="B-C"/><ellipse cx="32.08" cy="161.13" rx="6" ry="6" fill="#181818" style="stroke:#181818;stroke-width:1.5;"/><ellipse cx="32.08" cy="208.54" rx="6" ry="6" fill="#181818" style="stroke:#181818;stroke-width:1.5;"/></g><?plantuml-src IyxFBSZFIyqhKN3aIeQpdP3OpbnSZWesDhgw1a1X9mK7NLq71MS0?></g></svg>