<svg xmlns="http://www.w3.org/2000/svg" xmlns:xlink="http://www.w3.org/1999/xlink" version="1.1" data-diagram-type="CLASS" style="width:386px;height:206px;background:#FFFFFF;" width="386px" height="206px" viewBox="0 0 386 206" zoomAndPan="magnify" preserveAspectRatio="none" contentStyleType="text/css"><?plantuml $version$?><defs/><g><!--class cl1--><g class="entity" data-qualified-name="cl1" id="ent0001" data-source-line="1"><rect x="7" y="122" width="57.9375" height="62" fill="#F1F1F1" style="stroke:#181818;stroke-width:0.5;" rx="2.5" ry="2.5"/><ellipse cx="25.6" cy="138" rx="11" ry="11" fill="#ADD1B2" style="stroke:#181818;stroke-width:1;"/><path d="M28.0731,144.1431 Q27.4921,144.4419 26.8529,144.5913 Q26.2138,144.7407 25.5082,144.7407 Q23.0014,144.7407 21.6815,143.0889 Q20.3617,141.437 20.3617,138.3159 Q20.3617,135.1865 21.6815,133.5347 Q23.0014,131.8828 25.5082,131.8828 Q26.2138,131.8828 26.8612,132.0322 Q27.5087,132.1816 28.0731,132.4805 L28.0731,135.2031 Q27.4423,134.6221 26.8488,134.3523 Q26.2553,134.0825 25.6244,134.0825 Q24.2797,134.0825 23.5949,135.1492 Q22.9101,136.2158 22.9101,138.3159 Q22.9101,140.4077 23.5949,141.4744 Q24.2797,142.541 25.6244,142.541 Q26.2553,142.541 26.8488,142.2712 Q27.4423,142.0015 28.0731,141.4204 Z " fill="#000000"/><text x="40.4" y="141.8889" fill="#000000" font-size="14" lengthAdjust="spacing" textLength="17.9375" font-family="sans-serif">cl1</text><line x1="8" y1="154" x2="63.9375" y2="154" style="stroke:#181818;stroke-width:0.5;"/><text x="13" y="168.8889" fill="#000000" font-size="14" lengthAdjust="spacing" textLength="45.9375" font-family="sans-serif">pour cl1</text><line x1="8" y1="176" x2="63.9375" y2="176" style="stroke:#181818;stroke-width:0.5;"/></g><!--class cl2--><g class="entity" data-qualified-name="cl2" id="ent0002" data-source-line="2"><rect x="11" y="7" width="49.9375" height="48" fill="#F1F1F1" style="stroke:#181818;stroke-width:0.5;" rx="2.5" ry="2.5"/><ellipse cx="26" cy="23" rx="11" ry="11" fill="#ADD1B2" style="stroke:#181818;stroke-width:1;"/><path d="M28.4731,29.1431 Q27.8921,29.4419 27.2529,29.5913 Q26.6138,29.7407 25.9082,29.7407 Q23.4014,29.7407 22.0815,28.0889 Q20.7617,26.437 20.7617,23.3159 Q20.7617,20.1865 22.0815,18.5347 Q23.4014,16.8828 25.9082,16.8828 Q26.6138,16.8828 27.2612,17.0322 Q27.9087,17.1816 28.4731,17.4805 L28.4731,20.2031 Q27.8423,19.6221 27.2488,19.3523 Q26.6553,19.0825 26.0244,19.0825 Q24.6797,19.0825 23.9949,20.1492 Q23.3101,21.2158 23.3101,23.3159 Q23.3101,25.4077 23.9949,26.4744 Q24.6797,27.541 26.0244,27.541 Q26.6553,27.541 27.2488,27.2712 Q27.8423,27.0015 28.4731,26.4204 Z " fill="#000000"/><text x="40" y="26.8889" fill="#000000" font-size="14" lengthAdjust="spacing" textLength="17.9375" font-family="sans-serif">cl2</text><line x1="12" y1="39" x2="59.9375" y2="39" style="stroke:#181818;stroke-width:0.5;"/><line x1="12" y1="47" x2="59.9375" y2="47" style="stroke:#181818;stroke-width:0.5;"/></g><!--class i1--><g class="entity" data-qualified-name="i1" id="ent0004" data-source-line="4"><rect x="100.11" y="115" width="93.725" height="76" fill="#F1F1F1" style="stroke:#181818;stroke-width:0.5;" rx="2.5" ry="2.5"/><ellipse cx="137.9644" cy="131" rx="11" ry="11" fill="#B4A7E5" style="stroke:#181818;stroke-width:1;"/><path d="M134.3921,127.2651 L134.3921,125.1069 L141.7715,125.1069 L141.7715,127.2651 L139.3062,127.2651 L139.3062,135.3418 L141.7715,135.3418 L141.7715,137.5 L134.3921,137.5 L134.3921,135.3418 L136.8574,135.3418 L136.8574,127.2651 Z " fill="#000000"/><text x="157.0431" y="134.8889" fill="#000000" font-size="14" lengthAdjust="spacing" textLength="10.9375" font-style="italic" font-family="sans-serif">i1</text><line x1="101.11" y1="147" x2="192.835" y2="147" style="stroke:#181818;stroke-width:0.5;"/><text x="106.11" y="161.8889" fill="#000000" font-size="14" lengthAdjust="spacing" textLength="43.575" font-family="sans-serif">pourr i1</text><text x="106.11" y="175.8889" fill="#000000" font-size="14" lengthAdjust="spacing" textLength="81.725" font-family="sans-serif">pour i1 encore</text><line x1="101.11" y1="183" x2="192.835" y2="183" style="stroke:#181818;stroke-width:0.5;"/></g><!--class i2--><g class="entity" data-qualified-name="i2" id="ent0005" data-source-line="9"><rect x="178.5" y="7" width="42.9375" height="48" fill="#F1F1F1" style="stroke:#181818;stroke-width:0.5;" rx="2.5" ry="2.5"/><ellipse cx="193.5" cy="23" rx="11" ry="11" fill="#B4A7E5" style="stroke:#181818;stroke-width:1;"/><path d="M189.9277,19.2651 L189.9277,17.1069 L197.3071,17.1069 L197.3071,19.2651 L194.8418,19.2651 L194.8418,27.3418 L197.3071,27.3418 L197.3071,29.5 L189.9277,29.5 L189.9277,27.3418 L192.3931,27.3418 L192.3931,19.2651 Z " fill="#000000"/><text x="207.5" y="26.8889" fill="#000000" font-size="14" lengthAdjust="spacing" textLength="10.9375" font-style="italic" font-family="sans-serif">i2</text><line x1="179.5" y1="39" x2="220.4375" y2="39" style="stroke:#181818;stroke-width:0.5;"/><line x1="179.5" y1="47" x2="220.4375" y2="47" style="stroke:#181818;stroke-width:0.5;"/></g><!--class cl3--><g class="entity" data-qualified-name="cl3" id="ent0007" data-source-line="12"><rect x="314" y="122" width="57.9375" height="62" fill="#F1F1F1" style="stroke:#181818;stroke-width:0.5;" rx="2.5" ry="2.5"/><ellipse cx="332.6" cy="138" rx="11" ry="11" fill="#ADD1B2" style="stroke:#181818;stroke-width:1;"/><path d="M335.0731,144.1431 Q334.4921,144.4419 333.8529,144.5913 Q333.2138,144.7407 332.5082,144.7407 Q330.0014,144.7407 328.6815,143.0889 Q327.3617,141.437 327.3617,138.3159 Q327.3617,135.1865 328.6815,133.5347 Q330.0014,131.8828 332.5082,131.8828 Q333.2138,131.8828 333.8612,132.0322 Q334.5087,132.1816 335.0731,132.4805 L335.0731,135.2031 Q334.4423,134.6221 333.8488,134.3523 Q333.2553,134.0825 332.6244,134.0825 Q331.2797,134.0825 330.5949,135.1492 Q329.9101,136.2158 329.9101,138.3159 Q329.9101,140.4077 330.5949,141.4744 Q331.2797,142.541 332.6244,142.541 Q333.2553,142.541 333.8488,142.2712 Q334.4423,142.0015 335.0731,141.4204 Z " fill="#000000"/><text x="347.4" y="141.8889" fill="#000000" font-size="14" lengthAdjust="spacing" textLength="17.9375" font-family="sans-serif">cl3</text><line x1="315" y1="154" x2="370.9375" y2="154" style="stroke:#181818;stroke-width:0.5;"/><text x="320" y="168.8889" fill="#000000" font-size="14" lengthAdjust="spacing" textLength="45.9375" font-family="sans-serif">pour cl3</text><line x1="315" y1="176" x2="370.9375" y2="176" style="stroke:#181818;stroke-width:0.5;"/></g><!--class i3--><g class="entity" data-qualified-name="i3" id="ent0008" data-source-line="13"><rect x="321.5" y="7" width="42.9375" height="48" fill="#F1F1F1" style="stroke:#181818;stroke-width:0.5;" rx="2.5" ry="2.5"/><ellipse cx="336.5" cy="23" rx="11" ry="11" fill="#B4A7E5" style="stroke:#181818;stroke-width:1;"/><path d="M332.9277,19.2651 L332.9277,17.1069 L340.3071,17.1069 L340.3071,19.2651 L337.8418,19.2651 L337.8418,27.3418 L340.3071,27.3418 L340.3071,29.5 L332.9277,29.5 L332.9277,27.3418 L335.3931,27.3418 L335.3931,19.2651 Z " fill="#000000"/><text x="350.5" y="26.8889" fill="#000000" font-size="14" lengthAdjust="spacing" textLength="10.9375" font-style="italic" font-family="sans-serif">i3</text><line x1="322.5" y1="39" x2="363.4375" y2="39" style="stroke:#181818;stroke-width:0.5;"/><line x1="322.5" y1="47" x2="363.4375" y2="47" style="stroke:#181818;stroke-width:0.5;"/></g><!--class i5--><g class="entity" data-qualified-name="i5" id="ent0010" data-source-line="16"><rect x="228.5" y="122" width="50.9375" height="62" fill="#F1F1F1" style="stroke:#181818;stroke-width:0.5;" rx="2.5" ry="2.5"/><ellipse cx="247.1" cy="138" rx="11" ry="11" fill="#B4A7E5" style="stroke:#181818;stroke-width:1;"/><path d="M243.5277,134.2651 L243.5277,132.1069 L250.9071,132.1069 L250.9071,134.2651 L248.4418,134.2651 L248.4418,142.3418 L250.9071,142.3418 L250.9071,144.5 L243.5277,144.5 L243.5277,142.3418 L245.9931,142.3418 L245.9931,134.2651 Z " fill="#000000"/><text x="261.9" y="141.8889" fill="#000000" font-size="14" lengthAdjust="spacing" textLength="10.9375" font-style="italic" font-family="sans-serif">i5</text><line x1="229.5" y1="154" x2="278.4375" y2="154" style="stroke:#181818;stroke-width:0.5;"/><text x="234.5" y="168.8889" fill="#000000" font-size="14" lengthAdjust="spacing" textLength="38.9375" font-family="sans-serif">pour i5</text><line x1="229.5" y1="176" x2="278.4375" y2="176" style="stroke:#181818;stroke-width:0.5;"/></g><!--reverse link cl2 to cl1--><g class="link" data-entity-1="ent0002" data-entity-2="ent0001" id="lnk3" data-source-line="2" data-link-type="extension"><path d="M35.97,73.42 C35.97,92.38 35.97,101.23 35.97,121.8" style="stroke:#181818;stroke-width:1;" fill="none" id="cl2-backto-cl1"/><polygon points="35.97,55.42,29.97,73.42,41.97,73.42,35.97,55.42" fill="none" style="stroke:#181818;stroke-width:1;stroke-linejoin:miter;stroke-miterlimit:10;"/></g><!--reverse link i2 to i1--><g class="link" data-entity-1="ent0005" data-entity-2="ent0004" id="lnk6" data-source-line="9" data-link-type="extension"><path d="M182.3502,71.8866 C174.8802,88.8066 171.91,95.53 163.34,114.94" style="stroke:#181818;stroke-width:1;" fill="none" id="i2-backto-i1"/><polygon points="189.62,55.42,176.8613,69.4633,187.839,74.3099,189.62,55.42" fill="none" style="stroke:#181818;stroke-width:1;stroke-linejoin:miter;stroke-miterlimit:10;"/></g><!--reverse link i3 to cl3--><g class="link" data-entity-1="ent0008" data-entity-2="ent0007" id="lnk9" data-source-line="13" data-link-type="extension"><path d="M342.97,73.42 C342.97,92.38 342.97,101.23 342.97,121.8" style="stroke:#181818;stroke-width:1;stroke-dasharray:7,7;" fill="none" id="i3-backto-cl3"/><polygon points="342.97,55.42,336.97,73.42,348.97,73.42,342.97,55.42" fill="none" style="stroke:#181818;stroke-width:1;stroke-linejoin:miter;stroke-miterlimit:10;"/></g><!--reverse link i2 to i5--><g class="link" data-entity-1="ent0005" data-entity-2="ent0010" id="lnk11" data-source-line="17" data-link-type="extension"><path d="M217.8951,71.8352 C226.4251,90.7952 231.12,101.23 240.38,121.8" style="stroke:#181818;stroke-width:1;" fill="none" id="i2-backto-i5"/><polygon points="210.51,55.42,212.4234,74.2969,223.3669,69.3735,210.51,55.42" fill="none" style="stroke:#181818;stroke-width:1;stroke-linejoin:miter;stroke-miterlimit:10;"/></g><?plantuml-src NOxH2e0W34NV_OhzWeaV56l1m5JK88Z-lIrCgBTnpzdTCCor0WOBT3IAYyuJd2QdlMXiBiEnKLbd963RIP5Ho1Uz1Qpxy1He6Z4LKXdxAGUyvK0RnIQo6xAGNwV_cECjzkBT?></g></svg>