<svg xmlns="http://www.w3.org/2000/svg" xmlns:xlink="http://www.w3.org/1999/xlink" version="1.1" data-diagram-type="CLASS" style="width:323px;height:346px;background:#FFFFFF;" width="323px" height="346px" viewBox="0 0 323 346" zoomAndPan="magnify" preserveAspectRatio="none" contentStyleType="text/css"><?plantuml $version$?><defs/><g><!--class AbstractEventItem--><g class="entity" data-qualified-name="AbstractEventItem" id="ent0001" data-source-line="3"><rect x="84.99" y="7" width="150.6" height="174" fill="#F1F1F1" style="stroke:#181818;stroke-width:0.5;" rx="2.5" ry="2.5"/><ellipse cx="101.9756" cy="23" rx="11" ry="11" fill="#A9DCDF" style="stroke:#181818;stroke-width:1;"/><path d="M101.8389,18.3481 L100.6851,23.4199 L103.001,23.4199 Z M100.3448,16.1069 L103.3413,16.1069 L106.6866,28.5 L104.2378,28.5 L103.4742,25.437 L100.1954,25.437 L99.4483,28.5 L96.9996,28.5 Z " fill="#000000"/><text x="116.4169" y="26.8889" fill="#000000" font-size="14" lengthAdjust="spacing" textLength="114.1875" font-style="italic" font-family="sans-serif">AbstractEventItem</text><line x1="85.99" y1="39" x2="234.59" y2="39" style="stroke:#181818;stroke-width:0.5;"/><text x="90.99" y="53.8889" fill="#000000" font-size="14" lengthAdjust="spacing" textLength="75.425" font-family="sans-serif">name:String</text><text x="90.99" y="67.8889" fill="#000000" font-size="14" lengthAdjust="spacing" textLength="108.15" font-family="sans-serif">description:String</text><text x="90.99" y="81.8889" fill="#000000" font-size="14" lengthAdjust="spacing" textLength="84.0875" font-family="sans-serif">iconUrl:String</text><text x="90.99" y="95.8889" fill="#000000" font-size="14" lengthAdjust="spacing" textLength="138.6" font-family="sans-serif">iconClassName:String</text><text x="90.99" y="109.8889" fill="#000000" font-size="14" lengthAdjust="spacing" textLength="88.6375" font-family="sans-serif">startTime:long</text><text x="90.99" y="123.8889" fill="#000000" font-size="14" lengthAdjust="spacing" textLength="77.6125" font-family="sans-serif">sortOrder:int</text><text x="90.99" y="137.8889" fill="#000000" font-size="14" lengthAdjust="spacing" textLength="116.55" font-family="sans-serif">status:EventStatus</text><text x="90.99" y="151.8889" fill="#000000" font-size="14" lengthAdjust="spacing" textLength="111.2125" font-family="sans-serif">resultString:String</text><text x="90.99" y="165.8889" fill="#000000" font-size="14" lengthAdjust="spacing" textLength="61.5125" font-family="sans-serif">link:String</text><line x1="85.99" y1="173" x2="234.59" y2="173" style="stroke:#181818;stroke-width:0.5;"/></g><!--class RacingEventItem--><g class="entity" data-qualified-name="RacingEventItem" id="ent0002" data-source-line="16"><rect x="7" y="241" width="138.575" height="90" fill="#F1F1F1" style="stroke:#181818;stroke-width:0.5;" rx="2.5" ry="2.5"/><ellipse cx="22" cy="257" rx="11" ry="11" fill="#ADD1B2" style="stroke:#181818;stroke-width:1;"/><path d="M24.4731,263.1431 Q23.8921,263.4419 23.2529,263.5913 Q22.6138,263.7407 21.9082,263.7407 Q19.4014,263.7407 18.0815,262.0889 Q16.7617,260.437 16.7617,257.3159 Q16.7617,254.1865 18.0815,252.5347 Q19.4014,250.8828 21.9082,250.8828 Q22.6138,250.8828 23.2612,251.0322 Q23.9087,251.1816 24.4731,251.4805 L24.4731,254.2031 Q23.8423,253.6221 23.2488,253.3523 Q22.6553,253.0825 22.0244,253.0825 Q20.6797,253.0825 19.9949,254.1492 Q19.3101,255.2158 19.3101,257.3159 Q19.3101,259.4077 19.9949,260.4744 Q20.6797,261.541 22.0244,261.541 Q22.6553,261.541 23.2488,261.2712 Q23.8423,261.0015 24.4731,260.4204 Z " fill="#000000"/><text x="36" y="260.8889" fill="#000000" font-size="14" lengthAdjust="spacing" textLength="106.575" font-family="sans-serif">RacingEventItem</text><line x1="8" y1="273" x2="144.575" y2="273" style="stroke:#181818;stroke-width:0.5;"/><text x="13" y="287.8889" fill="#000000" font-size="14" lengthAdjust="spacing" textLength="95.6375" font-family="sans-serif">raceNumber:int</text><text x="13" y="301.8889" fill="#000000" font-size="14" lengthAdjust="spacing" textLength="101.15" font-family="sans-serif">flags:RaceFlag[]</text><text x="13" y="315.8889" fill="#000000" font-size="14" lengthAdjust="spacing" textLength="80.0625" font-family="sans-serif">meetingId:int</text><line x1="8" y1="323" x2="144.575" y2="323" style="stroke:#181818;stroke-width:0.5;"/></g><!--class SportEventItem--><g class="entity" data-qualified-name="SportEventItem" id="ent0004" data-source-line="22"><rect x="180.12" y="255" width="128.3375" height="62" fill="#F1F1F1" style="stroke:#181818;stroke-width:0.5;" rx="2.5" ry="2.5"/><ellipse cx="195.12" cy="271" rx="11" ry="11" fill="#ADD1B2" style="stroke:#181818;stroke-width:1;"/><path d="M197.5931,277.1431 Q197.0121,277.4419 196.3729,277.5913 Q195.7338,277.7407 195.0282,277.7407 Q192.5214,277.7407 191.2015,276.0889 Q189.8817,274.437 189.8817,271.3159 Q189.8817,268.1865 191.2015,266.5347 Q192.5214,264.8828 195.0282,264.8828 Q195.7338,264.8828 196.3812,265.0322 Q197.0287,265.1816 197.5931,265.4805 L197.5931,268.2031 Q196.9623,267.6221 196.3688,267.3523 Q195.7753,267.0825 195.1444,267.0825 Q193.7997,267.0825 193.1149,268.1492 Q192.4301,269.2158 192.4301,271.3159 Q192.4301,273.4077 193.1149,274.4744 Q193.7997,275.541 195.1444,275.541 Q195.7753,275.541 196.3688,275.2712 Q196.9623,275.0015 197.5931,274.4204 Z " fill="#000000"/><text x="209.12" y="274.8889" fill="#000000" font-size="14" lengthAdjust="spacing" textLength="96.3375" font-family="sans-serif">SportEventItem</text><line x1="181.12" y1="287" x2="307.4575" y2="287" style="stroke:#181818;stroke-width:0.5;"/><text x="186.12" y="301.8889" fill="#000000" font-size="14" lengthAdjust="spacing" textLength="98.7" font-family="sans-serif">marketCount:int</text><line x1="181.12" y1="309" x2="307.4575" y2="309" style="stroke:#181818;stroke-width:0.5;"/></g><!--reverse link AbstractEventItem to RacingEventItem--><g class="link" data-entity-1="ent0001" data-entity-2="ent0002" id="lnk3" data-source-line="17" data-link-type="extension"><path d="M114.8208,197.8425 C105.7608,218.3325 103.74,222.9 95.91,240.61" style="stroke:#181818;stroke-width:1;" fill="none" id="AbstractEventItem-backto-RacingEventItem"/><polygon points="122.1,181.38,109.3333,195.4161,120.3083,200.2689,122.1,181.38" fill="none" style="stroke:#181818;stroke-width:1;stroke-linejoin:miter;stroke-miterlimit:10;"/></g><!--reverse link AbstractEventItem to SportEventItem--><g class="link" data-entity-1="ent0001" data-entity-2="ent0004" id="lnk5" data-source-line="23" data-link-type="extension"><path d="M205.7562,197.8438 C217.3662,224.1138 222.1,234.81 230.91,254.73" style="stroke:#181818;stroke-width:1;" fill="none" id="AbstractEventItem-backto-SportEventItem"/><polygon points="198.48,181.38,200.2682,200.2692,211.2441,195.4184,198.48,181.38" fill="none" style="stroke:#181818;stroke-width:1;stroke-linejoin:miter;stroke-miterlimit:10;"/></g><?plantuml-src ZP31QiCm38RlVWhlDN8hPOLUEbYsKob3TRHWOij1KigWzDshncj33uFTf0_vatw_Z0nz1Yyd7BwK8Q0lv1mSvTQe3mb4_EgtVJqXwLOn-xFpdY1Zqof7wgthK0B7KMEX1SPGw9FJCrZVdBkdnwB0-X4DfL91ONtZ3hc9f7L09sdc0zgvDiWeKz8gMLmfqd3lBiwv6k4TWe4b0FueKlTND7FRL-ocV7nSuFrtWbuQ4-76glrXXXbHJRpjvh7BVLqxMe3_Ryl00-gwJAJLSmK0?></g></svg>