<svg xmlns="http://www.w3.org/2000/svg" xmlns:xlink="http://www.w3.org/1999/xlink" version="1.1" data-diagram-type="CLASS" style="width:121px;height:286px;background:#FFFFFF;" width="121px" height="286px" viewBox="0 0 121 286" zoomAndPan="magnify" preserveAspectRatio="none" contentStyleType="text/css"><?plantuml $version$?><defs/><g><!--class A--><g class="entity" data-qualified-name="A" id="ent0001" data-source-line="1"><rect x="65.39" y="7" width="41.3625" height="48" fill="#F1F1F1" style="stroke:#181818;stroke-width:0.5;" rx="2.5" ry="2.5"/><ellipse cx="80.39" cy="23" rx="11" ry="11" fill="#ADD1B2" style="stroke:#181818;stroke-width:1;"/><path d="M82.8631,29.1431 Q82.2821,29.4419 81.6429,29.5913 Q81.0038,29.7407 80.2982,29.7407 Q77.7914,29.7407 76.4715,28.0889 Q75.1517,26.437 75.1517,23.3159 Q75.1517,20.1865 76.4715,18.5347 Q77.7914,16.8828 80.2982,16.8828 Q81.0038,16.8828 81.6512,17.0322 Q82.2987,17.1816 82.8631,17.4805 L82.8631,20.2031 Q82.2323,19.6221 81.6388,19.3523 Q81.0453,19.0825 80.4144,19.0825 Q79.0697,19.0825 78.3849,20.1492 Q77.7001,21.2158 77.7001,23.3159 Q77.7001,25.4077 78.3849,26.4744 Q79.0697,27.541 80.4144,27.541 Q81.0453,27.541 81.6388,27.2712 Q82.2323,27.0015 82.8631,26.4204 Z " fill="#000000"/><text x="94.39" y="26.8889" fill="#000000" font-size="14" lengthAdjust="spacing" textLength="9.3625" font-family="sans-serif">A</text><line x1="66.39" y1="39" x2="105.7525" y2="39" style="stroke:#181818;stroke-width:0.5;"/><line x1="66.39" y1="47" x2="105.7525" y2="47" style="stroke:#181818;stroke-width:0.5;"/></g><!--class B--><g class="entity" data-qualified-name="B" id="ent0002" data-source-line="2"><rect x="65.39" y="223" width="41.3625" height="48" fill="#F1F1F1" style="stroke:#181818;stroke-width:0.5;" rx="2.5" ry="2.5"/><ellipse cx="80.39" cy="239" rx="11" ry="11" fill="#ADD1B2" style="stroke:#181818;stroke-width:1;"/><path d="M82.8631,245.1431 Q82.2821,245.4419 81.6429,245.5913 Q81.0038,245.7407 80.2982,245.7407 Q77.7914,245.7407 76.4715,244.0889 Q75.1517,242.437 75.1517,239.3159 Q75.1517,236.1865 76.4715,234.5347 Q77.7914,232.8828 80.2982,232.8828 Q81.0038,232.8828 81.6512,233.0322 Q82.2987,233.1816 82.8631,233.4805 L82.8631,236.2031 Q82.2323,235.6221 81.6388,235.3523 Q81.0453,235.0825 80.4144,235.0825 Q79.0697,235.0825 78.3849,236.1492 Q77.7001,237.2158 77.7001,239.3159 Q77.7001,241.4077 78.3849,242.4744 Q79.0697,243.541 80.4144,243.541 Q81.0453,243.541 81.6388,243.2712 Q82.2323,243.0015 82.8631,242.4204 Z " fill="#000000"/><text x="94.39" y="242.8889" fill="#000000" font-size="14" lengthAdjust="spacing" textLength="9.3625" font-family="sans-serif">B</text><line x1="66.39" y1="255" x2="105.7525" y2="255" style="stroke:#181818;stroke-width:0.5;"/><line x1="66.39" y1="263" x2="105.7525" y2="263" style="stroke:#181818;stroke-width:0.5;"/></g><!--class C--><g class="entity" data-qualified-name="C" id="ent0003" data-source-line="3"><rect x="7" y="115" width="42.15" height="48" fill="#F1F1F1" style="stroke:#181818;stroke-width:0.5;" rx="2.5" ry="2.5"/><ellipse cx="22" cy="131" rx="11" ry="11" fill="#ADD1B2" style="stroke:#181818;stroke-width:1;"/><path d="M24.4731,137.1431 Q23.8921,137.4419 23.2529,137.5913 Q22.6138,137.7407 21.9082,137.7407 Q19.4014,137.7407 18.0815,136.0889 Q16.7617,134.437 16.7617,131.3159 Q16.7617,128.1865 18.0815,126.5347 Q19.4014,124.8828 21.9082,124.8828 Q22.6138,124.8828 23.2612,125.0322 Q23.9087,125.1816 24.4731,125.4805 L24.4731,128.2031 Q23.8423,127.6221 23.2488,127.3523 Q22.6553,127.0825 22.0244,127.0825 Q20.6797,127.0825 19.9949,128.1492 Q19.3101,129.2158 19.3101,131.3159 Q19.3101,133.4077 19.9949,134.4744 Q20.6797,135.541 22.0244,135.541 Q22.6553,135.541 23.2488,135.2712 Q23.8423,135.0015 24.4731,134.4204 Z " fill="#000000"/><text x="36" y="134.8889" fill="#000000" font-size="14" lengthAdjust="spacing" textLength="10.15" font-family="sans-serif">C</text><line x1="8" y1="147" x2="48.15" y2="147" style="stroke:#181818;stroke-width:0.5;"/><line x1="8" y1="155" x2="48.15" y2="155" style="stroke:#181818;stroke-width:0.5;"/></g><ellipse cx="86.08" cy="139" rx="2" ry="2" fill="#181818" style="stroke:#181818;stroke-width:1;"/><!--link A to apoint4--><g class="link" data-entity-1="ent0001" data-entity-2="ent0005" id="lnk7" data-source-line="3" data-link-type="association"><path d="M86.08,55.26 C86.08,83.54 86.08,128.52 86.08,136.7" style="stroke:#181818;stroke-width:1;" fill="none" id="A-apoint4"/></g><!--link apoint4 to B--><g class="link" data-entity-1="ent0005" data-entity-2="ent0002" id="lnk8" data-source-line="3" data-link-type="association"><path d="M86.08,141.5 C86.08,150.21 86.08,194.87 86.08,222.91" style="stroke:#181818;stroke-width:1;" fill="none" id="apoint4-B"/></g><!--link C to apoint4--><g class="link" data-entity-1="ent0003" data-entity-2="ent0005" id="lnk9" data-source-line="3" data-link-type="association"><path d="M49.37,139 C60.84,139 72.31,139 83.78,139" style="stroke:#181818;stroke-width:1;stroke-dasharray:7,7;" fill="none" id="C-apoint4"/></g><?plantuml-src Iyv9B2vMSEHA1jDENCuAUdeA6euwJfe0?></g></svg>