<svg xmlns="http://www.w3.org/2000/svg" xmlns:xlink="http://www.w3.org/1999/xlink" version="1.1" data-diagram-type="STATE" style="width:192px;height:199px;background:#FFFFFF;" width="192px" height="199px" viewBox="0 0 192 199" zoomAndPan="magnify" preserveAspectRatio="none" contentStyleType="text/css"><?plantuml $version$?><defs/><g><g class="entity" data-qualified-name="state1" id="ent0001" data-source-line="3"><path d="M19.5,86 L164.5625,86 A12.5,12.5 0 0 1 177.0625,98.5 L177.0625,110 L7,110 L7,98.5 A12.5,12.5 0 0 1 19.5,86" fill="#F1F1F1"/><rect x="7" y="86" width="170.0625" height="99" fill="none" style="stroke:#181818;stroke-width:0.5;" rx="12.5" ry="12.5"/><line x1="7" y1="110" x2="177.0625" y2="110" style="stroke:#181818;stroke-width:0.5;"/><text x="73" y="101.8889" fill="#000000" font-size="14" lengthAdjust="spacing" textLength="38.0625" font-family="sans-serif">state1</text><g class="entity" data-qualified-name="state1.state2" id="ent0002" data-source-line="4"><rect x="19" y="122" width="58.0625" height="50" fill="#F1F1F1" style="stroke:#181818;stroke-width:0.5;" rx="12.5" ry="12.5"/><line x1="19" y1="146" x2="77.0625" y2="146" style="stroke:#181818;stroke-width:0.5;"/><text x="29" y="137.8889" fill="#000000" font-size="14" lengthAdjust="spacing" textLength="38.0625" font-family="sans-serif">state2</text></g><g class="entity" data-qualified-name="state1.state3" id="ent0003" data-source-line="5"><rect x="95" y="122" width="58.0625" height="50" fill="#F1F1F1" style="stroke:#181818;stroke-width:0.5;" rx="12.5" ry="12.5"/><line x1="95" y1="146" x2="153.0625" y2="146" style="stroke:#181818;stroke-width:0.5;"/><text x="105" y="137.8889" fill="#000000" font-size="14" lengthAdjust="spacing" textLength="38.0625" font-family="sans-serif">state3</text></g></g><g class="start_entity" data-qualified-name=".start." id="ent0004" data-source-line="1"><ellipse cx="92.03" cy="16" rx="10" ry="10" fill="#222222" style="stroke:#222222;stroke-width:1;"/></g><!--link *start* to state1--><g class="link" data-entity-1="ent0004" data-entity-2="ent0001" id="lnk5" data-source-line="1" data-link-type="dependency"><path d="M92.03,26.22 C92.03,39.1 92.03,58.4 92.03,80.72" style="stroke:#181818;stroke-width:1;" fill="none" id="*start*-to-state1"/><polygon points="92.03,85.72,96.03,76.72,92.03,80.72,88.03,76.72,92.03,85.72" fill="#181818" style="stroke:#181818;stroke-width:1;stroke-linejoin:miter;stroke-miterlimit:10;"/></g><?plantuml-src YzQALT3LjLCeBaaiIJNauWBJK9v2DPU20fA04IhNcAkM2m00?></g></svg>