<svg xmlns="http://www.w3.org/2000/svg" xmlns:xlink="http://www.w3.org/1999/xlink" version="1.1" data-diagram-type="CLASS" style="width:553px;height:112px;background:#FFFFFF;" width="553px" height="112px" viewBox="0 0 553 112" zoomAndPan="magnify" preserveAspectRatio="none" contentStyleType="text/css"><?plantuml $version$?><defs/><g><!--class A--><g class="entity" data-qualified-name="A" id="ent0001" data-source-line="1"><rect x="173.57" y="7" width="81.9125" height="90" fill="#F1F1F1" style="stroke:#181818;stroke-width:0.5;" rx="2.5" ry="2.5"/><ellipse cx="206.8175" cy="23" rx="11" ry="11" fill="#ADD1B2" style="stroke:#181818;stroke-width:1;"/><path d="M209.2906,29.1431 Q208.7096,29.4419 208.0704,29.5913 Q207.4313,29.7407 206.7257,29.7407 Q204.2189,29.7407 202.899,28.0889 Q201.5792,26.437 201.5792,23.3159 Q201.5792,20.1865 202.899,18.5347 Q204.2189,16.8828 206.7257,16.8828 Q207.4313,16.8828 208.0787,17.0322 Q208.7262,17.1816 209.2906,17.4805 L209.2906,20.2031 Q208.6598,19.6221 208.0663,19.3523 Q207.4728,19.0825 206.8419,19.0825 Q205.4972,19.0825 204.8124,20.1492 Q204.1276,21.2158 204.1276,23.3159 Q204.1276,25.4077 204.8124,26.4744 Q205.4972,27.541 206.8419,27.541 Q207.4728,27.541 208.0663,27.2712 Q208.6598,27.0015 209.2906,26.4204 Z " fill="#000000"/><text x="224.8725" y="26.8889" fill="#000000" font-size="14" lengthAdjust="spacing" textLength="9.3625" font-family="sans-serif">A</text><line x1="174.57" y1="39" x2="254.4825" y2="39" style="stroke:#181818;stroke-width:0.5;"/><text x="179.57" y="53.8889" fill="#000000" font-size="14" lengthAdjust="spacing" textLength="59.0625" font-family="sans-serif">member1</text><text x="179.57" y="67.8889" fill="#000000" font-size="14" lengthAdjust="spacing" textLength="59.0625" font-family="sans-serif">member2</text><line x1="174.57" y1="75" x2="254.4825" y2="75" style="stroke:#181818;stroke-width:0.5;"/><text x="179.57" y="89.8889" fill="#000000" font-size="14" lengthAdjust="spacing" textLength="69.9125" font-family="sans-serif">memberB()</text></g><path d="M290.47,19 L290.47,26.5 L238.6325,50 L290.47,34.5 L290.47,42 A0,0 0 0 0 290.47,42 L450.895,42 A0,0 0 0 0 450.895,42 L450.895,29 L440.895,19 L290.47,19 A0,0 0 0 0 290.47,19" style="stroke:#181818;stroke-width:0.5;" fill="#FEFFDD"/><path d="M440.895,19 L440.895,29 L450.895,29 L440.895,19" style="stroke:#181818;stroke-width:0.5;" fill="#FEFFDD"/><text x="296.47" y="34.1111" fill="#000000" font-size="13" lengthAdjust="spacing" textLength="139.425" font-family="sans-serif">This member is annotated</text><path d="M290.47,52 L290.47,59.5 L249.4825,86 L290.47,67.5 L290.47,75 A0,0 0 0 0 290.47,75 L538.5638,75 A0,0 0 0 0 538.5638,75 L538.5638,62 L528.5638,52 L290.47,52 A0,0 0 0 0 290.47,52" style="stroke:#181818;stroke-width:0.5;" fill="#FEFFDD"/><path d="M528.5638,52 L528.5638,62 L538.5638,62 L528.5638,52" style="stroke:#181818;stroke-width:0.5;" fill="#FEFFDD"/><text x="296.47" y="67.1111" fill="#000000" font-size="13" lengthAdjust="spacing" textLength="227.0938" font-family="sans-serif">This method is now explained in a UML note</text><path d="M6,29 L6,65 A0,0 0 0 0 6,65 L139.0438,65 A0,0 0 0 0 139.0438,65 L139.0438,51 L179.57,64 L139.0438,43 L139.0438,39 L129.0438,29 L6,29 A0,0 0 0 0 6,29" style="stroke:#181818;stroke-width:0.5;" fill="#FEFFDD"/><path d="M129.0438,29 L129.0438,39 L139.0438,39 L129.0438,29" style="stroke:#181818;stroke-width:0.5;" fill="#FEFFDD"/><text x="12" y="44.1111" fill="#000000" font-size="13" lengthAdjust="spacing" textLength="19.5" font-family="sans-serif">Yet</text><text x="31.5" y="44.1111" fill="#000000" font-size="13" lengthAdjust="spacing" textLength="44.0375" font-weight="700" font-family="sans-serif">another</text><text x="12" y="57.1111" fill="#000000" font-size="13" lengthAdjust="spacing" textLength="112.0438" font-family="sans-serif">note on several lines.</text><?plantuml-src TOon3e8m54NtViKTjOE9Z6mmwwO3urCUbgIychPH4-E_-r03ON2xkJddd3sbX0fF0mmyd3XkfrMlrjCkpCj8o8pONrn6w52LvImSN9z-97IHA4kPMyFIOlJ-oVKiPnVQKPPm1p-kddfXFGI4utxthInpdhjbhT1QmndMaWAEexNwVDWWI7pZI1vUmsapjzu0?></g></svg>