<svg xmlns="http://www.w3.org/2000/svg" xmlns:xlink="http://www.w3.org/1999/xlink" version="1.1" data-diagram-type="CLASS" style="width:165px;height:236px;background:#FFFFFF;" width="165px" height="236px" viewBox="0 0 165 236" zoomAndPan="magnify" preserveAspectRatio="none" contentStyleType="text/css"><?plantuml $version$?><defs/><g><!--class classe1--><g class="entity" data-qualified-name="classe1" id="ent0001" data-source-line="2"><rect x="7" y="7" width="145.875" height="216" fill="#F1F1F1" style="stroke:#181818;stroke-width:0.5;" rx="2.5" ry="2.5"/><ellipse cx="51.9313" cy="23" rx="11" ry="11" fill="#ADD1B2" style="stroke:#181818;stroke-width:1;"/><path d="M54.4044,29.1431 Q53.8233,29.4419 53.1842,29.5913 Q52.545,29.7407 51.8395,29.7407 Q49.3326,29.7407 48.0128,28.0889 Q46.693,26.437 46.693,23.3159 Q46.693,20.1865 48.0128,18.5347 Q49.3326,16.8828 51.8395,16.8828 Q52.545,16.8828 53.1925,17.0322 Q53.8399,17.1816 54.4044,17.4805 L54.4044,20.2031 Q53.7735,19.6221 53.18,19.3523 Q52.5865,19.0825 51.9557,19.0825 Q50.6109,19.0825 49.9261,20.1492 Q49.2413,21.2158 49.2413,23.3159 Q49.2413,25.4077 49.9261,26.4744 Q50.6109,27.541 51.9557,27.541 Q52.5865,27.541 53.18,27.2712 Q53.7735,27.0015 54.4044,26.4204 Z " fill="#000000"/><text x="72.4313" y="26.8889" fill="#000000" font-size="14" lengthAdjust="spacing" textLength="47.5125" font-family="sans-serif">classe1</text><line x1="8" y1="39" x2="151.875" y2="39" style="stroke:#181818;stroke-width:0.5;"/><g data-visibility-modifier="PRIVATE_FIELD"><rect x="15" y="48.5" width="6" height="6" fill="none" style="stroke:#C82930;stroke-width:1;"/></g><text x="27" y="53.8889" fill="#000000" font-size="14" lengthAdjust="spacing" textLength="33.5125" font-family="sans-serif">field1</text><g data-visibility-modifier="PACKAGE_PRIVATE_FIELD"><polygon points="18,61.5,14,67.5,22,67.5" fill="none" style="stroke:#1963A0;stroke-width:1;stroke-linejoin:miter;stroke-miterlimit:10;"/></g><text x="27" y="67.8889" fill="#000000" font-size="14" lengthAdjust="spacing" textLength="33.5125" font-family="sans-serif">field2</text><text x="27" y="81.8889" fill="#000000" font-size="14" lengthAdjust="spacing" textLength="33.5125" font-family="sans-serif">field3</text><g data-visibility-modifier="PROTECTED_FIELD"><polygon points="18,88.5,22,92.5,18,96.5,14,92.5" fill="none" style="stroke:#B38D22;stroke-width:1;stroke-linejoin:miter;stroke-miterlimit:10;"/></g><text x="27" y="95.8889" fill="#000000" font-size="14" lengthAdjust="spacing" textLength="33.5125" font-family="sans-serif">field4</text><g data-visibility-modifier="PUBLIC_FIELD"><ellipse cx="18" cy="107.5" rx="3" ry="3" fill="none" style="stroke:#038048;stroke-width:1;"/></g><text x="27" y="109.8889" fill="#000000" font-size="14" lengthAdjust="spacing" textLength="33.5125" font-family="sans-serif">field5</text><g data-visibility-modifier="IE_MANDATORY"><ellipse cx="18" cy="121.5" rx="3" ry="3" fill="#000000" style="stroke:#000000;stroke-width:1;"/></g><text x="27" y="123.8889" fill="#000000" font-size="14" lengthAdjust="spacing" textLength="110.6" font-family="sans-serif">IE_MANDATORY</text><line x1="8" y1="131" x2="151.875" y2="131" style="stroke:#181818;stroke-width:0.5;"/><g data-visibility-modifier="PRIVATE_METHOD"><rect x="15" y="140.5" width="6" height="6" fill="#F24D5C" style="stroke:#C82930;stroke-width:1;"/></g><text x="27" y="145.8889" fill="#000000" font-size="14" lengthAdjust="spacing" textLength="63.7" font-family="sans-serif">method1()</text><g data-visibility-modifier="PACKAGE_PRIVATE_METHOD"><polygon points="18,153.5,14,159.5,22,159.5" fill="#4177AF" style="stroke:#1963A0;stroke-width:1;stroke-linejoin:miter;stroke-miterlimit:10;"/></g><text x="27" y="159.8889" fill="#000000" font-size="14" lengthAdjust="spacing" textLength="63.7" font-family="sans-serif">method2()</text><text x="27" y="173.8889" fill="#000000" font-size="14" lengthAdjust="spacing" textLength="63.7" font-family="sans-serif">method3()</text><g data-visibility-modifier="PROTECTED_METHOD"><polygon points="18,180.5,22,184.5,18,188.5,14,184.5" fill="#FFFF44" style="stroke:#B38D22;stroke-width:1;stroke-linejoin:miter;stroke-miterlimit:10;"/></g><text x="27" y="187.8889" fill="#000000" font-size="14" lengthAdjust="spacing" textLength="63.7" font-family="sans-serif">method4()</text><g data-visibility-modifier="PUBLIC_METHOD"><ellipse cx="18" cy="199.5" rx="3" ry="3" fill="#84BE84" style="stroke:#038048;stroke-width:1;"/></g><text x="27" y="201.8889" fill="#000000" font-size="14" lengthAdjust="spacing" textLength="63.7" font-family="sans-serif">method5()</text><g data-visibility-modifier="IE_MANDATORY"><ellipse cx="18" cy="213.5" rx="3" ry="3" fill="#000000" style="stroke:#000000;stroke-width:1;"/></g><text x="27" y="215.8889" fill="#000000" font-size="14" lengthAdjust="spacing" textLength="119.875" font-family="sans-serif">IE_MANDATORY()</text></g><?plantuml-src Iyv9B2vMI0QHgOOArLmA2hffcQavAOP0LXsOPGHaAO1Pna2MCfXb0cHfWrccG9QMfskyhwEVYsE8Vr0a5yY8tDIIZFmKGmrDa2aGZX6Oem3X68CvoX2E2PYZ3U6OWZae9W95Qha0?></g></svg>