<svg xmlns="http://www.w3.org/2000/svg" xmlns:xlink="http://www.w3.org/1999/xlink" version="1.1" data-diagram-type="CLASS" style="width:81px;height:169px;background:#FFFFFF;" width="81px" height="169px" viewBox="0 0 81 169" zoomAndPan="magnify" preserveAspectRatio="none" contentStyleType="text/css"><?plantuml $version$?><defs/><g><!--class Foo--><g class="entity" data-qualified-name="Foo" id="ent0001" data-source-line="1"><rect x="7" y="7" width="61.2125" height="149" fill="#F1F1F1" style="stroke:#181818;stroke-width:0.5;" rx="2.5" ry="2.5"/><ellipse cx="24.2781" cy="23" rx="11" ry="11" fill="#ADD1B2" style="stroke:#181818;stroke-width:1;"/><path d="M26.7513,29.1431 Q26.1702,29.4419 25.5311,29.5913 Q24.8919,29.7407 24.1863,29.7407 Q21.6795,29.7407 20.3597,28.0889 Q19.0398,26.437 19.0398,23.3159 Q19.0398,20.1865 20.3597,18.5347 Q21.6795,16.8828 24.1863,16.8828 Q24.8919,16.8828 25.5394,17.0322 Q26.1868,17.1816 26.7513,17.4805 L26.7513,20.2031 Q26.1204,19.6221 25.5269,19.3523 Q24.9334,19.0825 24.3025,19.0825 Q22.9578,19.0825 22.273,20.1492 Q21.5882,21.2158 21.5882,23.3159 Q21.5882,25.4077 22.273,26.4744 Q22.9578,27.541 24.3025,27.541 Q24.9334,27.541 25.5269,27.2712 Q26.1204,27.0015 26.7513,26.4204 Z " fill="#000000"/><text x="38.7844" y="26.8889" fill="#000000" font-size="14" lengthAdjust="spacing" textLength="24.15" font-family="sans-serif">Foo</text><line x1="8" y1="39" x2="67.2125" y2="39" style="stroke:#181818;stroke-width:0.5;"/><line x1="8" y1="54" x2="29.0313" y2="54" style="stroke:#181818;stroke-width:1;"/><text x="29.0313" y="57.3889" fill="#000000" font-size="14" lengthAdjust="spacing" textLength="17.15" font-family="sans-serif">B1</text><line x1="46.1813" y1="54" x2="67.2125" y2="54" style="stroke:#181818;stroke-width:1;"/><text x="25" y="80.8889" fill="#000000" font-size="14" lengthAdjust="spacing" textLength="17.15" font-family="sans-serif">B1</text><text x="25" y="94.8889" fill="#000000" font-size="14" lengthAdjust="spacing" textLength="17.0625" font-family="sans-serif">b()</text><text x="33" y="108.8889" fill="#000000" font-size="14" lengthAdjust="spacing" textLength="15.575" font-family="sans-serif">b1</text><text x="33" y="122.8889" fill="#000000" font-size="14" lengthAdjust="spacing" textLength="15.575" font-family="sans-serif">b2</text><text x="41" y="136.8889" fill="#000000" font-size="14" lengthAdjust="spacing" textLength="27.2125" font-family="sans-serif">b2.1</text><text x="25" y="150.8889" fill="#000000" font-size="14" lengthAdjust="spacing" textLength="16.275" font-family="sans-serif">c()</text><rect x="22" y="76" width="2" height="2" fill="#F1F1F1" style="stroke:#000000;stroke-width:1;"/><line x1="15" y1="77" x2="23" y2="77" style="stroke:#000000;stroke-width:1;"/><line x1="15" y1="70" x2="15" y2="77" style="stroke:#000000;stroke-width:1;"/><rect x="22" y="90" width="2" height="2" fill="#F1F1F1" style="stroke:#000000;stroke-width:1;"/><line x1="15" y1="91" x2="23" y2="91" style="stroke:#000000;stroke-width:1;"/><line x1="15" y1="77" x2="15" y2="91" style="stroke:#000000;stroke-width:1;"/><rect x="30" y="104" width="2" height="2" fill="#F1F1F1" style="stroke:#000000;stroke-width:1;"/><line x1="23" y1="105" x2="31" y2="105" style="stroke:#000000;stroke-width:1;"/><line x1="23" y1="91" x2="23" y2="105" style="stroke:#000000;stroke-width:1;"/><rect x="30" y="118" width="2" height="2" fill="#F1F1F1" style="stroke:#000000;stroke-width:1;"/><line x1="23" y1="119" x2="31" y2="119" style="stroke:#000000;stroke-width:1;"/><line x1="23" y1="105" x2="23" y2="119" style="stroke:#000000;stroke-width:1;"/><rect x="38" y="132" width="2" height="2" fill="#F1F1F1" style="stroke:#000000;stroke-width:1;"/><line x1="31" y1="133" x2="39" y2="133" style="stroke:#000000;stroke-width:1;"/><line x1="31" y1="119" x2="31" y2="133" style="stroke:#000000;stroke-width:1;"/><rect x="22" y="146" width="2" height="2" fill="#F1F1F1" style="stroke:#000000;stroke-width:1;"/><line x1="15" y1="147" x2="23" y2="147" style="stroke:#000000;stroke-width:1;"/><line x1="15" y1="91" x2="15" y2="147" style="stroke:#000000;stroke-width:1;"/></g><?plantuml-src Iyv9B2vMSClFLwZcqjLLS39KqDNbgea7Ca1aaeOcbu82Y648fOs0D9Ib1rQI35HI2m00?></g></svg>