<svg xmlns="http://www.w3.org/2000/svg" xmlns:xlink="http://www.w3.org/1999/xlink" version="1.1" data-diagram-type="DESCRIPTION" style="width:254px;height:226px;background:#FFFFFF;" width="254px" height="226px" viewBox="0 0 254 226" zoomAndPan="magnify" preserveAspectRatio="none" contentStyleType="text/css"><?plantuml $version$?><defs/><g><!--entity 有土可种桑麻--><g class="entity" data-qualified-name="......" id="ent0001" data-source-line="1"><ellipse cx="48" cy="14" rx="8" ry="8" fill="#F1F1F1" style="stroke:#181818;stroke-width:0.5;"/><path d="M48,22 L48,49 M35,30 L61,30 M48,49 L35,64 M48,49 L61,64" style="stroke:#181818;stroke-width:0.5;" fill="none"/><text x="6" y="76.3889" fill="#000000" font-size="14" lengthAdjust="spacing" textLength="84" font-family="sans-serif">有土可种桑麻</text></g><!--entity 有水克养鱼虾--><g class="entity" data-qualified-name="......" id="ent0002" data-source-line="2"><ellipse cx="167" cy="14" rx="8" ry="8" fill="#F1F1F1" style="stroke:#181818;stroke-width:0.5;"/><path d="M167,22 L167,49 M154,30 L180,30 M167,49 L154,64 M167,49 L180,64" style="stroke:#181818;stroke-width:0.5;" fill="none"/><text x="125" y="76.3889" fill="#000000" font-size="14" lengthAdjust="spacing" textLength="84" font-family="sans-serif">有水克养鱼虾</text></g><!--entity 有人非你非我--><g class="entity" data-qualified-name="......" id="ent0003" data-source-line="3"><ellipse cx="48" cy="148" rx="8" ry="8" fill="#F1F1F1" style="stroke:#181818;stroke-width:0.5;"/><path d="M48,156 L48,183 M35,164 L61,164 M48,183 L35,198 M48,183 L61,198" style="stroke:#181818;stroke-width:0.5;" fill="none"/><text x="6" y="210.3889" fill="#000000" font-size="14" lengthAdjust="spacing" textLength="84" font-family="sans-serif">有人非你非我</text></g><!--entity 有马克走天涯--><g class="entity" data-qualified-name="......" id="ent0004" data-source-line="4"><ellipse cx="183.0017" cy="176.5043" rx="57.6717" ry="13.9343" fill="#F1F1F1" style="stroke:#181818;stroke-width:0.5;"/><text x="141.0017" y="180.0043" fill="#000000" font-size="14" lengthAdjust="spacing" textLength="84" font-family="sans-serif">有马克走天涯</text></g><?plantuml-src IqmkoIzIU3Qdy-cS-K_xrpzVtljiuSINktPp9S8adctOyhIr-sdhxfSRzxoOkGyXyMJNhfTpvptPkm18FkkOo5LQd9gSM9mAadgvSWrGpukj6vukMVbiste0?></g></svg>