<svg xmlns="http://www.w3.org/2000/svg" xmlns:xlink="http://www.w3.org/1999/xlink" version="1.1" data-diagram-type="CLASS" style="width:176px;height:84px;background:#FFFFFF;" width="176px" height="84px" viewBox="0 0 176 84" zoomAndPan="magnify" preserveAspectRatio="none" contentStyleType="text/css"><?plantuml $version$?><defs/><g><!--class A--><g class="entity" data-qualified-name="A" id="ent0001" data-source-line="10"><rect x="119.66" y="7" width="41.3625" height="62" fill="#F1F1F1" style="stroke:#181818;stroke-width:0.5;" rx="2.5" ry="2.5"/><ellipse cx="134.66" cy="23" rx="11" ry="11" fill="#ADD1B2" style="stroke:#181818;stroke-width:1;"/><path d="M137.1331,29.1431 Q136.5521,29.4419 135.9129,29.5913 Q135.2738,29.7407 134.5682,29.7407 Q132.0614,29.7407 130.7415,28.0889 Q129.4217,26.437 129.4217,23.3159 Q129.4217,20.1865 130.7415,18.5347 Q132.0614,16.8828 134.5682,16.8828 Q135.2738,16.8828 135.9212,17.0322 Q136.5687,17.1816 137.1331,17.4805 L137.1331,20.2031 Q136.5023,19.6221 135.9088,19.3523 Q135.3153,19.0825 134.6844,19.0825 Q133.3397,19.0825 132.6549,20.1492 Q131.9701,21.2158 131.9701,23.3159 Q131.9701,25.4077 132.6549,26.4744 Q133.3397,27.541 134.6844,27.541 Q135.3153,27.541 135.9088,27.2712 Q136.5023,27.0015 137.1331,26.4204 Z " fill="#000000"/><text x="148.66" y="26.8889" fill="#000000" font-size="14" lengthAdjust="spacing" textLength="9.3625" font-family="sans-serif">A</text><line x1="120.66" y1="39" x2="160.0225" y2="39" style="stroke:#181818;stroke-width:0.5;"/><line x1="120.66" y1="47" x2="160.0225" y2="47" style="stroke:#181818;stroke-width:0.5;"/><text x="125.66" y="61.8889" fill="#000000" font-size="14" lengthAdjust="spacing" textLength="18.6375" font-family="sans-serif">B()</text></g><path d="M6,21.5 L6,44.5 A0,0 0 0 0 6,44.5 L84.6875,44.5 A0,0 0 0 0 84.6875,44.5 L84.6875,39.5 L125.66,58 L84.6875,31.5 L84.6875,31.5 L74.6875,21.5 L6,21.5 A0,0 0 0 0 6,21.5" style="stroke:#181818;stroke-width:0.5;" fill="#FEFFDD"/><path d="M74.6875,21.5 L74.6875,31.5 L84.6875,31.5 L74.6875,21.5" style="stroke:#181818;stroke-width:0.5;" fill="#FEFFDD"/><text x="12" y="36.6111" fill="#000000" font-size="13" lengthAdjust="spacing" textLength="57.6875" font-family="sans-serif">test not red</text><?plantuml-src ioakgSn9jUDI08Ay_99KXMem4mJqqX8pyqgG1430AJ4vExqelpGlnJa_9xz8eIWr1IvVomKXRVIXXd8bvoGM5oiuSe7DSDBGvAhbuWBRafEQLgAGdwRWQ6Mb11HNub8eIIqk0Ra0R69gNWhODLm0?></g></svg>