<svg xmlns="http://www.w3.org/2000/svg" xmlns:xlink="http://www.w3.org/1999/xlink" version="1.1" data-diagram-type="STATE" style="width:109px;height:230px;background:#FFFFFF;" width="109px" height="230px" viewBox="0 0 109 230" zoomAndPan="magnify" preserveAspectRatio="none" contentStyleType="text/css"><?plantuml $version$?><defs/><g><g class="entity" data-qualified-name="B" id="ent0001" data-source-line="1"><path d="M19.5,117 L81.65,117 A12.5,12.5 0 0 1 94.15,129.5 L94.15,141 L7,141 L7,129.5 A12.5,12.5 0 0 1 19.5,117" fill="#F1F1F1"/><rect x="7" y="117" width="87.15" height="99" fill="none" style="stroke:#181818;stroke-width:0.5;" rx="12.5" ry="12.5"/><line x1="7" y1="141" x2="94.15" y2="141" style="stroke:#181818;stroke-width:0.5;"/><text x="45.8938" y="132.8889" fill="#000000" font-size="14" lengthAdjust="spacing" textLength="9.3625" font-family="sans-serif">B</text><g class="entity" data-qualified-name="B.inner" id="ent0002" data-source-line="2"><rect x="19" y="153" width="51.15" height="50" fill="#F1F1F1" style="stroke:#181818;stroke-width:0.5;" rx="12.5" ry="12.5"/><line x1="19" y1="177" x2="70.15" y2="177" style="stroke:#181818;stroke-width:0.5;"/><text x="29" y="168.8889" fill="#000000" font-size="14" lengthAdjust="spacing" textLength="31.15" font-family="sans-serif">inner</text></g></g><g class="entity" data-qualified-name="A" id="ent0003" data-source-line="5"><rect x="25.58" y="7" width="50" height="50" fill="#F1F1F1" style="stroke:#181818;stroke-width:0.5;" rx="12.5" ry="12.5"/><line x1="25.58" y1="31" x2="75.58" y2="31" style="stroke:#181818;stroke-width:0.5;"/><text x="45.8988" y="22.8889" fill="#000000" font-size="14" lengthAdjust="spacing" textLength="9.3625" font-family="sans-serif">A</text></g><!--link A to B--><g class="link" data-entity-1="ent0003" data-entity-2="ent0001" id="lnk4" data-source-line="6" data-link-type="dependency"><path d="M50.58,57.3 C50.58,73.89 50.58,91.43 50.58,111.65" style="stroke:#181818;stroke-width:1;" fill="none" id="A-to-B"/><polygon points="50.58,116.65,54.58,107.65,50.58,111.65,46.58,107.65,50.58,116.65" fill="#181818" style="stroke:#181818;stroke-width:1;stroke-linejoin:miter;stroke-miterlimit:10;"/></g><?plantuml-src Aov9B4bLS5Aevb9GA0QpC_FoKekuQhcu85n7i9G2aDRLjLDmuge50000?></g></svg>