<svg xmlns="http://www.w3.org/2000/svg" xmlns:xlink="http://www.w3.org/1999/xlink" version="1.1" data-diagram-type="CLASS" style="width:112px;height:148px;background:#FFFFFF;" width="112px" height="148px" viewBox="0 0 112 148" zoomAndPan="magnify" preserveAspectRatio="none" contentStyleType="text/css"><?plantuml $version$?><defs/><g><!--class foo--><g class="entity" data-qualified-name="foo" id="ent0001" data-source-line="17"><rect x="27.6469" y="7" width="51.425" height="48" fill="#F1F1F1" style="stroke:#181818;stroke-width:0.5;" rx="2.5" ry="2.5"/><ellipse cx="42.6469" cy="23" rx="11" ry="11" fill="#ADD1B2" style="stroke:#181818;stroke-width:1;"/><path d="M45.12,29.1431 Q44.539,29.4419 43.8998,29.5913 Q43.2606,29.7407 42.5551,29.7407 Q40.0482,29.7407 38.7284,28.0889 Q37.4086,26.437 37.4086,23.3159 Q37.4086,20.1865 38.7284,18.5347 Q40.0482,16.8828 42.5551,16.8828 Q43.2606,16.8828 43.9081,17.0322 Q44.5556,17.1816 45.12,17.4805 L45.12,20.2031 Q44.4892,19.6221 43.8957,19.3523 Q43.3021,19.0825 42.6713,19.0825 Q41.3266,19.0825 40.6417,20.1492 Q39.9569,21.2158 39.9569,23.3159 Q39.9569,25.4077 40.6417,26.4744 Q41.3266,27.541 42.6713,27.541 Q43.3021,27.541 43.8957,27.2712 Q44.4892,27.0015 45.12,26.4204 Z " fill="#000000"/><text x="56.6469" y="26.8889" fill="#000000" font-size="14" lengthAdjust="spacing" textLength="19.425" font-family="sans-serif">foo</text><line x1="28.6469" y1="39" x2="78.0719" y2="39" style="stroke:#181818;stroke-width:0.5;"/><line x1="28.6469" y1="47" x2="78.0719" y2="47" style="stroke:#181818;stroke-width:0.5;"/></g><g class="legend" data-source-line="11"><rect x="12" y="74" width="81.7187" height="55" fill="#DDDDDD" style="stroke:#FFA500;stroke-width:1;" rx="7.5" ry="7.5"/><text x="17" y="90.6667" fill="#0000FF" font-size="15" lengthAdjust="spacing" textLength="71.7187" font-style="italic" font-family="sans-serif">hypothesis</text><text x="17" y="105.6667" fill="#0000FF" font-size="15" lengthAdjust="spacing" textLength="40.875" font-style="italic" font-family="sans-serif">* Hyp 1</text><text x="17" y="120.6667" fill="#0000FF" font-size="15" lengthAdjust="spacing" textLength="40.875" font-style="italic" font-family="sans-serif">* Hyp 2</text></g><?plantuml-src ioakgSn9jUFYp4bDJyrBKQZcukHqoyyhSSxFoIzIICefJOKA16TMfIeOcd8fG05O3AHN8RCaCISp6QZC9pCl5QBFloWnBnseivRBHXzg0HV40gwCoeByaepKuinYBWKj1O_A0WL36CE82-G2g3gkv9p4ucA5jFnyBW00?></g></svg>