<svg xmlns="http://www.w3.org/2000/svg" xmlns:xlink="http://www.w3.org/1999/xlink" version="1.1" data-diagram-type="STATE" style="width:223px;height:629px;background:#FFFFFF;" width="223px" height="629px" viewBox="0 0 223 629" zoomAndPan="magnify" preserveAspectRatio="none" contentStyleType="text/css"><?plantuml $version$?><defs/><g><g class="entity" data-qualified-name="s7_2" id="ent0001" data-source-line="4"><path d="M19.5,7 L116.5,7 A12.5,12.5 0 0 1 129,19.5 L129,31 L7,31 L7,19.5 A12.5,12.5 0 0 1 19.5,7" fill="#F1F1F1"/><rect x="7" y="7" width="122" height="498" fill="none" style="stroke:#181818;stroke-width:0.5;" rx="12.5" ry="12.5"/><line x1="7" y1="31" x2="129" y2="31" style="stroke:#181818;stroke-width:0.5;"/><text x="52.8188" y="22.8889" fill="#000000" font-size="14" lengthAdjust="spacing" textLength="30.3625" font-family="sans-serif">s7_2</text><g class="start_entity" data-qualified-name="s7_2..start.s7_2" id="ent0008" data-source-line="5"><ellipse cx="46.11" cy="52" rx="10" ry="10" fill="#222222" style="stroke:#222222;stroke-width:1;"/></g><g class="entity" data-qualified-name="s7_2.chat1" id="ent0009" data-source-line="5"><rect x="19" y="98" width="54.2125" height="50" fill="#F1F1F1" style="stroke:#181818;stroke-width:0.5;" rx="12.5" ry="12.5"/><line x1="19" y1="122" x2="73.2125" y2="122" style="stroke:#181818;stroke-width:0.5;"/><text x="29" y="113.8889" fill="#000000" font-size="14" lengthAdjust="spacing" textLength="34.2125" font-family="sans-serif">chat1</text></g><!--link *start*s7_2 to chat1--><g class="link" data-entity-1="ent0008" data-entity-2="ent0009" id="lnk10" data-source-line="5" data-link-type="dependency"><path d="M46.11,62.31 C46.11,71.35 46.11,80.49 46.11,92.73" style="stroke:#181818;stroke-width:1;" fill="none" id="*start*s7_2-to-chat1"/><polygon points="46.11,97.73,50.11,88.73,46.11,92.73,42.11,88.73,46.11,97.73" fill="#181818" style="stroke:#181818;stroke-width:1;stroke-linejoin:miter;stroke-miterlimit:10;"/></g><line x1="12" y1="156" x2="122" y2="156" style="stroke:#181818;stroke-width:1.5;stroke-dasharray:8,10;"/><g class="entity" data-qualified-name="s7_2.CONC1.toutou9" id="ent0003" data-source-line="9"><path d="M31.5,218 L92.5,218 A12.5,12.5 0 0 1 105,230.5 L105,242 L19,242 L19,230.5 A12.5,12.5 0 0 1 31.5,218" fill="#F1F1F1"/><rect x="19" y="218" width="86" height="154" fill="none" style="stroke:#181818;stroke-width:0.5;" rx="12.5" ry="12.5"/><line x1="19" y1="242" x2="105" y2="242" style="stroke:#181818;stroke-width:0.5;"/><text x="38.6813" y="233.8889" fill="#000000" font-size="14" lengthAdjust="spacing" textLength="46.6375" font-family="sans-serif">toutou9</text><g class="start_entity" data-qualified-name="s7_2.CONC1.toutou9..start.toutou9" id="ent0013" data-source-line="10"><ellipse cx="56" cy="263" rx="10" ry="10" fill="#222222" style="stroke:#222222;stroke-width:1;"/></g><g class="entity" data-qualified-name="s7_2.CONC1.toutou9.leo" id="ent0014" data-source-line="10"><rect x="31" y="309" width="50" height="50" fill="#F1F1F1" style="stroke:#181818;stroke-width:0.5;" rx="12.5" ry="12.5"/><line x1="31" y1="333" x2="81" y2="333" style="stroke:#181818;stroke-width:0.5;"/><text x="46.6375" y="324.8889" fill="#000000" font-size="14" lengthAdjust="spacing" textLength="18.725" font-family="sans-serif">leo</text></g><!--link *start*toutou9 to leo--><g class="link" data-entity-1="ent0013" data-entity-2="ent0014" id="lnk15" data-source-line="10" data-link-type="dependency"><path d="M56,273.31 C56,282.35 56,291.49 56,303.73" style="stroke:#181818;stroke-width:1;" fill="none" id="*start*toutou9-to-leo"/><polygon points="56,308.73,60,299.73,56,303.73,52,299.73,56,308.73" fill="#181818" style="stroke:#181818;stroke-width:1;stroke-linejoin:miter;stroke-miterlimit:10;"/></g></g><g class="start_entity" data-qualified-name="s7_2.CONC1..start.CONC1" id="ent0011" data-source-line="7"><ellipse cx="62" cy="172" rx="10" ry="10" fill="#222222" style="stroke:#222222;stroke-width:1;"/></g><!--link *start*CONC1 to toutou9--><g class="link" data-entity-1="ent0011" data-entity-2="ent0003" id="lnk12" data-source-line="7" data-link-type="dependency"><path d="M62,182.49 C62,190.74 62,198.54 62,212.56" style="stroke:#181818;stroke-width:1;" fill="none" id="*start*CONC1-to-toutou9"/><polygon points="62,217.56,66,208.56,62,212.56,58,208.56,62,217.56" fill="#181818" style="stroke:#181818;stroke-width:1;stroke-linejoin:miter;stroke-miterlimit:10;"/></g><line x1="12" y1="380" x2="122" y2="380" style="stroke:#181818;stroke-width:1.5;stroke-dasharray:8,10;"/><g class="start_entity" data-qualified-name="s7_2.CONC2..start.CONC2" id="ent0016" data-source-line="14"><ellipse cx="46.11" cy="396" rx="10" ry="10" fill="#222222" style="stroke:#222222;stroke-width:1;"/></g><g class="entity" data-qualified-name="s7_2.CONC2.chat2" id="ent0017" data-source-line="14"><rect x="19" y="442" width="54.2125" height="50" fill="#F1F1F1" style="stroke:#181818;stroke-width:0.5;" rx="12.5" ry="12.5"/><line x1="19" y1="466" x2="73.2125" y2="466" style="stroke:#181818;stroke-width:0.5;"/><text x="29" y="457.8889" fill="#000000" font-size="14" lengthAdjust="spacing" textLength="34.2125" font-family="sans-serif">chat2</text></g><!--link *start*CONC2 to chat2--><g class="link" data-entity-1="ent0016" data-entity-2="ent0017" id="lnk18" data-source-line="14" data-link-type="dependency"><path d="M46.11,406.31 C46.11,415.35 46.11,424.49 46.11,436.73" style="stroke:#181818;stroke-width:1;" fill="none" id="*start*CONC2-to-chat2"/><polygon points="46.11,441.73,50.11,432.73,46.11,436.73,42.11,432.73,46.11,441.73" fill="#181818" style="stroke:#181818;stroke-width:1;stroke-linejoin:miter;stroke-miterlimit:10;"/></g></g><g class="start_entity" data-qualified-name=".start." id="ent0005" data-source-line="2"><ellipse cx="174" cy="256" rx="10" ry="10" fill="#222222" style="stroke:#222222;stroke-width:1;"/></g><g class="entity" data-qualified-name="s0_start" id="ent0006" data-source-line="2"><rect x="139.15" y="565" width="69.7" height="50" fill="#F1F1F1" style="stroke:#181818;stroke-width:0.5;" rx="12.5" ry="12.5"/><line x1="139.15" y1="589" x2="208.85" y2="589" style="stroke:#181818;stroke-width:0.5;"/><text x="149.15" y="580.8889" fill="#000000" font-size="14" lengthAdjust="spacing" textLength="49.7" font-family="sans-serif">s0_start</text></g><!--link *start* to s0_start--><g class="link" data-entity-1="ent0005" data-entity-2="ent0006" id="lnk7" data-source-line="2" data-link-type="dependency"><path d="M174,266.23 C174,310 174,492.44 174,559.78" style="stroke:#181818;stroke-width:1;" fill="none" id="*start*-to-s0_start"/><polygon points="174,564.78,178,555.78,174,559.78,170,555.78,174,564.78" fill="#181818" style="stroke:#181818;stroke-width:1;stroke-linejoin:miter;stroke-miterlimit:10;"/></g><?plantuml-src AyxEp2j8B4hCLIWkIyrMA2agJUMArefLqDMrKoWsY2ykIImguU82KYMf2iNcyKOArN3fv8p44aCkNLsuG4b-AH1PSYb0rKFvI5foKlEvQhcGzO0CCUAgLU3Y0W00?></g></svg>