<svg xmlns="http://www.w3.org/2000/svg" xmlns:xlink="http://www.w3.org/1999/xlink" version="1.1" data-diagram-type="DESCRIPTION" style="width:107px;height:301px;background:#FFFFFF;" width="107px" height="301px" viewBox="0 0 107 301" zoomAndPan="magnify" preserveAspectRatio="none" contentStyleType="text/css"><?plantuml $version$?><defs/><g><!--entity EMP--><g class="entity" data-qualified-name="EMP" id="ent0001" data-source-line="2"><ellipse cx="50.32" cy="14" rx="8" ry="8" fill="#F1F1F1" style="stroke:#181818;stroke-width:0.5;"/><path d="M50.32,22 L50.32,49 M37.32,30 L63.32,30 M50.32,49 L37.32,64 M50.32,49 L63.32,64" style="stroke:#181818;stroke-width:0.5;" fill="none"/><text x="19.17" y="76.3889" fill="#000000" font-size="14" lengthAdjust="spacing" textLength="62.3" font-family="sans-serif">Employee</text></g><!--entity APP--><g class="entity" data-qualified-name="APP" id="ent0002" data-source-line="3"><rect x="7" y="139.5" width="86.6375" height="44" fill="#F1F1F1" style="stroke:#181818;stroke-width:0.5;" rx="2.5" ry="2.5"/><rect x="73.6375" y="144.5" width="15" height="10" fill="#F1F1F1" style="stroke:#181818;stroke-width:0.5;"/><rect x="71.6375" y="146.5" width="4" height="2" fill="#F1F1F1" style="stroke:#181818;stroke-width:0.5;"/><rect x="71.6375" y="150.5" width="4" height="2" fill="#F1F1F1" style="stroke:#181818;stroke-width:0.5;"/><text x="22" y="170.3889" fill="#000000" font-size="14" lengthAdjust="spacing" textLength="46.6375" font-family="sans-serif">Tomcat</text></g><!--entity DB--><g class="entity" data-qualified-name="DB" id="ent0003" data-source-line="4"><rect x="9.71" y="243.5" width="81.2125" height="44" fill="#F1F1F1" style="stroke:#181818;stroke-width:0.5;" rx="2.5" ry="2.5"/><rect x="70.9225" y="248.5" width="15" height="10" fill="#F1F1F1" style="stroke:#181818;stroke-width:0.5;"/><rect x="68.9225" y="250.5" width="4" height="2" fill="#F1F1F1" style="stroke:#181818;stroke-width:0.5;"/><rect x="68.9225" y="254.5" width="4" height="2" fill="#F1F1F1" style="stroke:#181818;stroke-width:0.5;"/><text x="24.71" y="274.3889" fill="#000000" font-size="14" lengthAdjust="spacing" textLength="41.2125" font-family="sans-serif">Oracle</text></g><!--link EMP to APP--><g class="link" data-entity-1="ent0001" data-entity-2="ent0002" id="lnk4" data-source-line="5" data-link-type="association"><path d="M50.32,79.88 C50.32,99.33 50.32,122.61 50.32,139.14" style="stroke:#181818;stroke-width:1;" fill="none" id="EMP-APP"/></g><!--link APP to DB--><g class="link" data-entity-1="ent0002" data-entity-2="ent0003" id="lnk5" data-source-line="6" data-link-type="association"><path d="M50.32,183.63 C50.32,201.02 50.32,225.56 50.32,243.04" style="stroke:#181818;stroke-width:1;" fill="none" id="APP-DB"/></g><?plantuml-src oyXCILL8pIqegLH8B2afoamgBKajvafCBialKb1opIt8oQzCJLLII2nMSFKDu8eEoSzDJYo91V4T0u1y_wB4v9nKCD_5YGkeH45N5om3n22cYnC0?></g></svg>