<svg xmlns="http://www.w3.org/2000/svg" xmlns:xlink="http://www.w3.org/1999/xlink" version="1.1" data-diagram-type="CLASS" style="width:147px;height:117px;background:#FFFFFF;" width="147px" height="117px" viewBox="0 0 147 117" zoomAndPan="magnify" preserveAspectRatio="none" contentStyleType="text/css"><?plantuml $version$?><defs/><g><!--class foo--><g class="entity" data-qualified-name="foo" id="ent0001" data-source-line="7"><rect x="45.1188" y="7" width="51.425" height="48" fill="#F1F1F1" style="stroke:#181818;stroke-width:0.5;" rx="2.5" ry="2.5"/><ellipse cx="60.1188" cy="23" rx="11" ry="11" fill="#ADD1B2" style="stroke:#181818;stroke-width:1;"/><path d="M62.5919,29.1431 Q62.0108,29.4419 61.3717,29.5913 Q60.7325,29.7407 60.027,29.7407 Q57.5201,29.7407 56.2003,28.0889 Q54.8805,26.437 54.8805,23.3159 Q54.8805,20.1865 56.2003,18.5347 Q57.5201,16.8828 60.027,16.8828 Q60.7325,16.8828 61.38,17.0322 Q62.0274,17.1816 62.5919,17.4805 L62.5919,20.2031 Q61.961,19.6221 61.3675,19.3523 Q60.774,19.0825 60.1432,19.0825 Q58.7984,19.0825 58.1136,20.1492 Q57.4288,21.2158 57.4288,23.3159 Q57.4288,25.4077 58.1136,26.4744 Q58.7984,27.541 60.1432,27.541 Q60.774,27.541 61.3675,27.2712 Q61.961,27.0015 62.5919,26.4204 Z " fill="#000000"/><text x="74.1188" y="26.8889" fill="#000000" font-size="14" lengthAdjust="spacing" textLength="19.425" font-family="sans-serif">foo</text><line x1="46.1188" y1="39" x2="95.5438" y2="39" style="stroke:#181818;stroke-width:0.5;"/><line x1="46.1188" y1="47" x2="95.5438" y2="47" style="stroke:#181818;stroke-width:0.5;"/></g><g class="legend" data-source-line="8"><rect x="12" y="74" width="116.6625" height="24" fill="#DDDDDD" style="stroke:#0000FF;stroke-width:5;" rx="7.5" ry="7.5"/><text x="17" y="89.8889" fill="#000000" font-size="14" lengthAdjust="spacing" textLength="106.6625" font-style="italic" font-family="sans-serif">This is the Legend!</text></g><?plantuml-src NOx12W8n34Jl-OhigJSHGRmhU18l-WErZRjbQoDDF8ZuxwQih23a46RcJI9ZAdTV_GqFr5E9-0B4BTT8TSUPArxoWsRfFAGm5XB1zM9fwfwBdlIP2PFwd0AyGUR28olzOol3GlQsNPaXJoThwWUrDei9skX0tsywQFuK0rUi4BrWuKWRS3_0ev8eDhy3rv2sVW00?></g></svg>