<svg xmlns="http://www.w3.org/2000/svg" xmlns:xlink="http://www.w3.org/1999/xlink" version="1.1" data-diagram-type="CLASS" style="width:292px;height:74px;background:#FFFFFF;" width="292px" height="74px" viewBox="0 0 292 74" zoomAndPan="magnify" preserveAspectRatio="none" contentStyleType="text/css"><?plantuml $version$?><defs/><g><!--class foo1--><g class="entity" data-qualified-name="foo1" id="ent0001" data-source-line="1"><rect x="7" y="7" width="121.45" height="52" fill="#F1F1F1" style="stroke:#181818;stroke-width:0.5;" rx="2.5" ry="2.5"/><ellipse cx="22" cy="25" rx="11" ry="11" fill="#ADD1B2" style="stroke:#181818;stroke-width:1;"/><path d="M20.7935,21.1655 L20.7935,24.8013 L21.7979,24.8013 Q23.0015,24.8013 23.4871,24.3945 Q23.9727,23.9878 23.9727,22.9834 Q23.9727,21.979 23.4871,21.5723 Q23.0015,21.1655 21.7979,21.1655 Z M18.3447,19.1069 L21.7065,19.1069 Q24.2715,19.1069 25.3962,20.02 Q26.521,20.9331 26.521,22.9834 Q26.521,25.0337 25.3962,25.9468 Q24.2715,26.8599 21.7065,26.8599 L20.7935,26.8599 L20.7935,31.5 L18.3447,31.5 Z " fill="#000000"/><text x="34" y="21.3333" fill="#000000" font-size="12" lengthAdjust="spacing" textLength="93.45" font-style="italic" font-family="sans-serif">«artyPlaceThing»</text><text x="67.1188" y="34.8889" fill="#000000" font-size="14" lengthAdjust="spacing" textLength="27.2125" font-family="sans-serif">foo1</text><line x1="8" y1="43" x2="127.45" y2="43" style="stroke:#181818;stroke-width:0.5;"/><line x1="8" y1="51" x2="127.45" y2="51" style="stroke:#181818;stroke-width:0.5;"/></g><!--class foo2--><g class="entity" data-qualified-name="foo2" id="ent0002" data-source-line="2"><rect x="163.75" y="7" width="113.95" height="52" fill="#F1F1F1" style="stroke:#181818;stroke-width:0.5;" rx="2.5" ry="2.5"/><ellipse cx="178.75" cy="25" rx="11" ry="11" fill="#ADD1B2" style="stroke:#181818;stroke-width:1;"/><path d="M174.4639,19.1069 L177.3857,19.1069 L178.8633,24.5439 L180.3325,19.1069 L183.271,19.1069 L183.271,31.5 L181.1626,31.5 L181.1626,21.5723 L179.8511,26.9927 L177.9004,26.9927 L176.5723,21.5723 L176.5723,31.5 L174.4639,31.5 Z " fill="#000000"/><text x="190.75" y="21.3333" fill="#000000" font-size="12" lengthAdjust="spacing" textLength="85.95" font-style="italic" font-family="sans-serif">«omentInterval»</text><text x="220.1188" y="34.8889" fill="#000000" font-size="14" lengthAdjust="spacing" textLength="27.2125" font-family="sans-serif">foo2</text><line x1="164.75" y1="43" x2="276.7" y2="43" style="stroke:#181818;stroke-width:0.5;"/><line x1="164.75" y1="51" x2="276.7" y2="51" style="stroke:#181818;stroke-width:0.5;"/></g><?plantuml-src Iyv9B2vMIClFDrImiL7G2D1CB2gf3CX9J4uDoSZCIrUmi-DAXYan0YlnrSpFJSqhySmhIIqgIym1gW00?></g></svg>