<svg xmlns="http://www.w3.org/2000/svg" xmlns:xlink="http://www.w3.org/1999/xlink" version="1.1" data-diagram-type="CLASS" style="width:183px;height:178px;background:#FFFFFF;" width="183px" height="178px" viewBox="0 0 183 178" zoomAndPan="magnify" preserveAspectRatio="none" contentStyleType="text/css"><?plantuml $version$?><defs/><g><!--class toto1--><g class="entity" data-qualified-name="toto1" id="ent0001" data-source-line="1"><rect x="7" y="7" width="63.0625" height="48" fill="#F1F1F1" style="stroke:#181818;stroke-width:0.5;" rx="2.5" ry="2.5"/><ellipse cx="22" cy="23" rx="11" ry="11" fill="#B4A7E5" style="stroke:#181818;stroke-width:1;"/><path d="M18.4277,19.2651 L18.4277,17.1069 L25.8071,17.1069 L25.8071,19.2651 L23.3418,19.2651 L23.3418,27.3418 L25.8071,27.3418 L25.8071,29.5 L18.4277,29.5 L18.4277,27.3418 L20.8931,27.3418 L20.8931,19.2651 Z " fill="#000000"/><text x="36" y="26.8889" fill="#000000" font-size="14" lengthAdjust="spacing" textLength="31.0625" font-style="italic" font-family="sans-serif">toto1</text><line x1="8" y1="39" x2="69.0625" y2="39" style="stroke:#181818;stroke-width:0.5;"/><line x1="8" y1="47" x2="69.0625" y2="47" style="stroke:#181818;stroke-width:0.5;"/></g><!--class toto2--><g class="entity" data-qualified-name="toto2" id="ent0002" data-source-line="2"><rect x="7" y="115" width="63.0625" height="48" fill="#F1F1F1" style="stroke:#181818;stroke-width:0.5;" rx="2.5" ry="2.5"/><ellipse cx="22" cy="131" rx="11" ry="11" fill="#ADD1B2" style="stroke:#181818;stroke-width:1;"/><path d="M24.4731,137.1431 Q23.8921,137.4419 23.2529,137.5913 Q22.6138,137.7407 21.9082,137.7407 Q19.4014,137.7407 18.0815,136.0889 Q16.7617,134.437 16.7617,131.3159 Q16.7617,128.1865 18.0815,126.5347 Q19.4014,124.8828 21.9082,124.8828 Q22.6138,124.8828 23.2612,125.0322 Q23.9087,125.1816 24.4731,125.4805 L24.4731,128.2031 Q23.8423,127.6221 23.2488,127.3523 Q22.6553,127.0825 22.0244,127.0825 Q20.6797,127.0825 19.9949,128.1492 Q19.3101,129.2158 19.3101,131.3159 Q19.3101,133.4077 19.9949,134.4744 Q20.6797,135.541 22.0244,135.541 Q22.6553,135.541 23.2488,135.2712 Q23.8423,135.0015 24.4731,134.4204 Z " fill="#000000"/><text x="36" y="134.8889" fill="#000000" font-size="14" lengthAdjust="spacing" textLength="31.0625" font-family="sans-serif">toto2</text><line x1="8" y1="147" x2="69.0625" y2="147" style="stroke:#181818;stroke-width:0.5;"/><line x1="8" y1="155" x2="69.0625" y2="155" style="stroke:#181818;stroke-width:0.5;"/></g><!--class toto3--><g class="entity" data-qualified-name="toto3" id="ent0004" data-source-line="3"><rect x="105" y="7" width="63.0625" height="48" fill="#F1F1F1" style="stroke:#181818;stroke-width:0.5;" rx="2.5" ry="2.5"/><ellipse cx="120" cy="23" rx="11" ry="11" fill="#EB937F" style="stroke:#181818;stroke-width:1;"/><path d="M123.6143,29.5 L115.8945,29.5 L115.8945,17.1069 L123.6143,17.1069 L123.6143,19.2651 L118.3433,19.2651 L118.3433,21.938 L123.1162,21.938 L123.1162,24.0962 L118.3433,24.0962 L118.3433,27.3418 L123.6143,27.3418 Z " fill="#000000"/><text x="134" y="26.8889" fill="#000000" font-size="14" lengthAdjust="spacing" textLength="31.0625" font-family="sans-serif">toto3</text><line x1="106" y1="39" x2="167.0625" y2="39" style="stroke:#181818;stroke-width:0.5;"/><line x1="106" y1="47" x2="167.0625" y2="47" style="stroke:#181818;stroke-width:0.5;"/></g><!--class toto4--><g class="entity" data-qualified-name="toto4" id="ent0005" data-source-line="4"><rect x="105" y="115" width="63.0625" height="48" fill="#F1F1F1" style="stroke:#181818;stroke-width:0.5;" rx="2.5" ry="2.5"/><ellipse cx="120" cy="131" rx="11" ry="11" fill="#A9DCDF" style="stroke:#181818;stroke-width:1;"/><path d="M119.8633,126.3481 L118.7095,131.4199 L121.0254,131.4199 Z M118.3691,124.1069 L121.3657,124.1069 L124.7109,136.5 L122.2622,136.5 L121.4985,133.437 L118.2197,133.437 L117.4727,136.5 L115.0239,136.5 Z " fill="#000000"/><text x="134" y="134.8889" fill="#000000" font-size="14" lengthAdjust="spacing" textLength="31.0625" font-style="italic" font-family="sans-serif">toto4</text><line x1="106" y1="147" x2="167.0625" y2="147" style="stroke:#181818;stroke-width:0.5;"/><line x1="106" y1="155" x2="167.0625" y2="155" style="stroke:#181818;stroke-width:0.5;"/></g><!--reverse link toto1 to toto2--><g class="link" data-entity-1="ent0001" data-entity-2="ent0002" id="lnk3" data-source-line="2" data-link-type="composition"><path d="M38.53,67.26 C38.53,84.94 38.53,97.13 38.53,114.79" style="stroke:#181818;stroke-width:1;" fill="none" id="toto1-backto-toto2" codeLine="2"/><polygon points="38.53,55.26,34.53,61.26,38.53,67.26,42.53,61.26,38.53,55.26" fill="#181818" style="stroke:#181818;stroke-width:1;stroke-linejoin:miter;stroke-miterlimit:10;"/></g><!--reverse link toto3 to toto4--><g class="link" data-entity-1="ent0004" data-entity-2="ent0005" id="lnk6" data-source-line="5" data-link-type="composition"><path d="M136.53,67.26 C136.53,84.94 136.53,97.13 136.53,114.79" style="stroke:#181818;stroke-width:1;" fill="none" id="toto3-backto-toto4" codeLine="5"/><polygon points="136.53,55.26,132.53,61.26,136.53,67.26,140.53,61.26,136.53,55.26" fill="#181818" style="stroke:#181818;stroke-width:1;stroke-linejoin:miter;stroke-miterlimit:10;"/></g><?plantuml-src oymhIIrAIqnELIZ9Byatv0AJ2bgwkc2-4LTgNcakc6dCbPXKN5AKc5oYa9oJM5mC5ZG1gpU6gpS10000?></g></svg>