<svg xmlns="http://www.w3.org/2000/svg" xmlns:xlink="http://www.w3.org/1999/xlink" version="1.1" data-diagram-type="CLASS" style="width:264px;height:178px;background:#FFFFFF;" width="264px" height="178px" viewBox="0 0 264 178" zoomAndPan="magnify" preserveAspectRatio="none" contentStyleType="text/css"><?plantuml $version$?><defs><linearGradient x1="50%" y1="0%" x2="50%" y2="100%" id="gnkguz4dl1y0"><stop stop-color="#FFA500" offset="0%"/><stop stop-color="#FFFFFF" offset="100%"/></linearGradient></defs><g><!--class CRauFqu--><g class="entity" data-qualified-name="CRauFqu" id="ent0001" data-source-line="4"><rect x="9.11" y="7" width="91.9648" height="48" fill="url(#gnkguz4dl1y0)" style="stroke:#181818;stroke-width:0.5;" rx="2.5" ry="2.5"/><rect x="9.11" y="7" width="91.9648" height="32" fill="url(#gnkguz4dl1y0)" style="stroke:url(#gnkguz4dl1y0);stroke-width:0.5;" rx="2.5" ry="2.5"/><rect x="9.11" y="36.5" width="91.9648" height="2.5" fill="url(#gnkguz4dl1y0)" style="stroke:url(#gnkguz4dl1y0);stroke-width:0.5;"/><rect x="9.11" y="7" width="91.9648" height="48" fill="none" style="stroke:#181818;stroke-width:0.5;" rx="2.5" ry="2.5"/><ellipse cx="24.11" cy="23" rx="11" ry="11" fill="#ADD1B2" style="stroke:#181818;stroke-width:1;"/><path d="M26.5831,29.1431 Q26.0021,29.4419 25.3629,29.5913 Q24.7238,29.7407 24.0182,29.7407 Q21.5114,29.7407 20.1915,28.0889 Q18.8717,26.437 18.8717,23.3159 Q18.8717,20.1865 20.1915,18.5347 Q21.5114,16.8828 24.0182,16.8828 Q24.7238,16.8828 25.3712,17.0322 Q26.0187,17.1816 26.5831,17.4805 L26.5831,20.2031 Q25.9523,19.6221 25.3588,19.3523 Q24.7653,19.0825 24.1344,19.0825 Q22.7897,19.0825 22.1049,20.1492 Q21.4201,21.2158 21.4201,23.3159 Q21.4201,25.4077 22.1049,26.4744 Q22.7897,27.541 24.1344,27.541 Q24.7653,27.541 25.3588,27.2712 Q25.9523,27.0015 26.5831,26.4204 Z " fill="#000000"/><text x="38.11" y="28.291" fill="#000000" font-size="14" lengthAdjust="spacing" textLength="59.9648" font-family="sans-serif">CRauFqu</text><line x1="10.11" y1="39" x2="100.0748" y2="39" style="stroke:#181818;stroke-width:0.5;"/><line x1="10.11" y1="47" x2="100.0748" y2="47" style="stroke:#181818;stroke-width:0.5;"/></g><!--class CBGKJdzpHJ--><g class="entity" data-qualified-name="CBGKJdzpHJ" id="ent0002" data-source-line="6"><rect x="136.27" y="7" width="113.6416" height="48" fill="url(#gnkguz4dl1y0)" style="stroke:#181818;stroke-width:0.5;" rx="2.5" ry="2.5"/><rect x="136.27" y="7" width="113.6416" height="32" fill="url(#gnkguz4dl1y0)" style="stroke:url(#gnkguz4dl1y0);stroke-width:0.5;" rx="2.5" ry="2.5"/><rect x="136.27" y="36.5" width="113.6416" height="2.5" fill="url(#gnkguz4dl1y0)" style="stroke:url(#gnkguz4dl1y0);stroke-width:0.5;"/><rect x="136.27" y="7" width="113.6416" height="48" fill="none" style="stroke:#181818;stroke-width:0.5;" rx="2.5" ry="2.5"/><ellipse cx="151.27" cy="23" rx="11" ry="11" fill="#ADD1B2" style="stroke:#181818;stroke-width:1;"/><path d="M153.7431,29.1431 Q153.1621,29.4419 152.5229,29.5913 Q151.8838,29.7407 151.1782,29.7407 Q148.6714,29.7407 147.3515,28.0889 Q146.0317,26.437 146.0317,23.3159 Q146.0317,20.1865 147.3515,18.5347 Q148.6714,16.8828 151.1782,16.8828 Q151.8838,16.8828 152.5312,17.0322 Q153.1787,17.1816 153.7431,17.4805 L153.7431,20.2031 Q153.1123,19.6221 152.5188,19.3523 Q151.9253,19.0825 151.2944,19.0825 Q149.9497,19.0825 149.2649,20.1492 Q148.5801,21.2158 148.5801,23.3159 Q148.5801,25.4077 149.2649,26.4744 Q149.9497,27.541 151.2944,27.541 Q151.9253,27.541 152.5188,27.2712 Q153.1123,27.0015 153.7431,26.4204 Z " fill="#000000"/><text x="165.27" y="28.291" fill="#000000" font-size="14" lengthAdjust="spacing" textLength="81.6416" font-family="sans-serif">CBGKJdzpHJ</text><line x1="137.27" y1="39" x2="248.9116" y2="39" style="stroke:#181818;stroke-width:0.5;"/><line x1="137.27" y1="47" x2="248.9116" y2="47" style="stroke:#181818;stroke-width:0.5;"/></g><!--class CrJJZdJiIN--><g class="entity" data-qualified-name="CrJJZdJiIN" id="ent0003" data-source-line="8"><rect x="7" y="115" width="96.1758" height="48" fill="url(#gnkguz4dl1y0)" style="stroke:#181818;stroke-width:0.5;" rx="2.5" ry="2.5"/><rect x="7" y="115" width="96.1758" height="32" fill="url(#gnkguz4dl1y0)" style="stroke:url(#gnkguz4dl1y0);stroke-width:0.5;" rx="2.5" ry="2.5"/><rect x="7" y="144.5" width="96.1758" height="2.5" fill="url(#gnkguz4dl1y0)" style="stroke:url(#gnkguz4dl1y0);stroke-width:0.5;"/><rect x="7" y="115" width="96.1758" height="48" fill="none" style="stroke:#181818;stroke-width:0.5;" rx="2.5" ry="2.5"/><ellipse cx="22" cy="131" rx="11" ry="11" fill="#ADD1B2" style="stroke:#181818;stroke-width:1;"/><path d="M24.4731,137.1431 Q23.8921,137.4419 23.2529,137.5913 Q22.6138,137.7407 21.9082,137.7407 Q19.4014,137.7407 18.0815,136.0889 Q16.7617,134.437 16.7617,131.3159 Q16.7617,128.1865 18.0815,126.5347 Q19.4014,124.8828 21.9082,124.8828 Q22.6138,124.8828 23.2612,125.0322 Q23.9087,125.1816 24.4731,125.4805 L24.4731,128.2031 Q23.8423,127.6221 23.2488,127.3523 Q22.6553,127.0825 22.0244,127.0825 Q20.6797,127.0825 19.9949,128.1492 Q19.3101,129.2158 19.3101,131.3159 Q19.3101,133.4077 19.9949,134.4744 Q20.6797,135.541 22.0244,135.541 Q22.6553,135.541 23.2488,135.2712 Q23.8423,135.0015 24.4731,134.4204 Z " fill="#000000"/><text x="36" y="136.291" fill="#000000" font-size="14" lengthAdjust="spacing" textLength="64.1758" font-family="sans-serif">CrJJZdJiIN</text><line x1="8" y1="147" x2="102.1758" y2="147" style="stroke:#181818;stroke-width:0.5;"/><line x1="8" y1="155" x2="102.1758" y2="155" style="stroke:#181818;stroke-width:0.5;"/></g><?plantuml-src AyxEp2j8B4hCLKZEIImkLgZcKb1mIapEJY_AByrBSSxFoIzIy2zAp4jFrGtFo2n9vQhbWYXq3aeiTIii1Mg0YpYvUtkbL1LuU24B5dbvHQLuPNhwWGG1?></g></svg>