<svg xmlns="http://www.w3.org/2000/svg" xmlns:xlink="http://www.w3.org/1999/xlink" version="1.1" data-diagram-type="CLASS" style="width:74px;height:62px;background:#FFFFFF;" width="74px" height="62px" viewBox="0 0 74 62" zoomAndPan="magnify" preserveAspectRatio="none" contentStyleType="text/css"><?plantuml $version$?><defs/><g><!--class Toto--><g class="entity" data-qualified-name="Toto" id="ent0001" data-source-line="2"><rect x="7" y="7" width="54" height="42" fill="#F1F1F1" style="stroke:#181818;stroke-width:0.5;" rx="2.5" ry="2.5"/><ellipse cx="19" cy="20" rx="8" ry="8" fill="#ADD1B2" style="stroke:#181818;stroke-width:1;"/><path d="M21.4731,26.1431 Q20.8921,26.4419 20.2529,26.5913 Q19.6138,26.7407 18.9082,26.7407 Q16.4014,26.7407 15.0815,25.0889 Q13.7617,23.437 13.7617,20.3159 Q13.7617,17.1865 15.0815,15.5347 Q16.4014,13.8828 18.9082,13.8828 Q19.6138,13.8828 20.2612,14.0322 Q20.9087,14.1816 21.4731,14.4805 L21.4731,17.2031 Q20.8423,16.6221 20.2488,16.3523 Q19.6553,16.0825 19.0244,16.0825 Q17.6797,16.0825 16.9949,17.1492 Q16.3101,18.2158 16.3101,20.3159 Q16.3101,22.4077 16.9949,23.4744 Q17.6797,24.541 19.0244,24.541 Q19.6553,24.541 20.2488,24.2712 Q20.8423,24.0015 21.4731,23.4204 Z " fill="#000000"/><text x="30" y="23.8889" fill="#000000" font-size="14" lengthAdjust="spacing" textLength="28" font-family="sans-serif">Toto</text><line x1="8" y1="33" x2="60" y2="33" style="stroke:#181818;stroke-width:0.5;"/><line x1="8" y1="41" x2="60" y2="41" style="stroke:#181818;stroke-width:0.5;"/></g><?plantuml-src AyxEp2j8B4hCLN3EB4hEIKrnpW3oaajIYu8IKp9BYnKik99p4ekB5KBoI_81?></g></svg>