<svg xmlns="http://www.w3.org/2000/svg" xmlns:xlink="http://www.w3.org/1999/xlink" version="1.1" data-diagram-type="CLASS" style="width:82px;height:70px;background:#FFFFFF;" width="82px" height="70px" viewBox="0 0 82 70" zoomAndPan="magnify" preserveAspectRatio="none" contentStyleType="text/css"><?plantuml $version$?><defs/><g><!--class Toto--><g class="entity" data-qualified-name="Toto" id="ent0001" data-source-line="2"><rect x="7" y="7" width="62" height="50" fill="#F1F1F1" style="stroke:#181818;stroke-width:0.5;" rx="2.5" ry="2.5"/><ellipse cx="23" cy="24" rx="12" ry="12" fill="#ADD1B2" style="stroke:#181818;stroke-width:1;"/><path d="M25.501,30.1221 Q24.8857,30.4385 24.209,30.5967 Q23.5322,30.7549 22.7852,30.7549 Q20.1309,30.7549 18.7334,29.0059 Q17.3359,27.2568 17.3359,23.9521 Q17.3359,20.6387 18.7334,18.8896 Q20.1309,17.1406 22.7852,17.1406 Q23.5322,17.1406 24.2178,17.2988 Q24.9033,17.457 25.501,17.7734 L25.501,20.6563 Q24.833,20.041 24.2046,19.7554 Q23.5762,19.4697 22.9082,19.4697 Q21.4844,19.4697 20.7593,20.5991 Q20.0342,21.7285 20.0342,23.9521 Q20.0342,26.167 20.7593,27.2964 Q21.4844,28.4258 22.9082,28.4258 Q23.5762,28.4258 24.2046,28.1401 Q24.833,27.8545 25.501,27.2393 Z " fill="#000000"/><text x="38" y="27.8889" fill="#000000" font-size="14" lengthAdjust="spacing" textLength="28" font-family="sans-serif">Toto</text><line x1="8" y1="41" x2="68" y2="41" style="stroke:#181818;stroke-width:0.5;"/><line x1="8" y1="49" x2="68" y2="49" style="stroke:#181818;stroke-width:0.5;"/></g><?plantuml-src AyxEp2j8B4hCLN3EB4hEIKrnpW3oaajIYzpoyqg2CwjI5Gmjk99p4ekB5KBoI_81?></g></svg>