<svg xmlns="http://www.w3.org/2000/svg" xmlns:xlink="http://www.w3.org/1999/xlink" version="1.1" data-diagram-type="STATE" style="width:91px;height:247px;background:#FFFFFF;" width="91px" height="247px" viewBox="0 0 91 247" zoomAndPan="magnify" preserveAspectRatio="none" contentStyleType="text/css"><?plantuml $version$?><defs/><g><g class="start_entity" data-qualified-name=".start." id="ent0001" data-source-line="1"><ellipse cx="41.08" cy="16" rx="10" ry="10" fill="#222222" style="stroke:#222222;stroke-width:1;"/></g><g class="entity" data-qualified-name="state1" id="ent0002" data-source-line="1"><rect x="12.05" y="86" width="58.0625" height="50" fill="#F1F1F1" style="stroke:#181818;stroke-width:0.5;" rx="12.5" ry="12.5"/><line x1="12.05" y1="110" x2="70.1125" y2="110" style="stroke:#181818;stroke-width:0.5;"/><text x="22.05" y="101.8889" fill="#000000" font-size="14" lengthAdjust="spacing" textLength="38.0625" font-family="sans-serif">state1</text></g><g class="entity" data-qualified-name="GMN4" id="ent0005" data-source-line="4"><path d="M6,196 L6,232 A0,0 0 0 0 6,232 L76.1563,232 A0,0 0 0 0 76.1563,232 L76.1563,206 L66.1563,196 L45.08,196 L41.08,136.45 L37.08,196 L6,196 A0,0 0 0 0 6,196" style="stroke:#181818;stroke-width:0.5;" fill="#FEFFDD"/><path d="M66.1563,196 L66.1563,206 L76.1563,206 L66.1563,196" style="stroke:#181818;stroke-width:0.5;" fill="#FEFFDD"/><text x="12" y="211.1111" fill="#000000" font-size="13" lengthAdjust="spacing" textLength="49.1562" font-family="sans-serif">coucou1</text><text x="12" y="224.1111" fill="#000000" font-size="13" lengthAdjust="spacing" textLength="49.1562" font-family="sans-serif">coucou2</text></g><!--link *start* to state1--><g class="link" data-entity-1="ent0001" data-entity-2="ent0002" id="lnk3" data-source-line="1" data-link-type="dependency"><path d="M41.08,26.26 C41.08,39.95 41.08,61.07 41.08,80.52" style="stroke:#181818;stroke-width:1;" fill="none" id="*start*-to-state1"/><polygon points="41.08,85.52,45.08,76.52,41.08,80.52,37.08,76.52,41.08,85.52" fill="#181818" style="stroke:#181818;stroke-width:1;stroke-linejoin:miter;stroke-miterlimit:10;"/></g><?plantuml-src YzQALT3LjLCeBaaiIJNauihBBqbLICelASdFLSXFWmahA2Jdbm8HWcN4bPgNeW1IpGK0?></g></svg>