<svg xmlns="http://www.w3.org/2000/svg" xmlns:xlink="http://www.w3.org/1999/xlink" version="1.1" data-diagram-type="CLASS" style="width:107px;height:262px;background:#FFFFFF;" width="107px" height="262px" viewBox="0 0 107 262" zoomAndPan="magnify" preserveAspectRatio="none" contentStyleType="text/css"><?plantuml $version$?><defs/><g><!--class foo1--><g class="entity" data-qualified-name="foo1" id="ent0001" data-source-line="7"><rect x="7" y="7" width="85.15" height="90" fill="#F1F1F1" style="stroke:#181818;stroke-width:0.5;" rx="2.5" ry="2.5"/><ellipse cx="33.6719" cy="23" rx="11" ry="11" fill="#ADD1B2" style="stroke:#181818;stroke-width:1;"/><path d="M36.145,29.1431 Q35.564,29.4419 34.9248,29.5913 Q34.2856,29.7407 33.5801,29.7407 Q31.0732,29.7407 29.7534,28.0889 Q28.4336,26.437 28.4336,23.3159 Q28.4336,20.1865 29.7534,18.5347 Q31.0732,16.8828 33.5801,16.8828 Q34.2856,16.8828 34.9331,17.0322 Q35.5806,17.1816 36.145,17.4805 L36.145,20.2031 Q35.5142,19.6221 34.9207,19.3523 Q34.3271,19.0825 33.6963,19.0825 Q32.3516,19.0825 31.6667,20.1492 Q30.9819,21.2158 30.9819,23.3159 Q30.9819,25.4077 31.6667,26.4744 Q32.3516,27.541 33.6963,27.541 Q34.3271,27.541 34.9207,27.2712 Q35.5142,27.0015 36.145,26.4204 Z " fill="#000000"/><text x="50.2656" y="26.8889" fill="#000000" font-size="14" lengthAdjust="spacing" textLength="27.2125" font-family="sans-serif">foo1</text><line x1="8" y1="39" x2="91.15" y2="39" style="stroke:#181818;stroke-width:0.5;"/><line x1="8" y1="47" x2="91.15" y2="47" style="stroke:#181818;stroke-width:0.5;"/><text x="13" y="61.8889" fill="#000000" font-size="14" lengthAdjust="spacing" textLength="27.2125" font-family="sans-serif">init()</text><text x="13" y="75.8889" fill="#000000" font-size="14" lengthAdjust="spacing" textLength="57.4875" font-family="sans-serif">toString()</text><text x="13" y="89.8889" fill="#000000" font-size="14" lengthAdjust="spacing" textLength="73.15" font-family="sans-serif">hashCode()</text></g><!--class foo2--><g class="entity" data-qualified-name="foo2" id="ent0002" data-source-line="7"><rect x="7" y="157" width="85.15" height="90" fill="#F1F1F1" style="stroke:#181818;stroke-width:0.5;" rx="2.5" ry="2.5"/><ellipse cx="33.6719" cy="173" rx="11" ry="11" fill="#ADD1B2" style="stroke:#181818;stroke-width:1;"/><path d="M36.145,179.1431 Q35.564,179.4419 34.9248,179.5913 Q34.2856,179.7407 33.5801,179.7407 Q31.0732,179.7407 29.7534,178.0889 Q28.4336,176.437 28.4336,173.3159 Q28.4336,170.1865 29.7534,168.5347 Q31.0732,166.8828 33.5801,166.8828 Q34.2856,166.8828 34.9331,167.0322 Q35.5806,167.1816 36.145,167.4805 L36.145,170.2031 Q35.5142,169.6221 34.9207,169.3523 Q34.3271,169.0825 33.6963,169.0825 Q32.3516,169.0825 31.6667,170.1492 Q30.9819,171.2158 30.9819,173.3159 Q30.9819,175.4077 31.6667,176.4744 Q32.3516,177.541 33.6963,177.541 Q34.3271,177.541 34.9207,177.2712 Q35.5142,177.0015 36.145,176.4204 Z " fill="#000000"/><text x="50.2656" y="176.8889" fill="#000000" font-size="14" lengthAdjust="spacing" textLength="27.2125" font-family="sans-serif">foo2</text><line x1="8" y1="189" x2="91.15" y2="189" style="stroke:#181818;stroke-width:0.5;"/><line x1="8" y1="197" x2="91.15" y2="197" style="stroke:#181818;stroke-width:0.5;"/><text x="13" y="211.8889" fill="#000000" font-size="14" lengthAdjust="spacing" textLength="27.2125" font-family="sans-serif">init()</text><text x="13" y="225.8889" fill="#000000" font-size="14" lengthAdjust="spacing" textLength="57.4875" font-family="sans-serif">toString()</text><text x="13" y="239.8889" fill="#000000" font-size="14" lengthAdjust="spacing" textLength="73.15" font-family="sans-serif">hashCode()</text></g><!--link foo1 to foo2--><g class="link" data-entity-1="ent0001" data-entity-2="ent0002" id="lnk3" data-source-line="3" data-link-type="dependency"><path d="M49.58,97.4 C49.58,116.14 49.58,132.9 49.58,151.63" style="stroke:#181818;stroke-width:1;" fill="none" id="foo1-to-foo2" codeLine="3"/><polygon points="49.58,156.63,53.58,147.63,49.58,151.63,45.58,147.63,49.58,156.63" fill="#181818" style="stroke:#181818;stroke-width:1;stroke-linejoin:miter;stroke-miterlimit:10;"/></g><?plantuml-src NO_12i8m343l_Ofq56nXExWFyE8d25wbj74hk6OqtKdyTsiTCdVBUmaFSf1pmZcHGsPArrx82dv921CFMZ4joM4BoYFd46qE58rODNJTwMyZ94R_AuXjBSIGR-vXcRMATa8ZAa05U0ge5zgK8TCbfn272gFbyKmU2xps-KspkHCT6xDNVL6VFxxh5bRt1W00?></g></svg>