<svg xmlns="http://www.w3.org/2000/svg" xmlns:xlink="http://www.w3.org/1999/xlink" version="1.1" data-diagram-type="DESCRIPTION" style="width:172px;height:226px;background:#FFFFFF;" width="172px" height="226px" viewBox="0 0 172 226" zoomAndPan="magnify" preserveAspectRatio="none" contentStyleType="text/css"><?plantuml $version$?><defs/><g><!--entity a--><g class="entity" data-qualified-name="a" id="ent0001" data-source-line="1"><ellipse cx="19" cy="14" rx="8" ry="8" fill="#F1F1F1" style="stroke:#181818;stroke-width:0.5;"/><path d="M19,22 L19,49 M6,30 L32,30 M19,49 L6,64 M19,49 L32,64" style="stroke:#181818;stroke-width:0.5;" fill="none"/><text x="15.1063" y="76.3889" fill="#000000" font-size="14" lengthAdjust="spacing" textLength="7.7875" font-family="sans-serif">a</text></g><!--entity b--><g class="entity" data-qualified-name="b" id="ent0002" data-source-line="2"><ellipse cx="81" cy="14" rx="8" ry="8" fill="#F1F1F1" style="stroke:#181818;stroke-width:0.5;"/><path d="M81,22 L81,49 M68,30 L94,30 M81,49 L68,64 M81,49 L94,64" style="stroke:#181818;stroke-width:0.5;" fill="none"/><text x="77.1063" y="76.3889" fill="#000000" font-size="14" lengthAdjust="spacing" textLength="7.7875" font-family="sans-serif">b</text></g><!--entity c--><g class="entity" data-qualified-name="c" id="ent0003" data-source-line="3"><ellipse cx="19" cy="148" rx="8" ry="8" fill="#F1F1F1" style="stroke:#181818;stroke-width:0.5;"/><path d="M19,156 L19,183 M6,164 L32,164 M19,183 L6,198 M19,183 L32,198" style="stroke:#181818;stroke-width:0.5;" fill="none"/><text x="15.5" y="210.3889" fill="#000000" font-size="14" lengthAdjust="spacing" textLength="7" font-family="sans-serif">c</text></g><!--entity m--><g class="entity" data-qualified-name="m" id="ent0004" data-source-line="5"><ellipse cx="143" cy="14" rx="8" ry="8" fill="#F1F1F1" style="stroke:#181818;stroke-width:0.5;"/><path d="M143,22 L143,49 M130,30 L156,30 M143,49 L130,64 M143,49 L156,64" style="stroke:#181818;stroke-width:0.5;" fill="none"/><text x="137.1813" y="76.3889" fill="#000000" font-size="14" lengthAdjust="spacing" textLength="11.6375" font-family="sans-serif">m</text></g><!--entity do--><g class="entity" data-qualified-name="do" id="ent0005" data-source-line="5"><ellipse cx="143.0036" cy="176.5009" rx="14.7136" ry="12.3709" fill="#F1F1F1" style="stroke:#181818;stroke-width:0.5;"/><text x="135.2161" y="180.0009" fill="#000000" font-size="14" lengthAdjust="spacing" textLength="15.575" font-family="sans-serif">do</text></g><!--link m to do--><g class="link" data-entity-1="ent0004" data-entity-2="ent0005" id="lnk6" data-source-line="5" data-link-type="dependency"><path d="M143,79.92 C143,108 143,140.09 143,158.74" style="stroke:#181818;stroke-width:1;" fill="none" id="m-to-do"/><polygon points="143,163.74,147,154.74,143,158.74,139,154.74,143,163.74" fill="#181818" style="stroke:#181818;stroke-width:1;stroke-linejoin:miter;stroke-miterlimit:10;"/></g><?plantuml-src IqmkoIzIIEHA1DD9K3gPYojNLzTE8oLVauihBxMy834zbGigLyLL1PAggj840000?></g></svg>