<svg xmlns="http://www.w3.org/2000/svg" xmlns:xlink="http://www.w3.org/1999/xlink" version="1.1" data-diagram-type="CLASS" style="width:247px;height:75px;background:#FFFFFF;" width="247px" height="75px" viewBox="0 0 247 75" zoomAndPan="magnify" preserveAspectRatio="none" contentStyleType="text/css"><?plantuml $version$?><defs><filter id="f4f7611cfp3" x="-1" y="-1" width="300%" height="300%"><feGaussianBlur result="blurOut" stdDeviation="2"/><feColorMatrix type="matrix" in="blurOut" result="blurOut2" values="0 0 0 0 0 0 0 0 0 0 0 0 0 0 0 0 0 0 .4 0"/><feOffset result="blurOut3" in="blurOut2" dx="4" dy="4"/><feBlend in="SourceGraphic" in2="blurOut3" mode="normal"/></filter></defs><g><!--class CMlFdwyKD--><g class="entity" data-qualified-name="CMlFdwyKD" id="ent0001" data-source-line="2"><rect x="7" y="7" width="111.8369" height="48" fill="#F1F1F1" style="stroke:#181818;stroke-width:0.5;" filter="url(#f4f7611cfp3)" rx="2.5" ry="2.5"/><ellipse cx="22" cy="23" rx="11" ry="11" fill="#ADD1B2" style="stroke:#181818;stroke-width:1;"/><path d="M24.4731,29.1431 Q23.8921,29.4419 23.2529,29.5913 Q22.6138,29.7407 21.9082,29.7407 Q19.4014,29.7407 18.0815,28.0889 Q16.7617,26.437 16.7617,23.3159 Q16.7617,20.1865 18.0815,18.5347 Q19.4014,16.8828 21.9082,16.8828 Q22.6138,16.8828 23.2612,17.0322 Q23.9087,17.1816 24.4731,17.4805 L24.4731,20.2031 Q23.8423,19.6221 23.2488,19.3523 Q22.6553,19.0825 22.0244,19.0825 Q20.6797,19.0825 19.9949,20.1492 Q19.3101,21.2158 19.3101,23.3159 Q19.3101,25.4077 19.9949,26.4744 Q20.6797,27.541 22.0244,27.541 Q22.6553,27.541 23.2488,27.2712 Q23.8423,27.0015 24.4731,26.4204 Z " fill="#000000"/><text x="36" y="28.291" fill="#000000" font-size="14" lengthAdjust="spacing" textLength="79.8369" font-family="sans-serif">CMlFdwyKD</text><line x1="8" y1="39" x2="117.8369" y2="39" style="stroke:#181818;stroke-width:0.5;"/><line x1="8" y1="47" x2="117.8369" y2="47" style="stroke:#181818;stroke-width:0.5;"/></g><!--class CQWK--><g class="entity" data-qualified-name="CQWK" id="ent0002" data-source-line="4"><rect x="154.08" y="7" width="73.6787" height="48" fill="#F1F1F1" style="stroke:#181818;stroke-width:0.5;" filter="url(#f4f7611cfp3)" rx="2.5" ry="2.5"/><ellipse cx="169.08" cy="23" rx="11" ry="11" fill="#ADD1B2" style="stroke:#181818;stroke-width:1;"/><path d="M171.5531,29.1431 Q170.9721,29.4419 170.3329,29.5913 Q169.6938,29.7407 168.9882,29.7407 Q166.4814,29.7407 165.1615,28.0889 Q163.8417,26.437 163.8417,23.3159 Q163.8417,20.1865 165.1615,18.5347 Q166.4814,16.8828 168.9882,16.8828 Q169.6938,16.8828 170.3412,17.0322 Q170.9887,17.1816 171.5531,17.4805 L171.5531,20.2031 Q170.9223,19.6221 170.3288,19.3523 Q169.7353,19.0825 169.1044,19.0825 Q167.7597,19.0825 167.0749,20.1492 Q166.3901,21.2158 166.3901,23.3159 Q166.3901,25.4077 167.0749,26.4744 Q167.7597,27.541 169.1044,27.541 Q169.7353,27.541 170.3288,27.2712 Q170.9223,27.0015 171.5531,26.4204 Z " fill="#000000"/><text x="183.08" y="28.291" fill="#000000" font-size="14" lengthAdjust="spacing" textLength="41.6787" font-family="sans-serif">CQWK</text><line x1="155.08" y1="39" x2="226.7587" y2="39" style="stroke:#181818;stroke-width:0.5;"/><line x1="155.08" y1="47" x2="226.7587" y2="47" style="stroke:#181818;stroke-width:0.5;"/></g><?plantuml-src AyxEp2j8B4hCLIZEI4p9By_CIrSeAIfDvKhEIImkLd3spN5BAQ_qTb6evgg5YGM6UuEu0000?></g></svg>