<svg xmlns="http://www.w3.org/2000/svg" xmlns:xlink="http://www.w3.org/1999/xlink" version="1.1" data-diagram-type="CLASS" style="width:84px;height:93px;background:#FFFFFF;" width="84px" height="93px" viewBox="0 0 84 93" zoomAndPan="magnify" preserveAspectRatio="none" contentStyleType="text/css"><?plantuml $version$?><defs/><g><g class="header" data-source-line="18"><rect x="0" y="0" width="77.8125" height="10" fill="#D3D3D3" style="stroke:none;stroke-width:1;"/><text x="0" y="7.7778" fill="#FF0000" font-size="10" lengthAdjust="spacing" textLength="77.8125" font-family="sans-serif">some page header</text></g><!--class Foo--><g class="entity" data-qualified-name="Foo" id="ent0001" data-source-line="20"><rect x="10.4813" y="18" width="57.85" height="62" fill="#FFFF00" style="stroke:#181818;stroke-width:0.5;" rx="2.5" ry="2.5"/><ellipse cx="26.2463" cy="34" rx="11" ry="11" fill="#ADD1B2" style="stroke:#181818;stroke-width:1;"/><path d="M28.7194,40.1431 Q28.1383,40.4419 27.4992,40.5913 Q26.86,40.7407 26.1545,40.7407 Q23.6476,40.7407 22.3278,39.0889 Q21.008,37.437 21.008,34.3159 Q21.008,31.1865 22.3278,29.5347 Q23.6476,27.8828 26.1545,27.8828 Q26.86,27.8828 27.5075,28.0322 Q28.1549,28.1816 28.7194,28.4805 L28.7194,31.2031 Q28.0885,30.6221 27.495,30.3523 Q26.9015,30.0825 26.2707,30.0825 Q24.9259,30.0825 24.2411,31.1492 Q23.5563,32.2158 23.5563,34.3159 Q23.5563,36.4077 24.2411,37.4744 Q24.9259,38.541 26.2707,38.541 Q26.9015,38.541 27.495,38.2712 Q28.0885,38.0015 28.7194,37.4204 Z " fill="#000000"/><text x="40.4163" y="37.8889" fill="#0000FF" font-size="14" lengthAdjust="spacing" textLength="24.15" font-family="sans-serif">Foo</text><line x1="11.4813" y1="50" x2="67.3313" y2="50" style="stroke:#181818;stroke-width:0.5;"/><text x="16.4813" y="64.8889" fill="#0000FF" font-size="14" lengthAdjust="spacing" textLength="45.85" font-family="sans-serif">dummy</text><line x1="11.4813" y1="72" x2="67.3313" y2="72" style="stroke:#181818;stroke-width:0.5;"/></g><?plantuml-src NOvB3i8m34JNzIby0ovGiG04vp29bLOuCSf7A4AzEo7D0h6nHcFxpSmfL-4ZM3N5SyZu1iI5oNBi4l6g8PzLD69a2zE9pCD5BS7kfgnkoRT8jHrliBK9HYYboqekak-GRZGr_TBkKlZh_0ChY-YhBGPmFeoAC6ebzOnFSZnwmXxOqDhJRF6-jiSF?></g></svg>