<svg xmlns="http://www.w3.org/2000/svg" xmlns:xlink="http://www.w3.org/1999/xlink" version="1.1" data-diagram-type="STATE" style="width:216px;height:232px;background:#FFFFFF;" width="216px" height="232px" viewBox="0 0 216 232" zoomAndPan="magnify" preserveAspectRatio="none" contentStyleType="text/css"><?plantuml $version$?><defs/><g><g class="entity" data-qualified-name="State1" id="ent0001" data-source-line="9"><rect x="7" y="86" width="98.6625" height="50" fill="#F1F1F1" style="stroke:#181818;stroke-width:0.5;" rx="12.5" ry="12.5"/><line x1="7" y1="110" x2="105.6625" y2="110" style="stroke:#181818;stroke-width:0.5;"/><text x="36.1188" y="101.8889" fill="#000000" font-size="14" lengthAdjust="spacing" textLength="40.425" font-family="sans-serif">State1</text><text x="12" y="125.8889" fill="#000000" font-size="14" lengthAdjust="spacing" textLength="78.6625" font-family="sans-serif">This is a string</text></g><g class="start_entity" data-qualified-name=".start." id="ent0002" data-source-line="2"><ellipse cx="56.33" cy="16" rx="10" ry="10" fill="#222222" style="stroke:#222222;stroke-width:1;"/></g><g class="end_entity" data-qualified-name=".end." id="ent0004" data-source-line="4"><ellipse cx="113.33" cy="207" rx="11" ry="11" fill="none" style="stroke:#222222;stroke-width:1;"/><ellipse cx="113.33" cy="207" rx="6" ry="6" fill="#222222" style="stroke:#222222;stroke-width:1;"/></g><g class="entity" data-qualified-name="State2" id="ent0006" data-source-line="6"><rect x="141.12" y="86" width="60.425" height="50" fill="#F1F1F1" style="stroke:#181818;stroke-width:0.5;" rx="12.5" ry="12.5"/><line x1="141.12" y1="110" x2="201.545" y2="110" style="stroke:#181818;stroke-width:0.5;"/><text x="151.12" y="101.8889" fill="#000000" font-size="14" lengthAdjust="spacing" textLength="40.425" font-family="sans-serif">State2</text></g><!--link *start* to State1--><g class="link" data-entity-1="ent0002" data-entity-2="ent0001" id="lnk3" data-source-line="2" data-link-type="dependency"><path d="M56.33,26.26 C56.33,39.95 56.33,61.07 56.33,80.52" style="stroke:#181818;stroke-width:1;" fill="none" id="*start*-to-State1"/><polygon points="56.33,85.52,60.33,76.52,56.33,80.52,52.33,76.52,56.33,85.52" fill="#181818" style="stroke:#181818;stroke-width:1;stroke-linejoin:miter;stroke-miterlimit:10;"/></g><!--link State1 to *end*--><g class="link" data-entity-1="ent0001" data-entity-2="ent0004" id="lnk5" data-source-line="4" data-link-type="dependency"><path d="M71.01,136.21 C83.15,156.23 97.1075,179.2446 105.4575,193.0146" style="stroke:#181818;stroke-width:1;" fill="none" id="State1-to-*end*"/><polygon points="108.05,197.29,106.8037,187.5203,105.4575,193.0146,99.9631,191.6684,108.05,197.29" fill="#181818" style="stroke:#181818;stroke-width:1;stroke-linejoin:miter;stroke-miterlimit:10;"/></g><!--link State1 to State2--><g class="link" data-entity-1="ent0001" data-entity-2="ent0006" id="lnk7" data-source-line="6" data-link-type="dependency"><path d="M105.75,111 C117.44,111 124.14,111 135.84,111" style="stroke:#181818;stroke-width:1;" fill="none" id="State1-to-State2"/><polygon points="140.84,111,131.84,107,135.84,111,131.84,115,140.84,111" fill="#181818" style="stroke:#181818;stroke-width:1;stroke-linejoin:miter;stroke-miterlimit:10;"/></g><!--link State2 to *end*--><g class="link" data-entity-1="ent0006" data-entity-2="ent0004" id="lnk8" data-source-line="8" data-link-type="dependency"><path d="M156.39,136.21 C144.04,156.23 129.8263,179.2653 121.3263,193.0353" style="stroke:#181818;stroke-width:1;" fill="none" id="State2-to-*end*"/><polygon points="118.7,197.29,126.8312,191.7327,121.3263,193.0353,120.0237,187.5305,118.7,197.29" fill="#181818" style="stroke:#181818;stroke-width:1;stroke-linejoin:miter;stroke-miterlimit:10;"/></g><?plantuml-src YzQALT3LjLC8BaaiIJNaueBGOA5ehLW47wh222fY15S1LM2b49AHMQm0H8aAnIL5cNdf0000?></g></svg>