<svg xmlns="http://www.w3.org/2000/svg" xmlns:xlink="http://www.w3.org/1999/xlink" version="1.1" data-diagram-type="STATE" style="width:415px;height:181px;background:#FFFFFF;" width="415px" height="181px" viewBox="0 0 415 181" zoomAndPan="magnify" preserveAspectRatio="none" contentStyleType="text/css"><?plantuml $version$?><defs/><g><g class="entity" data-qualified-name="foo" id="ent0001" data-source-line="1"><rect x="7" y="7" width="50" height="50" fill="#F1F1F1" style="stroke:#181818;stroke-width:0.5;" rx="12.5" ry="12.5"/><line x1="7" y1="31" x2="57" y2="31" style="stroke:#181818;stroke-width:0.5;"/><text x="22.2875" y="22.8889" fill="#000000" font-size="14" lengthAdjust="spacing" textLength="19.425" font-family="sans-serif">foo</text></g><g class="entity" data-qualified-name="foo2" id="ent0002" data-source-line="2"><rect x="7" y="117" width="50" height="50" fill="#F1F1F1" style="stroke:#181818;stroke-width:0.5;" rx="12.5" ry="12.5"/><line x1="7" y1="141" x2="57" y2="141" style="stroke:#181818;stroke-width:0.5;"/><text x="18.3937" y="132.8889" fill="#000000" font-size="14" lengthAdjust="spacing" textLength="27.2125" font-family="sans-serif">foo2</text></g><g class="entity" data-qualified-name="N1" id="ent0003" data-source-line="3"><path d="M91.65,20.5 L91.65,43.5 L228.35,43.5 L228.35,30.5 L218.35,20.5 L91.65,20.5" style="stroke:#181818;stroke-width:0.5;" fill="#FEFFDD"/><path d="M218.35,20.5 L218.35,30.5 L228.35,30.5 L218.35,20.5" style="stroke:#181818;stroke-width:1;" fill="#FEFFDD"/><text x="97.65" y="35.6111" fill="#000000" font-size="13" lengthAdjust="spacing" textLength="115.7" font-family="sans-serif">This is a floating note1</text></g><g class="entity" data-qualified-name="N2" id="ent0004" data-source-line="5"><path d="M263.65,20.5 L263.65,43.5 L400.35,43.5 L400.35,30.5 L390.35,20.5 L263.65,20.5" style="stroke:#181818;stroke-width:0.5;" fill="#FEFFDD"/><path d="M390.35,20.5 L390.35,30.5 L400.35,30.5 L390.35,20.5" style="stroke:#181818;stroke-width:1;" fill="#FEFFDD"/><text x="269.65" y="35.6111" fill="#000000" font-size="13" lengthAdjust="spacing" textLength="115.7" font-family="sans-serif">This is a floating note2</text></g><!--link foo to foo2--><g class="link" data-entity-1="ent0001" data-entity-2="ent0002" id="lnk5" data-source-line="4" data-link-type="dependency"><path d="M32,57.24 C32,75.02 32,94.08 32,111.84" style="stroke:#181818;stroke-width:1;" fill="none" id="foo-to-foo2"/><polygon points="32,116.84,36,107.84,32,111.84,28,107.84,32,116.84" fill="#181818" style="stroke:#181818;stroke-width:1;stroke-linejoin:miter;stroke-miterlimit:10;"/></g><?plantuml-src Aov9B4bLIClFvog6iOouylA1BAMGZCnY1I1AL4ZBoKyioSnBLm1962ef91Oh-1bo0PKgwEhQ4Q752AB52000?></g></svg>