<svg xmlns="http://www.w3.org/2000/svg" xmlns:xlink="http://www.w3.org/1999/xlink" version="1.1" data-diagram-type="STATE" style="width:180px;height:283px;background:#FFFFFF;" width="180px" height="283px" viewBox="0 0 180 283" zoomAndPan="magnify" preserveAspectRatio="none" contentStyleType="text/css"><?plantuml $version$?><defs/><g><g class="entity" data-qualified-name="one" id="ent0001" data-source-line="1"><path d="M19.5,7 L152.5,7 A12.5,12.5 0 0 1 165,19.5 L165,31 L7,31 L7,19.5 A12.5,12.5 0 0 1 19.5,7" fill="#F1F1F1"/><rect x="7" y="7" width="158" height="262" fill="none" style="stroke:#181818;stroke-width:0.5;" rx="12.5" ry="12.5"/><line x1="7" y1="31" x2="165" y2="31" style="stroke:#181818;stroke-width:0.5;"/><text x="74.3188" y="22.8889" fill="#000000" font-size="14" lengthAdjust="spacing" textLength="23.3625" font-family="sans-serif">one</text><g class="entity" data-qualified-name="one.two" id="ent0002" data-source-line="2"><path d="M31.5,43 L128.5,43 A12.5,12.5 0 0 1 141,55.5 L141,67 L19,67 L19,55.5 A12.5,12.5 0 0 1 31.5,43" fill="#F1F1F1"/><rect x="19" y="43" width="122" height="148" fill="none" style="stroke:#181818;stroke-width:0.5;" rx="12.5" ry="12.5"/><line x1="19" y1="67" x2="141" y2="67" style="stroke:#181818;stroke-width:0.5;"/><text x="69.1063" y="58.8889" fill="#000000" font-size="14" lengthAdjust="spacing" textLength="21.7875" font-family="sans-serif">two</text><g class="entity" data-qualified-name="one.two.three" id="ent0003" data-source-line="3"><path d="M43.5,79 L104.5,79 A12.5,12.5 0 0 1 117,91.5 L117,103 L31,103 L31,91.5 A12.5,12.5 0 0 1 43.5,79" fill="#F1F1F1"/><rect x="31" y="79" width="86" height="99" fill="none" style="stroke:#181818;stroke-width:0.5;" rx="12.5" ry="12.5"/><line x1="31" y1="103" x2="117" y2="103" style="stroke:#181818;stroke-width:0.5;"/><text x="58.075" y="94.8889" fill="#000000" font-size="14" lengthAdjust="spacing" textLength="31.85" font-family="sans-serif">three</text><g class="entity" data-qualified-name="one.two.three.four" id="ent0004" data-source-line="4"><rect x="43" y="115" width="50" height="50" fill="#F1F1F1" style="stroke:#181818;stroke-width:0.5;" rx="12.5" ry="12.5"/><line x1="43" y1="139" x2="93" y2="139" style="stroke:#181818;stroke-width:0.5;"/><text x="55.9688" y="130.8889" fill="#000000" font-size="14" lengthAdjust="spacing" textLength="24.0625" font-family="sans-serif">four</text></g></g></g><line x1="12" y1="199" x2="158" y2="199" style="stroke:#181818;stroke-width:1.5;stroke-dasharray:8,10;"/><g class="entity" data-qualified-name="one.CONC1.five" id="ent0006" data-source-line="8"><rect x="19" y="206" width="50" height="50" fill="#F1F1F1" style="stroke:#181818;stroke-width:0.5;" rx="12.5" ry="12.5"/><line x1="19" y1="230" x2="69" y2="230" style="stroke:#181818;stroke-width:0.5;"/><text x="33.1063" y="221.8889" fill="#000000" font-size="14" lengthAdjust="spacing" textLength="21.7875" font-family="sans-serif">five</text></g></g><?plantuml-src Aov9B4bLoCzBLQZcKW22OZ2_f3mVoaSIooXAJKKIHSYavPSMmOLhkH2ahYwIcMcPPQbSjG00?></g></svg>