<svg xmlns="http://www.w3.org/2000/svg" xmlns:xlink="http://www.w3.org/1999/xlink" version="1.1" data-diagram-type="CLASS" style="width:184px;height:153px;background:#FFFFFF;" width="184px" height="153px" viewBox="0 0 184 153" zoomAndPan="magnify" preserveAspectRatio="none" contentStyleType="text/css"><?plantuml $version$?><defs/><g><!--class Test--><g class="entity" data-qualified-name="Test" id="ent0001" data-source-line="2"><rect x="58.35" y="7" width="59.2125" height="48" fill="#F1F1F1" style="stroke:#181818;stroke-width:0.5;" rx="2.5" ry="2.5"/><ellipse cx="73.35" cy="23" rx="11" ry="11" fill="#ADD1B2" style="stroke:#181818;stroke-width:1;"/><path d="M75.8231,29.1431 Q75.2421,29.4419 74.6029,29.5913 Q73.9638,29.7407 73.2582,29.7407 Q70.7514,29.7407 69.4315,28.0889 Q68.1117,26.437 68.1117,23.3159 Q68.1117,20.1865 69.4315,18.5347 Q70.7514,16.8828 73.2582,16.8828 Q73.9638,16.8828 74.6112,17.0322 Q75.2587,17.1816 75.8231,17.4805 L75.8231,20.2031 Q75.1923,19.6221 74.5988,19.3523 Q74.0053,19.0825 73.3744,19.0825 Q72.0297,19.0825 71.3449,20.1492 Q70.6601,21.2158 70.6601,23.3159 Q70.6601,25.4077 71.3449,26.4744 Q72.0297,27.541 73.3744,27.541 Q74.0053,27.541 74.5988,27.2712 Q75.1923,27.0015 75.8231,26.4204 Z " fill="#000000"/><text x="87.35" y="26.8889" fill="#000000" font-size="14" lengthAdjust="spacing" textLength="27.2125" font-family="sans-serif">Test</text><line x1="59.35" y1="39" x2="116.5625" y2="39" style="stroke:#181818;stroke-width:0.5;"/><line x1="59.35" y1="47" x2="116.5625" y2="47" style="stroke:#181818;stroke-width:0.5;"/></g><g class="entity" data-qualified-name="TestNote" id="ent0002" data-source-line="5"><path d="M6,115 L6,138 A0,0 0 0 0 6,138 L169.9188,138 A0,0 0 0 0 169.9188,138 L169.9188,125 L159.9188,115 L91.96,115 L87.96,55.11 L83.96,115 L6,115 A0,0 0 0 0 6,115" style="stroke:#181818;stroke-width:0.5;" fill="#FEFFDD"/><path d="M159.9188,115 L159.9188,125 L169.9188,125 L159.9188,115" style="stroke:#181818;stroke-width:0.5;" fill="#FEFFDD"/><text x="12" y="130.1111" fill="#000000" font-size="13" lengthAdjust="spacing" textLength="142.9188" font-family="sans-serif">PayIn (Coins), GiftCard(?)</text></g><?plantuml-src Iyv9B2vM24ajBb6evghbuihBBqbLK0f8hFJCKz1mpi_CAzRKKN3FJ2jnJYnAqR3NL598X2Zt0oha0klJquCB0000?></g></svg>