<svg xmlns="http://www.w3.org/2000/svg" xmlns:xlink="http://www.w3.org/1999/xlink" version="1.1" data-diagram-type="CLASS" style="width:139px;height:54px;background:#FFFFFF;" width="139px" height="54px" viewBox="0 0 139 54" zoomAndPan="magnify" preserveAspectRatio="none" contentStyleType="text/css"><?plantuml $version$?><defs/><g><!--class X--><g class="entity" data-qualified-name="X" id="ent0001" data-source-line="1"><rect x="7" y="7" width="41.3625" height="32" fill="#F1F1F1" style="stroke:#181818;stroke-width:0.5;" rx="2.5" ry="2.5"/><ellipse cx="22" cy="23" rx="11" ry="11" fill="#ADD1B2" style="stroke:#181818;stroke-width:1;"/><path d="M24.4731,29.1431 Q23.8921,29.4419 23.2529,29.5913 Q22.6138,29.7407 21.9082,29.7407 Q19.4014,29.7407 18.0815,28.0889 Q16.7617,26.437 16.7617,23.3159 Q16.7617,20.1865 18.0815,18.5347 Q19.4014,16.8828 21.9082,16.8828 Q22.6138,16.8828 23.2612,17.0322 Q23.9087,17.1816 24.4731,17.4805 L24.4731,20.2031 Q23.8423,19.6221 23.2488,19.3523 Q22.6553,19.0825 22.0244,19.0825 Q20.6797,19.0825 19.9949,20.1492 Q19.3101,21.2158 19.3101,23.3159 Q19.3101,25.4077 19.9949,26.4744 Q20.6797,27.541 22.0244,27.541 Q22.6553,27.541 23.2488,27.2712 Q23.8423,27.0015 24.4731,26.4204 Z " fill="#000000"/><text x="36" y="26.8889" fill="#000000" font-size="14" lengthAdjust="spacing" textLength="9.3625" font-family="sans-serif">X</text></g><!--class Y--><g class="entity" data-qualified-name="Y" id="ent0002" data-source-line="8"><rect x="83" y="7" width="41.3625" height="32" fill="#F1F1F1" style="stroke:#181818;stroke-width:0.5;" rx="2.5" ry="2.5"/><ellipse cx="98" cy="23" rx="11" ry="11" fill="#ADD1B2" style="stroke:#181818;stroke-width:1;"/><path d="M100.4731,29.1431 Q99.8921,29.4419 99.2529,29.5913 Q98.6138,29.7407 97.9082,29.7407 Q95.4014,29.7407 94.0815,28.0889 Q92.7617,26.437 92.7617,23.3159 Q92.7617,20.1865 94.0815,18.5347 Q95.4014,16.8828 97.9082,16.8828 Q98.6138,16.8828 99.2612,17.0322 Q99.9087,17.1816 100.4731,17.4805 L100.4731,20.2031 Q99.8423,19.6221 99.2488,19.3523 Q98.6553,19.0825 98.0244,19.0825 Q96.6797,19.0825 95.9949,20.1492 Q95.3101,21.2158 95.3101,23.3159 Q95.3101,25.4077 95.9949,26.4744 Q96.6797,27.541 98.0244,27.541 Q98.6553,27.541 99.2488,27.2712 Q99.8423,27.0015 100.4731,26.4204 Z " fill="#000000"/><text x="112" y="26.8889" fill="#000000" font-size="14" lengthAdjust="spacing" textLength="9.3625" font-family="sans-serif">Y</text></g><?plantuml-src Iyv9B2vMY52evb9Gq5PmpKlHq5ImKiZCAm7oTHMSyqlpIk3y-7W5tzJYuiJqr68W6oZWc9S7L92SYg8DgWJ83IufoinBvwhbIWPR4acK9UfasvAHcP8Az4bkQcvIQb4nX1i9um80?></g></svg>