<svg xmlns="http://www.w3.org/2000/svg" xmlns:xlink="http://www.w3.org/1999/xlink" version="1.1" data-diagram-type="CLASS" style="width:78px;height:66px;background:#FFFFFF;" width="78px" height="66px" viewBox="0 0 78 66" zoomAndPan="magnify" preserveAspectRatio="none" contentStyleType="text/css"><?plantuml $version$?><defs/><g><!--class Toto--><g class="entity" data-qualified-name="Toto" id="ent0001" data-source-line="2"><rect x="7" y="7" width="58" height="46" fill="#F1F1F1" style="stroke:#181818;stroke-width:0.5;" rx="2.5" ry="2.5"/><ellipse cx="21" cy="22" rx="10" ry="10" fill="#ADD1B2" style="stroke:#181818;stroke-width:1;"/><path d="M22.8896,26.9561 Q22.4111,27.2021 21.8848,27.3252 Q21.3584,27.4482 20.7773,27.4482 Q18.7129,27.4482 17.626,26.0879 Q16.5391,24.7275 16.5391,22.1572 Q16.5391,19.5801 17.626,18.2197 Q18.7129,16.8594 20.7773,16.8594 Q21.3584,16.8594 21.8916,16.9824 Q22.4248,17.1055 22.8896,17.3516 L22.8896,19.5938 Q22.3701,19.1152 21.8813,18.8931 Q21.3926,18.6709 20.873,18.6709 Q19.7656,18.6709 19.2017,19.5493 Q18.6377,20.4277 18.6377,22.1572 Q18.6377,23.8799 19.2017,24.7583 Q19.7656,25.6367 20.873,25.6367 Q21.3926,25.6367 21.8813,25.4146 Q22.3701,25.1924 22.8896,24.7139 Z " fill="#000000"/><text x="34" y="25.8889" fill="#000000" font-size="14" lengthAdjust="spacing" textLength="28" font-family="sans-serif">Toto</text><line x1="8" y1="37" x2="64" y2="37" style="stroke:#181818;stroke-width:0.5;"/><line x1="8" y1="45" x2="64" y2="45" style="stroke:#181818;stroke-width:0.5;"/></g><?plantuml-src AyxEp2j8B4hCLN3EB4hEIKrnpW3oaajIYzpoyqg2CwjI5GnDk99p4ekB5KBoI_81?></g></svg>