<svg xmlns="http://www.w3.org/2000/svg" xmlns:xlink="http://www.w3.org/1999/xlink" version="1.1" data-diagram-type="CLASS" style="width:248px;height:76px;background:#FFFFFF;" width="248px" height="76px" viewBox="0 0 248 76" zoomAndPan="magnify" preserveAspectRatio="none" contentStyleType="text/css"><?plantuml $version$?><defs/><g><g class="entity" data-qualified-name="Obj" id="ent0001" data-source-line="1"><rect x="7" y="7" width="90.05" height="54" fill="#F1F1F1" style="stroke:#181818;stroke-width:0.5;" rx="2.5" ry="2.5"/><text x="41.1312" y="19.8889" fill="#000000" font-size="14" lengthAdjust="spacing" textLength="21.7875" font-family="sans-serif">Obj</text><line x1="8" y1="25" x2="96.05" y2="25" style="stroke:#181818;stroke-width:0.5;"/><text x="13" y="39.8889" fill="#000000" font-size="14" lengthAdjust="spacing" textLength="37.625" font-family="sans-serif">Id = "1"</text><text x="13" y="53.8889" fill="#000000" font-size="14" lengthAdjust="spacing" textLength="78.05" font-family="sans-serif">Name = "test"</text></g><path d="M132.43,17.5 L132.43,25 L91.05,50 L132.43,33 L132.43,40.5 A0,0 0 0 0 132.43,40.5 L233.6238,40.5 A0,0 0 0 0 233.6238,40.5 L233.6238,27.5 L223.6238,17.5 L132.43,17.5 A0,0 0 0 0 132.43,17.5" style="stroke:#181818;stroke-width:0.5;" fill="#FEFFDD"/><path d="M223.6238,17.5 L223.6238,27.5 L233.6238,27.5 L223.6238,17.5" style="stroke:#181818;stroke-width:0.5;" fill="#FEFFDD"/><text x="138.43" y="32.6111" fill="#000000" font-size="13" lengthAdjust="spacing" textLength="80.1938" font-family="sans-serif">Name of object</text><?plantuml-src oq_AIaqkKV1FobAevb9Gy4nHi5LGCbG2ClqISrD1d9BKuX8bhbekhhpyabI5eipqZ1A5_3IG3Yiha1gOKg1OFjWmhjIy50MGOW00?></g></svg>