<svg xmlns="http://www.w3.org/2000/svg" xmlns:xlink="http://www.w3.org/1999/xlink" version="1.1" data-diagram-type="CLASS" style="width:184px;height:192px;background:#FFFFFF;" width="184px" height="192px" viewBox="0 0 184 192" zoomAndPan="magnify" preserveAspectRatio="none" contentStyleType="text/css"><?plantuml $version$?><defs/><g><!--class A--><g class="entity" data-qualified-name="A" id="ent0001" data-source-line="4"><rect x="15.0349" y="7" width="41.3625" height="62" fill="#F1F1F1" style="stroke:#181818;stroke-width:0.5;" rx="2.5" ry="2.5"/><ellipse cx="30.0349" cy="23" rx="11" ry="11" fill="#ADD1B2" style="stroke:#181818;stroke-width:1;"/><path d="M32.508,29.1431 Q31.927,29.4419 31.2878,29.5913 Q30.6487,29.7407 29.9431,29.7407 Q27.4363,29.7407 26.1164,28.0889 Q24.7966,26.437 24.7966,23.3159 Q24.7966,20.1865 26.1164,18.5347 Q27.4363,16.8828 29.9431,16.8828 Q30.6487,16.8828 31.2961,17.0322 Q31.9436,17.1816 32.508,17.4805 L32.508,20.2031 Q31.8772,19.6221 31.2837,19.3523 Q30.6902,19.0825 30.0593,19.0825 Q28.7146,19.0825 28.0298,20.1492 Q27.3449,21.2158 27.3449,23.3159 Q27.3449,25.4077 28.0298,26.4744 Q28.7146,27.541 30.0593,27.541 Q30.6902,27.541 31.2837,27.2712 Q31.8772,27.0015 32.508,26.4204 Z " fill="#000000"/><text x="44.0349" y="26.8889" fill="#000000" font-size="14" lengthAdjust="spacing" textLength="9.3625" font-family="sans-serif">A</text><line x1="16.0349" y1="39" x2="55.3974" y2="39" style="stroke:#181818;stroke-width:0.5;"/><text x="21.0349" y="53.8889" fill="#000000" font-size="14" lengthAdjust="spacing" textLength="7.7875" font-family="sans-serif">a</text><line x1="16.0349" y1="61" x2="55.3974" y2="61" style="stroke:#181818;stroke-width:0.5;"/></g><path d="M91.6949,21.5 L91.6949,29 L28.8224,50 L91.6949,37 L91.6949,44.5 A0,0 0 0 0 91.6949,44.5 L169.7324,44.5 A0,0 0 0 0 169.7324,44.5 L169.7324,31.5 L159.7324,21.5 L91.6949,21.5 A0,0 0 0 0 91.6949,21.5" style="stroke:#181818;stroke-width:0.5;" fill="#FEFFDD"/><path d="M159.7324,21.5 L159.7324,31.5 L169.7324,31.5 L159.7324,21.5" style="stroke:#181818;stroke-width:0.5;" fill="#FEFFDD"/><text x="97.6949" y="36.6111" fill="#000000" font-size="13" lengthAdjust="spacing" textLength="57.0375" font-family="sans-serif">some note</text><!--class B--><g class="entity" data-qualified-name="B" id="ent0004" data-source-line="13"><rect x="15.0349" y="129" width="41.3625" height="48" fill="#F1F1F1" style="stroke:#181818;stroke-width:0.5;" rx="2.5" ry="2.5"/><ellipse cx="30.0349" cy="145" rx="11" ry="11" fill="#ADD1B2" style="stroke:#181818;stroke-width:1;"/><path d="M32.508,151.1431 Q31.927,151.4419 31.2878,151.5913 Q30.6487,151.7407 29.9431,151.7407 Q27.4363,151.7407 26.1164,150.0889 Q24.7966,148.437 24.7966,145.3159 Q24.7966,142.1865 26.1164,140.5347 Q27.4363,138.8828 29.9431,138.8828 Q30.6487,138.8828 31.2961,139.0322 Q31.9436,139.1816 32.508,139.4805 L32.508,142.2031 Q31.8772,141.6221 31.2837,141.3523 Q30.6902,141.0825 30.0593,141.0825 Q28.7146,141.0825 28.0298,142.1492 Q27.3449,143.2158 27.3449,145.3159 Q27.3449,147.4077 28.0298,148.4744 Q28.7146,149.541 30.0593,149.541 Q30.6902,149.541 31.2837,149.2712 Q31.8772,149.0015 32.508,148.4204 Z " fill="#000000"/><text x="44.0349" y="148.8889" fill="#000000" font-size="14" lengthAdjust="spacing" textLength="9.3625" font-family="sans-serif">B</text><line x1="16.0349" y1="161" x2="55.3974" y2="161" style="stroke:#181818;stroke-width:0.5;"/><line x1="16.0349" y1="169" x2="55.3974" y2="169" style="stroke:#181818;stroke-width:0.5;"/></g><!--reverse link A to B--><g class="link" data-entity-1="ent0001" data-entity-2="ent0004" id="lnk5" data-link-type="extension"><path d="M21.9639,87.1718 C19.9039,105.8718 22.1849,111.6 24.8749,128.81" style="stroke:#181818;stroke-width:1;" fill="none" id="A-backto-B"/><polygon points="23.9349,69.28,16,86.5148,27.9278,87.8288,23.9349,69.28" fill="none" style="stroke:#181818;stroke-width:1;stroke-linejoin:miter;stroke-miterlimit:10;"/></g><!--reverse link A to B--><g class="link" data-entity-1="ent0001" data-entity-2="ent0004" id="lnk6" data-link-type="extension"><path d="M49.4753,87.1707 C51.5453,105.8707 49.2449,111.6 46.5549,128.81" style="stroke:#181818;stroke-width:1;" fill="none" id="A-backto-B-1"/><polygon points="47.4949,69.28,43.5117,87.8309,55.4389,86.5106,47.4949,69.28" fill="none" style="stroke:#181818;stroke-width:1;stroke-linejoin:miter;stroke-miterlimit:10;"/></g><?plantuml-src TOmn2e0m40JxUyLszfPsslcC8vunQ2wIH10aVpSYbcwrpB3RfDNfpf4zR0p7FkeYqMLM8sY9pCOfeST5g64gH1go83gxP8GPVTTnTIbumMD8T7hBDnuWPwxqlIc__0O0?></g></svg>