<svg xmlns="http://www.w3.org/2000/svg" xmlns:xlink="http://www.w3.org/1999/xlink" version="1.1" data-diagram-type="CLASS" style="width:140px;height:70px;background:#FFFFFF;" width="140px" height="70px" viewBox="0 0 140 70" zoomAndPan="magnify" preserveAspectRatio="none" contentStyleType="text/css"><?plantuml $version$?><defs/><g><!--class A--><g class="entity" data-qualified-name="A" id="ent0001" data-source-line="1"><rect x="7" y="7" width="41.3625" height="48" fill="#F1F1F1" style="stroke:#181818;stroke-width:0.5;" rx="2.5" ry="2.5"/><ellipse cx="22" cy="23" rx="11" ry="11" fill="#ADD1B2" style="stroke:#181818;stroke-width:1;"/><path d="M24.4731,29.1431 Q23.8921,29.4419 23.2529,29.5913 Q22.6138,29.7407 21.9082,29.7407 Q19.4014,29.7407 18.0815,28.0889 Q16.7617,26.437 16.7617,23.3159 Q16.7617,20.1865 18.0815,18.5347 Q19.4014,16.8828 21.9082,16.8828 Q22.6138,16.8828 23.2612,17.0322 Q23.9087,17.1816 24.4731,17.4805 L24.4731,20.2031 Q23.8423,19.6221 23.2488,19.3523 Q22.6553,19.0825 22.0244,19.0825 Q20.6797,19.0825 19.9949,20.1492 Q19.3101,21.2158 19.3101,23.3159 Q19.3101,25.4077 19.9949,26.4744 Q20.6797,27.541 22.0244,27.541 Q22.6553,27.541 23.2488,27.2712 Q23.8423,27.0015 24.4731,26.4204 Z " fill="#000000"/><text x="36" y="26.8889" fill="#000000" font-size="14" lengthAdjust="spacing" textLength="9.3625" font-family="sans-serif">A</text><line x1="8" y1="39" x2="47.3625" y2="39" style="stroke:#181818;stroke-width:0.5;"/><line x1="8" y1="47" x2="47.3625" y2="47" style="stroke:#181818;stroke-width:0.5;"/></g><!--class C--><g class="entity" data-qualified-name="C" id="ent0002" data-source-line="3"><rect x="83.61" y="7" width="42.15" height="48" fill="#F1F1F1" style="stroke:#181818;stroke-width:0.5;" rx="2.5" ry="2.5"/><ellipse cx="98.61" cy="23" rx="11" ry="11" fill="#ADD1B2" style="stroke:#181818;stroke-width:1;"/><path d="M101.0831,29.1431 Q100.5021,29.4419 99.8629,29.5913 Q99.2238,29.7407 98.5182,29.7407 Q96.0114,29.7407 94.6915,28.0889 Q93.3717,26.437 93.3717,23.3159 Q93.3717,20.1865 94.6915,18.5347 Q96.0114,16.8828 98.5182,16.8828 Q99.2238,16.8828 99.8712,17.0322 Q100.5187,17.1816 101.0831,17.4805 L101.0831,20.2031 Q100.4523,19.6221 99.8588,19.3523 Q99.2653,19.0825 98.6344,19.0825 Q97.2897,19.0825 96.6049,20.1492 Q95.9201,21.2158 95.9201,23.3159 Q95.9201,25.4077 96.6049,26.4744 Q97.2897,27.541 98.6344,27.541 Q99.2653,27.541 99.8588,27.2712 Q100.4523,27.0015 101.0831,26.4204 Z " fill="#000000"/><text x="112.61" y="26.8889" fill="#000000" font-size="14" lengthAdjust="spacing" textLength="10.15" font-family="sans-serif">C</text><line x1="84.61" y1="39" x2="124.76" y2="39" style="stroke:#181818;stroke-width:0.5;"/><line x1="84.61" y1="47" x2="124.76" y2="47" style="stroke:#181818;stroke-width:0.5;"/></g><?plantuml-src Iyv9B2vMS5ImiIakIIrApJUqirEevghbIWQBEwE8mzX6K3LS6PafgIWg8AoIoe9KL3aZ53a0?></g></svg>