<svg xmlns="http://www.w3.org/2000/svg" xmlns:xlink="http://www.w3.org/1999/xlink" version="1.1" data-diagram-type="DESCRIPTION" style="width:224px;height:191px;background:#FFFFFF;" width="224px" height="191px" viewBox="0 0 224 191" zoomAndPan="magnify" preserveAspectRatio="none" contentStyleType="text/css"><?plantuml $version$?><defs/><g><!--entity foo--><g class="entity" data-qualified-name="foo" id="ent0001" data-source-line="1"><ellipse cx="22.7355" cy="25.4995" rx="16.7355" ry="12.8995" fill="#0000FF" style="stroke:#181818;stroke-width:0.5;"/><text x="13.023" y="28.9995" fill="#000000" font-size="14" lengthAdjust="spacing" textLength="19.425" font-family="sans-serif">foo</text></g><!--entity foo2--><g class="entity" data-qualified-name="foo2" id="ent0002" data-source-line="2"><rect x="74.13" y="7" width="57.2125" height="37" fill="#FF0000" style="stroke:#181818;stroke-width:0.5;" rx="2.5" ry="2.5"/><polygon points="114.3425,12,114.3425,26,126.3425,26,126.3425,18,120.3425,12,114.3425,12" fill="#FF0000" style="stroke:#181818;stroke-width:0.5;stroke-linejoin:miter;stroke-miterlimit:10;"/><line x1="120.3425" y1="12" x2="120.3425" y2="18" style="stroke:#181818;stroke-width:0.5;"/><line x1="126.3425" y1="18" x2="120.3425" y2="18" style="stroke:#181818;stroke-width:0.5;"/><text x="84.13" y="30.8889" fill="#000000" font-size="14" lengthAdjust="spacing" textLength="27.2125" font-family="sans-serif">foo2</text></g><!--entity foo3--><g class="entity" data-qualified-name="foo3" id="ent0003" data-source-line="3"><ellipse cx="188.7421" cy="25.4995" rx="22.2421" ry="12.8995" fill="#008000" style="stroke:#181818;stroke-width:0.5;"/><text x="175.1359" y="28.9995" fill="#000000" font-size="14" lengthAdjust="spacing" textLength="27.2125" font-family="sans-serif">foo3</text></g><!--entity foo4--><g class="entity" data-qualified-name="foo4" id="ent0004" data-source-line="4"><ellipse cx="22.7363" cy="112.5" rx="8" ry="8" fill="#FF00FF" style="stroke:#181818;stroke-width:0.5;"/><path d="M22.7363,120.5 L22.7363,147.5 M9.7362,128.5 L35.7363,128.5 M22.7363,147.5 L9.7362,162.5 M22.7363,147.5 L35.7363,162.5" style="stroke:#181818;stroke-width:0.5;" fill="none"/><text x="9.13" y="174.8889" fill="#000000" font-size="14" lengthAdjust="spacing" textLength="27.2125" font-family="sans-serif">foo4</text></g><!--entity foo5--><g class="entity" data-qualified-name="foo5" id="ent0005" data-source-line="5"><ellipse cx="84.7363" cy="112.5" rx="8" ry="8" fill="#FFFF00" style="stroke:#181818;stroke-width:0.5;"/><path d="M84.7363,120.5 L84.7363,147.5 M71.7363,128.5 L97.7363,128.5 M84.7363,147.5 L71.7363,162.5 M84.7363,147.5 L97.7363,162.5" style="stroke:#181818;stroke-width:0.5;" fill="none"/><text x="71.13" y="174.8889" fill="#000000" font-size="14" lengthAdjust="spacing" textLength="27.2125" font-family="sans-serif">foo5</text></g><!--entity foo6--><g class="entity" data-qualified-name="foo6" id="ent0006" data-source-line="6"><rect x="133.13" y="119" width="67.2125" height="44" fill="#FF0000" style="stroke:#181818;stroke-width:0.5;" rx="2.5" ry="2.5"/><rect x="180.3425" y="124" width="15" height="10" fill="#FF0000" style="stroke:#181818;stroke-width:0.5;"/><rect x="178.3425" y="126" width="4" height="2" fill="#FF0000" style="stroke:#181818;stroke-width:0.5;"/><rect x="178.3425" y="130" width="4" height="2" fill="#FF0000" style="stroke:#181818;stroke-width:0.5;"/><text x="148.13" y="149.8889" fill="#000000" font-size="14" lengthAdjust="spacing" textLength="27.2125" font-family="sans-serif">foo6</text></g><?plantuml-src 9OnB2e0m34JtEKKW6ztwM_GsiSOYj8tqWtXxMzpDl7bCpM8v2vwgIBkl0fpATR8j7Kr8IGuOMfn799T48fZM5eCKs4ai3CtLrEqLwHNlzG6huTROrewt_-G3?></g></svg>