<svg xmlns="http://www.w3.org/2000/svg" xmlns:xlink="http://www.w3.org/1999/xlink" version="1.1" data-diagram-type="CLASS" style="width:315px;height:286px;background:#FFFFFF;" width="315px" height="286px" viewBox="0 0 315 286" zoomAndPan="magnify" preserveAspectRatio="none" contentStyleType="text/css"><?plantuml $version$?><defs/><g><!--class A0--><g class="entity" data-qualified-name="A0" id="ent0001" data-source-line="2"><rect x="164.8" y="7" width="49.15" height="48" fill="#F1F1F1" style="stroke:#181818;stroke-width:0.5;" rx="2.5" ry="2.5"/><ellipse cx="179.8" cy="23" rx="11" ry="11" fill="#ADD1B2" style="stroke:#181818;stroke-width:1;"/><path d="M182.2731,29.1431 Q181.6921,29.4419 181.0529,29.5913 Q180.4138,29.7407 179.7082,29.7407 Q177.2014,29.7407 175.8815,28.0889 Q174.5617,26.437 174.5617,23.3159 Q174.5617,20.1865 175.8815,18.5347 Q177.2014,16.8828 179.7082,16.8828 Q180.4138,16.8828 181.0612,17.0322 Q181.7087,17.1816 182.2731,17.4805 L182.2731,20.2031 Q181.6423,19.6221 181.0488,19.3523 Q180.4553,19.0825 179.8244,19.0825 Q178.4797,19.0825 177.7949,20.1492 Q177.1101,21.2158 177.1101,23.3159 Q177.1101,25.4077 177.7949,26.4744 Q178.4797,27.541 179.8244,27.541 Q180.4553,27.541 181.0488,27.2712 Q181.6423,27.0015 182.2731,26.4204 Z " fill="#000000"/><text x="193.8" y="26.8889" fill="#000000" font-size="14" lengthAdjust="spacing" textLength="17.15" font-family="sans-serif">A0</text><line x1="165.8" y1="39" x2="212.95" y2="39" style="stroke:#181818;stroke-width:0.5;"/><line x1="165.8" y1="47" x2="212.95" y2="47" style="stroke:#181818;stroke-width:0.5;"/></g><!--class B0--><g class="entity" data-qualified-name="B0" id="ent0002" data-source-line="2"><rect x="206.8" y="115" width="49.15" height="48" fill="#F1F1F1" style="stroke:#181818;stroke-width:0.5;" rx="2.5" ry="2.5"/><ellipse cx="221.8" cy="131" rx="11" ry="11" fill="#ADD1B2" style="stroke:#181818;stroke-width:1;"/><path d="M224.2731,137.1431 Q223.6921,137.4419 223.0529,137.5913 Q222.4138,137.7407 221.7082,137.7407 Q219.2014,137.7407 217.8815,136.0889 Q216.5617,134.437 216.5617,131.3159 Q216.5617,128.1865 217.8815,126.5347 Q219.2014,124.8828 221.7082,124.8828 Q222.4138,124.8828 223.0612,125.0322 Q223.7087,125.1816 224.2731,125.4805 L224.2731,128.2031 Q223.6423,127.6221 223.0488,127.3523 Q222.4553,127.0825 221.8244,127.0825 Q220.4797,127.0825 219.7949,128.1492 Q219.1101,129.2158 219.1101,131.3159 Q219.1101,133.4077 219.7949,134.4744 Q220.4797,135.541 221.8244,135.541 Q222.4553,135.541 223.0488,135.2712 Q223.6423,135.0015 224.2731,134.4204 Z " fill="#000000"/><text x="235.8" y="134.8889" fill="#000000" font-size="14" lengthAdjust="spacing" textLength="17.15" font-family="sans-serif">B0</text><line x1="207.8" y1="147" x2="254.95" y2="147" style="stroke:#181818;stroke-width:0.5;"/><line x1="207.8" y1="155" x2="254.95" y2="155" style="stroke:#181818;stroke-width:0.5;"/></g><!--class A1--><g class="entity" data-qualified-name="A1" id="ent0004" data-source-line="3"><rect x="80.8" y="7" width="49.15" height="48" fill="#F1F1F1" style="stroke:#181818;stroke-width:0.5;" rx="2.5" ry="2.5"/><ellipse cx="95.8" cy="23" rx="11" ry="11" fill="#ADD1B2" style="stroke:#181818;stroke-width:1;"/><path d="M98.2731,29.1431 Q97.6921,29.4419 97.0529,29.5913 Q96.4138,29.7407 95.7082,29.7407 Q93.2014,29.7407 91.8815,28.0889 Q90.5617,26.437 90.5617,23.3159 Q90.5617,20.1865 91.8815,18.5347 Q93.2014,16.8828 95.7082,16.8828 Q96.4138,16.8828 97.0612,17.0322 Q97.7087,17.1816 98.2731,17.4805 L98.2731,20.2031 Q97.6423,19.6221 97.0488,19.3523 Q96.4553,19.0825 95.8244,19.0825 Q94.4797,19.0825 93.7949,20.1492 Q93.1101,21.2158 93.1101,23.3159 Q93.1101,25.4077 93.7949,26.4744 Q94.4797,27.541 95.8244,27.541 Q96.4553,27.541 97.0488,27.2712 Q97.6423,27.0015 98.2731,26.4204 Z " fill="#000000"/><text x="109.8" y="26.8889" fill="#000000" font-size="14" lengthAdjust="spacing" textLength="17.15" font-family="sans-serif">A1</text><line x1="81.8" y1="39" x2="128.95" y2="39" style="stroke:#181818;stroke-width:0.5;"/><line x1="81.8" y1="47" x2="128.95" y2="47" style="stroke:#181818;stroke-width:0.5;"/></g><!--class B1--><g class="entity" data-qualified-name="B1" id="ent0005" data-source-line="3"><rect x="38.8" y="115" width="49.15" height="48" fill="#F1F1F1" style="stroke:#181818;stroke-width:0.5;" rx="2.5" ry="2.5"/><ellipse cx="53.8" cy="131" rx="11" ry="11" fill="#ADD1B2" style="stroke:#181818;stroke-width:1;"/><path d="M56.2731,137.1431 Q55.6921,137.4419 55.0529,137.5913 Q54.4138,137.7407 53.7082,137.7407 Q51.2014,137.7407 49.8815,136.0889 Q48.5617,134.437 48.5617,131.3159 Q48.5617,128.1865 49.8815,126.5347 Q51.2014,124.8828 53.7082,124.8828 Q54.4138,124.8828 55.0612,125.0322 Q55.7087,125.1816 56.2731,125.4805 L56.2731,128.2031 Q55.6423,127.6221 55.0488,127.3523 Q54.4553,127.0825 53.8244,127.0825 Q52.4797,127.0825 51.7949,128.1492 Q51.1101,129.2158 51.1101,131.3159 Q51.1101,133.4077 51.7949,134.4744 Q52.4797,135.541 53.8244,135.541 Q54.4553,135.541 55.0488,135.2712 Q55.6423,135.0015 56.2731,134.4204 Z " fill="#000000"/><text x="67.8" y="134.8889" fill="#000000" font-size="14" lengthAdjust="spacing" textLength="17.15" font-family="sans-serif">B1</text><line x1="39.8" y1="147" x2="86.95" y2="147" style="stroke:#181818;stroke-width:0.5;"/><line x1="39.8" y1="155" x2="86.95" y2="155" style="stroke:#181818;stroke-width:0.5;"/></g><!--class B2--><g class="entity" data-qualified-name="B2" id="ent0009" data-source-line="6"><rect x="122.8" y="115" width="49.15" height="48" fill="#F1F1F1" style="stroke:#181818;stroke-width:0.5;" rx="2.5" ry="2.5"/><ellipse cx="137.8" cy="131" rx="11" ry="11" fill="#ADD1B2" style="stroke:#181818;stroke-width:1;"/><path d="M140.2731,137.1431 Q139.6921,137.4419 139.0529,137.5913 Q138.4138,137.7407 137.7082,137.7407 Q135.2014,137.7407 133.8815,136.0889 Q132.5617,134.437 132.5617,131.3159 Q132.5617,128.1865 133.8815,126.5347 Q135.2014,124.8828 137.7082,124.8828 Q138.4138,124.8828 139.0612,125.0322 Q139.7087,125.1816 140.2731,125.4805 L140.2731,128.2031 Q139.6423,127.6221 139.0488,127.3523 Q138.4553,127.0825 137.8244,127.0825 Q136.4797,127.0825 135.7949,128.1492 Q135.1101,129.2158 135.1101,131.3159 Q135.1101,133.4077 135.7949,134.4744 Q136.4797,135.541 137.8244,135.541 Q138.4553,135.541 139.0488,135.2712 Q139.6423,135.0015 140.2731,134.4204 Z " fill="#000000"/><text x="151.8" y="134.8889" fill="#000000" font-size="14" lengthAdjust="spacing" textLength="17.15" font-family="sans-serif">B2</text><line x1="123.8" y1="147" x2="170.95" y2="147" style="stroke:#181818;stroke-width:0.5;"/><line x1="123.8" y1="155" x2="170.95" y2="155" style="stroke:#181818;stroke-width:0.5;"/></g><!--class C0--><g class="entity" data-qualified-name="C0" id="ent0012" data-source-line="8"><rect x="38.4" y="223" width="49.9375" height="48" fill="#F1F1F1" style="stroke:#181818;stroke-width:0.5;" rx="2.5" ry="2.5"/><ellipse cx="53.4" cy="239" rx="11" ry="11" fill="#ADD1B2" style="stroke:#181818;stroke-width:1;"/><path d="M55.8731,245.1431 Q55.2921,245.4419 54.6529,245.5913 Q54.0138,245.7407 53.3082,245.7407 Q50.8014,245.7407 49.4815,244.0889 Q48.1617,242.437 48.1617,239.3159 Q48.1617,236.1865 49.4815,234.5347 Q50.8014,232.8828 53.3082,232.8828 Q54.0138,232.8828 54.6612,233.0322 Q55.3087,233.1816 55.8731,233.4805 L55.8731,236.2031 Q55.2423,235.6221 54.6488,235.3523 Q54.0553,235.0825 53.4244,235.0825 Q52.0797,235.0825 51.3949,236.1492 Q50.7101,237.2158 50.7101,239.3159 Q50.7101,241.4077 51.3949,242.4744 Q52.0797,243.541 53.4244,243.541 Q54.0553,243.541 54.6488,243.2712 Q55.2423,243.0015 55.8731,242.4204 Z " fill="#000000"/><text x="67.4" y="242.8889" fill="#000000" font-size="14" lengthAdjust="spacing" textLength="17.9375" font-family="sans-serif">C0</text><line x1="39.4" y1="255" x2="87.3375" y2="255" style="stroke:#181818;stroke-width:0.5;"/><line x1="39.4" y1="263" x2="87.3375" y2="263" style="stroke:#181818;stroke-width:0.5;"/></g><!--reverse link A0 to B0--><g class="link" data-entity-1="ent0001" data-entity-2="ent0002" id="lnk3" data-source-line="2" data-link-type="extension"><path d="M205.2162,71.996 C212.2162,89.676 215.18,97.13 222.18,114.79" style="stroke:#181818;stroke-width:1;" fill="none" id="A0-backto-B0" codeLine="2"/><polygon points="198.59,55.26,199.6376,74.2047,210.7949,69.7872,198.59,55.26" fill="none" style="stroke:#181818;stroke-width:1;stroke-linejoin:miter;stroke-miterlimit:10;"/></g><!--reverse link A1 to B1--><g class="link" data-entity-1="ent0004" data-entity-2="ent0005" id="lnk6" data-source-line="3" data-link-type="extension"><path d="M89.5256,71.9927 C82.5156,89.6727 79.57,97.13 72.57,114.79" style="stroke:#181818;stroke-width:1;" fill="none" id="A1-backto-B1" codeLine="3"/><polygon points="96.16,55.26,83.948,69.7813,95.1032,74.2042,96.16,55.26" fill="none" style="stroke:#181818;stroke-width:1;stroke-linejoin:miter;stroke-miterlimit:10;"/></g><!--reverse link A0 to B1--><g class="link" data-entity-1="ent0001" data-entity-2="ent0005" id="lnk7" data-source-line="4" data-link-type="extension"><path d="M150.7079,64.53 C128.6179,83.12 110.29,98.53 88.21,117.1" style="stroke:#181818;stroke-width:1;" fill="none" id="A0-backto-B1" codeLine="4"/><polygon points="164.48,52.94,146.8445,59.9393,154.5712,69.1207,164.48,52.94" fill="none" style="stroke:#181818;stroke-width:1;stroke-linejoin:miter;stroke-miterlimit:10;"/></g><!--reverse link A1 to B0--><g class="link" data-entity-1="ent0004" data-entity-2="ent0002" id="lnk8" data-source-line="5" data-link-type="extension"><path d="M144.0421,64.53 C166.1321,83.12 184.46,98.53 206.53,117.1" style="stroke:#181818;stroke-width:1;" fill="none" id="A1-backto-B0" codeLine="5"/><polygon points="130.27,52.94,140.1788,69.1207,147.9055,59.9393,130.27,52.94" fill="none" style="stroke:#181818;stroke-width:1;stroke-linejoin:miter;stroke-miterlimit:10;"/></g><!--reverse link A1 to B2--><g class="link" data-entity-1="ent0004" data-entity-2="ent0009" id="lnk10" data-source-line="6" data-link-type="extension"><path d="M121.2162,71.996 C128.2162,89.676 131.18,97.13 138.18,114.79" style="stroke:#181818;stroke-width:1;" fill="none" id="A1-backto-B2" codeLine="6"/><polygon points="114.59,55.26,115.6376,74.2047,126.7949,69.7872,114.59,55.26" fill="none" style="stroke:#181818;stroke-width:1;stroke-linejoin:miter;stroke-miterlimit:10;"/></g><!--reverse link A0 to B2--><g class="link" data-entity-1="ent0001" data-entity-2="ent0009" id="lnk11" data-source-line="7" data-link-type="extension"><path d="M173.5256,71.9927 C166.5156,89.6727 163.57,97.13 156.57,114.79" style="stroke:#181818;stroke-width:1;" fill="none" id="A0-backto-B2" codeLine="7"/><polygon points="180.16,55.26,167.948,69.7813,179.1032,74.2042,180.16,55.26" fill="none" style="stroke:#181818;stroke-width:1;stroke-linejoin:miter;stroke-miterlimit:10;"/></g><!--reverse link B1 to C0--><g class="link" data-entity-1="ent0005" data-entity-2="ent0012" id="lnk13" data-source-line="8" data-link-type="extension"><path d="M63.37,181.26 C63.37,198.94 63.37,205.13 63.37,222.79" style="stroke:#181818;stroke-width:1;" fill="none" id="B1-backto-C0" codeLine="8"/><polygon points="63.37,163.26,57.37,181.26,69.37,181.26,63.37,163.26" fill="none" style="stroke:#181818;stroke-width:1;stroke-linejoin:miter;stroke-miterlimit:10;"/></g><!--reverse link A0 to C0--><g class="link" data-entity-1="ent0001" data-entity-2="ent0012" id="lnk14" data-source-line="9" data-link-type="extension"><path d="M228.8272,59.9404 C262.4872,85.1504 300.72,122.79 273.37,163 C231.16,225.08 134.59,240.73 88.61,244.67" style="stroke:#181818;stroke-width:1;" fill="none" id="A0-backto-C0" codeLine="9"/><polygon points="214.42,49.15,225.2304,64.7428,232.424,55.138,214.42,49.15" fill="none" style="stroke:#181818;stroke-width:1;stroke-linejoin:miter;stroke-miterlimit:10;"/></g><!--reverse link A1 to C0--><g class="link" data-entity-1="ent0004" data-entity-2="ent0012" id="lnk15" data-source-line="10" data-link-type="extension"><path d="M66.0256,58.5972 C45.8256,73.2672 33.31,86.43 21.37,115 C6,151.8 28.56,196.34 46.1,222.85" style="stroke:#181818;stroke-width:1;" fill="none" id="A1-backto-C0" codeLine="10"/><polygon points="80.59,48.02,62.4998,53.7424,69.5513,63.452,80.59,48.02" fill="none" style="stroke:#181818;stroke-width:1;stroke-linejoin:miter;stroke-miterlimit:10;"/></g><?plantuml-src SpHGiAdHrLLmCk1oD8Go3RaS3H1CGqm5HWW5HbnEK55d0xYeCq8ja0a0?></g></svg>