<svg xmlns="http://www.w3.org/2000/svg" xmlns:xlink="http://www.w3.org/1999/xlink" version="1.1" data-diagram-type="CLASS" style="width:158px;height:84px;background:#FFFFFF;" width="158px" height="84px" viewBox="0 0 158 84" zoomAndPan="magnify" preserveAspectRatio="none" contentStyleType="text/css"><?plantuml $version$?><defs/><g><!--class A--><g class="entity" data-qualified-name="A" id="ent0001" data-source-line="10"><rect x="101.64" y="7" width="41.3625" height="62" fill="#F1F1F1" style="stroke:#181818;stroke-width:0.5;" rx="2.5" ry="2.5"/><ellipse cx="116.64" cy="23" rx="11" ry="11" fill="#ADD1B2" style="stroke:#181818;stroke-width:1;"/><path d="M119.1131,29.1431 Q118.5321,29.4419 117.8929,29.5913 Q117.2538,29.7407 116.5482,29.7407 Q114.0414,29.7407 112.7215,28.0889 Q111.4017,26.437 111.4017,23.3159 Q111.4017,20.1865 112.7215,18.5347 Q114.0414,16.8828 116.5482,16.8828 Q117.2538,16.8828 117.9012,17.0322 Q118.5487,17.1816 119.1131,17.4805 L119.1131,20.2031 Q118.4823,19.6221 117.8888,19.3523 Q117.2953,19.0825 116.6644,19.0825 Q115.3197,19.0825 114.6349,20.1492 Q113.9501,21.2158 113.9501,23.3159 Q113.9501,25.4077 114.6349,26.4744 Q115.3197,27.541 116.6644,27.541 Q117.2953,27.541 117.8888,27.2712 Q118.4823,27.0015 119.1131,26.4204 Z " fill="#000000"/><text x="130.64" y="26.8889" fill="#000000" font-size="14" lengthAdjust="spacing" textLength="9.3625" font-family="sans-serif">A</text><line x1="102.64" y1="39" x2="142.0025" y2="39" style="stroke:#181818;stroke-width:0.5;"/><line x1="102.64" y1="47" x2="142.0025" y2="47" style="stroke:#181818;stroke-width:0.5;"/><text x="107.64" y="61.8889" fill="#000000" font-size="14" lengthAdjust="spacing" textLength="18.6375" font-family="sans-serif">B()</text></g><path d="M6,21.5 L6,44.5 A0,0 0 0 0 6,44.5 L66.65,44.5 A0,0 0 0 0 66.65,44.5 L66.65,39.5 L107.64,58 L66.65,31.5 L66.65,31.5 L56.65,21.5 L6,21.5 A0,0 0 0 0 6,21.5" style="stroke:#181818;stroke-width:0.5;" fill="#FF0000"/><path d="M56.65,21.5 L56.65,31.5 L66.65,31.5 L56.65,21.5" style="stroke:#181818;stroke-width:0.5;" fill="#FF0000"/><text x="12" y="36.6111" fill="#000000" font-size="13" lengthAdjust="spacing" textLength="39.65" font-family="sans-serif">test red</text><?plantuml-src JOx12eGm34Jl-OhWoRteNOgWVacnwI9R6cZZGSH_jqQHdKC8C_1cJ9OjK0zO55a8TtqlDTukKVwCIwETVz_4QtGJ1qwOoBtv0VSrxGE5ETYSSG1bZFK73W1j2UG5sUFGTLNnApH6s_goH2YBSYawtGGd?></g></svg>