<svg xmlns="http://www.w3.org/2000/svg" xmlns:xlink="http://www.w3.org/1999/xlink" version="1.1" data-diagram-type="CLASS" style="width:219px;height:377px;background:#FFFFFF;" width="219px" height="377px" viewBox="0 0 219 377" zoomAndPan="magnify" preserveAspectRatio="none" contentStyleType="text/css"><?plantuml $version$?><defs/><g><g class="title" data-source-line="1"><text x="94.7125" y="20.8889" fill="#000000" font-size="14" lengthAdjust="spacing" textLength="23.275" font-weight="700" font-family="sans-serif">toto</text></g><!--class Object--><g class="entity" data-qualified-name="Object" id="ent0001" data-source-line="2"><a target="_top" href="http://www.fr" xlink:href="http://www.fr" xlink:type="simple" xlink:actuate="onRequest" xlink:show="new" title="http://www.fr" xlink:title="http://www.fr"><rect x="69.14" y="42" width="72.425" height="48" fill="#F1F1F1" style="stroke:#181818;stroke-width:0.5;" rx="2.5" ry="2.5"/><ellipse cx="84.14" cy="58" rx="11" ry="11" fill="#ADD1B2" style="stroke:#181818;stroke-width:1;"/><path d="M86.6131,64.1431 Q86.0321,64.4419 85.3929,64.5913 Q84.7538,64.7407 84.0482,64.7407 Q81.5414,64.7407 80.2215,63.0889 Q78.9017,61.437 78.9017,58.3159 Q78.9017,55.1865 80.2215,53.5347 Q81.5414,51.8828 84.0482,51.8828 Q84.7538,51.8828 85.4012,52.0322 Q86.0487,52.1816 86.6131,52.4805 L86.6131,55.2031 Q85.9823,54.6221 85.3888,54.3523 Q84.7953,54.0825 84.1644,54.0825 Q82.8197,54.0825 82.1349,55.1492 Q81.4501,56.2158 81.4501,58.3159 Q81.4501,60.4077 82.1349,61.4744 Q82.8197,62.541 84.1644,62.541 Q84.7953,62.541 85.3888,62.2712 Q85.9823,62.0015 86.6131,61.4204 Z " fill="#000000"/><text x="98.14" y="61.8889" fill="#000000" font-size="14" lengthAdjust="spacing" textLength="40.425" font-family="sans-serif">Object</text><line x1="70.14" y1="74" x2="140.565" y2="74" style="stroke:#181818;stroke-width:0.5;"/><line x1="70.14" y1="82" x2="140.565" y2="82" style="stroke:#181818;stroke-width:0.5;"/></a></g><!--class Foo--><g class="entity" data-qualified-name="Foo" id="ent0002" data-source-line="2"><a target="_top" href="http://www.google.com" xlink:href="http://www.google.com" xlink:type="simple" xlink:actuate="onRequest" xlink:show="new" title="http://www.google.com" xlink:title="http://www.google.com"><rect x="7" y="150" width="96.7" height="76" fill="#F1F1F1" style="stroke:#181818;stroke-width:0.5;" rx="2.5" ry="2.5"/><ellipse cx="40.2475" cy="166" rx="11" ry="11" fill="#ADD1B2" style="stroke:#181818;stroke-width:1;"/><path d="M42.7206,172.1431 Q42.1396,172.4419 41.5004,172.5913 Q40.8613,172.7407 40.1557,172.7407 Q37.6489,172.7407 36.329,171.0889 Q35.0092,169.437 35.0092,166.3159 Q35.0092,163.1865 36.329,161.5347 Q37.6489,159.8828 40.1557,159.8828 Q40.8613,159.8828 41.5087,160.0322 Q42.1562,160.1816 42.7206,160.4805 L42.7206,163.2031 Q42.0898,162.6221 41.4963,162.3523 Q40.9028,162.0825 40.2719,162.0825 Q38.9272,162.0825 38.2424,163.1492 Q37.5576,164.2158 37.5576,166.3159 Q37.5576,168.4077 38.2424,169.4744 Q38.9272,170.541 40.2719,170.541 Q40.9028,170.541 41.4963,170.2712 Q42.0898,170.0015 42.7206,169.4204 Z " fill="#000000"/><text x="58.3025" y="169.8889" fill="#000000" font-size="14" lengthAdjust="spacing" textLength="24.15" font-family="sans-serif">Foo</text><line x1="8" y1="182" x2="102.7" y2="182" style="stroke:#181818;stroke-width:0.5;"/><line x1="8" y1="190" x2="102.7" y2="190" style="stroke:#181818;stroke-width:0.5;"/></a><a target="_top" href="http://www.yahoo.com/A1" xlink:href="http://www.yahoo.com/A1" xlink:type="simple" xlink:actuate="onRequest" xlink:show="new" title="Some explainations about this method" xlink:title="Some explainations about this method"><rect x="13" y="197.5" width="20" height="10" fill="#F1F1F1" style="stroke:none;stroke-width:1;"/></a><g data-visibility-modifier="PUBLIC_METHOD"><a target="_top" href="http://www.yahoo.com/A1" xlink:href="http://www.yahoo.com/A1" xlink:type="simple" xlink:actuate="onRequest" xlink:show="new" title="Some explainations about this method" xlink:title="Some explainations about this method"><ellipse cx="18" cy="202.5" rx="3" ry="3" fill="#84BE84" style="stroke:#038048;stroke-width:1;"/></a></g><a target="_top" href="http://www.yahoo.com/A1" xlink:href="http://www.yahoo.com/A1" xlink:type="simple" xlink:actuate="onRequest" xlink:show="new" title="Some explainations about this method" xlink:title="Some explainations about this method"><text x="27" y="204.8889" fill="#000000" font-size="14" lengthAdjust="spacing" textLength="70.7" font-family="sans-serif">methods1()</text></a><a target="_top" href="http://www.yahoo.com/A2" xlink:href="http://www.yahoo.com/A2" xlink:type="simple" xlink:actuate="onRequest" xlink:show="new" title="http://www.yahoo.com/A2" xlink:title="http://www.yahoo.com/A2"><rect x="13" y="211.5" width="20" height="10" fill="#F1F1F1" style="stroke:none;stroke-width:1;"/></a><g data-visibility-modifier="PUBLIC_METHOD"><a target="_top" href="http://www.yahoo.com/A2" xlink:href="http://www.yahoo.com/A2" xlink:type="simple" xlink:actuate="onRequest" xlink:show="new" title="http://www.yahoo.com/A2" xlink:title="http://www.yahoo.com/A2"><ellipse cx="18" cy="216.5" rx="3" ry="3" fill="#84BE84" style="stroke:#038048;stroke-width:1;"/></a></g><a target="_top" href="http://www.yahoo.com/A2" xlink:href="http://www.yahoo.com/A2" xlink:type="simple" xlink:actuate="onRequest" xlink:show="new" title="http://www.yahoo.com/A2" xlink:title="http://www.yahoo.com/A2"><text x="27" y="218.8889" fill="#000000" font-size="14" lengthAdjust="spacing" textLength="70.7" font-family="sans-serif">methods2()</text></a></g><!--class Foo2--><g class="entity" data-qualified-name="Foo2" id="ent0004" data-source-line="8"><rect x="108" y="286" width="96.7" height="76" fill="#F1F1F1" style="stroke:#181818;stroke-width:0.5;" rx="2.5" ry="2.5"/><ellipse cx="137.7431" cy="302" rx="11" ry="11" fill="#ADD1B2" style="stroke:#181818;stroke-width:1;"/><path d="M140.2163,308.1431 Q139.6352,308.4419 138.9961,308.5913 Q138.3569,308.7407 137.6513,308.7407 Q135.1445,308.7407 133.8247,307.0889 Q132.5048,305.437 132.5048,302.3159 Q132.5048,299.1865 133.8247,297.5347 Q135.1445,295.8828 137.6513,295.8828 Q138.3569,295.8828 139.0044,296.0322 Q139.6518,296.1816 140.2163,296.4805 L140.2163,299.2031 Q139.5854,298.6221 138.9919,298.3523 Q138.3984,298.0825 137.7675,298.0825 Q136.4228,298.0825 135.738,299.1492 Q135.0532,300.2158 135.0532,302.3159 Q135.0532,304.4077 135.738,305.4744 Q136.4228,306.541 137.7675,306.541 Q138.3984,306.541 138.9919,306.2712 Q139.5854,306.0015 140.2163,305.4204 Z " fill="#000000"/><text x="155.0194" y="305.8889" fill="#000000" font-size="14" lengthAdjust="spacing" textLength="31.9375" font-family="sans-serif">Foo2</text><line x1="109" y1="318" x2="203.7" y2="318" style="stroke:#181818;stroke-width:0.5;"/><line x1="109" y1="326" x2="203.7" y2="326" style="stroke:#181818;stroke-width:0.5;"/><a target="_top" href="http://www.yahoo.com/B1" xlink:href="http://www.yahoo.com/B1" xlink:type="simple" xlink:actuate="onRequest" xlink:show="new" title="http://www.yahoo.com/B1" xlink:title="http://www.yahoo.com/B1"><rect x="114" y="333.5" width="20" height="10" fill="#F1F1F1" style="stroke:none;stroke-width:1;"/></a><g data-visibility-modifier="PUBLIC_METHOD"><a target="_top" href="http://www.yahoo.com/B1" xlink:href="http://www.yahoo.com/B1" xlink:type="simple" xlink:actuate="onRequest" xlink:show="new" title="http://www.yahoo.com/B1" xlink:title="http://www.yahoo.com/B1"><ellipse cx="119" cy="338.5" rx="3" ry="3" fill="#84BE84" style="stroke:#038048;stroke-width:1;"/></a></g><a target="_top" href="http://www.yahoo.com/B1" xlink:href="http://www.yahoo.com/B1" xlink:type="simple" xlink:actuate="onRequest" xlink:show="new" title="http://www.yahoo.com/B1" xlink:title="http://www.yahoo.com/B1"><text x="128" y="340.8889" fill="#000000" font-size="14" lengthAdjust="spacing" textLength="70.7" font-family="sans-serif">methods1()</text></a><a target="_top" href="http://www.yahoo.com/B2" xlink:href="http://www.yahoo.com/B2" xlink:type="simple" xlink:actuate="onRequest" xlink:show="new" title="http://www.yahoo.com/B2" xlink:title="http://www.yahoo.com/B2"><rect x="114" y="347.5" width="20" height="10" fill="#F1F1F1" style="stroke:none;stroke-width:1;"/></a><g data-visibility-modifier="PUBLIC_METHOD"><a target="_top" href="http://www.yahoo.com/B2" xlink:href="http://www.yahoo.com/B2" xlink:type="simple" xlink:actuate="onRequest" xlink:show="new" title="http://www.yahoo.com/B2" xlink:title="http://www.yahoo.com/B2"><ellipse cx="119" cy="352.5" rx="3" ry="3" fill="#84BE84" style="stroke:#038048;stroke-width:1;"/></a></g><a target="_top" href="http://www.yahoo.com/B2" xlink:href="http://www.yahoo.com/B2" xlink:type="simple" xlink:actuate="onRequest" xlink:show="new" title="http://www.yahoo.com/B2" xlink:title="http://www.yahoo.com/B2"><text x="128" y="354.8889" fill="#000000" font-size="14" lengthAdjust="spacing" textLength="70.7" font-family="sans-serif">methods2()</text></a></g><!--reverse link Object to Foo--><g class="link" data-entity-1="ent0001" data-entity-2="ent0002" id="lnk3" data-source-line="2" data-link-type="extension"><path d="M88.6669,107.0354 C81.6169,123.9554 78.88,130.53 70.79,149.94" style="stroke:#181818;stroke-width:1;" fill="none" id="Object-backto-Foo" codeLine="2"/><polygon points="95.59,90.42,83.1285,104.7277,94.2054,109.3431,95.59,90.42" fill="none" style="stroke:#181818;stroke-width:1;stroke-linejoin:miter;stroke-miterlimit:10;"/></g><!--reverse link Object to Foo2--><g class="link" data-entity-1="ent0001" data-entity-2="ent0004" id="lnk5" data-source-line="16" data-link-type="extension"><path d="M113.4863,107.8232 C122.3363,152.2532 138.25,232.13 148.94,285.79" style="stroke:#181818;stroke-width:1;" fill="none" id="Object-backto-Foo2" codeLine="16"/><polygon points="109.97,90.17,107.6019,108.9953,119.3707,106.6511,109.97,90.17" fill="none" style="stroke:#181818;stroke-width:1;stroke-linejoin:miter;stroke-miterlimit:10;"/></g><?plantuml-src bP2n3e8m54NtViKRDGO87OsB3AuEZgH3mKfh2e_OPwf1_bsBn61CZ6vtEBdtvf0Xgu2Ga6sBeoe9LhSeWWqYAwrqBYJ8SqtKBfF4UnzNY9LLSOcr4D0nW0NKYZJkNJgRFz0fUvKQCQ39EkrsM2jGbzPAqqWos3YG1Pu9I1itTlH2Y6ab_rR91xXdmE3rbVz-AKl_6Ci-naPTR_pXz7GIi8dEmIU_0m00?></g></svg>