<svg xmlns="http://www.w3.org/2000/svg" xmlns:xlink="http://www.w3.org/1999/xlink" version="1.1" data-diagram-type="CLASS" style="width:253px;height:110px;background:#FFFFFF;" width="253px" height="110px" viewBox="0 0 253 110" zoomAndPan="magnify" preserveAspectRatio="none" contentStyleType="text/css"><?plantuml $version$?><defs/><g><!--class foo--><g class="entity" data-qualified-name="foo" id="ent0001" data-source-line="3"><rect x="7" y="7" width="233.725" height="90" fill="#F1F1F1" style="stroke:#181818;stroke-width:0.5;" rx="2.5" ry="2.5"/><ellipse cx="109.9" cy="23" rx="11" ry="11" fill="#ADD1B2" style="stroke:#181818;stroke-width:1;"/><path d="M112.3731,29.1431 Q111.7921,29.4419 111.1529,29.5913 Q110.5138,29.7407 109.8082,29.7407 Q107.3014,29.7407 105.9815,28.0889 Q104.6617,26.437 104.6617,23.3159 Q104.6617,20.1865 105.9815,18.5347 Q107.3014,16.8828 109.8082,16.8828 Q110.5138,16.8828 111.1612,17.0322 Q111.8087,17.1816 112.3731,17.4805 L112.3731,20.2031 Q111.7423,19.6221 111.1488,19.3523 Q110.5553,19.0825 109.9244,19.0825 Q108.5797,19.0825 107.8949,20.1492 Q107.2101,21.2158 107.2101,23.3159 Q107.2101,25.4077 107.8949,26.4744 Q108.5797,27.541 109.9244,27.541 Q110.5553,27.541 111.1488,27.2712 Q111.7423,27.0015 112.3731,26.4204 Z " fill="#000000"/><text x="130.4" y="26.8889" fill="#000000" font-size="14" lengthAdjust="spacing" textLength="19.425" font-family="sans-serif">foo</text><line x1="8" y1="39" x2="239.725" y2="39" style="stroke:#181818;stroke-width:0.5;"/><text x="13" y="53.8889" fill="#000000" font-size="14" lengthAdjust="spacing" textLength="95.8125" font-family="sans-serif">Z1 and Z2 and Z3</text><text x="13" y="67.8889" fill="#000000" font-size="14" lengthAdjust="spacing" textLength="168.875" font-family="sans-serif">Z1 and Z2 and another default</text><text x="13" y="81.8889" fill="#000000" font-size="14" lengthAdjust="spacing" textLength="221.725" font-family="sans-serif">A and some default and another default</text><line x1="8" y1="89" x2="239.725" y2="89" style="stroke:#181818;stroke-width:0.5;"/></g><?plantuml-src Kqn9JSlCIrKepizDZSzDJ2xArwZGKQXKi5LG0Waf0AKJItDAb1Hq5Ag0Wkg9UVab6Qb5C75r1Ks52eN4l1IW5X1PnSMLd9DONAoGbf-lKCsbW6nkbA6EGfGH41jhOfD04tJKvAhb0W00?></g></svg>