<svg xmlns="http://www.w3.org/2000/svg" xmlns:xlink="http://www.w3.org/1999/xlink" version="1.1" data-diagram-type="STATE" style="width:223px;height:509px;background:#FFFFFF;" width="223px" height="509px" viewBox="0 0 223 509" zoomAndPan="magnify" preserveAspectRatio="none" contentStyleType="text/css"><?plantuml $version$?><defs/><g><g class="entity" data-qualified-name="s7_2" id="ent0001" data-source-line="4"><path d="M19.5,7 L116.5,7 A12.5,12.5 0 0 1 129,19.5 L129,31 L7,31 L7,19.5 A12.5,12.5 0 0 1 19.5,7" fill="#F1F1F1"/><rect x="7" y="7" width="122" height="378" fill="none" style="stroke:#181818;stroke-width:0.5;" rx="12.5" ry="12.5"/><line x1="7" y1="31" x2="129" y2="31" style="stroke:#181818;stroke-width:0.5;"/><text x="52.8188" y="22.8889" fill="#000000" font-size="14" lengthAdjust="spacing" textLength="30.3625" font-family="sans-serif">s7_2</text><g class="entity" data-qualified-name="s7_2.toutou9" id="ent0002" data-source-line="7"><path d="M31.5,98 L92.5,98 A12.5,12.5 0 0 1 105,110.5 L105,122 L19,122 L19,110.5 A12.5,12.5 0 0 1 31.5,98" fill="#F1F1F1"/><rect x="19" y="98" width="86" height="154" fill="none" style="stroke:#181818;stroke-width:0.5;" rx="12.5" ry="12.5"/><line x1="19" y1="122" x2="105" y2="122" style="stroke:#181818;stroke-width:0.5;"/><text x="38.6813" y="113.8889" fill="#000000" font-size="14" lengthAdjust="spacing" textLength="46.6375" font-family="sans-serif">toutou9</text><g class="start_entity" data-qualified-name="s7_2.toutou9..start.toutou9" id="ent0009" data-source-line="8"><ellipse cx="56" cy="143" rx="10" ry="10" fill="#222222" style="stroke:#222222;stroke-width:1;"/></g><g class="entity" data-qualified-name="s7_2.toutou9.leo" id="ent0010" data-source-line="8"><rect x="31" y="189" width="50" height="50" fill="#F1F1F1" style="stroke:#181818;stroke-width:0.5;" rx="12.5" ry="12.5"/><line x1="31" y1="213" x2="81" y2="213" style="stroke:#181818;stroke-width:0.5;"/><text x="46.6375" y="204.8889" fill="#000000" font-size="14" lengthAdjust="spacing" textLength="18.725" font-family="sans-serif">leo</text></g><!--link *start*toutou9 to leo--><g class="link" data-entity-1="ent0009" data-entity-2="ent0010" id="lnk11" data-source-line="8" data-link-type="dependency"><path d="M56,153.31 C56,162.35 56,171.49 56,183.73" style="stroke:#181818;stroke-width:1;" fill="none" id="*start*toutou9-to-leo"/><polygon points="56,188.73,60,179.73,56,183.73,52,179.73,56,188.73" fill="#181818" style="stroke:#181818;stroke-width:1;stroke-linejoin:miter;stroke-miterlimit:10;"/></g></g><g class="start_entity" data-qualified-name="s7_2..start.s7_2" id="ent0007" data-source-line="5"><ellipse cx="62" cy="52" rx="10" ry="10" fill="#222222" style="stroke:#222222;stroke-width:1;"/></g><!--link *start*s7_2 to toutou9--><g class="link" data-entity-1="ent0007" data-entity-2="ent0002" id="lnk8" data-source-line="5" data-link-type="dependency"><path d="M62,62.49 C62,70.74 62,78.54 62,92.56" style="stroke:#181818;stroke-width:1;" fill="none" id="*start*s7_2-to-toutou9"/><polygon points="62,97.56,66,88.56,62,92.56,58,88.56,62,97.56" fill="#181818" style="stroke:#181818;stroke-width:1;stroke-linejoin:miter;stroke-miterlimit:10;"/></g><line x1="12" y1="260" x2="122" y2="260" style="stroke:#181818;stroke-width:1.5;stroke-dasharray:8,10;"/><g class="start_entity" data-qualified-name="s7_2.CONC1..start.CONC1" id="ent0012" data-source-line="12"><ellipse cx="44" cy="276" rx="10" ry="10" fill="#222222" style="stroke:#222222;stroke-width:1;"/></g><g class="entity" data-qualified-name="s7_2.CONC1.chat" id="ent0013" data-source-line="12"><rect x="19" y="322" width="50" height="50" fill="#F1F1F1" style="stroke:#181818;stroke-width:0.5;" rx="12.5" ry="12.5"/><line x1="19" y1="346" x2="69" y2="346" style="stroke:#181818;stroke-width:0.5;"/><text x="30.7875" y="337.8889" fill="#000000" font-size="14" lengthAdjust="spacing" textLength="26.425" font-family="sans-serif">chat</text></g><!--link *start*CONC1 to chat--><g class="link" data-entity-1="ent0012" data-entity-2="ent0013" id="lnk14" data-source-line="12" data-link-type="dependency"><path d="M44,286.31 C44,295.35 44,304.49 44,316.73" style="stroke:#181818;stroke-width:1;" fill="none" id="*start*CONC1-to-chat"/><polygon points="44,321.73,48,312.73,44,316.73,40,312.73,44,321.73" fill="#181818" style="stroke:#181818;stroke-width:1;stroke-linejoin:miter;stroke-miterlimit:10;"/></g></g><g class="start_entity" data-qualified-name=".start." id="ent0004" data-source-line="2"><ellipse cx="174" cy="196" rx="10" ry="10" fill="#222222" style="stroke:#222222;stroke-width:1;"/></g><g class="entity" data-qualified-name="s0_start" id="ent0005" data-source-line="2"><rect x="139.15" y="445" width="69.7" height="50" fill="#F1F1F1" style="stroke:#181818;stroke-width:0.5;" rx="12.5" ry="12.5"/><line x1="139.15" y1="469" x2="208.85" y2="469" style="stroke:#181818;stroke-width:0.5;"/><text x="149.15" y="460.8889" fill="#000000" font-size="14" lengthAdjust="spacing" textLength="49.7" font-family="sans-serif">s0_start</text></g><!--link *start* to s0_start--><g class="link" data-entity-1="ent0004" data-entity-2="ent0005" id="lnk6" data-source-line="2" data-link-type="dependency"><path d="M174,206.36 C174,244.29 174,382.21 174,439.77" style="stroke:#181818;stroke-width:1;" fill="none" id="*start*-to-s0_start"/><polygon points="174,444.77,178,435.77,174,439.77,170,435.77,174,444.77" fill="#181818" style="stroke:#181818;stroke-width:1;stroke-linejoin:miter;stroke-miterlimit:10;"/></g><?plantuml-src AyxEp2j8B4hCLIWkIyrMA2agJUMArefLqDMrKoWsY2ykIImguU82KYMf2iNcyKOArN3falnI8BBaKe1AG_b8Ad9IyxbgkRXqTU4YoHc99Lor2bnS0000?></g></svg>